ISO-10303-21;
HEADER;
FILE_DESCRIPTION(('FreeCAD Model'),'2;1');
FILE_NAME('Open CASCADE Shape Model','2026-01-18T06:57:34',(''),(''),
  'Open CASCADE STEP processor 7.8','FreeCAD','Unknown');
FILE_SCHEMA(('AUTOMOTIVE_DESIGN { 1 0 10303 214 1 1 1 1 }'));
ENDSEC;
DATA;
#1 = APPLICATION_PROTOCOL_DEFINITION('international standard',
  'automotive_design',2000,#2);
#2 = APPLICATION_CONTEXT(
  'core data for automotive mechanical design processes');
#3 = SHAPE_DEFINITION_REPRESENTATION(#4,#10);
#4 = PRODUCT_DEFINITION_SHAPE('','',#5);
#5 = PRODUCT_DEFINITION('design','',#6,#9);
#6 = PRODUCT_DEFINITION_FORMATION('','',#7);
#7 = PRODUCT('container','container','',(#8));
#8 = PRODUCT_CONTEXT('',#2,'mechanical');
#9 = PRODUCT_DEFINITION_CONTEXT('part definition',#2,'design');
#10 = ADVANCED_BREP_SHAPE_REPRESENTATION('',(#11,#15),#693);
#11 = AXIS2_PLACEMENT_3D('',#12,#13,#14);
#12 = CARTESIAN_POINT('',(0.,0.,0.));
#13 = DIRECTION('',(0.,0.,1.));
#14 = DIRECTION('',(1.,0.,-0.));
#15 = MANIFOLD_SOLID_BREP('',#16);
#16 = CLOSED_SHELL('',(#17,#57,#88,#128,#207,#254,#301,#332,#365,#412,
    #436,#460,#477,#494,#506,#537,#561,#608,#620,#642,#654,#675));
#17 = ADVANCED_FACE('',(#18),#52,.F.);
#18 = FACE_BOUND('',#19,.F.);
#19 = EDGE_LOOP('',(#20,#30,#38,#46));
#20 = ORIENTED_EDGE('',*,*,#21,.T.);
#21 = EDGE_CURVE('',#22,#24,#26,.T.);
#22 = VERTEX_POINT('',#23);
#23 = CARTESIAN_POINT('',(-72.53135182759,-49.73725830026,
    11.300718223889));
#24 = VERTEX_POINT('',#25);
#25 = CARTESIAN_POINT('',(-72.53135182759,-49.73725830027,118.));
#26 = LINE('',#27,#28);
#27 = CARTESIAN_POINT('',(-72.53135182759,-49.73725830026,
    11.300718223889));
#28 = VECTOR('',#29,1.);
#29 = DIRECTION('',(0.,-3.729209094965E-15,1.));
#30 = ORIENTED_EDGE('',*,*,#31,.T.);
#31 = EDGE_CURVE('',#24,#32,#34,.T.);
#32 = VERTEX_POINT('',#33);
#33 = CARTESIAN_POINT('',(-72.53135182759,-9.737258300206,118.));
#34 = LINE('',#35,#36);
#35 = CARTESIAN_POINT('',(-72.53135182759,-53.73725830023,118.));
#36 = VECTOR('',#37,1.);
#37 = DIRECTION('',(0.,1.,0.));
#38 = ORIENTED_EDGE('',*,*,#39,.F.);
#39 = EDGE_CURVE('',#40,#32,#42,.T.);
#40 = VERTEX_POINT('',#41);
#41 = CARTESIAN_POINT('',(-72.53135182759,-9.737258300206,11.30071822389
    ));
#42 = LINE('',#43,#44);
#43 = CARTESIAN_POINT('',(-72.53135182759,-9.737258300206,11.30071822389
    ));
#44 = VECTOR('',#45,1.);
#45 = DIRECTION('',(0.,-3.695912585188E-15,1.));
#46 = ORIENTED_EDGE('',*,*,#47,.F.);
#47 = EDGE_CURVE('',#22,#40,#48,.T.);
#48 = LINE('',#49,#50);
#49 = CARTESIAN_POINT('',(-72.53135182759,-49.73725830026,
    11.300718223889));
#50 = VECTOR('',#51,1.);
#51 = DIRECTION('',(0.,1.,3.50830475781E-15));
#52 = PLANE('',#53);
#53 = AXIS2_PLACEMENT_3D('',#54,#55,#56);
#54 = CARTESIAN_POINT('',(-72.53135182759,-53.73725830023,-8.));
#55 = DIRECTION('',(-1.,0.,0.));
#56 = DIRECTION('',(0.,1.,0.));
#57 = ADVANCED_FACE('',(#58),#83,.F.);
#58 = FACE_BOUND('',#59,.F.);
#59 = EDGE_LOOP('',(#60,#68,#76,#82));
#60 = ORIENTED_EDGE('',*,*,#61,.T.);
#61 = EDGE_CURVE('',#22,#62,#64,.T.);
#62 = VERTEX_POINT('',#63);
#63 = CARTESIAN_POINT('',(-68.53135182759,-49.73725830026,
    11.300718223889));
#64 = LINE('',#65,#66);
#65 = CARTESIAN_POINT('',(-72.53135182759,-49.73725830026,
    11.300718223889));
#66 = VECTOR('',#67,1.);
#67 = DIRECTION('',(1.,0.,0.));
#68 = ORIENTED_EDGE('',*,*,#69,.T.);
#69 = EDGE_CURVE('',#62,#70,#72,.T.);
#70 = VERTEX_POINT('',#71);
#71 = CARTESIAN_POINT('',(-68.53135182759,-49.73725830027,118.));
#72 = LINE('',#73,#74);
#73 = CARTESIAN_POINT('',(-68.53135182759,-49.73725830026,
    11.300718223889));
#74 = VECTOR('',#75,1.);
#75 = DIRECTION('',(0.,-3.729209094965E-15,1.));
#76 = ORIENTED_EDGE('',*,*,#77,.F.);
#77 = EDGE_CURVE('',#24,#70,#78,.T.);
#78 = LINE('',#79,#80);
#79 = CARTESIAN_POINT('',(-72.53135182759,-49.73725830027,118.));
#80 = VECTOR('',#81,1.);
#81 = DIRECTION('',(1.,0.,0.));
#82 = ORIENTED_EDGE('',*,*,#21,.F.);
#83 = PLANE('',#84);
#84 = AXIS2_PLACEMENT_3D('',#85,#86,#87);
#85 = CARTESIAN_POINT('',(-72.53135182759,-49.73725830026,
    11.300718223889));
#86 = DIRECTION('',(0.,-1.,-3.729209094965E-15));
#87 = DIRECTION('',(0.,-3.729209094965E-15,1.));
#88 = ADVANCED_FACE('',(#89),#123,.F.);
#89 = FACE_BOUND('',#90,.F.);
#90 = EDGE_LOOP('',(#91,#101,#109,#117));
#91 = ORIENTED_EDGE('',*,*,#92,.T.);
#92 = EDGE_CURVE('',#93,#95,#97,.T.);
#93 = VERTEX_POINT('',#94);
#94 = CARTESIAN_POINT('',(-76.53137586592,-53.73725830023,-13.));
#95 = VERTEX_POINT('',#96);
#96 = CARTESIAN_POINT('',(53.23066200002,-53.73725830023,-13.));
#97 = LINE('',#98,#99);
#98 = CARTESIAN_POINT('',(-76.53137586592,-53.73725830023,-13.));
#99 = VECTOR('',#100,1.);
#100 = DIRECTION('',(1.,-4.440892098501E-16,0.));
#101 = ORIENTED_EDGE('',*,*,#102,.T.);
#102 = EDGE_CURVE('',#95,#103,#105,.T.);
#103 = VERTEX_POINT('',#104);
#104 = CARTESIAN_POINT('',(53.23066200002,24.,-13.));
#105 = LINE('',#106,#107);
#106 = CARTESIAN_POINT('',(53.23066200002,-53.73725830023,-13.));
#107 = VECTOR('',#108,1.);
#108 = DIRECTION('',(4.440892098501E-16,1.,0.));
#109 = ORIENTED_EDGE('',*,*,#110,.T.);
#110 = EDGE_CURVE('',#103,#111,#113,.T.);
#111 = VERTEX_POINT('',#112);
#112 = CARTESIAN_POINT('',(-76.53137586592,24.,-13.));
#113 = LINE('',#114,#115);
#114 = CARTESIAN_POINT('',(53.23066200002,24.,-13.));
#115 = VECTOR('',#116,1.);
#116 = DIRECTION('',(-1.,4.440892098501E-16,0.));
#117 = ORIENTED_EDGE('',*,*,#118,.T.);
#118 = EDGE_CURVE('',#111,#93,#119,.T.);
#119 = LINE('',#120,#121);
#120 = CARTESIAN_POINT('',(-76.53137586592,24.,-13.));
#121 = VECTOR('',#122,1.);
#122 = DIRECTION('',(-4.440892098501E-16,-1.,0.));
#123 = PLANE('',#124);
#124 = AXIS2_PLACEMENT_3D('',#125,#126,#127);
#125 = CARTESIAN_POINT('',(-11.65035693295,-14.86862915011,-13.));
#126 = DIRECTION('',(0.,0.,1.));
#127 = DIRECTION('',(1.,0.,0.));
#128 = ADVANCED_FACE('',(#129),#202,.T.);
#129 = FACE_BOUND('',#130,.T.);
#130 = EDGE_LOOP('',(#131,#139,#140,#148,#156,#164,#172,#180,#188,#196)
  );
#131 = ORIENTED_EDGE('',*,*,#132,.T.);
#132 = EDGE_CURVE('',#133,#95,#135,.T.);
#133 = VERTEX_POINT('',#134);
#134 = CARTESIAN_POINT('',(53.23066200002,-53.73725830023,-8.));
#135 = LINE('',#136,#137);
#136 = CARTESIAN_POINT('',(53.23066200002,-53.73725830023,-8.));
#137 = VECTOR('',#138,1.);
#138 = DIRECTION('',(-0.,-0.,-1.));
#139 = ORIENTED_EDGE('',*,*,#102,.T.);
#140 = ORIENTED_EDGE('',*,*,#141,.F.);
#141 = EDGE_CURVE('',#142,#103,#144,.T.);
#142 = VERTEX_POINT('',#143);
#143 = CARTESIAN_POINT('',(53.230662,24.,-4.));
#144 = LINE('',#145,#146);
#145 = CARTESIAN_POINT('',(53.23066200002,24.,-8.));
#146 = VECTOR('',#147,1.);
#147 = DIRECTION('',(-0.,-0.,-1.));
#148 = ORIENTED_EDGE('',*,*,#149,.F.);
#149 = EDGE_CURVE('',#150,#142,#152,.T.);
#150 = VERTEX_POINT('',#151);
#151 = CARTESIAN_POINT('',(53.230662,20.000000000032,-4.));
#152 = LINE('',#153,#154);
#153 = CARTESIAN_POINT('',(53.230662,20.000000000032,-4.));
#154 = VECTOR('',#155,1.);
#155 = DIRECTION('',(0.,1.,0.));
#156 = ORIENTED_EDGE('',*,*,#157,.F.);
#157 = EDGE_CURVE('',#158,#150,#160,.T.);
#158 = VERTEX_POINT('',#159);
#159 = CARTESIAN_POINT('',(53.230662,20.000000000032,-8.));
#160 = LINE('',#161,#162);
#161 = CARTESIAN_POINT('',(53.230662,20.000000000032,-8.));
#162 = VECTOR('',#163,1.);
#163 = DIRECTION('',(0.,0.,1.));
#164 = ORIENTED_EDGE('',*,*,#165,.F.);
#165 = EDGE_CURVE('',#166,#158,#168,.T.);
#166 = VERTEX_POINT('',#167);
#167 = CARTESIAN_POINT('',(53.23066200002,-20.00000000003,-8.));
#168 = LINE('',#169,#170);
#169 = CARTESIAN_POINT('',(53.23066200002,-53.73725830023,-8.));
#170 = VECTOR('',#171,1.);
#171 = DIRECTION('',(4.440892098501E-16,1.,0.));
#172 = ORIENTED_EDGE('',*,*,#173,.T.);
#173 = EDGE_CURVE('',#166,#174,#176,.T.);
#174 = VERTEX_POINT('',#175);
#175 = CARTESIAN_POINT('',(53.23066200002,-20.00000000003,-4.));
#176 = LINE('',#177,#178);
#177 = CARTESIAN_POINT('',(53.23066200002,-20.00000000003,-8.));
#178 = VECTOR('',#179,1.);
#179 = DIRECTION('',(0.,0.,1.));
#180 = ORIENTED_EDGE('',*,*,#181,.T.);
#181 = EDGE_CURVE('',#174,#182,#184,.T.);
#182 = VERTEX_POINT('',#183);
#183 = CARTESIAN_POINT('',(53.23066200002,-24.00000000003,-4.));
#184 = LINE('',#185,#186);
#185 = CARTESIAN_POINT('',(53.23066200002,-20.00000000003,-4.));
#186 = VECTOR('',#187,1.);
#187 = DIRECTION('',(0.,-1.,0.));
#188 = ORIENTED_EDGE('',*,*,#189,.F.);
#189 = EDGE_CURVE('',#190,#182,#192,.T.);
#190 = VERTEX_POINT('',#191);
#191 = CARTESIAN_POINT('',(53.23066200002,-24.00000000003,-8.));
#192 = LINE('',#193,#194);
#193 = CARTESIAN_POINT('',(53.23066200002,-24.00000000003,-8.));
#194 = VECTOR('',#195,1.);
#195 = DIRECTION('',(0.,0.,1.));
#196 = ORIENTED_EDGE('',*,*,#197,.F.);
#197 = EDGE_CURVE('',#133,#190,#198,.T.);
#198 = LINE('',#199,#200);
#199 = CARTESIAN_POINT('',(53.23066200002,-53.73725830023,-8.));
#200 = VECTOR('',#201,1.);
#201 = DIRECTION('',(4.440892098501E-16,1.,0.));
#202 = PLANE('',#203);
#203 = AXIS2_PLACEMENT_3D('',#204,#205,#206);
#204 = CARTESIAN_POINT('',(53.230662000018,-13.55771194334,
    -9.926916781771));
#205 = DIRECTION('',(1.,3.732157136183E-14,6.212278019198E-13));
#206 = DIRECTION('',(-6.212278019198E-13,0.,1.));
#207 = ADVANCED_FACE('',(#208),#249,.T.);
#208 = FACE_BOUND('',#209,.T.);
#209 = EDGE_LOOP('',(#210,#220,#226,#227,#235,#243));
#210 = ORIENTED_EDGE('',*,*,#211,.F.);
#211 = EDGE_CURVE('',#212,#214,#216,.T.);
#212 = VERTEX_POINT('',#213);
#213 = CARTESIAN_POINT('',(-72.53135182759,-53.73725830023,-8.));
#214 = VERTEX_POINT('',#215);
#215 = CARTESIAN_POINT('',(-72.53135182759,24.,-8.));
#216 = LINE('',#217,#218);
#217 = CARTESIAN_POINT('',(-72.53135182759,-53.73725830023,-8.));
#218 = VECTOR('',#219,1.);
#219 = DIRECTION('',(0.,1.,0.));
#220 = ORIENTED_EDGE('',*,*,#221,.T.);
#221 = EDGE_CURVE('',#212,#133,#222,.T.);
#222 = LINE('',#223,#224);
#223 = CARTESIAN_POINT('',(-76.53137586592,-53.73725830023,-8.));
#224 = VECTOR('',#225,1.);
#225 = DIRECTION('',(1.,-4.440892098501E-16,0.));
#226 = ORIENTED_EDGE('',*,*,#197,.T.);
#227 = ORIENTED_EDGE('',*,*,#228,.T.);
#228 = EDGE_CURVE('',#190,#229,#231,.T.);
#229 = VERTEX_POINT('',#230);
#230 = CARTESIAN_POINT('',(-57.23066200002,-24.00000000003,-8.));
#231 = LINE('',#232,#233);
#232 = CARTESIAN_POINT('',(53.23066200002,-24.00000000003,-8.));
#233 = VECTOR('',#234,1.);
#234 = DIRECTION('',(-1.,0.,0.));
#235 = ORIENTED_EDGE('',*,*,#236,.T.);
#236 = EDGE_CURVE('',#229,#237,#239,.T.);
#237 = VERTEX_POINT('',#238);
#238 = CARTESIAN_POINT('',(-57.23066200002,24.,-8.));
#239 = LINE('',#240,#241);
#240 = CARTESIAN_POINT('',(-57.23066200002,-24.00000000003,-8.));
#241 = VECTOR('',#242,1.);
#242 = DIRECTION('',(0.,1.,0.));
#243 = ORIENTED_EDGE('',*,*,#244,.T.);
#244 = EDGE_CURVE('',#237,#214,#245,.T.);
#245 = LINE('',#246,#247);
#246 = CARTESIAN_POINT('',(53.23066200002,24.,-8.));
#247 = VECTOR('',#248,1.);
#248 = DIRECTION('',(-1.,4.440892098501E-16,0.));
#249 = PLANE('',#250);
#250 = AXIS2_PLACEMENT_3D('',#251,#252,#253);
#251 = CARTESIAN_POINT('',(-11.65035693295,-14.86862915011,-8.));
#252 = DIRECTION('',(0.,0.,1.));
#253 = DIRECTION('',(1.,0.,0.));
#254 = ADVANCED_FACE('',(#255),#296,.F.);
#255 = FACE_BOUND('',#256,.F.);
#256 = EDGE_LOOP('',(#257,#258,#266,#274,#282,#290));
#257 = ORIENTED_EDGE('',*,*,#211,.F.);
#258 = ORIENTED_EDGE('',*,*,#259,.T.);
#259 = EDGE_CURVE('',#212,#260,#262,.T.);
#260 = VERTEX_POINT('',#261);
#261 = CARTESIAN_POINT('',(-72.53135182759,-53.73725830023,7.30071822389
    ));
#262 = LINE('',#263,#264);
#263 = CARTESIAN_POINT('',(-72.53135182759,-53.73725830023,-8.));
#264 = VECTOR('',#265,1.);
#265 = DIRECTION('',(0.,0.,1.));
#266 = ORIENTED_EDGE('',*,*,#267,.T.);
#267 = EDGE_CURVE('',#260,#268,#270,.T.);
#268 = VERTEX_POINT('',#269);
#269 = CARTESIAN_POINT('',(-72.53135182759,-5.737258300206,7.30071822389
    ));
#270 = LINE('',#271,#272);
#271 = CARTESIAN_POINT('',(-72.53135182759,-53.73725830023,7.30071822389
    ));
#272 = VECTOR('',#273,1.);
#273 = DIRECTION('',(0.,1.,0.));
#274 = ORIENTED_EDGE('',*,*,#275,.T.);
#275 = EDGE_CURVE('',#268,#276,#278,.T.);
#276 = VERTEX_POINT('',#277);
#277 = CARTESIAN_POINT('',(-72.53135182759,-5.737258300206,118.));
#278 = LINE('',#279,#280);
#279 = CARTESIAN_POINT('',(-72.53135182759,-5.737258300206,7.30071822389
    ));
#280 = VECTOR('',#281,1.);
#281 = DIRECTION('',(0.,0.,1.));
#282 = ORIENTED_EDGE('',*,*,#283,.T.);
#283 = EDGE_CURVE('',#276,#284,#286,.T.);
#284 = VERTEX_POINT('',#285);
#285 = CARTESIAN_POINT('',(-72.53135182759,24.,118.));
#286 = LINE('',#287,#288);
#287 = CARTESIAN_POINT('',(-72.53135182759,-53.73725830023,118.));
#288 = VECTOR('',#289,1.);
#289 = DIRECTION('',(0.,1.,0.));
#290 = ORIENTED_EDGE('',*,*,#291,.F.);
#291 = EDGE_CURVE('',#214,#284,#292,.T.);
#292 = LINE('',#293,#294);
#293 = CARTESIAN_POINT('',(-72.53135182759,24.,-8.));
#294 = VECTOR('',#295,1.);
#295 = DIRECTION('',(0.,0.,1.));
#296 = PLANE('',#297);
#297 = AXIS2_PLACEMENT_3D('',#298,#299,#300);
#298 = CARTESIAN_POINT('',(-72.53135182759,-53.73725830023,-8.));
#299 = DIRECTION('',(-1.,0.,0.));
#300 = DIRECTION('',(0.,1.,0.));
#301 = ADVANCED_FACE('',(#302),#327,.T.);
#302 = FACE_BOUND('',#303,.T.);
#303 = EDGE_LOOP('',(#304,#305,#313,#321));
#304 = ORIENTED_EDGE('',*,*,#118,.T.);
#305 = ORIENTED_EDGE('',*,*,#306,.T.);
#306 = EDGE_CURVE('',#93,#307,#309,.T.);
#307 = VERTEX_POINT('',#308);
#308 = CARTESIAN_POINT('',(-76.53137586592,-53.73725830023,118.));
#309 = LINE('',#310,#311);
#310 = CARTESIAN_POINT('',(-76.53137586592,-53.73725830023,-8.));
#311 = VECTOR('',#312,1.);
#312 = DIRECTION('',(0.,0.,1.));
#313 = ORIENTED_EDGE('',*,*,#314,.F.);
#314 = EDGE_CURVE('',#315,#307,#317,.T.);
#315 = VERTEX_POINT('',#316);
#316 = CARTESIAN_POINT('',(-76.53137586592,24.,118.));
#317 = LINE('',#318,#319);
#318 = CARTESIAN_POINT('',(-76.53137586592,24.,118.));
#319 = VECTOR('',#320,1.);
#320 = DIRECTION('',(0.,-1.,0.));
#321 = ORIENTED_EDGE('',*,*,#322,.F.);
#322 = EDGE_CURVE('',#111,#315,#323,.T.);
#323 = LINE('',#324,#325);
#324 = CARTESIAN_POINT('',(-76.53137586592,24.,-8.));
#325 = VECTOR('',#326,1.);
#326 = DIRECTION('',(0.,0.,1.));
#327 = PLANE('',#328);
#328 = AXIS2_PLACEMENT_3D('',#329,#330,#331);
#329 = CARTESIAN_POINT('',(-76.53137586592,-14.86862915011,52.5));
#330 = DIRECTION('',(-1.,-0.,-0.));
#331 = DIRECTION('',(0.,0.,-1.));
#332 = ADVANCED_FACE('',(#333),#360,.T.);
#333 = FACE_BOUND('',#334,.T.);
#334 = EDGE_LOOP('',(#335,#336,#337,#338,#344,#345,#346,#354));
#335 = ORIENTED_EDGE('',*,*,#141,.T.);
#336 = ORIENTED_EDGE('',*,*,#110,.T.);
#337 = ORIENTED_EDGE('',*,*,#322,.T.);
#338 = ORIENTED_EDGE('',*,*,#339,.F.);
#339 = EDGE_CURVE('',#284,#315,#340,.T.);
#340 = LINE('',#341,#342);
#341 = CARTESIAN_POINT('',(-72.53135182759,24.,118.));
#342 = VECTOR('',#343,1.);
#343 = DIRECTION('',(-1.,0.,0.));
#344 = ORIENTED_EDGE('',*,*,#291,.F.);
#345 = ORIENTED_EDGE('',*,*,#244,.F.);
#346 = ORIENTED_EDGE('',*,*,#347,.T.);
#347 = EDGE_CURVE('',#237,#348,#350,.T.);
#348 = VERTEX_POINT('',#349);
#349 = CARTESIAN_POINT('',(-57.23066200002,24.,-4.));
#350 = LINE('',#351,#352);
#351 = CARTESIAN_POINT('',(-57.23066200002,24.,-8.));
#352 = VECTOR('',#353,1.);
#353 = DIRECTION('',(0.,0.,1.));
#354 = ORIENTED_EDGE('',*,*,#355,.F.);
#355 = EDGE_CURVE('',#142,#348,#356,.T.);
#356 = LINE('',#357,#358);
#357 = CARTESIAN_POINT('',(53.230662,24.,-4.));
#358 = VECTOR('',#359,1.);
#359 = DIRECTION('',(-1.,4.824376827314E-16,0.));
#360 = PLANE('',#361);
#361 = AXIS2_PLACEMENT_3D('',#362,#363,#364);
#362 = CARTESIAN_POINT('',(-41.42957115474,24.,22.525596240659));
#363 = DIRECTION('',(4.702815455011E-16,1.,0.));
#364 = DIRECTION('',(1.,-4.702815455011E-16,0.));
#365 = ADVANCED_FACE('',(#366),#407,.T.);
#366 = FACE_BOUND('',#367,.T.);
#367 = EDGE_LOOP('',(#368,#369,#370,#378,#384,#385,#393,#401));
#368 = ORIENTED_EDGE('',*,*,#149,.T.);
#369 = ORIENTED_EDGE('',*,*,#355,.T.);
#370 = ORIENTED_EDGE('',*,*,#371,.F.);
#371 = EDGE_CURVE('',#372,#348,#374,.T.);
#372 = VERTEX_POINT('',#373);
#373 = CARTESIAN_POINT('',(-57.23066200002,-24.00000000003,-4.));
#374 = LINE('',#375,#376);
#375 = CARTESIAN_POINT('',(-57.23066200002,-24.00000000003,-4.));
#376 = VECTOR('',#377,1.);
#377 = DIRECTION('',(0.,1.,0.));
#378 = ORIENTED_EDGE('',*,*,#379,.F.);
#379 = EDGE_CURVE('',#182,#372,#380,.T.);
#380 = LINE('',#381,#382);
#381 = CARTESIAN_POINT('',(53.23066200002,-24.00000000003,-4.));
#382 = VECTOR('',#383,1.);
#383 = DIRECTION('',(-1.,0.,0.));
#384 = ORIENTED_EDGE('',*,*,#181,.F.);
#385 = ORIENTED_EDGE('',*,*,#386,.F.);
#386 = EDGE_CURVE('',#387,#174,#389,.T.);
#387 = VERTEX_POINT('',#388);
#388 = CARTESIAN_POINT('',(-53.23066200002,-20.00000000003,-4.));
#389 = LINE('',#390,#391);
#390 = CARTESIAN_POINT('',(-53.23066200002,-20.00000000003,-4.));
#391 = VECTOR('',#392,1.);
#392 = DIRECTION('',(1.,0.,0.));
#393 = ORIENTED_EDGE('',*,*,#394,.F.);
#394 = EDGE_CURVE('',#395,#387,#397,.T.);
#395 = VERTEX_POINT('',#396);
#396 = CARTESIAN_POINT('',(-53.23066200002,20.000000000032,-4.));
#397 = LINE('',#398,#399);
#398 = CARTESIAN_POINT('',(-53.23066200002,20.000000000032,-4.));
#399 = VECTOR('',#400,1.);
#400 = DIRECTION('',(0.,-1.,0.));
#401 = ORIENTED_EDGE('',*,*,#402,.F.);
#402 = EDGE_CURVE('',#150,#395,#403,.T.);
#403 = LINE('',#404,#405);
#404 = CARTESIAN_POINT('',(53.230662,20.000000000032,-4.));
#405 = VECTOR('',#406,1.);
#406 = DIRECTION('',(-1.,0.,0.));
#407 = PLANE('',#408);
#408 = AXIS2_PLACEMENT_3D('',#409,#410,#411);
#409 = CARTESIAN_POINT('',(-9.233446617235,-1.104843751969E-11,-4.));
#410 = DIRECTION('',(0.,0.,1.));
#411 = DIRECTION('',(1.,0.,0.));
#412 = ADVANCED_FACE('',(#413),#431,.T.);
#413 = FACE_BOUND('',#414,.T.);
#414 = EDGE_LOOP('',(#415,#416,#417,#425));
#415 = ORIENTED_EDGE('',*,*,#157,.T.);
#416 = ORIENTED_EDGE('',*,*,#402,.T.);
#417 = ORIENTED_EDGE('',*,*,#418,.F.);
#418 = EDGE_CURVE('',#419,#395,#421,.T.);
#419 = VERTEX_POINT('',#420);
#420 = CARTESIAN_POINT('',(-53.23066200002,20.000000000032,-8.));
#421 = LINE('',#422,#423);
#422 = CARTESIAN_POINT('',(-53.23066200002,20.000000000032,-8.));
#423 = VECTOR('',#424,1.);
#424 = DIRECTION('',(0.,0.,1.));
#425 = ORIENTED_EDGE('',*,*,#426,.F.);
#426 = EDGE_CURVE('',#158,#419,#427,.T.);
#427 = LINE('',#428,#429);
#428 = CARTESIAN_POINT('',(53.230662,20.000000000032,-8.));
#429 = VECTOR('',#430,1.);
#430 = DIRECTION('',(-1.,0.,0.));
#431 = PLANE('',#432);
#432 = AXIS2_PLACEMENT_3D('',#433,#434,#435);
#433 = CARTESIAN_POINT('',(53.230662,20.000000000032,-8.));
#434 = DIRECTION('',(0.,-1.,0.));
#435 = DIRECTION('',(-1.,0.,0.));
#436 = ADVANCED_FACE('',(#437),#455,.T.);
#437 = FACE_BOUND('',#438,.T.);
#438 = EDGE_LOOP('',(#439,#447,#448,#449));
#439 = ORIENTED_EDGE('',*,*,#440,.T.);
#440 = EDGE_CURVE('',#441,#166,#443,.T.);
#441 = VERTEX_POINT('',#442);
#442 = CARTESIAN_POINT('',(-53.23066200002,-20.00000000003,-8.));
#443 = LINE('',#444,#445);
#444 = CARTESIAN_POINT('',(-53.23066200002,-20.00000000003,-8.));
#445 = VECTOR('',#446,1.);
#446 = DIRECTION('',(1.,0.,0.));
#447 = ORIENTED_EDGE('',*,*,#165,.T.);
#448 = ORIENTED_EDGE('',*,*,#426,.T.);
#449 = ORIENTED_EDGE('',*,*,#450,.T.);
#450 = EDGE_CURVE('',#419,#441,#451,.T.);
#451 = LINE('',#452,#453);
#452 = CARTESIAN_POINT('',(-53.23066200002,20.000000000032,-8.));
#453 = VECTOR('',#454,1.);
#454 = DIRECTION('',(0.,-1.,0.));
#455 = PLANE('',#456);
#456 = AXIS2_PLACEMENT_3D('',#457,#458,#459);
#457 = CARTESIAN_POINT('',(-11.65035693295,-14.86862915011,-8.));
#458 = DIRECTION('',(0.,0.,1.));
#459 = DIRECTION('',(1.,0.,0.));
#460 = ADVANCED_FACE('',(#461),#472,.T.);
#461 = FACE_BOUND('',#462,.T.);
#462 = EDGE_LOOP('',(#463,#469,#470,#471));
#463 = ORIENTED_EDGE('',*,*,#464,.T.);
#464 = EDGE_CURVE('',#441,#387,#465,.T.);
#465 = LINE('',#466,#467);
#466 = CARTESIAN_POINT('',(-53.23066200002,-20.00000000003,-8.));
#467 = VECTOR('',#468,1.);
#468 = DIRECTION('',(0.,0.,1.));
#469 = ORIENTED_EDGE('',*,*,#386,.T.);
#470 = ORIENTED_EDGE('',*,*,#173,.F.);
#471 = ORIENTED_EDGE('',*,*,#440,.F.);
#472 = PLANE('',#473);
#473 = AXIS2_PLACEMENT_3D('',#474,#475,#476);
#474 = CARTESIAN_POINT('',(-53.23066200002,-20.00000000003,-8.));
#475 = DIRECTION('',(0.,1.,0.));
#476 = DIRECTION('',(1.,0.,0.));
#477 = ADVANCED_FACE('',(#478),#489,.T.);
#478 = FACE_BOUND('',#479,.T.);
#479 = EDGE_LOOP('',(#480,#481,#482,#488));
#480 = ORIENTED_EDGE('',*,*,#189,.T.);
#481 = ORIENTED_EDGE('',*,*,#379,.T.);
#482 = ORIENTED_EDGE('',*,*,#483,.F.);
#483 = EDGE_CURVE('',#229,#372,#484,.T.);
#484 = LINE('',#485,#486);
#485 = CARTESIAN_POINT('',(-57.23066200002,-24.00000000003,-8.));
#486 = VECTOR('',#487,1.);
#487 = DIRECTION('',(0.,0.,1.));
#488 = ORIENTED_EDGE('',*,*,#228,.F.);
#489 = PLANE('',#490);
#490 = AXIS2_PLACEMENT_3D('',#491,#492,#493);
#491 = CARTESIAN_POINT('',(53.23066200002,-24.00000000003,-8.));
#492 = DIRECTION('',(0.,-1.,0.));
#493 = DIRECTION('',(-1.,0.,0.));
#494 = ADVANCED_FACE('',(#495),#501,.T.);
#495 = FACE_BOUND('',#496,.T.);
#496 = EDGE_LOOP('',(#497,#498,#499,#500));
#497 = ORIENTED_EDGE('',*,*,#483,.T.);
#498 = ORIENTED_EDGE('',*,*,#371,.T.);
#499 = ORIENTED_EDGE('',*,*,#347,.F.);
#500 = ORIENTED_EDGE('',*,*,#236,.F.);
#501 = PLANE('',#502);
#502 = AXIS2_PLACEMENT_3D('',#503,#504,#505);
#503 = CARTESIAN_POINT('',(-57.23066200002,-24.00000000003,-8.));
#504 = DIRECTION('',(-1.,0.,0.));
#505 = DIRECTION('',(0.,1.,0.));
#506 = ADVANCED_FACE('',(#507),#532,.F.);
#507 = FACE_BOUND('',#508,.F.);
#508 = EDGE_LOOP('',(#509,#517,#525,#531));
#509 = ORIENTED_EDGE('',*,*,#510,.T.);
#510 = EDGE_CURVE('',#268,#511,#513,.T.);
#511 = VERTEX_POINT('',#512);
#512 = CARTESIAN_POINT('',(-68.53135182759,-5.737258300206,7.30071822389
    ));
#513 = LINE('',#514,#515);
#514 = CARTESIAN_POINT('',(-72.53135182759,-5.737258300206,7.30071822389
    ));
#515 = VECTOR('',#516,1.);
#516 = DIRECTION('',(1.,0.,0.));
#517 = ORIENTED_EDGE('',*,*,#518,.T.);
#518 = EDGE_CURVE('',#511,#519,#521,.T.);
#519 = VERTEX_POINT('',#520);
#520 = CARTESIAN_POINT('',(-68.53135182759,-5.737258300206,118.));
#521 = LINE('',#522,#523);
#522 = CARTESIAN_POINT('',(-68.53135182759,-5.737258300206,7.30071822389
    ));
#523 = VECTOR('',#524,1.);
#524 = DIRECTION('',(0.,0.,1.));
#525 = ORIENTED_EDGE('',*,*,#526,.F.);
#526 = EDGE_CURVE('',#276,#519,#527,.T.);
#527 = LINE('',#528,#529);
#528 = CARTESIAN_POINT('',(-72.53135182759,-5.737258300206,118.));
#529 = VECTOR('',#530,1.);
#530 = DIRECTION('',(1.,0.,0.));
#531 = ORIENTED_EDGE('',*,*,#275,.F.);
#532 = PLANE('',#533);
#533 = AXIS2_PLACEMENT_3D('',#534,#535,#536);
#534 = CARTESIAN_POINT('',(-72.53135182759,-5.737258300206,7.30071822389
    ));
#535 = DIRECTION('',(0.,-1.,0.));
#536 = DIRECTION('',(0.,0.,1.));
#537 = ADVANCED_FACE('',(#538),#556,.F.);
#538 = FACE_BOUND('',#539,.F.);
#539 = EDGE_LOOP('',(#540,#548,#554,#555));
#540 = ORIENTED_EDGE('',*,*,#541,.T.);
#541 = EDGE_CURVE('',#260,#542,#544,.T.);
#542 = VERTEX_POINT('',#543);
#543 = CARTESIAN_POINT('',(-68.53135182759,-53.73725830023,7.30071822389
    ));
#544 = LINE('',#545,#546);
#545 = CARTESIAN_POINT('',(-72.53135182759,-53.73725830023,7.30071822389
    ));
#546 = VECTOR('',#547,1.);
#547 = DIRECTION('',(1.,0.,0.));
#548 = ORIENTED_EDGE('',*,*,#549,.T.);
#549 = EDGE_CURVE('',#542,#511,#550,.T.);
#550 = LINE('',#551,#552);
#551 = CARTESIAN_POINT('',(-68.53135182759,-53.73725830023,7.30071822389
    ));
#552 = VECTOR('',#553,1.);
#553 = DIRECTION('',(0.,1.,0.));
#554 = ORIENTED_EDGE('',*,*,#510,.F.);
#555 = ORIENTED_EDGE('',*,*,#267,.F.);
#556 = PLANE('',#557);
#557 = AXIS2_PLACEMENT_3D('',#558,#559,#560);
#558 = CARTESIAN_POINT('',(-72.53135182759,-53.73725830023,7.30071822389
    ));
#559 = DIRECTION('',(0.,0.,1.));
#560 = DIRECTION('',(0.,1.,0.));
#561 = ADVANCED_FACE('',(#562),#603,.T.);
#562 = FACE_BOUND('',#563,.T.);
#563 = EDGE_LOOP('',(#564,#572,#578,#579,#580,#588,#596,#602));
#564 = ORIENTED_EDGE('',*,*,#565,.T.);
#565 = EDGE_CURVE('',#70,#566,#568,.T.);
#566 = VERTEX_POINT('',#567);
#567 = CARTESIAN_POINT('',(-68.53135182759,-53.73725830023,118.));
#568 = LINE('',#569,#570);
#569 = CARTESIAN_POINT('',(-68.53135182759,-49.73725830027,118.));
#570 = VECTOR('',#571,1.);
#571 = DIRECTION('',(0.,-1.,3.552713678829E-15));
#572 = ORIENTED_EDGE('',*,*,#573,.T.);
#573 = EDGE_CURVE('',#566,#542,#574,.T.);
#574 = LINE('',#575,#576);
#575 = CARTESIAN_POINT('',(-68.53135182759,-53.73725830023,118.));
#576 = VECTOR('',#577,1.);
#577 = DIRECTION('',(0.,0.,-1.));
#578 = ORIENTED_EDGE('',*,*,#549,.T.);
#579 = ORIENTED_EDGE('',*,*,#518,.T.);
#580 = ORIENTED_EDGE('',*,*,#581,.F.);
#581 = EDGE_CURVE('',#582,#519,#584,.T.);
#582 = VERTEX_POINT('',#583);
#583 = CARTESIAN_POINT('',(-68.53135182759,-9.737258300206,118.));
#584 = LINE('',#585,#586);
#585 = CARTESIAN_POINT('',(-68.53135182759,-9.737258300206,118.));
#586 = VECTOR('',#587,1.);
#587 = DIRECTION('',(0.,1.,0.));
#588 = ORIENTED_EDGE('',*,*,#589,.F.);
#589 = EDGE_CURVE('',#590,#582,#592,.T.);
#590 = VERTEX_POINT('',#591);
#591 = CARTESIAN_POINT('',(-68.53135182759,-9.737258300206,
    11.30071822389));
#592 = LINE('',#593,#594);
#593 = CARTESIAN_POINT('',(-68.53135182759,-9.737258300206,
    11.30071822389));
#594 = VECTOR('',#595,1.);
#595 = DIRECTION('',(0.,-3.695912585188E-15,1.));
#596 = ORIENTED_EDGE('',*,*,#597,.F.);
#597 = EDGE_CURVE('',#62,#590,#598,.T.);
#598 = LINE('',#599,#600);
#599 = CARTESIAN_POINT('',(-68.53135182759,-49.73725830026,
    11.300718223889));
#600 = VECTOR('',#601,1.);
#601 = DIRECTION('',(0.,1.,3.50830475781E-15));
#602 = ORIENTED_EDGE('',*,*,#69,.T.);
#603 = PLANE('',#604);
#604 = AXIS2_PLACEMENT_3D('',#605,#606,#607);
#605 = CARTESIAN_POINT('',(-68.53135182759,-29.73725830022,
    55.413744692232));
#606 = DIRECTION('',(1.,0.,0.));
#607 = DIRECTION('',(0.,0.,1.));
#608 = ADVANCED_FACE('',(#609),#615,.T.);
#609 = FACE_BOUND('',#610,.T.);
#610 = EDGE_LOOP('',(#611,#612,#613,#614));
#611 = ORIENTED_EDGE('',*,*,#418,.T.);
#612 = ORIENTED_EDGE('',*,*,#394,.T.);
#613 = ORIENTED_EDGE('',*,*,#464,.F.);
#614 = ORIENTED_EDGE('',*,*,#450,.F.);
#615 = PLANE('',#616);
#616 = AXIS2_PLACEMENT_3D('',#617,#618,#619);
#617 = CARTESIAN_POINT('',(-53.23066200002,20.000000000032,-8.));
#618 = DIRECTION('',(1.,0.,0.));
#619 = DIRECTION('',(0.,-1.,0.));
#620 = ADVANCED_FACE('',(#621),#637,.T.);
#621 = FACE_BOUND('',#622,.T.);
#622 = EDGE_LOOP('',(#623,#629,#630,#636));
#623 = ORIENTED_EDGE('',*,*,#624,.T.);
#624 = EDGE_CURVE('',#40,#590,#625,.T.);
#625 = LINE('',#626,#627);
#626 = CARTESIAN_POINT('',(-72.53135182759,-9.737258300206,
    11.30071822389));
#627 = VECTOR('',#628,1.);
#628 = DIRECTION('',(1.,0.,0.));
#629 = ORIENTED_EDGE('',*,*,#589,.T.);
#630 = ORIENTED_EDGE('',*,*,#631,.F.);
#631 = EDGE_CURVE('',#32,#582,#632,.T.);
#632 = LINE('',#633,#634);
#633 = CARTESIAN_POINT('',(-72.53135182759,-9.737258300206,118.));
#634 = VECTOR('',#635,1.);
#635 = DIRECTION('',(1.,0.,0.));
#636 = ORIENTED_EDGE('',*,*,#39,.F.);
#637 = PLANE('',#638);
#638 = AXIS2_PLACEMENT_3D('',#639,#640,#641);
#639 = CARTESIAN_POINT('',(-72.53135182759,-9.737258300206,
    11.30071822389));
#640 = DIRECTION('',(0.,-1.,-3.695912585188E-15));
#641 = DIRECTION('',(0.,-3.695912585188E-15,1.));
#642 = ADVANCED_FACE('',(#643),#649,.T.);
#643 = FACE_BOUND('',#644,.T.);
#644 = EDGE_LOOP('',(#645,#646,#647,#648));
#645 = ORIENTED_EDGE('',*,*,#61,.T.);
#646 = ORIENTED_EDGE('',*,*,#597,.T.);
#647 = ORIENTED_EDGE('',*,*,#624,.F.);
#648 = ORIENTED_EDGE('',*,*,#47,.F.);
#649 = PLANE('',#650);
#650 = AXIS2_PLACEMENT_3D('',#651,#652,#653);
#651 = CARTESIAN_POINT('',(-72.53135182759,-49.73725830026,
    11.300718223889));
#652 = DIRECTION('',(0.,-3.50830475781E-15,1.));
#653 = DIRECTION('',(0.,1.,3.50830475781E-15));
#654 = ADVANCED_FACE('',(#655),#670,.T.);
#655 = FACE_BOUND('',#656,.T.);
#656 = EDGE_LOOP('',(#657,#658,#659,#660,#661,#662,#663,#669));
#657 = ORIENTED_EDGE('',*,*,#92,.T.);
#658 = ORIENTED_EDGE('',*,*,#132,.F.);
#659 = ORIENTED_EDGE('',*,*,#221,.F.);
#660 = ORIENTED_EDGE('',*,*,#259,.T.);
#661 = ORIENTED_EDGE('',*,*,#541,.T.);
#662 = ORIENTED_EDGE('',*,*,#573,.F.);
#663 = ORIENTED_EDGE('',*,*,#664,.F.);
#664 = EDGE_CURVE('',#307,#566,#665,.T.);
#665 = LINE('',#666,#667);
#666 = CARTESIAN_POINT('',(-72.53135182759,-53.73725830023,118.));
#667 = VECTOR('',#668,1.);
#668 = DIRECTION('',(1.,0.,0.));
#669 = ORIENTED_EDGE('',*,*,#306,.F.);
#670 = PLANE('',#671);
#671 = AXIS2_PLACEMENT_3D('',#672,#673,#674);
#672 = CARTESIAN_POINT('',(-41.62871920551,-53.73725830023,
    22.728339764165));
#673 = DIRECTION('',(-4.458423405105E-16,-1.,-0.));
#674 = DIRECTION('',(-1.,4.458423405105E-16,0.));
#675 = ADVANCED_FACE('',(#676),#688,.T.);
#676 = FACE_BOUND('',#677,.T.);
#677 = EDGE_LOOP('',(#678,#679,#680,#681,#682,#683,#684,#685,#686,#687)
  );
#678 = ORIENTED_EDGE('',*,*,#314,.T.);
#679 = ORIENTED_EDGE('',*,*,#664,.T.);
#680 = ORIENTED_EDGE('',*,*,#565,.F.);
#681 = ORIENTED_EDGE('',*,*,#77,.F.);
#682 = ORIENTED_EDGE('',*,*,#31,.T.);
#683 = ORIENTED_EDGE('',*,*,#631,.T.);
#684 = ORIENTED_EDGE('',*,*,#581,.T.);
#685 = ORIENTED_EDGE('',*,*,#526,.F.);
#686 = ORIENTED_EDGE('',*,*,#283,.T.);
#687 = ORIENTED_EDGE('',*,*,#339,.T.);
#688 = PLANE('',#689);
#689 = AXIS2_PLACEMENT_3D('',#690,#691,#692);
#690 = CARTESIAN_POINT('',(-73.99646803866,-16.1941543956,118.));
#691 = DIRECTION('',(1.463023861469E-15,0.,1.));
#692 = DIRECTION('',(1.,0.,-1.463023861469E-15));
#693 = ( GEOMETRIC_REPRESENTATION_CONTEXT(3) 
GLOBAL_UNCERTAINTY_ASSIGNED_CONTEXT((#697)) GLOBAL_UNIT_ASSIGNED_CONTEXT
((#694,#695,#696)) REPRESENTATION_CONTEXT('Context #1',
  '3D Context with UNIT and UNCERTAINTY') );
#694 = ( LENGTH_UNIT() NAMED_UNIT(*) SI_UNIT(.MILLI.,.METRE.) );
#695 = ( NAMED_UNIT(*) PLANE_ANGLE_UNIT() SI_UNIT($,.RADIAN.) );
#696 = ( NAMED_UNIT(*) SI_UNIT($,.STERADIAN.) SOLID_ANGLE_UNIT() );
#697 = UNCERTAINTY_MEASURE_WITH_UNIT(LENGTH_MEASURE(1.E-07),#694,
  'distance_accuracy_value','confusion accuracy');
#698 = PRODUCT_RELATED_PRODUCT_CATEGORY('part',$,(#7));
#699 = MECHANICAL_DESIGN_GEOMETRIC_PRESENTATION_REPRESENTATION('',(#700)
  ,#693);
#700 = STYLED_ITEM('color',(#701),#15);
#701 = PRESENTATION_STYLE_ASSIGNMENT((#702,#708));
#702 = SURFACE_STYLE_USAGE(.BOTH.,#703);
#703 = SURFACE_SIDE_STYLE('',(#704));
#704 = SURFACE_STYLE_FILL_AREA(#705);
#705 = FILL_AREA_STYLE('',(#706));
#706 = FILL_AREA_STYLE_COLOUR('',#707);
#707 = COLOUR_RGB('',0.447058818107,0.474509808674,0.501960817233);
#708 = CURVE_STYLE('',#709,POSITIVE_LENGTH_MEASURE(0.1),#710);
#709 = DRAUGHTING_PRE_DEFINED_CURVE_FONT('continuous');
#710 = COLOUR_RGB('',9.803921802644E-02,9.803921802644E-02,
  9.803921802644E-02);
ENDSEC;
END-ISO-10303-21;
