ISO-10303-21;
HEADER;
FILE_DESCRIPTION(('FreeCAD Model'),'2;1');
FILE_NAME('Open CASCADE Shape Model','2026-01-19T09:56:50',(''),(''),
  'Open CASCADE STEP processor 7.8','FreeCAD','Unknown');
FILE_SCHEMA(('AUTOMOTIVE_DESIGN { 1 0 10303 214 1 1 1 1 }'));
ENDSEC;
DATA;
#1 = APPLICATION_PROTOCOL_DEFINITION('international standard',
  'automotive_design',2000,#2);
#2 = APPLICATION_CONTEXT(
  'core data for automotive mechanical design processes');
#3 = SHAPE_DEFINITION_REPRESENTATION(#4,#10);
#4 = PRODUCT_DEFINITION_SHAPE('','',#5);
#5 = PRODUCT_DEFINITION('design','',#6,#9);
#6 = PRODUCT_DEFINITION_FORMATION('','',#7);
#7 = PRODUCT('rgb_holder','rgb_holder','',(#8));
#8 = PRODUCT_CONTEXT('',#2,'mechanical');
#9 = PRODUCT_DEFINITION_CONTEXT('part definition',#2,'design');
#10 = ADVANCED_BREP_SHAPE_REPRESENTATION('',(#11,#15),#709);
#11 = AXIS2_PLACEMENT_3D('',#12,#13,#14);
#12 = CARTESIAN_POINT('',(0.,0.,0.));
#13 = DIRECTION('',(0.,0.,1.));
#14 = DIRECTION('',(1.,0.,-0.));
#15 = MANIFOLD_SOLID_BREP('',#16);
#16 = CLOSED_SHELL('',(#17,#57,#207,#232,#257,#290,#307,#347,#372,#396,
    #436,#461,#501,#525,#550,#574,#599,#623,#641,#653,#679,#697));
#17 = ADVANCED_FACE('',(#18),#52,.F.);
#18 = FACE_BOUND('',#19,.F.);
#19 = EDGE_LOOP('',(#20,#30,#38,#46));
#20 = ORIENTED_EDGE('',*,*,#21,.T.);
#21 = EDGE_CURVE('',#22,#24,#26,.T.);
#22 = VERTEX_POINT('',#23);
#23 = CARTESIAN_POINT('',(27.314213562365,0.560449153826,30.4));
#24 = VERTEX_POINT('',#25);
#25 = CARTESIAN_POINT('',(27.314213562365,-0.560449153759,30.4));
#26 = LINE('',#27,#28);
#27 = CARTESIAN_POINT('',(27.314213562365,1.560449153826,30.4));
#28 = VECTOR('',#29,1.);
#29 = DIRECTION('',(6.830175152134E-15,-1.,0.));
#30 = ORIENTED_EDGE('',*,*,#31,.T.);
#31 = EDGE_CURVE('',#24,#32,#34,.T.);
#32 = VERTEX_POINT('',#33);
#33 = CARTESIAN_POINT('',(32.314213562349,-0.560449153759,30.4));
#34 = LINE('',#35,#36);
#35 = CARTESIAN_POINT('',(27.314213562365,-0.560449153759,30.4));
#36 = VECTOR('',#37,1.);
#37 = DIRECTION('',(1.,0.,0.));
#38 = ORIENTED_EDGE('',*,*,#39,.T.);
#39 = EDGE_CURVE('',#32,#40,#42,.T.);
#40 = VERTEX_POINT('',#41);
#41 = CARTESIAN_POINT('',(32.314213562349,0.560449153826,30.4));
#42 = LINE('',#43,#44);
#43 = CARTESIAN_POINT('',(32.314213562349,-1.560449153759,30.4));
#44 = VECTOR('',#45,1.);
#45 = DIRECTION('',(0.,1.,0.));
#46 = ORIENTED_EDGE('',*,*,#47,.T.);
#47 = EDGE_CURVE('',#40,#22,#48,.T.);
#48 = LINE('',#49,#50);
#49 = CARTESIAN_POINT('',(32.314213562349,0.560449153826,30.4));
#50 = VECTOR('',#51,1.);
#51 = DIRECTION('',(-1.,0.,0.));
#52 = PLANE('',#53);
#53 = AXIS2_PLACEMENT_3D('',#54,#55,#56);
#54 = CARTESIAN_POINT('',(29.814213562357,3.36516216755E-11,30.4));
#55 = DIRECTION('',(0.,0.,1.));
#56 = DIRECTION('',(1.,0.,0.));
#57 = ADVANCED_FACE('',(#58),#202,.T.);
#58 = FACE_BOUND('',#59,.T.);
#59 = EDGE_LOOP('',(#60,#69,#70,#79,#87,#95,#104,#112,#121,#129,#138,
    #146,#154,#163,#171,#179,#188,#196));
#60 = ORIENTED_EDGE('',*,*,#61,.F.);
#61 = EDGE_CURVE('',#22,#62,#64,.T.);
#62 = VERTEX_POINT('',#63);
#63 = CARTESIAN_POINT('',(27.314213562365,1.560449153826,31.4));
#64 = CIRCLE('',#65,1.);
#65 = AXIS2_PLACEMENT_3D('',#66,#67,#68);
#66 = CARTESIAN_POINT('',(27.314213562365,0.560449153826,31.4));
#67 = DIRECTION('',(1.,-0.,0.));
#68 = DIRECTION('',(0.,0.,-1.));
#69 = ORIENTED_EDGE('',*,*,#21,.T.);
#70 = ORIENTED_EDGE('',*,*,#71,.T.);
#71 = EDGE_CURVE('',#24,#72,#74,.T.);
#72 = VERTEX_POINT('',#73);
#73 = CARTESIAN_POINT('',(27.314213562365,-1.560449153759,31.4));
#74 = CIRCLE('',#75,1.);
#75 = AXIS2_PLACEMENT_3D('',#76,#77,#78);
#76 = CARTESIAN_POINT('',(27.314213562365,-0.560449153759,31.4));
#77 = DIRECTION('',(-1.,0.,0.));
#78 = DIRECTION('',(0.,0.,1.));
#79 = ORIENTED_EDGE('',*,*,#80,.T.);
#80 = EDGE_CURVE('',#72,#81,#83,.T.);
#81 = VERTEX_POINT('',#82);
#82 = CARTESIAN_POINT('',(27.314213562365,-1.560449153759,34.4));
#83 = LINE('',#84,#85);
#84 = CARTESIAN_POINT('',(27.314213562365,-1.560449153759,30.4));
#85 = VECTOR('',#86,1.);
#86 = DIRECTION('',(0.,0.,1.));
#87 = ORIENTED_EDGE('',*,*,#88,.T.);
#88 = EDGE_CURVE('',#81,#89,#91,.T.);
#89 = VERTEX_POINT('',#90);
#90 = CARTESIAN_POINT('',(27.314213562365,-1.999999999999,34.4));
#91 = LINE('',#92,#93);
#92 = CARTESIAN_POINT('',(27.314213562365,3.000000000001,34.4));
#93 = VECTOR('',#94,1.);
#94 = DIRECTION('',(0.,-1.,0.));
#95 = ORIENTED_EDGE('',*,*,#96,.T.);
#96 = EDGE_CURVE('',#89,#97,#99,.T.);
#97 = VERTEX_POINT('',#98);
#98 = CARTESIAN_POINT('',(27.314213562365,-2.999999999999,35.4));
#99 = CIRCLE('',#100,1.);
#100 = AXIS2_PLACEMENT_3D('',#101,#102,#103);
#101 = CARTESIAN_POINT('',(27.314213562365,-1.999999999999,35.4));
#102 = DIRECTION('',(-1.,0.,0.));
#103 = DIRECTION('',(0.,0.,1.));
#104 = ORIENTED_EDGE('',*,*,#105,.T.);
#105 = EDGE_CURVE('',#97,#106,#108,.T.);
#106 = VERTEX_POINT('',#107);
#107 = CARTESIAN_POINT('',(27.314213562365,-2.999999999999,40.4));
#108 = LINE('',#109,#110);
#109 = CARTESIAN_POINT('',(27.314213562365,-2.999999999999,34.4));
#110 = VECTOR('',#111,1.);
#111 = DIRECTION('',(0.,0.,1.));
#112 = ORIENTED_EDGE('',*,*,#113,.T.);
#113 = EDGE_CURVE('',#106,#114,#116,.T.);
#114 = VERTEX_POINT('',#115);
#115 = CARTESIAN_POINT('',(27.314213562365,-1.999999999999,41.4));
#116 = CIRCLE('',#117,1.);
#117 = AXIS2_PLACEMENT_3D('',#118,#119,#120);
#118 = CARTESIAN_POINT('',(27.314213562365,-1.999999999999,40.4));
#119 = DIRECTION('',(-1.,0.,0.));
#120 = DIRECTION('',(0.,0.,1.));
#121 = ORIENTED_EDGE('',*,*,#122,.F.);
#122 = EDGE_CURVE('',#123,#114,#125,.T.);
#123 = VERTEX_POINT('',#124);
#124 = CARTESIAN_POINT('',(27.314213562365,2.000000000001,41.4));
#125 = LINE('',#126,#127);
#126 = CARTESIAN_POINT('',(27.314213562365,3.000000000001,41.4));
#127 = VECTOR('',#128,1.);
#128 = DIRECTION('',(0.,-1.,0.));
#129 = ORIENTED_EDGE('',*,*,#130,.F.);
#130 = EDGE_CURVE('',#131,#123,#133,.T.);
#131 = VERTEX_POINT('',#132);
#132 = CARTESIAN_POINT('',(27.314213562365,3.000000000001,40.4));
#133 = CIRCLE('',#134,1.);
#134 = AXIS2_PLACEMENT_3D('',#135,#136,#137);
#135 = CARTESIAN_POINT('',(27.314213562365,2.000000000001,40.4));
#136 = DIRECTION('',(1.,-0.,0.));
#137 = DIRECTION('',(0.,0.,-1.));
#138 = ORIENTED_EDGE('',*,*,#139,.F.);
#139 = EDGE_CURVE('',#140,#131,#142,.T.);
#140 = VERTEX_POINT('',#141);
#141 = CARTESIAN_POINT('',(27.314213562365,3.000000000001,38.9));
#142 = LINE('',#143,#144);
#143 = CARTESIAN_POINT('',(27.314213562365,3.000000000001,34.4));
#144 = VECTOR('',#145,1.);
#145 = DIRECTION('',(0.,0.,1.));
#146 = ORIENTED_EDGE('',*,*,#147,.F.);
#147 = EDGE_CURVE('',#148,#140,#150,.T.);
#148 = VERTEX_POINT('',#149);
#149 = CARTESIAN_POINT('',(27.314213562365,2.236626924635,38.9));
#150 = LINE('',#151,#152);
#151 = CARTESIAN_POINT('',(27.314213562365,2.020405081937,38.9));
#152 = VECTOR('',#153,1.);
#153 = DIRECTION('',(-8.27397880939E-16,1.,0.));
#154 = ORIENTED_EDGE('',*,*,#155,.T.);
#155 = EDGE_CURVE('',#148,#156,#158,.T.);
#156 = VERTEX_POINT('',#157);
#157 = CARTESIAN_POINT('',(27.314213562365,2.236626924635,36.9));
#158 = CIRCLE('',#159,2.45);
#159 = AXIS2_PLACEMENT_3D('',#160,#161,#162);
#160 = CARTESIAN_POINT('',(27.314213562365,0.,37.9));
#161 = DIRECTION('',(1.,0.,0.));
#162 = DIRECTION('',(0.,1.,0.));
#163 = ORIENTED_EDGE('',*,*,#164,.F.);
#164 = EDGE_CURVE('',#165,#156,#167,.T.);
#165 = VERTEX_POINT('',#166);
#166 = CARTESIAN_POINT('',(27.314213562365,3.000000000001,36.9));
#167 = LINE('',#168,#169);
#168 = CARTESIAN_POINT('',(27.314213562365,0.979594918098,36.9));
#169 = VECTOR('',#170,1.);
#170 = DIRECTION('',(8.27397880939E-16,-1.,0.));
#171 = ORIENTED_EDGE('',*,*,#172,.F.);
#172 = EDGE_CURVE('',#173,#165,#175,.T.);
#173 = VERTEX_POINT('',#174);
#174 = CARTESIAN_POINT('',(27.314213562365,3.000000000001,35.4));
#175 = LINE('',#176,#177);
#176 = CARTESIAN_POINT('',(27.314213562365,3.000000000001,34.4));
#177 = VECTOR('',#178,1.);
#178 = DIRECTION('',(0.,0.,1.));
#179 = ORIENTED_EDGE('',*,*,#180,.F.);
#180 = EDGE_CURVE('',#181,#173,#183,.T.);
#181 = VERTEX_POINT('',#182);
#182 = CARTESIAN_POINT('',(27.314213562365,2.000000000001,34.4));
#183 = CIRCLE('',#184,1.);
#184 = AXIS2_PLACEMENT_3D('',#185,#186,#187);
#185 = CARTESIAN_POINT('',(27.314213562365,2.000000000001,35.4));
#186 = DIRECTION('',(1.,-0.,0.));
#187 = DIRECTION('',(0.,0.,-1.));
#188 = ORIENTED_EDGE('',*,*,#189,.T.);
#189 = EDGE_CURVE('',#181,#190,#192,.T.);
#190 = VERTEX_POINT('',#191);
#191 = CARTESIAN_POINT('',(27.314213562365,1.560449153826,34.4));
#192 = LINE('',#193,#194);
#193 = CARTESIAN_POINT('',(27.314213562365,3.000000000001,34.4));
#194 = VECTOR('',#195,1.);
#195 = DIRECTION('',(0.,-1.,0.));
#196 = ORIENTED_EDGE('',*,*,#197,.F.);
#197 = EDGE_CURVE('',#62,#190,#198,.T.);
#198 = LINE('',#199,#200);
#199 = CARTESIAN_POINT('',(27.314213562365,1.560449153826,30.4));
#200 = VECTOR('',#201,1.);
#201 = DIRECTION('',(0.,0.,1.));
#202 = PLANE('',#203);
#203 = AXIS2_PLACEMENT_3D('',#204,#205,#206);
#204 = CARTESIAN_POINT('',(27.314213562365,8.58223296351E-12,
    36.238717846167));
#205 = DIRECTION('',(-1.,-8.27397880939E-16,-8.200231649207E-16));
#206 = DIRECTION('',(8.27397880939E-16,-1.,0.));
#207 = ADVANCED_FACE('',(#208),#227,.T.);
#208 = FACE_BOUND('',#209,.F.);
#209 = EDGE_LOOP('',(#210,#219,#225,#226));
#210 = ORIENTED_EDGE('',*,*,#211,.T.);
#211 = EDGE_CURVE('',#40,#212,#214,.T.);
#212 = VERTEX_POINT('',#213);
#213 = CARTESIAN_POINT('',(32.314213562349,1.560449153826,31.4));
#214 = CIRCLE('',#215,1.);
#215 = AXIS2_PLACEMENT_3D('',#216,#217,#218);
#216 = CARTESIAN_POINT('',(32.314213562349,0.560449153826,31.4));
#217 = DIRECTION('',(1.,-0.,0.));
#218 = DIRECTION('',(0.,0.,-1.));
#219 = ORIENTED_EDGE('',*,*,#220,.T.);
#220 = EDGE_CURVE('',#212,#62,#221,.T.);
#221 = LINE('',#222,#223);
#222 = CARTESIAN_POINT('',(32.314213562349,1.560449153826,31.4));
#223 = VECTOR('',#224,1.);
#224 = DIRECTION('',(-1.,0.,0.));
#225 = ORIENTED_EDGE('',*,*,#61,.F.);
#226 = ORIENTED_EDGE('',*,*,#47,.F.);
#227 = CYLINDRICAL_SURFACE('',#228,1.);
#228 = AXIS2_PLACEMENT_3D('',#229,#230,#231);
#229 = CARTESIAN_POINT('',(32.314213562349,0.560449153826,31.4));
#230 = DIRECTION('',(-1.,0.,0.));
#231 = DIRECTION('',(0.,0.,-1.));
#232 = ADVANCED_FACE('',(#233),#252,.T.);
#233 = FACE_BOUND('',#234,.F.);
#234 = EDGE_LOOP('',(#235,#236,#244,#251));
#235 = ORIENTED_EDGE('',*,*,#71,.T.);
#236 = ORIENTED_EDGE('',*,*,#237,.T.);
#237 = EDGE_CURVE('',#72,#238,#240,.T.);
#238 = VERTEX_POINT('',#239);
#239 = CARTESIAN_POINT('',(32.314213562349,-1.560449153759,31.4));
#240 = LINE('',#241,#242);
#241 = CARTESIAN_POINT('',(27.314213562365,-1.560449153759,31.4));
#242 = VECTOR('',#243,1.);
#243 = DIRECTION('',(1.,0.,0.));
#244 = ORIENTED_EDGE('',*,*,#245,.F.);
#245 = EDGE_CURVE('',#32,#238,#246,.T.);
#246 = CIRCLE('',#247,1.);
#247 = AXIS2_PLACEMENT_3D('',#248,#249,#250);
#248 = CARTESIAN_POINT('',(32.314213562349,-0.560449153759,31.4));
#249 = DIRECTION('',(-1.,0.,0.));
#250 = DIRECTION('',(0.,0.,1.));
#251 = ORIENTED_EDGE('',*,*,#31,.F.);
#252 = CYLINDRICAL_SURFACE('',#253,1.);
#253 = AXIS2_PLACEMENT_3D('',#254,#255,#256);
#254 = CARTESIAN_POINT('',(27.314213562365,-0.560449153759,31.4));
#255 = DIRECTION('',(1.,0.,0.));
#256 = DIRECTION('',(0.,0.,-1.));
#257 = ADVANCED_FACE('',(#258),#285,.F.);
#258 = FACE_BOUND('',#259,.F.);
#259 = EDGE_LOOP('',(#260,#261,#262,#270,#278,#284));
#260 = ORIENTED_EDGE('',*,*,#39,.F.);
#261 = ORIENTED_EDGE('',*,*,#245,.T.);
#262 = ORIENTED_EDGE('',*,*,#263,.T.);
#263 = EDGE_CURVE('',#238,#264,#266,.T.);
#264 = VERTEX_POINT('',#265);
#265 = CARTESIAN_POINT('',(32.314213562349,-1.560449153759,34.4));
#266 = LINE('',#267,#268);
#267 = CARTESIAN_POINT('',(32.314213562349,-1.560449153759,30.4));
#268 = VECTOR('',#269,1.);
#269 = DIRECTION('',(0.,0.,1.));
#270 = ORIENTED_EDGE('',*,*,#271,.T.);
#271 = EDGE_CURVE('',#264,#272,#274,.T.);
#272 = VERTEX_POINT('',#273);
#273 = CARTESIAN_POINT('',(32.314213562349,1.560449153826,34.4));
#274 = LINE('',#275,#276);
#275 = CARTESIAN_POINT('',(32.314213562349,-0.780224576879,34.4));
#276 = VECTOR('',#277,1.);
#277 = DIRECTION('',(0.,1.,0.));
#278 = ORIENTED_EDGE('',*,*,#279,.F.);
#279 = EDGE_CURVE('',#212,#272,#280,.T.);
#280 = LINE('',#281,#282);
#281 = CARTESIAN_POINT('',(32.314213562349,1.560449153826,30.4));
#282 = VECTOR('',#283,1.);
#283 = DIRECTION('',(0.,0.,1.));
#284 = ORIENTED_EDGE('',*,*,#211,.F.);
#285 = PLANE('',#286);
#286 = AXIS2_PLACEMENT_3D('',#287,#288,#289);
#287 = CARTESIAN_POINT('',(32.314213562349,-1.560449153759,30.4));
#288 = DIRECTION('',(-1.,0.,0.));
#289 = DIRECTION('',(0.,1.,0.));
#290 = ADVANCED_FACE('',(#291),#302,.F.);
#291 = FACE_BOUND('',#292,.F.);
#292 = EDGE_LOOP('',(#293,#294,#295,#296));
#293 = ORIENTED_EDGE('',*,*,#197,.F.);
#294 = ORIENTED_EDGE('',*,*,#220,.F.);
#295 = ORIENTED_EDGE('',*,*,#279,.T.);
#296 = ORIENTED_EDGE('',*,*,#297,.T.);
#297 = EDGE_CURVE('',#272,#190,#298,.T.);
#298 = LINE('',#299,#300);
#299 = CARTESIAN_POINT('',(30.822437781176,1.560449153826,34.4));
#300 = VECTOR('',#301,1.);
#301 = DIRECTION('',(-1.,0.,6.026148958591E-16));
#302 = PLANE('',#303);
#303 = AXIS2_PLACEMENT_3D('',#304,#305,#306);
#304 = CARTESIAN_POINT('',(32.314213562349,1.560449153826,30.4));
#305 = DIRECTION('',(-0.,-1.,-0.));
#306 = DIRECTION('',(-1.,0.,0.));
#307 = ADVANCED_FACE('',(#308),#342,.F.);
#308 = FACE_BOUND('',#309,.F.);
#309 = EDGE_LOOP('',(#310,#320,#326,#327,#328,#329,#335,#336));
#310 = ORIENTED_EDGE('',*,*,#311,.T.);
#311 = EDGE_CURVE('',#312,#314,#316,.T.);
#312 = VERTEX_POINT('',#313);
#313 = CARTESIAN_POINT('',(35.314213562365,-1.999999999999,34.4));
#314 = VERTEX_POINT('',#315);
#315 = CARTESIAN_POINT('',(35.314213562365,2.000000000001,34.4));
#316 = LINE('',#317,#318);
#317 = CARTESIAN_POINT('',(35.314213562365,-2.999999999999,34.4));
#318 = VECTOR('',#319,1.);
#319 = DIRECTION('',(0.,1.,0.));
#320 = ORIENTED_EDGE('',*,*,#321,.T.);
#321 = EDGE_CURVE('',#314,#181,#322,.T.);
#322 = LINE('',#323,#324);
#323 = CARTESIAN_POINT('',(35.314213562365,2.000000000001,34.4));
#324 = VECTOR('',#325,1.);
#325 = DIRECTION('',(-1.,0.,0.));
#326 = ORIENTED_EDGE('',*,*,#189,.T.);
#327 = ORIENTED_EDGE('',*,*,#297,.F.);
#328 = ORIENTED_EDGE('',*,*,#271,.F.);
#329 = ORIENTED_EDGE('',*,*,#330,.F.);
#330 = EDGE_CURVE('',#81,#264,#331,.T.);
#331 = LINE('',#332,#333);
#332 = CARTESIAN_POINT('',(28.322437781185,-1.560449153759,34.4));
#333 = VECTOR('',#334,1.);
#334 = DIRECTION('',(1.,0.,-6.026148958591E-16));
#335 = ORIENTED_EDGE('',*,*,#88,.T.);
#336 = ORIENTED_EDGE('',*,*,#337,.T.);
#337 = EDGE_CURVE('',#89,#312,#338,.T.);
#338 = LINE('',#339,#340);
#339 = CARTESIAN_POINT('',(27.314213562365,-1.999999999999,34.4));
#340 = VECTOR('',#341,1.);
#341 = DIRECTION('',(1.,0.,0.));
#342 = PLANE('',#343);
#343 = AXIS2_PLACEMENT_3D('',#344,#345,#346);
#344 = CARTESIAN_POINT('',(31.314213562365,8.69399790255E-13,34.4));
#345 = DIRECTION('',(0.,0.,1.));
#346 = DIRECTION('',(1.,0.,0.));
#347 = ADVANCED_FACE('',(#348),#367,.T.);
#348 = FACE_BOUND('',#349,.F.);
#349 = EDGE_LOOP('',(#350,#359,#365,#366));
#350 = ORIENTED_EDGE('',*,*,#351,.T.);
#351 = EDGE_CURVE('',#314,#352,#354,.T.);
#352 = VERTEX_POINT('',#353);
#353 = CARTESIAN_POINT('',(35.314213562365,3.000000000001,35.4));
#354 = CIRCLE('',#355,1.);
#355 = AXIS2_PLACEMENT_3D('',#356,#357,#358);
#356 = CARTESIAN_POINT('',(35.314213562365,2.000000000001,35.4));
#357 = DIRECTION('',(1.,-0.,0.));
#358 = DIRECTION('',(0.,0.,-1.));
#359 = ORIENTED_EDGE('',*,*,#360,.T.);
#360 = EDGE_CURVE('',#352,#173,#361,.T.);
#361 = LINE('',#362,#363);
#362 = CARTESIAN_POINT('',(35.314213562365,3.000000000001,35.4));
#363 = VECTOR('',#364,1.);
#364 = DIRECTION('',(-1.,0.,0.));
#365 = ORIENTED_EDGE('',*,*,#180,.F.);
#366 = ORIENTED_EDGE('',*,*,#321,.F.);
#367 = CYLINDRICAL_SURFACE('',#368,1.);
#368 = AXIS2_PLACEMENT_3D('',#369,#370,#371);
#369 = CARTESIAN_POINT('',(35.314213562365,2.000000000001,35.4));
#370 = DIRECTION('',(-1.,0.,0.));
#371 = DIRECTION('',(0.,0.,-1.));
#372 = ADVANCED_FACE('',(#373),#391,.F.);
#373 = FACE_BOUND('',#374,.F.);
#374 = EDGE_LOOP('',(#375,#376,#384,#390));
#375 = ORIENTED_EDGE('',*,*,#360,.F.);
#376 = ORIENTED_EDGE('',*,*,#377,.T.);
#377 = EDGE_CURVE('',#352,#378,#380,.T.);
#378 = VERTEX_POINT('',#379);
#379 = CARTESIAN_POINT('',(35.314213562365,3.000000000001,36.9));
#380 = LINE('',#381,#382);
#381 = CARTESIAN_POINT('',(35.314213562365,3.000000000001,34.4));
#382 = VECTOR('',#383,1.);
#383 = DIRECTION('',(0.,0.,1.));
#384 = ORIENTED_EDGE('',*,*,#385,.F.);
#385 = EDGE_CURVE('',#165,#378,#386,.T.);
#386 = LINE('',#387,#388);
#387 = CARTESIAN_POINT('',(35.314213562365,3.000000000001,36.9));
#388 = VECTOR('',#389,1.);
#389 = DIRECTION('',(1.,0.,0.));
#390 = ORIENTED_EDGE('',*,*,#172,.F.);
#391 = PLANE('',#392);
#392 = AXIS2_PLACEMENT_3D('',#393,#394,#395);
#393 = CARTESIAN_POINT('',(35.314213562365,3.000000000001,34.4));
#394 = DIRECTION('',(0.,-1.,0.));
#395 = DIRECTION('',(-1.,0.,0.));
#396 = ADVANCED_FACE('',(#397),#431,.F.);
#397 = FACE_BOUND('',#398,.F.);
#398 = EDGE_LOOP('',(#399,#407,#415,#423,#429,#430));
#399 = ORIENTED_EDGE('',*,*,#400,.F.);
#400 = EDGE_CURVE('',#401,#378,#403,.T.);
#401 = VERTEX_POINT('',#402);
#402 = CARTESIAN_POINT('',(35.314213562365,2.588556547596,36.9));
#403 = LINE('',#404,#405);
#404 = CARTESIAN_POINT('',(35.314213562365,1.959189836187,36.9));
#405 = VECTOR('',#406,1.);
#406 = DIRECTION('',(0.,1.,0.));
#407 = ORIENTED_EDGE('',*,*,#408,.F.);
#408 = EDGE_CURVE('',#409,#401,#411,.T.);
#409 = VERTEX_POINT('',#410);
#410 = CARTESIAN_POINT('',(33.314213562365,2.588556547596,36.9));
#411 = LINE('',#412,#413);
#412 = CARTESIAN_POINT('',(35.314213562365,2.588556547596,36.9));
#413 = VECTOR('',#414,1.);
#414 = DIRECTION('',(1.,0.,0.));
#415 = ORIENTED_EDGE('',*,*,#416,.F.);
#416 = EDGE_CURVE('',#417,#409,#419,.T.);
#417 = VERTEX_POINT('',#418);
#418 = CARTESIAN_POINT('',(33.314213562365,2.236626924635,36.9));
#419 = LINE('',#420,#421);
#420 = CARTESIAN_POINT('',(33.314213562365,0.979594918104,36.9));
#421 = VECTOR('',#422,1.);
#422 = DIRECTION('',(0.,1.,0.));
#423 = ORIENTED_EDGE('',*,*,#424,.F.);
#424 = EDGE_CURVE('',#156,#417,#425,.T.);
#425 = LINE('',#426,#427);
#426 = CARTESIAN_POINT('',(33.314213562365,2.236626924635,36.9));
#427 = VECTOR('',#428,1.);
#428 = DIRECTION('',(1.,0.,0.));
#429 = ORIENTED_EDGE('',*,*,#164,.F.);
#430 = ORIENTED_EDGE('',*,*,#385,.T.);
#431 = PLANE('',#432);
#432 = AXIS2_PLACEMENT_3D('',#433,#434,#435);
#433 = CARTESIAN_POINT('',(35.314213562365,1.959189836187,36.9));
#434 = DIRECTION('',(0.,0.,-1.));
#435 = DIRECTION('',(0.,1.,0.));
#436 = ADVANCED_FACE('',(#437),#456,.F.);
#437 = FACE_BOUND('',#438,.F.);
#438 = EDGE_LOOP('',(#439,#448,#454,#455));
#439 = ORIENTED_EDGE('',*,*,#440,.F.);
#440 = EDGE_CURVE('',#441,#417,#443,.T.);
#441 = VERTEX_POINT('',#442);
#442 = CARTESIAN_POINT('',(33.314213562365,2.236626924635,38.9));
#443 = CIRCLE('',#444,2.45);
#444 = AXIS2_PLACEMENT_3D('',#445,#446,#447);
#445 = CARTESIAN_POINT('',(33.314213562365,0.,37.9));
#446 = DIRECTION('',(1.,0.,0.));
#447 = DIRECTION('',(0.,1.,0.));
#448 = ORIENTED_EDGE('',*,*,#449,.F.);
#449 = EDGE_CURVE('',#148,#441,#450,.T.);
#450 = LINE('',#451,#452);
#451 = CARTESIAN_POINT('',(33.314213562365,2.236626924635,38.9));
#452 = VECTOR('',#453,1.);
#453 = DIRECTION('',(1.,0.,0.));
#454 = ORIENTED_EDGE('',*,*,#155,.T.);
#455 = ORIENTED_EDGE('',*,*,#424,.T.);
#456 = CYLINDRICAL_SURFACE('',#457,2.45);
#457 = AXIS2_PLACEMENT_3D('',#458,#459,#460);
#458 = CARTESIAN_POINT('',(33.314213562365,0.,37.9));
#459 = DIRECTION('',(1.,0.,0.));
#460 = DIRECTION('',(0.,1.,0.));
#461 = ADVANCED_FACE('',(#462),#496,.F.);
#462 = FACE_BOUND('',#463,.F.);
#463 = EDGE_LOOP('',(#464,#474,#480,#481,#482,#490));
#464 = ORIENTED_EDGE('',*,*,#465,.F.);
#465 = EDGE_CURVE('',#466,#468,#470,.T.);
#466 = VERTEX_POINT('',#467);
#467 = CARTESIAN_POINT('',(35.314213562365,3.000000000001,38.9));
#468 = VERTEX_POINT('',#469);
#469 = CARTESIAN_POINT('',(35.314213562365,2.588556547596,38.9));
#470 = LINE('',#471,#472);
#471 = CARTESIAN_POINT('',(35.314213562365,4.040810163865,38.9));
#472 = VECTOR('',#473,1.);
#473 = DIRECTION('',(0.,-1.,0.));
#474 = ORIENTED_EDGE('',*,*,#475,.T.);
#475 = EDGE_CURVE('',#466,#140,#476,.T.);
#476 = LINE('',#477,#478);
#477 = CARTESIAN_POINT('',(35.314213562365,3.000000000001,38.9));
#478 = VECTOR('',#479,1.);
#479 = DIRECTION('',(-1.,0.,0.));
#480 = ORIENTED_EDGE('',*,*,#147,.F.);
#481 = ORIENTED_EDGE('',*,*,#449,.T.);
#482 = ORIENTED_EDGE('',*,*,#483,.F.);
#483 = EDGE_CURVE('',#484,#441,#486,.T.);
#484 = VERTEX_POINT('',#485);
#485 = CARTESIAN_POINT('',(33.314213562365,2.588556547596,38.9));
#486 = LINE('',#487,#488);
#487 = CARTESIAN_POINT('',(33.314213562365,2.020405081942,38.9));
#488 = VECTOR('',#489,1.);
#489 = DIRECTION('',(0.,-1.,0.));
#490 = ORIENTED_EDGE('',*,*,#491,.T.);
#491 = EDGE_CURVE('',#484,#468,#492,.T.);
#492 = LINE('',#493,#494);
#493 = CARTESIAN_POINT('',(35.314213562365,2.588556547596,38.9));
#494 = VECTOR('',#495,1.);
#495 = DIRECTION('',(1.,0.,0.));
#496 = PLANE('',#497);
#497 = AXIS2_PLACEMENT_3D('',#498,#499,#500);
#498 = CARTESIAN_POINT('',(35.314213562365,4.040810163865,38.9));
#499 = DIRECTION('',(0.,0.,1.));
#500 = DIRECTION('',(0.,-1.,0.));
#501 = ADVANCED_FACE('',(#502),#520,.F.);
#502 = FACE_BOUND('',#503,.F.);
#503 = EDGE_LOOP('',(#504,#505,#513,#519));
#504 = ORIENTED_EDGE('',*,*,#475,.F.);
#505 = ORIENTED_EDGE('',*,*,#506,.T.);
#506 = EDGE_CURVE('',#466,#507,#509,.T.);
#507 = VERTEX_POINT('',#508);
#508 = CARTESIAN_POINT('',(35.314213562365,3.000000000001,40.4));
#509 = LINE('',#510,#511);
#510 = CARTESIAN_POINT('',(35.314213562365,3.000000000001,34.4));
#511 = VECTOR('',#512,1.);
#512 = DIRECTION('',(0.,0.,1.));
#513 = ORIENTED_EDGE('',*,*,#514,.T.);
#514 = EDGE_CURVE('',#507,#131,#515,.T.);
#515 = LINE('',#516,#517);
#516 = CARTESIAN_POINT('',(35.314213562365,3.000000000001,40.4));
#517 = VECTOR('',#518,1.);
#518 = DIRECTION('',(-1.,0.,0.));
#519 = ORIENTED_EDGE('',*,*,#139,.F.);
#520 = PLANE('',#521);
#521 = AXIS2_PLACEMENT_3D('',#522,#523,#524);
#522 = CARTESIAN_POINT('',(35.314213562365,3.000000000001,34.4));
#523 = DIRECTION('',(0.,-1.,0.));
#524 = DIRECTION('',(-1.,0.,0.));
#525 = ADVANCED_FACE('',(#526),#545,.T.);
#526 = FACE_BOUND('',#527,.F.);
#527 = EDGE_LOOP('',(#528,#537,#543,#544));
#528 = ORIENTED_EDGE('',*,*,#529,.T.);
#529 = EDGE_CURVE('',#507,#530,#532,.T.);
#530 = VERTEX_POINT('',#531);
#531 = CARTESIAN_POINT('',(35.314213562365,2.000000000001,41.4));
#532 = CIRCLE('',#533,1.);
#533 = AXIS2_PLACEMENT_3D('',#534,#535,#536);
#534 = CARTESIAN_POINT('',(35.314213562365,2.000000000001,40.4));
#535 = DIRECTION('',(1.,-0.,0.));
#536 = DIRECTION('',(0.,0.,-1.));
#537 = ORIENTED_EDGE('',*,*,#538,.T.);
#538 = EDGE_CURVE('',#530,#123,#539,.T.);
#539 = LINE('',#540,#541);
#540 = CARTESIAN_POINT('',(35.314213562365,2.000000000001,41.4));
#541 = VECTOR('',#542,1.);
#542 = DIRECTION('',(-1.,0.,0.));
#543 = ORIENTED_EDGE('',*,*,#130,.F.);
#544 = ORIENTED_EDGE('',*,*,#514,.F.);
#545 = CYLINDRICAL_SURFACE('',#546,1.);
#546 = AXIS2_PLACEMENT_3D('',#547,#548,#549);
#547 = CARTESIAN_POINT('',(35.314213562365,2.000000000001,40.4));
#548 = DIRECTION('',(-1.,0.,0.));
#549 = DIRECTION('',(0.,1.,0.));
#550 = ADVANCED_FACE('',(#551),#569,.T.);
#551 = FACE_BOUND('',#552,.T.);
#552 = EDGE_LOOP('',(#553,#554,#562,#568));
#553 = ORIENTED_EDGE('',*,*,#122,.T.);
#554 = ORIENTED_EDGE('',*,*,#555,.T.);
#555 = EDGE_CURVE('',#114,#556,#558,.T.);
#556 = VERTEX_POINT('',#557);
#557 = CARTESIAN_POINT('',(35.314213562365,-1.999999999999,41.4));
#558 = LINE('',#559,#560);
#559 = CARTESIAN_POINT('',(27.314213562365,-1.999999999999,41.4));
#560 = VECTOR('',#561,1.);
#561 = DIRECTION('',(1.,0.,0.));
#562 = ORIENTED_EDGE('',*,*,#563,.T.);
#563 = EDGE_CURVE('',#556,#530,#564,.T.);
#564 = LINE('',#565,#566);
#565 = CARTESIAN_POINT('',(35.314213562365,-2.999999999999,41.4));
#566 = VECTOR('',#567,1.);
#567 = DIRECTION('',(0.,1.,0.));
#568 = ORIENTED_EDGE('',*,*,#538,.T.);
#569 = PLANE('',#570);
#570 = AXIS2_PLACEMENT_3D('',#571,#572,#573);
#571 = CARTESIAN_POINT('',(31.314213562365,8.69399790255E-13,41.4));
#572 = DIRECTION('',(0.,0.,1.));
#573 = DIRECTION('',(1.,0.,0.));
#574 = ADVANCED_FACE('',(#575),#594,.T.);
#575 = FACE_BOUND('',#576,.F.);
#576 = EDGE_LOOP('',(#577,#578,#579,#588));
#577 = ORIENTED_EDGE('',*,*,#113,.T.);
#578 = ORIENTED_EDGE('',*,*,#555,.T.);
#579 = ORIENTED_EDGE('',*,*,#580,.F.);
#580 = EDGE_CURVE('',#581,#556,#583,.T.);
#581 = VERTEX_POINT('',#582);
#582 = CARTESIAN_POINT('',(35.314213562365,-2.999999999999,40.4));
#583 = CIRCLE('',#584,1.);
#584 = AXIS2_PLACEMENT_3D('',#585,#586,#587);
#585 = CARTESIAN_POINT('',(35.314213562365,-1.999999999999,40.4));
#586 = DIRECTION('',(-1.,0.,0.));
#587 = DIRECTION('',(0.,0.,1.));
#588 = ORIENTED_EDGE('',*,*,#589,.F.);
#589 = EDGE_CURVE('',#106,#581,#590,.T.);
#590 = LINE('',#591,#592);
#591 = CARTESIAN_POINT('',(27.314213562365,-2.999999999999,40.4));
#592 = VECTOR('',#593,1.);
#593 = DIRECTION('',(1.,0.,0.));
#594 = CYLINDRICAL_SURFACE('',#595,1.);
#595 = AXIS2_PLACEMENT_3D('',#596,#597,#598);
#596 = CARTESIAN_POINT('',(27.314213562365,-1.999999999999,40.4));
#597 = DIRECTION('',(1.,0.,0.));
#598 = DIRECTION('',(0.,-1.,0.));
#599 = ADVANCED_FACE('',(#600),#618,.F.);
#600 = FACE_BOUND('',#601,.F.);
#601 = EDGE_LOOP('',(#602,#603,#604,#612));
#602 = ORIENTED_EDGE('',*,*,#105,.T.);
#603 = ORIENTED_EDGE('',*,*,#589,.T.);
#604 = ORIENTED_EDGE('',*,*,#605,.F.);
#605 = EDGE_CURVE('',#606,#581,#608,.T.);
#606 = VERTEX_POINT('',#607);
#607 = CARTESIAN_POINT('',(35.314213562365,-2.999999999999,35.4));
#608 = LINE('',#609,#610);
#609 = CARTESIAN_POINT('',(35.314213562365,-2.999999999999,34.4));
#610 = VECTOR('',#611,1.);
#611 = DIRECTION('',(0.,0.,1.));
#612 = ORIENTED_EDGE('',*,*,#613,.F.);
#613 = EDGE_CURVE('',#97,#606,#614,.T.);
#614 = LINE('',#615,#616);
#615 = CARTESIAN_POINT('',(27.314213562365,-2.999999999999,35.4));
#616 = VECTOR('',#617,1.);
#617 = DIRECTION('',(1.,0.,0.));
#618 = PLANE('',#619);
#619 = AXIS2_PLACEMENT_3D('',#620,#621,#622);
#620 = CARTESIAN_POINT('',(27.314213562365,-2.999999999999,34.4));
#621 = DIRECTION('',(0.,1.,0.));
#622 = DIRECTION('',(1.,0.,0.));
#623 = ADVANCED_FACE('',(#624),#636,.T.);
#624 = FACE_BOUND('',#625,.F.);
#625 = EDGE_LOOP('',(#626,#627,#628,#635));
#626 = ORIENTED_EDGE('',*,*,#96,.T.);
#627 = ORIENTED_EDGE('',*,*,#613,.T.);
#628 = ORIENTED_EDGE('',*,*,#629,.F.);
#629 = EDGE_CURVE('',#312,#606,#630,.T.);
#630 = CIRCLE('',#631,1.);
#631 = AXIS2_PLACEMENT_3D('',#632,#633,#634);
#632 = CARTESIAN_POINT('',(35.314213562365,-1.999999999999,35.4));
#633 = DIRECTION('',(-1.,0.,0.));
#634 = DIRECTION('',(0.,0.,1.));
#635 = ORIENTED_EDGE('',*,*,#337,.F.);
#636 = CYLINDRICAL_SURFACE('',#637,1.);
#637 = AXIS2_PLACEMENT_3D('',#638,#639,#640);
#638 = CARTESIAN_POINT('',(27.314213562365,-1.999999999999,35.4));
#639 = DIRECTION('',(1.,0.,0.));
#640 = DIRECTION('',(0.,0.,-1.));
#641 = ADVANCED_FACE('',(#642),#648,.F.);
#642 = FACE_BOUND('',#643,.F.);
#643 = EDGE_LOOP('',(#644,#645,#646,#647));
#644 = ORIENTED_EDGE('',*,*,#263,.F.);
#645 = ORIENTED_EDGE('',*,*,#237,.F.);
#646 = ORIENTED_EDGE('',*,*,#80,.T.);
#647 = ORIENTED_EDGE('',*,*,#330,.T.);
#648 = PLANE('',#649);
#649 = AXIS2_PLACEMENT_3D('',#650,#651,#652);
#650 = CARTESIAN_POINT('',(27.314213562365,-1.560449153759,30.4));
#651 = DIRECTION('',(0.,1.,0.));
#652 = DIRECTION('',(1.,0.,0.));
#653 = ADVANCED_FACE('',(#654),#674,.F.);
#654 = FACE_BOUND('',#655,.F.);
#655 = EDGE_LOOP('',(#656,#657,#658,#659,#660,#661,#662,#663,#670,#671,
    #672,#673));
#656 = ORIENTED_EDGE('',*,*,#629,.T.);
#657 = ORIENTED_EDGE('',*,*,#605,.T.);
#658 = ORIENTED_EDGE('',*,*,#580,.T.);
#659 = ORIENTED_EDGE('',*,*,#563,.T.);
#660 = ORIENTED_EDGE('',*,*,#529,.F.);
#661 = ORIENTED_EDGE('',*,*,#506,.F.);
#662 = ORIENTED_EDGE('',*,*,#465,.T.);
#663 = ORIENTED_EDGE('',*,*,#664,.T.);
#664 = EDGE_CURVE('',#468,#401,#665,.T.);
#665 = CIRCLE('',#666,2.775);
#666 = AXIS2_PLACEMENT_3D('',#667,#668,#669);
#667 = CARTESIAN_POINT('',(35.314213562365,1.99296E-11,37.9));
#668 = DIRECTION('',(1.,0.,0.));
#669 = DIRECTION('',(0.,1.,0.));
#670 = ORIENTED_EDGE('',*,*,#400,.T.);
#671 = ORIENTED_EDGE('',*,*,#377,.F.);
#672 = ORIENTED_EDGE('',*,*,#351,.F.);
#673 = ORIENTED_EDGE('',*,*,#311,.F.);
#674 = PLANE('',#675);
#675 = AXIS2_PLACEMENT_3D('',#676,#677,#678);
#676 = CARTESIAN_POINT('',(35.314213562365,-2.999999999999,34.4));
#677 = DIRECTION('',(-1.,0.,0.));
#678 = DIRECTION('',(0.,1.,0.));
#679 = ADVANCED_FACE('',(#680),#692,.T.);
#680 = FACE_BOUND('',#681,.T.);
#681 = EDGE_LOOP('',(#682,#683,#690,#691));
#682 = ORIENTED_EDGE('',*,*,#483,.F.);
#683 = ORIENTED_EDGE('',*,*,#684,.T.);
#684 = EDGE_CURVE('',#484,#409,#685,.T.);
#685 = CIRCLE('',#686,2.775);
#686 = AXIS2_PLACEMENT_3D('',#687,#688,#689);
#687 = CARTESIAN_POINT('',(33.314213562365,1.99296E-11,37.9));
#688 = DIRECTION('',(1.,0.,0.));
#689 = DIRECTION('',(0.,1.,0.));
#690 = ORIENTED_EDGE('',*,*,#416,.F.);
#691 = ORIENTED_EDGE('',*,*,#440,.F.);
#692 = PLANE('',#693);
#693 = AXIS2_PLACEMENT_3D('',#694,#695,#696);
#694 = CARTESIAN_POINT('',(33.314213562365,1.992902321451E-11,37.9));
#695 = DIRECTION('',(1.,0.,0.));
#696 = DIRECTION('',(0.,0.,1.));
#697 = ADVANCED_FACE('',(#698),#704,.F.);
#698 = FACE_BOUND('',#699,.F.);
#699 = EDGE_LOOP('',(#700,#701,#702,#703));
#700 = ORIENTED_EDGE('',*,*,#664,.F.);
#701 = ORIENTED_EDGE('',*,*,#491,.F.);
#702 = ORIENTED_EDGE('',*,*,#684,.T.);
#703 = ORIENTED_EDGE('',*,*,#408,.T.);
#704 = CYLINDRICAL_SURFACE('',#705,2.775);
#705 = AXIS2_PLACEMENT_3D('',#706,#707,#708);
#706 = CARTESIAN_POINT('',(35.314213562365,1.99296E-11,37.9));
#707 = DIRECTION('',(1.,0.,0.));
#708 = DIRECTION('',(0.,1.,0.));
#709 = ( GEOMETRIC_REPRESENTATION_CONTEXT(3) 
GLOBAL_UNCERTAINTY_ASSIGNED_CONTEXT((#713)) GLOBAL_UNIT_ASSIGNED_CONTEXT
((#710,#711,#712)) REPRESENTATION_CONTEXT('Context #1',
  '3D Context with UNIT and UNCERTAINTY') );
#710 = ( LENGTH_UNIT() NAMED_UNIT(*) SI_UNIT(.MILLI.,.METRE.) );
#711 = ( NAMED_UNIT(*) PLANE_ANGLE_UNIT() SI_UNIT($,.RADIAN.) );
#712 = ( NAMED_UNIT(*) SI_UNIT($,.STERADIAN.) SOLID_ANGLE_UNIT() );
#713 = UNCERTAINTY_MEASURE_WITH_UNIT(LENGTH_MEASURE(5.E-06),#710,
  'distance_accuracy_value','confusion accuracy');
#714 = PRODUCT_RELATED_PRODUCT_CATEGORY('part',$,(#7));
#715 = MECHANICAL_DESIGN_GEOMETRIC_PRESENTATION_REPRESENTATION('',(#716)
  ,#709);
#716 = STYLED_ITEM('color',(#717),#15);
#717 = PRESENTATION_STYLE_ASSIGNMENT((#718,#724));
#718 = SURFACE_STYLE_USAGE(.BOTH.,#719);
#719 = SURFACE_SIDE_STYLE('',(#720));
#720 = SURFACE_STYLE_FILL_AREA(#721);
#721 = FILL_AREA_STYLE('',(#722));
#722 = FILL_AREA_STYLE_COLOUR('',#723);
#723 = COLOUR_RGB('',0.447058818107,0.474509808674,0.501960817233);
#724 = CURVE_STYLE('',#725,POSITIVE_LENGTH_MEASURE(0.1),#726);
#725 = DRAUGHTING_PRE_DEFINED_CURVE_FONT('continuous');
#726 = COLOUR_RGB('',9.803921802644E-02,9.803921802644E-02,
  9.803921802644E-02);
ENDSEC;
END-ISO-10303-21;
