ISO-10303-21;
HEADER;
FILE_DESCRIPTION(('FreeCAD Model'),'2;1');
FILE_NAME('Open CASCADE Shape Model','2026-01-18T06:57:51',(''),(''),
  'Open CASCADE STEP processor 7.8','FreeCAD','Unknown');
FILE_SCHEMA(('AUTOMOTIVE_DESIGN { 1 0 10303 214 1 1 1 1 }'));
ENDSEC;
DATA;
#1 = APPLICATION_PROTOCOL_DEFINITION('international standard',
  'automotive_design',2000,#2);
#2 = APPLICATION_CONTEXT(
  'core data for automotive mechanical design processes');
#3 = SHAPE_DEFINITION_REPRESENTATION(#4,#10);
#4 = PRODUCT_DEFINITION_SHAPE('','',#5);
#5 = PRODUCT_DEFINITION('design','',#6,#9);
#6 = PRODUCT_DEFINITION_FORMATION('','',#7);
#7 = PRODUCT('encoder_holder','encoder_holder','',(#8));
#8 = PRODUCT_CONTEXT('',#2,'mechanical');
#9 = PRODUCT_DEFINITION_CONTEXT('part definition',#2,'design');
#10 = ADVANCED_BREP_SHAPE_REPRESENTATION('',(#11,#15),#1289);
#11 = AXIS2_PLACEMENT_3D('',#12,#13,#14);
#12 = CARTESIAN_POINT('',(0.,0.,0.));
#13 = DIRECTION('',(0.,0.,1.));
#14 = DIRECTION('',(1.,0.,-0.));
#15 = MANIFOLD_SOLID_BREP('',#16);
#16 = CLOSED_SHELL('',(#17,#57,#124,#149,#174,#207,#288,#313,#369,#394,
    #420,#437,#504,#529,#554,#709,#750,#774,#948,#965,#991,#1008,#1025,
    #1042,#1056,#1073,#1085,#1107,#1124,#1141,#1153,#1175,#1192,#1209,
    #1221,#1243,#1260,#1277));
#17 = ADVANCED_FACE('',(#18),#52,.F.);
#18 = FACE_BOUND('',#19,.F.);
#19 = EDGE_LOOP('',(#20,#30,#38,#46));
#20 = ORIENTED_EDGE('',*,*,#21,.F.);
#21 = EDGE_CURVE('',#22,#24,#26,.T.);
#22 = VERTEX_POINT('',#23);
#23 = CARTESIAN_POINT('',(28.830662000012,2.,-8.));
#24 = VERTEX_POINT('',#25);
#25 = CARTESIAN_POINT('',(38.830662000012,2.,-8.));
#26 = LINE('',#27,#28);
#27 = CARTESIAN_POINT('',(26.830662000012,2.,-8.));
#28 = VECTOR('',#29,1.);
#29 = DIRECTION('',(1.,0.,0.));
#30 = ORIENTED_EDGE('',*,*,#31,.T.);
#31 = EDGE_CURVE('',#22,#32,#34,.T.);
#32 = VERTEX_POINT('',#33);
#33 = CARTESIAN_POINT('',(28.830662000012,2.,-4.));
#34 = LINE('',#35,#36);
#35 = CARTESIAN_POINT('',(28.830662000012,2.,-8.));
#36 = VECTOR('',#37,1.);
#37 = DIRECTION('',(0.,0.,1.));
#38 = ORIENTED_EDGE('',*,*,#39,.T.);
#39 = EDGE_CURVE('',#32,#40,#42,.T.);
#40 = VERTEX_POINT('',#41);
#41 = CARTESIAN_POINT('',(38.830662000012,2.,-4.));
#42 = LINE('',#43,#44);
#43 = CARTESIAN_POINT('',(26.830662000012,2.,-4.));
#44 = VECTOR('',#45,1.);
#45 = DIRECTION('',(1.,0.,0.));
#46 = ORIENTED_EDGE('',*,*,#47,.F.);
#47 = EDGE_CURVE('',#24,#40,#48,.T.);
#48 = LINE('',#49,#50);
#49 = CARTESIAN_POINT('',(38.830662000012,2.,-8.));
#50 = VECTOR('',#51,1.);
#51 = DIRECTION('',(0.,0.,1.));
#52 = PLANE('',#53);
#53 = AXIS2_PLACEMENT_3D('',#54,#55,#56);
#54 = CARTESIAN_POINT('',(26.830662000012,2.,-8.));
#55 = DIRECTION('',(2.2E-16,1.,0.));
#56 = DIRECTION('',(1.,-2.2E-16,0.));
#57 = ADVANCED_FACE('',(#58),#119,.F.);
#58 = FACE_BOUND('',#59,.F.);
#59 = EDGE_LOOP('',(#60,#70,#79,#87,#96,#104,#111,#112));
#60 = ORIENTED_EDGE('',*,*,#61,.T.);
#61 = EDGE_CURVE('',#62,#64,#66,.T.);
#62 = VERTEX_POINT('',#63);
#63 = CARTESIAN_POINT('',(40.830662000012,4.,-8.));
#64 = VERTEX_POINT('',#65);
#65 = CARTESIAN_POINT('',(40.830662000012,13.999999999999,-8.));
#66 = LINE('',#67,#68);
#67 = CARTESIAN_POINT('',(40.830662000012,2.,-8.));
#68 = VECTOR('',#69,1.);
#69 = DIRECTION('',(0.,1.,0.));
#70 = ORIENTED_EDGE('',*,*,#71,.T.);
#71 = EDGE_CURVE('',#64,#72,#74,.T.);
#72 = VERTEX_POINT('',#73);
#73 = CARTESIAN_POINT('',(38.830662000013,15.999999999999,-8.));
#74 = CIRCLE('',#75,2.);
#75 = AXIS2_PLACEMENT_3D('',#76,#77,#78);
#76 = CARTESIAN_POINT('',(38.830662000012,13.999999999999,-8.));
#77 = DIRECTION('',(-0.,0.,1.));
#78 = DIRECTION('',(0.,-1.,0.));
#79 = ORIENTED_EDGE('',*,*,#80,.T.);
#80 = EDGE_CURVE('',#72,#81,#83,.T.);
#81 = VERTEX_POINT('',#82);
#82 = CARTESIAN_POINT('',(28.830662000013,16.000000000002,-8.));
#83 = LINE('',#84,#85);
#84 = CARTESIAN_POINT('',(40.830662000012,16.,-8.));
#85 = VECTOR('',#86,1.);
#86 = DIRECTION('',(-1.,0.,0.));
#87 = ORIENTED_EDGE('',*,*,#88,.F.);
#88 = EDGE_CURVE('',#89,#81,#91,.T.);
#89 = VERTEX_POINT('',#90);
#90 = CARTESIAN_POINT('',(26.830662000012,14.000000000002,-8.));
#91 = CIRCLE('',#92,2.);
#92 = AXIS2_PLACEMENT_3D('',#93,#94,#95);
#93 = CARTESIAN_POINT('',(28.830662000012,14.000000000002,-8.));
#94 = DIRECTION('',(-0.,-0.,-1.));
#95 = DIRECTION('',(0.,-1.,0.));
#96 = ORIENTED_EDGE('',*,*,#97,.T.);
#97 = EDGE_CURVE('',#89,#98,#100,.T.);
#98 = VERTEX_POINT('',#99);
#99 = CARTESIAN_POINT('',(26.830662000012,4.,-8.));
#100 = LINE('',#101,#102);
#101 = CARTESIAN_POINT('',(26.830662000012,16.,-8.));
#102 = VECTOR('',#103,1.);
#103 = DIRECTION('',(0.,-1.,0.));
#104 = ORIENTED_EDGE('',*,*,#105,.F.);
#105 = EDGE_CURVE('',#22,#98,#106,.T.);
#106 = CIRCLE('',#107,2.);
#107 = AXIS2_PLACEMENT_3D('',#108,#109,#110);
#108 = CARTESIAN_POINT('',(28.830662000012,4.,-8.));
#109 = DIRECTION('',(-0.,-0.,-1.));
#110 = DIRECTION('',(0.,-1.,0.));
#111 = ORIENTED_EDGE('',*,*,#21,.T.);
#112 = ORIENTED_EDGE('',*,*,#113,.T.);
#113 = EDGE_CURVE('',#24,#62,#114,.T.);
#114 = CIRCLE('',#115,2.);
#115 = AXIS2_PLACEMENT_3D('',#116,#117,#118);
#116 = CARTESIAN_POINT('',(38.830662000012,4.,-8.));
#117 = DIRECTION('',(-0.,0.,1.));
#118 = DIRECTION('',(0.,-1.,0.));
#119 = PLANE('',#120);
#120 = AXIS2_PLACEMENT_3D('',#121,#122,#123);
#121 = CARTESIAN_POINT('',(33.830662000012,1.118E-13,-8.));
#122 = DIRECTION('',(0.,0.,1.));
#123 = DIRECTION('',(1.,0.,0.));
#124 = ADVANCED_FACE('',(#125),#144,.T.);
#125 = FACE_BOUND('',#126,.F.);
#126 = EDGE_LOOP('',(#127,#128,#136,#143));
#127 = ORIENTED_EDGE('',*,*,#105,.T.);
#128 = ORIENTED_EDGE('',*,*,#129,.T.);
#129 = EDGE_CURVE('',#98,#130,#132,.T.);
#130 = VERTEX_POINT('',#131);
#131 = CARTESIAN_POINT('',(26.830662000012,4.,-4.));
#132 = LINE('',#133,#134);
#133 = CARTESIAN_POINT('',(26.830662000012,4.,-8.));
#134 = VECTOR('',#135,1.);
#135 = DIRECTION('',(0.,0.,1.));
#136 = ORIENTED_EDGE('',*,*,#137,.F.);
#137 = EDGE_CURVE('',#32,#130,#138,.T.);
#138 = CIRCLE('',#139,2.);
#139 = AXIS2_PLACEMENT_3D('',#140,#141,#142);
#140 = CARTESIAN_POINT('',(28.830662000012,4.,-4.));
#141 = DIRECTION('',(-0.,-0.,-1.));
#142 = DIRECTION('',(0.,-1.,0.));
#143 = ORIENTED_EDGE('',*,*,#31,.F.);
#144 = CYLINDRICAL_SURFACE('',#145,2.);
#145 = AXIS2_PLACEMENT_3D('',#146,#147,#148);
#146 = CARTESIAN_POINT('',(28.830662000012,4.,-8.));
#147 = DIRECTION('',(0.,0.,1.));
#148 = DIRECTION('',(-2.2E-16,-1.,0.));
#149 = ADVANCED_FACE('',(#150),#169,.T.);
#150 = FACE_BOUND('',#151,.T.);
#151 = EDGE_LOOP('',(#152,#153,#161,#168));
#152 = ORIENTED_EDGE('',*,*,#113,.T.);
#153 = ORIENTED_EDGE('',*,*,#154,.T.);
#154 = EDGE_CURVE('',#62,#155,#157,.T.);
#155 = VERTEX_POINT('',#156);
#156 = CARTESIAN_POINT('',(40.830662000012,4.,-4.));
#157 = LINE('',#158,#159);
#158 = CARTESIAN_POINT('',(40.830662000012,4.,-8.));
#159 = VECTOR('',#160,1.);
#160 = DIRECTION('',(0.,0.,1.));
#161 = ORIENTED_EDGE('',*,*,#162,.F.);
#162 = EDGE_CURVE('',#40,#155,#163,.T.);
#163 = CIRCLE('',#164,2.);
#164 = AXIS2_PLACEMENT_3D('',#165,#166,#167);
#165 = CARTESIAN_POINT('',(38.830662000012,4.,-4.));
#166 = DIRECTION('',(-0.,0.,1.));
#167 = DIRECTION('',(0.,-1.,0.));
#168 = ORIENTED_EDGE('',*,*,#47,.F.);
#169 = CYLINDRICAL_SURFACE('',#170,2.);
#170 = AXIS2_PLACEMENT_3D('',#171,#172,#173);
#171 = CARTESIAN_POINT('',(38.830662000012,4.,-8.));
#172 = DIRECTION('',(0.,0.,1.));
#173 = DIRECTION('',(-2.2E-16,-1.,0.));
#174 = ADVANCED_FACE('',(#175),#202,.T.);
#175 = FACE_BOUND('',#176,.T.);
#176 = EDGE_LOOP('',(#177,#178,#179,#187,#195,#201));
#177 = ORIENTED_EDGE('',*,*,#39,.T.);
#178 = ORIENTED_EDGE('',*,*,#162,.T.);
#179 = ORIENTED_EDGE('',*,*,#180,.T.);
#180 = EDGE_CURVE('',#155,#181,#183,.T.);
#181 = VERTEX_POINT('',#182);
#182 = CARTESIAN_POINT('',(40.830662000012,12.,-4.));
#183 = LINE('',#184,#185);
#184 = CARTESIAN_POINT('',(40.830662000012,2.,-4.));
#185 = VECTOR('',#186,1.);
#186 = DIRECTION('',(0.,1.,0.));
#187 = ORIENTED_EDGE('',*,*,#188,.T.);
#188 = EDGE_CURVE('',#181,#189,#191,.T.);
#189 = VERTEX_POINT('',#190);
#190 = CARTESIAN_POINT('',(26.830662000012,12.,-4.));
#191 = LINE('',#192,#193);
#192 = CARTESIAN_POINT('',(40.830662000012,12.,-4.));
#193 = VECTOR('',#194,1.);
#194 = DIRECTION('',(-1.,0.,0.));
#195 = ORIENTED_EDGE('',*,*,#196,.T.);
#196 = EDGE_CURVE('',#189,#130,#197,.T.);
#197 = LINE('',#198,#199);
#198 = CARTESIAN_POINT('',(26.830662000012,16.,-4.));
#199 = VECTOR('',#200,1.);
#200 = DIRECTION('',(0.,-1.,0.));
#201 = ORIENTED_EDGE('',*,*,#137,.F.);
#202 = PLANE('',#203);
#203 = AXIS2_PLACEMENT_3D('',#204,#205,#206);
#204 = CARTESIAN_POINT('',(33.830662000012,1.118E-13,-4.));
#205 = DIRECTION('',(0.,0.,1.));
#206 = DIRECTION('',(1.,0.,0.));
#207 = ADVANCED_FACE('',(#208),#283,.T.);
#208 = FACE_BOUND('',#209,.T.);
#209 = EDGE_LOOP('',(#210,#220,#228,#236,#244,#252,#258,#259,#260,#261,
    #269,#277));
#210 = ORIENTED_EDGE('',*,*,#211,.T.);
#211 = EDGE_CURVE('',#212,#214,#216,.T.);
#212 = VERTEX_POINT('',#213);
#213 = CARTESIAN_POINT('',(40.830662000012,-13.99999999997,-8.));
#214 = VERTEX_POINT('',#215);
#215 = CARTESIAN_POINT('',(40.830662000012,-4.,-8.));
#216 = LINE('',#217,#218);
#217 = CARTESIAN_POINT('',(40.830662000012,-16.,-8.));
#218 = VECTOR('',#219,1.);
#219 = DIRECTION('',(0.,1.,0.));
#220 = ORIENTED_EDGE('',*,*,#221,.T.);
#221 = EDGE_CURVE('',#214,#222,#224,.T.);
#222 = VERTEX_POINT('',#223);
#223 = CARTESIAN_POINT('',(40.830662000012,-4.,-4.));
#224 = LINE('',#225,#226);
#225 = CARTESIAN_POINT('',(40.830662000012,-4.,-8.));
#226 = VECTOR('',#227,1.);
#227 = DIRECTION('',(0.,0.,1.));
#228 = ORIENTED_EDGE('',*,*,#229,.F.);
#229 = EDGE_CURVE('',#230,#222,#232,.T.);
#230 = VERTEX_POINT('',#231);
#231 = CARTESIAN_POINT('',(40.830662000012,-12.,-4.));
#232 = LINE('',#233,#234);
#233 = CARTESIAN_POINT('',(40.830662000012,-16.,-4.));
#234 = VECTOR('',#235,1.);
#235 = DIRECTION('',(0.,1.,0.));
#236 = ORIENTED_EDGE('',*,*,#237,.T.);
#237 = EDGE_CURVE('',#230,#238,#240,.T.);
#238 = VERTEX_POINT('',#239);
#239 = CARTESIAN_POINT('',(40.830662000012,-12.,30.4));
#240 = LINE('',#241,#242);
#241 = CARTESIAN_POINT('',(40.830662000012,-12.,-4.));
#242 = VECTOR('',#243,1.);
#243 = DIRECTION('',(0.,0.,1.));
#244 = ORIENTED_EDGE('',*,*,#245,.F.);
#245 = EDGE_CURVE('',#246,#238,#248,.T.);
#246 = VERTEX_POINT('',#247);
#247 = CARTESIAN_POINT('',(40.830662000012,12.,30.4));
#248 = LINE('',#249,#250);
#249 = CARTESIAN_POINT('',(40.830662000012,12.,30.4));
#250 = VECTOR('',#251,1.);
#251 = DIRECTION('',(0.,-1.,2.22044604925E-16));
#252 = ORIENTED_EDGE('',*,*,#253,.F.);
#253 = EDGE_CURVE('',#181,#246,#254,.T.);
#254 = LINE('',#255,#256);
#255 = CARTESIAN_POINT('',(40.830662000012,12.,-4.));
#256 = VECTOR('',#257,1.);
#257 = DIRECTION('',(0.,0.,1.));
#258 = ORIENTED_EDGE('',*,*,#180,.F.);
#259 = ORIENTED_EDGE('',*,*,#154,.F.);
#260 = ORIENTED_EDGE('',*,*,#61,.T.);
#261 = ORIENTED_EDGE('',*,*,#262,.T.);
#262 = EDGE_CURVE('',#64,#263,#265,.T.);
#263 = VERTEX_POINT('',#264);
#264 = CARTESIAN_POINT('',(40.830662000012,13.999999999999,34.4));
#265 = LINE('',#266,#267);
#266 = CARTESIAN_POINT('',(40.830662000012,13.999999999999,-8.));
#267 = VECTOR('',#268,1.);
#268 = DIRECTION('',(0.,0.,1.));
#269 = ORIENTED_EDGE('',*,*,#270,.T.);
#270 = EDGE_CURVE('',#263,#271,#273,.T.);
#271 = VERTEX_POINT('',#272);
#272 = CARTESIAN_POINT('',(40.830662000012,-13.99999999997,34.4));
#273 = LINE('',#274,#275);
#274 = CARTESIAN_POINT('',(40.830662000012,8.868099830365,34.4));
#275 = VECTOR('',#276,1.);
#276 = DIRECTION('',(0.,-1.,0.));
#277 = ORIENTED_EDGE('',*,*,#278,.F.);
#278 = EDGE_CURVE('',#212,#271,#279,.T.);
#279 = LINE('',#280,#281);
#280 = CARTESIAN_POINT('',(40.830662000012,-13.99999999997,-8.));
#281 = VECTOR('',#282,1.);
#282 = DIRECTION('',(0.,0.,1.));
#283 = PLANE('',#284);
#284 = AXIS2_PLACEMENT_3D('',#285,#286,#287);
#285 = CARTESIAN_POINT('',(40.830662000012,6.05716280346E-12,
    13.199999999994));
#286 = DIRECTION('',(1.,-1.125193381735E-15,6.675673585149E-16));
#287 = DIRECTION('',(1.125193381735E-15,1.,0.));
#288 = ADVANCED_FACE('',(#289),#308,.T.);
#289 = FACE_BOUND('',#290,.T.);
#290 = EDGE_LOOP('',(#291,#292,#300,#307));
#291 = ORIENTED_EDGE('',*,*,#71,.T.);
#292 = ORIENTED_EDGE('',*,*,#293,.T.);
#293 = EDGE_CURVE('',#72,#294,#296,.T.);
#294 = VERTEX_POINT('',#295);
#295 = CARTESIAN_POINT('',(38.830662000013,15.999999999999,34.4));
#296 = LINE('',#297,#298);
#297 = CARTESIAN_POINT('',(38.830662000013,15.999999999999,-8.));
#298 = VECTOR('',#299,1.);
#299 = DIRECTION('',(0.,0.,1.));
#300 = ORIENTED_EDGE('',*,*,#301,.F.);
#301 = EDGE_CURVE('',#263,#294,#302,.T.);
#302 = CIRCLE('',#303,2.);
#303 = AXIS2_PLACEMENT_3D('',#304,#305,#306);
#304 = CARTESIAN_POINT('',(38.830662000012,13.999999999999,34.4));
#305 = DIRECTION('',(-0.,0.,1.));
#306 = DIRECTION('',(0.,-1.,0.));
#307 = ORIENTED_EDGE('',*,*,#262,.F.);
#308 = CYLINDRICAL_SURFACE('',#309,2.);
#309 = AXIS2_PLACEMENT_3D('',#310,#311,#312);
#310 = CARTESIAN_POINT('',(38.830662000012,13.999999999999,-8.));
#311 = DIRECTION('',(0.,0.,1.));
#312 = DIRECTION('',(1.,-1.125193381735E-15,0.));
#313 = ADVANCED_FACE('',(#314),#364,.T.);
#314 = FACE_BOUND('',#315,.T.);
#315 = EDGE_LOOP('',(#316,#317,#325,#333,#341,#349,#357,#363));
#316 = ORIENTED_EDGE('',*,*,#80,.T.);
#317 = ORIENTED_EDGE('',*,*,#318,.T.);
#318 = EDGE_CURVE('',#81,#319,#321,.T.);
#319 = VERTEX_POINT('',#320);
#320 = CARTESIAN_POINT('',(28.830662000013,16.000000000002,30.4));
#321 = LINE('',#322,#323);
#322 = CARTESIAN_POINT('',(28.830662000013,16.000000000002,-8.));
#323 = VECTOR('',#324,1.);
#324 = DIRECTION('',(0.,0.,1.));
#325 = ORIENTED_EDGE('',*,*,#326,.F.);
#326 = EDGE_CURVE('',#327,#319,#329,.T.);
#327 = VERTEX_POINT('',#328);
#328 = CARTESIAN_POINT('',(26.830662000012,16.,30.4));
#329 = LINE('',#330,#331);
#330 = CARTESIAN_POINT('',(30.142672008355,15.999999999997,30.4));
#331 = VECTOR('',#332,1.);
#332 = DIRECTION('',(1.,-3.228466578894E-13,0.));
#333 = ORIENTED_EDGE('',*,*,#334,.T.);
#334 = EDGE_CURVE('',#327,#335,#337,.T.);
#335 = VERTEX_POINT('',#336);
#336 = CARTESIAN_POINT('',(19.830662000013,16.,30.4));
#337 = LINE('',#338,#339);
#338 = CARTESIAN_POINT('',(26.830662000012,16.,30.4));
#339 = VECTOR('',#340,1.);
#340 = DIRECTION('',(-1.,0.,0.));
#341 = ORIENTED_EDGE('',*,*,#342,.F.);
#342 = EDGE_CURVE('',#343,#335,#345,.T.);
#343 = VERTEX_POINT('',#344);
#344 = CARTESIAN_POINT('',(19.830662000013,16.,34.4));
#345 = LINE('',#346,#347);
#346 = CARTESIAN_POINT('',(19.830662000013,16.,34.4));
#347 = VECTOR('',#348,1.);
#348 = DIRECTION('',(0.,0.,-1.));
#349 = ORIENTED_EDGE('',*,*,#350,.F.);
#350 = EDGE_CURVE('',#351,#343,#353,.T.);
#351 = VERTEX_POINT('',#352);
#352 = CARTESIAN_POINT('',(26.830662000012,16.,34.4));
#353 = LINE('',#354,#355);
#354 = CARTESIAN_POINT('',(26.830662000012,16.,34.4));
#355 = VECTOR('',#356,1.);
#356 = DIRECTION('',(-1.,0.,0.));
#357 = ORIENTED_EDGE('',*,*,#358,.T.);
#358 = EDGE_CURVE('',#351,#294,#359,.T.);
#359 = LINE('',#360,#361);
#360 = CARTESIAN_POINT('',(13.022769016542,16.000000000037,34.4));
#361 = VECTOR('',#362,1.);
#362 = DIRECTION('',(1.,-2.69385E-12,0.));
#363 = ORIENTED_EDGE('',*,*,#293,.F.);
#364 = PLANE('',#365);
#365 = AXIS2_PLACEMENT_3D('',#366,#367,#368);
#366 = CARTESIAN_POINT('',(31.972863834875,15.999999999998,
    15.842201834862));
#367 = DIRECTION('',(3.228466578894E-13,1.,1.176463407986E-13));
#368 = DIRECTION('',(1.,-3.228466578894E-13,0.));
#369 = ADVANCED_FACE('',(#370),#389,.T.);
#370 = FACE_BOUND('',#371,.F.);
#371 = EDGE_LOOP('',(#372,#373,#374,#383));
#372 = ORIENTED_EDGE('',*,*,#88,.T.);
#373 = ORIENTED_EDGE('',*,*,#318,.T.);
#374 = ORIENTED_EDGE('',*,*,#375,.F.);
#375 = EDGE_CURVE('',#376,#319,#378,.T.);
#376 = VERTEX_POINT('',#377);
#377 = CARTESIAN_POINT('',(26.830662000012,14.000000000002,30.4));
#378 = CIRCLE('',#379,2.);
#379 = AXIS2_PLACEMENT_3D('',#380,#381,#382);
#380 = CARTESIAN_POINT('',(28.830662000012,14.000000000002,30.4));
#381 = DIRECTION('',(-0.,-0.,-1.));
#382 = DIRECTION('',(0.,-1.,0.));
#383 = ORIENTED_EDGE('',*,*,#384,.F.);
#384 = EDGE_CURVE('',#89,#376,#385,.T.);
#385 = LINE('',#386,#387);
#386 = CARTESIAN_POINT('',(26.830662000012,14.000000000002,-8.));
#387 = VECTOR('',#388,1.);
#388 = DIRECTION('',(0.,0.,1.));
#389 = CYLINDRICAL_SURFACE('',#390,2.);
#390 = AXIS2_PLACEMENT_3D('',#391,#392,#393);
#391 = CARTESIAN_POINT('',(28.830662000012,14.000000000002,-8.));
#392 = DIRECTION('',(0.,0.,1.));
#393 = DIRECTION('',(-1.,7.539159716621E-16,0.));
#394 = ADVANCED_FACE('',(#395),#415,.T.);
#395 = FACE_BOUND('',#396,.T.);
#396 = EDGE_LOOP('',(#397,#398,#406,#412,#413,#414));
#397 = ORIENTED_EDGE('',*,*,#196,.F.);
#398 = ORIENTED_EDGE('',*,*,#399,.T.);
#399 = EDGE_CURVE('',#189,#400,#402,.T.);
#400 = VERTEX_POINT('',#401);
#401 = CARTESIAN_POINT('',(26.830662000012,12.,30.4));
#402 = LINE('',#403,#404);
#403 = CARTESIAN_POINT('',(26.830662000012,12.,-4.));
#404 = VECTOR('',#405,1.);
#405 = DIRECTION('',(0.,0.,1.));
#406 = ORIENTED_EDGE('',*,*,#407,.F.);
#407 = EDGE_CURVE('',#376,#400,#408,.T.);
#408 = LINE('',#409,#410);
#409 = CARTESIAN_POINT('',(26.830662000012,16.,30.4));
#410 = VECTOR('',#411,1.);
#411 = DIRECTION('',(0.,-1.,0.));
#412 = ORIENTED_EDGE('',*,*,#384,.F.);
#413 = ORIENTED_EDGE('',*,*,#97,.T.);
#414 = ORIENTED_EDGE('',*,*,#129,.T.);
#415 = PLANE('',#416);
#416 = AXIS2_PLACEMENT_3D('',#417,#418,#419);
#417 = CARTESIAN_POINT('',(26.830662000012,4.042281904117E-14,13.2));
#418 = DIRECTION('',(-1.,7.539159716621E-16,-7.159872878097E-16));
#419 = DIRECTION('',(-7.539159716621E-16,-1.,0.));
#420 = ADVANCED_FACE('',(#421),#432,.T.);
#421 = FACE_BOUND('',#422,.T.);
#422 = EDGE_LOOP('',(#423,#424,#425,#431));
#423 = ORIENTED_EDGE('',*,*,#188,.F.);
#424 = ORIENTED_EDGE('',*,*,#253,.T.);
#425 = ORIENTED_EDGE('',*,*,#426,.F.);
#426 = EDGE_CURVE('',#400,#246,#427,.T.);
#427 = LINE('',#428,#429);
#428 = CARTESIAN_POINT('',(26.830662000012,12.,30.4));
#429 = VECTOR('',#430,1.);
#430 = DIRECTION('',(1.,0.,0.));
#431 = ORIENTED_EDGE('',*,*,#399,.F.);
#432 = PLANE('',#433);
#433 = AXIS2_PLACEMENT_3D('',#434,#435,#436);
#434 = CARTESIAN_POINT('',(40.830662000012,12.,-4.));
#435 = DIRECTION('',(0.,-1.,0.));
#436 = DIRECTION('',(-1.,0.,0.));
#437 = ADVANCED_FACE('',(#438),#499,.F.);
#438 = FACE_BOUND('',#439,.F.);
#439 = EDGE_LOOP('',(#440,#441,#450,#458,#467,#475,#484,#492));
#440 = ORIENTED_EDGE('',*,*,#211,.T.);
#441 = ORIENTED_EDGE('',*,*,#442,.T.);
#442 = EDGE_CURVE('',#214,#443,#445,.T.);
#443 = VERTEX_POINT('',#444);
#444 = CARTESIAN_POINT('',(38.830662000012,-2.,-8.));
#445 = CIRCLE('',#446,2.);
#446 = AXIS2_PLACEMENT_3D('',#447,#448,#449);
#447 = CARTESIAN_POINT('',(38.830662000012,-4.,-8.));
#448 = DIRECTION('',(-0.,0.,1.));
#449 = DIRECTION('',(0.,-1.,0.));
#450 = ORIENTED_EDGE('',*,*,#451,.T.);
#451 = EDGE_CURVE('',#443,#452,#454,.T.);
#452 = VERTEX_POINT('',#453);
#453 = CARTESIAN_POINT('',(28.830662000012,-2.,-8.));
#454 = LINE('',#455,#456);
#455 = CARTESIAN_POINT('',(40.830662000012,-2.,-8.));
#456 = VECTOR('',#457,1.);
#457 = DIRECTION('',(-1.,0.,0.));
#458 = ORIENTED_EDGE('',*,*,#459,.T.);
#459 = EDGE_CURVE('',#452,#460,#462,.T.);
#460 = VERTEX_POINT('',#461);
#461 = CARTESIAN_POINT('',(26.830662000012,-4.,-8.));
#462 = CIRCLE('',#463,2.);
#463 = AXIS2_PLACEMENT_3D('',#464,#465,#466);
#464 = CARTESIAN_POINT('',(28.830662000012,-4.,-8.));
#465 = DIRECTION('',(-0.,0.,1.));
#466 = DIRECTION('',(0.,-1.,0.));
#467 = ORIENTED_EDGE('',*,*,#468,.T.);
#468 = EDGE_CURVE('',#460,#469,#471,.T.);
#469 = VERTEX_POINT('',#470);
#470 = CARTESIAN_POINT('',(26.830662000012,-13.99999999999,-8.));
#471 = LINE('',#472,#473);
#472 = CARTESIAN_POINT('',(26.830662000012,-2.,-8.));
#473 = VECTOR('',#474,1.);
#474 = DIRECTION('',(0.,-1.,0.));
#475 = ORIENTED_EDGE('',*,*,#476,.F.);
#476 = EDGE_CURVE('',#477,#469,#479,.T.);
#477 = VERTEX_POINT('',#478);
#478 = CARTESIAN_POINT('',(28.830662000016,-15.99999999999,-8.));
#479 = CIRCLE('',#480,2.);
#480 = AXIS2_PLACEMENT_3D('',#481,#482,#483);
#481 = CARTESIAN_POINT('',(28.830662000012,-13.99999999999,-8.));
#482 = DIRECTION('',(-0.,-0.,-1.));
#483 = DIRECTION('',(0.,-1.,0.));
#484 = ORIENTED_EDGE('',*,*,#485,.T.);
#485 = EDGE_CURVE('',#477,#486,#488,.T.);
#486 = VERTEX_POINT('',#487);
#487 = CARTESIAN_POINT('',(38.830662000016,-15.99999999997,-8.));
#488 = LINE('',#489,#490);
#489 = CARTESIAN_POINT('',(26.830662000012,-16.,-8.));
#490 = VECTOR('',#491,1.);
#491 = DIRECTION('',(1.,0.,0.));
#492 = ORIENTED_EDGE('',*,*,#493,.F.);
#493 = EDGE_CURVE('',#212,#486,#494,.T.);
#494 = CIRCLE('',#495,2.);
#495 = AXIS2_PLACEMENT_3D('',#496,#497,#498);
#496 = CARTESIAN_POINT('',(38.830662000012,-13.99999999997,-8.));
#497 = DIRECTION('',(-0.,-0.,-1.));
#498 = DIRECTION('',(0.,-1.,0.));
#499 = PLANE('',#500);
#500 = AXIS2_PLACEMENT_3D('',#501,#502,#503);
#501 = CARTESIAN_POINT('',(33.830662000012,1.118E-13,-8.));
#502 = DIRECTION('',(0.,0.,1.));
#503 = DIRECTION('',(1.,0.,0.));
#504 = ADVANCED_FACE('',(#505),#524,.T.);
#505 = FACE_BOUND('',#506,.F.);
#506 = EDGE_LOOP('',(#507,#508,#516,#523));
#507 = ORIENTED_EDGE('',*,*,#493,.T.);
#508 = ORIENTED_EDGE('',*,*,#509,.T.);
#509 = EDGE_CURVE('',#486,#510,#512,.T.);
#510 = VERTEX_POINT('',#511);
#511 = CARTESIAN_POINT('',(38.830662000016,-15.99999999997,34.4));
#512 = LINE('',#513,#514);
#513 = CARTESIAN_POINT('',(38.830662000016,-15.99999999997,-8.));
#514 = VECTOR('',#515,1.);
#515 = DIRECTION('',(0.,0.,1.));
#516 = ORIENTED_EDGE('',*,*,#517,.F.);
#517 = EDGE_CURVE('',#271,#510,#518,.T.);
#518 = CIRCLE('',#519,2.);
#519 = AXIS2_PLACEMENT_3D('',#520,#521,#522);
#520 = CARTESIAN_POINT('',(38.830662000012,-13.99999999997,34.4));
#521 = DIRECTION('',(-0.,-0.,-1.));
#522 = DIRECTION('',(0.,-1.,0.));
#523 = ORIENTED_EDGE('',*,*,#278,.F.);
#524 = CYLINDRICAL_SURFACE('',#525,2.);
#525 = AXIS2_PLACEMENT_3D('',#526,#527,#528);
#526 = CARTESIAN_POINT('',(38.830662000012,-13.99999999997,-8.));
#527 = DIRECTION('',(0.,0.,1.));
#528 = DIRECTION('',(1.,-1.125193381735E-15,0.));
#529 = ADVANCED_FACE('',(#530),#549,.T.);
#530 = FACE_BOUND('',#531,.T.);
#531 = EDGE_LOOP('',(#532,#533,#541,#548));
#532 = ORIENTED_EDGE('',*,*,#442,.T.);
#533 = ORIENTED_EDGE('',*,*,#534,.T.);
#534 = EDGE_CURVE('',#443,#535,#537,.T.);
#535 = VERTEX_POINT('',#536);
#536 = CARTESIAN_POINT('',(38.830662000012,-2.,-4.));
#537 = LINE('',#538,#539);
#538 = CARTESIAN_POINT('',(38.830662000012,-2.,-8.));
#539 = VECTOR('',#540,1.);
#540 = DIRECTION('',(0.,0.,1.));
#541 = ORIENTED_EDGE('',*,*,#542,.F.);
#542 = EDGE_CURVE('',#222,#535,#543,.T.);
#543 = CIRCLE('',#544,2.);
#544 = AXIS2_PLACEMENT_3D('',#545,#546,#547);
#545 = CARTESIAN_POINT('',(38.830662000012,-4.,-4.));
#546 = DIRECTION('',(-0.,0.,1.));
#547 = DIRECTION('',(0.,-1.,0.));
#548 = ORIENTED_EDGE('',*,*,#221,.F.);
#549 = CYLINDRICAL_SURFACE('',#550,2.);
#550 = AXIS2_PLACEMENT_3D('',#551,#552,#553);
#551 = CARTESIAN_POINT('',(38.830662000012,-4.,-8.));
#552 = DIRECTION('',(0.,0.,1.));
#553 = DIRECTION('',(1.,-1.125193381735E-15,0.));
#554 = ADVANCED_FACE('',(#555,#602,#636,#670),#704,.T.);
#555 = FACE_BOUND('',#556,.T.);
#556 = EDGE_LOOP('',(#557,#565,#566,#567,#568,#569,#570,#579,#587,#596)
  );
#557 = ORIENTED_EDGE('',*,*,#558,.T.);
#558 = EDGE_CURVE('',#559,#510,#561,.T.);
#559 = VERTEX_POINT('',#560);
#560 = CARTESIAN_POINT('',(26.830662000012,-16.,34.4));
#561 = LINE('',#562,#563);
#562 = CARTESIAN_POINT('',(13.022769016547,-16.00000000003,34.4));
#563 = VECTOR('',#564,1.);
#564 = DIRECTION('',(1.,2.69232E-12,0.));
#565 = ORIENTED_EDGE('',*,*,#517,.F.);
#566 = ORIENTED_EDGE('',*,*,#270,.F.);
#567 = ORIENTED_EDGE('',*,*,#301,.T.);
#568 = ORIENTED_EDGE('',*,*,#358,.F.);
#569 = ORIENTED_EDGE('',*,*,#350,.T.);
#570 = ORIENTED_EDGE('',*,*,#571,.T.);
#571 = EDGE_CURVE('',#343,#572,#574,.T.);
#572 = VERTEX_POINT('',#573);
#573 = CARTESIAN_POINT('',(17.830662000012,14.,34.4));
#574 = CIRCLE('',#575,2.);
#575 = AXIS2_PLACEMENT_3D('',#576,#577,#578);
#576 = CARTESIAN_POINT('',(19.830662000012,14.,34.4));
#577 = DIRECTION('',(0.,-0.,1.));
#578 = DIRECTION('',(0.,1.,0.));
#579 = ORIENTED_EDGE('',*,*,#580,.F.);
#580 = EDGE_CURVE('',#581,#572,#583,.T.);
#581 = VERTEX_POINT('',#582);
#582 = CARTESIAN_POINT('',(17.830662000012,-14.,34.4));
#583 = LINE('',#584,#585);
#584 = CARTESIAN_POINT('',(17.830662000012,-16.,34.4));
#585 = VECTOR('',#586,1.);
#586 = DIRECTION('',(0.,1.,0.));
#587 = ORIENTED_EDGE('',*,*,#588,.F.);
#588 = EDGE_CURVE('',#589,#581,#591,.T.);
#589 = VERTEX_POINT('',#590);
#590 = CARTESIAN_POINT('',(19.830662000016,-16.,34.4));
#591 = CIRCLE('',#592,2.);
#592 = AXIS2_PLACEMENT_3D('',#593,#594,#595);
#593 = CARTESIAN_POINT('',(19.830662000012,-14.,34.4));
#594 = DIRECTION('',(-0.,-0.,-1.));
#595 = DIRECTION('',(0.,-1.,0.));
#596 = ORIENTED_EDGE('',*,*,#597,.F.);
#597 = EDGE_CURVE('',#559,#589,#598,.T.);
#598 = LINE('',#599,#600);
#599 = CARTESIAN_POINT('',(26.830662000012,-16.,34.4));
#600 = VECTOR('',#601,1.);
#601 = DIRECTION('',(-1.,0.,0.));
#602 = FACE_BOUND('',#603,.T.);
#603 = EDGE_LOOP('',(#604,#614,#622,#630));
#604 = ORIENTED_EDGE('',*,*,#605,.F.);
#605 = EDGE_CURVE('',#606,#608,#610,.T.);
#606 = VERTEX_POINT('',#607);
#607 = CARTESIAN_POINT('',(27.841177401145,-6.413268183179,34.4));
#608 = VERTEX_POINT('',#609);
#609 = CARTESIAN_POINT('',(26.980941243869,-9.413268183179,34.4));
#610 = LINE('',#611,#612);
#611 = CARTESIAN_POINT('',(27.841177401145,-6.413268183179,34.4));
#612 = VECTOR('',#613,1.);
#613 = DIRECTION('',(-0.275637355817,-0.961261695938,0.));
#614 = ORIENTED_EDGE('',*,*,#615,.F.);
#615 = EDGE_CURVE('',#616,#606,#618,.T.);
#616 = VERTEX_POINT('',#617);
#617 = CARTESIAN_POINT('',(32.647485880853,-7.791454962274,34.4));
#618 = LINE('',#619,#620);
#619 = CARTESIAN_POINT('',(32.647485880853,-7.791454962274,34.4));
#620 = VECTOR('',#621,1.);
#621 = DIRECTION('',(-0.961261695938,0.275637355818,0.));
#622 = ORIENTED_EDGE('',*,*,#623,.F.);
#623 = EDGE_CURVE('',#624,#616,#626,.T.);
#624 = VERTEX_POINT('',#625);
#625 = CARTESIAN_POINT('',(31.787249723575,-10.79145496227,34.4));
#626 = LINE('',#627,#628);
#627 = CARTESIAN_POINT('',(31.787249723572,-10.79145496227,34.4));
#628 = VECTOR('',#629,1.);
#629 = DIRECTION('',(0.275637355818,0.961261695938,0.));
#630 = ORIENTED_EDGE('',*,*,#631,.F.);
#631 = EDGE_CURVE('',#608,#624,#632,.T.);
#632 = LINE('',#633,#634);
#633 = CARTESIAN_POINT('',(26.980941243869,-9.413268183179,34.4));
#634 = VECTOR('',#635,1.);
#635 = DIRECTION('',(0.961261695938,-0.275637355818,0.));
#636 = FACE_BOUND('',#637,.T.);
#637 = EDGE_LOOP('',(#638,#648,#656,#664));
#638 = ORIENTED_EDGE('',*,*,#639,.F.);
#639 = EDGE_CURVE('',#640,#642,#644,.T.);
#640 = VERTEX_POINT('',#641);
#641 = CARTESIAN_POINT('',(27.314213562365,1.560449153826,34.4));
#642 = VERTEX_POINT('',#643);
#643 = CARTESIAN_POINT('',(27.314213562365,-1.560449153759,34.4));
#644 = LINE('',#645,#646);
#645 = CARTESIAN_POINT('',(27.314213562365,1.560449153826,34.4));
#646 = VECTOR('',#647,1.);
#647 = DIRECTION('',(0.,-1.,0.));
#648 = ORIENTED_EDGE('',*,*,#649,.F.);
#649 = EDGE_CURVE('',#650,#640,#652,.T.);
#650 = VERTEX_POINT('',#651);
#651 = CARTESIAN_POINT('',(32.314213562349,1.560449153826,34.4));
#652 = LINE('',#653,#654);
#653 = CARTESIAN_POINT('',(32.314213562349,1.560449153826,34.4));
#654 = VECTOR('',#655,1.);
#655 = DIRECTION('',(-1.,0.,0.));
#656 = ORIENTED_EDGE('',*,*,#657,.F.);
#657 = EDGE_CURVE('',#658,#650,#660,.T.);
#658 = VERTEX_POINT('',#659);
#659 = CARTESIAN_POINT('',(32.314213562349,-1.560449153759,34.4));
#660 = LINE('',#661,#662);
#661 = CARTESIAN_POINT('',(32.314213562349,-1.560449153759,34.4));
#662 = VECTOR('',#663,1.);
#663 = DIRECTION('',(0.,1.,0.));
#664 = ORIENTED_EDGE('',*,*,#665,.F.);
#665 = EDGE_CURVE('',#642,#658,#666,.T.);
#666 = LINE('',#667,#668);
#667 = CARTESIAN_POINT('',(27.314213562365,-1.560449153759,34.4));
#668 = VECTOR('',#669,1.);
#669 = DIRECTION('',(1.,0.,0.));
#670 = FACE_BOUND('',#671,.T.);
#671 = EDGE_LOOP('',(#672,#682,#690,#698));
#672 = ORIENTED_EDGE('',*,*,#673,.T.);
#673 = EDGE_CURVE('',#674,#676,#678,.T.);
#674 = VERTEX_POINT('',#675);
#675 = CARTESIAN_POINT('',(27.841177401164,6.413268183224,34.4));
#676 = VERTEX_POINT('',#677);
#677 = CARTESIAN_POINT('',(26.980941243888,9.413268183224,34.4));
#678 = LINE('',#679,#680);
#679 = CARTESIAN_POINT('',(27.841177401164,6.413268183224,34.4));
#680 = VECTOR('',#681,1.);
#681 = DIRECTION('',(-0.275637355817,0.961261695938,0.));
#682 = ORIENTED_EDGE('',*,*,#683,.T.);
#683 = EDGE_CURVE('',#676,#684,#686,.T.);
#684 = VERTEX_POINT('',#685);
#685 = CARTESIAN_POINT('',(31.78724972358,10.791454962313,34.4));
#686 = LINE('',#687,#688);
#687 = CARTESIAN_POINT('',(26.980941243888,9.413268183224,34.4));
#688 = VECTOR('',#689,1.);
#689 = DIRECTION('',(0.961261695938,0.275637355818,0.));
#690 = ORIENTED_EDGE('',*,*,#691,.T.);
#691 = EDGE_CURVE('',#684,#692,#694,.T.);
#692 = VERTEX_POINT('',#693);
#693 = CARTESIAN_POINT('',(32.64748588086,7.791454962313,34.4));
#694 = LINE('',#695,#696);
#695 = CARTESIAN_POINT('',(31.78724972358,10.791454962313,34.4));
#696 = VECTOR('',#697,1.);
#697 = DIRECTION('',(0.275637355818,-0.961261695938,0.));
#698 = ORIENTED_EDGE('',*,*,#699,.T.);
#699 = EDGE_CURVE('',#692,#674,#700,.T.);
#700 = LINE('',#701,#702);
#701 = CARTESIAN_POINT('',(32.64748588086,7.791454962313,34.4));
#702 = VECTOR('',#703,1.);
#703 = DIRECTION('',(-0.961261695938,-0.275637355818,0.));
#704 = PLANE('',#705);
#705 = AXIS2_PLACEMENT_3D('',#706,#707,#708);
#706 = CARTESIAN_POINT('',(29.330662000004,9.301650359048E-15,34.4));
#707 = DIRECTION('',(0.,0.,1.));
#708 = DIRECTION('',(1.,0.,0.));
#709 = ADVANCED_FACE('',(#710),#745,.T.);
#710 = FACE_BOUND('',#711,.T.);
#711 = EDGE_LOOP('',(#712,#722,#728,#729,#730,#738));
#712 = ORIENTED_EDGE('',*,*,#713,.T.);
#713 = EDGE_CURVE('',#714,#716,#718,.T.);
#714 = VERTEX_POINT('',#715);
#715 = CARTESIAN_POINT('',(26.830662000012,-4.,-4.));
#716 = VERTEX_POINT('',#717);
#717 = CARTESIAN_POINT('',(26.830662000012,-12.,-4.));
#718 = LINE('',#719,#720);
#719 = CARTESIAN_POINT('',(26.830662000012,-2.,-4.));
#720 = VECTOR('',#721,1.);
#721 = DIRECTION('',(0.,-1.,0.));
#722 = ORIENTED_EDGE('',*,*,#723,.F.);
#723 = EDGE_CURVE('',#230,#716,#724,.T.);
#724 = LINE('',#725,#726);
#725 = CARTESIAN_POINT('',(40.830662000012,-12.,-4.));
#726 = VECTOR('',#727,1.);
#727 = DIRECTION('',(-1.,0.,0.));
#728 = ORIENTED_EDGE('',*,*,#229,.T.);
#729 = ORIENTED_EDGE('',*,*,#542,.T.);
#730 = ORIENTED_EDGE('',*,*,#731,.T.);
#731 = EDGE_CURVE('',#535,#732,#734,.T.);
#732 = VERTEX_POINT('',#733);
#733 = CARTESIAN_POINT('',(28.830662000012,-2.,-4.));
#734 = LINE('',#735,#736);
#735 = CARTESIAN_POINT('',(40.830662000012,-2.,-4.));
#736 = VECTOR('',#737,1.);
#737 = DIRECTION('',(-1.,0.,0.));
#738 = ORIENTED_EDGE('',*,*,#739,.T.);
#739 = EDGE_CURVE('',#732,#714,#740,.T.);
#740 = CIRCLE('',#741,2.);
#741 = AXIS2_PLACEMENT_3D('',#742,#743,#744);
#742 = CARTESIAN_POINT('',(28.830662000012,-4.,-4.));
#743 = DIRECTION('',(-0.,0.,1.));
#744 = DIRECTION('',(0.,-1.,0.));
#745 = PLANE('',#746);
#746 = AXIS2_PLACEMENT_3D('',#747,#748,#749);
#747 = CARTESIAN_POINT('',(33.830662000012,1.118E-13,-4.));
#748 = DIRECTION('',(0.,0.,1.));
#749 = DIRECTION('',(1.,0.,0.));
#750 = ADVANCED_FACE('',(#751),#769,.F.);
#751 = FACE_BOUND('',#752,.F.);
#752 = EDGE_LOOP('',(#753,#754,#755,#763));
#753 = ORIENTED_EDGE('',*,*,#723,.F.);
#754 = ORIENTED_EDGE('',*,*,#237,.T.);
#755 = ORIENTED_EDGE('',*,*,#756,.F.);
#756 = EDGE_CURVE('',#757,#238,#759,.T.);
#757 = VERTEX_POINT('',#758);
#758 = CARTESIAN_POINT('',(26.830662000012,-12.,30.4));
#759 = LINE('',#760,#761);
#760 = CARTESIAN_POINT('',(33.830662000012,-12.,30.4));
#761 = VECTOR('',#762,1.);
#762 = DIRECTION('',(1.,0.,0.));
#763 = ORIENTED_EDGE('',*,*,#764,.F.);
#764 = EDGE_CURVE('',#716,#757,#765,.T.);
#765 = LINE('',#766,#767);
#766 = CARTESIAN_POINT('',(26.830662000012,-12.,-4.));
#767 = VECTOR('',#768,1.);
#768 = DIRECTION('',(0.,0.,1.));
#769 = PLANE('',#770);
#770 = AXIS2_PLACEMENT_3D('',#771,#772,#773);
#771 = CARTESIAN_POINT('',(40.830662000012,-12.,-4.));
#772 = DIRECTION('',(0.,-1.,0.));
#773 = DIRECTION('',(-1.,0.,0.));
#774 = ADVANCED_FACE('',(#775,#841,#875,#909),#943,.T.);
#775 = FACE_BOUND('',#776,.T.);
#776 = EDGE_LOOP('',(#777,#778,#779,#780,#781,#782,#783,#784,#792,#801,
    #809,#817,#826,#834));
#777 = ORIENTED_EDGE('',*,*,#334,.F.);
#778 = ORIENTED_EDGE('',*,*,#326,.T.);
#779 = ORIENTED_EDGE('',*,*,#375,.F.);
#780 = ORIENTED_EDGE('',*,*,#407,.T.);
#781 = ORIENTED_EDGE('',*,*,#426,.T.);
#782 = ORIENTED_EDGE('',*,*,#245,.T.);
#783 = ORIENTED_EDGE('',*,*,#756,.F.);
#784 = ORIENTED_EDGE('',*,*,#785,.T.);
#785 = EDGE_CURVE('',#757,#786,#788,.T.);
#786 = VERTEX_POINT('',#787);
#787 = CARTESIAN_POINT('',(26.830662000012,-13.99999999999,30.4));
#788 = LINE('',#789,#790);
#789 = CARTESIAN_POINT('',(26.830662000012,16.,30.4));
#790 = VECTOR('',#791,1.);
#791 = DIRECTION('',(0.,-1.,0.));
#792 = ORIENTED_EDGE('',*,*,#793,.F.);
#793 = EDGE_CURVE('',#794,#786,#796,.T.);
#794 = VERTEX_POINT('',#795);
#795 = CARTESIAN_POINT('',(28.830662000016,-15.99999999999,30.4));
#796 = CIRCLE('',#797,2.);
#797 = AXIS2_PLACEMENT_3D('',#798,#799,#800);
#798 = CARTESIAN_POINT('',(28.830662000012,-13.99999999999,30.4));
#799 = DIRECTION('',(-0.,-0.,-1.));
#800 = DIRECTION('',(0.,-1.,0.));
#801 = ORIENTED_EDGE('',*,*,#802,.F.);
#802 = EDGE_CURVE('',#803,#794,#805,.T.);
#803 = VERTEX_POINT('',#804);
#804 = CARTESIAN_POINT('',(26.830662000012,-16.,30.4));
#805 = LINE('',#806,#807);
#806 = CARTESIAN_POINT('',(30.142672008368,-15.99999999998,30.4));
#807 = VECTOR('',#808,1.);
#808 = DIRECTION('',(1.,1.982582097303E-12,0.));
#809 = ORIENTED_EDGE('',*,*,#810,.T.);
#810 = EDGE_CURVE('',#803,#811,#813,.T.);
#811 = VERTEX_POINT('',#812);
#812 = CARTESIAN_POINT('',(19.830662000016,-16.,30.4));
#813 = LINE('',#814,#815);
#814 = CARTESIAN_POINT('',(26.830662000012,-16.,30.4));
#815 = VECTOR('',#816,1.);
#816 = DIRECTION('',(-1.,0.,0.));
#817 = ORIENTED_EDGE('',*,*,#818,.T.);
#818 = EDGE_CURVE('',#811,#819,#821,.T.);
#819 = VERTEX_POINT('',#820);
#820 = CARTESIAN_POINT('',(17.830662000012,-14.,30.4));
#821 = CIRCLE('',#822,2.);
#822 = AXIS2_PLACEMENT_3D('',#823,#824,#825);
#823 = CARTESIAN_POINT('',(19.830662000012,-14.,30.4));
#824 = DIRECTION('',(-0.,-0.,-1.));
#825 = DIRECTION('',(0.,-1.,0.));
#826 = ORIENTED_EDGE('',*,*,#827,.F.);
#827 = EDGE_CURVE('',#828,#819,#830,.T.);
#828 = VERTEX_POINT('',#829);
#829 = CARTESIAN_POINT('',(17.830662000012,14.,30.4));
#830 = LINE('',#831,#832);
#831 = CARTESIAN_POINT('',(17.830662000012,16.,30.4));
#832 = VECTOR('',#833,1.);
#833 = DIRECTION('',(0.,-1.,0.));
#834 = ORIENTED_EDGE('',*,*,#835,.F.);
#835 = EDGE_CURVE('',#335,#828,#836,.T.);
#836 = CIRCLE('',#837,2.);
#837 = AXIS2_PLACEMENT_3D('',#838,#839,#840);
#838 = CARTESIAN_POINT('',(19.830662000012,14.,30.4));
#839 = DIRECTION('',(0.,-0.,1.));
#840 = DIRECTION('',(0.,1.,0.));
#841 = FACE_BOUND('',#842,.T.);
#842 = EDGE_LOOP('',(#843,#853,#861,#869));
#843 = ORIENTED_EDGE('',*,*,#844,.T.);
#844 = EDGE_CURVE('',#845,#847,#849,.T.);
#845 = VERTEX_POINT('',#846);
#846 = CARTESIAN_POINT('',(32.647485880853,-7.791454962274,30.4));
#847 = VERTEX_POINT('',#848);
#848 = CARTESIAN_POINT('',(27.841177401145,-6.413268183179,30.4));
#849 = LINE('',#850,#851);
#850 = CARTESIAN_POINT('',(29.612450603396,-6.921172600845,30.4));
#851 = VECTOR('',#852,1.);
#852 = DIRECTION('',(-0.961261695938,0.275637355818,0.));
#853 = ORIENTED_EDGE('',*,*,#854,.T.);
#854 = EDGE_CURVE('',#847,#855,#857,.T.);
#855 = VERTEX_POINT('',#856);
#856 = CARTESIAN_POINT('',(26.980941243869,-9.413268183179,30.4));
#857 = LINE('',#858,#859);
#858 = CARTESIAN_POINT('',(28.708709829088,-3.38782306347,30.4));
#859 = VECTOR('',#860,1.);
#860 = DIRECTION('',(-0.275637355817,-0.961261695938,0.));
#861 = ORIENTED_EDGE('',*,*,#862,.T.);
#862 = EDGE_CURVE('',#855,#863,#865,.T.);
#863 = VERTEX_POINT('',#864);
#864 = CARTESIAN_POINT('',(31.787249723575,-10.79145496227,30.4));
#865 = LINE('',#866,#867);
#866 = CARTESIAN_POINT('',(26.349060206264,-9.232079211297,30.4));
#867 = VECTOR('',#868,1.);
#868 = DIRECTION('',(0.961261695938,-0.275637355818,0.));
#869 = ORIENTED_EDGE('',*,*,#870,.T.);
#870 = EDGE_CURVE('',#863,#845,#871,.T.);
#871 = LINE('',#872,#873);
#872 = CARTESIAN_POINT('',(33.084900230159,-6.266009842568,30.4));
#873 = VECTOR('',#874,1.);
#874 = DIRECTION('',(0.275637355818,0.961261695938,0.));
#875 = FACE_BOUND('',#876,.T.);
#876 = EDGE_LOOP('',(#877,#887,#895,#903));
#877 = ORIENTED_EDGE('',*,*,#878,.F.);
#878 = EDGE_CURVE('',#879,#881,#883,.T.);
#879 = VERTEX_POINT('',#880);
#880 = CARTESIAN_POINT('',(26.980941243888,9.413268183224,30.4));
#881 = VERTEX_POINT('',#882);
#882 = CARTESIAN_POINT('',(31.78724972358,10.791454962313,30.4));
#883 = LINE('',#884,#885);
#884 = CARTESIAN_POINT('',(26.34906020627,9.232079211338,30.4));
#885 = VECTOR('',#886,1.);
#886 = DIRECTION('',(0.961261695938,0.275637355818,0.));
#887 = ORIENTED_EDGE('',*,*,#888,.F.);
#888 = EDGE_CURVE('',#889,#879,#891,.T.);
#889 = VERTEX_POINT('',#890);
#890 = CARTESIAN_POINT('',(27.841177401164,6.413268183224,30.4));
#891 = LINE('',#892,#893);
#892 = CARTESIAN_POINT('',(28.708709829113,3.387823063497,30.4));
#893 = VECTOR('',#894,1.);
#894 = DIRECTION('',(-0.275637355817,0.961261695938,0.));
#895 = ORIENTED_EDGE('',*,*,#896,.F.);
#896 = EDGE_CURVE('',#897,#889,#899,.T.);
#897 = VERTEX_POINT('',#898);
#898 = CARTESIAN_POINT('',(32.64748588086,7.791454962313,30.4));
#899 = LINE('',#900,#901);
#900 = CARTESIAN_POINT('',(29.612450603395,6.921172600883,30.4));
#901 = VECTOR('',#902,1.);
#902 = DIRECTION('',(-0.961261695938,-0.275637355818,0.));
#903 = ORIENTED_EDGE('',*,*,#904,.F.);
#904 = EDGE_CURVE('',#881,#897,#905,.T.);
#905 = LINE('',#906,#907);
#906 = CARTESIAN_POINT('',(33.084900230171,6.266009842588,30.4));
#907 = VECTOR('',#908,1.);
#908 = DIRECTION('',(0.275637355818,-0.961261695938,0.));
#909 = FACE_BOUND('',#910,.T.);
#910 = EDGE_LOOP('',(#911,#921,#929,#937));
#911 = ORIENTED_EDGE('',*,*,#912,.T.);
#912 = EDGE_CURVE('',#913,#915,#917,.T.);
#913 = VERTEX_POINT('',#914);
#914 = CARTESIAN_POINT('',(32.314213562349,1.560449153826,30.4));
#915 = VERTEX_POINT('',#916);
#916 = CARTESIAN_POINT('',(27.314213562365,1.560449153826,30.4));
#917 = LINE('',#918,#919);
#918 = CARTESIAN_POINT('',(30.31334687209,1.560449153826,30.4));
#919 = VECTOR('',#920,1.);
#920 = DIRECTION('',(-1.,0.,0.));
#921 = ORIENTED_EDGE('',*,*,#922,.T.);
#922 = EDGE_CURVE('',#915,#923,#925,.T.);
#923 = VERTEX_POINT('',#924);
#924 = CARTESIAN_POINT('',(27.314213562365,-1.560449153759,30.4));
#925 = LINE('',#926,#927);
#926 = CARTESIAN_POINT('',(27.314213562365,0.780224576913,30.4));
#927 = VECTOR('',#928,1.);
#928 = DIRECTION('',(0.,-1.,0.));
#929 = ORIENTED_EDGE('',*,*,#930,.T.);
#930 = EDGE_CURVE('',#923,#931,#933,.T.);
#931 = VERTEX_POINT('',#932);
#932 = CARTESIAN_POINT('',(32.314213562349,-1.560449153759,30.4));
#933 = LINE('',#934,#935);
#934 = CARTESIAN_POINT('',(27.813346872098,-1.560449153759,30.4));
#935 = VECTOR('',#936,1.);
#936 = DIRECTION('',(1.,0.,0.));
#937 = ORIENTED_EDGE('',*,*,#938,.T.);
#938 = EDGE_CURVE('',#931,#913,#939,.T.);
#939 = LINE('',#940,#941);
#940 = CARTESIAN_POINT('',(32.314213562349,-0.780224576879,30.4));
#941 = VECTOR('',#942,1.);
#942 = DIRECTION('',(0.,1.,0.));
#943 = PLANE('',#944);
#944 = AXIS2_PLACEMENT_3D('',#945,#946,#947);
#945 = CARTESIAN_POINT('',(28.31248018183,1.214382130208E-14,30.4));
#946 = DIRECTION('',(-0.,-0.,-1.));
#947 = DIRECTION('',(-1.,0.,0.));
#948 = ADVANCED_FACE('',(#949),#960,.T.);
#949 = FACE_BOUND('',#950,.F.);
#950 = EDGE_LOOP('',(#951,#952,#958,#959));
#951 = ORIENTED_EDGE('',*,*,#571,.T.);
#952 = ORIENTED_EDGE('',*,*,#953,.T.);
#953 = EDGE_CURVE('',#572,#828,#954,.T.);
#954 = LINE('',#955,#956);
#955 = CARTESIAN_POINT('',(17.830662000012,14.,34.4));
#956 = VECTOR('',#957,1.);
#957 = DIRECTION('',(0.,0.,-1.));
#958 = ORIENTED_EDGE('',*,*,#835,.F.);
#959 = ORIENTED_EDGE('',*,*,#342,.F.);
#960 = CYLINDRICAL_SURFACE('',#961,2.);
#961 = AXIS2_PLACEMENT_3D('',#962,#963,#964);
#962 = CARTESIAN_POINT('',(19.830662000012,14.,34.4));
#963 = DIRECTION('',(0.,0.,-1.));
#964 = DIRECTION('',(3.228466578894E-13,1.,0.));
#965 = ADVANCED_FACE('',(#966),#986,.T.);
#966 = FACE_BOUND('',#967,.T.);
#967 = EDGE_LOOP('',(#968,#969,#970,#971,#972,#978,#979,#980));
#968 = ORIENTED_EDGE('',*,*,#485,.T.);
#969 = ORIENTED_EDGE('',*,*,#509,.T.);
#970 = ORIENTED_EDGE('',*,*,#558,.F.);
#971 = ORIENTED_EDGE('',*,*,#597,.T.);
#972 = ORIENTED_EDGE('',*,*,#973,.F.);
#973 = EDGE_CURVE('',#811,#589,#974,.T.);
#974 = LINE('',#975,#976);
#975 = CARTESIAN_POINT('',(19.830662000016,-16.,30.4));
#976 = VECTOR('',#977,1.);
#977 = DIRECTION('',(0.,0.,1.));
#978 = ORIENTED_EDGE('',*,*,#810,.F.);
#979 = ORIENTED_EDGE('',*,*,#802,.T.);
#980 = ORIENTED_EDGE('',*,*,#981,.F.);
#981 = EDGE_CURVE('',#477,#794,#982,.T.);
#982 = LINE('',#983,#984);
#983 = CARTESIAN_POINT('',(28.830662000016,-15.99999999999,-8.));
#984 = VECTOR('',#985,1.);
#985 = DIRECTION('',(0.,0.,1.));
#986 = PLANE('',#987);
#987 = AXIS2_PLACEMENT_3D('',#988,#989,#990);
#988 = CARTESIAN_POINT('',(31.972863834874,-15.99999999998,
    15.842201834862));
#989 = DIRECTION('',(1.982582097303E-12,-1.,1.61856916533E-13));
#990 = DIRECTION('',(-1.,-1.982582097303E-12,0.));
#991 = ADVANCED_FACE('',(#992),#1003,.F.);
#992 = FACE_BOUND('',#993,.F.);
#993 = EDGE_LOOP('',(#994,#995,#996,#997));
#994 = ORIENTED_EDGE('',*,*,#451,.F.);
#995 = ORIENTED_EDGE('',*,*,#534,.T.);
#996 = ORIENTED_EDGE('',*,*,#731,.T.);
#997 = ORIENTED_EDGE('',*,*,#998,.F.);
#998 = EDGE_CURVE('',#452,#732,#999,.T.);
#999 = LINE('',#1000,#1001);
#1000 = CARTESIAN_POINT('',(28.830662000012,-2.,-8.));
#1001 = VECTOR('',#1002,1.);
#1002 = DIRECTION('',(0.,0.,1.));
#1003 = PLANE('',#1004);
#1004 = AXIS2_PLACEMENT_3D('',#1005,#1006,#1007);
#1005 = CARTESIAN_POINT('',(40.830662000012,-2.,-8.));
#1006 = DIRECTION('',(-2.2E-16,-1.,0.));
#1007 = DIRECTION('',(-1.,2.2E-16,0.));
#1008 = ADVANCED_FACE('',(#1009),#1020,.T.);
#1009 = FACE_BOUND('',#1010,.F.);
#1010 = EDGE_LOOP('',(#1011,#1012,#1018,#1019));
#1011 = ORIENTED_EDGE('',*,*,#476,.T.);
#1012 = ORIENTED_EDGE('',*,*,#1013,.T.);
#1013 = EDGE_CURVE('',#469,#786,#1014,.T.);
#1014 = LINE('',#1015,#1016);
#1015 = CARTESIAN_POINT('',(26.830662000012,-13.99999999999,-8.));
#1016 = VECTOR('',#1017,1.);
#1017 = DIRECTION('',(0.,0.,1.));
#1018 = ORIENTED_EDGE('',*,*,#793,.F.);
#1019 = ORIENTED_EDGE('',*,*,#981,.F.);
#1020 = CYLINDRICAL_SURFACE('',#1021,2.);
#1021 = AXIS2_PLACEMENT_3D('',#1022,#1023,#1024);
#1022 = CARTESIAN_POINT('',(28.830662000012,-13.99999999999,-8.));
#1023 = DIRECTION('',(0.,0.,1.));
#1024 = DIRECTION('',(1.982582097303E-12,-1.,0.));
#1025 = ADVANCED_FACE('',(#1026),#1037,.T.);
#1026 = FACE_BOUND('',#1027,.T.);
#1027 = EDGE_LOOP('',(#1028,#1029,#1035,#1036));
#1028 = ORIENTED_EDGE('',*,*,#459,.T.);
#1029 = ORIENTED_EDGE('',*,*,#1030,.T.);
#1030 = EDGE_CURVE('',#460,#714,#1031,.T.);
#1031 = LINE('',#1032,#1033);
#1032 = CARTESIAN_POINT('',(26.830662000012,-4.,-8.));
#1033 = VECTOR('',#1034,1.);
#1034 = DIRECTION('',(0.,0.,1.));
#1035 = ORIENTED_EDGE('',*,*,#739,.F.);
#1036 = ORIENTED_EDGE('',*,*,#998,.F.);
#1037 = CYLINDRICAL_SURFACE('',#1038,2.);
#1038 = AXIS2_PLACEMENT_3D('',#1039,#1040,#1041);
#1039 = CARTESIAN_POINT('',(28.830662000012,-4.,-8.));
#1040 = DIRECTION('',(0.,0.,1.));
#1041 = DIRECTION('',(2.2E-16,1.,0.));
#1042 = ADVANCED_FACE('',(#1043),#1051,.T.);
#1043 = FACE_BOUND('',#1044,.T.);
#1044 = EDGE_LOOP('',(#1045,#1046,#1047,#1048,#1049,#1050));
#1045 = ORIENTED_EDGE('',*,*,#713,.F.);
#1046 = ORIENTED_EDGE('',*,*,#1030,.F.);
#1047 = ORIENTED_EDGE('',*,*,#468,.T.);
#1048 = ORIENTED_EDGE('',*,*,#1013,.T.);
#1049 = ORIENTED_EDGE('',*,*,#785,.F.);
#1050 = ORIENTED_EDGE('',*,*,#764,.F.);
#1051 = PLANE('',#1052);
#1052 = AXIS2_PLACEMENT_3D('',#1053,#1054,#1055);
#1053 = CARTESIAN_POINT('',(26.830662000012,4.042281904117E-14,13.2));
#1054 = DIRECTION('',(-1.,7.539159716621E-16,-7.159872878097E-16));
#1055 = DIRECTION('',(-7.539159716621E-16,-1.,0.));
#1056 = ADVANCED_FACE('',(#1057),#1068,.T.);
#1057 = FACE_BOUND('',#1058,.F.);
#1058 = EDGE_LOOP('',(#1059,#1060,#1066,#1067));
#1059 = ORIENTED_EDGE('',*,*,#818,.T.);
#1060 = ORIENTED_EDGE('',*,*,#1061,.T.);
#1061 = EDGE_CURVE('',#819,#581,#1062,.T.);
#1062 = LINE('',#1063,#1064);
#1063 = CARTESIAN_POINT('',(17.830662000012,-14.,30.4));
#1064 = VECTOR('',#1065,1.);
#1065 = DIRECTION('',(0.,0.,1.));
#1066 = ORIENTED_EDGE('',*,*,#588,.F.);
#1067 = ORIENTED_EDGE('',*,*,#973,.F.);
#1068 = CYLINDRICAL_SURFACE('',#1069,2.);
#1069 = AXIS2_PLACEMENT_3D('',#1070,#1071,#1072);
#1070 = CARTESIAN_POINT('',(19.830662000012,-14.,30.4));
#1071 = DIRECTION('',(0.,0.,1.));
#1072 = DIRECTION('',(1.982582097303E-12,-1.,0.));
#1073 = ADVANCED_FACE('',(#1074),#1080,.F.);
#1074 = FACE_BOUND('',#1075,.F.);
#1075 = EDGE_LOOP('',(#1076,#1077,#1078,#1079));
#1076 = ORIENTED_EDGE('',*,*,#827,.F.);
#1077 = ORIENTED_EDGE('',*,*,#953,.F.);
#1078 = ORIENTED_EDGE('',*,*,#580,.F.);
#1079 = ORIENTED_EDGE('',*,*,#1061,.F.);
#1080 = PLANE('',#1081);
#1081 = AXIS2_PLACEMENT_3D('',#1082,#1083,#1084);
#1082 = CARTESIAN_POINT('',(17.830662000012,1.223712489365E-14,32.4));
#1083 = DIRECTION('',(1.,0.,0.));
#1084 = DIRECTION('',(0.,0.,1.));
#1085 = ADVANCED_FACE('',(#1086),#1102,.F.);
#1086 = FACE_BOUND('',#1087,.F.);
#1087 = EDGE_LOOP('',(#1088,#1089,#1095,#1096));
#1088 = ORIENTED_EDGE('',*,*,#605,.F.);
#1089 = ORIENTED_EDGE('',*,*,#1090,.T.);
#1090 = EDGE_CURVE('',#606,#847,#1091,.T.);
#1091 = LINE('',#1092,#1093);
#1092 = CARTESIAN_POINT('',(27.841177401145,-6.413268183179,34.4));
#1093 = VECTOR('',#1094,1.);
#1094 = DIRECTION('',(-0.,-0.,-1.));
#1095 = ORIENTED_EDGE('',*,*,#854,.T.);
#1096 = ORIENTED_EDGE('',*,*,#1097,.F.);
#1097 = EDGE_CURVE('',#608,#855,#1098,.T.);
#1098 = LINE('',#1099,#1100);
#1099 = CARTESIAN_POINT('',(26.980941243869,-9.413268183179,34.4));
#1100 = VECTOR('',#1101,1.);
#1101 = DIRECTION('',(-0.,-0.,-1.));
#1102 = PLANE('',#1103);
#1103 = AXIS2_PLACEMENT_3D('',#1104,#1105,#1106);
#1104 = CARTESIAN_POINT('',(27.841177401145,-6.413268183179,34.4));
#1105 = DIRECTION('',(-0.961261695938,0.275637355817,0.));
#1106 = DIRECTION('',(-0.275637355817,-0.961261695938,0.));
#1107 = ADVANCED_FACE('',(#1108),#1119,.F.);
#1108 = FACE_BOUND('',#1109,.F.);
#1109 = EDGE_LOOP('',(#1110,#1111,#1112,#1113));
#1110 = ORIENTED_EDGE('',*,*,#631,.F.);
#1111 = ORIENTED_EDGE('',*,*,#1097,.T.);
#1112 = ORIENTED_EDGE('',*,*,#862,.T.);
#1113 = ORIENTED_EDGE('',*,*,#1114,.F.);
#1114 = EDGE_CURVE('',#624,#863,#1115,.T.);
#1115 = LINE('',#1116,#1117);
#1116 = CARTESIAN_POINT('',(31.787249723575,-10.79145496227,34.4));
#1117 = VECTOR('',#1118,1.);
#1118 = DIRECTION('',(-0.,-0.,-1.));
#1119 = PLANE('',#1120);
#1120 = AXIS2_PLACEMENT_3D('',#1121,#1122,#1123);
#1121 = CARTESIAN_POINT('',(26.980941243869,-9.413268183179,34.4));
#1122 = DIRECTION('',(-0.275637355818,-0.961261695938,0.));
#1123 = DIRECTION('',(0.961261695938,-0.275637355818,0.));
#1124 = ADVANCED_FACE('',(#1125),#1136,.F.);
#1125 = FACE_BOUND('',#1126,.F.);
#1126 = EDGE_LOOP('',(#1127,#1128,#1129,#1130));
#1127 = ORIENTED_EDGE('',*,*,#623,.F.);
#1128 = ORIENTED_EDGE('',*,*,#1114,.T.);
#1129 = ORIENTED_EDGE('',*,*,#870,.T.);
#1130 = ORIENTED_EDGE('',*,*,#1131,.F.);
#1131 = EDGE_CURVE('',#616,#845,#1132,.T.);
#1132 = LINE('',#1133,#1134);
#1133 = CARTESIAN_POINT('',(32.647485880853,-7.791454962274,34.4));
#1134 = VECTOR('',#1135,1.);
#1135 = DIRECTION('',(-0.,-0.,-1.));
#1136 = PLANE('',#1137);
#1137 = AXIS2_PLACEMENT_3D('',#1138,#1139,#1140);
#1138 = CARTESIAN_POINT('',(31.787249723572,-10.79145496227,34.4));
#1139 = DIRECTION('',(0.961261695938,-0.275637355818,0.));
#1140 = DIRECTION('',(0.275637355818,0.961261695938,0.));
#1141 = ADVANCED_FACE('',(#1142),#1148,.F.);
#1142 = FACE_BOUND('',#1143,.F.);
#1143 = EDGE_LOOP('',(#1144,#1145,#1146,#1147));
#1144 = ORIENTED_EDGE('',*,*,#615,.F.);
#1145 = ORIENTED_EDGE('',*,*,#1131,.T.);
#1146 = ORIENTED_EDGE('',*,*,#844,.T.);
#1147 = ORIENTED_EDGE('',*,*,#1090,.F.);
#1148 = PLANE('',#1149);
#1149 = AXIS2_PLACEMENT_3D('',#1150,#1151,#1152);
#1150 = CARTESIAN_POINT('',(32.647485880853,-7.791454962274,34.4));
#1151 = DIRECTION('',(0.275637355818,0.961261695938,0.));
#1152 = DIRECTION('',(-0.961261695938,0.275637355818,0.));
#1153 = ADVANCED_FACE('',(#1154),#1170,.F.);
#1154 = FACE_BOUND('',#1155,.F.);
#1155 = EDGE_LOOP('',(#1156,#1157,#1163,#1164));
#1156 = ORIENTED_EDGE('',*,*,#639,.F.);
#1157 = ORIENTED_EDGE('',*,*,#1158,.T.);
#1158 = EDGE_CURVE('',#640,#915,#1159,.T.);
#1159 = LINE('',#1160,#1161);
#1160 = CARTESIAN_POINT('',(27.314213562365,1.560449153826,34.4));
#1161 = VECTOR('',#1162,1.);
#1162 = DIRECTION('',(-0.,-0.,-1.));
#1163 = ORIENTED_EDGE('',*,*,#922,.T.);
#1164 = ORIENTED_EDGE('',*,*,#1165,.F.);
#1165 = EDGE_CURVE('',#642,#923,#1166,.T.);
#1166 = LINE('',#1167,#1168);
#1167 = CARTESIAN_POINT('',(27.314213562365,-1.560449153759,34.4));
#1168 = VECTOR('',#1169,1.);
#1169 = DIRECTION('',(-0.,-0.,-1.));
#1170 = PLANE('',#1171);
#1171 = AXIS2_PLACEMENT_3D('',#1172,#1173,#1174);
#1172 = CARTESIAN_POINT('',(27.314213562365,1.560449153826,34.4));
#1173 = DIRECTION('',(-1.,0.,0.));
#1174 = DIRECTION('',(0.,-1.,0.));
#1175 = ADVANCED_FACE('',(#1176),#1187,.F.);
#1176 = FACE_BOUND('',#1177,.F.);
#1177 = EDGE_LOOP('',(#1178,#1179,#1180,#1181));
#1178 = ORIENTED_EDGE('',*,*,#665,.F.);
#1179 = ORIENTED_EDGE('',*,*,#1165,.T.);
#1180 = ORIENTED_EDGE('',*,*,#930,.T.);
#1181 = ORIENTED_EDGE('',*,*,#1182,.F.);
#1182 = EDGE_CURVE('',#658,#931,#1183,.T.);
#1183 = LINE('',#1184,#1185);
#1184 = CARTESIAN_POINT('',(32.314213562349,-1.560449153759,34.4));
#1185 = VECTOR('',#1186,1.);
#1186 = DIRECTION('',(-0.,-0.,-1.));
#1187 = PLANE('',#1188);
#1188 = AXIS2_PLACEMENT_3D('',#1189,#1190,#1191);
#1189 = CARTESIAN_POINT('',(27.314213562365,-1.560449153759,34.4));
#1190 = DIRECTION('',(0.,-1.,0.));
#1191 = DIRECTION('',(1.,0.,0.));
#1192 = ADVANCED_FACE('',(#1193),#1204,.F.);
#1193 = FACE_BOUND('',#1194,.F.);
#1194 = EDGE_LOOP('',(#1195,#1196,#1197,#1198));
#1195 = ORIENTED_EDGE('',*,*,#657,.F.);
#1196 = ORIENTED_EDGE('',*,*,#1182,.T.);
#1197 = ORIENTED_EDGE('',*,*,#938,.T.);
#1198 = ORIENTED_EDGE('',*,*,#1199,.F.);
#1199 = EDGE_CURVE('',#650,#913,#1200,.T.);
#1200 = LINE('',#1201,#1202);
#1201 = CARTESIAN_POINT('',(32.314213562349,1.560449153826,34.4));
#1202 = VECTOR('',#1203,1.);
#1203 = DIRECTION('',(-0.,-0.,-1.));
#1204 = PLANE('',#1205);
#1205 = AXIS2_PLACEMENT_3D('',#1206,#1207,#1208);
#1206 = CARTESIAN_POINT('',(32.314213562349,-1.560449153759,34.4));
#1207 = DIRECTION('',(1.,0.,0.));
#1208 = DIRECTION('',(0.,1.,0.));
#1209 = ADVANCED_FACE('',(#1210),#1216,.F.);
#1210 = FACE_BOUND('',#1211,.F.);
#1211 = EDGE_LOOP('',(#1212,#1213,#1214,#1215));
#1212 = ORIENTED_EDGE('',*,*,#649,.F.);
#1213 = ORIENTED_EDGE('',*,*,#1199,.T.);
#1214 = ORIENTED_EDGE('',*,*,#912,.T.);
#1215 = ORIENTED_EDGE('',*,*,#1158,.F.);
#1216 = PLANE('',#1217);
#1217 = AXIS2_PLACEMENT_3D('',#1218,#1219,#1220);
#1218 = CARTESIAN_POINT('',(32.314213562349,1.560449153826,34.4));
#1219 = DIRECTION('',(0.,1.,0.));
#1220 = DIRECTION('',(-1.,0.,0.));
#1221 = ADVANCED_FACE('',(#1222),#1238,.T.);
#1222 = FACE_BOUND('',#1223,.T.);
#1223 = EDGE_LOOP('',(#1224,#1225,#1231,#1232));
#1224 = ORIENTED_EDGE('',*,*,#673,.F.);
#1225 = ORIENTED_EDGE('',*,*,#1226,.T.);
#1226 = EDGE_CURVE('',#674,#889,#1227,.T.);
#1227 = LINE('',#1228,#1229);
#1228 = CARTESIAN_POINT('',(27.841177401164,6.413268183224,34.4));
#1229 = VECTOR('',#1230,1.);
#1230 = DIRECTION('',(-0.,-0.,-1.));
#1231 = ORIENTED_EDGE('',*,*,#888,.T.);
#1232 = ORIENTED_EDGE('',*,*,#1233,.F.);
#1233 = EDGE_CURVE('',#676,#879,#1234,.T.);
#1234 = LINE('',#1235,#1236);
#1235 = CARTESIAN_POINT('',(26.980941243888,9.413268183224,34.4));
#1236 = VECTOR('',#1237,1.);
#1237 = DIRECTION('',(-0.,-0.,-1.));
#1238 = PLANE('',#1239);
#1239 = AXIS2_PLACEMENT_3D('',#1240,#1241,#1242);
#1240 = CARTESIAN_POINT('',(27.841177401164,6.413268183224,34.4));
#1241 = DIRECTION('',(0.961261695938,0.275637355817,0.));
#1242 = DIRECTION('',(-0.275637355817,0.961261695938,0.));
#1243 = ADVANCED_FACE('',(#1244),#1255,.T.);
#1244 = FACE_BOUND('',#1245,.T.);
#1245 = EDGE_LOOP('',(#1246,#1247,#1253,#1254));
#1246 = ORIENTED_EDGE('',*,*,#699,.F.);
#1247 = ORIENTED_EDGE('',*,*,#1248,.T.);
#1248 = EDGE_CURVE('',#692,#897,#1249,.T.);
#1249 = LINE('',#1250,#1251);
#1250 = CARTESIAN_POINT('',(32.64748588086,7.791454962313,34.4));
#1251 = VECTOR('',#1252,1.);
#1252 = DIRECTION('',(-0.,-0.,-1.));
#1253 = ORIENTED_EDGE('',*,*,#896,.T.);
#1254 = ORIENTED_EDGE('',*,*,#1226,.F.);
#1255 = PLANE('',#1256);
#1256 = AXIS2_PLACEMENT_3D('',#1257,#1258,#1259);
#1257 = CARTESIAN_POINT('',(32.64748588086,7.791454962313,34.4));
#1258 = DIRECTION('',(-0.275637355818,0.961261695938,0.));
#1259 = DIRECTION('',(-0.961261695938,-0.275637355818,0.));
#1260 = ADVANCED_FACE('',(#1261),#1272,.T.);
#1261 = FACE_BOUND('',#1262,.T.);
#1262 = EDGE_LOOP('',(#1263,#1264,#1270,#1271));
#1263 = ORIENTED_EDGE('',*,*,#691,.F.);
#1264 = ORIENTED_EDGE('',*,*,#1265,.T.);
#1265 = EDGE_CURVE('',#684,#881,#1266,.T.);
#1266 = LINE('',#1267,#1268);
#1267 = CARTESIAN_POINT('',(31.78724972358,10.791454962313,34.4));
#1268 = VECTOR('',#1269,1.);
#1269 = DIRECTION('',(-0.,-0.,-1.));
#1270 = ORIENTED_EDGE('',*,*,#904,.T.);
#1271 = ORIENTED_EDGE('',*,*,#1248,.F.);
#1272 = PLANE('',#1273);
#1273 = AXIS2_PLACEMENT_3D('',#1274,#1275,#1276);
#1274 = CARTESIAN_POINT('',(31.78724972358,10.791454962313,34.4));
#1275 = DIRECTION('',(-0.961261695938,-0.275637355818,0.));
#1276 = DIRECTION('',(0.275637355818,-0.961261695938,0.));
#1277 = ADVANCED_FACE('',(#1278),#1284,.T.);
#1278 = FACE_BOUND('',#1279,.T.);
#1279 = EDGE_LOOP('',(#1280,#1281,#1282,#1283));
#1280 = ORIENTED_EDGE('',*,*,#683,.F.);
#1281 = ORIENTED_EDGE('',*,*,#1233,.T.);
#1282 = ORIENTED_EDGE('',*,*,#878,.T.);
#1283 = ORIENTED_EDGE('',*,*,#1265,.F.);
#1284 = PLANE('',#1285);
#1285 = AXIS2_PLACEMENT_3D('',#1286,#1287,#1288);
#1286 = CARTESIAN_POINT('',(26.980941243888,9.413268183224,34.4));
#1287 = DIRECTION('',(0.275637355818,-0.961261695938,0.));
#1288 = DIRECTION('',(0.961261695938,0.275637355818,0.));
#1289 = ( GEOMETRIC_REPRESENTATION_CONTEXT(3) 
GLOBAL_UNCERTAINTY_ASSIGNED_CONTEXT((#1293)) 
GLOBAL_UNIT_ASSIGNED_CONTEXT((#1290,#1291,#1292)) REPRESENTATION_CONTEXT
('Context #1','3D Context with UNIT and UNCERTAINTY') );
#1290 = ( LENGTH_UNIT() NAMED_UNIT(*) SI_UNIT(.MILLI.,.METRE.) );
#1291 = ( NAMED_UNIT(*) PLANE_ANGLE_UNIT() SI_UNIT($,.RADIAN.) );
#1292 = ( NAMED_UNIT(*) SI_UNIT($,.STERADIAN.) SOLID_ANGLE_UNIT() );
#1293 = UNCERTAINTY_MEASURE_WITH_UNIT(LENGTH_MEASURE(1.E-07),#1290,
  'distance_accuracy_value','confusion accuracy');
#1294 = PRODUCT_RELATED_PRODUCT_CATEGORY('part',$,(#7));
#1295 = MECHANICAL_DESIGN_GEOMETRIC_PRESENTATION_REPRESENTATION('',(
    #1296),#1289);
#1296 = STYLED_ITEM('color',(#1297),#15);
#1297 = PRESENTATION_STYLE_ASSIGNMENT((#1298,#1304));
#1298 = SURFACE_STYLE_USAGE(.BOTH.,#1299);
#1299 = SURFACE_SIDE_STYLE('',(#1300));
#1300 = SURFACE_STYLE_FILL_AREA(#1301);
#1301 = FILL_AREA_STYLE('',(#1302));
#1302 = FILL_AREA_STYLE_COLOUR('',#1303);
#1303 = COLOUR_RGB('',0.447058818107,0.474509808674,0.501960817233);
#1304 = CURVE_STYLE('',#1305,POSITIVE_LENGTH_MEASURE(0.1),#1306);
#1305 = DRAUGHTING_PRE_DEFINED_CURVE_FONT('continuous');
#1306 = COLOUR_RGB('',9.803921802644E-02,9.803921802644E-02,
  9.803921802644E-02);
ENDSEC;
END-ISO-10303-21;
