ISO-10303-21;
HEADER;
FILE_DESCRIPTION(('FreeCAD Model'),'2;1');
FILE_NAME('Open CASCADE Shape Model','2026-01-18T07:39:50',(''),(''),
  'Open CASCADE STEP processor 7.8','FreeCAD','Unknown');
FILE_SCHEMA(('AUTOMOTIVE_DESIGN { 1 0 10303 214 1 1 1 1 }'));
ENDSEC;
DATA;
#1 = APPLICATION_PROTOCOL_DEFINITION('international standard',
  'automotive_design',2000,#2);
#2 = APPLICATION_CONTEXT(
  'core data for automotive mechanical design processes');
#3 = SHAPE_DEFINITION_REPRESENTATION(#4,#10);
#4 = PRODUCT_DEFINITION_SHAPE('','',#5);
#5 = PRODUCT_DEFINITION('design','',#6,#9);
#6 = PRODUCT_DEFINITION_FORMATION('','',#7);
#7 = PRODUCT('mirror_holder_adapter','mirror_holder_adapter','',(#8));
#8 = PRODUCT_CONTEXT('',#2,'mechanical');
#9 = PRODUCT_DEFINITION_CONTEXT('part definition',#2,'design');
#10 = ADVANCED_BREP_SHAPE_REPRESENTATION('',(#11,#15),#1105);
#11 = AXIS2_PLACEMENT_3D('',#12,#13,#14);
#12 = CARTESIAN_POINT('',(0.,0.,0.));
#13 = DIRECTION('',(0.,0.,1.));
#14 = DIRECTION('',(1.,0.,-0.));
#15 = MANIFOLD_SOLID_BREP('',#16);
#16 = CLOSED_SHELL('',(#17,#73,#104,#296,#320,#512,#536,#553,#588,#605,
    #629,#646,#677,#710,#727,#751,#768,#815,#832,#856,#882,#904,#921,
    #938,#955,#972,#989,#1006,#1018,#1035,#1052,#1069,#1081,#1093));
#17 = ADVANCED_FACE('',(#18),#68,.T.);
#18 = FACE_BOUND('',#19,.T.);
#19 = EDGE_LOOP('',(#20,#30,#38,#46,#54,#62));
#20 = ORIENTED_EDGE('',*,*,#21,.T.);
#21 = EDGE_CURVE('',#22,#24,#26,.T.);
#22 = VERTEX_POINT('',#23);
#23 = CARTESIAN_POINT('',(16.881943016134,-6.,6.));
#24 = VERTEX_POINT('',#25);
#25 = CARTESIAN_POINT('',(16.881943016134,-6.,15.));
#26 = LINE('',#27,#28);
#27 = CARTESIAN_POINT('',(16.881943016134,-6.,11.));
#28 = VECTOR('',#29,1.);
#29 = DIRECTION('',(0.,0.,1.));
#30 = ORIENTED_EDGE('',*,*,#31,.T.);
#31 = EDGE_CURVE('',#24,#32,#34,.T.);
#32 = VERTEX_POINT('',#33);
#33 = CARTESIAN_POINT('',(16.881943016134,-2.,15.));
#34 = LINE('',#35,#36);
#35 = CARTESIAN_POINT('',(16.881943016134,-6.,15.));
#36 = VECTOR('',#37,1.);
#37 = DIRECTION('',(0.,1.,0.));
#38 = ORIENTED_EDGE('',*,*,#39,.F.);
#39 = EDGE_CURVE('',#40,#32,#42,.T.);
#40 = VERTEX_POINT('',#41);
#41 = CARTESIAN_POINT('',(16.881943016134,-2.,11.));
#42 = LINE('',#43,#44);
#43 = CARTESIAN_POINT('',(16.881943016134,-2.,11.));
#44 = VECTOR('',#45,1.);
#45 = DIRECTION('',(0.,0.,1.));
#46 = ORIENTED_EDGE('',*,*,#47,.F.);
#47 = EDGE_CURVE('',#48,#40,#50,.T.);
#48 = VERTEX_POINT('',#49);
#49 = CARTESIAN_POINT('',(16.881943016134,-2.2,11.));
#50 = LINE('',#51,#52);
#51 = CARTESIAN_POINT('',(16.881943016134,-6.,11.));
#52 = VECTOR('',#53,1.);
#53 = DIRECTION('',(0.,1.,0.));
#54 = ORIENTED_EDGE('',*,*,#55,.T.);
#55 = EDGE_CURVE('',#48,#56,#58,.T.);
#56 = VERTEX_POINT('',#57);
#57 = CARTESIAN_POINT('',(16.881943016134,-2.2,6.));
#58 = LINE('',#59,#60);
#59 = CARTESIAN_POINT('',(16.881943016134,-2.2,11.));
#60 = VECTOR('',#61,1.);
#61 = DIRECTION('',(0.,0.,-1.));
#62 = ORIENTED_EDGE('',*,*,#63,.T.);
#63 = EDGE_CURVE('',#56,#22,#64,.T.);
#64 = LINE('',#65,#66);
#65 = CARTESIAN_POINT('',(16.881943016134,-3.,6.));
#66 = VECTOR('',#67,1.);
#67 = DIRECTION('',(0.,-1.,0.));
#68 = PLANE('',#69);
#69 = AXIS2_PLACEMENT_3D('',#70,#71,#72);
#70 = CARTESIAN_POINT('',(16.881943016134,-4.038461538462,
    10.538461538462));
#71 = DIRECTION('',(-1.,-8.112354424317E-15,-2.766750511747E-15));
#72 = DIRECTION('',(8.112354424317E-15,-1.,0.));
#73 = ADVANCED_FACE('',(#74),#99,.T.);
#74 = FACE_BOUND('',#75,.T.);
#75 = EDGE_LOOP('',(#76,#77,#85,#93));
#76 = ORIENTED_EDGE('',*,*,#21,.F.);
#77 = ORIENTED_EDGE('',*,*,#78,.T.);
#78 = EDGE_CURVE('',#22,#79,#81,.T.);
#79 = VERTEX_POINT('',#80);
#80 = CARTESIAN_POINT('',(20.881943016134,-6.,6.));
#81 = LINE('',#82,#83);
#82 = CARTESIAN_POINT('',(-4.488626224824,-6.,6.));
#83 = VECTOR('',#84,1.);
#84 = DIRECTION('',(1.,0.,0.));
#85 = ORIENTED_EDGE('',*,*,#86,.F.);
#86 = EDGE_CURVE('',#87,#79,#89,.T.);
#87 = VERTEX_POINT('',#88);
#88 = CARTESIAN_POINT('',(20.881943016134,-6.,15.));
#89 = LINE('',#90,#91);
#90 = CARTESIAN_POINT('',(20.881943016134,-6.,11.));
#91 = VECTOR('',#92,1.);
#92 = DIRECTION('',(0.,0.,-1.));
#93 = ORIENTED_EDGE('',*,*,#94,.F.);
#94 = EDGE_CURVE('',#24,#87,#95,.T.);
#95 = LINE('',#96,#97);
#96 = CARTESIAN_POINT('',(16.881943016134,-6.,15.));
#97 = VECTOR('',#98,1.);
#98 = DIRECTION('',(1.,0.,0.));
#99 = PLANE('',#100);
#100 = AXIS2_PLACEMENT_3D('',#101,#102,#103);
#101 = CARTESIAN_POINT('',(18.881943016134,-6.,10.5));
#102 = DIRECTION('',(-0.,-1.,-0.));
#103 = DIRECTION('',(0.,0.,-1.));
#104 = ADVANCED_FACE('',(#105,#221),#291,.T.);
#105 = FACE_BOUND('',#106,.T.);
#106 = EDGE_LOOP('',(#107,#108,#109,#117,#125,#133,#141,#150,#158,#166,
    #174,#182,#190,#198,#206,#215));
#107 = ORIENTED_EDGE('',*,*,#31,.F.);
#108 = ORIENTED_EDGE('',*,*,#94,.T.);
#109 = ORIENTED_EDGE('',*,*,#110,.T.);
#110 = EDGE_CURVE('',#87,#111,#113,.T.);
#111 = VERTEX_POINT('',#112);
#112 = CARTESIAN_POINT('',(20.881943016134,6.,15.));
#113 = LINE('',#114,#115);
#114 = CARTESIAN_POINT('',(20.881943016134,-6.,15.));
#115 = VECTOR('',#116,1.);
#116 = DIRECTION('',(0.,1.,0.));
#117 = ORIENTED_EDGE('',*,*,#118,.T.);
#118 = EDGE_CURVE('',#111,#119,#121,.T.);
#119 = VERTEX_POINT('',#120);
#120 = CARTESIAN_POINT('',(16.881943016134,6.,15.));
#121 = LINE('',#122,#123);
#122 = CARTESIAN_POINT('',(20.881943016134,6.,15.));
#123 = VECTOR('',#124,1.);
#124 = DIRECTION('',(-1.,0.,0.));
#125 = ORIENTED_EDGE('',*,*,#126,.T.);
#126 = EDGE_CURVE('',#119,#127,#129,.T.);
#127 = VERTEX_POINT('',#128);
#128 = CARTESIAN_POINT('',(16.881943016134,2.,15.));
#129 = LINE('',#130,#131);
#130 = CARTESIAN_POINT('',(16.881943016134,6.,15.));
#131 = VECTOR('',#132,1.);
#132 = DIRECTION('',(0.,-1.,0.));
#133 = ORIENTED_EDGE('',*,*,#134,.T.);
#134 = EDGE_CURVE('',#127,#135,#137,.T.);
#135 = VERTEX_POINT('',#136);
#136 = CARTESIAN_POINT('',(11.832159566199,2.,15.));
#137 = LINE('',#138,#139);
#138 = CARTESIAN_POINT('',(16.881943016134,2.,15.));
#139 = VECTOR('',#140,1.);
#140 = DIRECTION('',(-1.,0.,0.));
#141 = ORIENTED_EDGE('',*,*,#142,.T.);
#142 = EDGE_CURVE('',#135,#143,#145,.T.);
#143 = VERTEX_POINT('',#144);
#144 = CARTESIAN_POINT('',(-11.83215956619,2.,15.));
#145 = CIRCLE('',#146,12.);
#146 = AXIS2_PLACEMENT_3D('',#147,#148,#149);
#147 = CARTESIAN_POINT('',(0.,0.,15.));
#148 = DIRECTION('',(0.,0.,1.));
#149 = DIRECTION('',(1.,0.,0.));
#150 = ORIENTED_EDGE('',*,*,#151,.F.);
#151 = EDGE_CURVE('',#152,#143,#154,.T.);
#152 = VERTEX_POINT('',#153);
#153 = CARTESIAN_POINT('',(-16.88194301613,2.,15.));
#154 = LINE('',#155,#156);
#155 = CARTESIAN_POINT('',(-16.88194301613,2.,15.));
#156 = VECTOR('',#157,1.);
#157 = DIRECTION('',(1.,0.,0.));
#158 = ORIENTED_EDGE('',*,*,#159,.F.);
#159 = EDGE_CURVE('',#160,#152,#162,.T.);
#160 = VERTEX_POINT('',#161);
#161 = CARTESIAN_POINT('',(-16.88194301613,6.,15.));
#162 = LINE('',#163,#164);
#163 = CARTESIAN_POINT('',(-16.88194301613,6.,15.));
#164 = VECTOR('',#165,1.);
#165 = DIRECTION('',(-0.,-1.,-0.));
#166 = ORIENTED_EDGE('',*,*,#167,.F.);
#167 = EDGE_CURVE('',#168,#160,#170,.T.);
#168 = VERTEX_POINT('',#169);
#169 = CARTESIAN_POINT('',(-20.88194301613,6.,15.));
#170 = LINE('',#171,#172);
#171 = CARTESIAN_POINT('',(-20.88194301613,6.,15.));
#172 = VECTOR('',#173,1.);
#173 = DIRECTION('',(1.,0.,0.));
#174 = ORIENTED_EDGE('',*,*,#175,.F.);
#175 = EDGE_CURVE('',#176,#168,#178,.T.);
#176 = VERTEX_POINT('',#177);
#177 = CARTESIAN_POINT('',(-20.88194301613,-6.,15.));
#178 = LINE('',#179,#180);
#179 = CARTESIAN_POINT('',(-20.88194301613,-6.,15.));
#180 = VECTOR('',#181,1.);
#181 = DIRECTION('',(0.,1.,0.));
#182 = ORIENTED_EDGE('',*,*,#183,.F.);
#183 = EDGE_CURVE('',#184,#176,#186,.T.);
#184 = VERTEX_POINT('',#185);
#185 = CARTESIAN_POINT('',(-16.88194301613,-6.,15.));
#186 = LINE('',#187,#188);
#187 = CARTESIAN_POINT('',(-16.88194301613,-6.,15.));
#188 = VECTOR('',#189,1.);
#189 = DIRECTION('',(-1.,-0.,-0.));
#190 = ORIENTED_EDGE('',*,*,#191,.T.);
#191 = EDGE_CURVE('',#184,#192,#194,.T.);
#192 = VERTEX_POINT('',#193);
#193 = CARTESIAN_POINT('',(-16.88194301613,-2.,15.));
#194 = LINE('',#195,#196);
#195 = CARTESIAN_POINT('',(-16.88194301613,-6.,15.));
#196 = VECTOR('',#197,1.);
#197 = DIRECTION('',(0.,1.,0.));
#198 = ORIENTED_EDGE('',*,*,#199,.T.);
#199 = EDGE_CURVE('',#192,#200,#202,.T.);
#200 = VERTEX_POINT('',#201);
#201 = CARTESIAN_POINT('',(-11.83215956619,-2.,15.));
#202 = LINE('',#203,#204);
#203 = CARTESIAN_POINT('',(-16.88194301613,-2.,15.));
#204 = VECTOR('',#205,1.);
#205 = DIRECTION('',(1.,0.,0.));
#206 = ORIENTED_EDGE('',*,*,#207,.T.);
#207 = EDGE_CURVE('',#200,#208,#210,.T.);
#208 = VERTEX_POINT('',#209);
#209 = CARTESIAN_POINT('',(11.832159566199,-2.,15.));
#210 = CIRCLE('',#211,12.);
#211 = AXIS2_PLACEMENT_3D('',#212,#213,#214);
#212 = CARTESIAN_POINT('',(0.,0.,15.));
#213 = DIRECTION('',(0.,0.,1.));
#214 = DIRECTION('',(1.,0.,0.));
#215 = ORIENTED_EDGE('',*,*,#216,.F.);
#216 = EDGE_CURVE('',#32,#208,#217,.T.);
#217 = LINE('',#218,#219);
#218 = CARTESIAN_POINT('',(16.881943016134,-2.,15.));
#219 = VECTOR('',#220,1.);
#220 = DIRECTION('',(-1.,0.,0.));
#221 = FACE_BOUND('',#222,.T.);
#222 = EDGE_LOOP('',(#223,#233,#242,#250,#259,#267,#276,#284));
#223 = ORIENTED_EDGE('',*,*,#224,.F.);
#224 = EDGE_CURVE('',#225,#227,#229,.T.);
#225 = VERTEX_POINT('',#226);
#226 = CARTESIAN_POINT('',(-0.707106781187,5.292893218813,15.));
#227 = VERTEX_POINT('',#228);
#228 = CARTESIAN_POINT('',(-5.292893218813,0.707106781187,15.));
#229 = LINE('',#230,#231);
#230 = CARTESIAN_POINT('',(-0.707106781187,5.292893218813,15.));
#231 = VECTOR('',#232,1.);
#232 = DIRECTION('',(-0.707106781187,-0.707106781187,0.));
#233 = ORIENTED_EDGE('',*,*,#234,.F.);
#234 = EDGE_CURVE('',#235,#225,#237,.T.);
#235 = VERTEX_POINT('',#236);
#236 = CARTESIAN_POINT('',(0.707106781187,5.292893218813,15.));
#237 = CIRCLE('',#238,1.);
#238 = AXIS2_PLACEMENT_3D('',#239,#240,#241);
#239 = CARTESIAN_POINT('',(-3.171942425323E-16,4.585786437627,15.));
#240 = DIRECTION('',(0.,0.,1.));
#241 = DIRECTION('',(1.,0.,0.));
#242 = ORIENTED_EDGE('',*,*,#243,.F.);
#243 = EDGE_CURVE('',#244,#235,#246,.T.);
#244 = VERTEX_POINT('',#245);
#245 = CARTESIAN_POINT('',(5.292893218813,0.707106781187,15.));
#246 = LINE('',#247,#248);
#247 = CARTESIAN_POINT('',(5.292893218813,0.707106781187,15.));
#248 = VECTOR('',#249,1.);
#249 = DIRECTION('',(-0.707106781187,0.707106781187,0.));
#250 = ORIENTED_EDGE('',*,*,#251,.F.);
#251 = EDGE_CURVE('',#252,#244,#254,.T.);
#252 = VERTEX_POINT('',#253);
#253 = CARTESIAN_POINT('',(5.292893218813,-0.707106781187,15.));
#254 = CIRCLE('',#255,1.);
#255 = AXIS2_PLACEMENT_3D('',#256,#257,#258);
#256 = CARTESIAN_POINT('',(4.585786437627,-3.290119715137E-16,15.));
#257 = DIRECTION('',(0.,0.,1.));
#258 = DIRECTION('',(1.,0.,0.));
#259 = ORIENTED_EDGE('',*,*,#260,.F.);
#260 = EDGE_CURVE('',#261,#252,#263,.T.);
#261 = VERTEX_POINT('',#262);
#262 = CARTESIAN_POINT('',(0.707106781187,-5.292893218813,15.));
#263 = LINE('',#264,#265);
#264 = CARTESIAN_POINT('',(0.707106781187,-5.292893218813,15.));
#265 = VECTOR('',#266,1.);
#266 = DIRECTION('',(0.707106781187,0.707106781187,0.));
#267 = ORIENTED_EDGE('',*,*,#268,.F.);
#268 = EDGE_CURVE('',#269,#261,#271,.T.);
#269 = VERTEX_POINT('',#270);
#270 = CARTESIAN_POINT('',(-0.707106781187,-5.292893218813,15.));
#271 = CIRCLE('',#272,1.);
#272 = AXIS2_PLACEMENT_3D('',#273,#274,#275);
#273 = CARTESIAN_POINT('',(-3.012943867421E-16,-4.585786437627,15.));
#274 = DIRECTION('',(0.,0.,1.));
#275 = DIRECTION('',(1.,0.,0.));
#276 = ORIENTED_EDGE('',*,*,#277,.F.);
#277 = EDGE_CURVE('',#278,#269,#280,.T.);
#278 = VERTEX_POINT('',#279);
#279 = CARTESIAN_POINT('',(-5.292893218813,-0.707106781187,15.));
#280 = LINE('',#281,#282);
#281 = CARTESIAN_POINT('',(-5.292893218813,-0.707106781187,15.));
#282 = VECTOR('',#283,1.);
#283 = DIRECTION('',(0.707106781187,-0.707106781187,0.));
#284 = ORIENTED_EDGE('',*,*,#285,.F.);
#285 = EDGE_CURVE('',#227,#278,#286,.T.);
#286 = CIRCLE('',#287,1.);
#287 = AXIS2_PLACEMENT_3D('',#288,#289,#290);
#288 = CARTESIAN_POINT('',(-4.585786437627,6.468147937304E-16,15.));
#289 = DIRECTION('',(0.,0.,1.));
#290 = DIRECTION('',(1.,0.,0.));
#291 = PLANE('',#292);
#292 = AXIS2_PLACEMENT_3D('',#293,#294,#295);
#293 = CARTESIAN_POINT('',(9.314140611153E-16,5.601071043193E-15,15.));
#294 = DIRECTION('',(0.,0.,1.));
#295 = DIRECTION('',(1.,0.,0.));
#296 = ADVANCED_FACE('',(#297),#315,.T.);
#297 = FACE_BOUND('',#298,.T.);
#298 = EDGE_LOOP('',(#299,#300,#301,#309));
#299 = ORIENTED_EDGE('',*,*,#39,.T.);
#300 = ORIENTED_EDGE('',*,*,#216,.T.);
#301 = ORIENTED_EDGE('',*,*,#302,.F.);
#302 = EDGE_CURVE('',#303,#208,#305,.T.);
#303 = VERTEX_POINT('',#304);
#304 = CARTESIAN_POINT('',(11.832159566199,-2.,11.));
#305 = LINE('',#306,#307);
#306 = CARTESIAN_POINT('',(11.832159566199,-2.,11.));
#307 = VECTOR('',#308,1.);
#308 = DIRECTION('',(0.,0.,1.));
#309 = ORIENTED_EDGE('',*,*,#310,.F.);
#310 = EDGE_CURVE('',#40,#303,#311,.T.);
#311 = LINE('',#312,#313);
#312 = CARTESIAN_POINT('',(16.881943016134,-2.,11.));
#313 = VECTOR('',#314,1.);
#314 = DIRECTION('',(-1.,0.,0.));
#315 = PLANE('',#316);
#316 = AXIS2_PLACEMENT_3D('',#317,#318,#319);
#317 = CARTESIAN_POINT('',(16.881943016134,-2.,11.));
#318 = DIRECTION('',(0.,-1.,0.));
#319 = DIRECTION('',(-1.,0.,0.));
#320 = ADVANCED_FACE('',(#321,#437),#507,.T.);
#321 = FACE_BOUND('',#322,.T.);
#322 = EDGE_LOOP('',(#323,#324,#325,#334,#342,#350,#358,#366,#374,#382,
    #390,#399,#407,#415,#423,#431));
#323 = ORIENTED_EDGE('',*,*,#47,.T.);
#324 = ORIENTED_EDGE('',*,*,#310,.T.);
#325 = ORIENTED_EDGE('',*,*,#326,.F.);
#326 = EDGE_CURVE('',#327,#303,#329,.T.);
#327 = VERTEX_POINT('',#328);
#328 = CARTESIAN_POINT('',(-11.83215956619,-2.,11.));
#329 = CIRCLE('',#330,12.);
#330 = AXIS2_PLACEMENT_3D('',#331,#332,#333);
#331 = CARTESIAN_POINT('',(0.,0.,11.));
#332 = DIRECTION('',(0.,0.,1.));
#333 = DIRECTION('',(1.,0.,0.));
#334 = ORIENTED_EDGE('',*,*,#335,.F.);
#335 = EDGE_CURVE('',#336,#327,#338,.T.);
#336 = VERTEX_POINT('',#337);
#337 = CARTESIAN_POINT('',(-16.88194301613,-2.,11.));
#338 = LINE('',#339,#340);
#339 = CARTESIAN_POINT('',(-16.88194301613,-2.,11.));
#340 = VECTOR('',#341,1.);
#341 = DIRECTION('',(1.,0.,0.));
#342 = ORIENTED_EDGE('',*,*,#343,.F.);
#343 = EDGE_CURVE('',#344,#336,#346,.T.);
#344 = VERTEX_POINT('',#345);
#345 = CARTESIAN_POINT('',(-16.88194301613,-2.2,11.));
#346 = LINE('',#347,#348);
#347 = CARTESIAN_POINT('',(-16.88194301613,-6.,11.));
#348 = VECTOR('',#349,1.);
#349 = DIRECTION('',(0.,1.,0.));
#350 = ORIENTED_EDGE('',*,*,#351,.T.);
#351 = EDGE_CURVE('',#344,#352,#354,.T.);
#352 = VERTEX_POINT('',#353);
#353 = CARTESIAN_POINT('',(-20.88194301613,-2.2,11.));
#354 = LINE('',#355,#356);
#355 = CARTESIAN_POINT('',(-16.88194301613,-2.2,11.));
#356 = VECTOR('',#357,1.);
#357 = DIRECTION('',(-1.,0.,0.));
#358 = ORIENTED_EDGE('',*,*,#359,.T.);
#359 = EDGE_CURVE('',#352,#360,#362,.T.);
#360 = VERTEX_POINT('',#361);
#361 = CARTESIAN_POINT('',(-20.88194301613,2.2,11.));
#362 = LINE('',#363,#364);
#363 = CARTESIAN_POINT('',(-20.88194301613,-6.,11.));
#364 = VECTOR('',#365,1.);
#365 = DIRECTION('',(0.,1.,0.));
#366 = ORIENTED_EDGE('',*,*,#367,.T.);
#367 = EDGE_CURVE('',#360,#368,#370,.T.);
#368 = VERTEX_POINT('',#369);
#369 = CARTESIAN_POINT('',(-16.88194301613,2.2,11.));
#370 = LINE('',#371,#372);
#371 = CARTESIAN_POINT('',(-20.88194301613,2.2,11.));
#372 = VECTOR('',#373,1.);
#373 = DIRECTION('',(1.,0.,0.));
#374 = ORIENTED_EDGE('',*,*,#375,.T.);
#375 = EDGE_CURVE('',#368,#376,#378,.T.);
#376 = VERTEX_POINT('',#377);
#377 = CARTESIAN_POINT('',(-16.88194301613,2.,11.));
#378 = LINE('',#379,#380);
#379 = CARTESIAN_POINT('',(-16.88194301613,6.,11.));
#380 = VECTOR('',#381,1.);
#381 = DIRECTION('',(-0.,-1.,-0.));
#382 = ORIENTED_EDGE('',*,*,#383,.T.);
#383 = EDGE_CURVE('',#376,#384,#386,.T.);
#384 = VERTEX_POINT('',#385);
#385 = CARTESIAN_POINT('',(-11.83215956619,2.,11.));
#386 = LINE('',#387,#388);
#387 = CARTESIAN_POINT('',(-16.88194301613,2.,11.));
#388 = VECTOR('',#389,1.);
#389 = DIRECTION('',(1.,0.,0.));
#390 = ORIENTED_EDGE('',*,*,#391,.F.);
#391 = EDGE_CURVE('',#392,#384,#394,.T.);
#392 = VERTEX_POINT('',#393);
#393 = CARTESIAN_POINT('',(11.832159566199,2.,11.));
#394 = CIRCLE('',#395,12.);
#395 = AXIS2_PLACEMENT_3D('',#396,#397,#398);
#396 = CARTESIAN_POINT('',(0.,0.,11.));
#397 = DIRECTION('',(0.,0.,1.));
#398 = DIRECTION('',(1.,0.,0.));
#399 = ORIENTED_EDGE('',*,*,#400,.F.);
#400 = EDGE_CURVE('',#401,#392,#403,.T.);
#401 = VERTEX_POINT('',#402);
#402 = CARTESIAN_POINT('',(16.881943016134,2.,11.));
#403 = LINE('',#404,#405);
#404 = CARTESIAN_POINT('',(16.881943016134,2.,11.));
#405 = VECTOR('',#406,1.);
#406 = DIRECTION('',(-1.,0.,0.));
#407 = ORIENTED_EDGE('',*,*,#408,.F.);
#408 = EDGE_CURVE('',#409,#401,#411,.T.);
#409 = VERTEX_POINT('',#410);
#410 = CARTESIAN_POINT('',(16.881943016134,2.2,11.));
#411 = LINE('',#412,#413);
#412 = CARTESIAN_POINT('',(16.881943016134,6.,11.));
#413 = VECTOR('',#414,1.);
#414 = DIRECTION('',(0.,-1.,0.));
#415 = ORIENTED_EDGE('',*,*,#416,.F.);
#416 = EDGE_CURVE('',#417,#409,#419,.T.);
#417 = VERTEX_POINT('',#418);
#418 = CARTESIAN_POINT('',(20.881943016134,2.2,11.));
#419 = LINE('',#420,#421);
#420 = CARTESIAN_POINT('',(20.881943016134,2.2,11.));
#421 = VECTOR('',#422,1.);
#422 = DIRECTION('',(-1.,0.,0.));
#423 = ORIENTED_EDGE('',*,*,#424,.F.);
#424 = EDGE_CURVE('',#425,#417,#427,.T.);
#425 = VERTEX_POINT('',#426);
#426 = CARTESIAN_POINT('',(20.881943016134,-2.2,11.));
#427 = LINE('',#428,#429);
#428 = CARTESIAN_POINT('',(20.881943016134,-6.,11.));
#429 = VECTOR('',#430,1.);
#430 = DIRECTION('',(0.,1.,0.));
#431 = ORIENTED_EDGE('',*,*,#432,.F.);
#432 = EDGE_CURVE('',#48,#425,#433,.T.);
#433 = LINE('',#434,#435);
#434 = CARTESIAN_POINT('',(16.881943016134,-2.2,11.));
#435 = VECTOR('',#436,1.);
#436 = DIRECTION('',(1.,0.,0.));
#437 = FACE_BOUND('',#438,.T.);
#438 = EDGE_LOOP('',(#439,#450,#458,#467,#475,#484,#492,#501));
#439 = ORIENTED_EDGE('',*,*,#440,.T.);
#440 = EDGE_CURVE('',#441,#443,#445,.T.);
#441 = VERTEX_POINT('',#442);
#442 = CARTESIAN_POINT('',(0.707106781187,5.292893218813,11.));
#443 = VERTEX_POINT('',#444);
#444 = CARTESIAN_POINT('',(-0.707106781187,5.292893218813,11.));
#445 = CIRCLE('',#446,1.);
#446 = AXIS2_PLACEMENT_3D('',#447,#448,#449);
#447 = CARTESIAN_POINT('',(-3.171942425323E-16,4.585786437627,11.));
#448 = DIRECTION('',(0.,0.,1.));
#449 = DIRECTION('',(1.,0.,0.));
#450 = ORIENTED_EDGE('',*,*,#451,.T.);
#451 = EDGE_CURVE('',#443,#452,#454,.T.);
#452 = VERTEX_POINT('',#453);
#453 = CARTESIAN_POINT('',(-5.292893218813,0.707106781187,11.));
#454 = LINE('',#455,#456);
#455 = CARTESIAN_POINT('',(-1.853553390593,4.146446609407,11.));
#456 = VECTOR('',#457,1.);
#457 = DIRECTION('',(-0.707106781187,-0.707106781187,0.));
#458 = ORIENTED_EDGE('',*,*,#459,.T.);
#459 = EDGE_CURVE('',#452,#460,#462,.T.);
#460 = VERTEX_POINT('',#461);
#461 = CARTESIAN_POINT('',(-5.292893218813,-0.707106781187,11.));
#462 = CIRCLE('',#463,1.);
#463 = AXIS2_PLACEMENT_3D('',#464,#465,#466);
#464 = CARTESIAN_POINT('',(-4.585786437627,6.468147937304E-16,11.));
#465 = DIRECTION('',(0.,0.,1.));
#466 = DIRECTION('',(1.,0.,0.));
#467 = ORIENTED_EDGE('',*,*,#468,.T.);
#468 = EDGE_CURVE('',#460,#469,#471,.T.);
#469 = VERTEX_POINT('',#470);
#470 = CARTESIAN_POINT('',(-0.707106781187,-5.292893218813,11.));
#471 = LINE('',#472,#473);
#472 = CARTESIAN_POINT('',(-4.146446609407,-1.853553390593,11.));
#473 = VECTOR('',#474,1.);
#474 = DIRECTION('',(0.707106781187,-0.707106781187,0.));
#475 = ORIENTED_EDGE('',*,*,#476,.T.);
#476 = EDGE_CURVE('',#469,#477,#479,.T.);
#477 = VERTEX_POINT('',#478);
#478 = CARTESIAN_POINT('',(0.707106781187,-5.292893218813,11.));
#479 = CIRCLE('',#480,1.);
#480 = AXIS2_PLACEMENT_3D('',#481,#482,#483);
#481 = CARTESIAN_POINT('',(-3.012943867421E-16,-4.585786437627,11.));
#482 = DIRECTION('',(0.,0.,1.));
#483 = DIRECTION('',(1.,0.,0.));
#484 = ORIENTED_EDGE('',*,*,#485,.T.);
#485 = EDGE_CURVE('',#477,#486,#488,.T.);
#486 = VERTEX_POINT('',#487);
#487 = CARTESIAN_POINT('',(5.292893218813,-0.707106781187,11.));
#488 = LINE('',#489,#490);
#489 = CARTESIAN_POINT('',(1.853553390593,-4.146446609407,11.));
#490 = VECTOR('',#491,1.);
#491 = DIRECTION('',(0.707106781187,0.707106781187,0.));
#492 = ORIENTED_EDGE('',*,*,#493,.T.);
#493 = EDGE_CURVE('',#486,#494,#496,.T.);
#494 = VERTEX_POINT('',#495);
#495 = CARTESIAN_POINT('',(5.292893218813,0.707106781187,11.));
#496 = CIRCLE('',#497,1.);
#497 = AXIS2_PLACEMENT_3D('',#498,#499,#500);
#498 = CARTESIAN_POINT('',(4.585786437627,-3.290119715137E-16,11.));
#499 = DIRECTION('',(0.,0.,1.));
#500 = DIRECTION('',(1.,0.,0.));
#501 = ORIENTED_EDGE('',*,*,#502,.T.);
#502 = EDGE_CURVE('',#494,#441,#503,.T.);
#503 = LINE('',#504,#505);
#504 = CARTESIAN_POINT('',(4.146446609407,1.853553390593,11.));
#505 = VECTOR('',#506,1.);
#506 = DIRECTION('',(-0.707106781187,0.707106781187,0.));
#507 = PLANE('',#508);
#508 = AXIS2_PLACEMENT_3D('',#509,#510,#511);
#509 = CARTESIAN_POINT('',(7.700277988573E-16,3.802012256858E-15,11.));
#510 = DIRECTION('',(-0.,-0.,-1.));
#511 = DIRECTION('',(-1.,0.,0.));
#512 = ADVANCED_FACE('',(#513),#531,.F.);
#513 = FACE_BOUND('',#514,.F.);
#514 = EDGE_LOOP('',(#515,#516,#517,#525));
#515 = ORIENTED_EDGE('',*,*,#432,.F.);
#516 = ORIENTED_EDGE('',*,*,#55,.T.);
#517 = ORIENTED_EDGE('',*,*,#518,.F.);
#518 = EDGE_CURVE('',#519,#56,#521,.T.);
#519 = VERTEX_POINT('',#520);
#520 = CARTESIAN_POINT('',(20.881943016134,-2.2,6.));
#521 = LINE('',#522,#523);
#522 = CARTESIAN_POINT('',(-6.488626224824,-2.2,6.));
#523 = VECTOR('',#524,1.);
#524 = DIRECTION('',(-1.,0.,0.));
#525 = ORIENTED_EDGE('',*,*,#526,.F.);
#526 = EDGE_CURVE('',#425,#519,#527,.T.);
#527 = LINE('',#528,#529);
#528 = CARTESIAN_POINT('',(20.881943016134,-2.2,11.));
#529 = VECTOR('',#530,1.);
#530 = DIRECTION('',(0.,0.,-1.));
#531 = PLANE('',#532);
#532 = AXIS2_PLACEMENT_3D('',#533,#534,#535);
#533 = CARTESIAN_POINT('',(16.881943016134,-2.2,11.));
#534 = DIRECTION('',(0.,-1.,0.));
#535 = DIRECTION('',(1.,0.,0.));
#536 = ADVANCED_FACE('',(#537),#548,.F.);
#537 = FACE_BOUND('',#538,.F.);
#538 = EDGE_LOOP('',(#539,#540,#541,#542));
#539 = ORIENTED_EDGE('',*,*,#518,.T.);
#540 = ORIENTED_EDGE('',*,*,#63,.T.);
#541 = ORIENTED_EDGE('',*,*,#78,.T.);
#542 = ORIENTED_EDGE('',*,*,#543,.T.);
#543 = EDGE_CURVE('',#79,#519,#544,.T.);
#544 = LINE('',#545,#546);
#545 = CARTESIAN_POINT('',(20.881943016134,-1.1,6.));
#546 = VECTOR('',#547,1.);
#547 = DIRECTION('',(0.,1.,0.));
#548 = PLANE('',#549);
#549 = AXIS2_PLACEMENT_3D('',#550,#551,#552);
#550 = CARTESIAN_POINT('',(-29.85919546578,5.163E-14,6.));
#551 = DIRECTION('',(0.,0.,1.));
#552 = DIRECTION('',(1.,0.,0.));
#553 = ADVANCED_FACE('',(#554),#583,.T.);
#554 = FACE_BOUND('',#555,.T.);
#555 = EDGE_LOOP('',(#556,#557,#558,#559,#560,#568,#576,#582));
#556 = ORIENTED_EDGE('',*,*,#86,.T.);
#557 = ORIENTED_EDGE('',*,*,#543,.T.);
#558 = ORIENTED_EDGE('',*,*,#526,.F.);
#559 = ORIENTED_EDGE('',*,*,#424,.T.);
#560 = ORIENTED_EDGE('',*,*,#561,.T.);
#561 = EDGE_CURVE('',#417,#562,#564,.T.);
#562 = VERTEX_POINT('',#563);
#563 = CARTESIAN_POINT('',(20.881943016134,2.2,6.));
#564 = LINE('',#565,#566);
#565 = CARTESIAN_POINT('',(20.881943016134,2.2,11.));
#566 = VECTOR('',#567,1.);
#567 = DIRECTION('',(0.,0.,-1.));
#568 = ORIENTED_EDGE('',*,*,#569,.T.);
#569 = EDGE_CURVE('',#562,#570,#572,.T.);
#570 = VERTEX_POINT('',#571);
#571 = CARTESIAN_POINT('',(20.881943016134,6.,6.));
#572 = LINE('',#573,#574);
#573 = CARTESIAN_POINT('',(20.881943016134,3.,6.));
#574 = VECTOR('',#575,1.);
#575 = DIRECTION('',(0.,1.,0.));
#576 = ORIENTED_EDGE('',*,*,#577,.F.);
#577 = EDGE_CURVE('',#111,#570,#578,.T.);
#578 = LINE('',#579,#580);
#579 = CARTESIAN_POINT('',(20.881943016134,6.,11.));
#580 = VECTOR('',#581,1.);
#581 = DIRECTION('',(0.,0.,-1.));
#582 = ORIENTED_EDGE('',*,*,#110,.F.);
#583 = PLANE('',#584);
#584 = AXIS2_PLACEMENT_3D('',#585,#586,#587);
#585 = CARTESIAN_POINT('',(20.881943016134,1.366428338E-16,
    10.538461538462));
#586 = DIRECTION('',(1.,0.,0.));
#587 = DIRECTION('',(0.,0.,1.));
#588 = ADVANCED_FACE('',(#589),#600,.T.);
#589 = FACE_BOUND('',#590,.F.);
#590 = EDGE_LOOP('',(#591,#592,#598,#599));
#591 = ORIENTED_EDGE('',*,*,#326,.F.);
#592 = ORIENTED_EDGE('',*,*,#593,.T.);
#593 = EDGE_CURVE('',#327,#200,#594,.T.);
#594 = LINE('',#595,#596);
#595 = CARTESIAN_POINT('',(-11.83215956619,-2.,11.));
#596 = VECTOR('',#597,1.);
#597 = DIRECTION('',(0.,0.,1.));
#598 = ORIENTED_EDGE('',*,*,#207,.T.);
#599 = ORIENTED_EDGE('',*,*,#302,.F.);
#600 = CYLINDRICAL_SURFACE('',#601,12.);
#601 = AXIS2_PLACEMENT_3D('',#602,#603,#604);
#602 = CARTESIAN_POINT('',(0.,0.,11.));
#603 = DIRECTION('',(-0.,-0.,-1.));
#604 = DIRECTION('',(1.,0.,0.));
#605 = ADVANCED_FACE('',(#606),#624,.T.);
#606 = FACE_BOUND('',#607,.T.);
#607 = EDGE_LOOP('',(#608,#609,#617,#623));
#608 = ORIENTED_EDGE('',*,*,#577,.T.);
#609 = ORIENTED_EDGE('',*,*,#610,.T.);
#610 = EDGE_CURVE('',#570,#611,#613,.T.);
#611 = VERTEX_POINT('',#612);
#612 = CARTESIAN_POINT('',(16.881943016134,6.,6.));
#613 = LINE('',#614,#615);
#614 = CARTESIAN_POINT('',(-6.488626224824,6.,6.));
#615 = VECTOR('',#616,1.);
#616 = DIRECTION('',(-1.,0.,0.));
#617 = ORIENTED_EDGE('',*,*,#618,.T.);
#618 = EDGE_CURVE('',#611,#119,#619,.T.);
#619 = LINE('',#620,#621);
#620 = CARTESIAN_POINT('',(16.881943016134,6.,11.));
#621 = VECTOR('',#622,1.);
#622 = DIRECTION('',(0.,0.,1.));
#623 = ORIENTED_EDGE('',*,*,#118,.F.);
#624 = PLANE('',#625);
#625 = AXIS2_PLACEMENT_3D('',#626,#627,#628);
#626 = CARTESIAN_POINT('',(18.881943016134,6.,10.5));
#627 = DIRECTION('',(0.,1.,5.844290900191E-16));
#628 = DIRECTION('',(0.,-5.844290900191E-16,1.));
#629 = ADVANCED_FACE('',(#630),#641,.T.);
#630 = FACE_BOUND('',#631,.F.);
#631 = EDGE_LOOP('',(#632,#638,#639,#640));
#632 = ORIENTED_EDGE('',*,*,#633,.T.);
#633 = EDGE_CURVE('',#336,#192,#634,.T.);
#634 = LINE('',#635,#636);
#635 = CARTESIAN_POINT('',(-16.88194301613,-2.,11.));
#636 = VECTOR('',#637,1.);
#637 = DIRECTION('',(0.,0.,1.));
#638 = ORIENTED_EDGE('',*,*,#199,.T.);
#639 = ORIENTED_EDGE('',*,*,#593,.F.);
#640 = ORIENTED_EDGE('',*,*,#335,.F.);
#641 = PLANE('',#642);
#642 = AXIS2_PLACEMENT_3D('',#643,#644,#645);
#643 = CARTESIAN_POINT('',(-16.88194301613,-2.,11.));
#644 = DIRECTION('',(-0.,-1.,-0.));
#645 = DIRECTION('',(-1.,-0.,-0.));
#646 = ADVANCED_FACE('',(#647),#672,.T.);
#647 = FACE_BOUND('',#648,.T.);
#648 = EDGE_LOOP('',(#649,#650,#658,#664,#665,#671));
#649 = ORIENTED_EDGE('',*,*,#618,.F.);
#650 = ORIENTED_EDGE('',*,*,#651,.T.);
#651 = EDGE_CURVE('',#611,#652,#654,.T.);
#652 = VERTEX_POINT('',#653);
#653 = CARTESIAN_POINT('',(16.881943016134,2.2,6.));
#654 = LINE('',#655,#656);
#655 = CARTESIAN_POINT('',(16.881943016134,1.1,6.));
#656 = VECTOR('',#657,1.);
#657 = DIRECTION('',(0.,-1.,0.));
#658 = ORIENTED_EDGE('',*,*,#659,.F.);
#659 = EDGE_CURVE('',#409,#652,#660,.T.);
#660 = LINE('',#661,#662);
#661 = CARTESIAN_POINT('',(16.881943016134,2.2,11.));
#662 = VECTOR('',#663,1.);
#663 = DIRECTION('',(0.,0.,-1.));
#664 = ORIENTED_EDGE('',*,*,#408,.T.);
#665 = ORIENTED_EDGE('',*,*,#666,.T.);
#666 = EDGE_CURVE('',#401,#127,#667,.T.);
#667 = LINE('',#668,#669);
#668 = CARTESIAN_POINT('',(16.881943016134,2.,11.));
#669 = VECTOR('',#670,1.);
#670 = DIRECTION('',(0.,0.,1.));
#671 = ORIENTED_EDGE('',*,*,#126,.F.);
#672 = PLANE('',#673);
#673 = AXIS2_PLACEMENT_3D('',#674,#675,#676);
#674 = CARTESIAN_POINT('',(16.881943016134,4.038461538462,
    10.538461538462));
#675 = DIRECTION('',(-1.,-0.,-0.));
#676 = DIRECTION('',(0.,0.,-1.));
#677 = ADVANCED_FACE('',(#678),#705,.T.);
#678 = FACE_BOUND('',#679,.T.);
#679 = EDGE_LOOP('',(#680,#688,#696,#702,#703,#704));
#680 = ORIENTED_EDGE('',*,*,#681,.T.);
#681 = EDGE_CURVE('',#184,#682,#684,.T.);
#682 = VERTEX_POINT('',#683);
#683 = CARTESIAN_POINT('',(-16.88194301613,-6.,6.));
#684 = LINE('',#685,#686);
#685 = CARTESIAN_POINT('',(-16.88194301613,-6.,11.));
#686 = VECTOR('',#687,1.);
#687 = DIRECTION('',(-0.,-0.,-1.));
#688 = ORIENTED_EDGE('',*,*,#689,.F.);
#689 = EDGE_CURVE('',#690,#682,#692,.T.);
#690 = VERTEX_POINT('',#691);
#691 = CARTESIAN_POINT('',(-16.88194301613,-2.2,6.));
#692 = LINE('',#693,#694);
#693 = CARTESIAN_POINT('',(-16.88194301613,-3.,6.));
#694 = VECTOR('',#695,1.);
#695 = DIRECTION('',(0.,-1.,0.));
#696 = ORIENTED_EDGE('',*,*,#697,.F.);
#697 = EDGE_CURVE('',#344,#690,#698,.T.);
#698 = LINE('',#699,#700);
#699 = CARTESIAN_POINT('',(-16.88194301613,-2.2,11.));
#700 = VECTOR('',#701,1.);
#701 = DIRECTION('',(-0.,-0.,-1.));
#702 = ORIENTED_EDGE('',*,*,#343,.T.);
#703 = ORIENTED_EDGE('',*,*,#633,.T.);
#704 = ORIENTED_EDGE('',*,*,#191,.F.);
#705 = PLANE('',#706);
#706 = AXIS2_PLACEMENT_3D('',#707,#708,#709);
#707 = CARTESIAN_POINT('',(-16.88194301613,-4.038461538462,
    10.538461538462));
#708 = DIRECTION('',(1.,-8.112354424317E-15,-2.766750511747E-15));
#709 = DIRECTION('',(8.112354424317E-15,1.,0.));
#710 = ADVANCED_FACE('',(#711),#722,.F.);
#711 = FACE_BOUND('',#712,.F.);
#712 = EDGE_LOOP('',(#713,#714,#715,#721));
#713 = ORIENTED_EDGE('',*,*,#666,.T.);
#714 = ORIENTED_EDGE('',*,*,#134,.T.);
#715 = ORIENTED_EDGE('',*,*,#716,.F.);
#716 = EDGE_CURVE('',#392,#135,#717,.T.);
#717 = LINE('',#718,#719);
#718 = CARTESIAN_POINT('',(11.832159566199,2.,11.));
#719 = VECTOR('',#720,1.);
#720 = DIRECTION('',(0.,0.,1.));
#721 = ORIENTED_EDGE('',*,*,#400,.F.);
#722 = PLANE('',#723);
#723 = AXIS2_PLACEMENT_3D('',#724,#725,#726);
#724 = CARTESIAN_POINT('',(16.881943016134,2.,11.));
#725 = DIRECTION('',(0.,-1.,0.));
#726 = DIRECTION('',(-1.,0.,0.));
#727 = ADVANCED_FACE('',(#728),#746,.T.);
#728 = FACE_BOUND('',#729,.T.);
#729 = EDGE_LOOP('',(#730,#731,#739,#745));
#730 = ORIENTED_EDGE('',*,*,#183,.T.);
#731 = ORIENTED_EDGE('',*,*,#732,.F.);
#732 = EDGE_CURVE('',#733,#176,#735,.T.);
#733 = VERTEX_POINT('',#734);
#734 = CARTESIAN_POINT('',(-20.88194301613,-6.,6.));
#735 = LINE('',#736,#737);
#736 = CARTESIAN_POINT('',(-20.88194301613,-6.,11.));
#737 = VECTOR('',#738,1.);
#738 = DIRECTION('',(0.,0.,1.));
#739 = ORIENTED_EDGE('',*,*,#740,.F.);
#740 = EDGE_CURVE('',#682,#733,#741,.T.);
#741 = LINE('',#742,#743);
#742 = CARTESIAN_POINT('',(4.488626224824,-6.,6.));
#743 = VECTOR('',#744,1.);
#744 = DIRECTION('',(-1.,-0.,-0.));
#745 = ORIENTED_EDGE('',*,*,#681,.F.);
#746 = PLANE('',#747);
#747 = AXIS2_PLACEMENT_3D('',#748,#749,#750);
#748 = CARTESIAN_POINT('',(-18.88194301613,-6.,10.5));
#749 = DIRECTION('',(-0.,-1.,-0.));
#750 = DIRECTION('',(0.,0.,-1.));
#751 = ADVANCED_FACE('',(#752),#763,.T.);
#752 = FACE_BOUND('',#753,.F.);
#753 = EDGE_LOOP('',(#754,#755,#756,#757));
#754 = ORIENTED_EDGE('',*,*,#391,.F.);
#755 = ORIENTED_EDGE('',*,*,#716,.T.);
#756 = ORIENTED_EDGE('',*,*,#142,.T.);
#757 = ORIENTED_EDGE('',*,*,#758,.F.);
#758 = EDGE_CURVE('',#384,#143,#759,.T.);
#759 = LINE('',#760,#761);
#760 = CARTESIAN_POINT('',(-11.83215956619,2.,11.));
#761 = VECTOR('',#762,1.);
#762 = DIRECTION('',(0.,0.,1.));
#763 = CYLINDRICAL_SURFACE('',#764,12.);
#764 = AXIS2_PLACEMENT_3D('',#765,#766,#767);
#765 = CARTESIAN_POINT('',(0.,0.,11.));
#766 = DIRECTION('',(-0.,-0.,-1.));
#767 = DIRECTION('',(1.,0.,0.));
#768 = ADVANCED_FACE('',(#769),#810,.T.);
#769 = FACE_BOUND('',#770,.T.);
#770 = EDGE_LOOP('',(#771,#772,#773,#781,#789,#795,#796,#804));
#771 = ORIENTED_EDGE('',*,*,#732,.T.);
#772 = ORIENTED_EDGE('',*,*,#175,.T.);
#773 = ORIENTED_EDGE('',*,*,#774,.T.);
#774 = EDGE_CURVE('',#168,#775,#777,.T.);
#775 = VERTEX_POINT('',#776);
#776 = CARTESIAN_POINT('',(-20.88194301613,6.,6.));
#777 = LINE('',#778,#779);
#778 = CARTESIAN_POINT('',(-20.88194301613,6.,11.));
#779 = VECTOR('',#780,1.);
#780 = DIRECTION('',(-0.,-0.,-1.));
#781 = ORIENTED_EDGE('',*,*,#782,.F.);
#782 = EDGE_CURVE('',#783,#775,#785,.T.);
#783 = VERTEX_POINT('',#784);
#784 = CARTESIAN_POINT('',(-20.88194301613,2.2,6.));
#785 = LINE('',#786,#787);
#786 = CARTESIAN_POINT('',(-20.88194301613,3.,6.));
#787 = VECTOR('',#788,1.);
#788 = DIRECTION('',(0.,1.,0.));
#789 = ORIENTED_EDGE('',*,*,#790,.F.);
#790 = EDGE_CURVE('',#360,#783,#791,.T.);
#791 = LINE('',#792,#793);
#792 = CARTESIAN_POINT('',(-20.88194301613,2.2,11.));
#793 = VECTOR('',#794,1.);
#794 = DIRECTION('',(-0.,-0.,-1.));
#795 = ORIENTED_EDGE('',*,*,#359,.F.);
#796 = ORIENTED_EDGE('',*,*,#797,.T.);
#797 = EDGE_CURVE('',#352,#798,#800,.T.);
#798 = VERTEX_POINT('',#799);
#799 = CARTESIAN_POINT('',(-20.88194301613,-2.2,6.));
#800 = LINE('',#801,#802);
#801 = CARTESIAN_POINT('',(-20.88194301613,-2.2,11.));
#802 = VECTOR('',#803,1.);
#803 = DIRECTION('',(-0.,-0.,-1.));
#804 = ORIENTED_EDGE('',*,*,#805,.F.);
#805 = EDGE_CURVE('',#733,#798,#806,.T.);
#806 = LINE('',#807,#808);
#807 = CARTESIAN_POINT('',(-20.88194301613,-1.1,6.));
#808 = VECTOR('',#809,1.);
#809 = DIRECTION('',(0.,1.,0.));
#810 = PLANE('',#811);
#811 = AXIS2_PLACEMENT_3D('',#812,#813,#814);
#812 = CARTESIAN_POINT('',(-20.88194301613,-2.732856676E-16,
    10.538461538462));
#813 = DIRECTION('',(-1.,-0.,-0.));
#814 = DIRECTION('',(0.,0.,-1.));
#815 = ADVANCED_FACE('',(#816),#827,.F.);
#816 = FACE_BOUND('',#817,.T.);
#817 = EDGE_LOOP('',(#818,#824,#825,#826));
#818 = ORIENTED_EDGE('',*,*,#819,.T.);
#819 = EDGE_CURVE('',#376,#152,#820,.T.);
#820 = LINE('',#821,#822);
#821 = CARTESIAN_POINT('',(-16.88194301613,2.,11.));
#822 = VECTOR('',#823,1.);
#823 = DIRECTION('',(0.,0.,1.));
#824 = ORIENTED_EDGE('',*,*,#151,.T.);
#825 = ORIENTED_EDGE('',*,*,#758,.F.);
#826 = ORIENTED_EDGE('',*,*,#383,.F.);
#827 = PLANE('',#828);
#828 = AXIS2_PLACEMENT_3D('',#829,#830,#831);
#829 = CARTESIAN_POINT('',(-16.88194301613,2.,11.));
#830 = DIRECTION('',(-0.,-1.,-0.));
#831 = DIRECTION('',(-1.,-0.,-0.));
#832 = ADVANCED_FACE('',(#833),#851,.T.);
#833 = FACE_BOUND('',#834,.T.);
#834 = EDGE_LOOP('',(#835,#836,#844,#850));
#835 = ORIENTED_EDGE('',*,*,#167,.T.);
#836 = ORIENTED_EDGE('',*,*,#837,.F.);
#837 = EDGE_CURVE('',#838,#160,#840,.T.);
#838 = VERTEX_POINT('',#839);
#839 = CARTESIAN_POINT('',(-16.88194301613,6.,6.));
#840 = LINE('',#841,#842);
#841 = CARTESIAN_POINT('',(-16.88194301613,6.,11.));
#842 = VECTOR('',#843,1.);
#843 = DIRECTION('',(0.,0.,1.));
#844 = ORIENTED_EDGE('',*,*,#845,.F.);
#845 = EDGE_CURVE('',#775,#838,#846,.T.);
#846 = LINE('',#847,#848);
#847 = CARTESIAN_POINT('',(6.488626224824,6.,6.));
#848 = VECTOR('',#849,1.);
#849 = DIRECTION('',(1.,0.,0.));
#850 = ORIENTED_EDGE('',*,*,#774,.F.);
#851 = PLANE('',#852);
#852 = AXIS2_PLACEMENT_3D('',#853,#854,#855);
#853 = CARTESIAN_POINT('',(-18.88194301613,6.,10.5));
#854 = DIRECTION('',(0.,1.,5.844290900191E-16));
#855 = DIRECTION('',(0.,-5.844290900191E-16,1.));
#856 = ADVANCED_FACE('',(#857),#877,.T.);
#857 = FACE_BOUND('',#858,.T.);
#858 = EDGE_LOOP('',(#859,#860,#861,#862,#863,#871));
#859 = ORIENTED_EDGE('',*,*,#837,.T.);
#860 = ORIENTED_EDGE('',*,*,#159,.T.);
#861 = ORIENTED_EDGE('',*,*,#819,.F.);
#862 = ORIENTED_EDGE('',*,*,#375,.F.);
#863 = ORIENTED_EDGE('',*,*,#864,.T.);
#864 = EDGE_CURVE('',#368,#865,#867,.T.);
#865 = VERTEX_POINT('',#866);
#866 = CARTESIAN_POINT('',(-16.88194301613,2.2,6.));
#867 = LINE('',#868,#869);
#868 = CARTESIAN_POINT('',(-16.88194301613,2.2,11.));
#869 = VECTOR('',#870,1.);
#870 = DIRECTION('',(-0.,-0.,-1.));
#871 = ORIENTED_EDGE('',*,*,#872,.F.);
#872 = EDGE_CURVE('',#838,#865,#873,.T.);
#873 = LINE('',#874,#875);
#874 = CARTESIAN_POINT('',(-16.88194301613,1.1,6.));
#875 = VECTOR('',#876,1.);
#876 = DIRECTION('',(0.,-1.,0.));
#877 = PLANE('',#878);
#878 = AXIS2_PLACEMENT_3D('',#879,#880,#881);
#879 = CARTESIAN_POINT('',(-16.88194301613,4.038461538462,
    10.538461538462));
#880 = DIRECTION('',(1.,0.,0.));
#881 = DIRECTION('',(0.,0.,1.));
#882 = ADVANCED_FACE('',(#883),#899,.F.);
#883 = FACE_BOUND('',#884,.F.);
#884 = EDGE_LOOP('',(#885,#886,#892,#893));
#885 = ORIENTED_EDGE('',*,*,#224,.F.);
#886 = ORIENTED_EDGE('',*,*,#887,.T.);
#887 = EDGE_CURVE('',#225,#443,#888,.T.);
#888 = LINE('',#889,#890);
#889 = CARTESIAN_POINT('',(-0.707106781187,5.292893218813,15.));
#890 = VECTOR('',#891,1.);
#891 = DIRECTION('',(-0.,-0.,-1.));
#892 = ORIENTED_EDGE('',*,*,#451,.T.);
#893 = ORIENTED_EDGE('',*,*,#894,.F.);
#894 = EDGE_CURVE('',#227,#452,#895,.T.);
#895 = LINE('',#896,#897);
#896 = CARTESIAN_POINT('',(-5.292893218813,0.707106781187,15.));
#897 = VECTOR('',#898,1.);
#898 = DIRECTION('',(-0.,-0.,-1.));
#899 = PLANE('',#900);
#900 = AXIS2_PLACEMENT_3D('',#901,#902,#903);
#901 = CARTESIAN_POINT('',(-0.707106781187,5.292893218813,15.));
#902 = DIRECTION('',(-0.707106781187,0.707106781187,0.));
#903 = DIRECTION('',(-0.707106781187,-0.707106781187,0.));
#904 = ADVANCED_FACE('',(#905),#916,.F.);
#905 = FACE_BOUND('',#906,.F.);
#906 = EDGE_LOOP('',(#907,#908,#909,#910));
#907 = ORIENTED_EDGE('',*,*,#285,.F.);
#908 = ORIENTED_EDGE('',*,*,#894,.T.);
#909 = ORIENTED_EDGE('',*,*,#459,.T.);
#910 = ORIENTED_EDGE('',*,*,#911,.F.);
#911 = EDGE_CURVE('',#278,#460,#912,.T.);
#912 = LINE('',#913,#914);
#913 = CARTESIAN_POINT('',(-5.292893218813,-0.707106781187,15.));
#914 = VECTOR('',#915,1.);
#915 = DIRECTION('',(-0.,-0.,-1.));
#916 = CYLINDRICAL_SURFACE('',#917,1.);
#917 = AXIS2_PLACEMENT_3D('',#918,#919,#920);
#918 = CARTESIAN_POINT('',(-4.585786437627,6.468147937304E-16,15.));
#919 = DIRECTION('',(0.,0.,1.));
#920 = DIRECTION('',(1.,0.,0.));
#921 = ADVANCED_FACE('',(#922),#933,.F.);
#922 = FACE_BOUND('',#923,.F.);
#923 = EDGE_LOOP('',(#924,#925,#926,#927));
#924 = ORIENTED_EDGE('',*,*,#277,.F.);
#925 = ORIENTED_EDGE('',*,*,#911,.T.);
#926 = ORIENTED_EDGE('',*,*,#468,.T.);
#927 = ORIENTED_EDGE('',*,*,#928,.F.);
#928 = EDGE_CURVE('',#269,#469,#929,.T.);
#929 = LINE('',#930,#931);
#930 = CARTESIAN_POINT('',(-0.707106781187,-5.292893218813,15.));
#931 = VECTOR('',#932,1.);
#932 = DIRECTION('',(-0.,-0.,-1.));
#933 = PLANE('',#934);
#934 = AXIS2_PLACEMENT_3D('',#935,#936,#937);
#935 = CARTESIAN_POINT('',(-5.292893218813,-0.707106781187,15.));
#936 = DIRECTION('',(-0.707106781187,-0.707106781187,0.));
#937 = DIRECTION('',(0.707106781187,-0.707106781187,0.));
#938 = ADVANCED_FACE('',(#939),#950,.F.);
#939 = FACE_BOUND('',#940,.F.);
#940 = EDGE_LOOP('',(#941,#942,#943,#944));
#941 = ORIENTED_EDGE('',*,*,#268,.F.);
#942 = ORIENTED_EDGE('',*,*,#928,.T.);
#943 = ORIENTED_EDGE('',*,*,#476,.T.);
#944 = ORIENTED_EDGE('',*,*,#945,.F.);
#945 = EDGE_CURVE('',#261,#477,#946,.T.);
#946 = LINE('',#947,#948);
#947 = CARTESIAN_POINT('',(0.707106781187,-5.292893218813,15.));
#948 = VECTOR('',#949,1.);
#949 = DIRECTION('',(-0.,-0.,-1.));
#950 = CYLINDRICAL_SURFACE('',#951,1.);
#951 = AXIS2_PLACEMENT_3D('',#952,#953,#954);
#952 = CARTESIAN_POINT('',(-3.012943867421E-16,-4.585786437627,15.));
#953 = DIRECTION('',(0.,0.,1.));
#954 = DIRECTION('',(1.,0.,0.));
#955 = ADVANCED_FACE('',(#956),#967,.F.);
#956 = FACE_BOUND('',#957,.F.);
#957 = EDGE_LOOP('',(#958,#959,#960,#961));
#958 = ORIENTED_EDGE('',*,*,#260,.F.);
#959 = ORIENTED_EDGE('',*,*,#945,.T.);
#960 = ORIENTED_EDGE('',*,*,#485,.T.);
#961 = ORIENTED_EDGE('',*,*,#962,.F.);
#962 = EDGE_CURVE('',#252,#486,#963,.T.);
#963 = LINE('',#964,#965);
#964 = CARTESIAN_POINT('',(5.292893218813,-0.707106781187,15.));
#965 = VECTOR('',#966,1.);
#966 = DIRECTION('',(-0.,-0.,-1.));
#967 = PLANE('',#968);
#968 = AXIS2_PLACEMENT_3D('',#969,#970,#971);
#969 = CARTESIAN_POINT('',(0.707106781187,-5.292893218813,15.));
#970 = DIRECTION('',(0.707106781187,-0.707106781187,0.));
#971 = DIRECTION('',(0.707106781187,0.707106781187,0.));
#972 = ADVANCED_FACE('',(#973),#984,.F.);
#973 = FACE_BOUND('',#974,.F.);
#974 = EDGE_LOOP('',(#975,#976,#977,#978));
#975 = ORIENTED_EDGE('',*,*,#251,.F.);
#976 = ORIENTED_EDGE('',*,*,#962,.T.);
#977 = ORIENTED_EDGE('',*,*,#493,.T.);
#978 = ORIENTED_EDGE('',*,*,#979,.F.);
#979 = EDGE_CURVE('',#244,#494,#980,.T.);
#980 = LINE('',#981,#982);
#981 = CARTESIAN_POINT('',(5.292893218813,0.707106781187,15.));
#982 = VECTOR('',#983,1.);
#983 = DIRECTION('',(-0.,-0.,-1.));
#984 = CYLINDRICAL_SURFACE('',#985,1.);
#985 = AXIS2_PLACEMENT_3D('',#986,#987,#988);
#986 = CARTESIAN_POINT('',(4.585786437627,-3.290119715137E-16,15.));
#987 = DIRECTION('',(0.,0.,1.));
#988 = DIRECTION('',(1.,0.,0.));
#989 = ADVANCED_FACE('',(#990),#1001,.F.);
#990 = FACE_BOUND('',#991,.F.);
#991 = EDGE_LOOP('',(#992,#993,#994,#995));
#992 = ORIENTED_EDGE('',*,*,#243,.F.);
#993 = ORIENTED_EDGE('',*,*,#979,.T.);
#994 = ORIENTED_EDGE('',*,*,#502,.T.);
#995 = ORIENTED_EDGE('',*,*,#996,.F.);
#996 = EDGE_CURVE('',#235,#441,#997,.T.);
#997 = LINE('',#998,#999);
#998 = CARTESIAN_POINT('',(0.707106781187,5.292893218813,15.));
#999 = VECTOR('',#1000,1.);
#1000 = DIRECTION('',(-0.,-0.,-1.));
#1001 = PLANE('',#1002);
#1002 = AXIS2_PLACEMENT_3D('',#1003,#1004,#1005);
#1003 = CARTESIAN_POINT('',(5.292893218813,0.707106781187,15.));
#1004 = DIRECTION('',(0.707106781187,0.707106781187,0.));
#1005 = DIRECTION('',(-0.707106781187,0.707106781187,0.));
#1006 = ADVANCED_FACE('',(#1007),#1013,.F.);
#1007 = FACE_BOUND('',#1008,.F.);
#1008 = EDGE_LOOP('',(#1009,#1010,#1011,#1012));
#1009 = ORIENTED_EDGE('',*,*,#234,.F.);
#1010 = ORIENTED_EDGE('',*,*,#996,.T.);
#1011 = ORIENTED_EDGE('',*,*,#440,.T.);
#1012 = ORIENTED_EDGE('',*,*,#887,.F.);
#1013 = CYLINDRICAL_SURFACE('',#1014,1.);
#1014 = AXIS2_PLACEMENT_3D('',#1015,#1016,#1017);
#1015 = CARTESIAN_POINT('',(-3.171942425323E-16,4.585786437627,15.));
#1016 = DIRECTION('',(0.,0.,1.));
#1017 = DIRECTION('',(1.,0.,0.));
#1018 = ADVANCED_FACE('',(#1019),#1030,.F.);
#1019 = FACE_BOUND('',#1020,.F.);
#1020 = EDGE_LOOP('',(#1021,#1022,#1023,#1029));
#1021 = ORIENTED_EDGE('',*,*,#416,.F.);
#1022 = ORIENTED_EDGE('',*,*,#561,.T.);
#1023 = ORIENTED_EDGE('',*,*,#1024,.F.);
#1024 = EDGE_CURVE('',#652,#562,#1025,.T.);
#1025 = LINE('',#1026,#1027);
#1026 = CARTESIAN_POINT('',(-4.488626224824,2.2,6.));
#1027 = VECTOR('',#1028,1.);
#1028 = DIRECTION('',(1.,0.,0.));
#1029 = ORIENTED_EDGE('',*,*,#659,.F.);
#1030 = PLANE('',#1031);
#1031 = AXIS2_PLACEMENT_3D('',#1032,#1033,#1034);
#1032 = CARTESIAN_POINT('',(20.881943016134,2.2,11.));
#1033 = DIRECTION('',(0.,1.,0.));
#1034 = DIRECTION('',(-1.,0.,0.));
#1035 = ADVANCED_FACE('',(#1036),#1047,.F.);
#1036 = FACE_BOUND('',#1037,.T.);
#1037 = EDGE_LOOP('',(#1038,#1039,#1040,#1046));
#1038 = ORIENTED_EDGE('',*,*,#351,.F.);
#1039 = ORIENTED_EDGE('',*,*,#697,.T.);
#1040 = ORIENTED_EDGE('',*,*,#1041,.F.);
#1041 = EDGE_CURVE('',#798,#690,#1042,.T.);
#1042 = LINE('',#1043,#1044);
#1043 = CARTESIAN_POINT('',(6.488626224824,-2.2,6.));
#1044 = VECTOR('',#1045,1.);
#1045 = DIRECTION('',(1.,0.,0.));
#1046 = ORIENTED_EDGE('',*,*,#797,.F.);
#1047 = PLANE('',#1048);
#1048 = AXIS2_PLACEMENT_3D('',#1049,#1050,#1051);
#1049 = CARTESIAN_POINT('',(-16.88194301613,-2.2,11.));
#1050 = DIRECTION('',(-0.,-1.,-0.));
#1051 = DIRECTION('',(1.,0.,0.));
#1052 = ADVANCED_FACE('',(#1053),#1064,.F.);
#1053 = FACE_BOUND('',#1054,.T.);
#1054 = EDGE_LOOP('',(#1055,#1056,#1057,#1063));
#1055 = ORIENTED_EDGE('',*,*,#367,.F.);
#1056 = ORIENTED_EDGE('',*,*,#790,.T.);
#1057 = ORIENTED_EDGE('',*,*,#1058,.F.);
#1058 = EDGE_CURVE('',#865,#783,#1059,.T.);
#1059 = LINE('',#1060,#1061);
#1060 = CARTESIAN_POINT('',(4.488626224824,2.2,6.));
#1061 = VECTOR('',#1062,1.);
#1062 = DIRECTION('',(-1.,-0.,-0.));
#1063 = ORIENTED_EDGE('',*,*,#864,.F.);
#1064 = PLANE('',#1065);
#1065 = AXIS2_PLACEMENT_3D('',#1066,#1067,#1068);
#1066 = CARTESIAN_POINT('',(-20.88194301613,2.2,11.));
#1067 = DIRECTION('',(0.,1.,0.));
#1068 = DIRECTION('',(-1.,-0.,-0.));
#1069 = ADVANCED_FACE('',(#1070),#1076,.F.);
#1070 = FACE_BOUND('',#1071,.F.);
#1071 = EDGE_LOOP('',(#1072,#1073,#1074,#1075));
#1072 = ORIENTED_EDGE('',*,*,#569,.T.);
#1073 = ORIENTED_EDGE('',*,*,#610,.T.);
#1074 = ORIENTED_EDGE('',*,*,#651,.T.);
#1075 = ORIENTED_EDGE('',*,*,#1024,.T.);
#1076 = PLANE('',#1077);
#1077 = AXIS2_PLACEMENT_3D('',#1078,#1079,#1080);
#1078 = CARTESIAN_POINT('',(-29.85919546578,5.163E-14,6.));
#1079 = DIRECTION('',(0.,0.,1.));
#1080 = DIRECTION('',(1.,0.,0.));
#1081 = ADVANCED_FACE('',(#1082),#1088,.F.);
#1082 = FACE_BOUND('',#1083,.T.);
#1083 = EDGE_LOOP('',(#1084,#1085,#1086,#1087));
#1084 = ORIENTED_EDGE('',*,*,#1041,.T.);
#1085 = ORIENTED_EDGE('',*,*,#689,.T.);
#1086 = ORIENTED_EDGE('',*,*,#740,.T.);
#1087 = ORIENTED_EDGE('',*,*,#805,.T.);
#1088 = PLANE('',#1089);
#1089 = AXIS2_PLACEMENT_3D('',#1090,#1091,#1092);
#1090 = CARTESIAN_POINT('',(29.859195465782,5.163E-14,6.));
#1091 = DIRECTION('',(0.,0.,1.));
#1092 = DIRECTION('',(1.,0.,0.));
#1093 = ADVANCED_FACE('',(#1094),#1100,.F.);
#1094 = FACE_BOUND('',#1095,.T.);
#1095 = EDGE_LOOP('',(#1096,#1097,#1098,#1099));
#1096 = ORIENTED_EDGE('',*,*,#782,.T.);
#1097 = ORIENTED_EDGE('',*,*,#845,.T.);
#1098 = ORIENTED_EDGE('',*,*,#872,.T.);
#1099 = ORIENTED_EDGE('',*,*,#1058,.T.);
#1100 = PLANE('',#1101);
#1101 = AXIS2_PLACEMENT_3D('',#1102,#1103,#1104);
#1102 = CARTESIAN_POINT('',(29.859195465782,5.163E-14,6.));
#1103 = DIRECTION('',(0.,0.,1.));
#1104 = DIRECTION('',(1.,0.,0.));
#1105 = ( GEOMETRIC_REPRESENTATION_CONTEXT(3) 
GLOBAL_UNCERTAINTY_ASSIGNED_CONTEXT((#1109)) 
GLOBAL_UNIT_ASSIGNED_CONTEXT((#1106,#1107,#1108)) REPRESENTATION_CONTEXT
('Context #1','3D Context with UNIT and UNCERTAINTY') );
#1106 = ( LENGTH_UNIT() NAMED_UNIT(*) SI_UNIT(.MILLI.,.METRE.) );
#1107 = ( NAMED_UNIT(*) PLANE_ANGLE_UNIT() SI_UNIT($,.RADIAN.) );
#1108 = ( NAMED_UNIT(*) SI_UNIT($,.STERADIAN.) SOLID_ANGLE_UNIT() );
#1109 = UNCERTAINTY_MEASURE_WITH_UNIT(LENGTH_MEASURE(2.E-07),#1106,
  'distance_accuracy_value','confusion accuracy');
#1110 = PRODUCT_RELATED_PRODUCT_CATEGORY('part',$,(#7));
#1111 = MECHANICAL_DESIGN_GEOMETRIC_PRESENTATION_REPRESENTATION('',(
    #1112),#1105);
#1112 = STYLED_ITEM('color',(#1113),#15);
#1113 = PRESENTATION_STYLE_ASSIGNMENT((#1114,#1120));
#1114 = SURFACE_STYLE_USAGE(.BOTH.,#1115);
#1115 = SURFACE_SIDE_STYLE('',(#1116));
#1116 = SURFACE_STYLE_FILL_AREA(#1117);
#1117 = FILL_AREA_STYLE('',(#1118));
#1118 = FILL_AREA_STYLE_COLOUR('',#1119);
#1119 = COLOUR_RGB('',0.447058818107,0.474509808674,0.501960817233);
#1120 = CURVE_STYLE('',#1121,POSITIVE_LENGTH_MEASURE(0.1),#1122);
#1121 = DRAUGHTING_PRE_DEFINED_CURVE_FONT('continuous');
#1122 = COLOUR_RGB('',9.803921802644E-02,9.803921802644E-02,
  9.803921802644E-02);
ENDSEC;
END-ISO-10303-21;
