ISO-10303-21;
HEADER;
FILE_DESCRIPTION(('FreeCAD Model'),'2;1');
FILE_NAME('Open CASCADE Shape Model','2026-01-18T07:29:36',(''),(''),
  'Open CASCADE STEP processor 7.8','FreeCAD','Unknown');
FILE_SCHEMA(('AUTOMOTIVE_DESIGN { 1 0 10303 214 1 1 1 1 }'));
ENDSEC;
DATA;
#1 = APPLICATION_PROTOCOL_DEFINITION('international standard',
  'automotive_design',2000,#2);
#2 = APPLICATION_CONTEXT(
  'core data for automotive mechanical design processes');
#3 = SHAPE_DEFINITION_REPRESENTATION(#4,#10);
#4 = PRODUCT_DEFINITION_SHAPE('','',#5);
#5 = PRODUCT_DEFINITION('design','',#6,#9);
#6 = PRODUCT_DEFINITION_FORMATION('','',#7);
#7 = PRODUCT('mirrors_with_points_and_lines',
  'mirrors_with_points_and_lines','',(#8));
#8 = PRODUCT_CONTEXT('',#2,'mechanical');
#9 = PRODUCT_DEFINITION_CONTEXT('part definition',#2,'design');
#10 = ADVANCED_BREP_SHAPE_REPRESENTATION('',(#11,#15),#2090);
#11 = AXIS2_PLACEMENT_3D('',#12,#13,#14);
#12 = CARTESIAN_POINT('',(0.,0.,0.));
#13 = DIRECTION('',(0.,0.,1.));
#14 = DIRECTION('',(1.,0.,-0.));
#15 = MANIFOLD_SOLID_BREP('',#16);
#16 = CLOSED_SHELL('',(#17,#57,#194,#219,#244,#329,#385,#402,#419,#442,
    #454,#485,#510,#535,#559,#583,#608,#633,#650,#704,#728,#775,#792,
    #809,#821,#846,#873,#885,#928,#1045,#1070,#1095,#1232,#1249,#1266,
    #1309,#1325,#1373,#1390,#1436,#1490,#1514,#1561,#1578,#1610,#1641,
    #1666,#1691,#1715,#1739,#1764,#1789,#1806,#1838,#1863,#1887,#1914,
    #1938,#1963,#1988,#2005,#2017,#2044,#2056,#2074));
#17 = ADVANCED_FACE('',(#18),#52,.F.);
#18 = FACE_BOUND('',#19,.F.);
#19 = EDGE_LOOP('',(#20,#30,#38,#46));
#20 = ORIENTED_EDGE('',*,*,#21,.T.);
#21 = EDGE_CURVE('',#22,#24,#26,.T.);
#22 = VERTEX_POINT('',#23);
#23 = CARTESIAN_POINT('',(4.737615433932,-8.697413408577,53.4));
#24 = VERTEX_POINT('',#25);
#25 = CARTESIAN_POINT('',(4.737615433932,-8.697413408577,70.4));
#26 = LINE('',#27,#28);
#27 = CARTESIAN_POINT('',(4.737615433932,-8.697413408577,52.4));
#28 = VECTOR('',#29,1.);
#29 = DIRECTION('',(0.,0.,1.));
#30 = ORIENTED_EDGE('',*,*,#31,.T.);
#31 = EDGE_CURVE('',#24,#32,#34,.T.);
#32 = VERTEX_POINT('',#33);
#33 = CARTESIAN_POINT('',(10.525840533323,-2.909188309186,70.4));
#34 = LINE('',#35,#36);
#35 = CARTESIAN_POINT('',(4.737615433932,-8.697413408577,70.4));
#36 = VECTOR('',#37,1.);
#37 = DIRECTION('',(0.707106781187,0.707106781187,0.));
#38 = ORIENTED_EDGE('',*,*,#39,.F.);
#39 = EDGE_CURVE('',#40,#32,#42,.T.);
#40 = VERTEX_POINT('',#41);
#41 = CARTESIAN_POINT('',(10.525840533323,-2.909188309186,53.4));
#42 = LINE('',#43,#44);
#43 = CARTESIAN_POINT('',(10.525840533323,-2.909188309186,52.4));
#44 = VECTOR('',#45,1.);
#45 = DIRECTION('',(0.,0.,1.));
#46 = ORIENTED_EDGE('',*,*,#47,.F.);
#47 = EDGE_CURVE('',#22,#40,#48,.T.);
#48 = LINE('',#49,#50);
#49 = CARTESIAN_POINT('',(4.737615433932,-8.697413408577,53.4));
#50 = VECTOR('',#51,1.);
#51 = DIRECTION('',(0.707106781187,0.707106781187,0.));
#52 = PLANE('',#53);
#53 = AXIS2_PLACEMENT_3D('',#54,#55,#56);
#54 = CARTESIAN_POINT('',(4.737615433932,-8.697413408577,52.4));
#55 = DIRECTION('',(-0.707106781187,0.707106781187,0.));
#56 = DIRECTION('',(0.707106781187,0.707106781187,0.));
#57 = ADVANCED_FACE('',(#58,#119),#189,.F.);
#58 = FACE_BOUND('',#59,.F.);
#59 = EDGE_LOOP('',(#60,#70,#79,#87,#94,#95,#104,#112));
#60 = ORIENTED_EDGE('',*,*,#61,.T.);
#61 = EDGE_CURVE('',#62,#64,#66,.T.);
#62 = VERTEX_POINT('',#63);
#63 = CARTESIAN_POINT('',(-8.697413408612,4.737615433967,53.4));
#64 = VERTEX_POINT('',#65);
#65 = CARTESIAN_POINT('',(-8.697413408612,4.737615433967,70.4));
#66 = LINE('',#67,#68);
#67 = CARTESIAN_POINT('',(-8.697413408612,4.737615433967,52.4));
#68 = VECTOR('',#69,1.);
#69 = DIRECTION('',(0.,0.,1.));
#70 = ORIENTED_EDGE('',*,*,#71,.F.);
#71 = EDGE_CURVE('',#72,#64,#74,.T.);
#72 = VERTEX_POINT('',#73);
#73 = CARTESIAN_POINT('',(-7.990306627425,4.030508652781,71.4));
#74 = CIRCLE('',#75,1.);
#75 = AXIS2_PLACEMENT_3D('',#76,#77,#78);
#76 = CARTESIAN_POINT('',(-7.990306627425,4.030508652781,70.4));
#77 = DIRECTION('',(-0.707106781187,-0.707106781187,0.));
#78 = DIRECTION('',(0.,0.,1.));
#79 = ORIENTED_EDGE('',*,*,#80,.T.);
#80 = EDGE_CURVE('',#72,#81,#83,.T.);
#81 = VERTEX_POINT('',#82);
#82 = CARTESIAN_POINT('',(4.030508652746,-7.990306627391,71.4));
#83 = LINE('',#84,#85);
#84 = CARTESIAN_POINT('',(-8.697413408612,4.737615433967,71.4));
#85 = VECTOR('',#86,1.);
#86 = DIRECTION('',(0.707106781187,-0.707106781187,0.));
#87 = ORIENTED_EDGE('',*,*,#88,.F.);
#88 = EDGE_CURVE('',#24,#81,#89,.T.);
#89 = CIRCLE('',#90,1.);
#90 = AXIS2_PLACEMENT_3D('',#91,#92,#93);
#91 = CARTESIAN_POINT('',(4.030508652746,-7.990306627391,70.4));
#92 = DIRECTION('',(-0.707106781187,-0.707106781187,0.));
#93 = DIRECTION('',(-0.,0.,-1.));
#94 = ORIENTED_EDGE('',*,*,#21,.F.);
#95 = ORIENTED_EDGE('',*,*,#96,.T.);
#96 = EDGE_CURVE('',#22,#97,#99,.T.);
#97 = VERTEX_POINT('',#98);
#98 = CARTESIAN_POINT('',(4.030508652746,-7.990306627391,52.4));
#99 = CIRCLE('',#100,1.);
#100 = AXIS2_PLACEMENT_3D('',#101,#102,#103);
#101 = CARTESIAN_POINT('',(4.030508652746,-7.990306627391,53.4));
#102 = DIRECTION('',(0.707106781187,0.707106781187,0.));
#103 = DIRECTION('',(-0.,0.,-1.));
#104 = ORIENTED_EDGE('',*,*,#105,.F.);
#105 = EDGE_CURVE('',#106,#97,#108,.T.);
#106 = VERTEX_POINT('',#107);
#107 = CARTESIAN_POINT('',(-7.990306627425,4.030508652781,52.4));
#108 = LINE('',#109,#110);
#109 = CARTESIAN_POINT('',(-8.697413408612,4.737615433967,52.4));
#110 = VECTOR('',#111,1.);
#111 = DIRECTION('',(0.707106781187,-0.707106781187,0.));
#112 = ORIENTED_EDGE('',*,*,#113,.T.);
#113 = EDGE_CURVE('',#106,#62,#114,.T.);
#114 = CIRCLE('',#115,1.);
#115 = AXIS2_PLACEMENT_3D('',#116,#117,#118);
#116 = CARTESIAN_POINT('',(-7.990306627425,4.030508652781,53.4));
#117 = DIRECTION('',(0.707106781187,0.707106781187,-0.));
#118 = DIRECTION('',(0.,0.,1.));
#119 = FACE_BOUND('',#120,.F.);
#120 = EDGE_LOOP('',(#121,#131,#140,#148,#157,#165,#174,#182));
#121 = ORIENTED_EDGE('',*,*,#122,.F.);
#122 = EDGE_CURVE('',#123,#125,#127,.T.);
#123 = VERTEX_POINT('',#124);
#124 = CARTESIAN_POINT('',(2.616295090373,-6.576093065018,67.4));
#125 = VERTEX_POINT('',#126);
#126 = CARTESIAN_POINT('',(2.616295090373,-6.576093065018,56.4));
#127 = LINE('',#128,#129);
#128 = CARTESIAN_POINT('',(2.616295090373,-6.576093065018,60.4));
#129 = VECTOR('',#130,1.);
#130 = DIRECTION('',(-0.,0.,-1.));
#131 = ORIENTED_EDGE('',*,*,#132,.T.);
#132 = EDGE_CURVE('',#123,#133,#135,.T.);
#133 = VERTEX_POINT('',#134);
#134 = CARTESIAN_POINT('',(1.909188309186,-5.868986283831,68.4));
#135 = CIRCLE('',#136,1.);
#136 = AXIS2_PLACEMENT_3D('',#137,#138,#139);
#137 = CARTESIAN_POINT('',(1.909188309186,-5.868986283831,67.4));
#138 = DIRECTION('',(-0.707106781187,-0.707106781187,-2.2E-16));
#139 = DIRECTION('',(-1.55563491861E-16,-1.55563491861E-16,1.));
#140 = ORIENTED_EDGE('',*,*,#141,.F.);
#141 = EDGE_CURVE('',#142,#133,#144,.T.);
#142 = VERTEX_POINT('',#143);
#143 = CARTESIAN_POINT('',(-5.868986283866,1.909188309221,68.4));
#144 = LINE('',#145,#146);
#145 = CARTESIAN_POINT('',(-7.636753236832,3.676955262187,68.4));
#146 = VECTOR('',#147,1.);
#147 = DIRECTION('',(0.707106781187,-0.707106781187,0.));
#148 = ORIENTED_EDGE('',*,*,#149,.F.);
#149 = EDGE_CURVE('',#150,#142,#152,.T.);
#150 = VERTEX_POINT('',#151);
#151 = CARTESIAN_POINT('',(-6.576093065052,2.616295090408,67.4));
#152 = CIRCLE('',#153,1.);
#153 = AXIS2_PLACEMENT_3D('',#154,#155,#156);
#154 = CARTESIAN_POINT('',(-5.868986283866,1.909188309221,67.4));
#155 = DIRECTION('',(0.707106781187,0.707106781187,2.2E-16));
#156 = DIRECTION('',(-1.55563491861E-16,-1.55563491861E-16,1.));
#157 = ORIENTED_EDGE('',*,*,#158,.F.);
#158 = EDGE_CURVE('',#159,#150,#161,.T.);
#159 = VERTEX_POINT('',#160);
#160 = CARTESIAN_POINT('',(-6.576093065052,2.616295090408,56.4));
#161 = LINE('',#162,#163);
#162 = CARTESIAN_POINT('',(-6.576093065052,2.616295090408,53.9));
#163 = VECTOR('',#164,1.);
#164 = DIRECTION('',(0.,0.,1.));
#165 = ORIENTED_EDGE('',*,*,#166,.F.);
#166 = EDGE_CURVE('',#167,#159,#169,.T.);
#167 = VERTEX_POINT('',#168);
#168 = CARTESIAN_POINT('',(-5.868986283866,1.909188309221,55.4));
#169 = CIRCLE('',#170,1.);
#170 = AXIS2_PLACEMENT_3D('',#171,#172,#173);
#171 = CARTESIAN_POINT('',(-5.868986283866,1.909188309221,56.4));
#172 = DIRECTION('',(0.707106781187,0.707106781187,2.2E-16));
#173 = DIRECTION('',(-1.55563491861E-16,-1.55563491861E-16,1.));
#174 = ORIENTED_EDGE('',*,*,#175,.F.);
#175 = EDGE_CURVE('',#176,#167,#178,.T.);
#176 = VERTEX_POINT('',#177);
#177 = CARTESIAN_POINT('',(1.909188309186,-5.868986283831,55.4));
#178 = LINE('',#179,#180);
#179 = CARTESIAN_POINT('',(-3.04055915912,-0.919238815525,55.4));
#180 = VECTOR('',#181,1.);
#181 = DIRECTION('',(-0.707106781187,0.707106781187,0.));
#182 = ORIENTED_EDGE('',*,*,#183,.F.);
#183 = EDGE_CURVE('',#125,#176,#184,.T.);
#184 = CIRCLE('',#185,1.);
#185 = AXIS2_PLACEMENT_3D('',#186,#187,#188);
#186 = CARTESIAN_POINT('',(1.909188309186,-5.868986283831,56.4));
#187 = DIRECTION('',(0.707106781187,0.707106781187,2.2E-16));
#188 = DIRECTION('',(-1.55563491861E-16,-1.55563491861E-16,1.));
#189 = PLANE('',#190);
#190 = AXIS2_PLACEMENT_3D('',#191,#192,#193);
#191 = CARTESIAN_POINT('',(-8.697413408612,4.737615433967,52.4));
#192 = DIRECTION('',(0.707106781187,0.707106781187,0.));
#193 = DIRECTION('',(0.707106781187,-0.707106781187,0.));
#194 = ADVANCED_FACE('',(#195),#214,.T.);
#195 = FACE_BOUND('',#196,.T.);
#196 = EDGE_LOOP('',(#197,#198,#206,#213));
#197 = ORIENTED_EDGE('',*,*,#96,.T.);
#198 = ORIENTED_EDGE('',*,*,#199,.T.);
#199 = EDGE_CURVE('',#97,#200,#202,.T.);
#200 = VERTEX_POINT('',#201);
#201 = CARTESIAN_POINT('',(9.818733752137,-2.202081528,52.4));
#202 = LINE('',#203,#204);
#203 = CARTESIAN_POINT('',(4.030508652746,-7.990306627391,52.4));
#204 = VECTOR('',#205,1.);
#205 = DIRECTION('',(0.707106781187,0.707106781187,0.));
#206 = ORIENTED_EDGE('',*,*,#207,.F.);
#207 = EDGE_CURVE('',#40,#200,#208,.T.);
#208 = CIRCLE('',#209,1.);
#209 = AXIS2_PLACEMENT_3D('',#210,#211,#212);
#210 = CARTESIAN_POINT('',(9.818733752137,-2.202081528,53.4));
#211 = DIRECTION('',(0.707106781187,0.707106781187,0.));
#212 = DIRECTION('',(-0.,0.,-1.));
#213 = ORIENTED_EDGE('',*,*,#47,.F.);
#214 = CYLINDRICAL_SURFACE('',#215,1.);
#215 = AXIS2_PLACEMENT_3D('',#216,#217,#218);
#216 = CARTESIAN_POINT('',(4.030508652746,-7.990306627391,53.4));
#217 = DIRECTION('',(0.707106781187,0.707106781187,0.));
#218 = DIRECTION('',(0.707106781187,-0.707106781187,0.));
#219 = ADVANCED_FACE('',(#220),#239,.T.);
#220 = FACE_BOUND('',#221,.F.);
#221 = EDGE_LOOP('',(#222,#223,#231,#238));
#222 = ORIENTED_EDGE('',*,*,#88,.T.);
#223 = ORIENTED_EDGE('',*,*,#224,.T.);
#224 = EDGE_CURVE('',#81,#225,#227,.T.);
#225 = VERTEX_POINT('',#226);
#226 = CARTESIAN_POINT('',(9.818733752137,-2.202081528,71.4));
#227 = LINE('',#228,#229);
#228 = CARTESIAN_POINT('',(4.030508652746,-7.990306627391,71.4));
#229 = VECTOR('',#230,1.);
#230 = DIRECTION('',(0.707106781187,0.707106781187,0.));
#231 = ORIENTED_EDGE('',*,*,#232,.F.);
#232 = EDGE_CURVE('',#32,#225,#233,.T.);
#233 = CIRCLE('',#234,1.);
#234 = AXIS2_PLACEMENT_3D('',#235,#236,#237);
#235 = CARTESIAN_POINT('',(9.818733752137,-2.202081528,70.4));
#236 = DIRECTION('',(-0.707106781187,-0.707106781187,0.));
#237 = DIRECTION('',(-0.,0.,-1.));
#238 = ORIENTED_EDGE('',*,*,#31,.F.);
#239 = CYLINDRICAL_SURFACE('',#240,1.);
#240 = AXIS2_PLACEMENT_3D('',#241,#242,#243);
#241 = CARTESIAN_POINT('',(4.030508652746,-7.990306627391,70.4));
#242 = DIRECTION('',(0.707106781187,0.707106781187,0.));
#243 = DIRECTION('',(0.707106781187,-0.707106781187,0.));
#244 = ADVANCED_FACE('',(#245,#290),#324,.F.);
#245 = FACE_BOUND('',#246,.F.);
#246 = EDGE_LOOP('',(#247,#248,#249,#257,#266,#274,#283,#289));
#247 = ORIENTED_EDGE('',*,*,#39,.T.);
#248 = ORIENTED_EDGE('',*,*,#232,.T.);
#249 = ORIENTED_EDGE('',*,*,#250,.T.);
#250 = EDGE_CURVE('',#225,#251,#253,.T.);
#251 = VERTEX_POINT('',#252);
#252 = CARTESIAN_POINT('',(-2.202081528035,9.818733752172,71.4));
#253 = LINE('',#254,#255);
#254 = CARTESIAN_POINT('',(10.525840533323,-2.909188309186,71.4));
#255 = VECTOR('',#256,1.);
#256 = DIRECTION('',(-0.707106781187,0.707106781187,0.));
#257 = ORIENTED_EDGE('',*,*,#258,.T.);
#258 = EDGE_CURVE('',#251,#259,#261,.T.);
#259 = VERTEX_POINT('',#260);
#260 = CARTESIAN_POINT('',(-2.909188309221,10.525840533358,70.4));
#261 = CIRCLE('',#262,1.);
#262 = AXIS2_PLACEMENT_3D('',#263,#264,#265);
#263 = CARTESIAN_POINT('',(-2.202081528035,9.818733752172,70.4));
#264 = DIRECTION('',(-0.707106781187,-0.707106781187,0.));
#265 = DIRECTION('',(0.,0.,1.));
#266 = ORIENTED_EDGE('',*,*,#267,.F.);
#267 = EDGE_CURVE('',#268,#259,#270,.T.);
#268 = VERTEX_POINT('',#269);
#269 = CARTESIAN_POINT('',(-2.909188309221,10.525840533358,53.4));
#270 = LINE('',#271,#272);
#271 = CARTESIAN_POINT('',(-2.909188309221,10.525840533358,52.4));
#272 = VECTOR('',#273,1.);
#273 = DIRECTION('',(0.,0.,1.));
#274 = ORIENTED_EDGE('',*,*,#275,.F.);
#275 = EDGE_CURVE('',#276,#268,#278,.T.);
#276 = VERTEX_POINT('',#277);
#277 = CARTESIAN_POINT('',(-2.202081528035,9.818733752172,52.4));
#278 = CIRCLE('',#279,1.);
#279 = AXIS2_PLACEMENT_3D('',#280,#281,#282);
#280 = CARTESIAN_POINT('',(-2.202081528035,9.818733752172,53.4));
#281 = DIRECTION('',(0.707106781187,0.707106781187,-0.));
#282 = DIRECTION('',(0.,0.,1.));
#283 = ORIENTED_EDGE('',*,*,#284,.F.);
#284 = EDGE_CURVE('',#200,#276,#285,.T.);
#285 = LINE('',#286,#287);
#286 = CARTESIAN_POINT('',(10.525840533323,-2.909188309186,52.4));
#287 = VECTOR('',#288,1.);
#288 = DIRECTION('',(-0.707106781187,0.707106781187,0.));
#289 = ORIENTED_EDGE('',*,*,#207,.F.);
#290 = FACE_BOUND('',#291,.F.);
#291 = EDGE_LOOP('',(#292,#302,#310,#318));
#292 = ORIENTED_EDGE('',*,*,#293,.T.);
#293 = EDGE_CURVE('',#294,#296,#298,.T.);
#294 = VERTEX_POINT('',#295);
#295 = CARTESIAN_POINT('',(-1.494974746848,9.111626970985,69.4));
#296 = VERTEX_POINT('',#297);
#297 = CARTESIAN_POINT('',(9.11162697095,-1.494974746813,69.4));
#298 = LINE('',#299,#300);
#299 = CARTESIAN_POINT('',(-1.494974746848,9.111626970985,69.4));
#300 = VECTOR('',#301,1.);
#301 = DIRECTION('',(0.707106781187,-0.707106781187,0.));
#302 = ORIENTED_EDGE('',*,*,#303,.T.);
#303 = EDGE_CURVE('',#296,#304,#306,.T.);
#304 = VERTEX_POINT('',#305);
#305 = CARTESIAN_POINT('',(9.11162697095,-1.494974746813,54.4));
#306 = LINE('',#307,#308);
#307 = CARTESIAN_POINT('',(9.11162697095,-1.494974746813,69.4));
#308 = VECTOR('',#309,1.);
#309 = DIRECTION('',(0.,0.,-1.));
#310 = ORIENTED_EDGE('',*,*,#311,.T.);
#311 = EDGE_CURVE('',#304,#312,#314,.T.);
#312 = VERTEX_POINT('',#313);
#313 = CARTESIAN_POINT('',(-1.494974746848,9.111626970985,54.4));
#314 = LINE('',#315,#316);
#315 = CARTESIAN_POINT('',(9.11162697095,-1.494974746813,54.4));
#316 = VECTOR('',#317,1.);
#317 = DIRECTION('',(-0.707106781187,0.707106781187,0.));
#318 = ORIENTED_EDGE('',*,*,#319,.T.);
#319 = EDGE_CURVE('',#312,#294,#320,.T.);
#320 = LINE('',#321,#322);
#321 = CARTESIAN_POINT('',(-1.494974746848,9.111626970985,54.4));
#322 = VECTOR('',#323,1.);
#323 = DIRECTION('',(0.,0.,1.));
#324 = PLANE('',#325);
#325 = AXIS2_PLACEMENT_3D('',#326,#327,#328);
#326 = CARTESIAN_POINT('',(10.525840533323,-2.909188309186,52.4));
#327 = DIRECTION('',(-0.707106781187,-0.707106781187,0.));
#328 = DIRECTION('',(-0.707106781187,0.707106781187,0.));
#329 = ADVANCED_FACE('',(#330,#346),#380,.F.);
#330 = FACE_BOUND('',#331,.F.);
#331 = EDGE_LOOP('',(#332,#333,#339,#340));
#332 = ORIENTED_EDGE('',*,*,#267,.T.);
#333 = ORIENTED_EDGE('',*,*,#334,.T.);
#334 = EDGE_CURVE('',#259,#64,#335,.T.);
#335 = LINE('',#336,#337);
#336 = CARTESIAN_POINT('',(-2.909188309221,10.525840533358,70.4));
#337 = VECTOR('',#338,1.);
#338 = DIRECTION('',(-0.707106781187,-0.707106781187,0.));
#339 = ORIENTED_EDGE('',*,*,#61,.F.);
#340 = ORIENTED_EDGE('',*,*,#341,.F.);
#341 = EDGE_CURVE('',#268,#62,#342,.T.);
#342 = LINE('',#343,#344);
#343 = CARTESIAN_POINT('',(-2.909188309221,10.525840533358,53.4));
#344 = VECTOR('',#345,1.);
#345 = DIRECTION('',(-0.707106781187,-0.707106781187,0.));
#346 = FACE_BOUND('',#347,.F.);
#347 = EDGE_LOOP('',(#348,#358,#366,#374));
#348 = ORIENTED_EDGE('',*,*,#349,.F.);
#349 = EDGE_CURVE('',#350,#352,#354,.T.);
#350 = VERTEX_POINT('',#351);
#351 = CARTESIAN_POINT('',(-6.586143571391,6.848885271188,69.4));
#352 = VERTEX_POINT('',#353);
#353 = CARTESIAN_POINT('',(-6.586143571391,6.848885271188,54.4));
#354 = LINE('',#355,#356);
#355 = CARTESIAN_POINT('',(-6.586143571391,6.848885271188,69.4));
#356 = VECTOR('',#357,1.);
#357 = DIRECTION('',(-0.,0.,-1.));
#358 = ORIENTED_EDGE('',*,*,#359,.T.);
#359 = EDGE_CURVE('',#350,#360,#362,.T.);
#360 = VERTEX_POINT('',#361);
#361 = CARTESIAN_POINT('',(-5.171930009018,8.263098833561,69.4));
#362 = LINE('',#363,#364);
#363 = CARTESIAN_POINT('',(-6.586143571391,6.848885271188,69.4));
#364 = VECTOR('',#365,1.);
#365 = DIRECTION('',(0.707106781187,0.707106781187,0.));
#366 = ORIENTED_EDGE('',*,*,#367,.T.);
#367 = EDGE_CURVE('',#360,#368,#370,.T.);
#368 = VERTEX_POINT('',#369);
#369 = CARTESIAN_POINT('',(-5.171930009018,8.263098833561,54.4));
#370 = LINE('',#371,#372);
#371 = CARTESIAN_POINT('',(-5.171930009018,8.263098833561,69.4));
#372 = VECTOR('',#373,1.);
#373 = DIRECTION('',(-0.,0.,-1.));
#374 = ORIENTED_EDGE('',*,*,#375,.T.);
#375 = EDGE_CURVE('',#368,#352,#376,.T.);
#376 = LINE('',#377,#378);
#377 = CARTESIAN_POINT('',(-5.171930009018,8.263098833561,54.4));
#378 = VECTOR('',#379,1.);
#379 = DIRECTION('',(-0.707106781187,-0.707106781187,0.));
#380 = PLANE('',#381);
#381 = AXIS2_PLACEMENT_3D('',#382,#383,#384);
#382 = CARTESIAN_POINT('',(-2.909188309221,10.525840533358,52.4));
#383 = DIRECTION('',(0.707106781187,-0.707106781187,0.));
#384 = DIRECTION('',(-0.707106781187,-0.707106781187,0.));
#385 = ADVANCED_FACE('',(#386),#397,.T.);
#386 = FACE_BOUND('',#387,.F.);
#387 = EDGE_LOOP('',(#388,#389,#390,#391));
#388 = ORIENTED_EDGE('',*,*,#275,.T.);
#389 = ORIENTED_EDGE('',*,*,#341,.T.);
#390 = ORIENTED_EDGE('',*,*,#113,.F.);
#391 = ORIENTED_EDGE('',*,*,#392,.F.);
#392 = EDGE_CURVE('',#276,#106,#393,.T.);
#393 = LINE('',#394,#395);
#394 = CARTESIAN_POINT('',(-2.202081528035,9.818733752172,52.4));
#395 = VECTOR('',#396,1.);
#396 = DIRECTION('',(-0.707106781187,-0.707106781187,0.));
#397 = CYLINDRICAL_SURFACE('',#398,1.);
#398 = AXIS2_PLACEMENT_3D('',#399,#400,#401);
#399 = CARTESIAN_POINT('',(-2.202081528035,9.818733752172,53.4));
#400 = DIRECTION('',(-0.707106781187,-0.707106781187,0.));
#401 = DIRECTION('',(-0.,0.,-1.));
#402 = ADVANCED_FACE('',(#403),#414,.T.);
#403 = FACE_BOUND('',#404,.T.);
#404 = EDGE_LOOP('',(#405,#406,#407,#408));
#405 = ORIENTED_EDGE('',*,*,#258,.T.);
#406 = ORIENTED_EDGE('',*,*,#334,.T.);
#407 = ORIENTED_EDGE('',*,*,#71,.F.);
#408 = ORIENTED_EDGE('',*,*,#409,.F.);
#409 = EDGE_CURVE('',#251,#72,#410,.T.);
#410 = LINE('',#411,#412);
#411 = CARTESIAN_POINT('',(-2.202081528035,9.818733752172,71.4));
#412 = VECTOR('',#413,1.);
#413 = DIRECTION('',(-0.707106781187,-0.707106781187,0.));
#414 = CYLINDRICAL_SURFACE('',#415,1.);
#415 = AXIS2_PLACEMENT_3D('',#416,#417,#418);
#416 = CARTESIAN_POINT('',(-2.202081528035,9.818733752172,70.4));
#417 = DIRECTION('',(-0.707106781187,-0.707106781187,0.));
#418 = DIRECTION('',(0.,0.,1.));
#419 = ADVANCED_FACE('',(#420,#426),#437,.F.);
#420 = FACE_BOUND('',#421,.F.);
#421 = EDGE_LOOP('',(#422,#423,#424,#425));
#422 = ORIENTED_EDGE('',*,*,#284,.T.);
#423 = ORIENTED_EDGE('',*,*,#392,.T.);
#424 = ORIENTED_EDGE('',*,*,#105,.T.);
#425 = ORIENTED_EDGE('',*,*,#199,.T.);
#426 = FACE_BOUND('',#427,.F.);
#427 = EDGE_LOOP('',(#428));
#428 = ORIENTED_EDGE('',*,*,#429,.T.);
#429 = EDGE_CURVE('',#430,#430,#432,.T.);
#430 = VERTEX_POINT('',#431);
#431 = CARTESIAN_POINT('',(-2.459311941879E-11,-1.707106781187,52.4));
#432 = CIRCLE('',#433,3.);
#433 = AXIS2_PLACEMENT_3D('',#434,#435,#436);
#434 = CARTESIAN_POINT('',(-2.45917184969E-11,1.292893218813,52.4));
#435 = DIRECTION('',(-0.,0.,-1.));
#436 = DIRECTION('',(-2.22044604925E-16,-1.,0.));
#437 = PLANE('',#438);
#438 = AXIS2_PLACEMENT_3D('',#439,#440,#441);
#439 = CARTESIAN_POINT('',(0.914213562356,0.91421356239,52.4));
#440 = DIRECTION('',(0.,0.,1.));
#441 = DIRECTION('',(-0.707106781187,0.707106781187,0.));
#442 = ADVANCED_FACE('',(#443),#449,.T.);
#443 = FACE_BOUND('',#444,.T.);
#444 = EDGE_LOOP('',(#445,#446,#447,#448));
#445 = ORIENTED_EDGE('',*,*,#250,.T.);
#446 = ORIENTED_EDGE('',*,*,#409,.T.);
#447 = ORIENTED_EDGE('',*,*,#80,.T.);
#448 = ORIENTED_EDGE('',*,*,#224,.T.);
#449 = PLANE('',#450);
#450 = AXIS2_PLACEMENT_3D('',#451,#452,#453);
#451 = CARTESIAN_POINT('',(0.914213562356,0.91421356239,71.4));
#452 = DIRECTION('',(0.,0.,1.));
#453 = DIRECTION('',(-0.707106781187,0.707106781187,0.));
#454 = ADVANCED_FACE('',(#455),#480,.F.);
#455 = FACE_BOUND('',#456,.F.);
#456 = EDGE_LOOP('',(#457,#467,#473,#474));
#457 = ORIENTED_EDGE('',*,*,#458,.T.);
#458 = EDGE_CURVE('',#459,#461,#463,.T.);
#459 = VERTEX_POINT('',#460);
#460 = CARTESIAN_POINT('',(3.313351365221,-5.87903679017,56.4));
#461 = VERTEX_POINT('',#462);
#462 = CARTESIAN_POINT('',(3.313351365221,-5.87903679017,67.4));
#463 = LINE('',#464,#465);
#464 = CARTESIAN_POINT('',(3.313351365221,-5.87903679017,65.15));
#465 = VECTOR('',#466,1.);
#466 = DIRECTION('',(0.,0.,1.));
#467 = ORIENTED_EDGE('',*,*,#468,.T.);
#468 = EDGE_CURVE('',#461,#123,#469,.T.);
#469 = LINE('',#470,#471);
#470 = CARTESIAN_POINT('',(3.313351365221,-5.87903679017,67.4));
#471 = VECTOR('',#472,1.);
#472 = DIRECTION('',(-0.707106781187,-0.707106781187,-2.2E-16));
#473 = ORIENTED_EDGE('',*,*,#122,.T.);
#474 = ORIENTED_EDGE('',*,*,#475,.F.);
#475 = EDGE_CURVE('',#459,#125,#476,.T.);
#476 = LINE('',#477,#478);
#477 = CARTESIAN_POINT('',(3.313351365221,-5.87903679017,56.4));
#478 = VECTOR('',#479,1.);
#479 = DIRECTION('',(-0.707106781187,-0.707106781187,-2.2E-16));
#480 = PLANE('',#481);
#481 = AXIS2_PLACEMENT_3D('',#482,#483,#484);
#482 = CARTESIAN_POINT('',(8.404520189764,-0.787867965627,68.4));
#483 = DIRECTION('',(0.707106781187,-0.707106781187,0.));
#484 = DIRECTION('',(1.55563491861E-16,1.55563491861E-16,-1.));
#485 = ADVANCED_FACE('',(#486),#505,.F.);
#486 = FACE_BOUND('',#487,.F.);
#487 = EDGE_LOOP('',(#488,#497,#503,#504));
#488 = ORIENTED_EDGE('',*,*,#489,.T.);
#489 = EDGE_CURVE('',#461,#490,#492,.T.);
#490 = VERTEX_POINT('',#491);
#491 = CARTESIAN_POINT('',(2.606244584034,-5.171930008983,68.4));
#492 = CIRCLE('',#493,1.);
#493 = AXIS2_PLACEMENT_3D('',#494,#495,#496);
#494 = CARTESIAN_POINT('',(2.606244584034,-5.171930008983,67.4));
#495 = DIRECTION('',(-0.707106781187,-0.707106781187,-2.2E-16));
#496 = DIRECTION('',(-1.55563491861E-16,-1.55563491861E-16,1.));
#497 = ORIENTED_EDGE('',*,*,#498,.T.);
#498 = EDGE_CURVE('',#490,#133,#499,.T.);
#499 = LINE('',#500,#501);
#500 = CARTESIAN_POINT('',(2.606244584034,-5.171930008983,68.4));
#501 = VECTOR('',#502,1.);
#502 = DIRECTION('',(-0.707106781187,-0.707106781187,-2.2E-16));
#503 = ORIENTED_EDGE('',*,*,#132,.F.);
#504 = ORIENTED_EDGE('',*,*,#468,.F.);
#505 = CYLINDRICAL_SURFACE('',#506,1.);
#506 = AXIS2_PLACEMENT_3D('',#507,#508,#509);
#507 = CARTESIAN_POINT('',(2.606244584034,-5.171930008983,67.4));
#508 = DIRECTION('',(-0.707106781187,-0.707106781187,-2.2E-16));
#509 = DIRECTION('',(0.707106781187,-0.707106781187,0.));
#510 = ADVANCED_FACE('',(#511),#530,.F.);
#511 = FACE_BOUND('',#512,.T.);
#512 = EDGE_LOOP('',(#513,#522,#528,#529));
#513 = ORIENTED_EDGE('',*,*,#514,.T.);
#514 = EDGE_CURVE('',#459,#515,#517,.T.);
#515 = VERTEX_POINT('',#516);
#516 = CARTESIAN_POINT('',(2.606244584034,-5.171930008983,55.4));
#517 = CIRCLE('',#518,1.);
#518 = AXIS2_PLACEMENT_3D('',#519,#520,#521);
#519 = CARTESIAN_POINT('',(2.606244584034,-5.171930008983,56.4));
#520 = DIRECTION('',(0.707106781187,0.707106781187,2.2E-16));
#521 = DIRECTION('',(-1.55563491861E-16,-1.55563491861E-16,1.));
#522 = ORIENTED_EDGE('',*,*,#523,.T.);
#523 = EDGE_CURVE('',#515,#176,#524,.T.);
#524 = LINE('',#525,#526);
#525 = CARTESIAN_POINT('',(2.606244584034,-5.171930008983,55.4));
#526 = VECTOR('',#527,1.);
#527 = DIRECTION('',(-0.707106781187,-0.707106781187,-2.2E-16));
#528 = ORIENTED_EDGE('',*,*,#183,.F.);
#529 = ORIENTED_EDGE('',*,*,#475,.F.);
#530 = CYLINDRICAL_SURFACE('',#531,1.);
#531 = AXIS2_PLACEMENT_3D('',#532,#533,#534);
#532 = CARTESIAN_POINT('',(2.606244584034,-5.171930008983,56.4));
#533 = DIRECTION('',(-0.707106781187,-0.707106781187,-2.2E-16));
#534 = DIRECTION('',(0.707106781187,-0.707106781187,0.));
#535 = ADVANCED_FACE('',(#536),#554,.F.);
#536 = FACE_BOUND('',#537,.F.);
#537 = EDGE_LOOP('',(#538,#546,#552,#553));
#538 = ORIENTED_EDGE('',*,*,#539,.T.);
#539 = EDGE_CURVE('',#490,#540,#542,.T.);
#540 = VERTEX_POINT('',#541);
#541 = CARTESIAN_POINT('',(-5.171930009018,2.606244584069,68.4));
#542 = LINE('',#543,#544);
#543 = CARTESIAN_POINT('',(-3.580939751348,1.015254326399,68.4));
#544 = VECTOR('',#545,1.);
#545 = DIRECTION('',(-0.707106781187,0.707106781187,0.));
#546 = ORIENTED_EDGE('',*,*,#547,.T.);
#547 = EDGE_CURVE('',#540,#142,#548,.T.);
#548 = LINE('',#549,#550);
#549 = CARTESIAN_POINT('',(-5.171930009018,2.606244584069,68.4));
#550 = VECTOR('',#551,1.);
#551 = DIRECTION('',(-0.707106781187,-0.707106781187,-2.2E-16));
#552 = ORIENTED_EDGE('',*,*,#141,.T.);
#553 = ORIENTED_EDGE('',*,*,#498,.F.);
#554 = PLANE('',#555);
#555 = AXIS2_PLACEMENT_3D('',#556,#557,#558);
#556 = CARTESIAN_POINT('',(-0.787867965661,8.404520189798,68.4));
#557 = DIRECTION('',(-1.55563491861E-16,-1.55563491861E-16,1.));
#558 = DIRECTION('',(0.707106781187,-0.707106781187,0.));
#559 = ADVANCED_FACE('',(#560),#578,.F.);
#560 = FACE_BOUND('',#561,.F.);
#561 = EDGE_LOOP('',(#562,#570,#571,#572));
#562 = ORIENTED_EDGE('',*,*,#563,.T.);
#563 = EDGE_CURVE('',#564,#515,#566,.T.);
#564 = VERTEX_POINT('',#565);
#565 = CARTESIAN_POINT('',(-5.171930009018,2.606244584069,55.4));
#566 = LINE('',#567,#568);
#567 = CARTESIAN_POINT('',(1.015254326364,-3.580939751314,55.4));
#568 = VECTOR('',#569,1.);
#569 = DIRECTION('',(0.707106781187,-0.707106781187,0.));
#570 = ORIENTED_EDGE('',*,*,#523,.T.);
#571 = ORIENTED_EDGE('',*,*,#175,.T.);
#572 = ORIENTED_EDGE('',*,*,#573,.F.);
#573 = EDGE_CURVE('',#564,#167,#574,.T.);
#574 = LINE('',#575,#576);
#575 = CARTESIAN_POINT('',(-5.171930009018,2.606244584069,55.4));
#576 = VECTOR('',#577,1.);
#577 = DIRECTION('',(-0.707106781187,-0.707106781187,-2.2E-16));
#578 = PLANE('',#579);
#579 = AXIS2_PLACEMENT_3D('',#580,#581,#582);
#580 = CARTESIAN_POINT('',(8.404520189764,-0.787867965627,55.4));
#581 = DIRECTION('',(1.55563491861E-16,1.55563491861E-16,-1.));
#582 = DIRECTION('',(-0.707106781187,0.707106781187,0.));
#583 = ADVANCED_FACE('',(#584),#603,.F.);
#584 = FACE_BOUND('',#585,.T.);
#585 = EDGE_LOOP('',(#586,#595,#596,#597));
#586 = ORIENTED_EDGE('',*,*,#587,.T.);
#587 = EDGE_CURVE('',#588,#540,#590,.T.);
#588 = VERTEX_POINT('',#589);
#589 = CARTESIAN_POINT('',(-5.879036790205,3.313351365255,67.4));
#590 = CIRCLE('',#591,1.);
#591 = AXIS2_PLACEMENT_3D('',#592,#593,#594);
#592 = CARTESIAN_POINT('',(-5.171930009018,2.606244584069,67.4));
#593 = DIRECTION('',(0.707106781187,0.707106781187,2.2E-16));
#594 = DIRECTION('',(-1.55563491861E-16,-1.55563491861E-16,1.));
#595 = ORIENTED_EDGE('',*,*,#547,.T.);
#596 = ORIENTED_EDGE('',*,*,#149,.F.);
#597 = ORIENTED_EDGE('',*,*,#598,.F.);
#598 = EDGE_CURVE('',#588,#150,#599,.T.);
#599 = LINE('',#600,#601);
#600 = CARTESIAN_POINT('',(-5.879036790205,3.313351365255,67.4));
#601 = VECTOR('',#602,1.);
#602 = DIRECTION('',(-0.707106781187,-0.707106781187,-2.2E-16));
#603 = CYLINDRICAL_SURFACE('',#604,1.);
#604 = AXIS2_PLACEMENT_3D('',#605,#606,#607);
#605 = CARTESIAN_POINT('',(-5.171930009018,2.606244584069,67.4));
#606 = DIRECTION('',(-0.707106781187,-0.707106781187,-2.2E-16));
#607 = DIRECTION('',(-0.707106781187,0.707106781187,0.));
#608 = ADVANCED_FACE('',(#609),#628,.F.);
#609 = FACE_BOUND('',#610,.T.);
#610 = EDGE_LOOP('',(#611,#620,#626,#627));
#611 = ORIENTED_EDGE('',*,*,#612,.T.);
#612 = EDGE_CURVE('',#564,#613,#615,.T.);
#613 = VERTEX_POINT('',#614);
#614 = CARTESIAN_POINT('',(-5.879036790205,3.313351365255,56.4));
#615 = CIRCLE('',#616,1.);
#616 = AXIS2_PLACEMENT_3D('',#617,#618,#619);
#617 = CARTESIAN_POINT('',(-5.171930009018,2.606244584069,56.4));
#618 = DIRECTION('',(0.707106781187,0.707106781187,2.2E-16));
#619 = DIRECTION('',(-1.55563491861E-16,-1.55563491861E-16,1.));
#620 = ORIENTED_EDGE('',*,*,#621,.T.);
#621 = EDGE_CURVE('',#613,#159,#622,.T.);
#622 = LINE('',#623,#624);
#623 = CARTESIAN_POINT('',(-5.879036790205,3.313351365255,56.4));
#624 = VECTOR('',#625,1.);
#625 = DIRECTION('',(-0.707106781187,-0.707106781187,-2.2E-16));
#626 = ORIENTED_EDGE('',*,*,#166,.F.);
#627 = ORIENTED_EDGE('',*,*,#573,.F.);
#628 = CYLINDRICAL_SURFACE('',#629,1.);
#629 = AXIS2_PLACEMENT_3D('',#630,#631,#632);
#630 = CARTESIAN_POINT('',(-5.171930009018,2.606244584069,56.4));
#631 = DIRECTION('',(-0.707106781187,-0.707106781187,-2.2E-16));
#632 = DIRECTION('',(1.55563491861E-16,1.55563491861E-16,-1.));
#633 = ADVANCED_FACE('',(#634),#645,.F.);
#634 = FACE_BOUND('',#635,.F.);
#635 = EDGE_LOOP('',(#636,#642,#643,#644));
#636 = ORIENTED_EDGE('',*,*,#637,.T.);
#637 = EDGE_CURVE('',#588,#613,#638,.T.);
#638 = LINE('',#639,#640);
#639 = CARTESIAN_POINT('',(-5.879036790205,3.313351365255,58.65));
#640 = VECTOR('',#641,1.);
#641 = DIRECTION('',(-0.,0.,-1.));
#642 = ORIENTED_EDGE('',*,*,#621,.T.);
#643 = ORIENTED_EDGE('',*,*,#158,.T.);
#644 = ORIENTED_EDGE('',*,*,#598,.F.);
#645 = PLANE('',#646);
#646 = AXIS2_PLACEMENT_3D('',#647,#648,#649);
#647 = CARTESIAN_POINT('',(-0.787867965661,8.404520189798,55.4));
#648 = DIRECTION('',(-0.707106781187,0.707106781187,0.));
#649 = DIRECTION('',(-1.55563491861E-16,-1.55563491861E-16,1.));
#650 = ADVANCED_FACE('',(#651),#699,.T.);
#651 = FACE_BOUND('',#652,.T.);
#652 = EDGE_LOOP('',(#653,#661,#662,#670,#678,#686,#692,#693));
#653 = ORIENTED_EDGE('',*,*,#654,.F.);
#654 = EDGE_CURVE('',#294,#655,#657,.T.);
#655 = VERTEX_POINT('',#656);
#656 = CARTESIAN_POINT('',(-3.757716446645,6.848885271188,69.4));
#657 = LINE('',#658,#659);
#658 = CARTESIAN_POINT('',(-1.494974746848,9.111626970985,69.4));
#659 = VECTOR('',#660,1.);
#660 = DIRECTION('',(-0.707106781187,-0.707106781187,-2.2E-16));
#661 = ORIENTED_EDGE('',*,*,#293,.T.);
#662 = ORIENTED_EDGE('',*,*,#663,.T.);
#663 = EDGE_CURVE('',#296,#664,#666,.T.);
#664 = VERTEX_POINT('',#665);
#665 = CARTESIAN_POINT('',(4.020458146407,-6.586143571356,69.4));
#666 = LINE('',#667,#668);
#667 = CARTESIAN_POINT('',(9.11162697095,-1.494974746813,69.4));
#668 = VECTOR('',#669,1.);
#669 = DIRECTION('',(-0.707106781187,-0.707106781187,-2.2E-16));
#670 = ORIENTED_EDGE('',*,*,#671,.F.);
#671 = EDGE_CURVE('',#672,#664,#674,.T.);
#672 = VERTEX_POINT('',#673);
#673 = CARTESIAN_POINT('',(-6.586143571391,4.020458146442,69.4));
#674 = LINE('',#675,#676);
#675 = CARTESIAN_POINT('',(-6.586143571391,4.020458146442,69.4));
#676 = VECTOR('',#677,1.);
#677 = DIRECTION('',(0.707106781187,-0.707106781187,0.));
#678 = ORIENTED_EDGE('',*,*,#679,.F.);
#679 = EDGE_CURVE('',#680,#672,#682,.T.);
#680 = VERTEX_POINT('',#681);
#681 = CARTESIAN_POINT('',(-5.171930009018,5.434671708815,69.4));
#682 = LINE('',#683,#684);
#683 = CARTESIAN_POINT('',(-1.494974746848,9.111626970985,69.4));
#684 = VECTOR('',#685,1.);
#685 = DIRECTION('',(-0.707106781187,-0.707106781187,-2.2E-16));
#686 = ORIENTED_EDGE('',*,*,#687,.F.);
#687 = EDGE_CURVE('',#350,#680,#688,.T.);
#688 = LINE('',#689,#690);
#689 = CARTESIAN_POINT('',(-6.586143571391,6.848885271188,69.4));
#690 = VECTOR('',#691,1.);
#691 = DIRECTION('',(0.707106781187,-0.707106781187,0.));
#692 = ORIENTED_EDGE('',*,*,#359,.T.);
#693 = ORIENTED_EDGE('',*,*,#694,.T.);
#694 = EDGE_CURVE('',#360,#655,#695,.T.);
#695 = LINE('',#696,#697);
#696 = CARTESIAN_POINT('',(-5.171930009018,8.263098833561,69.4));
#697 = VECTOR('',#698,1.);
#698 = DIRECTION('',(0.707106781187,-0.707106781187,0.));
#699 = PLANE('',#700);
#700 = AXIS2_PLACEMENT_3D('',#701,#702,#703);
#701 = CARTESIAN_POINT('',(0.672512072508,1.782845034737,69.4));
#702 = DIRECTION('',(0.,-0.,-1.));
#703 = DIRECTION('',(0.707106781187,-0.707106781187,0.));
#704 = ADVANCED_FACE('',(#705),#723,.F.);
#705 = FACE_BOUND('',#706,.F.);
#706 = EDGE_LOOP('',(#707,#708,#716,#722));
#707 = ORIENTED_EDGE('',*,*,#319,.F.);
#708 = ORIENTED_EDGE('',*,*,#709,.T.);
#709 = EDGE_CURVE('',#312,#710,#712,.T.);
#710 = VERTEX_POINT('',#711);
#711 = CARTESIAN_POINT('',(-3.757716446645,6.848885271188,54.4));
#712 = LINE('',#713,#714);
#713 = CARTESIAN_POINT('',(-1.494974746848,9.111626970985,54.4));
#714 = VECTOR('',#715,1.);
#715 = DIRECTION('',(-0.707106781187,-0.707106781187,-2.2E-16));
#716 = ORIENTED_EDGE('',*,*,#717,.T.);
#717 = EDGE_CURVE('',#710,#655,#718,.T.);
#718 = LINE('',#719,#720);
#719 = CARTESIAN_POINT('',(-3.757716446645,6.848885271188,61.9));
#720 = VECTOR('',#721,1.);
#721 = DIRECTION('',(0.,0.,1.));
#722 = ORIENTED_EDGE('',*,*,#654,.F.);
#723 = PLANE('',#724);
#724 = AXIS2_PLACEMENT_3D('',#725,#726,#727);
#725 = CARTESIAN_POINT('',(-1.494974746848,9.111626970985,54.4));
#726 = DIRECTION('',(-0.707106781187,0.707106781187,0.));
#727 = DIRECTION('',(-1.55563491861E-16,-1.55563491861E-16,1.));
#728 = ADVANCED_FACE('',(#729),#770,.T.);
#729 = FACE_BOUND('',#730,.T.);
#730 = EDGE_LOOP('',(#731,#739,#740,#741,#747,#748,#756,#764));
#731 = ORIENTED_EDGE('',*,*,#732,.F.);
#732 = EDGE_CURVE('',#304,#733,#735,.T.);
#733 = VERTEX_POINT('',#734);
#734 = CARTESIAN_POINT('',(4.020458146407,-6.586143571356,54.4));
#735 = LINE('',#736,#737);
#736 = CARTESIAN_POINT('',(9.11162697095,-1.494974746813,54.4));
#737 = VECTOR('',#738,1.);
#738 = DIRECTION('',(-0.707106781187,-0.707106781187,-2.2E-16));
#739 = ORIENTED_EDGE('',*,*,#311,.T.);
#740 = ORIENTED_EDGE('',*,*,#709,.T.);
#741 = ORIENTED_EDGE('',*,*,#742,.F.);
#742 = EDGE_CURVE('',#368,#710,#743,.T.);
#743 = LINE('',#744,#745);
#744 = CARTESIAN_POINT('',(-5.171930009018,8.263098833561,54.4));
#745 = VECTOR('',#746,1.);
#746 = DIRECTION('',(0.707106781187,-0.707106781187,0.));
#747 = ORIENTED_EDGE('',*,*,#375,.T.);
#748 = ORIENTED_EDGE('',*,*,#749,.T.);
#749 = EDGE_CURVE('',#352,#750,#752,.T.);
#750 = VERTEX_POINT('',#751);
#751 = CARTESIAN_POINT('',(-5.171930009018,5.434671708815,54.4));
#752 = LINE('',#753,#754);
#753 = CARTESIAN_POINT('',(-6.586143571391,6.848885271188,54.4));
#754 = VECTOR('',#755,1.);
#755 = DIRECTION('',(0.707106781187,-0.707106781187,0.));
#756 = ORIENTED_EDGE('',*,*,#757,.T.);
#757 = EDGE_CURVE('',#750,#758,#760,.T.);
#758 = VERTEX_POINT('',#759);
#759 = CARTESIAN_POINT('',(-6.586143571391,4.020458146442,54.4));
#760 = LINE('',#761,#762);
#761 = CARTESIAN_POINT('',(-1.494974746848,9.111626970985,54.4));
#762 = VECTOR('',#763,1.);
#763 = DIRECTION('',(-0.707106781187,-0.707106781187,-2.2E-16));
#764 = ORIENTED_EDGE('',*,*,#765,.F.);
#765 = EDGE_CURVE('',#733,#758,#766,.T.);
#766 = LINE('',#767,#768);
#767 = CARTESIAN_POINT('',(4.020458146407,-6.586143571356,54.4));
#768 = VECTOR('',#769,1.);
#769 = DIRECTION('',(-0.707106781187,0.707106781187,0.));
#770 = PLANE('',#771);
#771 = AXIS2_PLACEMENT_3D('',#772,#773,#774);
#772 = CARTESIAN_POINT('',(0.672512072508,1.782845034737,54.4));
#773 = DIRECTION('',(0.,0.,1.));
#774 = DIRECTION('',(-0.707106781187,0.707106781187,0.));
#775 = ADVANCED_FACE('',(#776),#787,.F.);
#776 = FACE_BOUND('',#777,.F.);
#777 = EDGE_LOOP('',(#778,#779,#785,#786));
#778 = ORIENTED_EDGE('',*,*,#663,.T.);
#779 = ORIENTED_EDGE('',*,*,#780,.T.);
#780 = EDGE_CURVE('',#664,#733,#781,.T.);
#781 = LINE('',#782,#783);
#782 = CARTESIAN_POINT('',(4.020458146407,-6.586143571356,69.4));
#783 = VECTOR('',#784,1.);
#784 = DIRECTION('',(0.,0.,-1.));
#785 = ORIENTED_EDGE('',*,*,#732,.F.);
#786 = ORIENTED_EDGE('',*,*,#303,.F.);
#787 = PLANE('',#788);
#788 = AXIS2_PLACEMENT_3D('',#789,#790,#791);
#789 = CARTESIAN_POINT('',(9.11162697095,-1.494974746813,69.4));
#790 = DIRECTION('',(0.707106781187,-0.707106781187,0.));
#791 = DIRECTION('',(1.55563491861E-16,1.55563491861E-16,-1.));
#792 = ADVANCED_FACE('',(#793),#804,.T.);
#793 = FACE_BOUND('',#794,.T.);
#794 = EDGE_LOOP('',(#795,#796,#797,#803));
#795 = ORIENTED_EDGE('',*,*,#349,.F.);
#796 = ORIENTED_EDGE('',*,*,#687,.T.);
#797 = ORIENTED_EDGE('',*,*,#798,.F.);
#798 = EDGE_CURVE('',#750,#680,#799,.T.);
#799 = LINE('',#800,#801);
#800 = CARTESIAN_POINT('',(-5.171930009018,5.434671708815,61.9));
#801 = VECTOR('',#802,1.);
#802 = DIRECTION('',(0.,0.,1.));
#803 = ORIENTED_EDGE('',*,*,#749,.F.);
#804 = PLANE('',#805);
#805 = AXIS2_PLACEMENT_3D('',#806,#807,#808);
#806 = CARTESIAN_POINT('',(-6.586143571391,6.848885271188,69.4));
#807 = DIRECTION('',(0.707106781187,0.707106781187,0.));
#808 = DIRECTION('',(-0.,0.,-1.));
#809 = ADVANCED_FACE('',(#810),#816,.F.);
#810 = FACE_BOUND('',#811,.F.);
#811 = EDGE_LOOP('',(#812,#813,#814,#815));
#812 = ORIENTED_EDGE('',*,*,#367,.F.);
#813 = ORIENTED_EDGE('',*,*,#694,.T.);
#814 = ORIENTED_EDGE('',*,*,#717,.F.);
#815 = ORIENTED_EDGE('',*,*,#742,.F.);
#816 = PLANE('',#817);
#817 = AXIS2_PLACEMENT_3D('',#818,#819,#820);
#818 = CARTESIAN_POINT('',(-5.171930009018,8.263098833561,69.4));
#819 = DIRECTION('',(0.707106781187,0.707106781187,0.));
#820 = DIRECTION('',(-0.,0.,-1.));
#821 = ADVANCED_FACE('',(#822),#841,.T.);
#822 = FACE_BOUND('',#823,.F.);
#823 = EDGE_LOOP('',(#824,#833,#839,#840));
#824 = ORIENTED_EDGE('',*,*,#825,.F.);
#825 = EDGE_CURVE('',#826,#826,#828,.T.);
#826 = VERTEX_POINT('',#827);
#827 = CARTESIAN_POINT('',(-2.459311941879E-11,-1.707106781187,48.4));
#828 = CIRCLE('',#829,3.);
#829 = AXIS2_PLACEMENT_3D('',#830,#831,#832);
#830 = CARTESIAN_POINT('',(-2.459166204005E-11,1.292893218813,48.4));
#831 = DIRECTION('',(0.,0.,1.));
#832 = DIRECTION('',(-2.22044604925E-16,-1.,0.));
#833 = ORIENTED_EDGE('',*,*,#834,.T.);
#834 = EDGE_CURVE('',#826,#430,#835,.T.);
#835 = LINE('',#836,#837);
#836 = CARTESIAN_POINT('',(-2.459299430768E-11,-1.707106781187,48.4));
#837 = VECTOR('',#838,1.);
#838 = DIRECTION('',(0.,0.,1.));
#839 = ORIENTED_EDGE('',*,*,#429,.F.);
#840 = ORIENTED_EDGE('',*,*,#834,.F.);
#841 = CYLINDRICAL_SURFACE('',#842,3.);
#842 = AXIS2_PLACEMENT_3D('',#843,#844,#845);
#843 = CARTESIAN_POINT('',(-2.459166204005E-11,1.292893218813,48.4));
#844 = DIRECTION('',(0.,0.,-1.));
#845 = DIRECTION('',(-2.22044604925E-16,-1.,0.));
#846 = ADVANCED_FACE('',(#847,#857),#868,.F.);
#847 = FACE_BOUND('',#848,.F.);
#848 = EDGE_LOOP('',(#849,#850,#851,#852,#853,#854,#855,#856));
#849 = ORIENTED_EDGE('',*,*,#458,.F.);
#850 = ORIENTED_EDGE('',*,*,#514,.T.);
#851 = ORIENTED_EDGE('',*,*,#563,.F.);
#852 = ORIENTED_EDGE('',*,*,#612,.T.);
#853 = ORIENTED_EDGE('',*,*,#637,.F.);
#854 = ORIENTED_EDGE('',*,*,#587,.T.);
#855 = ORIENTED_EDGE('',*,*,#539,.F.);
#856 = ORIENTED_EDGE('',*,*,#489,.F.);
#857 = FACE_BOUND('',#858,.F.);
#858 = EDGE_LOOP('',(#859,#860,#861,#867));
#859 = ORIENTED_EDGE('',*,*,#780,.F.);
#860 = ORIENTED_EDGE('',*,*,#671,.F.);
#861 = ORIENTED_EDGE('',*,*,#862,.F.);
#862 = EDGE_CURVE('',#758,#672,#863,.T.);
#863 = LINE('',#864,#865);
#864 = CARTESIAN_POINT('',(-6.586143571391,4.020458146442,54.4));
#865 = VECTOR('',#866,1.);
#866 = DIRECTION('',(0.,0.,1.));
#867 = ORIENTED_EDGE('',*,*,#765,.F.);
#868 = PLANE('',#869);
#869 = AXIS2_PLACEMENT_3D('',#870,#871,#872);
#870 = CARTESIAN_POINT('',(-1.282842712492,-1.282842712457,61.9));
#871 = DIRECTION('',(-0.707106781187,-0.707106781187,0.));
#872 = DIRECTION('',(0.,0.,1.));
#873 = ADVANCED_FACE('',(#874),#880,.F.);
#874 = FACE_BOUND('',#875,.F.);
#875 = EDGE_LOOP('',(#876,#877,#878,#879));
#876 = ORIENTED_EDGE('',*,*,#798,.F.);
#877 = ORIENTED_EDGE('',*,*,#757,.T.);
#878 = ORIENTED_EDGE('',*,*,#862,.T.);
#879 = ORIENTED_EDGE('',*,*,#679,.F.);
#880 = PLANE('',#881);
#881 = AXIS2_PLACEMENT_3D('',#882,#883,#884);
#882 = CARTESIAN_POINT('',(-1.494974746848,9.111626970985,54.4));
#883 = DIRECTION('',(-0.707106781187,0.707106781187,0.));
#884 = DIRECTION('',(-1.55563491861E-16,-1.55563491861E-16,1.));
#885 = ADVANCED_FACE('',(#886,#920),#923,.T.);
#886 = FACE_BOUND('',#887,.T.);
#887 = EDGE_LOOP('',(#888,#898,#906,#914));
#888 = ORIENTED_EDGE('',*,*,#889,.T.);
#889 = EDGE_CURVE('',#890,#892,#894,.T.);
#890 = VERTEX_POINT('',#891);
#891 = CARTESIAN_POINT('',(8.499999999975,5.385786437627,48.4));
#892 = VERTEX_POINT('',#893);
#893 = CARTESIAN_POINT('',(-8.500000000025,5.385786437627,48.4));
#894 = LINE('',#895,#896);
#895 = CARTESIAN_POINT('',(9.499999999975,5.385786437627,48.4));
#896 = VECTOR('',#897,1.);
#897 = DIRECTION('',(-1.,0.,0.));
#898 = ORIENTED_EDGE('',*,*,#899,.T.);
#899 = EDGE_CURVE('',#892,#900,#902,.T.);
#900 = VERTEX_POINT('',#901);
#901 = CARTESIAN_POINT('',(-8.500000000025,-2.8,48.4));
#902 = LINE('',#903,#904);
#903 = CARTESIAN_POINT('',(-8.500000000025,5.385786437627,48.4));
#904 = VECTOR('',#905,1.);
#905 = DIRECTION('',(0.,-1.,0.));
#906 = ORIENTED_EDGE('',*,*,#907,.T.);
#907 = EDGE_CURVE('',#900,#908,#910,.T.);
#908 = VERTEX_POINT('',#909);
#909 = CARTESIAN_POINT('',(8.499999999975,-2.8,48.4));
#910 = LINE('',#911,#912);
#911 = CARTESIAN_POINT('',(-9.500000000025,-2.8,48.4));
#912 = VECTOR('',#913,1.);
#913 = DIRECTION('',(1.,0.,0.));
#914 = ORIENTED_EDGE('',*,*,#915,.T.);
#915 = EDGE_CURVE('',#908,#890,#916,.T.);
#916 = LINE('',#917,#918);
#917 = CARTESIAN_POINT('',(8.499999999975,-2.8,48.4));
#918 = VECTOR('',#919,1.);
#919 = DIRECTION('',(0.,1.,0.));
#920 = FACE_BOUND('',#921,.T.);
#921 = EDGE_LOOP('',(#922));
#922 = ORIENTED_EDGE('',*,*,#825,.F.);
#923 = PLANE('',#924);
#924 = AXIS2_PLACEMENT_3D('',#925,#926,#927);
#925 = CARTESIAN_POINT('',(-2.459214E-11,1.292893218813,48.4));
#926 = DIRECTION('',(0.,0.,1.));
#927 = DIRECTION('',(-1.,0.,0.));
#928 = ADVANCED_FACE('',(#929,#1006),#1040,.F.);
#929 = FACE_BOUND('',#930,.F.);
#930 = EDGE_LOOP('',(#931,#941,#948,#949,#958,#966,#975,#983,#991,#999)
  );
#931 = ORIENTED_EDGE('',*,*,#932,.T.);
#932 = EDGE_CURVE('',#933,#935,#937,.T.);
#933 = VERTEX_POINT('',#934);
#934 = CARTESIAN_POINT('',(9.499999999975,5.385786437627,30.4));
#935 = VERTEX_POINT('',#936);
#936 = CARTESIAN_POINT('',(9.499999999975,5.385786437627,47.4));
#937 = LINE('',#938,#939);
#938 = CARTESIAN_POINT('',(9.499999999975,5.385786437627,29.4));
#939 = VECTOR('',#940,1.);
#940 = DIRECTION('',(0.,0.,1.));
#941 = ORIENTED_EDGE('',*,*,#942,.T.);
#942 = EDGE_CURVE('',#935,#890,#943,.T.);
#943 = CIRCLE('',#944,1.);
#944 = AXIS2_PLACEMENT_3D('',#945,#946,#947);
#945 = CARTESIAN_POINT('',(8.499999999975,5.385786437627,47.4));
#946 = DIRECTION('',(0.,-1.,0.));
#947 = DIRECTION('',(0.,-0.,-1.));
#948 = ORIENTED_EDGE('',*,*,#889,.T.);
#949 = ORIENTED_EDGE('',*,*,#950,.T.);
#950 = EDGE_CURVE('',#892,#951,#953,.T.);
#951 = VERTEX_POINT('',#952);
#952 = CARTESIAN_POINT('',(-9.500000000025,5.385786437627,47.4));
#953 = CIRCLE('',#954,1.);
#954 = AXIS2_PLACEMENT_3D('',#955,#956,#957);
#955 = CARTESIAN_POINT('',(-8.500000000025,5.385786437627,47.4));
#956 = DIRECTION('',(0.,-1.,0.));
#957 = DIRECTION('',(0.,0.,1.));
#958 = ORIENTED_EDGE('',*,*,#959,.F.);
#959 = EDGE_CURVE('',#960,#951,#962,.T.);
#960 = VERTEX_POINT('',#961);
#961 = CARTESIAN_POINT('',(-9.500000000025,5.385786437627,30.4));
#962 = LINE('',#963,#964);
#963 = CARTESIAN_POINT('',(-9.500000000025,5.385786437627,29.4));
#964 = VECTOR('',#965,1.);
#965 = DIRECTION('',(0.,0.,1.));
#966 = ORIENTED_EDGE('',*,*,#967,.F.);
#967 = EDGE_CURVE('',#968,#960,#970,.T.);
#968 = VERTEX_POINT('',#969);
#969 = CARTESIAN_POINT('',(-8.500000000025,5.385786437627,29.4));
#970 = CIRCLE('',#971,1.);
#971 = AXIS2_PLACEMENT_3D('',#972,#973,#974);
#972 = CARTESIAN_POINT('',(-8.500000000025,5.385786437627,30.4));
#973 = DIRECTION('',(0.,1.,0.));
#974 = DIRECTION('',(0.,0.,1.));
#975 = ORIENTED_EDGE('',*,*,#976,.F.);
#976 = EDGE_CURVE('',#977,#968,#979,.T.);
#977 = VERTEX_POINT('',#978);
#978 = CARTESIAN_POINT('',(-0.287228132327,5.385786437627,29.4));
#979 = LINE('',#980,#981);
#980 = CARTESIAN_POINT('',(9.499999999975,5.385786437627,29.4));
#981 = VECTOR('',#982,1.);
#982 = DIRECTION('',(-1.,0.,0.));
#983 = ORIENTED_EDGE('',*,*,#984,.F.);
#984 = EDGE_CURVE('',#985,#977,#987,.T.);
#985 = VERTEX_POINT('',#986);
#986 = CARTESIAN_POINT('',(0.287228132327,5.385786437627,29.4));
#987 = LINE('',#988,#989);
#988 = CARTESIAN_POINT('',(9.499999999975,5.385786437627,29.4));
#989 = VECTOR('',#990,1.);
#990 = DIRECTION('',(-1.,0.,0.));
#991 = ORIENTED_EDGE('',*,*,#992,.F.);
#992 = EDGE_CURVE('',#993,#985,#995,.T.);
#993 = VERTEX_POINT('',#994);
#994 = CARTESIAN_POINT('',(8.499999999975,5.385786437627,29.4));
#995 = LINE('',#996,#997);
#996 = CARTESIAN_POINT('',(9.499999999975,5.385786437627,29.4));
#997 = VECTOR('',#998,1.);
#998 = DIRECTION('',(-1.,0.,0.));
#999 = ORIENTED_EDGE('',*,*,#1000,.F.);
#1000 = EDGE_CURVE('',#933,#993,#1001,.T.);
#1001 = CIRCLE('',#1002,1.);
#1002 = AXIS2_PLACEMENT_3D('',#1003,#1004,#1005);
#1003 = CARTESIAN_POINT('',(8.499999999975,5.385786437627,30.4));
#1004 = DIRECTION('',(0.,1.,0.));
#1005 = DIRECTION('',(0.,-0.,-1.));
#1006 = FACE_BOUND('',#1007,.F.);
#1007 = EDGE_LOOP('',(#1008,#1018,#1026,#1034));
#1008 = ORIENTED_EDGE('',*,*,#1009,.T.);
#1009 = EDGE_CURVE('',#1010,#1012,#1014,.T.);
#1010 = VERTEX_POINT('',#1011);
#1011 = CARTESIAN_POINT('',(-7.500000000025,5.385786437627,46.4));
#1012 = VERTEX_POINT('',#1013);
#1013 = CARTESIAN_POINT('',(7.499999999975,5.385786437627,46.4));
#1014 = LINE('',#1015,#1016);
#1015 = CARTESIAN_POINT('',(-7.500000000025,5.385786437627,46.4));
#1016 = VECTOR('',#1017,1.);
#1017 = DIRECTION('',(1.,0.,0.));
#1018 = ORIENTED_EDGE('',*,*,#1019,.T.);
#1019 = EDGE_CURVE('',#1012,#1020,#1022,.T.);
#1020 = VERTEX_POINT('',#1021);
#1021 = CARTESIAN_POINT('',(7.499999999975,5.385786437627,31.4));
#1022 = LINE('',#1023,#1024);
#1023 = CARTESIAN_POINT('',(7.499999999975,5.385786437627,46.4));
#1024 = VECTOR('',#1025,1.);
#1025 = DIRECTION('',(-0.,0.,-1.));
#1026 = ORIENTED_EDGE('',*,*,#1027,.T.);
#1027 = EDGE_CURVE('',#1020,#1028,#1030,.T.);
#1028 = VERTEX_POINT('',#1029);
#1029 = CARTESIAN_POINT('',(-7.500000000025,5.385786437627,31.4));
#1030 = LINE('',#1031,#1032);
#1031 = CARTESIAN_POINT('',(7.499999999975,5.385786437627,31.4));
#1032 = VECTOR('',#1033,1.);
#1033 = DIRECTION('',(-1.,0.,0.));
#1034 = ORIENTED_EDGE('',*,*,#1035,.T.);
#1035 = EDGE_CURVE('',#1028,#1010,#1036,.T.);
#1036 = LINE('',#1037,#1038);
#1037 = CARTESIAN_POINT('',(-7.500000000025,5.385786437627,31.4));
#1038 = VECTOR('',#1039,1.);
#1039 = DIRECTION('',(0.,0.,1.));
#1040 = PLANE('',#1041);
#1041 = AXIS2_PLACEMENT_3D('',#1042,#1043,#1044);
#1042 = CARTESIAN_POINT('',(9.499999999975,5.385786437627,29.4));
#1043 = DIRECTION('',(0.,-1.,0.));
#1044 = DIRECTION('',(-1.,0.,0.));
#1045 = ADVANCED_FACE('',(#1046),#1065,.T.);
#1046 = FACE_BOUND('',#1047,.F.);
#1047 = EDGE_LOOP('',(#1048,#1057,#1058,#1059));
#1048 = ORIENTED_EDGE('',*,*,#1049,.T.);
#1049 = EDGE_CURVE('',#1050,#908,#1052,.T.);
#1050 = VERTEX_POINT('',#1051);
#1051 = CARTESIAN_POINT('',(9.499999999975,-2.8,47.4));
#1052 = CIRCLE('',#1053,1.);
#1053 = AXIS2_PLACEMENT_3D('',#1054,#1055,#1056);
#1054 = CARTESIAN_POINT('',(8.499999999975,-2.8,47.4));
#1055 = DIRECTION('',(0.,-1.,0.));
#1056 = DIRECTION('',(0.,-0.,-1.));
#1057 = ORIENTED_EDGE('',*,*,#915,.T.);
#1058 = ORIENTED_EDGE('',*,*,#942,.F.);
#1059 = ORIENTED_EDGE('',*,*,#1060,.F.);
#1060 = EDGE_CURVE('',#1050,#935,#1061,.T.);
#1061 = LINE('',#1062,#1063);
#1062 = CARTESIAN_POINT('',(9.499999999975,-2.8,47.4));
#1063 = VECTOR('',#1064,1.);
#1064 = DIRECTION('',(0.,1.,0.));
#1065 = CYLINDRICAL_SURFACE('',#1066,1.);
#1066 = AXIS2_PLACEMENT_3D('',#1067,#1068,#1069);
#1067 = CARTESIAN_POINT('',(8.499999999975,-2.8,47.4));
#1068 = DIRECTION('',(0.,1.,0.));
#1069 = DIRECTION('',(1.,0.,0.));
#1070 = ADVANCED_FACE('',(#1071),#1090,.T.);
#1071 = FACE_BOUND('',#1072,.T.);
#1072 = EDGE_LOOP('',(#1073,#1074,#1082,#1089));
#1073 = ORIENTED_EDGE('',*,*,#950,.T.);
#1074 = ORIENTED_EDGE('',*,*,#1075,.T.);
#1075 = EDGE_CURVE('',#951,#1076,#1078,.T.);
#1076 = VERTEX_POINT('',#1077);
#1077 = CARTESIAN_POINT('',(-9.500000000025,-2.8,47.4));
#1078 = LINE('',#1079,#1080);
#1079 = CARTESIAN_POINT('',(-9.500000000025,5.385786437627,47.4));
#1080 = VECTOR('',#1081,1.);
#1081 = DIRECTION('',(0.,-1.,0.));
#1082 = ORIENTED_EDGE('',*,*,#1083,.F.);
#1083 = EDGE_CURVE('',#900,#1076,#1084,.T.);
#1084 = CIRCLE('',#1085,1.);
#1085 = AXIS2_PLACEMENT_3D('',#1086,#1087,#1088);
#1086 = CARTESIAN_POINT('',(-8.500000000025,-2.8,47.4));
#1087 = DIRECTION('',(0.,-1.,0.));
#1088 = DIRECTION('',(0.,0.,1.));
#1089 = ORIENTED_EDGE('',*,*,#899,.F.);
#1090 = CYLINDRICAL_SURFACE('',#1091,1.);
#1091 = AXIS2_PLACEMENT_3D('',#1092,#1093,#1094);
#1092 = CARTESIAN_POINT('',(-8.500000000025,5.385786437627,47.4));
#1093 = DIRECTION('',(0.,-1.,0.));
#1094 = DIRECTION('',(0.,0.,1.));
#1095 = ADVANCED_FACE('',(#1096,#1157),#1227,.F.);
#1096 = FACE_BOUND('',#1097,.F.);
#1097 = EDGE_LOOP('',(#1098,#1106,#1107,#1108,#1109,#1117,#1126,#1134,
    #1142,#1150));
#1098 = ORIENTED_EDGE('',*,*,#1099,.T.);
#1099 = EDGE_CURVE('',#1100,#1076,#1102,.T.);
#1100 = VERTEX_POINT('',#1101);
#1101 = CARTESIAN_POINT('',(-9.500000000025,-2.8,30.4));
#1102 = LINE('',#1103,#1104);
#1103 = CARTESIAN_POINT('',(-9.500000000025,-2.8,29.4));
#1104 = VECTOR('',#1105,1.);
#1105 = DIRECTION('',(0.,0.,1.));
#1106 = ORIENTED_EDGE('',*,*,#1083,.F.);
#1107 = ORIENTED_EDGE('',*,*,#907,.T.);
#1108 = ORIENTED_EDGE('',*,*,#1049,.F.);
#1109 = ORIENTED_EDGE('',*,*,#1110,.F.);
#1110 = EDGE_CURVE('',#1111,#1050,#1113,.T.);
#1111 = VERTEX_POINT('',#1112);
#1112 = CARTESIAN_POINT('',(9.499999999975,-2.8,30.4));
#1113 = LINE('',#1114,#1115);
#1114 = CARTESIAN_POINT('',(9.499999999975,-2.8,29.4));
#1115 = VECTOR('',#1116,1.);
#1116 = DIRECTION('',(0.,0.,1.));
#1117 = ORIENTED_EDGE('',*,*,#1118,.T.);
#1118 = EDGE_CURVE('',#1111,#1119,#1121,.T.);
#1119 = VERTEX_POINT('',#1120);
#1120 = CARTESIAN_POINT('',(8.499999999975,-2.8,29.4));
#1121 = CIRCLE('',#1122,1.);
#1122 = AXIS2_PLACEMENT_3D('',#1123,#1124,#1125);
#1123 = CARTESIAN_POINT('',(8.499999999975,-2.8,30.4));
#1124 = DIRECTION('',(0.,1.,0.));
#1125 = DIRECTION('',(0.,-0.,-1.));
#1126 = ORIENTED_EDGE('',*,*,#1127,.F.);
#1127 = EDGE_CURVE('',#1128,#1119,#1130,.T.);
#1128 = VERTEX_POINT('',#1129);
#1129 = CARTESIAN_POINT('',(2.987867965644,-2.8,29.4));
#1130 = LINE('',#1131,#1132);
#1131 = CARTESIAN_POINT('',(-9.500000000025,-2.8,29.4));
#1132 = VECTOR('',#1133,1.);
#1133 = DIRECTION('',(1.,0.,0.));
#1134 = ORIENTED_EDGE('',*,*,#1135,.F.);
#1135 = EDGE_CURVE('',#1136,#1128,#1138,.T.);
#1136 = VERTEX_POINT('',#1137);
#1137 = CARTESIAN_POINT('',(-2.987867965644,-2.8,29.4));
#1138 = LINE('',#1139,#1140);
#1139 = CARTESIAN_POINT('',(-9.500000000025,-2.8,29.4));
#1140 = VECTOR('',#1141,1.);
#1141 = DIRECTION('',(1.,0.,0.));
#1142 = ORIENTED_EDGE('',*,*,#1143,.F.);
#1143 = EDGE_CURVE('',#1144,#1136,#1146,.T.);
#1144 = VERTEX_POINT('',#1145);
#1145 = CARTESIAN_POINT('',(-8.500000000025,-2.8,29.4));
#1146 = LINE('',#1147,#1148);
#1147 = CARTESIAN_POINT('',(-9.500000000025,-2.8,29.4));
#1148 = VECTOR('',#1149,1.);
#1149 = DIRECTION('',(1.,0.,0.));
#1150 = ORIENTED_EDGE('',*,*,#1151,.T.);
#1151 = EDGE_CURVE('',#1144,#1100,#1152,.T.);
#1152 = CIRCLE('',#1153,1.);
#1153 = AXIS2_PLACEMENT_3D('',#1154,#1155,#1156);
#1154 = CARTESIAN_POINT('',(-8.500000000025,-2.8,30.4));
#1155 = DIRECTION('',(0.,1.,0.));
#1156 = DIRECTION('',(0.,0.,1.));
#1157 = FACE_BOUND('',#1158,.F.);
#1158 = EDGE_LOOP('',(#1159,#1169,#1178,#1186,#1195,#1203,#1212,#1220));
#1159 = ORIENTED_EDGE('',*,*,#1160,.F.);
#1160 = EDGE_CURVE('',#1161,#1163,#1165,.T.);
#1161 = VERTEX_POINT('',#1162);
#1162 = CARTESIAN_POINT('',(6.499999999975,-2.8,44.4));
#1163 = VERTEX_POINT('',#1164);
#1164 = CARTESIAN_POINT('',(6.499999999975,-2.8,33.4));
#1165 = LINE('',#1166,#1167);
#1166 = CARTESIAN_POINT('',(6.499999999975,-2.8,37.4));
#1167 = VECTOR('',#1168,1.);
#1168 = DIRECTION('',(0.,-0.,-1.));
#1169 = ORIENTED_EDGE('',*,*,#1170,.T.);
#1170 = EDGE_CURVE('',#1161,#1171,#1173,.T.);
#1171 = VERTEX_POINT('',#1172);
#1172 = CARTESIAN_POINT('',(5.499999999975,-2.8,45.4));
#1173 = CIRCLE('',#1174,1.);
#1174 = AXIS2_PLACEMENT_3D('',#1175,#1176,#1177);
#1175 = CARTESIAN_POINT('',(5.499999999975,-2.8,44.4));
#1176 = DIRECTION('',(-0.,-1.,-2.2E-16));
#1177 = DIRECTION('',(0.,-2.2E-16,1.));
#1178 = ORIENTED_EDGE('',*,*,#1179,.F.);
#1179 = EDGE_CURVE('',#1180,#1171,#1182,.T.);
#1180 = VERTEX_POINT('',#1181);
#1181 = CARTESIAN_POINT('',(-5.500000000025,-2.8,45.4));
#1182 = LINE('',#1183,#1184);
#1183 = CARTESIAN_POINT('',(-8.000000000025,-2.8,45.4));
#1184 = VECTOR('',#1185,1.);
#1185 = DIRECTION('',(1.,0.,0.));
#1186 = ORIENTED_EDGE('',*,*,#1187,.F.);
#1187 = EDGE_CURVE('',#1188,#1180,#1190,.T.);
#1188 = VERTEX_POINT('',#1189);
#1189 = CARTESIAN_POINT('',(-6.500000000025,-2.8,44.4));
#1190 = CIRCLE('',#1191,1.);
#1191 = AXIS2_PLACEMENT_3D('',#1192,#1193,#1194);
#1192 = CARTESIAN_POINT('',(-5.500000000025,-2.8,44.4));
#1193 = DIRECTION('',(-0.,1.,2.2E-16));
#1194 = DIRECTION('',(0.,-2.2E-16,1.));
#1195 = ORIENTED_EDGE('',*,*,#1196,.F.);
#1196 = EDGE_CURVE('',#1197,#1188,#1199,.T.);
#1197 = VERTEX_POINT('',#1198);
#1198 = CARTESIAN_POINT('',(-6.500000000025,-2.8,33.4));
#1199 = LINE('',#1200,#1201);
#1200 = CARTESIAN_POINT('',(-6.500000000025,-2.8,30.9));
#1201 = VECTOR('',#1202,1.);
#1202 = DIRECTION('',(0.,0.,1.));
#1203 = ORIENTED_EDGE('',*,*,#1204,.F.);
#1204 = EDGE_CURVE('',#1205,#1197,#1207,.T.);
#1205 = VERTEX_POINT('',#1206);
#1206 = CARTESIAN_POINT('',(-5.500000000025,-2.8,32.4));
#1207 = CIRCLE('',#1208,1.);
#1208 = AXIS2_PLACEMENT_3D('',#1209,#1210,#1211);
#1209 = CARTESIAN_POINT('',(-5.500000000025,-2.8,33.4));
#1210 = DIRECTION('',(-0.,1.,2.2E-16));
#1211 = DIRECTION('',(0.,-2.2E-16,1.));
#1212 = ORIENTED_EDGE('',*,*,#1213,.F.);
#1213 = EDGE_CURVE('',#1214,#1205,#1216,.T.);
#1214 = VERTEX_POINT('',#1215);
#1215 = CARTESIAN_POINT('',(5.499999999975,-2.8,32.4));
#1216 = LINE('',#1217,#1218);
#1217 = CARTESIAN_POINT('',(-1.500000000025,-2.8,32.4));
#1218 = VECTOR('',#1219,1.);
#1219 = DIRECTION('',(-1.,0.,0.));
#1220 = ORIENTED_EDGE('',*,*,#1221,.F.);
#1221 = EDGE_CURVE('',#1163,#1214,#1222,.T.);
#1222 = CIRCLE('',#1223,1.);
#1223 = AXIS2_PLACEMENT_3D('',#1224,#1225,#1226);
#1224 = CARTESIAN_POINT('',(5.499999999975,-2.8,33.4));
#1225 = DIRECTION('',(-0.,1.,2.2E-16));
#1226 = DIRECTION('',(0.,-2.2E-16,1.));
#1227 = PLANE('',#1228);
#1228 = AXIS2_PLACEMENT_3D('',#1229,#1230,#1231);
#1229 = CARTESIAN_POINT('',(-9.500000000025,-2.8,29.4));
#1230 = DIRECTION('',(0.,1.,0.));
#1231 = DIRECTION('',(1.,0.,0.));
#1232 = ADVANCED_FACE('',(#1233),#1244,.F.);
#1233 = FACE_BOUND('',#1234,.F.);
#1234 = EDGE_LOOP('',(#1235,#1236,#1237,#1238));
#1235 = ORIENTED_EDGE('',*,*,#1110,.T.);
#1236 = ORIENTED_EDGE('',*,*,#1060,.T.);
#1237 = ORIENTED_EDGE('',*,*,#932,.F.);
#1238 = ORIENTED_EDGE('',*,*,#1239,.F.);
#1239 = EDGE_CURVE('',#1111,#933,#1240,.T.);
#1240 = LINE('',#1241,#1242);
#1241 = CARTESIAN_POINT('',(9.499999999975,-2.8,30.4));
#1242 = VECTOR('',#1243,1.);
#1243 = DIRECTION('',(0.,1.,0.));
#1244 = PLANE('',#1245);
#1245 = AXIS2_PLACEMENT_3D('',#1246,#1247,#1248);
#1246 = CARTESIAN_POINT('',(9.499999999975,-2.8,29.4));
#1247 = DIRECTION('',(-1.,0.,0.));
#1248 = DIRECTION('',(0.,1.,0.));
#1249 = ADVANCED_FACE('',(#1250),#1261,.T.);
#1250 = FACE_BOUND('',#1251,.T.);
#1251 = EDGE_LOOP('',(#1252,#1253,#1259,#1260));
#1252 = ORIENTED_EDGE('',*,*,#1118,.T.);
#1253 = ORIENTED_EDGE('',*,*,#1254,.T.);
#1254 = EDGE_CURVE('',#1119,#993,#1255,.T.);
#1255 = LINE('',#1256,#1257);
#1256 = CARTESIAN_POINT('',(8.499999999975,-2.8,29.4));
#1257 = VECTOR('',#1258,1.);
#1258 = DIRECTION('',(0.,1.,0.));
#1259 = ORIENTED_EDGE('',*,*,#1000,.F.);
#1260 = ORIENTED_EDGE('',*,*,#1239,.F.);
#1261 = CYLINDRICAL_SURFACE('',#1262,1.);
#1262 = AXIS2_PLACEMENT_3D('',#1263,#1264,#1265);
#1263 = CARTESIAN_POINT('',(8.499999999975,-2.8,30.4));
#1264 = DIRECTION('',(0.,1.,0.));
#1265 = DIRECTION('',(1.,0.,0.));
#1266 = ADVANCED_FACE('',(#1267),#1304,.F.);
#1267 = FACE_BOUND('',#1268,.F.);
#1268 = EDGE_LOOP('',(#1269,#1270,#1271,#1280,#1288,#1297,#1303));
#1269 = ORIENTED_EDGE('',*,*,#1254,.T.);
#1270 = ORIENTED_EDGE('',*,*,#992,.T.);
#1271 = ORIENTED_EDGE('',*,*,#1272,.T.);
#1272 = EDGE_CURVE('',#985,#1273,#1275,.T.);
#1273 = VERTEX_POINT('',#1274);
#1274 = CARTESIAN_POINT('',(0.601040764009,5.186827201635,29.4));
#1275 = CIRCLE('',#1276,0.85);
#1276 = AXIS2_PLACEMENT_3D('',#1277,#1278,#1279);
#1277 = CARTESIAN_POINT('',(1.703431368239E-15,4.585786437627,29.4));
#1278 = DIRECTION('',(-0.,0.,-1.));
#1279 = DIRECTION('',(-2.22044604925E-16,-1.,0.));
#1280 = ORIENTED_EDGE('',*,*,#1281,.T.);
#1281 = EDGE_CURVE('',#1273,#1282,#1284,.T.);
#1282 = VERTEX_POINT('',#1283);
#1283 = CARTESIAN_POINT('',(5.186827201635,0.601040764009,29.4));
#1284 = LINE('',#1285,#1286);
#1285 = CARTESIAN_POINT('',(0.601040764009,5.186827201635,29.4));
#1286 = VECTOR('',#1287,1.);
#1287 = DIRECTION('',(0.707106781187,-0.707106781187,0.));
#1288 = ORIENTED_EDGE('',*,*,#1289,.T.);
#1289 = EDGE_CURVE('',#1282,#1290,#1292,.T.);
#1290 = VERTEX_POINT('',#1291);
#1291 = CARTESIAN_POINT('',(5.186827201635,-0.601040764009,29.4));
#1292 = CIRCLE('',#1293,0.85);
#1293 = AXIS2_PLACEMENT_3D('',#1294,#1295,#1296);
#1294 = CARTESIAN_POINT('',(4.585786437627,-7.042306460767E-16,29.4));
#1295 = DIRECTION('',(-0.,0.,-1.));
#1296 = DIRECTION('',(-2.22044604925E-16,-1.,0.));
#1297 = ORIENTED_EDGE('',*,*,#1298,.T.);
#1298 = EDGE_CURVE('',#1290,#1128,#1299,.T.);
#1299 = LINE('',#1300,#1301);
#1300 = CARTESIAN_POINT('',(5.186827201635,-0.601040764009,29.4));
#1301 = VECTOR('',#1302,1.);
#1302 = DIRECTION('',(-0.707106781187,-0.707106781187,0.));
#1303 = ORIENTED_EDGE('',*,*,#1127,.T.);
#1304 = PLANE('',#1305);
#1305 = AXIS2_PLACEMENT_3D('',#1306,#1307,#1308);
#1306 = CARTESIAN_POINT('',(-2.459214E-11,1.292893218813,29.4));
#1307 = DIRECTION('',(0.,0.,1.));
#1308 = DIRECTION('',(-1.,0.,0.));
#1309 = ADVANCED_FACE('',(#1310),#1320,.T.);
#1310 = FACE_BOUND('',#1311,.T.);
#1311 = EDGE_LOOP('',(#1312,#1313));
#1312 = ORIENTED_EDGE('',*,*,#984,.F.);
#1313 = ORIENTED_EDGE('',*,*,#1314,.F.);
#1314 = EDGE_CURVE('',#977,#985,#1315,.T.);
#1315 = CIRCLE('',#1316,0.85);
#1316 = AXIS2_PLACEMENT_3D('',#1317,#1318,#1319);
#1317 = CARTESIAN_POINT('',(1.703431368239E-15,4.585786437627,29.4));
#1318 = DIRECTION('',(-0.,0.,-1.));
#1319 = DIRECTION('',(-2.22044604925E-16,-1.,0.));
#1320 = PLANE('',#1321);
#1321 = AXIS2_PLACEMENT_3D('',#1322,#1323,#1324);
#1322 = CARTESIAN_POINT('',(6.827538787205E-16,9.316745636707E-16,29.4)
  );
#1323 = DIRECTION('',(0.,0.,1.));
#1324 = DIRECTION('',(-1.,4.440892098501E-16,0.));
#1325 = ADVANCED_FACE('',(#1326),#1368,.F.);
#1326 = FACE_BOUND('',#1327,.F.);
#1327 = EDGE_LOOP('',(#1328,#1337,#1338,#1344,#1345,#1353,#1362));
#1328 = ORIENTED_EDGE('',*,*,#1329,.T.);
#1329 = EDGE_CURVE('',#1330,#977,#1332,.T.);
#1330 = VERTEX_POINT('',#1331);
#1331 = CARTESIAN_POINT('',(-0.601040764009,5.186827201635,29.4));
#1332 = CIRCLE('',#1333,0.85);
#1333 = AXIS2_PLACEMENT_3D('',#1334,#1335,#1336);
#1334 = CARTESIAN_POINT('',(1.703431368239E-15,4.585786437627,29.4));
#1335 = DIRECTION('',(-0.,0.,-1.));
#1336 = DIRECTION('',(-2.22044604925E-16,-1.,0.));
#1337 = ORIENTED_EDGE('',*,*,#976,.T.);
#1338 = ORIENTED_EDGE('',*,*,#1339,.T.);
#1339 = EDGE_CURVE('',#968,#1144,#1340,.T.);
#1340 = LINE('',#1341,#1342);
#1341 = CARTESIAN_POINT('',(-8.500000000025,5.385786437627,29.4));
#1342 = VECTOR('',#1343,1.);
#1343 = DIRECTION('',(0.,-1.,0.));
#1344 = ORIENTED_EDGE('',*,*,#1143,.T.);
#1345 = ORIENTED_EDGE('',*,*,#1346,.T.);
#1346 = EDGE_CURVE('',#1136,#1347,#1349,.T.);
#1347 = VERTEX_POINT('',#1348);
#1348 = CARTESIAN_POINT('',(-5.186827201635,-0.601040764009,29.4));
#1349 = LINE('',#1350,#1351);
#1350 = CARTESIAN_POINT('',(-0.601040764009,-5.186827201635,29.4));
#1351 = VECTOR('',#1352,1.);
#1352 = DIRECTION('',(-0.707106781187,0.707106781187,0.));
#1353 = ORIENTED_EDGE('',*,*,#1354,.T.);
#1354 = EDGE_CURVE('',#1347,#1355,#1357,.T.);
#1355 = VERTEX_POINT('',#1356);
#1356 = CARTESIAN_POINT('',(-5.186827201635,0.601040764009,29.4));
#1357 = CIRCLE('',#1358,0.85);
#1358 = AXIS2_PLACEMENT_3D('',#1359,#1360,#1361);
#1359 = CARTESIAN_POINT('',(-4.585786437627,1.370364460852E-15,29.4));
#1360 = DIRECTION('',(-0.,0.,-1.));
#1361 = DIRECTION('',(-2.22044604925E-16,-1.,0.));
#1362 = ORIENTED_EDGE('',*,*,#1363,.T.);
#1363 = EDGE_CURVE('',#1355,#1330,#1364,.T.);
#1364 = LINE('',#1365,#1366);
#1365 = CARTESIAN_POINT('',(-5.186827201635,0.601040764009,29.4));
#1366 = VECTOR('',#1367,1.);
#1367 = DIRECTION('',(0.707106781187,0.707106781187,-0.));
#1368 = PLANE('',#1369);
#1369 = AXIS2_PLACEMENT_3D('',#1370,#1371,#1372);
#1370 = CARTESIAN_POINT('',(-2.459214E-11,1.292893218813,29.4));
#1371 = DIRECTION('',(0.,0.,1.));
#1372 = DIRECTION('',(-1.,0.,0.));
#1373 = ADVANCED_FACE('',(#1374),#1385,.T.);
#1374 = FACE_BOUND('',#1375,.F.);
#1375 = EDGE_LOOP('',(#1376,#1377,#1383,#1384));
#1376 = ORIENTED_EDGE('',*,*,#967,.T.);
#1377 = ORIENTED_EDGE('',*,*,#1378,.T.);
#1378 = EDGE_CURVE('',#960,#1100,#1379,.T.);
#1379 = LINE('',#1380,#1381);
#1380 = CARTESIAN_POINT('',(-9.500000000025,5.385786437627,30.4));
#1381 = VECTOR('',#1382,1.);
#1382 = DIRECTION('',(0.,-1.,0.));
#1383 = ORIENTED_EDGE('',*,*,#1151,.F.);
#1384 = ORIENTED_EDGE('',*,*,#1339,.F.);
#1385 = CYLINDRICAL_SURFACE('',#1386,1.);
#1386 = AXIS2_PLACEMENT_3D('',#1387,#1388,#1389);
#1387 = CARTESIAN_POINT('',(-8.500000000025,5.385786437627,30.4));
#1388 = DIRECTION('',(0.,-1.,0.));
#1389 = DIRECTION('',(0.,-0.,-1.));
#1390 = ADVANCED_FACE('',(#1391,#1397),#1431,.F.);
#1391 = FACE_BOUND('',#1392,.F.);
#1392 = EDGE_LOOP('',(#1393,#1394,#1395,#1396));
#1393 = ORIENTED_EDGE('',*,*,#959,.T.);
#1394 = ORIENTED_EDGE('',*,*,#1075,.T.);
#1395 = ORIENTED_EDGE('',*,*,#1099,.F.);
#1396 = ORIENTED_EDGE('',*,*,#1378,.F.);
#1397 = FACE_BOUND('',#1398,.F.);
#1398 = EDGE_LOOP('',(#1399,#1409,#1417,#1425));
#1399 = ORIENTED_EDGE('',*,*,#1400,.F.);
#1400 = EDGE_CURVE('',#1401,#1403,#1405,.T.);
#1401 = VERTEX_POINT('',#1402);
#1402 = CARTESIAN_POINT('',(-9.500000000025,0.185786437627,46.4));
#1403 = VERTEX_POINT('',#1404);
#1404 = CARTESIAN_POINT('',(-9.500000000025,0.185786437627,31.4));
#1405 = LINE('',#1406,#1407);
#1406 = CARTESIAN_POINT('',(-9.500000000025,0.185786437627,46.4));
#1407 = VECTOR('',#1408,1.);
#1408 = DIRECTION('',(0.,-0.,-1.));
#1409 = ORIENTED_EDGE('',*,*,#1410,.T.);
#1410 = EDGE_CURVE('',#1401,#1411,#1413,.T.);
#1411 = VERTEX_POINT('',#1412);
#1412 = CARTESIAN_POINT('',(-9.500000000025,2.185786437627,46.4));
#1413 = LINE('',#1414,#1415);
#1414 = CARTESIAN_POINT('',(-9.500000000025,0.185786437627,46.4));
#1415 = VECTOR('',#1416,1.);
#1416 = DIRECTION('',(0.,1.,0.));
#1417 = ORIENTED_EDGE('',*,*,#1418,.T.);
#1418 = EDGE_CURVE('',#1411,#1419,#1421,.T.);
#1419 = VERTEX_POINT('',#1420);
#1420 = CARTESIAN_POINT('',(-9.500000000025,2.185786437627,31.4));
#1421 = LINE('',#1422,#1423);
#1422 = CARTESIAN_POINT('',(-9.500000000025,2.185786437627,46.4));
#1423 = VECTOR('',#1424,1.);
#1424 = DIRECTION('',(0.,-0.,-1.));
#1425 = ORIENTED_EDGE('',*,*,#1426,.T.);
#1426 = EDGE_CURVE('',#1419,#1403,#1427,.T.);
#1427 = LINE('',#1428,#1429);
#1428 = CARTESIAN_POINT('',(-9.500000000025,2.185786437627,31.4));
#1429 = VECTOR('',#1430,1.);
#1430 = DIRECTION('',(0.,-1.,0.));
#1431 = PLANE('',#1432);
#1432 = AXIS2_PLACEMENT_3D('',#1433,#1434,#1435);
#1433 = CARTESIAN_POINT('',(-9.500000000025,5.385786437627,29.4));
#1434 = DIRECTION('',(1.,0.,0.));
#1435 = DIRECTION('',(0.,-1.,0.));
#1436 = ADVANCED_FACE('',(#1437),#1485,.T.);
#1437 = FACE_BOUND('',#1438,.T.);
#1438 = EDGE_LOOP('',(#1439,#1447,#1448,#1456,#1464,#1472,#1478,#1479));
#1439 = ORIENTED_EDGE('',*,*,#1440,.F.);
#1440 = EDGE_CURVE('',#1010,#1441,#1443,.T.);
#1441 = VERTEX_POINT('',#1442);
#1442 = CARTESIAN_POINT('',(-7.500000000025,2.185786437627,46.4));
#1443 = LINE('',#1444,#1445);
#1444 = CARTESIAN_POINT('',(-7.500000000025,5.385786437627,46.4));
#1445 = VECTOR('',#1446,1.);
#1446 = DIRECTION('',(0.,-1.,-2.2E-16));
#1447 = ORIENTED_EDGE('',*,*,#1009,.T.);
#1448 = ORIENTED_EDGE('',*,*,#1449,.T.);
#1449 = EDGE_CURVE('',#1012,#1450,#1452,.T.);
#1450 = VERTEX_POINT('',#1451);
#1451 = CARTESIAN_POINT('',(7.499999999975,-1.814213562373,46.4));
#1452 = LINE('',#1453,#1454);
#1453 = CARTESIAN_POINT('',(7.499999999975,5.385786437627,46.4));
#1454 = VECTOR('',#1455,1.);
#1455 = DIRECTION('',(0.,-1.,-2.2E-16));
#1456 = ORIENTED_EDGE('',*,*,#1457,.F.);
#1457 = EDGE_CURVE('',#1458,#1450,#1460,.T.);
#1458 = VERTEX_POINT('',#1459);
#1459 = CARTESIAN_POINT('',(-7.500000000025,-1.814213562373,46.4));
#1460 = LINE('',#1461,#1462);
#1461 = CARTESIAN_POINT('',(-7.500000000025,-1.814213562373,46.4));
#1462 = VECTOR('',#1463,1.);
#1463 = DIRECTION('',(1.,0.,0.));
#1464 = ORIENTED_EDGE('',*,*,#1465,.F.);
#1465 = EDGE_CURVE('',#1466,#1458,#1468,.T.);
#1466 = VERTEX_POINT('',#1467);
#1467 = CARTESIAN_POINT('',(-7.500000000025,0.185786437627,46.4));
#1468 = LINE('',#1469,#1470);
#1469 = CARTESIAN_POINT('',(-7.500000000025,5.385786437627,46.4));
#1470 = VECTOR('',#1471,1.);
#1471 = DIRECTION('',(0.,-1.,-2.2E-16));
#1472 = ORIENTED_EDGE('',*,*,#1473,.F.);
#1473 = EDGE_CURVE('',#1401,#1466,#1474,.T.);
#1474 = LINE('',#1475,#1476);
#1475 = CARTESIAN_POINT('',(-9.500000000025,0.185786437627,46.4));
#1476 = VECTOR('',#1477,1.);
#1477 = DIRECTION('',(1.,0.,0.));
#1478 = ORIENTED_EDGE('',*,*,#1410,.T.);
#1479 = ORIENTED_EDGE('',*,*,#1480,.T.);
#1480 = EDGE_CURVE('',#1411,#1441,#1481,.T.);
#1481 = LINE('',#1482,#1483);
#1482 = CARTESIAN_POINT('',(-9.500000000025,2.185786437627,46.4));
#1483 = VECTOR('',#1484,1.);
#1484 = DIRECTION('',(1.,0.,0.));
#1485 = PLANE('',#1486);
#1486 = AXIS2_PLACEMENT_3D('',#1487,#1488,#1489);
#1487 = CARTESIAN_POINT('',(-0.785123966967,1.736199660767,46.4));
#1488 = DIRECTION('',(0.,0.,-1.));
#1489 = DIRECTION('',(1.,0.,0.));
#1490 = ADVANCED_FACE('',(#1491),#1509,.F.);
#1491 = FACE_BOUND('',#1492,.F.);
#1492 = EDGE_LOOP('',(#1493,#1494,#1502,#1508));
#1493 = ORIENTED_EDGE('',*,*,#1035,.F.);
#1494 = ORIENTED_EDGE('',*,*,#1495,.T.);
#1495 = EDGE_CURVE('',#1028,#1496,#1498,.T.);
#1496 = VERTEX_POINT('',#1497);
#1497 = CARTESIAN_POINT('',(-7.500000000025,2.185786437627,31.4));
#1498 = LINE('',#1499,#1500);
#1499 = CARTESIAN_POINT('',(-7.500000000025,5.385786437627,31.4));
#1500 = VECTOR('',#1501,1.);
#1501 = DIRECTION('',(0.,-1.,-2.2E-16));
#1502 = ORIENTED_EDGE('',*,*,#1503,.T.);
#1503 = EDGE_CURVE('',#1496,#1441,#1504,.T.);
#1504 = LINE('',#1505,#1506);
#1505 = CARTESIAN_POINT('',(-7.500000000025,2.185786437627,38.9));
#1506 = VECTOR('',#1507,1.);
#1507 = DIRECTION('',(0.,0.,1.));
#1508 = ORIENTED_EDGE('',*,*,#1440,.F.);
#1509 = PLANE('',#1510);
#1510 = AXIS2_PLACEMENT_3D('',#1511,#1512,#1513);
#1511 = CARTESIAN_POINT('',(-7.500000000025,5.385786437627,31.4));
#1512 = DIRECTION('',(-1.,0.,0.));
#1513 = DIRECTION('',(0.,-2.2E-16,1.));
#1514 = ADVANCED_FACE('',(#1515),#1556,.T.);
#1515 = FACE_BOUND('',#1516,.T.);
#1516 = EDGE_LOOP('',(#1517,#1525,#1526,#1527,#1533,#1534,#1542,#1550));
#1517 = ORIENTED_EDGE('',*,*,#1518,.F.);
#1518 = EDGE_CURVE('',#1020,#1519,#1521,.T.);
#1519 = VERTEX_POINT('',#1520);
#1520 = CARTESIAN_POINT('',(7.499999999975,-1.814213562373,31.4));
#1521 = LINE('',#1522,#1523);
#1522 = CARTESIAN_POINT('',(7.499999999975,5.385786437627,31.4));
#1523 = VECTOR('',#1524,1.);
#1524 = DIRECTION('',(0.,-1.,-2.2E-16));
#1525 = ORIENTED_EDGE('',*,*,#1027,.T.);
#1526 = ORIENTED_EDGE('',*,*,#1495,.T.);
#1527 = ORIENTED_EDGE('',*,*,#1528,.F.);
#1528 = EDGE_CURVE('',#1419,#1496,#1529,.T.);
#1529 = LINE('',#1530,#1531);
#1530 = CARTESIAN_POINT('',(-9.500000000025,2.185786437627,31.4));
#1531 = VECTOR('',#1532,1.);
#1532 = DIRECTION('',(1.,0.,0.));
#1533 = ORIENTED_EDGE('',*,*,#1426,.T.);
#1534 = ORIENTED_EDGE('',*,*,#1535,.T.);
#1535 = EDGE_CURVE('',#1403,#1536,#1538,.T.);
#1536 = VERTEX_POINT('',#1537);
#1537 = CARTESIAN_POINT('',(-7.500000000025,0.185786437627,31.4));
#1538 = LINE('',#1539,#1540);
#1539 = CARTESIAN_POINT('',(-9.500000000025,0.185786437627,31.4));
#1540 = VECTOR('',#1541,1.);
#1541 = DIRECTION('',(1.,0.,0.));
#1542 = ORIENTED_EDGE('',*,*,#1543,.T.);
#1543 = EDGE_CURVE('',#1536,#1544,#1546,.T.);
#1544 = VERTEX_POINT('',#1545);
#1545 = CARTESIAN_POINT('',(-7.500000000025,-1.814213562373,31.4));
#1546 = LINE('',#1547,#1548);
#1547 = CARTESIAN_POINT('',(-7.500000000025,5.385786437627,31.4));
#1548 = VECTOR('',#1549,1.);
#1549 = DIRECTION('',(0.,-1.,-2.2E-16));
#1550 = ORIENTED_EDGE('',*,*,#1551,.F.);
#1551 = EDGE_CURVE('',#1519,#1544,#1552,.T.);
#1552 = LINE('',#1553,#1554);
#1553 = CARTESIAN_POINT('',(7.499999999975,-1.814213562373,31.4));
#1554 = VECTOR('',#1555,1.);
#1555 = DIRECTION('',(-1.,0.,0.));
#1556 = PLANE('',#1557);
#1557 = AXIS2_PLACEMENT_3D('',#1558,#1559,#1560);
#1558 = CARTESIAN_POINT('',(-0.785123966967,1.736199660767,31.4));
#1559 = DIRECTION('',(0.,0.,1.));
#1560 = DIRECTION('',(-1.,0.,0.));
#1561 = ADVANCED_FACE('',(#1562),#1573,.F.);
#1562 = FACE_BOUND('',#1563,.F.);
#1563 = EDGE_LOOP('',(#1564,#1565,#1571,#1572));
#1564 = ORIENTED_EDGE('',*,*,#1449,.T.);
#1565 = ORIENTED_EDGE('',*,*,#1566,.T.);
#1566 = EDGE_CURVE('',#1450,#1519,#1567,.T.);
#1567 = LINE('',#1568,#1569);
#1568 = CARTESIAN_POINT('',(7.499999999975,-1.814213562373,46.4));
#1569 = VECTOR('',#1570,1.);
#1570 = DIRECTION('',(-0.,0.,-1.));
#1571 = ORIENTED_EDGE('',*,*,#1518,.F.);
#1572 = ORIENTED_EDGE('',*,*,#1019,.F.);
#1573 = PLANE('',#1574);
#1574 = AXIS2_PLACEMENT_3D('',#1575,#1576,#1577);
#1575 = CARTESIAN_POINT('',(7.499999999975,5.385786437627,46.4));
#1576 = DIRECTION('',(1.,0.,0.));
#1577 = DIRECTION('',(0.,2.2E-16,-1.));
#1578 = ADVANCED_FACE('',(#1579),#1605,.T.);
#1579 = FACE_BOUND('',#1580,.T.);
#1580 = EDGE_LOOP('',(#1581,#1589,#1590,#1598));
#1581 = ORIENTED_EDGE('',*,*,#1582,.F.);
#1582 = EDGE_CURVE('',#1128,#1583,#1585,.T.);
#1583 = VERTEX_POINT('',#1584);
#1584 = CARTESIAN_POINT('',(0.601040764009,-5.186827201635,29.4));
#1585 = LINE('',#1586,#1587);
#1586 = CARTESIAN_POINT('',(5.186827201635,-0.601040764009,29.4));
#1587 = VECTOR('',#1588,1.);
#1588 = DIRECTION('',(-0.707106781187,-0.707106781187,0.));
#1589 = ORIENTED_EDGE('',*,*,#1135,.F.);
#1590 = ORIENTED_EDGE('',*,*,#1591,.F.);
#1591 = EDGE_CURVE('',#1592,#1136,#1594,.T.);
#1592 = VERTEX_POINT('',#1593);
#1593 = CARTESIAN_POINT('',(-0.601040764009,-5.186827201635,29.4));
#1594 = LINE('',#1595,#1596);
#1595 = CARTESIAN_POINT('',(-0.601040764009,-5.186827201635,29.4));
#1596 = VECTOR('',#1597,1.);
#1597 = DIRECTION('',(-0.707106781187,0.707106781187,0.));
#1598 = ORIENTED_EDGE('',*,*,#1599,.F.);
#1599 = EDGE_CURVE('',#1583,#1592,#1600,.T.);
#1600 = CIRCLE('',#1601,0.85);
#1601 = AXIS2_PLACEMENT_3D('',#1602,#1603,#1604);
#1602 = CARTESIAN_POINT('',(-8.747632268646E-16,-4.585786437627,29.4));
#1603 = DIRECTION('',(-0.,0.,-1.));
#1604 = DIRECTION('',(-2.22044604925E-16,-1.,0.));
#1605 = PLANE('',#1606);
#1606 = AXIS2_PLACEMENT_3D('',#1607,#1608,#1609);
#1607 = CARTESIAN_POINT('',(6.827538787205E-16,9.316745636707E-16,29.4)
  );
#1608 = DIRECTION('',(0.,0.,1.));
#1609 = DIRECTION('',(-1.,4.440892098501E-16,0.));
#1610 = ADVANCED_FACE('',(#1611),#1636,.F.);
#1611 = FACE_BOUND('',#1612,.F.);
#1612 = EDGE_LOOP('',(#1613,#1623,#1629,#1630));
#1613 = ORIENTED_EDGE('',*,*,#1614,.T.);
#1614 = EDGE_CURVE('',#1615,#1617,#1619,.T.);
#1615 = VERTEX_POINT('',#1616);
#1616 = CARTESIAN_POINT('',(6.499999999975,-1.814213562373,33.4));
#1617 = VERTEX_POINT('',#1618);
#1618 = CARTESIAN_POINT('',(6.499999999975,-1.814213562373,44.4));
#1619 = LINE('',#1620,#1621);
#1620 = CARTESIAN_POINT('',(6.499999999975,-1.814213562373,42.15));
#1621 = VECTOR('',#1622,1.);
#1622 = DIRECTION('',(0.,0.,1.));
#1623 = ORIENTED_EDGE('',*,*,#1624,.T.);
#1624 = EDGE_CURVE('',#1617,#1161,#1625,.T.);
#1625 = LINE('',#1626,#1627);
#1626 = CARTESIAN_POINT('',(6.499999999975,-1.814213562373,44.4));
#1627 = VECTOR('',#1628,1.);
#1628 = DIRECTION('',(0.,-1.,-2.2E-16));
#1629 = ORIENTED_EDGE('',*,*,#1160,.T.);
#1630 = ORIENTED_EDGE('',*,*,#1631,.F.);
#1631 = EDGE_CURVE('',#1615,#1163,#1632,.T.);
#1632 = LINE('',#1633,#1634);
#1633 = CARTESIAN_POINT('',(6.499999999975,-1.814213562373,33.4));
#1634 = VECTOR('',#1635,1.);
#1635 = DIRECTION('',(0.,-1.,-2.2E-16));
#1636 = PLANE('',#1637);
#1637 = AXIS2_PLACEMENT_3D('',#1638,#1639,#1640);
#1638 = CARTESIAN_POINT('',(6.499999999975,5.385786437627,45.4));
#1639 = DIRECTION('',(1.,0.,0.));
#1640 = DIRECTION('',(0.,2.2E-16,-1.));
#1641 = ADVANCED_FACE('',(#1642),#1661,.F.);
#1642 = FACE_BOUND('',#1643,.F.);
#1643 = EDGE_LOOP('',(#1644,#1653,#1659,#1660));
#1644 = ORIENTED_EDGE('',*,*,#1645,.T.);
#1645 = EDGE_CURVE('',#1617,#1646,#1648,.T.);
#1646 = VERTEX_POINT('',#1647);
#1647 = CARTESIAN_POINT('',(5.499999999975,-1.814213562373,45.4));
#1648 = CIRCLE('',#1649,1.);
#1649 = AXIS2_PLACEMENT_3D('',#1650,#1651,#1652);
#1650 = CARTESIAN_POINT('',(5.499999999975,-1.814213562373,44.4));
#1651 = DIRECTION('',(-0.,-1.,-2.2E-16));
#1652 = DIRECTION('',(0.,-2.2E-16,1.));
#1653 = ORIENTED_EDGE('',*,*,#1654,.T.);
#1654 = EDGE_CURVE('',#1646,#1171,#1655,.T.);
#1655 = LINE('',#1656,#1657);
#1656 = CARTESIAN_POINT('',(5.499999999975,-1.814213562373,45.4));
#1657 = VECTOR('',#1658,1.);
#1658 = DIRECTION('',(0.,-1.,-2.2E-16));
#1659 = ORIENTED_EDGE('',*,*,#1170,.F.);
#1660 = ORIENTED_EDGE('',*,*,#1624,.F.);
#1661 = CYLINDRICAL_SURFACE('',#1662,1.);
#1662 = AXIS2_PLACEMENT_3D('',#1663,#1664,#1665);
#1663 = CARTESIAN_POINT('',(5.499999999975,-1.814213562373,44.4));
#1664 = DIRECTION('',(0.,-1.,-2.2E-16));
#1665 = DIRECTION('',(1.,0.,0.));
#1666 = ADVANCED_FACE('',(#1667),#1686,.F.);
#1667 = FACE_BOUND('',#1668,.T.);
#1668 = EDGE_LOOP('',(#1669,#1678,#1684,#1685));
#1669 = ORIENTED_EDGE('',*,*,#1670,.T.);
#1670 = EDGE_CURVE('',#1615,#1671,#1673,.T.);
#1671 = VERTEX_POINT('',#1672);
#1672 = CARTESIAN_POINT('',(5.499999999975,-1.814213562373,32.4));
#1673 = CIRCLE('',#1674,1.);
#1674 = AXIS2_PLACEMENT_3D('',#1675,#1676,#1677);
#1675 = CARTESIAN_POINT('',(5.499999999975,-1.814213562373,33.4));
#1676 = DIRECTION('',(-0.,1.,2.2E-16));
#1677 = DIRECTION('',(0.,-2.2E-16,1.));
#1678 = ORIENTED_EDGE('',*,*,#1679,.T.);
#1679 = EDGE_CURVE('',#1671,#1214,#1680,.T.);
#1680 = LINE('',#1681,#1682);
#1681 = CARTESIAN_POINT('',(5.499999999975,-1.814213562373,32.4));
#1682 = VECTOR('',#1683,1.);
#1683 = DIRECTION('',(0.,-1.,-2.2E-16));
#1684 = ORIENTED_EDGE('',*,*,#1221,.F.);
#1685 = ORIENTED_EDGE('',*,*,#1631,.F.);
#1686 = CYLINDRICAL_SURFACE('',#1687,1.);
#1687 = AXIS2_PLACEMENT_3D('',#1688,#1689,#1690);
#1688 = CARTESIAN_POINT('',(5.499999999975,-1.814213562373,33.4));
#1689 = DIRECTION('',(0.,-1.,-2.2E-16));
#1690 = DIRECTION('',(1.,0.,0.));
#1691 = ADVANCED_FACE('',(#1692),#1710,.F.);
#1692 = FACE_BOUND('',#1693,.F.);
#1693 = EDGE_LOOP('',(#1694,#1702,#1708,#1709));
#1694 = ORIENTED_EDGE('',*,*,#1695,.T.);
#1695 = EDGE_CURVE('',#1646,#1696,#1698,.T.);
#1696 = VERTEX_POINT('',#1697);
#1697 = CARTESIAN_POINT('',(-5.500000000025,-1.814213562373,45.4));
#1698 = LINE('',#1699,#1700);
#1699 = CARTESIAN_POINT('',(-3.250000000025,-1.814213562373,45.4));
#1700 = VECTOR('',#1701,1.);
#1701 = DIRECTION('',(-1.,0.,0.));
#1702 = ORIENTED_EDGE('',*,*,#1703,.T.);
#1703 = EDGE_CURVE('',#1696,#1180,#1704,.T.);
#1704 = LINE('',#1705,#1706);
#1705 = CARTESIAN_POINT('',(-5.500000000025,-1.814213562373,45.4));
#1706 = VECTOR('',#1707,1.);
#1707 = DIRECTION('',(0.,-1.,-2.2E-16));
#1708 = ORIENTED_EDGE('',*,*,#1179,.T.);
#1709 = ORIENTED_EDGE('',*,*,#1654,.F.);
#1710 = PLANE('',#1711);
#1711 = AXIS2_PLACEMENT_3D('',#1712,#1713,#1714);
#1712 = CARTESIAN_POINT('',(-6.500000000025,5.385786437627,45.4));
#1713 = DIRECTION('',(0.,-2.2E-16,1.));
#1714 = DIRECTION('',(1.,0.,0.));
#1715 = ADVANCED_FACE('',(#1716),#1734,.F.);
#1716 = FACE_BOUND('',#1717,.F.);
#1717 = EDGE_LOOP('',(#1718,#1726,#1727,#1728));
#1718 = ORIENTED_EDGE('',*,*,#1719,.T.);
#1719 = EDGE_CURVE('',#1720,#1671,#1722,.T.);
#1720 = VERTEX_POINT('',#1721);
#1721 = CARTESIAN_POINT('',(-5.500000000025,-1.814213562373,32.4));
#1722 = LINE('',#1723,#1724);
#1723 = CARTESIAN_POINT('',(3.249999999975,-1.814213562373,32.4));
#1724 = VECTOR('',#1725,1.);
#1725 = DIRECTION('',(1.,0.,0.));
#1726 = ORIENTED_EDGE('',*,*,#1679,.T.);
#1727 = ORIENTED_EDGE('',*,*,#1213,.T.);
#1728 = ORIENTED_EDGE('',*,*,#1729,.F.);
#1729 = EDGE_CURVE('',#1720,#1205,#1730,.T.);
#1730 = LINE('',#1731,#1732);
#1731 = CARTESIAN_POINT('',(-5.500000000025,-1.814213562373,32.4));
#1732 = VECTOR('',#1733,1.);
#1733 = DIRECTION('',(0.,-1.,-2.2E-16));
#1734 = PLANE('',#1735);
#1735 = AXIS2_PLACEMENT_3D('',#1736,#1737,#1738);
#1736 = CARTESIAN_POINT('',(6.499999999975,5.385786437627,32.4));
#1737 = DIRECTION('',(0.,2.2E-16,-1.));
#1738 = DIRECTION('',(-1.,0.,0.));
#1739 = ADVANCED_FACE('',(#1740),#1759,.F.);
#1740 = FACE_BOUND('',#1741,.T.);
#1741 = EDGE_LOOP('',(#1742,#1751,#1752,#1753));
#1742 = ORIENTED_EDGE('',*,*,#1743,.T.);
#1743 = EDGE_CURVE('',#1744,#1696,#1746,.T.);
#1744 = VERTEX_POINT('',#1745);
#1745 = CARTESIAN_POINT('',(-6.500000000025,-1.814213562373,44.4));
#1746 = CIRCLE('',#1747,1.);
#1747 = AXIS2_PLACEMENT_3D('',#1748,#1749,#1750);
#1748 = CARTESIAN_POINT('',(-5.500000000025,-1.814213562373,44.4));
#1749 = DIRECTION('',(-0.,1.,2.2E-16));
#1750 = DIRECTION('',(0.,-2.2E-16,1.));
#1751 = ORIENTED_EDGE('',*,*,#1703,.T.);
#1752 = ORIENTED_EDGE('',*,*,#1187,.F.);
#1753 = ORIENTED_EDGE('',*,*,#1754,.F.);
#1754 = EDGE_CURVE('',#1744,#1188,#1755,.T.);
#1755 = LINE('',#1756,#1757);
#1756 = CARTESIAN_POINT('',(-6.500000000025,-1.814213562373,44.4));
#1757 = VECTOR('',#1758,1.);
#1758 = DIRECTION('',(0.,-1.,-2.2E-16));
#1759 = CYLINDRICAL_SURFACE('',#1760,1.);
#1760 = AXIS2_PLACEMENT_3D('',#1761,#1762,#1763);
#1761 = CARTESIAN_POINT('',(-5.500000000025,-1.814213562373,44.4));
#1762 = DIRECTION('',(0.,-1.,-2.2E-16));
#1763 = DIRECTION('',(-1.,0.,0.));
#1764 = ADVANCED_FACE('',(#1765),#1784,.F.);
#1765 = FACE_BOUND('',#1766,.T.);
#1766 = EDGE_LOOP('',(#1767,#1776,#1782,#1783));
#1767 = ORIENTED_EDGE('',*,*,#1768,.T.);
#1768 = EDGE_CURVE('',#1720,#1769,#1771,.T.);
#1769 = VERTEX_POINT('',#1770);
#1770 = CARTESIAN_POINT('',(-6.500000000025,-1.814213562373,33.4));
#1771 = CIRCLE('',#1772,1.);
#1772 = AXIS2_PLACEMENT_3D('',#1773,#1774,#1775);
#1773 = CARTESIAN_POINT('',(-5.500000000025,-1.814213562373,33.4));
#1774 = DIRECTION('',(-0.,1.,2.2E-16));
#1775 = DIRECTION('',(0.,-2.2E-16,1.));
#1776 = ORIENTED_EDGE('',*,*,#1777,.T.);
#1777 = EDGE_CURVE('',#1769,#1197,#1778,.T.);
#1778 = LINE('',#1779,#1780);
#1779 = CARTESIAN_POINT('',(-6.500000000025,-1.814213562373,33.4));
#1780 = VECTOR('',#1781,1.);
#1781 = DIRECTION('',(0.,-1.,-2.2E-16));
#1782 = ORIENTED_EDGE('',*,*,#1204,.F.);
#1783 = ORIENTED_EDGE('',*,*,#1729,.F.);
#1784 = CYLINDRICAL_SURFACE('',#1785,1.);
#1785 = AXIS2_PLACEMENT_3D('',#1786,#1787,#1788);
#1786 = CARTESIAN_POINT('',(-5.500000000025,-1.814213562373,33.4));
#1787 = DIRECTION('',(0.,-1.,-2.2E-16));
#1788 = DIRECTION('',(0.,2.2E-16,-1.));
#1789 = ADVANCED_FACE('',(#1790),#1801,.F.);
#1790 = FACE_BOUND('',#1791,.F.);
#1791 = EDGE_LOOP('',(#1792,#1798,#1799,#1800));
#1792 = ORIENTED_EDGE('',*,*,#1793,.T.);
#1793 = EDGE_CURVE('',#1744,#1769,#1794,.T.);
#1794 = LINE('',#1795,#1796);
#1795 = CARTESIAN_POINT('',(-6.500000000025,-1.814213562373,35.65));
#1796 = VECTOR('',#1797,1.);
#1797 = DIRECTION('',(0.,-0.,-1.));
#1798 = ORIENTED_EDGE('',*,*,#1777,.T.);
#1799 = ORIENTED_EDGE('',*,*,#1196,.T.);
#1800 = ORIENTED_EDGE('',*,*,#1754,.F.);
#1801 = PLANE('',#1802);
#1802 = AXIS2_PLACEMENT_3D('',#1803,#1804,#1805);
#1803 = CARTESIAN_POINT('',(-6.500000000025,5.385786437627,32.4));
#1804 = DIRECTION('',(-1.,0.,0.));
#1805 = DIRECTION('',(0.,-2.2E-16,1.));
#1806 = ADVANCED_FACE('',(#1807),#1833,.T.);
#1807 = FACE_BOUND('',#1808,.T.);
#1808 = EDGE_LOOP('',(#1809,#1817,#1818,#1819,#1827));
#1809 = ORIENTED_EDGE('',*,*,#1810,.T.);
#1810 = EDGE_CURVE('',#1811,#1290,#1813,.T.);
#1811 = VERTEX_POINT('',#1812);
#1812 = CARTESIAN_POINT('',(5.186827201635,-0.601040764009,11.));
#1813 = LINE('',#1814,#1815);
#1814 = CARTESIAN_POINT('',(5.186827201635,-0.601040764009,11.));
#1815 = VECTOR('',#1816,1.);
#1816 = DIRECTION('',(0.,0.,1.));
#1817 = ORIENTED_EDGE('',*,*,#1298,.T.);
#1818 = ORIENTED_EDGE('',*,*,#1582,.T.);
#1819 = ORIENTED_EDGE('',*,*,#1820,.F.);
#1820 = EDGE_CURVE('',#1821,#1583,#1823,.T.);
#1821 = VERTEX_POINT('',#1822);
#1822 = CARTESIAN_POINT('',(0.601040764009,-5.186827201635,11.));
#1823 = LINE('',#1824,#1825);
#1824 = CARTESIAN_POINT('',(0.601040764009,-5.186827201635,11.));
#1825 = VECTOR('',#1826,1.);
#1826 = DIRECTION('',(0.,0.,1.));
#1827 = ORIENTED_EDGE('',*,*,#1828,.F.);
#1828 = EDGE_CURVE('',#1811,#1821,#1829,.T.);
#1829 = LINE('',#1830,#1831);
#1830 = CARTESIAN_POINT('',(5.186827201635,-0.601040764009,11.));
#1831 = VECTOR('',#1832,1.);
#1832 = DIRECTION('',(-0.707106781187,-0.707106781187,0.));
#1833 = PLANE('',#1834);
#1834 = AXIS2_PLACEMENT_3D('',#1835,#1836,#1837);
#1835 = CARTESIAN_POINT('',(5.186827201635,-0.601040764009,11.));
#1836 = DIRECTION('',(0.707106781187,-0.707106781187,0.));
#1837 = DIRECTION('',(-0.707106781187,-0.707106781187,0.));
#1838 = ADVANCED_FACE('',(#1839),#1858,.T.);
#1839 = FACE_BOUND('',#1840,.T.);
#1840 = EDGE_LOOP('',(#1841,#1849,#1850,#1851));
#1841 = ORIENTED_EDGE('',*,*,#1842,.T.);
#1842 = EDGE_CURVE('',#1843,#1282,#1845,.T.);
#1843 = VERTEX_POINT('',#1844);
#1844 = CARTESIAN_POINT('',(5.186827201635,0.601040764009,11.));
#1845 = LINE('',#1846,#1847);
#1846 = CARTESIAN_POINT('',(5.186827201635,0.601040764009,11.));
#1847 = VECTOR('',#1848,1.);
#1848 = DIRECTION('',(0.,0.,1.));
#1849 = ORIENTED_EDGE('',*,*,#1289,.T.);
#1850 = ORIENTED_EDGE('',*,*,#1810,.F.);
#1851 = ORIENTED_EDGE('',*,*,#1852,.F.);
#1852 = EDGE_CURVE('',#1843,#1811,#1853,.T.);
#1853 = CIRCLE('',#1854,0.85);
#1854 = AXIS2_PLACEMENT_3D('',#1855,#1856,#1857);
#1855 = CARTESIAN_POINT('',(4.585786437627,-7.042306460767E-16,11.));
#1856 = DIRECTION('',(-0.,0.,-1.));
#1857 = DIRECTION('',(-2.22044604925E-16,-1.,0.));
#1858 = CYLINDRICAL_SURFACE('',#1859,0.85);
#1859 = AXIS2_PLACEMENT_3D('',#1860,#1861,#1862);
#1860 = CARTESIAN_POINT('',(4.585786437627,-7.042306460767E-16,11.));
#1861 = DIRECTION('',(-0.,0.,-1.));
#1862 = DIRECTION('',(-2.22044604925E-16,-1.,0.));
#1863 = ADVANCED_FACE('',(#1864),#1882,.T.);
#1864 = FACE_BOUND('',#1865,.T.);
#1865 = EDGE_LOOP('',(#1866,#1874,#1875,#1876));
#1866 = ORIENTED_EDGE('',*,*,#1867,.T.);
#1867 = EDGE_CURVE('',#1868,#1273,#1870,.T.);
#1868 = VERTEX_POINT('',#1869);
#1869 = CARTESIAN_POINT('',(0.601040764009,5.186827201635,11.));
#1870 = LINE('',#1871,#1872);
#1871 = CARTESIAN_POINT('',(0.601040764009,5.186827201635,11.));
#1872 = VECTOR('',#1873,1.);
#1873 = DIRECTION('',(0.,0.,1.));
#1874 = ORIENTED_EDGE('',*,*,#1281,.T.);
#1875 = ORIENTED_EDGE('',*,*,#1842,.F.);
#1876 = ORIENTED_EDGE('',*,*,#1877,.F.);
#1877 = EDGE_CURVE('',#1868,#1843,#1878,.T.);
#1878 = LINE('',#1879,#1880);
#1879 = CARTESIAN_POINT('',(0.601040764009,5.186827201635,11.));
#1880 = VECTOR('',#1881,1.);
#1881 = DIRECTION('',(0.707106781187,-0.707106781187,0.));
#1882 = PLANE('',#1883);
#1883 = AXIS2_PLACEMENT_3D('',#1884,#1885,#1886);
#1884 = CARTESIAN_POINT('',(0.601040764009,5.186827201635,11.));
#1885 = DIRECTION('',(0.707106781187,0.707106781187,0.));
#1886 = DIRECTION('',(0.707106781187,-0.707106781187,0.));
#1887 = ADVANCED_FACE('',(#1888),#1909,.T.);
#1888 = FACE_BOUND('',#1889,.T.);
#1889 = EDGE_LOOP('',(#1890,#1898,#1899,#1900,#1901,#1902));
#1890 = ORIENTED_EDGE('',*,*,#1891,.T.);
#1891 = EDGE_CURVE('',#1892,#1330,#1894,.T.);
#1892 = VERTEX_POINT('',#1893);
#1893 = CARTESIAN_POINT('',(-0.601040764009,5.186827201635,11.));
#1894 = LINE('',#1895,#1896);
#1895 = CARTESIAN_POINT('',(-0.601040764009,5.186827201635,11.));
#1896 = VECTOR('',#1897,1.);
#1897 = DIRECTION('',(0.,0.,1.));
#1898 = ORIENTED_EDGE('',*,*,#1329,.T.);
#1899 = ORIENTED_EDGE('',*,*,#1314,.T.);
#1900 = ORIENTED_EDGE('',*,*,#1272,.T.);
#1901 = ORIENTED_EDGE('',*,*,#1867,.F.);
#1902 = ORIENTED_EDGE('',*,*,#1903,.F.);
#1903 = EDGE_CURVE('',#1892,#1868,#1904,.T.);
#1904 = CIRCLE('',#1905,0.85);
#1905 = AXIS2_PLACEMENT_3D('',#1906,#1907,#1908);
#1906 = CARTESIAN_POINT('',(1.703431368239E-15,4.585786437627,11.));
#1907 = DIRECTION('',(-0.,0.,-1.));
#1908 = DIRECTION('',(-2.22044604925E-16,-1.,0.));
#1909 = CYLINDRICAL_SURFACE('',#1910,0.85);
#1910 = AXIS2_PLACEMENT_3D('',#1911,#1912,#1913);
#1911 = CARTESIAN_POINT('',(1.703431368239E-15,4.585786437627,11.));
#1912 = DIRECTION('',(-0.,0.,-1.));
#1913 = DIRECTION('',(-2.22044604925E-16,-1.,0.));
#1914 = ADVANCED_FACE('',(#1915),#1933,.T.);
#1915 = FACE_BOUND('',#1916,.T.);
#1916 = EDGE_LOOP('',(#1917,#1925,#1926,#1927));
#1917 = ORIENTED_EDGE('',*,*,#1918,.T.);
#1918 = EDGE_CURVE('',#1919,#1355,#1921,.T.);
#1919 = VERTEX_POINT('',#1920);
#1920 = CARTESIAN_POINT('',(-5.186827201635,0.601040764009,11.));
#1921 = LINE('',#1922,#1923);
#1922 = CARTESIAN_POINT('',(-5.186827201635,0.601040764009,11.));
#1923 = VECTOR('',#1924,1.);
#1924 = DIRECTION('',(0.,0.,1.));
#1925 = ORIENTED_EDGE('',*,*,#1363,.T.);
#1926 = ORIENTED_EDGE('',*,*,#1891,.F.);
#1927 = ORIENTED_EDGE('',*,*,#1928,.F.);
#1928 = EDGE_CURVE('',#1919,#1892,#1929,.T.);
#1929 = LINE('',#1930,#1931);
#1930 = CARTESIAN_POINT('',(-5.186827201635,0.601040764009,11.));
#1931 = VECTOR('',#1932,1.);
#1932 = DIRECTION('',(0.707106781187,0.707106781187,-0.));
#1933 = PLANE('',#1934);
#1934 = AXIS2_PLACEMENT_3D('',#1935,#1936,#1937);
#1935 = CARTESIAN_POINT('',(-5.186827201635,0.601040764009,11.));
#1936 = DIRECTION('',(-0.707106781187,0.707106781187,0.));
#1937 = DIRECTION('',(0.707106781187,0.707106781187,0.));
#1938 = ADVANCED_FACE('',(#1939),#1958,.T.);
#1939 = FACE_BOUND('',#1940,.T.);
#1940 = EDGE_LOOP('',(#1941,#1949,#1950,#1951));
#1941 = ORIENTED_EDGE('',*,*,#1942,.T.);
#1942 = EDGE_CURVE('',#1943,#1347,#1945,.T.);
#1943 = VERTEX_POINT('',#1944);
#1944 = CARTESIAN_POINT('',(-5.186827201635,-0.601040764009,11.));
#1945 = LINE('',#1946,#1947);
#1946 = CARTESIAN_POINT('',(-5.186827201635,-0.601040764009,11.));
#1947 = VECTOR('',#1948,1.);
#1948 = DIRECTION('',(0.,0.,1.));
#1949 = ORIENTED_EDGE('',*,*,#1354,.T.);
#1950 = ORIENTED_EDGE('',*,*,#1918,.F.);
#1951 = ORIENTED_EDGE('',*,*,#1952,.F.);
#1952 = EDGE_CURVE('',#1943,#1919,#1953,.T.);
#1953 = CIRCLE('',#1954,0.85);
#1954 = AXIS2_PLACEMENT_3D('',#1955,#1956,#1957);
#1955 = CARTESIAN_POINT('',(-4.585786437627,1.370364460852E-15,11.));
#1956 = DIRECTION('',(-0.,0.,-1.));
#1957 = DIRECTION('',(-2.22044604925E-16,-1.,0.));
#1958 = CYLINDRICAL_SURFACE('',#1959,0.85);
#1959 = AXIS2_PLACEMENT_3D('',#1960,#1961,#1962);
#1960 = CARTESIAN_POINT('',(-4.585786437627,1.370364460852E-15,11.));
#1961 = DIRECTION('',(-0.,0.,-1.));
#1962 = DIRECTION('',(-2.22044604925E-16,-1.,0.));
#1963 = ADVANCED_FACE('',(#1964),#1983,.T.);
#1964 = FACE_BOUND('',#1965,.T.);
#1965 = EDGE_LOOP('',(#1966,#1974,#1975,#1976,#1977));
#1966 = ORIENTED_EDGE('',*,*,#1967,.T.);
#1967 = EDGE_CURVE('',#1968,#1592,#1970,.T.);
#1968 = VERTEX_POINT('',#1969);
#1969 = CARTESIAN_POINT('',(-0.601040764009,-5.186827201635,11.));
#1970 = LINE('',#1971,#1972);
#1971 = CARTESIAN_POINT('',(-0.601040764009,-5.186827201635,11.));
#1972 = VECTOR('',#1973,1.);
#1973 = DIRECTION('',(0.,0.,1.));
#1974 = ORIENTED_EDGE('',*,*,#1591,.T.);
#1975 = ORIENTED_EDGE('',*,*,#1346,.T.);
#1976 = ORIENTED_EDGE('',*,*,#1942,.F.);
#1977 = ORIENTED_EDGE('',*,*,#1978,.F.);
#1978 = EDGE_CURVE('',#1968,#1943,#1979,.T.);
#1979 = LINE('',#1980,#1981);
#1980 = CARTESIAN_POINT('',(-0.601040764009,-5.186827201635,11.));
#1981 = VECTOR('',#1982,1.);
#1982 = DIRECTION('',(-0.707106781187,0.707106781187,0.));
#1983 = PLANE('',#1984);
#1984 = AXIS2_PLACEMENT_3D('',#1985,#1986,#1987);
#1985 = CARTESIAN_POINT('',(-0.601040764009,-5.186827201635,11.));
#1986 = DIRECTION('',(-0.707106781187,-0.707106781187,0.));
#1987 = DIRECTION('',(-0.707106781187,0.707106781187,0.));
#1988 = ADVANCED_FACE('',(#1989),#2000,.T.);
#1989 = FACE_BOUND('',#1990,.T.);
#1990 = EDGE_LOOP('',(#1991,#1992,#1993,#1999));
#1991 = ORIENTED_EDGE('',*,*,#1400,.F.);
#1992 = ORIENTED_EDGE('',*,*,#1473,.T.);
#1993 = ORIENTED_EDGE('',*,*,#1994,.F.);
#1994 = EDGE_CURVE('',#1536,#1466,#1995,.T.);
#1995 = LINE('',#1996,#1997);
#1996 = CARTESIAN_POINT('',(-7.500000000025,0.185786437627,38.9));
#1997 = VECTOR('',#1998,1.);
#1998 = DIRECTION('',(0.,0.,1.));
#1999 = ORIENTED_EDGE('',*,*,#1535,.F.);
#2000 = PLANE('',#2001);
#2001 = AXIS2_PLACEMENT_3D('',#2002,#2003,#2004);
#2002 = CARTESIAN_POINT('',(-9.500000000025,0.185786437627,46.4));
#2003 = DIRECTION('',(0.,1.,0.));
#2004 = DIRECTION('',(0.,-0.,-1.));
#2005 = ADVANCED_FACE('',(#2006),#2012,.F.);
#2006 = FACE_BOUND('',#2007,.F.);
#2007 = EDGE_LOOP('',(#2008,#2009,#2010,#2011));
#2008 = ORIENTED_EDGE('',*,*,#1418,.F.);
#2009 = ORIENTED_EDGE('',*,*,#1480,.T.);
#2010 = ORIENTED_EDGE('',*,*,#1503,.F.);
#2011 = ORIENTED_EDGE('',*,*,#1528,.F.);
#2012 = PLANE('',#2013);
#2013 = AXIS2_PLACEMENT_3D('',#2014,#2015,#2016);
#2014 = CARTESIAN_POINT('',(-9.500000000025,2.185786437627,46.4));
#2015 = DIRECTION('',(0.,1.,0.));
#2016 = DIRECTION('',(0.,-0.,-1.));
#2017 = ADVANCED_FACE('',(#2018,#2028),#2039,.F.);
#2018 = FACE_BOUND('',#2019,.F.);
#2019 = EDGE_LOOP('',(#2020,#2021,#2022,#2023,#2024,#2025,#2026,#2027));
#2020 = ORIENTED_EDGE('',*,*,#1614,.F.);
#2021 = ORIENTED_EDGE('',*,*,#1670,.T.);
#2022 = ORIENTED_EDGE('',*,*,#1719,.F.);
#2023 = ORIENTED_EDGE('',*,*,#1768,.T.);
#2024 = ORIENTED_EDGE('',*,*,#1793,.F.);
#2025 = ORIENTED_EDGE('',*,*,#1743,.T.);
#2026 = ORIENTED_EDGE('',*,*,#1695,.F.);
#2027 = ORIENTED_EDGE('',*,*,#1645,.F.);
#2028 = FACE_BOUND('',#2029,.F.);
#2029 = EDGE_LOOP('',(#2030,#2031,#2032,#2038));
#2030 = ORIENTED_EDGE('',*,*,#1566,.F.);
#2031 = ORIENTED_EDGE('',*,*,#1457,.F.);
#2032 = ORIENTED_EDGE('',*,*,#2033,.F.);
#2033 = EDGE_CURVE('',#1544,#1458,#2034,.T.);
#2034 = LINE('',#2035,#2036);
#2035 = CARTESIAN_POINT('',(-7.500000000025,-1.814213562373,31.4));
#2036 = VECTOR('',#2037,1.);
#2037 = DIRECTION('',(0.,0.,1.));
#2038 = ORIENTED_EDGE('',*,*,#1551,.F.);
#2039 = PLANE('',#2040);
#2040 = AXIS2_PLACEMENT_3D('',#2041,#2042,#2043);
#2041 = CARTESIAN_POINT('',(-2.459277226308E-11,-1.814213562373,38.9));
#2042 = DIRECTION('',(0.,-1.,0.));
#2043 = DIRECTION('',(0.,0.,1.));
#2044 = ADVANCED_FACE('',(#2045),#2051,.F.);
#2045 = FACE_BOUND('',#2046,.F.);
#2046 = EDGE_LOOP('',(#2047,#2048,#2049,#2050));
#2047 = ORIENTED_EDGE('',*,*,#1994,.F.);
#2048 = ORIENTED_EDGE('',*,*,#1543,.T.);
#2049 = ORIENTED_EDGE('',*,*,#2033,.T.);
#2050 = ORIENTED_EDGE('',*,*,#1465,.F.);
#2051 = PLANE('',#2052);
#2052 = AXIS2_PLACEMENT_3D('',#2053,#2054,#2055);
#2053 = CARTESIAN_POINT('',(-7.500000000025,5.385786437627,31.4));
#2054 = DIRECTION('',(-1.,0.,0.));
#2055 = DIRECTION('',(0.,-2.2E-16,1.));
#2056 = ADVANCED_FACE('',(#2057),#2069,.T.);
#2057 = FACE_BOUND('',#2058,.T.);
#2058 = EDGE_LOOP('',(#2059,#2060,#2061,#2062));
#2059 = ORIENTED_EDGE('',*,*,#1820,.T.);
#2060 = ORIENTED_EDGE('',*,*,#1599,.T.);
#2061 = ORIENTED_EDGE('',*,*,#1967,.F.);
#2062 = ORIENTED_EDGE('',*,*,#2063,.F.);
#2063 = EDGE_CURVE('',#1821,#1968,#2064,.T.);
#2064 = CIRCLE('',#2065,0.85);
#2065 = AXIS2_PLACEMENT_3D('',#2066,#2067,#2068);
#2066 = CARTESIAN_POINT('',(-8.747632268646E-16,-4.585786437627,11.));
#2067 = DIRECTION('',(-0.,0.,-1.));
#2068 = DIRECTION('',(-2.22044604925E-16,-1.,0.));
#2069 = CYLINDRICAL_SURFACE('',#2070,0.85);
#2070 = AXIS2_PLACEMENT_3D('',#2071,#2072,#2073);
#2071 = CARTESIAN_POINT('',(-8.747632268646E-16,-4.585786437627,11.));
#2072 = DIRECTION('',(-0.,0.,-1.));
#2073 = DIRECTION('',(-2.22044604925E-16,-1.,0.));
#2074 = ADVANCED_FACE('',(#2075),#2085,.F.);
#2075 = FACE_BOUND('',#2076,.T.);
#2076 = EDGE_LOOP('',(#2077,#2078,#2079,#2080,#2081,#2082,#2083,#2084));
#2077 = ORIENTED_EDGE('',*,*,#1852,.T.);
#2078 = ORIENTED_EDGE('',*,*,#1828,.T.);
#2079 = ORIENTED_EDGE('',*,*,#2063,.T.);
#2080 = ORIENTED_EDGE('',*,*,#1978,.T.);
#2081 = ORIENTED_EDGE('',*,*,#1952,.T.);
#2082 = ORIENTED_EDGE('',*,*,#1928,.T.);
#2083 = ORIENTED_EDGE('',*,*,#1903,.T.);
#2084 = ORIENTED_EDGE('',*,*,#1877,.T.);
#2085 = PLANE('',#2086);
#2086 = AXIS2_PLACEMENT_3D('',#2087,#2088,#2089);
#2087 = CARTESIAN_POINT('',(6.827538787205E-16,9.316745636707E-16,11.));
#2088 = DIRECTION('',(0.,0.,1.));
#2089 = DIRECTION('',(-1.,4.440892098501E-16,0.));
#2090 = ( GEOMETRIC_REPRESENTATION_CONTEXT(3) 
GLOBAL_UNCERTAINTY_ASSIGNED_CONTEXT((#2094)) 
GLOBAL_UNIT_ASSIGNED_CONTEXT((#2091,#2092,#2093)) REPRESENTATION_CONTEXT
('Context #1','3D Context with UNIT and UNCERTAINTY') );
#2091 = ( LENGTH_UNIT() NAMED_UNIT(*) SI_UNIT(.MILLI.,.METRE.) );
#2092 = ( NAMED_UNIT(*) PLANE_ANGLE_UNIT() SI_UNIT($,.RADIAN.) );
#2093 = ( NAMED_UNIT(*) SI_UNIT($,.STERADIAN.) SOLID_ANGLE_UNIT() );
#2094 = UNCERTAINTY_MEASURE_WITH_UNIT(LENGTH_MEASURE(5.E-06),#2091,
  'distance_accuracy_value','confusion accuracy');
#2095 = PRODUCT_RELATED_PRODUCT_CATEGORY('part',$,(#7));
#2096 = MECHANICAL_DESIGN_GEOMETRIC_PRESENTATION_REPRESENTATION('',(
    #2097),#2090);
#2097 = STYLED_ITEM('color',(#2098),#15);
#2098 = PRESENTATION_STYLE_ASSIGNMENT((#2099,#2105));
#2099 = SURFACE_STYLE_USAGE(.BOTH.,#2100);
#2100 = SURFACE_SIDE_STYLE('',(#2101));
#2101 = SURFACE_STYLE_FILL_AREA(#2102);
#2102 = FILL_AREA_STYLE('',(#2103));
#2103 = FILL_AREA_STYLE_COLOUR('',#2104);
#2104 = COLOUR_RGB('',0.447058818107,0.474509808674,0.501960817233);
#2105 = CURVE_STYLE('',#2106,POSITIVE_LENGTH_MEASURE(0.1),#2107);
#2106 = DRAUGHTING_PRE_DEFINED_CURVE_FONT('continuous');
#2107 = COLOUR_RGB('',9.803921802644E-02,9.803921802644E-02,
  9.803921802644E-02);
ENDSEC;
END-ISO-10303-21;
