ISO-10303-21;
HEADER;
FILE_DESCRIPTION(('FreeCAD Model'),'2;1');
FILE_NAME('Open CASCADE Shape Model','2026-01-18T06:57:58',(''),(''),
  'Open CASCADE STEP processor 7.8','FreeCAD','Unknown');
FILE_SCHEMA(('AUTOMOTIVE_DESIGN { 1 0 10303 214 1 1 1 1 }'));
ENDSEC;
DATA;
#1 = APPLICATION_PROTOCOL_DEFINITION('international standard',
  'automotive_design',2000,#2);
#2 = APPLICATION_CONTEXT(
  'core data for automotive mechanical design processes');
#3 = SHAPE_DEFINITION_REPRESENTATION(#4,#10);
#4 = PRODUCT_DEFINITION_SHAPE('','',#5);
#5 = PRODUCT_DEFINITION('design','',#6,#9);
#6 = PRODUCT_DEFINITION_FORMATION('','',#7);
#7 = PRODUCT('mirrors','mirrors','',(#8));
#8 = PRODUCT_CONTEXT('',#2,'mechanical');
#9 = PRODUCT_DEFINITION_CONTEXT('part definition',#2,'design');
#10 = ADVANCED_BREP_SHAPE_REPRESENTATION('',(#11,#15),#2040);
#11 = AXIS2_PLACEMENT_3D('',#12,#13,#14);
#12 = CARTESIAN_POINT('',(0.,0.,0.));
#13 = DIRECTION('',(0.,0.,1.));
#14 = DIRECTION('',(1.,0.,-0.));
#15 = MANIFOLD_SOLID_BREP('',#16);
#16 = CLOSED_SHELL('',(#17,#57,#194,#219,#244,#329,#385,#402,#419,#442,
    #454,#485,#510,#535,#559,#583,#608,#633,#650,#704,#728,#775,#792,
    #809,#821,#846,#873,#885,#928,#1029,#1054,#1079,#1216,#1233,#1250,
    #1325,#1342,#1388,#1442,#1466,#1513,#1530,#1562,#1593,#1618,#1643,
    #1667,#1691,#1716,#1741,#1758,#1790,#1815,#1839,#1864,#1888,#1913,
    #1938,#1955,#1967,#1994,#2006,#2024));
#17 = ADVANCED_FACE('',(#18),#52,.F.);
#18 = FACE_BOUND('',#19,.F.);
#19 = EDGE_LOOP('',(#20,#30,#38,#46));
#20 = ORIENTED_EDGE('',*,*,#21,.T.);
#21 = EDGE_CURVE('',#22,#24,#26,.T.);
#22 = VERTEX_POINT('',#23);
#23 = CARTESIAN_POINT('',(8.697413408577,4.737615433932,53.4));
#24 = VERTEX_POINT('',#25);
#25 = CARTESIAN_POINT('',(8.697413408577,4.737615433932,70.4));
#26 = LINE('',#27,#28);
#27 = CARTESIAN_POINT('',(8.697413408577,4.737615433932,52.4));
#28 = VECTOR('',#29,1.);
#29 = DIRECTION('',(0.,0.,1.));
#30 = ORIENTED_EDGE('',*,*,#31,.T.);
#31 = EDGE_CURVE('',#24,#32,#34,.T.);
#32 = VERTEX_POINT('',#33);
#33 = CARTESIAN_POINT('',(2.909188309186,10.525840533323,70.4));
#34 = LINE('',#35,#36);
#35 = CARTESIAN_POINT('',(8.697413408577,4.737615433932,70.4));
#36 = VECTOR('',#37,1.);
#37 = DIRECTION('',(-0.707106781187,0.707106781187,0.));
#38 = ORIENTED_EDGE('',*,*,#39,.F.);
#39 = EDGE_CURVE('',#40,#32,#42,.T.);
#40 = VERTEX_POINT('',#41);
#41 = CARTESIAN_POINT('',(2.909188309186,10.525840533323,53.4));
#42 = LINE('',#43,#44);
#43 = CARTESIAN_POINT('',(2.909188309186,10.525840533323,52.4));
#44 = VECTOR('',#45,1.);
#45 = DIRECTION('',(0.,0.,1.));
#46 = ORIENTED_EDGE('',*,*,#47,.F.);
#47 = EDGE_CURVE('',#22,#40,#48,.T.);
#48 = LINE('',#49,#50);
#49 = CARTESIAN_POINT('',(8.697413408577,4.737615433932,53.4));
#50 = VECTOR('',#51,1.);
#51 = DIRECTION('',(-0.707106781187,0.707106781187,0.));
#52 = PLANE('',#53);
#53 = AXIS2_PLACEMENT_3D('',#54,#55,#56);
#54 = CARTESIAN_POINT('',(8.697413408577,4.737615433932,52.4));
#55 = DIRECTION('',(-0.707106781187,-0.707106781187,0.));
#56 = DIRECTION('',(-0.707106781187,0.707106781187,0.));
#57 = ADVANCED_FACE('',(#58,#119),#189,.F.);
#58 = FACE_BOUND('',#59,.F.);
#59 = EDGE_LOOP('',(#60,#70,#79,#87,#94,#95,#104,#112));
#60 = ORIENTED_EDGE('',*,*,#61,.T.);
#61 = EDGE_CURVE('',#62,#64,#66,.T.);
#62 = VERTEX_POINT('',#63);
#63 = CARTESIAN_POINT('',(-4.737615433967,-8.697413408612,53.4));
#64 = VERTEX_POINT('',#65);
#65 = CARTESIAN_POINT('',(-4.737615433967,-8.697413408612,70.4));
#66 = LINE('',#67,#68);
#67 = CARTESIAN_POINT('',(-4.737615433967,-8.697413408612,52.4));
#68 = VECTOR('',#69,1.);
#69 = DIRECTION('',(0.,0.,1.));
#70 = ORIENTED_EDGE('',*,*,#71,.F.);
#71 = EDGE_CURVE('',#72,#64,#74,.T.);
#72 = VERTEX_POINT('',#73);
#73 = CARTESIAN_POINT('',(-4.030508652781,-7.990306627425,71.4));
#74 = CIRCLE('',#75,1.);
#75 = AXIS2_PLACEMENT_3D('',#76,#77,#78);
#76 = CARTESIAN_POINT('',(-4.030508652781,-7.990306627425,70.4));
#77 = DIRECTION('',(0.707106781187,-0.707106781187,0.));
#78 = DIRECTION('',(0.,0.,1.));
#79 = ORIENTED_EDGE('',*,*,#80,.T.);
#80 = EDGE_CURVE('',#72,#81,#83,.T.);
#81 = VERTEX_POINT('',#82);
#82 = CARTESIAN_POINT('',(7.990306627391,4.030508652746,71.4));
#83 = LINE('',#84,#85);
#84 = CARTESIAN_POINT('',(-4.737615433967,-8.697413408612,71.4));
#85 = VECTOR('',#86,1.);
#86 = DIRECTION('',(0.707106781187,0.707106781187,0.));
#87 = ORIENTED_EDGE('',*,*,#88,.F.);
#88 = EDGE_CURVE('',#24,#81,#89,.T.);
#89 = CIRCLE('',#90,1.);
#90 = AXIS2_PLACEMENT_3D('',#91,#92,#93);
#91 = CARTESIAN_POINT('',(7.990306627391,4.030508652746,70.4));
#92 = DIRECTION('',(0.707106781187,-0.707106781187,0.));
#93 = DIRECTION('',(0.,-0.,-1.));
#94 = ORIENTED_EDGE('',*,*,#21,.F.);
#95 = ORIENTED_EDGE('',*,*,#96,.T.);
#96 = EDGE_CURVE('',#22,#97,#99,.T.);
#97 = VERTEX_POINT('',#98);
#98 = CARTESIAN_POINT('',(7.990306627391,4.030508652746,52.4));
#99 = CIRCLE('',#100,1.);
#100 = AXIS2_PLACEMENT_3D('',#101,#102,#103);
#101 = CARTESIAN_POINT('',(7.990306627391,4.030508652746,53.4));
#102 = DIRECTION('',(-0.707106781187,0.707106781187,-0.));
#103 = DIRECTION('',(0.,-0.,-1.));
#104 = ORIENTED_EDGE('',*,*,#105,.F.);
#105 = EDGE_CURVE('',#106,#97,#108,.T.);
#106 = VERTEX_POINT('',#107);
#107 = CARTESIAN_POINT('',(-4.030508652781,-7.990306627425,52.4));
#108 = LINE('',#109,#110);
#109 = CARTESIAN_POINT('',(-4.737615433967,-8.697413408612,52.4));
#110 = VECTOR('',#111,1.);
#111 = DIRECTION('',(0.707106781187,0.707106781187,0.));
#112 = ORIENTED_EDGE('',*,*,#113,.T.);
#113 = EDGE_CURVE('',#106,#62,#114,.T.);
#114 = CIRCLE('',#115,1.);
#115 = AXIS2_PLACEMENT_3D('',#116,#117,#118);
#116 = CARTESIAN_POINT('',(-4.030508652781,-7.990306627425,53.4));
#117 = DIRECTION('',(-0.707106781187,0.707106781187,0.));
#118 = DIRECTION('',(0.,0.,1.));
#119 = FACE_BOUND('',#120,.F.);
#120 = EDGE_LOOP('',(#121,#131,#140,#148,#157,#165,#174,#182));
#121 = ORIENTED_EDGE('',*,*,#122,.F.);
#122 = EDGE_CURVE('',#123,#125,#127,.T.);
#123 = VERTEX_POINT('',#124);
#124 = CARTESIAN_POINT('',(6.576093065018,2.616295090373,67.4));
#125 = VERTEX_POINT('',#126);
#126 = CARTESIAN_POINT('',(6.576093065018,2.616295090373,56.4));
#127 = LINE('',#128,#129);
#128 = CARTESIAN_POINT('',(6.576093065018,2.616295090373,60.4));
#129 = VECTOR('',#130,1.);
#130 = DIRECTION('',(0.,-0.,-1.));
#131 = ORIENTED_EDGE('',*,*,#132,.T.);
#132 = EDGE_CURVE('',#123,#133,#135,.T.);
#133 = VERTEX_POINT('',#134);
#134 = CARTESIAN_POINT('',(5.868986283831,1.909188309186,68.4));
#135 = CIRCLE('',#136,1.);
#136 = AXIS2_PLACEMENT_3D('',#137,#138,#139);
#137 = CARTESIAN_POINT('',(5.868986283831,1.909188309186,67.4));
#138 = DIRECTION('',(0.707106781187,-0.707106781187,-2.2E-16));
#139 = DIRECTION('',(1.55563491861E-16,-1.55563491861E-16,1.));
#140 = ORIENTED_EDGE('',*,*,#141,.F.);
#141 = EDGE_CURVE('',#142,#133,#144,.T.);
#142 = VERTEX_POINT('',#143);
#143 = CARTESIAN_POINT('',(-1.909188309221,-5.868986283866,68.4));
#144 = LINE('',#145,#146);
#145 = CARTESIAN_POINT('',(-3.676955262187,-7.636753236832,68.4));
#146 = VECTOR('',#147,1.);
#147 = DIRECTION('',(0.707106781187,0.707106781187,0.));
#148 = ORIENTED_EDGE('',*,*,#149,.F.);
#149 = EDGE_CURVE('',#150,#142,#152,.T.);
#150 = VERTEX_POINT('',#151);
#151 = CARTESIAN_POINT('',(-2.616295090408,-6.576093065052,67.4));
#152 = CIRCLE('',#153,1.);
#153 = AXIS2_PLACEMENT_3D('',#154,#155,#156);
#154 = CARTESIAN_POINT('',(-1.909188309221,-5.868986283866,67.4));
#155 = DIRECTION('',(-0.707106781187,0.707106781187,2.2E-16));
#156 = DIRECTION('',(1.55563491861E-16,-1.55563491861E-16,1.));
#157 = ORIENTED_EDGE('',*,*,#158,.F.);
#158 = EDGE_CURVE('',#159,#150,#161,.T.);
#159 = VERTEX_POINT('',#160);
#160 = CARTESIAN_POINT('',(-2.616295090408,-6.576093065052,56.4));
#161 = LINE('',#162,#163);
#162 = CARTESIAN_POINT('',(-2.616295090408,-6.576093065052,53.9));
#163 = VECTOR('',#164,1.);
#164 = DIRECTION('',(0.,0.,1.));
#165 = ORIENTED_EDGE('',*,*,#166,.F.);
#166 = EDGE_CURVE('',#167,#159,#169,.T.);
#167 = VERTEX_POINT('',#168);
#168 = CARTESIAN_POINT('',(-1.909188309221,-5.868986283866,55.4));
#169 = CIRCLE('',#170,1.);
#170 = AXIS2_PLACEMENT_3D('',#171,#172,#173);
#171 = CARTESIAN_POINT('',(-1.909188309221,-5.868986283866,56.4));
#172 = DIRECTION('',(-0.707106781187,0.707106781187,2.2E-16));
#173 = DIRECTION('',(1.55563491861E-16,-1.55563491861E-16,1.));
#174 = ORIENTED_EDGE('',*,*,#175,.F.);
#175 = EDGE_CURVE('',#176,#167,#178,.T.);
#176 = VERTEX_POINT('',#177);
#177 = CARTESIAN_POINT('',(5.868986283831,1.909188309186,55.4));
#178 = LINE('',#179,#180);
#179 = CARTESIAN_POINT('',(0.919238815525,-3.04055915912,55.4));
#180 = VECTOR('',#181,1.);
#181 = DIRECTION('',(-0.707106781187,-0.707106781187,0.));
#182 = ORIENTED_EDGE('',*,*,#183,.F.);
#183 = EDGE_CURVE('',#125,#176,#184,.T.);
#184 = CIRCLE('',#185,1.);
#185 = AXIS2_PLACEMENT_3D('',#186,#187,#188);
#186 = CARTESIAN_POINT('',(5.868986283831,1.909188309186,56.4));
#187 = DIRECTION('',(-0.707106781187,0.707106781187,2.2E-16));
#188 = DIRECTION('',(1.55563491861E-16,-1.55563491861E-16,1.));
#189 = PLANE('',#190);
#190 = AXIS2_PLACEMENT_3D('',#191,#192,#193);
#191 = CARTESIAN_POINT('',(-4.737615433967,-8.697413408612,52.4));
#192 = DIRECTION('',(-0.707106781187,0.707106781187,0.));
#193 = DIRECTION('',(0.707106781187,0.707106781187,0.));
#194 = ADVANCED_FACE('',(#195),#214,.T.);
#195 = FACE_BOUND('',#196,.T.);
#196 = EDGE_LOOP('',(#197,#198,#206,#213));
#197 = ORIENTED_EDGE('',*,*,#96,.T.);
#198 = ORIENTED_EDGE('',*,*,#199,.T.);
#199 = EDGE_CURVE('',#97,#200,#202,.T.);
#200 = VERTEX_POINT('',#201);
#201 = CARTESIAN_POINT('',(2.202081528,9.818733752137,52.4));
#202 = LINE('',#203,#204);
#203 = CARTESIAN_POINT('',(7.990306627391,4.030508652746,52.4));
#204 = VECTOR('',#205,1.);
#205 = DIRECTION('',(-0.707106781187,0.707106781187,0.));
#206 = ORIENTED_EDGE('',*,*,#207,.F.);
#207 = EDGE_CURVE('',#40,#200,#208,.T.);
#208 = CIRCLE('',#209,1.);
#209 = AXIS2_PLACEMENT_3D('',#210,#211,#212);
#210 = CARTESIAN_POINT('',(2.202081528,9.818733752137,53.4));
#211 = DIRECTION('',(-0.707106781187,0.707106781187,-0.));
#212 = DIRECTION('',(0.,-0.,-1.));
#213 = ORIENTED_EDGE('',*,*,#47,.F.);
#214 = CYLINDRICAL_SURFACE('',#215,1.);
#215 = AXIS2_PLACEMENT_3D('',#216,#217,#218);
#216 = CARTESIAN_POINT('',(7.990306627391,4.030508652746,53.4));
#217 = DIRECTION('',(-0.707106781187,0.707106781187,0.));
#218 = DIRECTION('',(0.707106781187,0.707106781187,0.));
#219 = ADVANCED_FACE('',(#220),#239,.T.);
#220 = FACE_BOUND('',#221,.F.);
#221 = EDGE_LOOP('',(#222,#223,#231,#238));
#222 = ORIENTED_EDGE('',*,*,#88,.T.);
#223 = ORIENTED_EDGE('',*,*,#224,.T.);
#224 = EDGE_CURVE('',#81,#225,#227,.T.);
#225 = VERTEX_POINT('',#226);
#226 = CARTESIAN_POINT('',(2.202081528,9.818733752137,71.4));
#227 = LINE('',#228,#229);
#228 = CARTESIAN_POINT('',(7.990306627391,4.030508652746,71.4));
#229 = VECTOR('',#230,1.);
#230 = DIRECTION('',(-0.707106781187,0.707106781187,0.));
#231 = ORIENTED_EDGE('',*,*,#232,.F.);
#232 = EDGE_CURVE('',#32,#225,#233,.T.);
#233 = CIRCLE('',#234,1.);
#234 = AXIS2_PLACEMENT_3D('',#235,#236,#237);
#235 = CARTESIAN_POINT('',(2.202081528,9.818733752137,70.4));
#236 = DIRECTION('',(0.707106781187,-0.707106781187,0.));
#237 = DIRECTION('',(0.,-0.,-1.));
#238 = ORIENTED_EDGE('',*,*,#31,.F.);
#239 = CYLINDRICAL_SURFACE('',#240,1.);
#240 = AXIS2_PLACEMENT_3D('',#241,#242,#243);
#241 = CARTESIAN_POINT('',(7.990306627391,4.030508652746,70.4));
#242 = DIRECTION('',(-0.707106781187,0.707106781187,0.));
#243 = DIRECTION('',(0.707106781187,0.707106781187,0.));
#244 = ADVANCED_FACE('',(#245,#290),#324,.F.);
#245 = FACE_BOUND('',#246,.F.);
#246 = EDGE_LOOP('',(#247,#248,#249,#257,#266,#274,#283,#289));
#247 = ORIENTED_EDGE('',*,*,#39,.T.);
#248 = ORIENTED_EDGE('',*,*,#232,.T.);
#249 = ORIENTED_EDGE('',*,*,#250,.T.);
#250 = EDGE_CURVE('',#225,#251,#253,.T.);
#251 = VERTEX_POINT('',#252);
#252 = CARTESIAN_POINT('',(-9.818733752172,-2.202081528035,71.4));
#253 = LINE('',#254,#255);
#254 = CARTESIAN_POINT('',(2.909188309186,10.525840533323,71.4));
#255 = VECTOR('',#256,1.);
#256 = DIRECTION('',(-0.707106781187,-0.707106781187,0.));
#257 = ORIENTED_EDGE('',*,*,#258,.T.);
#258 = EDGE_CURVE('',#251,#259,#261,.T.);
#259 = VERTEX_POINT('',#260);
#260 = CARTESIAN_POINT('',(-10.52584053335,-2.909188309221,70.4));
#261 = CIRCLE('',#262,1.);
#262 = AXIS2_PLACEMENT_3D('',#263,#264,#265);
#263 = CARTESIAN_POINT('',(-9.818733752172,-2.202081528035,70.4));
#264 = DIRECTION('',(0.707106781187,-0.707106781187,0.));
#265 = DIRECTION('',(0.,0.,1.));
#266 = ORIENTED_EDGE('',*,*,#267,.F.);
#267 = EDGE_CURVE('',#268,#259,#270,.T.);
#268 = VERTEX_POINT('',#269);
#269 = CARTESIAN_POINT('',(-10.52584053335,-2.909188309221,53.4));
#270 = LINE('',#271,#272);
#271 = CARTESIAN_POINT('',(-10.52584053335,-2.909188309221,52.4));
#272 = VECTOR('',#273,1.);
#273 = DIRECTION('',(0.,0.,1.));
#274 = ORIENTED_EDGE('',*,*,#275,.F.);
#275 = EDGE_CURVE('',#276,#268,#278,.T.);
#276 = VERTEX_POINT('',#277);
#277 = CARTESIAN_POINT('',(-9.818733752172,-2.202081528035,52.4));
#278 = CIRCLE('',#279,1.);
#279 = AXIS2_PLACEMENT_3D('',#280,#281,#282);
#280 = CARTESIAN_POINT('',(-9.818733752172,-2.202081528035,53.4));
#281 = DIRECTION('',(-0.707106781187,0.707106781187,0.));
#282 = DIRECTION('',(0.,0.,1.));
#283 = ORIENTED_EDGE('',*,*,#284,.F.);
#284 = EDGE_CURVE('',#200,#276,#285,.T.);
#285 = LINE('',#286,#287);
#286 = CARTESIAN_POINT('',(2.909188309186,10.525840533323,52.4));
#287 = VECTOR('',#288,1.);
#288 = DIRECTION('',(-0.707106781187,-0.707106781187,0.));
#289 = ORIENTED_EDGE('',*,*,#207,.F.);
#290 = FACE_BOUND('',#291,.F.);
#291 = EDGE_LOOP('',(#292,#302,#310,#318));
#292 = ORIENTED_EDGE('',*,*,#293,.T.);
#293 = EDGE_CURVE('',#294,#296,#298,.T.);
#294 = VERTEX_POINT('',#295);
#295 = CARTESIAN_POINT('',(-9.111626970985,-1.494974746848,69.4));
#296 = VERTEX_POINT('',#297);
#297 = CARTESIAN_POINT('',(1.494974746813,9.11162697095,69.4));
#298 = LINE('',#299,#300);
#299 = CARTESIAN_POINT('',(-9.111626970985,-1.494974746848,69.4));
#300 = VECTOR('',#301,1.);
#301 = DIRECTION('',(0.707106781187,0.707106781187,0.));
#302 = ORIENTED_EDGE('',*,*,#303,.T.);
#303 = EDGE_CURVE('',#296,#304,#306,.T.);
#304 = VERTEX_POINT('',#305);
#305 = CARTESIAN_POINT('',(1.494974746813,9.11162697095,54.4));
#306 = LINE('',#307,#308);
#307 = CARTESIAN_POINT('',(1.494974746813,9.11162697095,69.4));
#308 = VECTOR('',#309,1.);
#309 = DIRECTION('',(-0.,0.,-1.));
#310 = ORIENTED_EDGE('',*,*,#311,.T.);
#311 = EDGE_CURVE('',#304,#312,#314,.T.);
#312 = VERTEX_POINT('',#313);
#313 = CARTESIAN_POINT('',(-9.111626970985,-1.494974746848,54.4));
#314 = LINE('',#315,#316);
#315 = CARTESIAN_POINT('',(1.494974746813,9.11162697095,54.4));
#316 = VECTOR('',#317,1.);
#317 = DIRECTION('',(-0.707106781187,-0.707106781187,0.));
#318 = ORIENTED_EDGE('',*,*,#319,.T.);
#319 = EDGE_CURVE('',#312,#294,#320,.T.);
#320 = LINE('',#321,#322);
#321 = CARTESIAN_POINT('',(-9.111626970985,-1.494974746848,54.4));
#322 = VECTOR('',#323,1.);
#323 = DIRECTION('',(0.,0.,1.));
#324 = PLANE('',#325);
#325 = AXIS2_PLACEMENT_3D('',#326,#327,#328);
#326 = CARTESIAN_POINT('',(2.909188309186,10.525840533323,52.4));
#327 = DIRECTION('',(0.707106781187,-0.707106781187,0.));
#328 = DIRECTION('',(-0.707106781187,-0.707106781187,0.));
#329 = ADVANCED_FACE('',(#330,#346),#380,.F.);
#330 = FACE_BOUND('',#331,.F.);
#331 = EDGE_LOOP('',(#332,#333,#339,#340));
#332 = ORIENTED_EDGE('',*,*,#267,.T.);
#333 = ORIENTED_EDGE('',*,*,#334,.T.);
#334 = EDGE_CURVE('',#259,#64,#335,.T.);
#335 = LINE('',#336,#337);
#336 = CARTESIAN_POINT('',(-10.52584053335,-2.909188309221,70.4));
#337 = VECTOR('',#338,1.);
#338 = DIRECTION('',(0.707106781187,-0.707106781187,0.));
#339 = ORIENTED_EDGE('',*,*,#61,.F.);
#340 = ORIENTED_EDGE('',*,*,#341,.F.);
#341 = EDGE_CURVE('',#268,#62,#342,.T.);
#342 = LINE('',#343,#344);
#343 = CARTESIAN_POINT('',(-10.52584053335,-2.909188309221,53.4));
#344 = VECTOR('',#345,1.);
#345 = DIRECTION('',(0.707106781187,-0.707106781187,0.));
#346 = FACE_BOUND('',#347,.F.);
#347 = EDGE_LOOP('',(#348,#358,#366,#374));
#348 = ORIENTED_EDGE('',*,*,#349,.F.);
#349 = EDGE_CURVE('',#350,#352,#354,.T.);
#350 = VERTEX_POINT('',#351);
#351 = CARTESIAN_POINT('',(-6.848885271188,-6.586143571391,69.4));
#352 = VERTEX_POINT('',#353);
#353 = CARTESIAN_POINT('',(-6.848885271188,-6.586143571391,54.4));
#354 = LINE('',#355,#356);
#355 = CARTESIAN_POINT('',(-6.848885271188,-6.586143571391,69.4));
#356 = VECTOR('',#357,1.);
#357 = DIRECTION('',(0.,-0.,-1.));
#358 = ORIENTED_EDGE('',*,*,#359,.T.);
#359 = EDGE_CURVE('',#350,#360,#362,.T.);
#360 = VERTEX_POINT('',#361);
#361 = CARTESIAN_POINT('',(-8.263098833561,-5.171930009018,69.4));
#362 = LINE('',#363,#364);
#363 = CARTESIAN_POINT('',(-6.848885271188,-6.586143571391,69.4));
#364 = VECTOR('',#365,1.);
#365 = DIRECTION('',(-0.707106781187,0.707106781187,0.));
#366 = ORIENTED_EDGE('',*,*,#367,.T.);
#367 = EDGE_CURVE('',#360,#368,#370,.T.);
#368 = VERTEX_POINT('',#369);
#369 = CARTESIAN_POINT('',(-8.263098833561,-5.171930009018,54.4));
#370 = LINE('',#371,#372);
#371 = CARTESIAN_POINT('',(-8.263098833561,-5.171930009018,69.4));
#372 = VECTOR('',#373,1.);
#373 = DIRECTION('',(0.,-0.,-1.));
#374 = ORIENTED_EDGE('',*,*,#375,.T.);
#375 = EDGE_CURVE('',#368,#352,#376,.T.);
#376 = LINE('',#377,#378);
#377 = CARTESIAN_POINT('',(-8.263098833561,-5.171930009018,54.4));
#378 = VECTOR('',#379,1.);
#379 = DIRECTION('',(0.707106781187,-0.707106781187,0.));
#380 = PLANE('',#381);
#381 = AXIS2_PLACEMENT_3D('',#382,#383,#384);
#382 = CARTESIAN_POINT('',(-10.52584053335,-2.909188309221,52.4));
#383 = DIRECTION('',(0.707106781187,0.707106781187,0.));
#384 = DIRECTION('',(0.707106781187,-0.707106781187,0.));
#385 = ADVANCED_FACE('',(#386),#397,.T.);
#386 = FACE_BOUND('',#387,.F.);
#387 = EDGE_LOOP('',(#388,#389,#390,#391));
#388 = ORIENTED_EDGE('',*,*,#275,.T.);
#389 = ORIENTED_EDGE('',*,*,#341,.T.);
#390 = ORIENTED_EDGE('',*,*,#113,.F.);
#391 = ORIENTED_EDGE('',*,*,#392,.F.);
#392 = EDGE_CURVE('',#276,#106,#393,.T.);
#393 = LINE('',#394,#395);
#394 = CARTESIAN_POINT('',(-9.818733752172,-2.202081528035,52.4));
#395 = VECTOR('',#396,1.);
#396 = DIRECTION('',(0.707106781187,-0.707106781187,0.));
#397 = CYLINDRICAL_SURFACE('',#398,1.);
#398 = AXIS2_PLACEMENT_3D('',#399,#400,#401);
#399 = CARTESIAN_POINT('',(-9.818733752172,-2.202081528035,53.4));
#400 = DIRECTION('',(0.707106781187,-0.707106781187,0.));
#401 = DIRECTION('',(0.,-0.,-1.));
#402 = ADVANCED_FACE('',(#403),#414,.T.);
#403 = FACE_BOUND('',#404,.T.);
#404 = EDGE_LOOP('',(#405,#406,#407,#408));
#405 = ORIENTED_EDGE('',*,*,#258,.T.);
#406 = ORIENTED_EDGE('',*,*,#334,.T.);
#407 = ORIENTED_EDGE('',*,*,#71,.F.);
#408 = ORIENTED_EDGE('',*,*,#409,.F.);
#409 = EDGE_CURVE('',#251,#72,#410,.T.);
#410 = LINE('',#411,#412);
#411 = CARTESIAN_POINT('',(-9.818733752172,-2.202081528035,71.4));
#412 = VECTOR('',#413,1.);
#413 = DIRECTION('',(0.707106781187,-0.707106781187,0.));
#414 = CYLINDRICAL_SURFACE('',#415,1.);
#415 = AXIS2_PLACEMENT_3D('',#416,#417,#418);
#416 = CARTESIAN_POINT('',(-9.818733752172,-2.202081528035,70.4));
#417 = DIRECTION('',(0.707106781187,-0.707106781187,0.));
#418 = DIRECTION('',(0.,0.,1.));
#419 = ADVANCED_FACE('',(#420,#426),#437,.F.);
#420 = FACE_BOUND('',#421,.F.);
#421 = EDGE_LOOP('',(#422,#423,#424,#425));
#422 = ORIENTED_EDGE('',*,*,#284,.T.);
#423 = ORIENTED_EDGE('',*,*,#392,.T.);
#424 = ORIENTED_EDGE('',*,*,#105,.T.);
#425 = ORIENTED_EDGE('',*,*,#199,.T.);
#426 = FACE_BOUND('',#427,.F.);
#427 = EDGE_LOOP('',(#428));
#428 = ORIENTED_EDGE('',*,*,#429,.T.);
#429 = EDGE_CURVE('',#430,#430,#432,.T.);
#430 = VERTEX_POINT('',#431);
#431 = CARTESIAN_POINT('',(1.707106781187,-2.459274036494E-11,52.4));
#432 = CIRCLE('',#433,3.);
#433 = AXIS2_PLACEMENT_3D('',#434,#435,#436);
#434 = CARTESIAN_POINT('',(-1.292893218813,-2.459200557686E-11,52.4));
#435 = DIRECTION('',(0.,0.,-1.));
#436 = DIRECTION('',(1.,0.,0.));
#437 = PLANE('',#438);
#438 = AXIS2_PLACEMENT_3D('',#439,#440,#441);
#439 = CARTESIAN_POINT('',(-0.91421356239,0.914213562356,52.4));
#440 = DIRECTION('',(0.,0.,1.));
#441 = DIRECTION('',(-0.707106781187,-0.707106781187,0.));
#442 = ADVANCED_FACE('',(#443),#449,.T.);
#443 = FACE_BOUND('',#444,.T.);
#444 = EDGE_LOOP('',(#445,#446,#447,#448));
#445 = ORIENTED_EDGE('',*,*,#250,.T.);
#446 = ORIENTED_EDGE('',*,*,#409,.T.);
#447 = ORIENTED_EDGE('',*,*,#80,.T.);
#448 = ORIENTED_EDGE('',*,*,#224,.T.);
#449 = PLANE('',#450);
#450 = AXIS2_PLACEMENT_3D('',#451,#452,#453);
#451 = CARTESIAN_POINT('',(-0.91421356239,0.914213562356,71.4));
#452 = DIRECTION('',(0.,0.,1.));
#453 = DIRECTION('',(-0.707106781187,-0.707106781187,0.));
#454 = ADVANCED_FACE('',(#455),#480,.F.);
#455 = FACE_BOUND('',#456,.F.);
#456 = EDGE_LOOP('',(#457,#467,#473,#474));
#457 = ORIENTED_EDGE('',*,*,#458,.T.);
#458 = EDGE_CURVE('',#459,#461,#463,.T.);
#459 = VERTEX_POINT('',#460);
#460 = CARTESIAN_POINT('',(5.87903679017,3.313351365221,56.4));
#461 = VERTEX_POINT('',#462);
#462 = CARTESIAN_POINT('',(5.87903679017,3.313351365221,67.4));
#463 = LINE('',#464,#465);
#464 = CARTESIAN_POINT('',(5.87903679017,3.313351365221,65.15));
#465 = VECTOR('',#466,1.);
#466 = DIRECTION('',(0.,0.,1.));
#467 = ORIENTED_EDGE('',*,*,#468,.T.);
#468 = EDGE_CURVE('',#461,#123,#469,.T.);
#469 = LINE('',#470,#471);
#470 = CARTESIAN_POINT('',(5.87903679017,3.313351365221,67.4));
#471 = VECTOR('',#472,1.);
#472 = DIRECTION('',(0.707106781187,-0.707106781187,-2.2E-16));
#473 = ORIENTED_EDGE('',*,*,#122,.T.);
#474 = ORIENTED_EDGE('',*,*,#475,.F.);
#475 = EDGE_CURVE('',#459,#125,#476,.T.);
#476 = LINE('',#477,#478);
#477 = CARTESIAN_POINT('',(5.87903679017,3.313351365221,56.4));
#478 = VECTOR('',#479,1.);
#479 = DIRECTION('',(0.707106781187,-0.707106781187,-2.2E-16));
#480 = PLANE('',#481);
#481 = AXIS2_PLACEMENT_3D('',#482,#483,#484);
#482 = CARTESIAN_POINT('',(0.787867965627,8.404520189764,68.4));
#483 = DIRECTION('',(0.707106781187,0.707106781187,0.));
#484 = DIRECTION('',(-1.55563491861E-16,1.55563491861E-16,-1.));
#485 = ADVANCED_FACE('',(#486),#505,.F.);
#486 = FACE_BOUND('',#487,.F.);
#487 = EDGE_LOOP('',(#488,#497,#503,#504));
#488 = ORIENTED_EDGE('',*,*,#489,.T.);
#489 = EDGE_CURVE('',#461,#490,#492,.T.);
#490 = VERTEX_POINT('',#491);
#491 = CARTESIAN_POINT('',(5.171930008983,2.606244584034,68.4));
#492 = CIRCLE('',#493,1.);
#493 = AXIS2_PLACEMENT_3D('',#494,#495,#496);
#494 = CARTESIAN_POINT('',(5.171930008983,2.606244584034,67.4));
#495 = DIRECTION('',(0.707106781187,-0.707106781187,-2.2E-16));
#496 = DIRECTION('',(1.55563491861E-16,-1.55563491861E-16,1.));
#497 = ORIENTED_EDGE('',*,*,#498,.T.);
#498 = EDGE_CURVE('',#490,#133,#499,.T.);
#499 = LINE('',#500,#501);
#500 = CARTESIAN_POINT('',(5.171930008983,2.606244584034,68.4));
#501 = VECTOR('',#502,1.);
#502 = DIRECTION('',(0.707106781187,-0.707106781187,-2.2E-16));
#503 = ORIENTED_EDGE('',*,*,#132,.F.);
#504 = ORIENTED_EDGE('',*,*,#468,.F.);
#505 = CYLINDRICAL_SURFACE('',#506,1.);
#506 = AXIS2_PLACEMENT_3D('',#507,#508,#509);
#507 = CARTESIAN_POINT('',(5.171930008983,2.606244584034,67.4));
#508 = DIRECTION('',(0.707106781187,-0.707106781187,-2.2E-16));
#509 = DIRECTION('',(0.707106781187,0.707106781187,0.));
#510 = ADVANCED_FACE('',(#511),#530,.F.);
#511 = FACE_BOUND('',#512,.T.);
#512 = EDGE_LOOP('',(#513,#522,#528,#529));
#513 = ORIENTED_EDGE('',*,*,#514,.T.);
#514 = EDGE_CURVE('',#459,#515,#517,.T.);
#515 = VERTEX_POINT('',#516);
#516 = CARTESIAN_POINT('',(5.171930008983,2.606244584034,55.4));
#517 = CIRCLE('',#518,1.);
#518 = AXIS2_PLACEMENT_3D('',#519,#520,#521);
#519 = CARTESIAN_POINT('',(5.171930008983,2.606244584034,56.4));
#520 = DIRECTION('',(-0.707106781187,0.707106781187,2.2E-16));
#521 = DIRECTION('',(1.55563491861E-16,-1.55563491861E-16,1.));
#522 = ORIENTED_EDGE('',*,*,#523,.T.);
#523 = EDGE_CURVE('',#515,#176,#524,.T.);
#524 = LINE('',#525,#526);
#525 = CARTESIAN_POINT('',(5.171930008983,2.606244584034,55.4));
#526 = VECTOR('',#527,1.);
#527 = DIRECTION('',(0.707106781187,-0.707106781187,-2.2E-16));
#528 = ORIENTED_EDGE('',*,*,#183,.F.);
#529 = ORIENTED_EDGE('',*,*,#475,.F.);
#530 = CYLINDRICAL_SURFACE('',#531,1.);
#531 = AXIS2_PLACEMENT_3D('',#532,#533,#534);
#532 = CARTESIAN_POINT('',(5.171930008983,2.606244584034,56.4));
#533 = DIRECTION('',(0.707106781187,-0.707106781187,-2.2E-16));
#534 = DIRECTION('',(0.707106781187,0.707106781187,0.));
#535 = ADVANCED_FACE('',(#536),#554,.F.);
#536 = FACE_BOUND('',#537,.F.);
#537 = EDGE_LOOP('',(#538,#546,#552,#553));
#538 = ORIENTED_EDGE('',*,*,#539,.T.);
#539 = EDGE_CURVE('',#490,#540,#542,.T.);
#540 = VERTEX_POINT('',#541);
#541 = CARTESIAN_POINT('',(-2.606244584069,-5.171930009018,68.4));
#542 = LINE('',#543,#544);
#543 = CARTESIAN_POINT('',(-1.015254326399,-3.580939751348,68.4));
#544 = VECTOR('',#545,1.);
#545 = DIRECTION('',(-0.707106781187,-0.707106781187,0.));
#546 = ORIENTED_EDGE('',*,*,#547,.T.);
#547 = EDGE_CURVE('',#540,#142,#548,.T.);
#548 = LINE('',#549,#550);
#549 = CARTESIAN_POINT('',(-2.606244584069,-5.171930009018,68.4));
#550 = VECTOR('',#551,1.);
#551 = DIRECTION('',(0.707106781187,-0.707106781187,-2.2E-16));
#552 = ORIENTED_EDGE('',*,*,#141,.T.);
#553 = ORIENTED_EDGE('',*,*,#498,.F.);
#554 = PLANE('',#555);
#555 = AXIS2_PLACEMENT_3D('',#556,#557,#558);
#556 = CARTESIAN_POINT('',(-8.404520189798,-0.787867965661,68.4));
#557 = DIRECTION('',(1.55563491861E-16,-1.55563491861E-16,1.));
#558 = DIRECTION('',(0.707106781187,0.707106781187,0.));
#559 = ADVANCED_FACE('',(#560),#578,.F.);
#560 = FACE_BOUND('',#561,.F.);
#561 = EDGE_LOOP('',(#562,#570,#571,#572));
#562 = ORIENTED_EDGE('',*,*,#563,.T.);
#563 = EDGE_CURVE('',#564,#515,#566,.T.);
#564 = VERTEX_POINT('',#565);
#565 = CARTESIAN_POINT('',(-2.606244584069,-5.171930009018,55.4));
#566 = LINE('',#567,#568);
#567 = CARTESIAN_POINT('',(3.580939751314,1.015254326364,55.4));
#568 = VECTOR('',#569,1.);
#569 = DIRECTION('',(0.707106781187,0.707106781187,0.));
#570 = ORIENTED_EDGE('',*,*,#523,.T.);
#571 = ORIENTED_EDGE('',*,*,#175,.T.);
#572 = ORIENTED_EDGE('',*,*,#573,.F.);
#573 = EDGE_CURVE('',#564,#167,#574,.T.);
#574 = LINE('',#575,#576);
#575 = CARTESIAN_POINT('',(-2.606244584069,-5.171930009018,55.4));
#576 = VECTOR('',#577,1.);
#577 = DIRECTION('',(0.707106781187,-0.707106781187,-2.2E-16));
#578 = PLANE('',#579);
#579 = AXIS2_PLACEMENT_3D('',#580,#581,#582);
#580 = CARTESIAN_POINT('',(0.787867965627,8.404520189764,55.4));
#581 = DIRECTION('',(-1.55563491861E-16,1.55563491861E-16,-1.));
#582 = DIRECTION('',(-0.707106781187,-0.707106781187,0.));
#583 = ADVANCED_FACE('',(#584),#603,.F.);
#584 = FACE_BOUND('',#585,.T.);
#585 = EDGE_LOOP('',(#586,#595,#596,#597));
#586 = ORIENTED_EDGE('',*,*,#587,.T.);
#587 = EDGE_CURVE('',#588,#540,#590,.T.);
#588 = VERTEX_POINT('',#589);
#589 = CARTESIAN_POINT('',(-3.313351365255,-5.879036790205,67.4));
#590 = CIRCLE('',#591,1.);
#591 = AXIS2_PLACEMENT_3D('',#592,#593,#594);
#592 = CARTESIAN_POINT('',(-2.606244584069,-5.171930009018,67.4));
#593 = DIRECTION('',(-0.707106781187,0.707106781187,2.2E-16));
#594 = DIRECTION('',(1.55563491861E-16,-1.55563491861E-16,1.));
#595 = ORIENTED_EDGE('',*,*,#547,.T.);
#596 = ORIENTED_EDGE('',*,*,#149,.F.);
#597 = ORIENTED_EDGE('',*,*,#598,.F.);
#598 = EDGE_CURVE('',#588,#150,#599,.T.);
#599 = LINE('',#600,#601);
#600 = CARTESIAN_POINT('',(-3.313351365255,-5.879036790205,67.4));
#601 = VECTOR('',#602,1.);
#602 = DIRECTION('',(0.707106781187,-0.707106781187,-2.2E-16));
#603 = CYLINDRICAL_SURFACE('',#604,1.);
#604 = AXIS2_PLACEMENT_3D('',#605,#606,#607);
#605 = CARTESIAN_POINT('',(-2.606244584069,-5.171930009018,67.4));
#606 = DIRECTION('',(0.707106781187,-0.707106781187,-2.2E-16));
#607 = DIRECTION('',(-0.707106781187,-0.707106781187,0.));
#608 = ADVANCED_FACE('',(#609),#628,.F.);
#609 = FACE_BOUND('',#610,.T.);
#610 = EDGE_LOOP('',(#611,#620,#626,#627));
#611 = ORIENTED_EDGE('',*,*,#612,.T.);
#612 = EDGE_CURVE('',#564,#613,#615,.T.);
#613 = VERTEX_POINT('',#614);
#614 = CARTESIAN_POINT('',(-3.313351365255,-5.879036790205,56.4));
#615 = CIRCLE('',#616,1.);
#616 = AXIS2_PLACEMENT_3D('',#617,#618,#619);
#617 = CARTESIAN_POINT('',(-2.606244584069,-5.171930009018,56.4));
#618 = DIRECTION('',(-0.707106781187,0.707106781187,2.2E-16));
#619 = DIRECTION('',(1.55563491861E-16,-1.55563491861E-16,1.));
#620 = ORIENTED_EDGE('',*,*,#621,.T.);
#621 = EDGE_CURVE('',#613,#159,#622,.T.);
#622 = LINE('',#623,#624);
#623 = CARTESIAN_POINT('',(-3.313351365255,-5.879036790205,56.4));
#624 = VECTOR('',#625,1.);
#625 = DIRECTION('',(0.707106781187,-0.707106781187,-2.2E-16));
#626 = ORIENTED_EDGE('',*,*,#166,.F.);
#627 = ORIENTED_EDGE('',*,*,#573,.F.);
#628 = CYLINDRICAL_SURFACE('',#629,1.);
#629 = AXIS2_PLACEMENT_3D('',#630,#631,#632);
#630 = CARTESIAN_POINT('',(-2.606244584069,-5.171930009018,56.4));
#631 = DIRECTION('',(0.707106781187,-0.707106781187,-2.2E-16));
#632 = DIRECTION('',(-1.55563491861E-16,1.55563491861E-16,-1.));
#633 = ADVANCED_FACE('',(#634),#645,.F.);
#634 = FACE_BOUND('',#635,.F.);
#635 = EDGE_LOOP('',(#636,#642,#643,#644));
#636 = ORIENTED_EDGE('',*,*,#637,.T.);
#637 = EDGE_CURVE('',#588,#613,#638,.T.);
#638 = LINE('',#639,#640);
#639 = CARTESIAN_POINT('',(-3.313351365255,-5.879036790205,58.65));
#640 = VECTOR('',#641,1.);
#641 = DIRECTION('',(0.,-0.,-1.));
#642 = ORIENTED_EDGE('',*,*,#621,.T.);
#643 = ORIENTED_EDGE('',*,*,#158,.T.);
#644 = ORIENTED_EDGE('',*,*,#598,.F.);
#645 = PLANE('',#646);
#646 = AXIS2_PLACEMENT_3D('',#647,#648,#649);
#647 = CARTESIAN_POINT('',(-8.404520189798,-0.787867965661,55.4));
#648 = DIRECTION('',(-0.707106781187,-0.707106781187,0.));
#649 = DIRECTION('',(1.55563491861E-16,-1.55563491861E-16,1.));
#650 = ADVANCED_FACE('',(#651),#699,.T.);
#651 = FACE_BOUND('',#652,.T.);
#652 = EDGE_LOOP('',(#653,#661,#662,#670,#678,#686,#692,#693));
#653 = ORIENTED_EDGE('',*,*,#654,.F.);
#654 = EDGE_CURVE('',#294,#655,#657,.T.);
#655 = VERTEX_POINT('',#656);
#656 = CARTESIAN_POINT('',(-6.848885271188,-3.757716446645,69.4));
#657 = LINE('',#658,#659);
#658 = CARTESIAN_POINT('',(-9.111626970985,-1.494974746848,69.4));
#659 = VECTOR('',#660,1.);
#660 = DIRECTION('',(0.707106781187,-0.707106781187,-2.2E-16));
#661 = ORIENTED_EDGE('',*,*,#293,.T.);
#662 = ORIENTED_EDGE('',*,*,#663,.T.);
#663 = EDGE_CURVE('',#296,#664,#666,.T.);
#664 = VERTEX_POINT('',#665);
#665 = CARTESIAN_POINT('',(6.586143571356,4.020458146407,69.4));
#666 = LINE('',#667,#668);
#667 = CARTESIAN_POINT('',(1.494974746813,9.11162697095,69.4));
#668 = VECTOR('',#669,1.);
#669 = DIRECTION('',(0.707106781187,-0.707106781187,-2.2E-16));
#670 = ORIENTED_EDGE('',*,*,#671,.F.);
#671 = EDGE_CURVE('',#672,#664,#674,.T.);
#672 = VERTEX_POINT('',#673);
#673 = CARTESIAN_POINT('',(-4.020458146442,-6.586143571391,69.4));
#674 = LINE('',#675,#676);
#675 = CARTESIAN_POINT('',(-4.020458146442,-6.586143571391,69.4));
#676 = VECTOR('',#677,1.);
#677 = DIRECTION('',(0.707106781187,0.707106781187,0.));
#678 = ORIENTED_EDGE('',*,*,#679,.F.);
#679 = EDGE_CURVE('',#680,#672,#682,.T.);
#680 = VERTEX_POINT('',#681);
#681 = CARTESIAN_POINT('',(-5.434671708815,-5.171930009018,69.4));
#682 = LINE('',#683,#684);
#683 = CARTESIAN_POINT('',(-9.111626970985,-1.494974746848,69.4));
#684 = VECTOR('',#685,1.);
#685 = DIRECTION('',(0.707106781187,-0.707106781187,-2.2E-16));
#686 = ORIENTED_EDGE('',*,*,#687,.F.);
#687 = EDGE_CURVE('',#350,#680,#688,.T.);
#688 = LINE('',#689,#690);
#689 = CARTESIAN_POINT('',(-6.848885271188,-6.586143571391,69.4));
#690 = VECTOR('',#691,1.);
#691 = DIRECTION('',(0.707106781187,0.707106781187,-0.));
#692 = ORIENTED_EDGE('',*,*,#359,.T.);
#693 = ORIENTED_EDGE('',*,*,#694,.T.);
#694 = EDGE_CURVE('',#360,#655,#695,.T.);
#695 = LINE('',#696,#697);
#696 = CARTESIAN_POINT('',(-8.263098833561,-5.171930009018,69.4));
#697 = VECTOR('',#698,1.);
#698 = DIRECTION('',(0.707106781187,0.707106781187,-0.));
#699 = PLANE('',#700);
#700 = AXIS2_PLACEMENT_3D('',#701,#702,#703);
#701 = CARTESIAN_POINT('',(-1.782845034737,0.672512072508,69.4));
#702 = DIRECTION('',(0.,0.,-1.));
#703 = DIRECTION('',(0.707106781187,0.707106781187,0.));
#704 = ADVANCED_FACE('',(#705),#723,.F.);
#705 = FACE_BOUND('',#706,.F.);
#706 = EDGE_LOOP('',(#707,#708,#716,#722));
#707 = ORIENTED_EDGE('',*,*,#319,.F.);
#708 = ORIENTED_EDGE('',*,*,#709,.T.);
#709 = EDGE_CURVE('',#312,#710,#712,.T.);
#710 = VERTEX_POINT('',#711);
#711 = CARTESIAN_POINT('',(-6.848885271188,-3.757716446645,54.4));
#712 = LINE('',#713,#714);
#713 = CARTESIAN_POINT('',(-9.111626970985,-1.494974746848,54.4));
#714 = VECTOR('',#715,1.);
#715 = DIRECTION('',(0.707106781187,-0.707106781187,-2.2E-16));
#716 = ORIENTED_EDGE('',*,*,#717,.T.);
#717 = EDGE_CURVE('',#710,#655,#718,.T.);
#718 = LINE('',#719,#720);
#719 = CARTESIAN_POINT('',(-6.848885271188,-3.757716446645,61.9));
#720 = VECTOR('',#721,1.);
#721 = DIRECTION('',(0.,0.,1.));
#722 = ORIENTED_EDGE('',*,*,#654,.F.);
#723 = PLANE('',#724);
#724 = AXIS2_PLACEMENT_3D('',#725,#726,#727);
#725 = CARTESIAN_POINT('',(-9.111626970985,-1.494974746848,54.4));
#726 = DIRECTION('',(-0.707106781187,-0.707106781187,0.));
#727 = DIRECTION('',(1.55563491861E-16,-1.55563491861E-16,1.));
#728 = ADVANCED_FACE('',(#729),#770,.T.);
#729 = FACE_BOUND('',#730,.T.);
#730 = EDGE_LOOP('',(#731,#739,#740,#741,#747,#748,#756,#764));
#731 = ORIENTED_EDGE('',*,*,#732,.F.);
#732 = EDGE_CURVE('',#304,#733,#735,.T.);
#733 = VERTEX_POINT('',#734);
#734 = CARTESIAN_POINT('',(6.586143571356,4.020458146407,54.4));
#735 = LINE('',#736,#737);
#736 = CARTESIAN_POINT('',(1.494974746813,9.11162697095,54.4));
#737 = VECTOR('',#738,1.);
#738 = DIRECTION('',(0.707106781187,-0.707106781187,-2.2E-16));
#739 = ORIENTED_EDGE('',*,*,#311,.T.);
#740 = ORIENTED_EDGE('',*,*,#709,.T.);
#741 = ORIENTED_EDGE('',*,*,#742,.F.);
#742 = EDGE_CURVE('',#368,#710,#743,.T.);
#743 = LINE('',#744,#745);
#744 = CARTESIAN_POINT('',(-8.263098833561,-5.171930009018,54.4));
#745 = VECTOR('',#746,1.);
#746 = DIRECTION('',(0.707106781187,0.707106781187,-0.));
#747 = ORIENTED_EDGE('',*,*,#375,.T.);
#748 = ORIENTED_EDGE('',*,*,#749,.T.);
#749 = EDGE_CURVE('',#352,#750,#752,.T.);
#750 = VERTEX_POINT('',#751);
#751 = CARTESIAN_POINT('',(-5.434671708815,-5.171930009018,54.4));
#752 = LINE('',#753,#754);
#753 = CARTESIAN_POINT('',(-6.848885271188,-6.586143571391,54.4));
#754 = VECTOR('',#755,1.);
#755 = DIRECTION('',(0.707106781187,0.707106781187,-0.));
#756 = ORIENTED_EDGE('',*,*,#757,.T.);
#757 = EDGE_CURVE('',#750,#758,#760,.T.);
#758 = VERTEX_POINT('',#759);
#759 = CARTESIAN_POINT('',(-4.020458146442,-6.586143571391,54.4));
#760 = LINE('',#761,#762);
#761 = CARTESIAN_POINT('',(-9.111626970985,-1.494974746848,54.4));
#762 = VECTOR('',#763,1.);
#763 = DIRECTION('',(0.707106781187,-0.707106781187,-2.2E-16));
#764 = ORIENTED_EDGE('',*,*,#765,.F.);
#765 = EDGE_CURVE('',#733,#758,#766,.T.);
#766 = LINE('',#767,#768);
#767 = CARTESIAN_POINT('',(6.586143571356,4.020458146407,54.4));
#768 = VECTOR('',#769,1.);
#769 = DIRECTION('',(-0.707106781187,-0.707106781187,0.));
#770 = PLANE('',#771);
#771 = AXIS2_PLACEMENT_3D('',#772,#773,#774);
#772 = CARTESIAN_POINT('',(-1.782845034737,0.672512072508,54.4));
#773 = DIRECTION('',(0.,0.,1.));
#774 = DIRECTION('',(-0.707106781187,-0.707106781187,0.));
#775 = ADVANCED_FACE('',(#776),#787,.F.);
#776 = FACE_BOUND('',#777,.F.);
#777 = EDGE_LOOP('',(#778,#779,#785,#786));
#778 = ORIENTED_EDGE('',*,*,#663,.T.);
#779 = ORIENTED_EDGE('',*,*,#780,.T.);
#780 = EDGE_CURVE('',#664,#733,#781,.T.);
#781 = LINE('',#782,#783);
#782 = CARTESIAN_POINT('',(6.586143571356,4.020458146407,69.4));
#783 = VECTOR('',#784,1.);
#784 = DIRECTION('',(-0.,0.,-1.));
#785 = ORIENTED_EDGE('',*,*,#732,.F.);
#786 = ORIENTED_EDGE('',*,*,#303,.F.);
#787 = PLANE('',#788);
#788 = AXIS2_PLACEMENT_3D('',#789,#790,#791);
#789 = CARTESIAN_POINT('',(1.494974746813,9.11162697095,69.4));
#790 = DIRECTION('',(0.707106781187,0.707106781187,0.));
#791 = DIRECTION('',(-1.55563491861E-16,1.55563491861E-16,-1.));
#792 = ADVANCED_FACE('',(#793),#804,.T.);
#793 = FACE_BOUND('',#794,.T.);
#794 = EDGE_LOOP('',(#795,#796,#797,#803));
#795 = ORIENTED_EDGE('',*,*,#349,.F.);
#796 = ORIENTED_EDGE('',*,*,#687,.T.);
#797 = ORIENTED_EDGE('',*,*,#798,.F.);
#798 = EDGE_CURVE('',#750,#680,#799,.T.);
#799 = LINE('',#800,#801);
#800 = CARTESIAN_POINT('',(-5.434671708815,-5.171930009018,61.9));
#801 = VECTOR('',#802,1.);
#802 = DIRECTION('',(0.,0.,1.));
#803 = ORIENTED_EDGE('',*,*,#749,.F.);
#804 = PLANE('',#805);
#805 = AXIS2_PLACEMENT_3D('',#806,#807,#808);
#806 = CARTESIAN_POINT('',(-6.848885271188,-6.586143571391,69.4));
#807 = DIRECTION('',(-0.707106781187,0.707106781187,0.));
#808 = DIRECTION('',(0.,-0.,-1.));
#809 = ADVANCED_FACE('',(#810),#816,.F.);
#810 = FACE_BOUND('',#811,.F.);
#811 = EDGE_LOOP('',(#812,#813,#814,#815));
#812 = ORIENTED_EDGE('',*,*,#367,.F.);
#813 = ORIENTED_EDGE('',*,*,#694,.T.);
#814 = ORIENTED_EDGE('',*,*,#717,.F.);
#815 = ORIENTED_EDGE('',*,*,#742,.F.);
#816 = PLANE('',#817);
#817 = AXIS2_PLACEMENT_3D('',#818,#819,#820);
#818 = CARTESIAN_POINT('',(-8.263098833561,-5.171930009018,69.4));
#819 = DIRECTION('',(-0.707106781187,0.707106781187,0.));
#820 = DIRECTION('',(0.,-0.,-1.));
#821 = ADVANCED_FACE('',(#822),#841,.T.);
#822 = FACE_BOUND('',#823,.F.);
#823 = EDGE_LOOP('',(#824,#833,#839,#840));
#824 = ORIENTED_EDGE('',*,*,#825,.F.);
#825 = EDGE_CURVE('',#826,#826,#828,.T.);
#826 = VERTEX_POINT('',#827);
#827 = CARTESIAN_POINT('',(1.707106781187,-2.459274036494E-11,48.4));
#828 = CIRCLE('',#829,3.);
#829 = AXIS2_PLACEMENT_3D('',#830,#831,#832);
#830 = CARTESIAN_POINT('',(-1.292893218813,-2.459200557686E-11,48.4));
#831 = DIRECTION('',(0.,0.,1.));
#832 = DIRECTION('',(1.,0.,0.));
#833 = ORIENTED_EDGE('',*,*,#834,.T.);
#834 = EDGE_CURVE('',#826,#430,#835,.T.);
#835 = LINE('',#836,#837);
#836 = CARTESIAN_POINT('',(1.707106781187,-2.459274036494E-11,48.4));
#837 = VECTOR('',#838,1.);
#838 = DIRECTION('',(0.,0.,1.));
#839 = ORIENTED_EDGE('',*,*,#429,.F.);
#840 = ORIENTED_EDGE('',*,*,#834,.F.);
#841 = CYLINDRICAL_SURFACE('',#842,3.);
#842 = AXIS2_PLACEMENT_3D('',#843,#844,#845);
#843 = CARTESIAN_POINT('',(-1.292893218813,-2.459200557686E-11,48.4));
#844 = DIRECTION('',(-0.,-0.,-1.));
#845 = DIRECTION('',(1.,0.,0.));
#846 = ADVANCED_FACE('',(#847,#857),#868,.F.);
#847 = FACE_BOUND('',#848,.F.);
#848 = EDGE_LOOP('',(#849,#850,#851,#852,#853,#854,#855,#856));
#849 = ORIENTED_EDGE('',*,*,#458,.F.);
#850 = ORIENTED_EDGE('',*,*,#514,.T.);
#851 = ORIENTED_EDGE('',*,*,#563,.F.);
#852 = ORIENTED_EDGE('',*,*,#612,.T.);
#853 = ORIENTED_EDGE('',*,*,#637,.F.);
#854 = ORIENTED_EDGE('',*,*,#587,.T.);
#855 = ORIENTED_EDGE('',*,*,#539,.F.);
#856 = ORIENTED_EDGE('',*,*,#489,.F.);
#857 = FACE_BOUND('',#858,.F.);
#858 = EDGE_LOOP('',(#859,#860,#861,#867));
#859 = ORIENTED_EDGE('',*,*,#780,.F.);
#860 = ORIENTED_EDGE('',*,*,#671,.F.);
#861 = ORIENTED_EDGE('',*,*,#862,.F.);
#862 = EDGE_CURVE('',#758,#672,#863,.T.);
#863 = LINE('',#864,#865);
#864 = CARTESIAN_POINT('',(-4.020458146442,-6.586143571391,54.4));
#865 = VECTOR('',#866,1.);
#866 = DIRECTION('',(0.,0.,1.));
#867 = ORIENTED_EDGE('',*,*,#765,.F.);
#868 = PLANE('',#869);
#869 = AXIS2_PLACEMENT_3D('',#870,#871,#872);
#870 = CARTESIAN_POINT('',(1.282842712457,-1.282842712492,61.9));
#871 = DIRECTION('',(0.707106781187,-0.707106781187,0.));
#872 = DIRECTION('',(0.,0.,1.));
#873 = ADVANCED_FACE('',(#874),#880,.F.);
#874 = FACE_BOUND('',#875,.F.);
#875 = EDGE_LOOP('',(#876,#877,#878,#879));
#876 = ORIENTED_EDGE('',*,*,#798,.F.);
#877 = ORIENTED_EDGE('',*,*,#757,.T.);
#878 = ORIENTED_EDGE('',*,*,#862,.T.);
#879 = ORIENTED_EDGE('',*,*,#679,.F.);
#880 = PLANE('',#881);
#881 = AXIS2_PLACEMENT_3D('',#882,#883,#884);
#882 = CARTESIAN_POINT('',(-9.111626970985,-1.494974746848,54.4));
#883 = DIRECTION('',(-0.707106781187,-0.707106781187,0.));
#884 = DIRECTION('',(1.55563491861E-16,-1.55563491861E-16,1.));
#885 = ADVANCED_FACE('',(#886,#920),#923,.T.);
#886 = FACE_BOUND('',#887,.T.);
#887 = EDGE_LOOP('',(#888,#898,#906,#914));
#888 = ORIENTED_EDGE('',*,*,#889,.T.);
#889 = EDGE_CURVE('',#890,#892,#894,.T.);
#890 = VERTEX_POINT('',#891);
#891 = CARTESIAN_POINT('',(-5.385786437627,8.499999999975,48.4));
#892 = VERTEX_POINT('',#893);
#893 = CARTESIAN_POINT('',(-5.385786437627,-8.500000000025,48.4));
#894 = LINE('',#895,#896);
#895 = CARTESIAN_POINT('',(-5.385786437627,9.499999999975,48.4));
#896 = VECTOR('',#897,1.);
#897 = DIRECTION('',(2.22044604925E-16,-1.,0.));
#898 = ORIENTED_EDGE('',*,*,#899,.T.);
#899 = EDGE_CURVE('',#892,#900,#902,.T.);
#900 = VERTEX_POINT('',#901);
#901 = CARTESIAN_POINT('',(2.8,-8.500000000025,48.4));
#902 = LINE('',#903,#904);
#903 = CARTESIAN_POINT('',(-5.385786437627,-8.500000000025,48.4));
#904 = VECTOR('',#905,1.);
#905 = DIRECTION('',(1.,2.22044604925E-16,0.));
#906 = ORIENTED_EDGE('',*,*,#907,.T.);
#907 = EDGE_CURVE('',#900,#908,#910,.T.);
#908 = VERTEX_POINT('',#909);
#909 = CARTESIAN_POINT('',(2.8,8.499999999975,48.4));
#910 = LINE('',#911,#912);
#911 = CARTESIAN_POINT('',(2.8,-9.500000000025,48.4));
#912 = VECTOR('',#913,1.);
#913 = DIRECTION('',(-2.22044604925E-16,1.,0.));
#914 = ORIENTED_EDGE('',*,*,#915,.T.);
#915 = EDGE_CURVE('',#908,#890,#916,.T.);
#916 = LINE('',#917,#918);
#917 = CARTESIAN_POINT('',(2.8,8.499999999975,48.4));
#918 = VECTOR('',#919,1.);
#919 = DIRECTION('',(-1.,-2.22044604925E-16,0.));
#920 = FACE_BOUND('',#921,.T.);
#921 = EDGE_LOOP('',(#922));
#922 = ORIENTED_EDGE('',*,*,#825,.F.);
#923 = PLANE('',#924);
#924 = AXIS2_PLACEMENT_3D('',#925,#926,#927);
#925 = CARTESIAN_POINT('',(-1.292893218813,-2.459242707996E-11,48.4));
#926 = DIRECTION('',(0.,0.,1.));
#927 = DIRECTION('',(2.22044604925E-16,-1.,0.));
#928 = ADVANCED_FACE('',(#929,#990),#1024,.F.);
#929 = FACE_BOUND('',#930,.F.);
#930 = EDGE_LOOP('',(#931,#941,#948,#949,#958,#966,#975,#983));
#931 = ORIENTED_EDGE('',*,*,#932,.T.);
#932 = EDGE_CURVE('',#933,#935,#937,.T.);
#933 = VERTEX_POINT('',#934);
#934 = CARTESIAN_POINT('',(-5.385786437627,9.499999999975,30.4));
#935 = VERTEX_POINT('',#936);
#936 = CARTESIAN_POINT('',(-5.385786437627,9.499999999975,47.4));
#937 = LINE('',#938,#939);
#938 = CARTESIAN_POINT('',(-5.385786437627,9.499999999975,29.4));
#939 = VECTOR('',#940,1.);
#940 = DIRECTION('',(0.,0.,1.));
#941 = ORIENTED_EDGE('',*,*,#942,.T.);
#942 = EDGE_CURVE('',#935,#890,#943,.T.);
#943 = CIRCLE('',#944,1.);
#944 = AXIS2_PLACEMENT_3D('',#945,#946,#947);
#945 = CARTESIAN_POINT('',(-5.385786437627,8.499999999975,47.4));
#946 = DIRECTION('',(1.,2.22044604925E-16,0.));
#947 = DIRECTION('',(0.,0.,-1.));
#948 = ORIENTED_EDGE('',*,*,#889,.T.);
#949 = ORIENTED_EDGE('',*,*,#950,.T.);
#950 = EDGE_CURVE('',#892,#951,#953,.T.);
#951 = VERTEX_POINT('',#952);
#952 = CARTESIAN_POINT('',(-5.385786437627,-9.500000000025,47.4));
#953 = CIRCLE('',#954,1.);
#954 = AXIS2_PLACEMENT_3D('',#955,#956,#957);
#955 = CARTESIAN_POINT('',(-5.385786437627,-8.500000000025,47.4));
#956 = DIRECTION('',(1.,2.22044604925E-16,-0.));
#957 = DIRECTION('',(0.,0.,1.));
#958 = ORIENTED_EDGE('',*,*,#959,.F.);
#959 = EDGE_CURVE('',#960,#951,#962,.T.);
#960 = VERTEX_POINT('',#961);
#961 = CARTESIAN_POINT('',(-5.385786437627,-9.500000000025,30.4));
#962 = LINE('',#963,#964);
#963 = CARTESIAN_POINT('',(-5.385786437627,-9.500000000025,29.4));
#964 = VECTOR('',#965,1.);
#965 = DIRECTION('',(0.,0.,1.));
#966 = ORIENTED_EDGE('',*,*,#967,.F.);
#967 = EDGE_CURVE('',#968,#960,#970,.T.);
#968 = VERTEX_POINT('',#969);
#969 = CARTESIAN_POINT('',(-5.385786437627,-8.500000000025,29.4));
#970 = CIRCLE('',#971,1.);
#971 = AXIS2_PLACEMENT_3D('',#972,#973,#974);
#972 = CARTESIAN_POINT('',(-5.385786437627,-8.500000000025,30.4));
#973 = DIRECTION('',(-1.,-2.22044604925E-16,0.));
#974 = DIRECTION('',(0.,0.,1.));
#975 = ORIENTED_EDGE('',*,*,#976,.F.);
#976 = EDGE_CURVE('',#977,#968,#979,.T.);
#977 = VERTEX_POINT('',#978);
#978 = CARTESIAN_POINT('',(-5.385786437627,8.499999999975,29.4));
#979 = LINE('',#980,#981);
#980 = CARTESIAN_POINT('',(-5.385786437627,9.499999999975,29.4));
#981 = VECTOR('',#982,1.);
#982 = DIRECTION('',(2.22044604925E-16,-1.,0.));
#983 = ORIENTED_EDGE('',*,*,#984,.F.);
#984 = EDGE_CURVE('',#933,#977,#985,.T.);
#985 = CIRCLE('',#986,1.);
#986 = AXIS2_PLACEMENT_3D('',#987,#988,#989);
#987 = CARTESIAN_POINT('',(-5.385786437627,8.499999999975,30.4));
#988 = DIRECTION('',(-1.,-2.22044604925E-16,-0.));
#989 = DIRECTION('',(0.,0.,-1.));
#990 = FACE_BOUND('',#991,.F.);
#991 = EDGE_LOOP('',(#992,#1002,#1010,#1018));
#992 = ORIENTED_EDGE('',*,*,#993,.T.);
#993 = EDGE_CURVE('',#994,#996,#998,.T.);
#994 = VERTEX_POINT('',#995);
#995 = CARTESIAN_POINT('',(-5.385786437627,-7.500000000025,46.4));
#996 = VERTEX_POINT('',#997);
#997 = CARTESIAN_POINT('',(-5.385786437627,7.499999999975,46.4));
#998 = LINE('',#999,#1000);
#999 = CARTESIAN_POINT('',(-5.385786437627,-7.500000000025,46.4));
#1000 = VECTOR('',#1001,1.);
#1001 = DIRECTION('',(-2.22044604925E-16,1.,0.));
#1002 = ORIENTED_EDGE('',*,*,#1003,.T.);
#1003 = EDGE_CURVE('',#996,#1004,#1006,.T.);
#1004 = VERTEX_POINT('',#1005);
#1005 = CARTESIAN_POINT('',(-5.385786437627,7.499999999975,31.4));
#1006 = LINE('',#1007,#1008);
#1007 = CARTESIAN_POINT('',(-5.385786437627,7.499999999975,46.4));
#1008 = VECTOR('',#1009,1.);
#1009 = DIRECTION('',(0.,-0.,-1.));
#1010 = ORIENTED_EDGE('',*,*,#1011,.T.);
#1011 = EDGE_CURVE('',#1004,#1012,#1014,.T.);
#1012 = VERTEX_POINT('',#1013);
#1013 = CARTESIAN_POINT('',(-5.385786437627,-7.500000000025,31.4));
#1014 = LINE('',#1015,#1016);
#1015 = CARTESIAN_POINT('',(-5.385786437627,7.499999999975,31.4));
#1016 = VECTOR('',#1017,1.);
#1017 = DIRECTION('',(2.22044604925E-16,-1.,0.));
#1018 = ORIENTED_EDGE('',*,*,#1019,.T.);
#1019 = EDGE_CURVE('',#1012,#994,#1020,.T.);
#1020 = LINE('',#1021,#1022);
#1021 = CARTESIAN_POINT('',(-5.385786437627,-7.500000000025,31.4));
#1022 = VECTOR('',#1023,1.);
#1023 = DIRECTION('',(0.,0.,1.));
#1024 = PLANE('',#1025);
#1025 = AXIS2_PLACEMENT_3D('',#1026,#1027,#1028);
#1026 = CARTESIAN_POINT('',(-5.385786437627,9.499999999975,29.4));
#1027 = DIRECTION('',(1.,2.22044604925E-16,0.));
#1028 = DIRECTION('',(2.22044604925E-16,-1.,0.));
#1029 = ADVANCED_FACE('',(#1030),#1049,.T.);
#1030 = FACE_BOUND('',#1031,.F.);
#1031 = EDGE_LOOP('',(#1032,#1041,#1042,#1043));
#1032 = ORIENTED_EDGE('',*,*,#1033,.T.);
#1033 = EDGE_CURVE('',#1034,#908,#1036,.T.);
#1034 = VERTEX_POINT('',#1035);
#1035 = CARTESIAN_POINT('',(2.8,9.499999999975,47.4));
#1036 = CIRCLE('',#1037,1.);
#1037 = AXIS2_PLACEMENT_3D('',#1038,#1039,#1040);
#1038 = CARTESIAN_POINT('',(2.8,8.499999999975,47.4));
#1039 = DIRECTION('',(1.,2.22044604925E-16,0.));
#1040 = DIRECTION('',(0.,0.,-1.));
#1041 = ORIENTED_EDGE('',*,*,#915,.T.);
#1042 = ORIENTED_EDGE('',*,*,#942,.F.);
#1043 = ORIENTED_EDGE('',*,*,#1044,.F.);
#1044 = EDGE_CURVE('',#1034,#935,#1045,.T.);
#1045 = LINE('',#1046,#1047);
#1046 = CARTESIAN_POINT('',(2.8,9.499999999975,47.4));
#1047 = VECTOR('',#1048,1.);
#1048 = DIRECTION('',(-1.,-2.22044604925E-16,0.));
#1049 = CYLINDRICAL_SURFACE('',#1050,1.);
#1050 = AXIS2_PLACEMENT_3D('',#1051,#1052,#1053);
#1051 = CARTESIAN_POINT('',(2.8,8.499999999975,47.4));
#1052 = DIRECTION('',(-1.,-2.22044604925E-16,0.));
#1053 = DIRECTION('',(-2.22044604925E-16,1.,0.));
#1054 = ADVANCED_FACE('',(#1055),#1074,.T.);
#1055 = FACE_BOUND('',#1056,.T.);
#1056 = EDGE_LOOP('',(#1057,#1058,#1066,#1073));
#1057 = ORIENTED_EDGE('',*,*,#950,.T.);
#1058 = ORIENTED_EDGE('',*,*,#1059,.T.);
#1059 = EDGE_CURVE('',#951,#1060,#1062,.T.);
#1060 = VERTEX_POINT('',#1061);
#1061 = CARTESIAN_POINT('',(2.8,-9.500000000025,47.4));
#1062 = LINE('',#1063,#1064);
#1063 = CARTESIAN_POINT('',(-5.385786437627,-9.500000000025,47.4));
#1064 = VECTOR('',#1065,1.);
#1065 = DIRECTION('',(1.,2.22044604925E-16,0.));
#1066 = ORIENTED_EDGE('',*,*,#1067,.F.);
#1067 = EDGE_CURVE('',#900,#1060,#1068,.T.);
#1068 = CIRCLE('',#1069,1.);
#1069 = AXIS2_PLACEMENT_3D('',#1070,#1071,#1072);
#1070 = CARTESIAN_POINT('',(2.8,-8.500000000025,47.4));
#1071 = DIRECTION('',(1.,2.22044604925E-16,-0.));
#1072 = DIRECTION('',(0.,0.,1.));
#1073 = ORIENTED_EDGE('',*,*,#899,.F.);
#1074 = CYLINDRICAL_SURFACE('',#1075,1.);
#1075 = AXIS2_PLACEMENT_3D('',#1076,#1077,#1078);
#1076 = CARTESIAN_POINT('',(-5.385786437627,-8.500000000025,47.4));
#1077 = DIRECTION('',(1.,2.22044604925E-16,0.));
#1078 = DIRECTION('',(0.,0.,1.));
#1079 = ADVANCED_FACE('',(#1080,#1141),#1211,.F.);
#1080 = FACE_BOUND('',#1081,.F.);
#1081 = EDGE_LOOP('',(#1082,#1090,#1091,#1092,#1093,#1101,#1110,#1118,
    #1126,#1134));
#1082 = ORIENTED_EDGE('',*,*,#1083,.T.);
#1083 = EDGE_CURVE('',#1084,#1060,#1086,.T.);
#1084 = VERTEX_POINT('',#1085);
#1085 = CARTESIAN_POINT('',(2.8,-9.500000000025,30.4));
#1086 = LINE('',#1087,#1088);
#1087 = CARTESIAN_POINT('',(2.8,-9.500000000025,29.4));
#1088 = VECTOR('',#1089,1.);
#1089 = DIRECTION('',(0.,0.,1.));
#1090 = ORIENTED_EDGE('',*,*,#1067,.F.);
#1091 = ORIENTED_EDGE('',*,*,#907,.T.);
#1092 = ORIENTED_EDGE('',*,*,#1033,.F.);
#1093 = ORIENTED_EDGE('',*,*,#1094,.F.);
#1094 = EDGE_CURVE('',#1095,#1034,#1097,.T.);
#1095 = VERTEX_POINT('',#1096);
#1096 = CARTESIAN_POINT('',(2.8,9.499999999975,30.4));
#1097 = LINE('',#1098,#1099);
#1098 = CARTESIAN_POINT('',(2.8,9.499999999975,29.4));
#1099 = VECTOR('',#1100,1.);
#1100 = DIRECTION('',(0.,0.,1.));
#1101 = ORIENTED_EDGE('',*,*,#1102,.T.);
#1102 = EDGE_CURVE('',#1095,#1103,#1105,.T.);
#1103 = VERTEX_POINT('',#1104);
#1104 = CARTESIAN_POINT('',(2.8,8.499999999975,29.4));
#1105 = CIRCLE('',#1106,1.);
#1106 = AXIS2_PLACEMENT_3D('',#1107,#1108,#1109);
#1107 = CARTESIAN_POINT('',(2.8,8.499999999975,30.4));
#1108 = DIRECTION('',(-1.,-2.22044604925E-16,-0.));
#1109 = DIRECTION('',(0.,0.,-1.));
#1110 = ORIENTED_EDGE('',*,*,#1111,.F.);
#1111 = EDGE_CURVE('',#1112,#1103,#1114,.T.);
#1112 = VERTEX_POINT('',#1113);
#1113 = CARTESIAN_POINT('',(2.8,2.717157287525,29.4));
#1114 = LINE('',#1115,#1116);
#1115 = CARTESIAN_POINT('',(2.8,-9.500000000025,29.4));
#1116 = VECTOR('',#1117,1.);
#1117 = DIRECTION('',(-2.22044604925E-16,1.,0.));
#1118 = ORIENTED_EDGE('',*,*,#1119,.F.);
#1119 = EDGE_CURVE('',#1120,#1112,#1122,.T.);
#1120 = VERTEX_POINT('',#1121);
#1121 = CARTESIAN_POINT('',(2.8,-2.717157287525,29.4));
#1122 = LINE('',#1123,#1124);
#1123 = CARTESIAN_POINT('',(2.8,-9.500000000025,29.4));
#1124 = VECTOR('',#1125,1.);
#1125 = DIRECTION('',(-2.22044604925E-16,1.,0.));
#1126 = ORIENTED_EDGE('',*,*,#1127,.F.);
#1127 = EDGE_CURVE('',#1128,#1120,#1130,.T.);
#1128 = VERTEX_POINT('',#1129);
#1129 = CARTESIAN_POINT('',(2.8,-8.500000000025,29.4));
#1130 = LINE('',#1131,#1132);
#1131 = CARTESIAN_POINT('',(2.8,-9.500000000025,29.4));
#1132 = VECTOR('',#1133,1.);
#1133 = DIRECTION('',(-2.22044604925E-16,1.,0.));
#1134 = ORIENTED_EDGE('',*,*,#1135,.T.);
#1135 = EDGE_CURVE('',#1128,#1084,#1136,.T.);
#1136 = CIRCLE('',#1137,1.);
#1137 = AXIS2_PLACEMENT_3D('',#1138,#1139,#1140);
#1138 = CARTESIAN_POINT('',(2.8,-8.500000000025,30.4));
#1139 = DIRECTION('',(-1.,-2.22044604925E-16,0.));
#1140 = DIRECTION('',(0.,0.,1.));
#1141 = FACE_BOUND('',#1142,.F.);
#1142 = EDGE_LOOP('',(#1143,#1153,#1162,#1170,#1179,#1187,#1196,#1204));
#1143 = ORIENTED_EDGE('',*,*,#1144,.F.);
#1144 = EDGE_CURVE('',#1145,#1147,#1149,.T.);
#1145 = VERTEX_POINT('',#1146);
#1146 = CARTESIAN_POINT('',(2.8,6.499999999975,44.4));
#1147 = VERTEX_POINT('',#1148);
#1148 = CARTESIAN_POINT('',(2.8,6.499999999975,33.4));
#1149 = LINE('',#1150,#1151);
#1150 = CARTESIAN_POINT('',(2.8,6.499999999975,37.4));
#1151 = VECTOR('',#1152,1.);
#1152 = DIRECTION('',(0.,0.,-1.));
#1153 = ORIENTED_EDGE('',*,*,#1154,.T.);
#1154 = EDGE_CURVE('',#1145,#1155,#1157,.T.);
#1155 = VERTEX_POINT('',#1156);
#1156 = CARTESIAN_POINT('',(2.8,5.499999999975,45.4));
#1157 = CIRCLE('',#1158,1.);
#1158 = AXIS2_PLACEMENT_3D('',#1159,#1160,#1161);
#1159 = CARTESIAN_POINT('',(2.8,5.499999999975,44.4));
#1160 = DIRECTION('',(1.,2.22044604925E-16,-2.2E-16));
#1161 = DIRECTION('',(2.2E-16,4.884981308351E-32,1.));
#1162 = ORIENTED_EDGE('',*,*,#1163,.F.);
#1163 = EDGE_CURVE('',#1164,#1155,#1166,.T.);
#1164 = VERTEX_POINT('',#1165);
#1165 = CARTESIAN_POINT('',(2.8,-5.500000000025,45.4));
#1166 = LINE('',#1167,#1168);
#1167 = CARTESIAN_POINT('',(2.8,-8.000000000025,45.4));
#1168 = VECTOR('',#1169,1.);
#1169 = DIRECTION('',(-2.22044604925E-16,1.,0.));
#1170 = ORIENTED_EDGE('',*,*,#1171,.F.);
#1171 = EDGE_CURVE('',#1172,#1164,#1174,.T.);
#1172 = VERTEX_POINT('',#1173);
#1173 = CARTESIAN_POINT('',(2.8,-6.500000000025,44.4));
#1174 = CIRCLE('',#1175,1.);
#1175 = AXIS2_PLACEMENT_3D('',#1176,#1177,#1178);
#1176 = CARTESIAN_POINT('',(2.8,-5.500000000025,44.4));
#1177 = DIRECTION('',(-1.,-2.22044604925E-16,2.2E-16));
#1178 = DIRECTION('',(2.2E-16,4.884981308351E-32,1.));
#1179 = ORIENTED_EDGE('',*,*,#1180,.F.);
#1180 = EDGE_CURVE('',#1181,#1172,#1183,.T.);
#1181 = VERTEX_POINT('',#1182);
#1182 = CARTESIAN_POINT('',(2.8,-6.500000000025,33.4));
#1183 = LINE('',#1184,#1185);
#1184 = CARTESIAN_POINT('',(2.8,-6.500000000025,30.9));
#1185 = VECTOR('',#1186,1.);
#1186 = DIRECTION('',(0.,0.,1.));
#1187 = ORIENTED_EDGE('',*,*,#1188,.F.);
#1188 = EDGE_CURVE('',#1189,#1181,#1191,.T.);
#1189 = VERTEX_POINT('',#1190);
#1190 = CARTESIAN_POINT('',(2.8,-5.500000000025,32.4));
#1191 = CIRCLE('',#1192,1.);
#1192 = AXIS2_PLACEMENT_3D('',#1193,#1194,#1195);
#1193 = CARTESIAN_POINT('',(2.8,-5.500000000025,33.4));
#1194 = DIRECTION('',(-1.,-2.22044604925E-16,2.2E-16));
#1195 = DIRECTION('',(2.2E-16,4.884981308351E-32,1.));
#1196 = ORIENTED_EDGE('',*,*,#1197,.F.);
#1197 = EDGE_CURVE('',#1198,#1189,#1200,.T.);
#1198 = VERTEX_POINT('',#1199);
#1199 = CARTESIAN_POINT('',(2.8,5.499999999975,32.4));
#1200 = LINE('',#1201,#1202);
#1201 = CARTESIAN_POINT('',(2.8,-1.500000000025,32.4));
#1202 = VECTOR('',#1203,1.);
#1203 = DIRECTION('',(2.22044604925E-16,-1.,0.));
#1204 = ORIENTED_EDGE('',*,*,#1205,.F.);
#1205 = EDGE_CURVE('',#1147,#1198,#1206,.T.);
#1206 = CIRCLE('',#1207,1.);
#1207 = AXIS2_PLACEMENT_3D('',#1208,#1209,#1210);
#1208 = CARTESIAN_POINT('',(2.8,5.499999999975,33.4));
#1209 = DIRECTION('',(-1.,-2.22044604925E-16,2.2E-16));
#1210 = DIRECTION('',(2.2E-16,4.884981308351E-32,1.));
#1211 = PLANE('',#1212);
#1212 = AXIS2_PLACEMENT_3D('',#1213,#1214,#1215);
#1213 = CARTESIAN_POINT('',(2.8,-9.500000000025,29.4));
#1214 = DIRECTION('',(-1.,-2.22044604925E-16,0.));
#1215 = DIRECTION('',(-2.22044604925E-16,1.,0.));
#1216 = ADVANCED_FACE('',(#1217),#1228,.F.);
#1217 = FACE_BOUND('',#1218,.F.);
#1218 = EDGE_LOOP('',(#1219,#1220,#1221,#1222));
#1219 = ORIENTED_EDGE('',*,*,#1094,.T.);
#1220 = ORIENTED_EDGE('',*,*,#1044,.T.);
#1221 = ORIENTED_EDGE('',*,*,#932,.F.);
#1222 = ORIENTED_EDGE('',*,*,#1223,.F.);
#1223 = EDGE_CURVE('',#1095,#933,#1224,.T.);
#1224 = LINE('',#1225,#1226);
#1225 = CARTESIAN_POINT('',(2.8,9.499999999975,30.4));
#1226 = VECTOR('',#1227,1.);
#1227 = DIRECTION('',(-1.,-2.22044604925E-16,0.));
#1228 = PLANE('',#1229);
#1229 = AXIS2_PLACEMENT_3D('',#1230,#1231,#1232);
#1230 = CARTESIAN_POINT('',(2.8,9.499999999975,29.4));
#1231 = DIRECTION('',(2.22044604925E-16,-1.,0.));
#1232 = DIRECTION('',(-1.,-2.22044604925E-16,0.));
#1233 = ADVANCED_FACE('',(#1234),#1245,.T.);
#1234 = FACE_BOUND('',#1235,.T.);
#1235 = EDGE_LOOP('',(#1236,#1237,#1243,#1244));
#1236 = ORIENTED_EDGE('',*,*,#1102,.T.);
#1237 = ORIENTED_EDGE('',*,*,#1238,.T.);
#1238 = EDGE_CURVE('',#1103,#977,#1239,.T.);
#1239 = LINE('',#1240,#1241);
#1240 = CARTESIAN_POINT('',(2.8,8.499999999975,29.4));
#1241 = VECTOR('',#1242,1.);
#1242 = DIRECTION('',(-1.,-2.22044604925E-16,0.));
#1243 = ORIENTED_EDGE('',*,*,#984,.F.);
#1244 = ORIENTED_EDGE('',*,*,#1223,.F.);
#1245 = CYLINDRICAL_SURFACE('',#1246,1.);
#1246 = AXIS2_PLACEMENT_3D('',#1247,#1248,#1249);
#1247 = CARTESIAN_POINT('',(2.8,8.499999999975,30.4));
#1248 = DIRECTION('',(-1.,-2.22044604925E-16,0.));
#1249 = DIRECTION('',(-2.22044604925E-16,1.,0.));
#1250 = ADVANCED_FACE('',(#1251),#1320,.F.);
#1251 = FACE_BOUND('',#1252,.F.);
#1252 = EDGE_LOOP('',(#1253,#1254,#1255,#1261,#1262,#1270,#1279,#1287,
    #1296,#1304,#1313,#1319));
#1253 = ORIENTED_EDGE('',*,*,#1238,.T.);
#1254 = ORIENTED_EDGE('',*,*,#976,.T.);
#1255 = ORIENTED_EDGE('',*,*,#1256,.T.);
#1256 = EDGE_CURVE('',#968,#1128,#1257,.T.);
#1257 = LINE('',#1258,#1259);
#1258 = CARTESIAN_POINT('',(-5.385786437627,-8.500000000025,29.4));
#1259 = VECTOR('',#1260,1.);
#1260 = DIRECTION('',(1.,2.22044604925E-16,0.));
#1261 = ORIENTED_EDGE('',*,*,#1127,.T.);
#1262 = ORIENTED_EDGE('',*,*,#1263,.T.);
#1263 = EDGE_CURVE('',#1120,#1264,#1266,.T.);
#1264 = VERTEX_POINT('',#1265);
#1265 = CARTESIAN_POINT('',(0.565685424949,-4.951471862576,29.4));
#1266 = LINE('',#1267,#1268);
#1267 = CARTESIAN_POINT('',(4.951471862576,-0.565685424949,29.4));
#1268 = VECTOR('',#1269,1.);
#1269 = DIRECTION('',(-0.707106781187,-0.707106781187,0.));
#1270 = ORIENTED_EDGE('',*,*,#1271,.T.);
#1271 = EDGE_CURVE('',#1264,#1272,#1274,.T.);
#1272 = VERTEX_POINT('',#1273);
#1273 = CARTESIAN_POINT('',(-0.565685424949,-4.951471862576,29.4));
#1274 = CIRCLE('',#1275,0.8);
#1275 = AXIS2_PLACEMENT_3D('',#1276,#1277,#1278);
#1276 = CARTESIAN_POINT('',(-1.966840995908E-16,-4.385786437627,29.4));
#1277 = DIRECTION('',(0.,-0.,-1.));
#1278 = DIRECTION('',(1.,0.,-0.));
#1279 = ORIENTED_EDGE('',*,*,#1280,.T.);
#1280 = EDGE_CURVE('',#1272,#1281,#1283,.T.);
#1281 = VERTEX_POINT('',#1282);
#1282 = CARTESIAN_POINT('',(-4.951471862576,-0.565685424949,29.4));
#1283 = LINE('',#1284,#1285);
#1284 = CARTESIAN_POINT('',(-0.565685424949,-4.951471862576,29.4));
#1285 = VECTOR('',#1286,1.);
#1286 = DIRECTION('',(-0.707106781187,0.707106781187,0.));
#1287 = ORIENTED_EDGE('',*,*,#1288,.T.);
#1288 = EDGE_CURVE('',#1281,#1289,#1291,.T.);
#1289 = VERTEX_POINT('',#1290);
#1290 = CARTESIAN_POINT('',(-4.951471862576,0.565685424949,29.4));
#1291 = CIRCLE('',#1292,0.8);
#1292 = AXIS2_PLACEMENT_3D('',#1293,#1294,#1295);
#1293 = CARTESIAN_POINT('',(-4.385786437627,8.628179143659E-16,29.4));
#1294 = DIRECTION('',(0.,-0.,-1.));
#1295 = DIRECTION('',(1.,0.,-0.));
#1296 = ORIENTED_EDGE('',*,*,#1297,.T.);
#1297 = EDGE_CURVE('',#1289,#1298,#1300,.T.);
#1298 = VERTEX_POINT('',#1299);
#1299 = CARTESIAN_POINT('',(-0.565685424949,4.951471862576,29.4));
#1300 = LINE('',#1301,#1302);
#1301 = CARTESIAN_POINT('',(-4.951471862576,0.565685424949,29.4));
#1302 = VECTOR('',#1303,1.);
#1303 = DIRECTION('',(0.707106781187,0.707106781187,-0.));
#1304 = ORIENTED_EDGE('',*,*,#1305,.T.);
#1305 = EDGE_CURVE('',#1298,#1306,#1308,.T.);
#1306 = VERTEX_POINT('',#1307);
#1307 = CARTESIAN_POINT('',(0.565685424949,4.951471862576,29.4));
#1308 = CIRCLE('',#1309,0.8);
#1309 = AXIS2_PLACEMENT_3D('',#1310,#1311,#1312);
#1310 = CARTESIAN_POINT('',(-8.025166225718E-16,4.385786437627,29.4));
#1311 = DIRECTION('',(0.,-0.,-1.));
#1312 = DIRECTION('',(1.,0.,-0.));
#1313 = ORIENTED_EDGE('',*,*,#1314,.T.);
#1314 = EDGE_CURVE('',#1306,#1112,#1315,.T.);
#1315 = LINE('',#1316,#1317);
#1316 = CARTESIAN_POINT('',(0.565685424949,4.951471862576,29.4));
#1317 = VECTOR('',#1318,1.);
#1318 = DIRECTION('',(0.707106781187,-0.707106781187,0.));
#1319 = ORIENTED_EDGE('',*,*,#1111,.T.);
#1320 = PLANE('',#1321);
#1321 = AXIS2_PLACEMENT_3D('',#1322,#1323,#1324);
#1322 = CARTESIAN_POINT('',(-1.292893218813,-2.459242707996E-11,29.4));
#1323 = DIRECTION('',(0.,0.,1.));
#1324 = DIRECTION('',(2.22044604925E-16,-1.,0.));
#1325 = ADVANCED_FACE('',(#1326),#1337,.T.);
#1326 = FACE_BOUND('',#1327,.F.);
#1327 = EDGE_LOOP('',(#1328,#1329,#1335,#1336));
#1328 = ORIENTED_EDGE('',*,*,#967,.T.);
#1329 = ORIENTED_EDGE('',*,*,#1330,.T.);
#1330 = EDGE_CURVE('',#960,#1084,#1331,.T.);
#1331 = LINE('',#1332,#1333);
#1332 = CARTESIAN_POINT('',(-5.385786437627,-9.500000000025,30.4));
#1333 = VECTOR('',#1334,1.);
#1334 = DIRECTION('',(1.,2.22044604925E-16,0.));
#1335 = ORIENTED_EDGE('',*,*,#1135,.F.);
#1336 = ORIENTED_EDGE('',*,*,#1256,.F.);
#1337 = CYLINDRICAL_SURFACE('',#1338,1.);
#1338 = AXIS2_PLACEMENT_3D('',#1339,#1340,#1341);
#1339 = CARTESIAN_POINT('',(-5.385786437627,-8.500000000025,30.4));
#1340 = DIRECTION('',(1.,2.22044604925E-16,0.));
#1341 = DIRECTION('',(0.,0.,-1.));
#1342 = ADVANCED_FACE('',(#1343,#1349),#1383,.F.);
#1343 = FACE_BOUND('',#1344,.F.);
#1344 = EDGE_LOOP('',(#1345,#1346,#1347,#1348));
#1345 = ORIENTED_EDGE('',*,*,#959,.T.);
#1346 = ORIENTED_EDGE('',*,*,#1059,.T.);
#1347 = ORIENTED_EDGE('',*,*,#1083,.F.);
#1348 = ORIENTED_EDGE('',*,*,#1330,.F.);
#1349 = FACE_BOUND('',#1350,.F.);
#1350 = EDGE_LOOP('',(#1351,#1361,#1369,#1377));
#1351 = ORIENTED_EDGE('',*,*,#1352,.F.);
#1352 = EDGE_CURVE('',#1353,#1355,#1357,.T.);
#1353 = VERTEX_POINT('',#1354);
#1354 = CARTESIAN_POINT('',(-0.185786437627,-9.500000000025,46.4));
#1355 = VERTEX_POINT('',#1356);
#1356 = CARTESIAN_POINT('',(-0.185786437627,-9.500000000025,31.4));
#1357 = LINE('',#1358,#1359);
#1358 = CARTESIAN_POINT('',(-0.185786437627,-9.500000000025,46.4));
#1359 = VECTOR('',#1360,1.);
#1360 = DIRECTION('',(0.,0.,-1.));
#1361 = ORIENTED_EDGE('',*,*,#1362,.T.);
#1362 = EDGE_CURVE('',#1353,#1363,#1365,.T.);
#1363 = VERTEX_POINT('',#1364);
#1364 = CARTESIAN_POINT('',(-2.185786437627,-9.500000000025,46.4));
#1365 = LINE('',#1366,#1367);
#1366 = CARTESIAN_POINT('',(-0.185786437627,-9.500000000025,46.4));
#1367 = VECTOR('',#1368,1.);
#1368 = DIRECTION('',(-1.,-2.22044604925E-16,0.));
#1369 = ORIENTED_EDGE('',*,*,#1370,.T.);
#1370 = EDGE_CURVE('',#1363,#1371,#1373,.T.);
#1371 = VERTEX_POINT('',#1372);
#1372 = CARTESIAN_POINT('',(-2.185786437627,-9.500000000025,31.4));
#1373 = LINE('',#1374,#1375);
#1374 = CARTESIAN_POINT('',(-2.185786437627,-9.500000000025,46.4));
#1375 = VECTOR('',#1376,1.);
#1376 = DIRECTION('',(0.,0.,-1.));
#1377 = ORIENTED_EDGE('',*,*,#1378,.T.);
#1378 = EDGE_CURVE('',#1371,#1355,#1379,.T.);
#1379 = LINE('',#1380,#1381);
#1380 = CARTESIAN_POINT('',(-2.185786437627,-9.500000000025,31.4));
#1381 = VECTOR('',#1382,1.);
#1382 = DIRECTION('',(1.,2.22044604925E-16,0.));
#1383 = PLANE('',#1384);
#1384 = AXIS2_PLACEMENT_3D('',#1385,#1386,#1387);
#1385 = CARTESIAN_POINT('',(-5.385786437627,-9.500000000025,29.4));
#1386 = DIRECTION('',(-2.22044604925E-16,1.,0.));
#1387 = DIRECTION('',(1.,2.22044604925E-16,0.));
#1388 = ADVANCED_FACE('',(#1389),#1437,.T.);
#1389 = FACE_BOUND('',#1390,.T.);
#1390 = EDGE_LOOP('',(#1391,#1399,#1400,#1408,#1416,#1424,#1430,#1431));
#1391 = ORIENTED_EDGE('',*,*,#1392,.F.);
#1392 = EDGE_CURVE('',#994,#1393,#1395,.T.);
#1393 = VERTEX_POINT('',#1394);
#1394 = CARTESIAN_POINT('',(-2.185786437627,-7.500000000025,46.4));
#1395 = LINE('',#1396,#1397);
#1396 = CARTESIAN_POINT('',(-5.385786437627,-7.500000000025,46.4));
#1397 = VECTOR('',#1398,1.);
#1398 = DIRECTION('',(1.,2.22044604925E-16,-2.2E-16));
#1399 = ORIENTED_EDGE('',*,*,#993,.T.);
#1400 = ORIENTED_EDGE('',*,*,#1401,.T.);
#1401 = EDGE_CURVE('',#996,#1402,#1404,.T.);
#1402 = VERTEX_POINT('',#1403);
#1403 = CARTESIAN_POINT('',(1.814213562373,7.499999999975,46.4));
#1404 = LINE('',#1405,#1406);
#1405 = CARTESIAN_POINT('',(-5.385786437627,7.499999999975,46.4));
#1406 = VECTOR('',#1407,1.);
#1407 = DIRECTION('',(1.,2.22044604925E-16,-2.2E-16));
#1408 = ORIENTED_EDGE('',*,*,#1409,.F.);
#1409 = EDGE_CURVE('',#1410,#1402,#1412,.T.);
#1410 = VERTEX_POINT('',#1411);
#1411 = CARTESIAN_POINT('',(1.814213562373,-7.500000000025,46.4));
#1412 = LINE('',#1413,#1414);
#1413 = CARTESIAN_POINT('',(1.814213562373,-7.500000000025,46.4));
#1414 = VECTOR('',#1415,1.);
#1415 = DIRECTION('',(-2.22044604925E-16,1.,0.));
#1416 = ORIENTED_EDGE('',*,*,#1417,.F.);
#1417 = EDGE_CURVE('',#1418,#1410,#1420,.T.);
#1418 = VERTEX_POINT('',#1419);
#1419 = CARTESIAN_POINT('',(-0.185786437627,-7.500000000025,46.4));
#1420 = LINE('',#1421,#1422);
#1421 = CARTESIAN_POINT('',(-5.385786437627,-7.500000000025,46.4));
#1422 = VECTOR('',#1423,1.);
#1423 = DIRECTION('',(1.,2.22044604925E-16,-2.2E-16));
#1424 = ORIENTED_EDGE('',*,*,#1425,.F.);
#1425 = EDGE_CURVE('',#1353,#1418,#1426,.T.);
#1426 = LINE('',#1427,#1428);
#1427 = CARTESIAN_POINT('',(-0.185786437627,-9.500000000025,46.4));
#1428 = VECTOR('',#1429,1.);
#1429 = DIRECTION('',(-2.22044604925E-16,1.,-0.));
#1430 = ORIENTED_EDGE('',*,*,#1362,.T.);
#1431 = ORIENTED_EDGE('',*,*,#1432,.T.);
#1432 = EDGE_CURVE('',#1363,#1393,#1433,.T.);
#1433 = LINE('',#1434,#1435);
#1434 = CARTESIAN_POINT('',(-2.185786437627,-9.500000000025,46.4));
#1435 = VECTOR('',#1436,1.);
#1436 = DIRECTION('',(-2.22044604925E-16,1.,-0.));
#1437 = PLANE('',#1438);
#1438 = AXIS2_PLACEMENT_3D('',#1439,#1440,#1441);
#1439 = CARTESIAN_POINT('',(-1.736199660767,-0.785123966967,46.4));
#1440 = DIRECTION('',(-0.,0.,-1.));
#1441 = DIRECTION('',(-2.22044604925E-16,1.,0.));
#1442 = ADVANCED_FACE('',(#1443),#1461,.F.);
#1443 = FACE_BOUND('',#1444,.F.);
#1444 = EDGE_LOOP('',(#1445,#1446,#1454,#1460));
#1445 = ORIENTED_EDGE('',*,*,#1019,.F.);
#1446 = ORIENTED_EDGE('',*,*,#1447,.T.);
#1447 = EDGE_CURVE('',#1012,#1448,#1450,.T.);
#1448 = VERTEX_POINT('',#1449);
#1449 = CARTESIAN_POINT('',(-2.185786437627,-7.500000000025,31.4));
#1450 = LINE('',#1451,#1452);
#1451 = CARTESIAN_POINT('',(-5.385786437627,-7.500000000025,31.4));
#1452 = VECTOR('',#1453,1.);
#1453 = DIRECTION('',(1.,2.22044604925E-16,-2.2E-16));
#1454 = ORIENTED_EDGE('',*,*,#1455,.T.);
#1455 = EDGE_CURVE('',#1448,#1393,#1456,.T.);
#1456 = LINE('',#1457,#1458);
#1457 = CARTESIAN_POINT('',(-2.185786437627,-7.500000000025,38.9));
#1458 = VECTOR('',#1459,1.);
#1459 = DIRECTION('',(0.,0.,1.));
#1460 = ORIENTED_EDGE('',*,*,#1392,.F.);
#1461 = PLANE('',#1462);
#1462 = AXIS2_PLACEMENT_3D('',#1463,#1464,#1465);
#1463 = CARTESIAN_POINT('',(-5.385786437627,-7.500000000025,31.4));
#1464 = DIRECTION('',(2.22044604925E-16,-1.,0.));
#1465 = DIRECTION('',(2.2E-16,4.884981308351E-32,1.));
#1466 = ADVANCED_FACE('',(#1467),#1508,.T.);
#1467 = FACE_BOUND('',#1468,.T.);
#1468 = EDGE_LOOP('',(#1469,#1477,#1478,#1479,#1485,#1486,#1494,#1502));
#1469 = ORIENTED_EDGE('',*,*,#1470,.F.);
#1470 = EDGE_CURVE('',#1004,#1471,#1473,.T.);
#1471 = VERTEX_POINT('',#1472);
#1472 = CARTESIAN_POINT('',(1.814213562373,7.499999999975,31.4));
#1473 = LINE('',#1474,#1475);
#1474 = CARTESIAN_POINT('',(-5.385786437627,7.499999999975,31.4));
#1475 = VECTOR('',#1476,1.);
#1476 = DIRECTION('',(1.,2.22044604925E-16,-2.2E-16));
#1477 = ORIENTED_EDGE('',*,*,#1011,.T.);
#1478 = ORIENTED_EDGE('',*,*,#1447,.T.);
#1479 = ORIENTED_EDGE('',*,*,#1480,.F.);
#1480 = EDGE_CURVE('',#1371,#1448,#1481,.T.);
#1481 = LINE('',#1482,#1483);
#1482 = CARTESIAN_POINT('',(-2.185786437627,-9.500000000025,31.4));
#1483 = VECTOR('',#1484,1.);
#1484 = DIRECTION('',(-2.22044604925E-16,1.,-0.));
#1485 = ORIENTED_EDGE('',*,*,#1378,.T.);
#1486 = ORIENTED_EDGE('',*,*,#1487,.T.);
#1487 = EDGE_CURVE('',#1355,#1488,#1490,.T.);
#1488 = VERTEX_POINT('',#1489);
#1489 = CARTESIAN_POINT('',(-0.185786437627,-7.500000000025,31.4));
#1490 = LINE('',#1491,#1492);
#1491 = CARTESIAN_POINT('',(-0.185786437627,-9.500000000025,31.4));
#1492 = VECTOR('',#1493,1.);
#1493 = DIRECTION('',(-2.22044604925E-16,1.,-0.));
#1494 = ORIENTED_EDGE('',*,*,#1495,.T.);
#1495 = EDGE_CURVE('',#1488,#1496,#1498,.T.);
#1496 = VERTEX_POINT('',#1497);
#1497 = CARTESIAN_POINT('',(1.814213562373,-7.500000000025,31.4));
#1498 = LINE('',#1499,#1500);
#1499 = CARTESIAN_POINT('',(-5.385786437627,-7.500000000025,31.4));
#1500 = VECTOR('',#1501,1.);
#1501 = DIRECTION('',(1.,2.22044604925E-16,-2.2E-16));
#1502 = ORIENTED_EDGE('',*,*,#1503,.F.);
#1503 = EDGE_CURVE('',#1471,#1496,#1504,.T.);
#1504 = LINE('',#1505,#1506);
#1505 = CARTESIAN_POINT('',(1.814213562373,7.499999999975,31.4));
#1506 = VECTOR('',#1507,1.);
#1507 = DIRECTION('',(2.22044604925E-16,-1.,0.));
#1508 = PLANE('',#1509);
#1509 = AXIS2_PLACEMENT_3D('',#1510,#1511,#1512);
#1510 = CARTESIAN_POINT('',(-1.736199660767,-0.785123966967,31.4));
#1511 = DIRECTION('',(0.,0.,1.));
#1512 = DIRECTION('',(2.22044604925E-16,-1.,0.));
#1513 = ADVANCED_FACE('',(#1514),#1525,.F.);
#1514 = FACE_BOUND('',#1515,.F.);
#1515 = EDGE_LOOP('',(#1516,#1517,#1523,#1524));
#1516 = ORIENTED_EDGE('',*,*,#1401,.T.);
#1517 = ORIENTED_EDGE('',*,*,#1518,.T.);
#1518 = EDGE_CURVE('',#1402,#1471,#1519,.T.);
#1519 = LINE('',#1520,#1521);
#1520 = CARTESIAN_POINT('',(1.814213562373,7.499999999975,46.4));
#1521 = VECTOR('',#1522,1.);
#1522 = DIRECTION('',(0.,-0.,-1.));
#1523 = ORIENTED_EDGE('',*,*,#1470,.F.);
#1524 = ORIENTED_EDGE('',*,*,#1003,.F.);
#1525 = PLANE('',#1526);
#1526 = AXIS2_PLACEMENT_3D('',#1527,#1528,#1529);
#1527 = CARTESIAN_POINT('',(-5.385786437627,7.499999999975,46.4));
#1528 = DIRECTION('',(-2.22044604925E-16,1.,0.));
#1529 = DIRECTION('',(-2.2E-16,-4.884981308351E-32,-1.));
#1530 = ADVANCED_FACE('',(#1531),#1557,.T.);
#1531 = FACE_BOUND('',#1532,.T.);
#1532 = EDGE_LOOP('',(#1533,#1541,#1542,#1550));
#1533 = ORIENTED_EDGE('',*,*,#1534,.F.);
#1534 = EDGE_CURVE('',#1112,#1535,#1537,.T.);
#1535 = VERTEX_POINT('',#1536);
#1536 = CARTESIAN_POINT('',(4.951471862576,0.565685424949,29.4));
#1537 = LINE('',#1538,#1539);
#1538 = CARTESIAN_POINT('',(0.565685424949,4.951471862576,29.4));
#1539 = VECTOR('',#1540,1.);
#1540 = DIRECTION('',(0.707106781187,-0.707106781187,0.));
#1541 = ORIENTED_EDGE('',*,*,#1119,.F.);
#1542 = ORIENTED_EDGE('',*,*,#1543,.F.);
#1543 = EDGE_CURVE('',#1544,#1120,#1546,.T.);
#1544 = VERTEX_POINT('',#1545);
#1545 = CARTESIAN_POINT('',(4.951471862576,-0.565685424949,29.4));
#1546 = LINE('',#1547,#1548);
#1547 = CARTESIAN_POINT('',(4.951471862576,-0.565685424949,29.4));
#1548 = VECTOR('',#1549,1.);
#1549 = DIRECTION('',(-0.707106781187,-0.707106781187,0.));
#1550 = ORIENTED_EDGE('',*,*,#1551,.F.);
#1551 = EDGE_CURVE('',#1535,#1544,#1552,.T.);
#1552 = CIRCLE('',#1553,0.8);
#1553 = AXIS2_PLACEMENT_3D('',#1554,#1555,#1556);
#1554 = CARTESIAN_POINT('',(4.385786437627,9.261597831716E-16,29.4));
#1555 = DIRECTION('',(0.,-0.,-1.));
#1556 = DIRECTION('',(1.,0.,-0.));
#1557 = PLANE('',#1558);
#1558 = AXIS2_PLACEMENT_3D('',#1559,#1560,#1561);
#1559 = CARTESIAN_POINT('',(-9.61875038928E-16,5.965116520483E-16,29.4)
  );
#1560 = DIRECTION('',(0.,0.,1.));
#1561 = DIRECTION('',(-2.22044604925E-16,-1.,0.));
#1562 = ADVANCED_FACE('',(#1563),#1588,.F.);
#1563 = FACE_BOUND('',#1564,.F.);
#1564 = EDGE_LOOP('',(#1565,#1575,#1581,#1582));
#1565 = ORIENTED_EDGE('',*,*,#1566,.T.);
#1566 = EDGE_CURVE('',#1567,#1569,#1571,.T.);
#1567 = VERTEX_POINT('',#1568);
#1568 = CARTESIAN_POINT('',(1.814213562373,6.499999999975,33.4));
#1569 = VERTEX_POINT('',#1570);
#1570 = CARTESIAN_POINT('',(1.814213562373,6.499999999975,44.4));
#1571 = LINE('',#1572,#1573);
#1572 = CARTESIAN_POINT('',(1.814213562373,6.499999999975,42.15));
#1573 = VECTOR('',#1574,1.);
#1574 = DIRECTION('',(0.,0.,1.));
#1575 = ORIENTED_EDGE('',*,*,#1576,.T.);
#1576 = EDGE_CURVE('',#1569,#1145,#1577,.T.);
#1577 = LINE('',#1578,#1579);
#1578 = CARTESIAN_POINT('',(1.814213562373,6.499999999975,44.4));
#1579 = VECTOR('',#1580,1.);
#1580 = DIRECTION('',(1.,2.22044604925E-16,-2.2E-16));
#1581 = ORIENTED_EDGE('',*,*,#1144,.T.);
#1582 = ORIENTED_EDGE('',*,*,#1583,.F.);
#1583 = EDGE_CURVE('',#1567,#1147,#1584,.T.);
#1584 = LINE('',#1585,#1586);
#1585 = CARTESIAN_POINT('',(1.814213562373,6.499999999975,33.4));
#1586 = VECTOR('',#1587,1.);
#1587 = DIRECTION('',(1.,2.22044604925E-16,-2.2E-16));
#1588 = PLANE('',#1589);
#1589 = AXIS2_PLACEMENT_3D('',#1590,#1591,#1592);
#1590 = CARTESIAN_POINT('',(-5.385786437627,6.499999999975,45.4));
#1591 = DIRECTION('',(-2.22044604925E-16,1.,0.));
#1592 = DIRECTION('',(-2.2E-16,-4.884981308351E-32,-1.));
#1593 = ADVANCED_FACE('',(#1594),#1613,.F.);
#1594 = FACE_BOUND('',#1595,.F.);
#1595 = EDGE_LOOP('',(#1596,#1605,#1611,#1612));
#1596 = ORIENTED_EDGE('',*,*,#1597,.T.);
#1597 = EDGE_CURVE('',#1569,#1598,#1600,.T.);
#1598 = VERTEX_POINT('',#1599);
#1599 = CARTESIAN_POINT('',(1.814213562373,5.499999999975,45.4));
#1600 = CIRCLE('',#1601,1.);
#1601 = AXIS2_PLACEMENT_3D('',#1602,#1603,#1604);
#1602 = CARTESIAN_POINT('',(1.814213562373,5.499999999975,44.4));
#1603 = DIRECTION('',(1.,2.22044604925E-16,-2.2E-16));
#1604 = DIRECTION('',(2.2E-16,4.884981308351E-32,1.));
#1605 = ORIENTED_EDGE('',*,*,#1606,.T.);
#1606 = EDGE_CURVE('',#1598,#1155,#1607,.T.);
#1607 = LINE('',#1608,#1609);
#1608 = CARTESIAN_POINT('',(1.814213562373,5.499999999975,45.4));
#1609 = VECTOR('',#1610,1.);
#1610 = DIRECTION('',(1.,2.22044604925E-16,-2.2E-16));
#1611 = ORIENTED_EDGE('',*,*,#1154,.F.);
#1612 = ORIENTED_EDGE('',*,*,#1576,.F.);
#1613 = CYLINDRICAL_SURFACE('',#1614,1.);
#1614 = AXIS2_PLACEMENT_3D('',#1615,#1616,#1617);
#1615 = CARTESIAN_POINT('',(1.814213562373,5.499999999975,44.4));
#1616 = DIRECTION('',(1.,2.22044604925E-16,-2.2E-16));
#1617 = DIRECTION('',(-2.22044604925E-16,1.,0.));
#1618 = ADVANCED_FACE('',(#1619),#1638,.F.);
#1619 = FACE_BOUND('',#1620,.T.);
#1620 = EDGE_LOOP('',(#1621,#1630,#1636,#1637));
#1621 = ORIENTED_EDGE('',*,*,#1622,.T.);
#1622 = EDGE_CURVE('',#1567,#1623,#1625,.T.);
#1623 = VERTEX_POINT('',#1624);
#1624 = CARTESIAN_POINT('',(1.814213562373,5.499999999975,32.4));
#1625 = CIRCLE('',#1626,1.);
#1626 = AXIS2_PLACEMENT_3D('',#1627,#1628,#1629);
#1627 = CARTESIAN_POINT('',(1.814213562373,5.499999999975,33.4));
#1628 = DIRECTION('',(-1.,-2.22044604925E-16,2.2E-16));
#1629 = DIRECTION('',(2.2E-16,4.884981308351E-32,1.));
#1630 = ORIENTED_EDGE('',*,*,#1631,.T.);
#1631 = EDGE_CURVE('',#1623,#1198,#1632,.T.);
#1632 = LINE('',#1633,#1634);
#1633 = CARTESIAN_POINT('',(1.814213562373,5.499999999975,32.4));
#1634 = VECTOR('',#1635,1.);
#1635 = DIRECTION('',(1.,2.22044604925E-16,-2.2E-16));
#1636 = ORIENTED_EDGE('',*,*,#1205,.F.);
#1637 = ORIENTED_EDGE('',*,*,#1583,.F.);
#1638 = CYLINDRICAL_SURFACE('',#1639,1.);
#1639 = AXIS2_PLACEMENT_3D('',#1640,#1641,#1642);
#1640 = CARTESIAN_POINT('',(1.814213562373,5.499999999975,33.4));
#1641 = DIRECTION('',(1.,2.22044604925E-16,-2.2E-16));
#1642 = DIRECTION('',(-2.22044604925E-16,1.,0.));
#1643 = ADVANCED_FACE('',(#1644),#1662,.F.);
#1644 = FACE_BOUND('',#1645,.F.);
#1645 = EDGE_LOOP('',(#1646,#1654,#1660,#1661));
#1646 = ORIENTED_EDGE('',*,*,#1647,.T.);
#1647 = EDGE_CURVE('',#1598,#1648,#1650,.T.);
#1648 = VERTEX_POINT('',#1649);
#1649 = CARTESIAN_POINT('',(1.814213562373,-5.500000000025,45.4));
#1650 = LINE('',#1651,#1652);
#1651 = CARTESIAN_POINT('',(1.814213562373,-3.250000000025,45.4));
#1652 = VECTOR('',#1653,1.);
#1653 = DIRECTION('',(2.22044604925E-16,-1.,0.));
#1654 = ORIENTED_EDGE('',*,*,#1655,.T.);
#1655 = EDGE_CURVE('',#1648,#1164,#1656,.T.);
#1656 = LINE('',#1657,#1658);
#1657 = CARTESIAN_POINT('',(1.814213562373,-5.500000000025,45.4));
#1658 = VECTOR('',#1659,1.);
#1659 = DIRECTION('',(1.,2.22044604925E-16,-2.2E-16));
#1660 = ORIENTED_EDGE('',*,*,#1163,.T.);
#1661 = ORIENTED_EDGE('',*,*,#1606,.F.);
#1662 = PLANE('',#1663);
#1663 = AXIS2_PLACEMENT_3D('',#1664,#1665,#1666);
#1664 = CARTESIAN_POINT('',(-5.385786437627,-6.500000000025,45.4));
#1665 = DIRECTION('',(2.2E-16,4.884981308351E-32,1.));
#1666 = DIRECTION('',(-2.22044604925E-16,1.,0.));
#1667 = ADVANCED_FACE('',(#1668),#1686,.F.);
#1668 = FACE_BOUND('',#1669,.F.);
#1669 = EDGE_LOOP('',(#1670,#1678,#1679,#1680));
#1670 = ORIENTED_EDGE('',*,*,#1671,.T.);
#1671 = EDGE_CURVE('',#1672,#1623,#1674,.T.);
#1672 = VERTEX_POINT('',#1673);
#1673 = CARTESIAN_POINT('',(1.814213562373,-5.500000000025,32.4));
#1674 = LINE('',#1675,#1676);
#1675 = CARTESIAN_POINT('',(1.814213562373,3.249999999975,32.4));
#1676 = VECTOR('',#1677,1.);
#1677 = DIRECTION('',(-2.22044604925E-16,1.,0.));
#1678 = ORIENTED_EDGE('',*,*,#1631,.T.);
#1679 = ORIENTED_EDGE('',*,*,#1197,.T.);
#1680 = ORIENTED_EDGE('',*,*,#1681,.F.);
#1681 = EDGE_CURVE('',#1672,#1189,#1682,.T.);
#1682 = LINE('',#1683,#1684);
#1683 = CARTESIAN_POINT('',(1.814213562373,-5.500000000025,32.4));
#1684 = VECTOR('',#1685,1.);
#1685 = DIRECTION('',(1.,2.22044604925E-16,-2.2E-16));
#1686 = PLANE('',#1687);
#1687 = AXIS2_PLACEMENT_3D('',#1688,#1689,#1690);
#1688 = CARTESIAN_POINT('',(-5.385786437627,6.499999999975,32.4));
#1689 = DIRECTION('',(-2.2E-16,-4.884981308351E-32,-1.));
#1690 = DIRECTION('',(2.22044604925E-16,-1.,0.));
#1691 = ADVANCED_FACE('',(#1692),#1711,.F.);
#1692 = FACE_BOUND('',#1693,.T.);
#1693 = EDGE_LOOP('',(#1694,#1703,#1704,#1705));
#1694 = ORIENTED_EDGE('',*,*,#1695,.T.);
#1695 = EDGE_CURVE('',#1696,#1648,#1698,.T.);
#1696 = VERTEX_POINT('',#1697);
#1697 = CARTESIAN_POINT('',(1.814213562373,-6.500000000025,44.4));
#1698 = CIRCLE('',#1699,1.);
#1699 = AXIS2_PLACEMENT_3D('',#1700,#1701,#1702);
#1700 = CARTESIAN_POINT('',(1.814213562373,-5.500000000025,44.4));
#1701 = DIRECTION('',(-1.,-2.22044604925E-16,2.2E-16));
#1702 = DIRECTION('',(2.2E-16,4.884981308351E-32,1.));
#1703 = ORIENTED_EDGE('',*,*,#1655,.T.);
#1704 = ORIENTED_EDGE('',*,*,#1171,.F.);
#1705 = ORIENTED_EDGE('',*,*,#1706,.F.);
#1706 = EDGE_CURVE('',#1696,#1172,#1707,.T.);
#1707 = LINE('',#1708,#1709);
#1708 = CARTESIAN_POINT('',(1.814213562373,-6.500000000025,44.4));
#1709 = VECTOR('',#1710,1.);
#1710 = DIRECTION('',(1.,2.22044604925E-16,-2.2E-16));
#1711 = CYLINDRICAL_SURFACE('',#1712,1.);
#1712 = AXIS2_PLACEMENT_3D('',#1713,#1714,#1715);
#1713 = CARTESIAN_POINT('',(1.814213562373,-5.500000000025,44.4));
#1714 = DIRECTION('',(1.,2.22044604925E-16,-2.2E-16));
#1715 = DIRECTION('',(2.22044604925E-16,-1.,0.));
#1716 = ADVANCED_FACE('',(#1717),#1736,.F.);
#1717 = FACE_BOUND('',#1718,.T.);
#1718 = EDGE_LOOP('',(#1719,#1728,#1734,#1735));
#1719 = ORIENTED_EDGE('',*,*,#1720,.T.);
#1720 = EDGE_CURVE('',#1672,#1721,#1723,.T.);
#1721 = VERTEX_POINT('',#1722);
#1722 = CARTESIAN_POINT('',(1.814213562373,-6.500000000025,33.4));
#1723 = CIRCLE('',#1724,1.);
#1724 = AXIS2_PLACEMENT_3D('',#1725,#1726,#1727);
#1725 = CARTESIAN_POINT('',(1.814213562373,-5.500000000025,33.4));
#1726 = DIRECTION('',(-1.,-2.22044604925E-16,2.2E-16));
#1727 = DIRECTION('',(2.2E-16,4.884981308351E-32,1.));
#1728 = ORIENTED_EDGE('',*,*,#1729,.T.);
#1729 = EDGE_CURVE('',#1721,#1181,#1730,.T.);
#1730 = LINE('',#1731,#1732);
#1731 = CARTESIAN_POINT('',(1.814213562373,-6.500000000025,33.4));
#1732 = VECTOR('',#1733,1.);
#1733 = DIRECTION('',(1.,2.22044604925E-16,-2.2E-16));
#1734 = ORIENTED_EDGE('',*,*,#1188,.F.);
#1735 = ORIENTED_EDGE('',*,*,#1681,.F.);
#1736 = CYLINDRICAL_SURFACE('',#1737,1.);
#1737 = AXIS2_PLACEMENT_3D('',#1738,#1739,#1740);
#1738 = CARTESIAN_POINT('',(1.814213562373,-5.500000000025,33.4));
#1739 = DIRECTION('',(1.,2.22044604925E-16,-2.2E-16));
#1740 = DIRECTION('',(-2.2E-16,-4.884981308351E-32,-1.));
#1741 = ADVANCED_FACE('',(#1742),#1753,.F.);
#1742 = FACE_BOUND('',#1743,.F.);
#1743 = EDGE_LOOP('',(#1744,#1750,#1751,#1752));
#1744 = ORIENTED_EDGE('',*,*,#1745,.T.);
#1745 = EDGE_CURVE('',#1696,#1721,#1746,.T.);
#1746 = LINE('',#1747,#1748);
#1747 = CARTESIAN_POINT('',(1.814213562373,-6.500000000025,35.65));
#1748 = VECTOR('',#1749,1.);
#1749 = DIRECTION('',(0.,0.,-1.));
#1750 = ORIENTED_EDGE('',*,*,#1729,.T.);
#1751 = ORIENTED_EDGE('',*,*,#1180,.T.);
#1752 = ORIENTED_EDGE('',*,*,#1706,.F.);
#1753 = PLANE('',#1754);
#1754 = AXIS2_PLACEMENT_3D('',#1755,#1756,#1757);
#1755 = CARTESIAN_POINT('',(-5.385786437627,-6.500000000025,32.4));
#1756 = DIRECTION('',(2.22044604925E-16,-1.,0.));
#1757 = DIRECTION('',(2.2E-16,4.884981308351E-32,1.));
#1758 = ADVANCED_FACE('',(#1759),#1785,.T.);
#1759 = FACE_BOUND('',#1760,.T.);
#1760 = EDGE_LOOP('',(#1761,#1769,#1770,#1771,#1779));
#1761 = ORIENTED_EDGE('',*,*,#1762,.T.);
#1762 = EDGE_CURVE('',#1763,#1306,#1765,.T.);
#1763 = VERTEX_POINT('',#1764);
#1764 = CARTESIAN_POINT('',(0.565685424949,4.951471862576,11.));
#1765 = LINE('',#1766,#1767);
#1766 = CARTESIAN_POINT('',(0.565685424949,4.951471862576,11.));
#1767 = VECTOR('',#1768,1.);
#1768 = DIRECTION('',(0.,0.,1.));
#1769 = ORIENTED_EDGE('',*,*,#1314,.T.);
#1770 = ORIENTED_EDGE('',*,*,#1534,.T.);
#1771 = ORIENTED_EDGE('',*,*,#1772,.F.);
#1772 = EDGE_CURVE('',#1773,#1535,#1775,.T.);
#1773 = VERTEX_POINT('',#1774);
#1774 = CARTESIAN_POINT('',(4.951471862576,0.565685424949,11.));
#1775 = LINE('',#1776,#1777);
#1776 = CARTESIAN_POINT('',(4.951471862576,0.565685424949,11.));
#1777 = VECTOR('',#1778,1.);
#1778 = DIRECTION('',(0.,0.,1.));
#1779 = ORIENTED_EDGE('',*,*,#1780,.F.);
#1780 = EDGE_CURVE('',#1763,#1773,#1781,.T.);
#1781 = LINE('',#1782,#1783);
#1782 = CARTESIAN_POINT('',(0.565685424949,4.951471862576,11.));
#1783 = VECTOR('',#1784,1.);
#1784 = DIRECTION('',(0.707106781187,-0.707106781187,0.));
#1785 = PLANE('',#1786);
#1786 = AXIS2_PLACEMENT_3D('',#1787,#1788,#1789);
#1787 = CARTESIAN_POINT('',(0.565685424949,4.951471862576,11.));
#1788 = DIRECTION('',(0.707106781187,0.707106781187,0.));
#1789 = DIRECTION('',(0.707106781187,-0.707106781187,0.));
#1790 = ADVANCED_FACE('',(#1791),#1810,.T.);
#1791 = FACE_BOUND('',#1792,.T.);
#1792 = EDGE_LOOP('',(#1793,#1801,#1802,#1803));
#1793 = ORIENTED_EDGE('',*,*,#1794,.T.);
#1794 = EDGE_CURVE('',#1795,#1298,#1797,.T.);
#1795 = VERTEX_POINT('',#1796);
#1796 = CARTESIAN_POINT('',(-0.565685424949,4.951471862576,11.));
#1797 = LINE('',#1798,#1799);
#1798 = CARTESIAN_POINT('',(-0.565685424949,4.951471862576,11.));
#1799 = VECTOR('',#1800,1.);
#1800 = DIRECTION('',(0.,0.,1.));
#1801 = ORIENTED_EDGE('',*,*,#1305,.T.);
#1802 = ORIENTED_EDGE('',*,*,#1762,.F.);
#1803 = ORIENTED_EDGE('',*,*,#1804,.F.);
#1804 = EDGE_CURVE('',#1795,#1763,#1805,.T.);
#1805 = CIRCLE('',#1806,0.8);
#1806 = AXIS2_PLACEMENT_3D('',#1807,#1808,#1809);
#1807 = CARTESIAN_POINT('',(-8.025166225718E-16,4.385786437627,11.));
#1808 = DIRECTION('',(0.,-0.,-1.));
#1809 = DIRECTION('',(1.,0.,-0.));
#1810 = CYLINDRICAL_SURFACE('',#1811,0.8);
#1811 = AXIS2_PLACEMENT_3D('',#1812,#1813,#1814);
#1812 = CARTESIAN_POINT('',(-8.025166225718E-16,4.385786437627,11.));
#1813 = DIRECTION('',(0.,-0.,-1.));
#1814 = DIRECTION('',(1.,0.,0.));
#1815 = ADVANCED_FACE('',(#1816),#1834,.T.);
#1816 = FACE_BOUND('',#1817,.T.);
#1817 = EDGE_LOOP('',(#1818,#1826,#1827,#1828));
#1818 = ORIENTED_EDGE('',*,*,#1819,.T.);
#1819 = EDGE_CURVE('',#1820,#1289,#1822,.T.);
#1820 = VERTEX_POINT('',#1821);
#1821 = CARTESIAN_POINT('',(-4.951471862576,0.565685424949,11.));
#1822 = LINE('',#1823,#1824);
#1823 = CARTESIAN_POINT('',(-4.951471862576,0.565685424949,11.));
#1824 = VECTOR('',#1825,1.);
#1825 = DIRECTION('',(0.,0.,1.));
#1826 = ORIENTED_EDGE('',*,*,#1297,.T.);
#1827 = ORIENTED_EDGE('',*,*,#1794,.F.);
#1828 = ORIENTED_EDGE('',*,*,#1829,.F.);
#1829 = EDGE_CURVE('',#1820,#1795,#1830,.T.);
#1830 = LINE('',#1831,#1832);
#1831 = CARTESIAN_POINT('',(-4.951471862576,0.565685424949,11.));
#1832 = VECTOR('',#1833,1.);
#1833 = DIRECTION('',(0.707106781187,0.707106781187,-0.));
#1834 = PLANE('',#1835);
#1835 = AXIS2_PLACEMENT_3D('',#1836,#1837,#1838);
#1836 = CARTESIAN_POINT('',(-4.951471862576,0.565685424949,11.));
#1837 = DIRECTION('',(-0.707106781187,0.707106781187,-0.));
#1838 = DIRECTION('',(0.707106781187,0.707106781187,0.));
#1839 = ADVANCED_FACE('',(#1840),#1859,.T.);
#1840 = FACE_BOUND('',#1841,.T.);
#1841 = EDGE_LOOP('',(#1842,#1850,#1851,#1852));
#1842 = ORIENTED_EDGE('',*,*,#1843,.T.);
#1843 = EDGE_CURVE('',#1844,#1281,#1846,.T.);
#1844 = VERTEX_POINT('',#1845);
#1845 = CARTESIAN_POINT('',(-4.951471862576,-0.565685424949,11.));
#1846 = LINE('',#1847,#1848);
#1847 = CARTESIAN_POINT('',(-4.951471862576,-0.565685424949,11.));
#1848 = VECTOR('',#1849,1.);
#1849 = DIRECTION('',(0.,0.,1.));
#1850 = ORIENTED_EDGE('',*,*,#1288,.T.);
#1851 = ORIENTED_EDGE('',*,*,#1819,.F.);
#1852 = ORIENTED_EDGE('',*,*,#1853,.F.);
#1853 = EDGE_CURVE('',#1844,#1820,#1854,.T.);
#1854 = CIRCLE('',#1855,0.8);
#1855 = AXIS2_PLACEMENT_3D('',#1856,#1857,#1858);
#1856 = CARTESIAN_POINT('',(-4.385786437627,8.628179143659E-16,11.));
#1857 = DIRECTION('',(0.,-0.,-1.));
#1858 = DIRECTION('',(1.,0.,-0.));
#1859 = CYLINDRICAL_SURFACE('',#1860,0.8);
#1860 = AXIS2_PLACEMENT_3D('',#1861,#1862,#1863);
#1861 = CARTESIAN_POINT('',(-4.385786437627,8.628179143659E-16,11.));
#1862 = DIRECTION('',(0.,-0.,-1.));
#1863 = DIRECTION('',(1.,0.,0.));
#1864 = ADVANCED_FACE('',(#1865),#1883,.T.);
#1865 = FACE_BOUND('',#1866,.T.);
#1866 = EDGE_LOOP('',(#1867,#1875,#1876,#1877));
#1867 = ORIENTED_EDGE('',*,*,#1868,.T.);
#1868 = EDGE_CURVE('',#1869,#1272,#1871,.T.);
#1869 = VERTEX_POINT('',#1870);
#1870 = CARTESIAN_POINT('',(-0.565685424949,-4.951471862576,11.));
#1871 = LINE('',#1872,#1873);
#1872 = CARTESIAN_POINT('',(-0.565685424949,-4.951471862576,11.));
#1873 = VECTOR('',#1874,1.);
#1874 = DIRECTION('',(0.,0.,1.));
#1875 = ORIENTED_EDGE('',*,*,#1280,.T.);
#1876 = ORIENTED_EDGE('',*,*,#1843,.F.);
#1877 = ORIENTED_EDGE('',*,*,#1878,.F.);
#1878 = EDGE_CURVE('',#1869,#1844,#1879,.T.);
#1879 = LINE('',#1880,#1881);
#1880 = CARTESIAN_POINT('',(-0.565685424949,-4.951471862576,11.));
#1881 = VECTOR('',#1882,1.);
#1882 = DIRECTION('',(-0.707106781187,0.707106781187,0.));
#1883 = PLANE('',#1884);
#1884 = AXIS2_PLACEMENT_3D('',#1885,#1886,#1887);
#1885 = CARTESIAN_POINT('',(-0.565685424949,-4.951471862576,11.));
#1886 = DIRECTION('',(-0.707106781187,-0.707106781187,0.));
#1887 = DIRECTION('',(-0.707106781187,0.707106781187,0.));
#1888 = ADVANCED_FACE('',(#1889),#1908,.T.);
#1889 = FACE_BOUND('',#1890,.T.);
#1890 = EDGE_LOOP('',(#1891,#1899,#1900,#1901));
#1891 = ORIENTED_EDGE('',*,*,#1892,.T.);
#1892 = EDGE_CURVE('',#1893,#1264,#1895,.T.);
#1893 = VERTEX_POINT('',#1894);
#1894 = CARTESIAN_POINT('',(0.565685424949,-4.951471862576,11.));
#1895 = LINE('',#1896,#1897);
#1896 = CARTESIAN_POINT('',(0.565685424949,-4.951471862576,11.));
#1897 = VECTOR('',#1898,1.);
#1898 = DIRECTION('',(0.,0.,1.));
#1899 = ORIENTED_EDGE('',*,*,#1271,.T.);
#1900 = ORIENTED_EDGE('',*,*,#1868,.F.);
#1901 = ORIENTED_EDGE('',*,*,#1902,.F.);
#1902 = EDGE_CURVE('',#1893,#1869,#1903,.T.);
#1903 = CIRCLE('',#1904,0.8);
#1904 = AXIS2_PLACEMENT_3D('',#1905,#1906,#1907);
#1905 = CARTESIAN_POINT('',(-1.966840995908E-16,-4.385786437627,11.));
#1906 = DIRECTION('',(0.,-0.,-1.));
#1907 = DIRECTION('',(1.,0.,-0.));
#1908 = CYLINDRICAL_SURFACE('',#1909,0.8);
#1909 = AXIS2_PLACEMENT_3D('',#1910,#1911,#1912);
#1910 = CARTESIAN_POINT('',(-1.966840995908E-16,-4.385786437627,11.));
#1911 = DIRECTION('',(0.,-0.,-1.));
#1912 = DIRECTION('',(1.,0.,0.));
#1913 = ADVANCED_FACE('',(#1914),#1933,.T.);
#1914 = FACE_BOUND('',#1915,.T.);
#1915 = EDGE_LOOP('',(#1916,#1924,#1925,#1926,#1927));
#1916 = ORIENTED_EDGE('',*,*,#1917,.T.);
#1917 = EDGE_CURVE('',#1918,#1544,#1920,.T.);
#1918 = VERTEX_POINT('',#1919);
#1919 = CARTESIAN_POINT('',(4.951471862576,-0.565685424949,11.));
#1920 = LINE('',#1921,#1922);
#1921 = CARTESIAN_POINT('',(4.951471862576,-0.565685424949,11.));
#1922 = VECTOR('',#1923,1.);
#1923 = DIRECTION('',(0.,0.,1.));
#1924 = ORIENTED_EDGE('',*,*,#1543,.T.);
#1925 = ORIENTED_EDGE('',*,*,#1263,.T.);
#1926 = ORIENTED_EDGE('',*,*,#1892,.F.);
#1927 = ORIENTED_EDGE('',*,*,#1928,.F.);
#1928 = EDGE_CURVE('',#1918,#1893,#1929,.T.);
#1929 = LINE('',#1930,#1931);
#1930 = CARTESIAN_POINT('',(4.951471862576,-0.565685424949,11.));
#1931 = VECTOR('',#1932,1.);
#1932 = DIRECTION('',(-0.707106781187,-0.707106781187,0.));
#1933 = PLANE('',#1934);
#1934 = AXIS2_PLACEMENT_3D('',#1935,#1936,#1937);
#1935 = CARTESIAN_POINT('',(4.951471862576,-0.565685424949,11.));
#1936 = DIRECTION('',(0.707106781187,-0.707106781187,0.));
#1937 = DIRECTION('',(-0.707106781187,-0.707106781187,0.));
#1938 = ADVANCED_FACE('',(#1939),#1950,.T.);
#1939 = FACE_BOUND('',#1940,.T.);
#1940 = EDGE_LOOP('',(#1941,#1942,#1943,#1949));
#1941 = ORIENTED_EDGE('',*,*,#1352,.F.);
#1942 = ORIENTED_EDGE('',*,*,#1425,.T.);
#1943 = ORIENTED_EDGE('',*,*,#1944,.F.);
#1944 = EDGE_CURVE('',#1488,#1418,#1945,.T.);
#1945 = LINE('',#1946,#1947);
#1946 = CARTESIAN_POINT('',(-0.185786437627,-7.500000000025,38.9));
#1947 = VECTOR('',#1948,1.);
#1948 = DIRECTION('',(0.,0.,1.));
#1949 = ORIENTED_EDGE('',*,*,#1487,.F.);
#1950 = PLANE('',#1951);
#1951 = AXIS2_PLACEMENT_3D('',#1952,#1953,#1954);
#1952 = CARTESIAN_POINT('',(-0.185786437627,-9.500000000025,46.4));
#1953 = DIRECTION('',(-1.,-2.22044604925E-16,0.));
#1954 = DIRECTION('',(0.,0.,-1.));
#1955 = ADVANCED_FACE('',(#1956),#1962,.F.);
#1956 = FACE_BOUND('',#1957,.F.);
#1957 = EDGE_LOOP('',(#1958,#1959,#1960,#1961));
#1958 = ORIENTED_EDGE('',*,*,#1370,.F.);
#1959 = ORIENTED_EDGE('',*,*,#1432,.T.);
#1960 = ORIENTED_EDGE('',*,*,#1455,.F.);
#1961 = ORIENTED_EDGE('',*,*,#1480,.F.);
#1962 = PLANE('',#1963);
#1963 = AXIS2_PLACEMENT_3D('',#1964,#1965,#1966);
#1964 = CARTESIAN_POINT('',(-2.185786437627,-9.500000000025,46.4));
#1965 = DIRECTION('',(-1.,-2.22044604925E-16,0.));
#1966 = DIRECTION('',(0.,0.,-1.));
#1967 = ADVANCED_FACE('',(#1968,#1978),#1989,.F.);
#1968 = FACE_BOUND('',#1969,.F.);
#1969 = EDGE_LOOP('',(#1970,#1971,#1972,#1973,#1974,#1975,#1976,#1977));
#1970 = ORIENTED_EDGE('',*,*,#1566,.F.);
#1971 = ORIENTED_EDGE('',*,*,#1622,.T.);
#1972 = ORIENTED_EDGE('',*,*,#1671,.F.);
#1973 = ORIENTED_EDGE('',*,*,#1720,.T.);
#1974 = ORIENTED_EDGE('',*,*,#1745,.F.);
#1975 = ORIENTED_EDGE('',*,*,#1695,.T.);
#1976 = ORIENTED_EDGE('',*,*,#1647,.F.);
#1977 = ORIENTED_EDGE('',*,*,#1597,.F.);
#1978 = FACE_BOUND('',#1979,.F.);
#1979 = EDGE_LOOP('',(#1980,#1981,#1982,#1988));
#1980 = ORIENTED_EDGE('',*,*,#1518,.F.);
#1981 = ORIENTED_EDGE('',*,*,#1409,.F.);
#1982 = ORIENTED_EDGE('',*,*,#1983,.F.);
#1983 = EDGE_CURVE('',#1496,#1410,#1984,.T.);
#1984 = LINE('',#1985,#1986);
#1985 = CARTESIAN_POINT('',(1.814213562373,-7.500000000025,31.4));
#1986 = VECTOR('',#1987,1.);
#1987 = DIRECTION('',(0.,0.,1.));
#1988 = ORIENTED_EDGE('',*,*,#1503,.F.);
#1989 = PLANE('',#1990);
#1990 = AXIS2_PLACEMENT_3D('',#1991,#1992,#1993);
#1991 = CARTESIAN_POINT('',(1.814213562373,-2.459159716367E-11,38.9));
#1992 = DIRECTION('',(1.,2.22044604925E-16,0.));
#1993 = DIRECTION('',(0.,0.,1.));
#1994 = ADVANCED_FACE('',(#1995),#2001,.F.);
#1995 = FACE_BOUND('',#1996,.F.);
#1996 = EDGE_LOOP('',(#1997,#1998,#1999,#2000));
#1997 = ORIENTED_EDGE('',*,*,#1944,.F.);
#1998 = ORIENTED_EDGE('',*,*,#1495,.T.);
#1999 = ORIENTED_EDGE('',*,*,#1983,.T.);
#2000 = ORIENTED_EDGE('',*,*,#1417,.F.);
#2001 = PLANE('',#2002);
#2002 = AXIS2_PLACEMENT_3D('',#2003,#2004,#2005);
#2003 = CARTESIAN_POINT('',(-5.385786437627,-7.500000000025,31.4));
#2004 = DIRECTION('',(2.22044604925E-16,-1.,0.));
#2005 = DIRECTION('',(2.2E-16,4.884981308351E-32,1.));
#2006 = ADVANCED_FACE('',(#2007),#2019,.T.);
#2007 = FACE_BOUND('',#2008,.T.);
#2008 = EDGE_LOOP('',(#2009,#2010,#2011,#2012));
#2009 = ORIENTED_EDGE('',*,*,#1772,.T.);
#2010 = ORIENTED_EDGE('',*,*,#1551,.T.);
#2011 = ORIENTED_EDGE('',*,*,#1917,.F.);
#2012 = ORIENTED_EDGE('',*,*,#2013,.F.);
#2013 = EDGE_CURVE('',#1773,#1918,#2014,.T.);
#2014 = CIRCLE('',#2015,0.8);
#2015 = AXIS2_PLACEMENT_3D('',#2016,#2017,#2018);
#2016 = CARTESIAN_POINT('',(4.385786437627,9.261597831716E-16,11.));
#2017 = DIRECTION('',(0.,-0.,-1.));
#2018 = DIRECTION('',(1.,0.,-0.));
#2019 = CYLINDRICAL_SURFACE('',#2020,0.8);
#2020 = AXIS2_PLACEMENT_3D('',#2021,#2022,#2023);
#2021 = CARTESIAN_POINT('',(4.385786437627,9.261597831716E-16,11.));
#2022 = DIRECTION('',(0.,-0.,-1.));
#2023 = DIRECTION('',(1.,0.,0.));
#2024 = ADVANCED_FACE('',(#2025),#2035,.F.);
#2025 = FACE_BOUND('',#2026,.T.);
#2026 = EDGE_LOOP('',(#2027,#2028,#2029,#2030,#2031,#2032,#2033,#2034));
#2027 = ORIENTED_EDGE('',*,*,#1804,.T.);
#2028 = ORIENTED_EDGE('',*,*,#1780,.T.);
#2029 = ORIENTED_EDGE('',*,*,#2013,.T.);
#2030 = ORIENTED_EDGE('',*,*,#1928,.T.);
#2031 = ORIENTED_EDGE('',*,*,#1902,.T.);
#2032 = ORIENTED_EDGE('',*,*,#1878,.T.);
#2033 = ORIENTED_EDGE('',*,*,#1853,.T.);
#2034 = ORIENTED_EDGE('',*,*,#1829,.T.);
#2035 = PLANE('',#2036);
#2036 = AXIS2_PLACEMENT_3D('',#2037,#2038,#2039);
#2037 = CARTESIAN_POINT('',(-9.61875038928E-16,5.965116520483E-16,11.));
#2038 = DIRECTION('',(0.,0.,1.));
#2039 = DIRECTION('',(-2.22044604925E-16,-1.,0.));
#2040 = ( GEOMETRIC_REPRESENTATION_CONTEXT(3) 
GLOBAL_UNCERTAINTY_ASSIGNED_CONTEXT((#2044)) 
GLOBAL_UNIT_ASSIGNED_CONTEXT((#2041,#2042,#2043)) REPRESENTATION_CONTEXT
('Context #1','3D Context with UNIT and UNCERTAINTY') );
#2041 = ( LENGTH_UNIT() NAMED_UNIT(*) SI_UNIT(.MILLI.,.METRE.) );
#2042 = ( NAMED_UNIT(*) PLANE_ANGLE_UNIT() SI_UNIT($,.RADIAN.) );
#2043 = ( NAMED_UNIT(*) SI_UNIT($,.STERADIAN.) SOLID_ANGLE_UNIT() );
#2044 = UNCERTAINTY_MEASURE_WITH_UNIT(LENGTH_MEASURE(5.E-06),#2041,
  'distance_accuracy_value','confusion accuracy');
#2045 = PRODUCT_RELATED_PRODUCT_CATEGORY('part',$,(#7));
#2046 = MECHANICAL_DESIGN_GEOMETRIC_PRESENTATION_REPRESENTATION('',(
    #2047),#2040);
#2047 = STYLED_ITEM('color',(#2048),#15);
#2048 = PRESENTATION_STYLE_ASSIGNMENT((#2049,#2055));
#2049 = SURFACE_STYLE_USAGE(.BOTH.,#2050);
#2050 = SURFACE_SIDE_STYLE('',(#2051));
#2051 = SURFACE_STYLE_FILL_AREA(#2052);
#2052 = FILL_AREA_STYLE('',(#2053));
#2053 = FILL_AREA_STYLE_COLOUR('',#2054);
#2054 = COLOUR_RGB('',0.447058818107,0.474509808674,0.501960817233);
#2055 = CURVE_STYLE('',#2056,POSITIVE_LENGTH_MEASURE(0.1),#2057);
#2056 = DRAUGHTING_PRE_DEFINED_CURVE_FONT('continuous');
#2057 = COLOUR_RGB('',9.803921802644E-02,9.803921802644E-02,
  9.803921802644E-02);
ENDSEC;
END-ISO-10303-21;
