ISO-10303-21;
HEADER;
FILE_DESCRIPTION(('FreeCAD Model'),'2;1');
FILE_NAME('Open CASCADE Shape Model','2026-01-21T10:37:50',(''),(''),
  'Open CASCADE STEP processor 7.8','FreeCAD','Unknown');
FILE_SCHEMA(('AUTOMOTIVE_DESIGN { 1 0 10303 214 1 1 1 1 }'));
ENDSEC;
DATA;
#1 = APPLICATION_PROTOCOL_DEFINITION('international standard',
  'automotive_design',2000,#2);
#2 = APPLICATION_CONTEXT(
  'core data for automotive mechanical design processes');
#3 = SHAPE_DEFINITION_REPRESENTATION(#4,#10);
#4 = PRODUCT_DEFINITION_SHAPE('','',#5);
#5 = PRODUCT_DEFINITION('design','',#6,#9);
#6 = PRODUCT_DEFINITION_FORMATION('','',#7);
#7 = PRODUCT('laser_diode_holder','laser_diode_holder','',(#8));
#8 = PRODUCT_CONTEXT('',#2,'mechanical');
#9 = PRODUCT_DEFINITION_CONTEXT('part definition',#2,'design');
#10 = ADVANCED_BREP_SHAPE_REPRESENTATION('',(#11,#15),#975);
#11 = AXIS2_PLACEMENT_3D('',#12,#13,#14);
#12 = CARTESIAN_POINT('',(0.,0.,0.));
#13 = DIRECTION('',(0.,0.,1.));
#14 = DIRECTION('',(1.,0.,-0.));
#15 = MANIFOLD_SOLID_BREP('',#16);
#16 = CLOSED_SHELL('',(#17,#137,#168,#192,#288,#312,#336,#360,#456,#480,
    #504,#528,#552,#576,#600,#617,#644,#723,#747,#771,#795,#812,#829,
    #846,#858,#889,#906,#930,#947,#961));
#17 = ADVANCED_FACE('',(#18),#132,.T.);
#18 = FACE_BOUND('',#19,.T.);
#19 = EDGE_LOOP('',(#20,#30,#38,#46,#54,#62,#70,#78,#86,#94,#102,#110,
    #118,#126));
#20 = ORIENTED_EDGE('',*,*,#21,.F.);
#21 = EDGE_CURVE('',#22,#24,#26,.T.);
#22 = VERTEX_POINT('',#23);
#23 = CARTESIAN_POINT('',(-12.1313533474,-10.36863241806,107.));
#24 = VERTEX_POINT('',#25);
#25 = CARTESIAN_POINT('',(-12.1313533474,-1.737258300206,107.));
#26 = LINE('',#27,#28);
#27 = CARTESIAN_POINT('',(-12.1313533474,-53.73725830023,107.));
#28 = VECTOR('',#29,1.);
#29 = DIRECTION('',(0.,1.,0.));
#30 = ORIENTED_EDGE('',*,*,#31,.T.);
#31 = EDGE_CURVE('',#22,#32,#34,.T.);
#32 = VERTEX_POINT('',#33);
#33 = CARTESIAN_POINT('',(-9.1313533474,-13.36863241806,107.));
#34 = LINE('',#35,#36);
#35 = CARTESIAN_POINT('',(-7.21225088755,-15.28773487791,107.));
#36 = VECTOR('',#37,1.);
#37 = DIRECTION('',(0.707106781187,-0.707106781187,-3.270032997176E-15)
  );
#38 = ORIENTED_EDGE('',*,*,#39,.T.);
#39 = EDGE_CURVE('',#32,#40,#42,.T.);
#40 = VERTEX_POINT('',#41);
#41 = CARTESIAN_POINT('',(-7.1313533474,-13.36863241806,107.));
#42 = LINE('',#43,#44);
#43 = CARTESIAN_POINT('',(-12.1313533474,-13.36863241806,107.));
#44 = VECTOR('',#45,1.);
#45 = DIRECTION('',(1.,0.,-2.22044604925E-15));
#46 = ORIENTED_EDGE('',*,*,#47,.T.);
#47 = EDGE_CURVE('',#40,#48,#50,.T.);
#48 = VERTEX_POINT('',#49);
#49 = CARTESIAN_POINT('',(-7.1313533474,-17.36863241806,107.));
#50 = LINE('',#51,#52);
#51 = CARTESIAN_POINT('',(-7.1313533474,-13.36863241806,107.));
#52 = VECTOR('',#53,1.);
#53 = DIRECTION('',(0.,-1.,0.));
#54 = ORIENTED_EDGE('',*,*,#55,.F.);
#55 = EDGE_CURVE('',#56,#48,#58,.T.);
#56 = VERTEX_POINT('',#57);
#57 = CARTESIAN_POINT('',(-12.1313533474,-17.36863241806,107.));
#58 = LINE('',#59,#60);
#59 = CARTESIAN_POINT('',(-12.1313533474,-17.36863241806,107.));
#60 = VECTOR('',#61,1.);
#61 = DIRECTION('',(1.,0.,-2.22044604925E-15));
#62 = ORIENTED_EDGE('',*,*,#63,.F.);
#63 = EDGE_CURVE('',#64,#56,#66,.T.);
#64 = VERTEX_POINT('',#65);
#65 = CARTESIAN_POINT('',(-12.1313533474,-42.36863241806,107.));
#66 = LINE('',#67,#68);
#67 = CARTESIAN_POINT('',(-12.1313533474,-53.73725830023,107.));
#68 = VECTOR('',#69,1.);
#69 = DIRECTION('',(0.,1.,0.));
#70 = ORIENTED_EDGE('',*,*,#71,.T.);
#71 = EDGE_CURVE('',#64,#72,#74,.T.);
#72 = VERTEX_POINT('',#73);
#73 = CARTESIAN_POINT('',(-7.1313533474,-42.36863241806,107.));
#74 = LINE('',#75,#76);
#75 = CARTESIAN_POINT('',(-12.1313533474,-42.36863241806,107.));
#76 = VECTOR('',#77,1.);
#77 = DIRECTION('',(1.,0.,-2.22044604925E-15));
#78 = ORIENTED_EDGE('',*,*,#79,.T.);
#79 = EDGE_CURVE('',#72,#80,#82,.T.);
#80 = VERTEX_POINT('',#81);
#81 = CARTESIAN_POINT('',(-7.1313533474,-46.36863241806,107.));
#82 = LINE('',#83,#84);
#83 = CARTESIAN_POINT('',(-7.1313533474,-42.36863241806,107.));
#84 = VECTOR('',#85,1.);
#85 = DIRECTION('',(0.,-1.,0.));
#86 = ORIENTED_EDGE('',*,*,#87,.F.);
#87 = EDGE_CURVE('',#88,#80,#90,.T.);
#88 = VERTEX_POINT('',#89);
#89 = CARTESIAN_POINT('',(-9.1313533474,-46.36863241806,107.));
#90 = LINE('',#91,#92);
#91 = CARTESIAN_POINT('',(-12.1313533474,-46.36863241806,107.));
#92 = VECTOR('',#93,1.);
#93 = DIRECTION('',(1.,0.,-2.22044604925E-15));
#94 = ORIENTED_EDGE('',*,*,#95,.T.);
#95 = EDGE_CURVE('',#88,#96,#98,.T.);
#96 = VERTEX_POINT('',#97);
#97 = CARTESIAN_POINT('',(-12.1313533474,-49.36863241806,107.));
#98 = LINE('',#99,#100);
#99 = CARTESIAN_POINT('',(-6.308031564827,-43.54531063549,107.));
#100 = VECTOR('',#101,1.);
#101 = DIRECTION('',(-0.707106781187,-0.707106781187,3.270032997176E-15)
  );
#102 = ORIENTED_EDGE('',*,*,#103,.F.);
#103 = EDGE_CURVE('',#104,#96,#106,.T.);
#104 = VERTEX_POINT('',#105);
#105 = CARTESIAN_POINT('',(-12.1313533474,-53.73725830023,107.));
#106 = LINE('',#107,#108);
#107 = CARTESIAN_POINT('',(-12.1313533474,-53.73725830023,107.));
#108 = VECTOR('',#109,1.);
#109 = DIRECTION('',(0.,1.,0.));
#110 = ORIENTED_EDGE('',*,*,#111,.F.);
#111 = EDGE_CURVE('',#112,#104,#114,.T.);
#112 = VERTEX_POINT('',#113);
#113 = CARTESIAN_POINT('',(-16.1313533474,-53.73725830023,107.));
#114 = LINE('',#115,#116);
#115 = CARTESIAN_POINT('',(-16.1313533474,-53.73725830023,107.));
#116 = VECTOR('',#117,1.);
#117 = DIRECTION('',(1.,0.,-1.454326758145E-15));
#118 = ORIENTED_EDGE('',*,*,#119,.F.);
#119 = EDGE_CURVE('',#120,#112,#122,.T.);
#120 = VERTEX_POINT('',#121);
#121 = CARTESIAN_POINT('',(-16.1313533474,-1.737258300206,107.));
#122 = LINE('',#123,#124);
#123 = CARTESIAN_POINT('',(-16.1313533474,-1.737258300206,107.));
#124 = VECTOR('',#125,1.);
#125 = DIRECTION('',(0.,-1.,0.));
#126 = ORIENTED_EDGE('',*,*,#127,.F.);
#127 = EDGE_CURVE('',#24,#120,#128,.T.);
#128 = LINE('',#129,#130);
#129 = CARTESIAN_POINT('',(-12.1313533474,-1.737258300206,107.));
#130 = VECTOR('',#131,1.);
#131 = DIRECTION('',(-1.,0.,1.454326758145E-15));
#132 = PLANE('',#133);
#133 = AXIS2_PLACEMENT_3D('',#134,#135,#136);
#134 = CARTESIAN_POINT('',(-13.14650486255,-28.06019377262,107.));
#135 = DIRECTION('',(-4.624525014014E-15,-0.,-1.));
#136 = DIRECTION('',(-1.,0.,4.624525014014E-15));
#137 = ADVANCED_FACE('',(#138),#163,.T.);
#138 = FACE_BOUND('',#139,.T.);
#139 = EDGE_LOOP('',(#140,#150,#156,#157));
#140 = ORIENTED_EDGE('',*,*,#141,.F.);
#141 = EDGE_CURVE('',#142,#144,#146,.T.);
#142 = VERTEX_POINT('',#143);
#143 = CARTESIAN_POINT('',(-12.1313533474,-10.36863241806,122.));
#144 = VERTEX_POINT('',#145);
#145 = CARTESIAN_POINT('',(-12.1313533474,-1.737258300206,122.));
#146 = LINE('',#147,#148);
#147 = CARTESIAN_POINT('',(-12.1313533474,-53.73725830023,122.));
#148 = VECTOR('',#149,1.);
#149 = DIRECTION('',(0.,1.,0.));
#150 = ORIENTED_EDGE('',*,*,#151,.T.);
#151 = EDGE_CURVE('',#142,#22,#152,.T.);
#152 = LINE('',#153,#154);
#153 = CARTESIAN_POINT('',(-12.1313533474,-10.36863241806,122.));
#154 = VECTOR('',#155,1.);
#155 = DIRECTION('',(-2.22044604925E-15,0.,-1.));
#156 = ORIENTED_EDGE('',*,*,#21,.T.);
#157 = ORIENTED_EDGE('',*,*,#158,.F.);
#158 = EDGE_CURVE('',#144,#24,#159,.T.);
#159 = LINE('',#160,#161);
#160 = CARTESIAN_POINT('',(-12.1313533474,-1.737258300206,122.));
#161 = VECTOR('',#162,1.);
#162 = DIRECTION('',(-1.454326758145E-15,-0.,-1.));
#163 = PLANE('',#164);
#164 = AXIS2_PLACEMENT_3D('',#165,#166,#167);
#165 = CARTESIAN_POINT('',(-12.1313533474,-27.73725830022,114.5));
#166 = DIRECTION('',(1.,0.,-2.320563871115E-15));
#167 = DIRECTION('',(2.320563871115E-15,0.,1.));
#168 = ADVANCED_FACE('',(#169),#187,.F.);
#169 = FACE_BOUND('',#170,.F.);
#170 = EDGE_LOOP('',(#171,#179,#180,#181));
#171 = ORIENTED_EDGE('',*,*,#172,.F.);
#172 = EDGE_CURVE('',#142,#173,#175,.T.);
#173 = VERTEX_POINT('',#174);
#174 = CARTESIAN_POINT('',(-9.1313533474,-13.36863241806,122.));
#175 = LINE('',#176,#177);
#176 = CARTESIAN_POINT('',(-14.80638952438,-7.693596241084,122.));
#177 = VECTOR('',#178,1.);
#178 = DIRECTION('',(0.707106781187,-0.707106781187,-1.070016276796E-15)
  );
#179 = ORIENTED_EDGE('',*,*,#151,.T.);
#180 = ORIENTED_EDGE('',*,*,#31,.T.);
#181 = ORIENTED_EDGE('',*,*,#182,.F.);
#182 = EDGE_CURVE('',#173,#32,#183,.T.);
#183 = LINE('',#184,#185);
#184 = CARTESIAN_POINT('',(-9.1313533474,-13.36863241806,122.));
#185 = VECTOR('',#186,1.);
#186 = DIRECTION('',(-2.22044604925E-15,0.,-1.));
#187 = PLANE('',#188);
#188 = AXIS2_PLACEMENT_3D('',#189,#190,#191);
#189 = CARTESIAN_POINT('',(-10.6313533474,-11.86863241806,122.));
#190 = DIRECTION('',(-0.707106781187,-0.707106781187,1.658264989257E-15)
  );
#191 = DIRECTION('',(-2.282793443533E-15,-6.234739428283E-17,-1.));
#192 = ADVANCED_FACE('',(#193),#283,.T.);
#193 = FACE_BOUND('',#194,.T.);
#194 = EDGE_LOOP('',(#195,#205,#213,#221,#229,#237,#245,#253,#261,#269,
    #275,#276,#277));
#195 = ORIENTED_EDGE('',*,*,#196,.T.);
#196 = EDGE_CURVE('',#197,#199,#201,.T.);
#197 = VERTEX_POINT('',#198);
#198 = CARTESIAN_POINT('',(-16.1313533474,-1.737258300206,118.));
#199 = VERTEX_POINT('',#200);
#200 = CARTESIAN_POINT('',(-62.53135182759,-1.737258300206,118.));
#201 = LINE('',#202,#203);
#202 = CARTESIAN_POINT('',(-12.1313533474,-1.737258300206,118.));
#203 = VECTOR('',#204,1.);
#204 = DIRECTION('',(-1.,0.,1.463023861469E-15));
#205 = ORIENTED_EDGE('',*,*,#206,.T.);
#206 = EDGE_CURVE('',#199,#207,#209,.T.);
#207 = VERTEX_POINT('',#208);
#208 = CARTESIAN_POINT('',(-68.53135182759,-1.737258300206,112.));
#209 = LINE('',#210,#211);
#210 = CARTESIAN_POINT('',(-60.67647048005,-1.737258300206,
    119.85488134754));
#211 = VECTOR('',#212,1.);
#212 = DIRECTION('',(-0.707106781187,0.,-0.707106781187));
#213 = ORIENTED_EDGE('',*,*,#214,.T.);
#214 = EDGE_CURVE('',#207,#215,#217,.T.);
#215 = VERTEX_POINT('',#216);
#216 = CARTESIAN_POINT('',(-68.53135182759,-1.737258300206,108.));
#217 = LINE('',#218,#219);
#218 = CARTESIAN_POINT('',(-68.53135182759,-1.737258300206,118.));
#219 = VECTOR('',#220,1.);
#220 = DIRECTION('',(-1.454326758145E-15,0.,-1.));
#221 = ORIENTED_EDGE('',*,*,#222,.F.);
#222 = EDGE_CURVE('',#223,#215,#225,.T.);
#223 = VERTEX_POINT('',#224);
#224 = CARTESIAN_POINT('',(-72.53135182759,-1.737258300206,108.));
#225 = LINE('',#226,#227);
#226 = CARTESIAN_POINT('',(-72.53135182759,-1.737258300206,108.));
#227 = VECTOR('',#228,1.);
#228 = DIRECTION('',(1.,0.,-1.454326758145E-15));
#229 = ORIENTED_EDGE('',*,*,#230,.F.);
#230 = EDGE_CURVE('',#231,#223,#233,.T.);
#231 = VERTEX_POINT('',#232);
#232 = CARTESIAN_POINT('',(-72.53135182759,-1.737258300206,118.));
#233 = LINE('',#234,#235);
#234 = CARTESIAN_POINT('',(-72.53135182759,-1.737258300206,118.));
#235 = VECTOR('',#236,1.);
#236 = DIRECTION('',(-1.454326758145E-15,0.,-1.));
#237 = ORIENTED_EDGE('',*,*,#238,.T.);
#238 = EDGE_CURVE('',#231,#239,#241,.T.);
#239 = VERTEX_POINT('',#240);
#240 = CARTESIAN_POINT('',(-76.53137586592,-1.737258300206,118.));
#241 = LINE('',#242,#243);
#242 = CARTESIAN_POINT('',(-12.1313533474,-1.737258300206,118.));
#243 = VECTOR('',#244,1.);
#244 = DIRECTION('',(-1.,0.,1.463023861469E-15));
#245 = ORIENTED_EDGE('',*,*,#246,.T.);
#246 = EDGE_CURVE('',#239,#247,#249,.T.);
#247 = VERTEX_POINT('',#248);
#248 = CARTESIAN_POINT('',(-76.53137586592,-1.737258300206,108.));
#249 = LINE('',#250,#251);
#250 = CARTESIAN_POINT('',(-76.53137586592,-1.737258300206,118.));
#251 = VECTOR('',#252,1.);
#252 = DIRECTION('',(-1.454326758145E-15,0.,-1.));
#253 = ORIENTED_EDGE('',*,*,#254,.F.);
#254 = EDGE_CURVE('',#255,#247,#257,.T.);
#255 = VERTEX_POINT('',#256);
#256 = CARTESIAN_POINT('',(-80.53137586592,-1.737258300206,108.));
#257 = LINE('',#258,#259);
#258 = CARTESIAN_POINT('',(-80.53137586592,-1.737258300206,108.));
#259 = VECTOR('',#260,1.);
#260 = DIRECTION('',(1.,0.,-1.454326758145E-15));
#261 = ORIENTED_EDGE('',*,*,#262,.T.);
#262 = EDGE_CURVE('',#255,#263,#265,.T.);
#263 = VERTEX_POINT('',#264);
#264 = CARTESIAN_POINT('',(-80.53137586592,-1.737258300206,122.));
#265 = LINE('',#266,#267);
#266 = CARTESIAN_POINT('',(-80.53137586592,-1.737258300206,118.));
#267 = VECTOR('',#268,1.);
#268 = DIRECTION('',(1.463023861469E-15,0.,1.));
#269 = ORIENTED_EDGE('',*,*,#270,.F.);
#270 = EDGE_CURVE('',#144,#263,#271,.T.);
#271 = LINE('',#272,#273);
#272 = CARTESIAN_POINT('',(-12.1313533474,-1.737258300206,122.));
#273 = VECTOR('',#274,1.);
#274 = DIRECTION('',(-1.,0.,1.463023861469E-15));
#275 = ORIENTED_EDGE('',*,*,#158,.T.);
#276 = ORIENTED_EDGE('',*,*,#127,.T.);
#277 = ORIENTED_EDGE('',*,*,#278,.F.);
#278 = EDGE_CURVE('',#197,#120,#279,.T.);
#279 = LINE('',#280,#281);
#280 = CARTESIAN_POINT('',(-16.1313533474,-1.737258300206,122.));
#281 = VECTOR('',#282,1.);
#282 = DIRECTION('',(-1.454326758145E-15,-0.,-1.));
#283 = PLANE('',#284);
#284 = AXIS2_PLACEMENT_3D('',#285,#286,#287);
#285 = CARTESIAN_POINT('',(-48.36037635965,-1.737258300206,
    117.24854992223));
#286 = DIRECTION('',(0.,1.,0.));
#287 = DIRECTION('',(0.,0.,1.));
#288 = ADVANCED_FACE('',(#289),#307,.T.);
#289 = FACE_BOUND('',#290,.T.);
#290 = EDGE_LOOP('',(#291,#299,#305,#306));
#291 = ORIENTED_EDGE('',*,*,#292,.T.);
#292 = EDGE_CURVE('',#173,#293,#295,.T.);
#293 = VERTEX_POINT('',#294);
#294 = CARTESIAN_POINT('',(-7.1313533474,-13.36863241806,122.));
#295 = LINE('',#296,#297);
#296 = CARTESIAN_POINT('',(-12.1313533474,-13.36863241806,122.));
#297 = VECTOR('',#298,1.);
#298 = DIRECTION('',(1.,0.,-2.22044604925E-15));
#299 = ORIENTED_EDGE('',*,*,#300,.T.);
#300 = EDGE_CURVE('',#293,#40,#301,.T.);
#301 = LINE('',#302,#303);
#302 = CARTESIAN_POINT('',(-7.1313533474,-13.36863241806,122.));
#303 = VECTOR('',#304,1.);
#304 = DIRECTION('',(-2.22044604925E-15,0.,-1.));
#305 = ORIENTED_EDGE('',*,*,#39,.F.);
#306 = ORIENTED_EDGE('',*,*,#182,.F.);
#307 = PLANE('',#308);
#308 = AXIS2_PLACEMENT_3D('',#309,#310,#311);
#309 = CARTESIAN_POINT('',(-12.1313533474,-13.36863241806,122.));
#310 = DIRECTION('',(0.,1.,0.));
#311 = DIRECTION('',(-2.22044604925E-15,0.,-1.));
#312 = ADVANCED_FACE('',(#313),#331,.T.);
#313 = FACE_BOUND('',#314,.T.);
#314 = EDGE_LOOP('',(#315,#323,#324,#325));
#315 = ORIENTED_EDGE('',*,*,#316,.F.);
#316 = EDGE_CURVE('',#197,#317,#319,.T.);
#317 = VERTEX_POINT('',#318);
#318 = CARTESIAN_POINT('',(-16.1313533474,-53.73725830023,118.));
#319 = LINE('',#320,#321);
#320 = CARTESIAN_POINT('',(-16.1313533474,-14.73725830021,118.));
#321 = VECTOR('',#322,1.);
#322 = DIRECTION('',(0.,-1.,0.));
#323 = ORIENTED_EDGE('',*,*,#278,.T.);
#324 = ORIENTED_EDGE('',*,*,#119,.T.);
#325 = ORIENTED_EDGE('',*,*,#326,.F.);
#326 = EDGE_CURVE('',#317,#112,#327,.T.);
#327 = LINE('',#328,#329);
#328 = CARTESIAN_POINT('',(-16.1313533474,-53.73725830023,122.));
#329 = VECTOR('',#330,1.);
#330 = DIRECTION('',(-1.454326758145E-15,-0.,-1.));
#331 = PLANE('',#332);
#332 = AXIS2_PLACEMENT_3D('',#333,#334,#335);
#333 = CARTESIAN_POINT('',(-16.1313533474,-1.737258300206,122.));
#334 = DIRECTION('',(-1.,0.,1.454326758145E-15));
#335 = DIRECTION('',(0.,-1.,0.));
#336 = ADVANCED_FACE('',(#337),#355,.T.);
#337 = FACE_BOUND('',#338,.F.);
#338 = EDGE_LOOP('',(#339,#340,#348,#354));
#339 = ORIENTED_EDGE('',*,*,#47,.T.);
#340 = ORIENTED_EDGE('',*,*,#341,.T.);
#341 = EDGE_CURVE('',#48,#342,#344,.T.);
#342 = VERTEX_POINT('',#343);
#343 = CARTESIAN_POINT('',(-7.1313533474,-17.36863241806,122.));
#344 = LINE('',#345,#346);
#345 = CARTESIAN_POINT('',(-7.1313533474,-17.36863241806,107.));
#346 = VECTOR('',#347,1.);
#347 = DIRECTION('',(2.22044604925E-15,0.,1.));
#348 = ORIENTED_EDGE('',*,*,#349,.T.);
#349 = EDGE_CURVE('',#342,#293,#350,.T.);
#350 = LINE('',#351,#352);
#351 = CARTESIAN_POINT('',(-7.1313533474,-17.36863241806,122.));
#352 = VECTOR('',#353,1.);
#353 = DIRECTION('',(0.,1.,0.));
#354 = ORIENTED_EDGE('',*,*,#300,.T.);
#355 = PLANE('',#356);
#356 = AXIS2_PLACEMENT_3D('',#357,#358,#359);
#357 = CARTESIAN_POINT('',(-7.1313533474,-29.86863241806,114.5));
#358 = DIRECTION('',(1.,0.,-2.13162820728E-15));
#359 = DIRECTION('',(2.13162820728E-15,0.,1.));
#360 = ADVANCED_FACE('',(#361),#451,.T.);
#361 = FACE_BOUND('',#362,.T.);
#362 = EDGE_LOOP('',(#363,#373,#381,#387,#388,#389,#397,#405,#413,#421,
    #429,#437,#445));
#363 = ORIENTED_EDGE('',*,*,#364,.F.);
#364 = EDGE_CURVE('',#365,#367,#369,.T.);
#365 = VERTEX_POINT('',#366);
#366 = CARTESIAN_POINT('',(-64.53135182759,-53.73725830023,112.));
#367 = VERTEX_POINT('',#368);
#368 = CARTESIAN_POINT('',(-64.53135182759,-53.73725830023,108.));
#369 = LINE('',#370,#371);
#370 = CARTESIAN_POINT('',(-64.53135182759,-53.73725830023,118.));
#371 = VECTOR('',#372,1.);
#372 = DIRECTION('',(-1.454326758145E-15,0.,-1.));
#373 = ORIENTED_EDGE('',*,*,#374,.F.);
#374 = EDGE_CURVE('',#375,#365,#377,.T.);
#375 = VERTEX_POINT('',#376);
#376 = CARTESIAN_POINT('',(-58.53135182759,-53.73725830023,118.));
#377 = LINE('',#378,#379);
#378 = CARTESIAN_POINT('',(-57.57975870227,-53.73725830023,
    118.95159312532));
#379 = VECTOR('',#380,1.);
#380 = DIRECTION('',(-0.707106781187,0.,-0.707106781187));
#381 = ORIENTED_EDGE('',*,*,#382,.T.);
#382 = EDGE_CURVE('',#375,#317,#383,.T.);
#383 = LINE('',#384,#385);
#384 = CARTESIAN_POINT('',(-80.53137586592,-53.73725830023,118.));
#385 = VECTOR('',#386,1.);
#386 = DIRECTION('',(1.,0.,-1.463023861469E-15));
#387 = ORIENTED_EDGE('',*,*,#326,.T.);
#388 = ORIENTED_EDGE('',*,*,#111,.T.);
#389 = ORIENTED_EDGE('',*,*,#390,.T.);
#390 = EDGE_CURVE('',#104,#391,#393,.T.);
#391 = VERTEX_POINT('',#392);
#392 = CARTESIAN_POINT('',(-12.1313533474,-53.73725830023,122.));
#393 = LINE('',#394,#395);
#394 = CARTESIAN_POINT('',(-12.1313533474,-53.73725830023,118.));
#395 = VECTOR('',#396,1.);
#396 = DIRECTION('',(1.463023861469E-15,0.,1.));
#397 = ORIENTED_EDGE('',*,*,#398,.F.);
#398 = EDGE_CURVE('',#399,#391,#401,.T.);
#399 = VERTEX_POINT('',#400);
#400 = CARTESIAN_POINT('',(-80.53137586592,-53.73725830023,122.));
#401 = LINE('',#402,#403);
#402 = CARTESIAN_POINT('',(-80.53137586592,-53.73725830023,122.));
#403 = VECTOR('',#404,1.);
#404 = DIRECTION('',(1.,0.,-1.463023861469E-15));
#405 = ORIENTED_EDGE('',*,*,#406,.F.);
#406 = EDGE_CURVE('',#407,#399,#409,.T.);
#407 = VERTEX_POINT('',#408);
#408 = CARTESIAN_POINT('',(-80.53137586592,-53.73725830023,108.));
#409 = LINE('',#410,#411);
#410 = CARTESIAN_POINT('',(-80.53137586592,-53.73725830023,118.));
#411 = VECTOR('',#412,1.);
#412 = DIRECTION('',(1.463023861469E-15,0.,1.));
#413 = ORIENTED_EDGE('',*,*,#414,.F.);
#414 = EDGE_CURVE('',#415,#407,#417,.T.);
#415 = VERTEX_POINT('',#416);
#416 = CARTESIAN_POINT('',(-76.53137586592,-53.73725830023,108.));
#417 = LINE('',#418,#419);
#418 = CARTESIAN_POINT('',(-76.53137586592,-53.73725830023,108.));
#419 = VECTOR('',#420,1.);
#420 = DIRECTION('',(-1.,1.7763568394E-15,1.454326758145E-15));
#421 = ORIENTED_EDGE('',*,*,#422,.F.);
#422 = EDGE_CURVE('',#423,#415,#425,.T.);
#423 = VERTEX_POINT('',#424);
#424 = CARTESIAN_POINT('',(-76.53137586592,-53.73725830023,118.));
#425 = LINE('',#426,#427);
#426 = CARTESIAN_POINT('',(-76.53137586592,-53.73725830023,118.));
#427 = VECTOR('',#428,1.);
#428 = DIRECTION('',(-1.454326758145E-15,0.,-1.));
#429 = ORIENTED_EDGE('',*,*,#430,.T.);
#430 = EDGE_CURVE('',#423,#431,#433,.T.);
#431 = VERTEX_POINT('',#432);
#432 = CARTESIAN_POINT('',(-68.53135182759,-53.73725830023,118.));
#433 = LINE('',#434,#435);
#434 = CARTESIAN_POINT('',(-80.53137586592,-53.73725830023,118.));
#435 = VECTOR('',#436,1.);
#436 = DIRECTION('',(1.,0.,-1.463023861469E-15));
#437 = ORIENTED_EDGE('',*,*,#438,.T.);
#438 = EDGE_CURVE('',#431,#439,#441,.T.);
#439 = VERTEX_POINT('',#440);
#440 = CARTESIAN_POINT('',(-68.53135182759,-53.73725830023,108.));
#441 = LINE('',#442,#443);
#442 = CARTESIAN_POINT('',(-68.53135182759,-53.73725830023,118.));
#443 = VECTOR('',#444,1.);
#444 = DIRECTION('',(-1.454326758145E-15,0.,-1.));
#445 = ORIENTED_EDGE('',*,*,#446,.F.);
#446 = EDGE_CURVE('',#367,#439,#447,.T.);
#447 = LINE('',#448,#449);
#448 = CARTESIAN_POINT('',(-64.53135182759,-53.73725830023,108.));
#449 = VECTOR('',#450,1.);
#450 = DIRECTION('',(-1.,0.,1.454326758145E-15));
#451 = PLANE('',#452);
#452 = AXIS2_PLACEMENT_3D('',#453,#454,#455);
#453 = CARTESIAN_POINT('',(-47.97352924854,-53.73725830023,
    117.24854992223));
#454 = DIRECTION('',(-0.,-1.,-0.));
#455 = DIRECTION('',(0.,0.,-1.));
#456 = ADVANCED_FACE('',(#457),#475,.T.);
#457 = FACE_BOUND('',#458,.T.);
#458 = EDGE_LOOP('',(#459,#460,#461,#469));
#459 = ORIENTED_EDGE('',*,*,#55,.T.);
#460 = ORIENTED_EDGE('',*,*,#341,.T.);
#461 = ORIENTED_EDGE('',*,*,#462,.F.);
#462 = EDGE_CURVE('',#463,#342,#465,.T.);
#463 = VERTEX_POINT('',#464);
#464 = CARTESIAN_POINT('',(-12.1313533474,-17.36863241806,122.));
#465 = LINE('',#466,#467);
#466 = CARTESIAN_POINT('',(-12.1313533474,-17.36863241806,122.));
#467 = VECTOR('',#468,1.);
#468 = DIRECTION('',(1.,0.,-2.22044604925E-15));
#469 = ORIENTED_EDGE('',*,*,#470,.F.);
#470 = EDGE_CURVE('',#56,#463,#471,.T.);
#471 = LINE('',#472,#473);
#472 = CARTESIAN_POINT('',(-12.1313533474,-17.36863241806,107.));
#473 = VECTOR('',#474,1.);
#474 = DIRECTION('',(2.22044604925E-15,0.,1.));
#475 = PLANE('',#476);
#476 = AXIS2_PLACEMENT_3D('',#477,#478,#479);
#477 = CARTESIAN_POINT('',(-12.1313533474,-17.36863241806,107.));
#478 = DIRECTION('',(0.,-1.,0.));
#479 = DIRECTION('',(2.22044604925E-15,0.,1.));
#480 = ADVANCED_FACE('',(#481),#499,.T.);
#481 = FACE_BOUND('',#482,.T.);
#482 = EDGE_LOOP('',(#483,#491,#492,#493));
#483 = ORIENTED_EDGE('',*,*,#484,.F.);
#484 = EDGE_CURVE('',#391,#485,#487,.T.);
#485 = VERTEX_POINT('',#486);
#486 = CARTESIAN_POINT('',(-12.1313533474,-49.36863241806,122.));
#487 = LINE('',#488,#489);
#488 = CARTESIAN_POINT('',(-12.1313533474,-53.73725830023,122.));
#489 = VECTOR('',#490,1.);
#490 = DIRECTION('',(0.,1.,0.));
#491 = ORIENTED_EDGE('',*,*,#390,.F.);
#492 = ORIENTED_EDGE('',*,*,#103,.T.);
#493 = ORIENTED_EDGE('',*,*,#494,.T.);
#494 = EDGE_CURVE('',#96,#485,#495,.T.);
#495 = LINE('',#496,#497);
#496 = CARTESIAN_POINT('',(-12.1313533474,-49.36863241806,107.));
#497 = VECTOR('',#498,1.);
#498 = DIRECTION('',(2.22044604925E-15,0.,1.));
#499 = PLANE('',#500);
#500 = AXIS2_PLACEMENT_3D('',#501,#502,#503);
#501 = CARTESIAN_POINT('',(-12.1313533474,-27.73725830022,114.5));
#502 = DIRECTION('',(1.,0.,-2.320563871115E-15));
#503 = DIRECTION('',(2.320563871115E-15,0.,1.));
#504 = ADVANCED_FACE('',(#505),#523,.T.);
#505 = FACE_BOUND('',#506,.T.);
#506 = EDGE_LOOP('',(#507,#515,#516,#517));
#507 = ORIENTED_EDGE('',*,*,#508,.T.);
#508 = EDGE_CURVE('',#509,#64,#511,.T.);
#509 = VERTEX_POINT('',#510);
#510 = CARTESIAN_POINT('',(-12.1313533474,-42.36863241806,122.));
#511 = LINE('',#512,#513);
#512 = CARTESIAN_POINT('',(-12.1313533474,-42.36863241806,122.));
#513 = VECTOR('',#514,1.);
#514 = DIRECTION('',(-2.22044604925E-15,0.,-1.));
#515 = ORIENTED_EDGE('',*,*,#63,.T.);
#516 = ORIENTED_EDGE('',*,*,#470,.T.);
#517 = ORIENTED_EDGE('',*,*,#518,.F.);
#518 = EDGE_CURVE('',#509,#463,#519,.T.);
#519 = LINE('',#520,#521);
#520 = CARTESIAN_POINT('',(-12.1313533474,-53.73725830023,122.));
#521 = VECTOR('',#522,1.);
#522 = DIRECTION('',(0.,1.,0.));
#523 = PLANE('',#524);
#524 = AXIS2_PLACEMENT_3D('',#525,#526,#527);
#525 = CARTESIAN_POINT('',(-12.1313533474,-27.73725830022,114.5));
#526 = DIRECTION('',(1.,0.,-2.320563871115E-15));
#527 = DIRECTION('',(2.320563871115E-15,0.,1.));
#528 = ADVANCED_FACE('',(#529),#547,.F.);
#529 = FACE_BOUND('',#530,.T.);
#530 = EDGE_LOOP('',(#531,#532,#540,#546));
#531 = ORIENTED_EDGE('',*,*,#95,.F.);
#532 = ORIENTED_EDGE('',*,*,#533,.T.);
#533 = EDGE_CURVE('',#88,#534,#536,.T.);
#534 = VERTEX_POINT('',#535);
#535 = CARTESIAN_POINT('',(-9.1313533474,-46.36863241806,122.));
#536 = LINE('',#537,#538);
#537 = CARTESIAN_POINT('',(-9.1313533474,-46.36863241806,107.));
#538 = VECTOR('',#539,1.);
#539 = DIRECTION('',(2.22044604925E-15,0.,1.));
#540 = ORIENTED_EDGE('',*,*,#541,.T.);
#541 = EDGE_CURVE('',#534,#485,#542,.T.);
#542 = LINE('',#543,#544);
#543 = CARTESIAN_POINT('',(-13.82242691905,-51.05970598972,122.));
#544 = VECTOR('',#545,1.);
#545 = DIRECTION('',(-0.707106781187,-0.707106781187,1.070016276796E-15)
  );
#546 = ORIENTED_EDGE('',*,*,#494,.F.);
#547 = PLANE('',#548);
#548 = AXIS2_PLACEMENT_3D('',#549,#550,#551);
#549 = CARTESIAN_POINT('',(-10.6313533474,-47.86863241806,107.));
#550 = DIRECTION('',(-0.707106781187,0.707106781187,1.628114716725E-15)
  );
#551 = DIRECTION('',(-2.261473981371E-15,4.102793212086E-17,-1.));
#552 = ADVANCED_FACE('',(#553),#571,.T.);
#553 = FACE_BOUND('',#554,.T.);
#554 = EDGE_LOOP('',(#555,#563,#569,#570));
#555 = ORIENTED_EDGE('',*,*,#556,.T.);
#556 = EDGE_CURVE('',#509,#557,#559,.T.);
#557 = VERTEX_POINT('',#558);
#558 = CARTESIAN_POINT('',(-7.1313533474,-42.36863241806,122.));
#559 = LINE('',#560,#561);
#560 = CARTESIAN_POINT('',(-12.1313533474,-42.36863241806,122.));
#561 = VECTOR('',#562,1.);
#562 = DIRECTION('',(1.,0.,-2.22044604925E-15));
#563 = ORIENTED_EDGE('',*,*,#564,.T.);
#564 = EDGE_CURVE('',#557,#72,#565,.T.);
#565 = LINE('',#566,#567);
#566 = CARTESIAN_POINT('',(-7.1313533474,-42.36863241806,122.));
#567 = VECTOR('',#568,1.);
#568 = DIRECTION('',(-2.22044604925E-15,0.,-1.));
#569 = ORIENTED_EDGE('',*,*,#71,.F.);
#570 = ORIENTED_EDGE('',*,*,#508,.F.);
#571 = PLANE('',#572);
#572 = AXIS2_PLACEMENT_3D('',#573,#574,#575);
#573 = CARTESIAN_POINT('',(-12.1313533474,-42.36863241806,122.));
#574 = DIRECTION('',(0.,1.,0.));
#575 = DIRECTION('',(-2.22044604925E-15,0.,-1.));
#576 = ADVANCED_FACE('',(#577),#595,.T.);
#577 = FACE_BOUND('',#578,.T.);
#578 = EDGE_LOOP('',(#579,#580,#588,#594));
#579 = ORIENTED_EDGE('',*,*,#87,.T.);
#580 = ORIENTED_EDGE('',*,*,#581,.T.);
#581 = EDGE_CURVE('',#80,#582,#584,.T.);
#582 = VERTEX_POINT('',#583);
#583 = CARTESIAN_POINT('',(-7.1313533474,-46.36863241806,122.));
#584 = LINE('',#585,#586);
#585 = CARTESIAN_POINT('',(-7.1313533474,-46.36863241806,107.));
#586 = VECTOR('',#587,1.);
#587 = DIRECTION('',(2.22044604925E-15,0.,1.));
#588 = ORIENTED_EDGE('',*,*,#589,.F.);
#589 = EDGE_CURVE('',#534,#582,#590,.T.);
#590 = LINE('',#591,#592);
#591 = CARTESIAN_POINT('',(-12.1313533474,-46.36863241806,122.));
#592 = VECTOR('',#593,1.);
#593 = DIRECTION('',(1.,0.,-2.22044604925E-15));
#594 = ORIENTED_EDGE('',*,*,#533,.F.);
#595 = PLANE('',#596);
#596 = AXIS2_PLACEMENT_3D('',#597,#598,#599);
#597 = CARTESIAN_POINT('',(-12.1313533474,-46.36863241806,107.));
#598 = DIRECTION('',(0.,-1.,0.));
#599 = DIRECTION('',(2.22044604925E-15,0.,1.));
#600 = ADVANCED_FACE('',(#601),#612,.T.);
#601 = FACE_BOUND('',#602,.F.);
#602 = EDGE_LOOP('',(#603,#604,#610,#611));
#603 = ORIENTED_EDGE('',*,*,#581,.T.);
#604 = ORIENTED_EDGE('',*,*,#605,.T.);
#605 = EDGE_CURVE('',#582,#557,#606,.T.);
#606 = LINE('',#607,#608);
#607 = CARTESIAN_POINT('',(-7.1313533474,-46.36863241806,122.));
#608 = VECTOR('',#609,1.);
#609 = DIRECTION('',(0.,1.,0.));
#610 = ORIENTED_EDGE('',*,*,#564,.T.);
#611 = ORIENTED_EDGE('',*,*,#79,.T.);
#612 = PLANE('',#613);
#613 = AXIS2_PLACEMENT_3D('',#614,#615,#616);
#614 = CARTESIAN_POINT('',(-7.1313533474,-29.86863241806,114.5));
#615 = DIRECTION('',(1.,0.,-2.13162820728E-15));
#616 = DIRECTION('',(2.13162820728E-15,0.,1.));
#617 = ADVANCED_FACE('',(#618),#639,.T.);
#618 = FACE_BOUND('',#619,.T.);
#619 = EDGE_LOOP('',(#620,#621,#622,#623,#624,#625,#626,#627,#628,#629,
    #630,#631,#632,#638));
#620 = ORIENTED_EDGE('',*,*,#484,.T.);
#621 = ORIENTED_EDGE('',*,*,#541,.F.);
#622 = ORIENTED_EDGE('',*,*,#589,.T.);
#623 = ORIENTED_EDGE('',*,*,#605,.T.);
#624 = ORIENTED_EDGE('',*,*,#556,.F.);
#625 = ORIENTED_EDGE('',*,*,#518,.T.);
#626 = ORIENTED_EDGE('',*,*,#462,.T.);
#627 = ORIENTED_EDGE('',*,*,#349,.T.);
#628 = ORIENTED_EDGE('',*,*,#292,.F.);
#629 = ORIENTED_EDGE('',*,*,#172,.F.);
#630 = ORIENTED_EDGE('',*,*,#141,.T.);
#631 = ORIENTED_EDGE('',*,*,#270,.T.);
#632 = ORIENTED_EDGE('',*,*,#633,.T.);
#633 = EDGE_CURVE('',#263,#399,#634,.T.);
#634 = LINE('',#635,#636);
#635 = CARTESIAN_POINT('',(-80.53137586592,-1.737258300206,122.));
#636 = VECTOR('',#637,1.);
#637 = DIRECTION('',(0.,-1.,0.));
#638 = ORIENTED_EDGE('',*,*,#398,.T.);
#639 = PLANE('',#640);
#640 = AXIS2_PLACEMENT_3D('',#641,#642,#643);
#641 = CARTESIAN_POINT('',(-43.36357284468,-27.90070720741,122.));
#642 = DIRECTION('',(1.513231530605E-15,0.,1.));
#643 = DIRECTION('',(1.,0.,-1.513231530605E-15));
#644 = ADVANCED_FACE('',(#645),#718,.F.);
#645 = FACE_BOUND('',#646,.F.);
#646 = EDGE_LOOP('',(#647,#648,#656,#664,#672,#678,#679,#685,#686,#694,
    #702,#710,#716,#717));
#647 = ORIENTED_EDGE('',*,*,#196,.T.);
#648 = ORIENTED_EDGE('',*,*,#649,.T.);
#649 = EDGE_CURVE('',#199,#650,#652,.T.);
#650 = VERTEX_POINT('',#651);
#651 = CARTESIAN_POINT('',(-62.53135182759,-5.737258300206,118.));
#652 = LINE('',#653,#654);
#653 = CARTESIAN_POINT('',(-62.53135182759,-1.737258300206,118.));
#654 = VECTOR('',#655,1.);
#655 = DIRECTION('',(0.,-1.,0.));
#656 = ORIENTED_EDGE('',*,*,#657,.F.);
#657 = EDGE_CURVE('',#658,#650,#660,.T.);
#658 = VERTEX_POINT('',#659);
#659 = CARTESIAN_POINT('',(-68.53135182759,-5.737258300206,118.));
#660 = LINE('',#661,#662);
#661 = CARTESIAN_POINT('',(-57.43135821713,-5.737258300206,118.));
#662 = VECTOR('',#663,1.);
#663 = DIRECTION('',(1.,0.,-1.454326758145E-15));
#664 = ORIENTED_EDGE('',*,*,#665,.T.);
#665 = EDGE_CURVE('',#658,#666,#668,.T.);
#666 = VERTEX_POINT('',#667);
#667 = CARTESIAN_POINT('',(-72.53135182759,-5.737258300206,118.));
#668 = LINE('',#669,#670);
#669 = CARTESIAN_POINT('',(-68.53135182759,-5.737258300206,118.));
#670 = VECTOR('',#671,1.);
#671 = DIRECTION('',(-1.,0.,1.454326758145E-15));
#672 = ORIENTED_EDGE('',*,*,#673,.T.);
#673 = EDGE_CURVE('',#666,#231,#674,.T.);
#674 = LINE('',#675,#676);
#675 = CARTESIAN_POINT('',(-72.53135182759,-5.737258300206,118.));
#676 = VECTOR('',#677,1.);
#677 = DIRECTION('',(0.,1.,-0.));
#678 = ORIENTED_EDGE('',*,*,#238,.T.);
#679 = ORIENTED_EDGE('',*,*,#680,.T.);
#680 = EDGE_CURVE('',#239,#423,#681,.T.);
#681 = LINE('',#682,#683);
#682 = CARTESIAN_POINT('',(-76.53137586592,-1.737258300206,118.));
#683 = VECTOR('',#684,1.);
#684 = DIRECTION('',(0.,-1.,0.));
#685 = ORIENTED_EDGE('',*,*,#430,.T.);
#686 = ORIENTED_EDGE('',*,*,#687,.T.);
#687 = EDGE_CURVE('',#431,#688,#690,.T.);
#688 = VERTEX_POINT('',#689);
#689 = CARTESIAN_POINT('',(-68.53135182759,-49.73725830027,118.));
#690 = LINE('',#691,#692);
#691 = CARTESIAN_POINT('',(-68.53135182759,-53.73725830023,118.));
#692 = VECTOR('',#693,1.);
#693 = DIRECTION('',(0.,1.,-0.));
#694 = ORIENTED_EDGE('',*,*,#695,.T.);
#695 = EDGE_CURVE('',#688,#696,#698,.T.);
#696 = VERTEX_POINT('',#697);
#697 = CARTESIAN_POINT('',(-64.53135182759,-49.73725830027,118.));
#698 = LINE('',#699,#700);
#699 = CARTESIAN_POINT('',(-68.53135182759,-49.73725830027,118.));
#700 = VECTOR('',#701,1.);
#701 = DIRECTION('',(1.,0.,-1.454326758145E-15));
#702 = ORIENTED_EDGE('',*,*,#703,.T.);
#703 = EDGE_CURVE('',#696,#704,#706,.T.);
#704 = VERTEX_POINT('',#705);
#705 = CARTESIAN_POINT('',(-58.53135182759,-49.73725830027,118.));
#706 = LINE('',#707,#708);
#707 = CARTESIAN_POINT('',(-57.43135821713,-49.73725830027,118.));
#708 = VECTOR('',#709,1.);
#709 = DIRECTION('',(1.,0.,-1.454326758145E-15));
#710 = ORIENTED_EDGE('',*,*,#711,.T.);
#711 = EDGE_CURVE('',#704,#375,#712,.T.);
#712 = LINE('',#713,#714);
#713 = CARTESIAN_POINT('',(-58.53135182759,-49.73725830027,118.));
#714 = VECTOR('',#715,1.);
#715 = DIRECTION('',(0.,-1.,0.));
#716 = ORIENTED_EDGE('',*,*,#382,.T.);
#717 = ORIENTED_EDGE('',*,*,#316,.F.);
#718 = PLANE('',#719);
#719 = AXIS2_PLACEMENT_3D('',#720,#721,#722);
#720 = CARTESIAN_POINT('',(-46.33136460666,-27.73725830022,118.));
#721 = DIRECTION('',(1.454326758145E-15,0.,1.));
#722 = DIRECTION('',(1.,0.,-1.454326758145E-15));
#723 = ADVANCED_FACE('',(#724),#742,.F.);
#724 = FACE_BOUND('',#725,.T.);
#725 = EDGE_LOOP('',(#726,#727,#728,#736));
#726 = ORIENTED_EDGE('',*,*,#206,.F.);
#727 = ORIENTED_EDGE('',*,*,#649,.T.);
#728 = ORIENTED_EDGE('',*,*,#729,.T.);
#729 = EDGE_CURVE('',#650,#730,#732,.T.);
#730 = VERTEX_POINT('',#731);
#731 = CARTESIAN_POINT('',(-68.53135182759,-5.737258300206,112.));
#732 = LINE('',#733,#734);
#733 = CARTESIAN_POINT('',(-65.53135182759,-5.737258300206,115.));
#734 = VECTOR('',#735,1.);
#735 = DIRECTION('',(-0.707106781187,0.,-0.707106781187));
#736 = ORIENTED_EDGE('',*,*,#737,.F.);
#737 = EDGE_CURVE('',#207,#730,#738,.T.);
#738 = LINE('',#739,#740);
#739 = CARTESIAN_POINT('',(-68.53135182759,-1.737258300206,112.));
#740 = VECTOR('',#741,1.);
#741 = DIRECTION('',(0.,-1.,0.));
#742 = PLANE('',#743);
#743 = AXIS2_PLACEMENT_3D('',#744,#745,#746);
#744 = CARTESIAN_POINT('',(-65.53135182759,-1.737258300206,115.));
#745 = DIRECTION('',(-0.707106781187,0.,0.707106781187));
#746 = DIRECTION('',(0.,1.,0.));
#747 = ADVANCED_FACE('',(#748),#766,.F.);
#748 = FACE_BOUND('',#749,.F.);
#749 = EDGE_LOOP('',(#750,#751,#759,#765));
#750 = ORIENTED_EDGE('',*,*,#214,.T.);
#751 = ORIENTED_EDGE('',*,*,#752,.T.);
#752 = EDGE_CURVE('',#215,#753,#755,.T.);
#753 = VERTEX_POINT('',#754);
#754 = CARTESIAN_POINT('',(-68.53135182759,-5.737258300206,108.));
#755 = LINE('',#756,#757);
#756 = CARTESIAN_POINT('',(-68.53135182759,-1.737258300206,108.));
#757 = VECTOR('',#758,1.);
#758 = DIRECTION('',(0.,-1.,0.));
#759 = ORIENTED_EDGE('',*,*,#760,.F.);
#760 = EDGE_CURVE('',#730,#753,#761,.T.);
#761 = LINE('',#762,#763);
#762 = CARTESIAN_POINT('',(-68.53135182759,-5.737258300206,118.));
#763 = VECTOR('',#764,1.);
#764 = DIRECTION('',(-1.454326758145E-15,0.,-1.));
#765 = ORIENTED_EDGE('',*,*,#737,.F.);
#766 = PLANE('',#767);
#767 = AXIS2_PLACEMENT_3D('',#768,#769,#770);
#768 = CARTESIAN_POINT('',(-68.53135182759,-1.737258300206,118.));
#769 = DIRECTION('',(-1.,0.,1.454326758145E-15));
#770 = DIRECTION('',(0.,-1.,0.));
#771 = ADVANCED_FACE('',(#772),#790,.F.);
#772 = FACE_BOUND('',#773,.T.);
#773 = EDGE_LOOP('',(#774,#782,#783,#784));
#774 = ORIENTED_EDGE('',*,*,#775,.T.);
#775 = EDGE_CURVE('',#776,#223,#778,.T.);
#776 = VERTEX_POINT('',#777);
#777 = CARTESIAN_POINT('',(-72.53135182759,-5.737258300206,108.));
#778 = LINE('',#779,#780);
#779 = CARTESIAN_POINT('',(-72.53135182759,-5.737258300206,108.));
#780 = VECTOR('',#781,1.);
#781 = DIRECTION('',(0.,1.,-0.));
#782 = ORIENTED_EDGE('',*,*,#222,.T.);
#783 = ORIENTED_EDGE('',*,*,#752,.T.);
#784 = ORIENTED_EDGE('',*,*,#785,.T.);
#785 = EDGE_CURVE('',#753,#776,#786,.T.);
#786 = LINE('',#787,#788);
#787 = CARTESIAN_POINT('',(-68.53135182759,-5.737258300206,108.));
#788 = VECTOR('',#789,1.);
#789 = DIRECTION('',(-1.,0.,1.454326758145E-15));
#790 = PLANE('',#791);
#791 = AXIS2_PLACEMENT_3D('',#792,#793,#794);
#792 = CARTESIAN_POINT('',(-76.30914830185,-27.73725830021,108.));
#793 = DIRECTION('',(1.116500189176E-15,0.,1.));
#794 = DIRECTION('',(1.,0.,-1.116500189176E-15));
#795 = ADVANCED_FACE('',(#796),#807,.F.);
#796 = FACE_BOUND('',#797,.F.);
#797 = EDGE_LOOP('',(#798,#804,#805,#806));
#798 = ORIENTED_EDGE('',*,*,#799,.T.);
#799 = EDGE_CURVE('',#666,#776,#800,.T.);
#800 = LINE('',#801,#802);
#801 = CARTESIAN_POINT('',(-72.53135182759,-5.737258300206,118.));
#802 = VECTOR('',#803,1.);
#803 = DIRECTION('',(-1.454326758145E-15,0.,-1.));
#804 = ORIENTED_EDGE('',*,*,#775,.T.);
#805 = ORIENTED_EDGE('',*,*,#230,.F.);
#806 = ORIENTED_EDGE('',*,*,#673,.F.);
#807 = PLANE('',#808);
#808 = AXIS2_PLACEMENT_3D('',#809,#810,#811);
#809 = CARTESIAN_POINT('',(-72.53135182759,-5.737258300206,118.));
#810 = DIRECTION('',(1.,0.,-1.454326758145E-15));
#811 = DIRECTION('',(0.,1.,0.));
#812 = ADVANCED_FACE('',(#813),#824,.T.);
#813 = FACE_BOUND('',#814,.T.);
#814 = EDGE_LOOP('',(#815,#816,#822,#823));
#815 = ORIENTED_EDGE('',*,*,#262,.F.);
#816 = ORIENTED_EDGE('',*,*,#817,.F.);
#817 = EDGE_CURVE('',#407,#255,#818,.T.);
#818 = LINE('',#819,#820);
#819 = CARTESIAN_POINT('',(-80.53137586592,-53.73725830023,108.));
#820 = VECTOR('',#821,1.);
#821 = DIRECTION('',(0.,1.,-0.));
#822 = ORIENTED_EDGE('',*,*,#406,.T.);
#823 = ORIENTED_EDGE('',*,*,#633,.F.);
#824 = PLANE('',#825);
#825 = AXIS2_PLACEMENT_3D('',#826,#827,#828);
#826 = CARTESIAN_POINT('',(-80.53137586592,-27.73725830022,115.));
#827 = DIRECTION('',(-1.,0.,2.891240245036E-15));
#828 = DIRECTION('',(-2.891240245036E-15,0.,-1.));
#829 = ADVANCED_FACE('',(#830),#841,.F.);
#830 = FACE_BOUND('',#831,.F.);
#831 = EDGE_LOOP('',(#832,#833,#839,#840));
#832 = ORIENTED_EDGE('',*,*,#246,.T.);
#833 = ORIENTED_EDGE('',*,*,#834,.T.);
#834 = EDGE_CURVE('',#247,#415,#835,.T.);
#835 = LINE('',#836,#837);
#836 = CARTESIAN_POINT('',(-76.53137586592,-1.737258300206,108.));
#837 = VECTOR('',#838,1.);
#838 = DIRECTION('',(0.,-1.,0.));
#839 = ORIENTED_EDGE('',*,*,#422,.F.);
#840 = ORIENTED_EDGE('',*,*,#680,.F.);
#841 = PLANE('',#842);
#842 = AXIS2_PLACEMENT_3D('',#843,#844,#845);
#843 = CARTESIAN_POINT('',(-76.53137586592,-1.737258300206,118.));
#844 = DIRECTION('',(-1.,0.,1.454326758145E-15));
#845 = DIRECTION('',(0.,-1.,0.));
#846 = ADVANCED_FACE('',(#847),#853,.F.);
#847 = FACE_BOUND('',#848,.T.);
#848 = EDGE_LOOP('',(#849,#850,#851,#852));
#849 = ORIENTED_EDGE('',*,*,#834,.T.);
#850 = ORIENTED_EDGE('',*,*,#414,.T.);
#851 = ORIENTED_EDGE('',*,*,#817,.T.);
#852 = ORIENTED_EDGE('',*,*,#254,.T.);
#853 = PLANE('',#854);
#854 = AXIS2_PLACEMENT_3D('',#855,#856,#857);
#855 = CARTESIAN_POINT('',(-76.30914830185,-27.73725830021,108.));
#856 = DIRECTION('',(1.116500189176E-15,0.,1.));
#857 = DIRECTION('',(1.,0.,-1.116500189176E-15));
#858 = ADVANCED_FACE('',(#859),#884,.F.);
#859 = FACE_BOUND('',#860,.F.);
#860 = EDGE_LOOP('',(#861,#871,#877,#878));
#861 = ORIENTED_EDGE('',*,*,#862,.T.);
#862 = EDGE_CURVE('',#863,#865,#867,.T.);
#863 = VERTEX_POINT('',#864);
#864 = CARTESIAN_POINT('',(-64.53135182759,-49.73725830027,112.));
#865 = VERTEX_POINT('',#866);
#866 = CARTESIAN_POINT('',(-64.53135182759,-49.73725830027,108.));
#867 = LINE('',#868,#869);
#868 = CARTESIAN_POINT('',(-64.53135182759,-49.73725830027,118.));
#869 = VECTOR('',#870,1.);
#870 = DIRECTION('',(-1.454326758145E-15,0.,-1.));
#871 = ORIENTED_EDGE('',*,*,#872,.T.);
#872 = EDGE_CURVE('',#865,#367,#873,.T.);
#873 = LINE('',#874,#875);
#874 = CARTESIAN_POINT('',(-64.53135182759,-49.73725830027,108.));
#875 = VECTOR('',#876,1.);
#876 = DIRECTION('',(0.,-1.,0.));
#877 = ORIENTED_EDGE('',*,*,#364,.F.);
#878 = ORIENTED_EDGE('',*,*,#879,.F.);
#879 = EDGE_CURVE('',#863,#365,#880,.T.);
#880 = LINE('',#881,#882);
#881 = CARTESIAN_POINT('',(-64.53135182759,-49.73725830027,112.));
#882 = VECTOR('',#883,1.);
#883 = DIRECTION('',(0.,-1.,0.));
#884 = PLANE('',#885);
#885 = AXIS2_PLACEMENT_3D('',#886,#887,#888);
#886 = CARTESIAN_POINT('',(-64.53135182759,-49.73725830027,118.));
#887 = DIRECTION('',(-1.,0.,1.454326758145E-15));
#888 = DIRECTION('',(0.,-1.,0.));
#889 = ADVANCED_FACE('',(#890),#901,.F.);
#890 = FACE_BOUND('',#891,.T.);
#891 = EDGE_LOOP('',(#892,#898,#899,#900));
#892 = ORIENTED_EDGE('',*,*,#893,.F.);
#893 = EDGE_CURVE('',#704,#863,#894,.T.);
#894 = LINE('',#895,#896);
#895 = CARTESIAN_POINT('',(-62.53135182759,-49.73725830027,114.));
#896 = VECTOR('',#897,1.);
#897 = DIRECTION('',(-0.707106781187,-0.,-0.707106781187));
#898 = ORIENTED_EDGE('',*,*,#711,.T.);
#899 = ORIENTED_EDGE('',*,*,#374,.T.);
#900 = ORIENTED_EDGE('',*,*,#879,.F.);
#901 = PLANE('',#902);
#902 = AXIS2_PLACEMENT_3D('',#903,#904,#905);
#903 = CARTESIAN_POINT('',(-61.53135182759,-49.73725830027,115.));
#904 = DIRECTION('',(-0.707106781187,0.,0.707106781187));
#905 = DIRECTION('',(0.,1.,0.));
#906 = ADVANCED_FACE('',(#907),#925,.F.);
#907 = FACE_BOUND('',#908,.T.);
#908 = EDGE_LOOP('',(#909,#917,#918,#919));
#909 = ORIENTED_EDGE('',*,*,#910,.T.);
#910 = EDGE_CURVE('',#911,#865,#913,.T.);
#911 = VERTEX_POINT('',#912);
#912 = CARTESIAN_POINT('',(-68.53135182759,-49.73725830027,108.));
#913 = LINE('',#914,#915);
#914 = CARTESIAN_POINT('',(-68.53135182759,-49.73725830027,108.));
#915 = VECTOR('',#916,1.);
#916 = DIRECTION('',(1.,0.,-1.454326758145E-15));
#917 = ORIENTED_EDGE('',*,*,#872,.T.);
#918 = ORIENTED_EDGE('',*,*,#446,.T.);
#919 = ORIENTED_EDGE('',*,*,#920,.T.);
#920 = EDGE_CURVE('',#439,#911,#921,.T.);
#921 = LINE('',#922,#923);
#922 = CARTESIAN_POINT('',(-68.53135182759,-53.73725830023,108.));
#923 = VECTOR('',#924,1.);
#924 = DIRECTION('',(0.,1.,-0.));
#925 = PLANE('',#926);
#926 = AXIS2_PLACEMENT_3D('',#927,#928,#929);
#927 = CARTESIAN_POINT('',(-76.30914830185,-27.73725830021,108.));
#928 = DIRECTION('',(1.116500189176E-15,0.,1.));
#929 = DIRECTION('',(1.,0.,-1.116500189176E-15));
#930 = ADVANCED_FACE('',(#931),#942,.F.);
#931 = FACE_BOUND('',#932,.F.);
#932 = EDGE_LOOP('',(#933,#934,#935,#941));
#933 = ORIENTED_EDGE('',*,*,#438,.T.);
#934 = ORIENTED_EDGE('',*,*,#920,.T.);
#935 = ORIENTED_EDGE('',*,*,#936,.F.);
#936 = EDGE_CURVE('',#688,#911,#937,.T.);
#937 = LINE('',#938,#939);
#938 = CARTESIAN_POINT('',(-68.53135182759,-49.73725830027,118.));
#939 = VECTOR('',#940,1.);
#940 = DIRECTION('',(-1.454326758145E-15,0.,-1.));
#941 = ORIENTED_EDGE('',*,*,#687,.F.);
#942 = PLANE('',#943);
#943 = AXIS2_PLACEMENT_3D('',#944,#945,#946);
#944 = CARTESIAN_POINT('',(-68.53135182759,-53.73725830023,118.));
#945 = DIRECTION('',(1.,0.,-1.454326758145E-15));
#946 = DIRECTION('',(0.,1.,0.));
#947 = ADVANCED_FACE('',(#948),#956,.F.);
#948 = FACE_BOUND('',#949,.F.);
#949 = EDGE_LOOP('',(#950,#951,#952,#953,#954,#955));
#950 = ORIENTED_EDGE('',*,*,#760,.T.);
#951 = ORIENTED_EDGE('',*,*,#785,.T.);
#952 = ORIENTED_EDGE('',*,*,#799,.F.);
#953 = ORIENTED_EDGE('',*,*,#665,.F.);
#954 = ORIENTED_EDGE('',*,*,#657,.T.);
#955 = ORIENTED_EDGE('',*,*,#729,.T.);
#956 = PLANE('',#957);
#957 = AXIS2_PLACEMENT_3D('',#958,#959,#960);
#958 = CARTESIAN_POINT('',(-68.53135182759,-5.737258300206,118.));
#959 = DIRECTION('',(0.,1.,0.));
#960 = DIRECTION('',(-1.,0.,1.454326758145E-15));
#961 = ADVANCED_FACE('',(#962),#970,.F.);
#962 = FACE_BOUND('',#963,.F.);
#963 = EDGE_LOOP('',(#964,#965,#966,#967,#968,#969));
#964 = ORIENTED_EDGE('',*,*,#862,.F.);
#965 = ORIENTED_EDGE('',*,*,#893,.F.);
#966 = ORIENTED_EDGE('',*,*,#703,.F.);
#967 = ORIENTED_EDGE('',*,*,#695,.F.);
#968 = ORIENTED_EDGE('',*,*,#936,.T.);
#969 = ORIENTED_EDGE('',*,*,#910,.T.);
#970 = PLANE('',#971);
#971 = AXIS2_PLACEMENT_3D('',#972,#973,#974);
#972 = CARTESIAN_POINT('',(-68.53135182759,-49.73725830027,118.));
#973 = DIRECTION('',(0.,-1.,0.));
#974 = DIRECTION('',(1.,0.,-1.454326758145E-15));
#975 = ( GEOMETRIC_REPRESENTATION_CONTEXT(3) 
GLOBAL_UNCERTAINTY_ASSIGNED_CONTEXT((#979)) GLOBAL_UNIT_ASSIGNED_CONTEXT
((#976,#977,#978)) REPRESENTATION_CONTEXT('Context #1',
  '3D Context with UNIT and UNCERTAINTY') );
#976 = ( LENGTH_UNIT() NAMED_UNIT(*) SI_UNIT(.MILLI.,.METRE.) );
#977 = ( NAMED_UNIT(*) PLANE_ANGLE_UNIT() SI_UNIT($,.RADIAN.) );
#978 = ( NAMED_UNIT(*) SI_UNIT($,.STERADIAN.) SOLID_ANGLE_UNIT() );
#979 = UNCERTAINTY_MEASURE_WITH_UNIT(LENGTH_MEASURE(1.E-06),#976,
  'distance_accuracy_value','confusion accuracy');
#980 = PRODUCT_RELATED_PRODUCT_CATEGORY('part',$,(#7));
#981 = MECHANICAL_DESIGN_GEOMETRIC_PRESENTATION_REPRESENTATION('',(#982)
  ,#975);
#982 = STYLED_ITEM('color',(#983),#15);
#983 = PRESENTATION_STYLE_ASSIGNMENT((#984,#990));
#984 = SURFACE_STYLE_USAGE(.BOTH.,#985);
#985 = SURFACE_SIDE_STYLE('',(#986));
#986 = SURFACE_STYLE_FILL_AREA(#987);
#987 = FILL_AREA_STYLE('',(#988));
#988 = FILL_AREA_STYLE_COLOUR('',#989);
#989 = COLOUR_RGB('',0.447058818107,0.474509808674,0.501960817233);
#990 = CURVE_STYLE('',#991,POSITIVE_LENGTH_MEASURE(0.1),#992);
#991 = DRAUGHTING_PRE_DEFINED_CURVE_FONT('continuous');
#992 = COLOUR_RGB('',9.803921802644E-02,9.803921802644E-02,
  9.803921802644E-02);
ENDSEC;
END-ISO-10303-21;
