ISO-10303-21;
HEADER;
FILE_DESCRIPTION(('FreeCAD Model'),'2;1');
FILE_NAME('Open CASCADE Shape Model','2026-01-19T09:56:57',(''),(''),
  'Open CASCADE STEP processor 7.8','FreeCAD','Unknown');
FILE_SCHEMA(('AUTOMOTIVE_DESIGN { 1 0 10303 214 1 1 1 1 }'));
ENDSEC;
DATA;
#1 = APPLICATION_PROTOCOL_DEFINITION('international standard',
  'automotive_design',2000,#2);
#2 = APPLICATION_CONTEXT(
  'core data for automotive mechanical design processes');
#3 = SHAPE_DEFINITION_REPRESENTATION(#4,#10);
#4 = PRODUCT_DEFINITION_SHAPE('','',#5);
#5 = PRODUCT_DEFINITION('design','',#6,#9);
#6 = PRODUCT_DEFINITION_FORMATION('','',#7);
#7 = PRODUCT('photodiode_holder','photodiode_holder','',(#8));
#8 = PRODUCT_CONTEXT('',#2,'mechanical');
#9 = PRODUCT_DEFINITION_CONTEXT('part definition',#2,'design');
#10 = ADVANCED_BREP_SHAPE_REPRESENTATION('',(#11,#15),#841);
#11 = AXIS2_PLACEMENT_3D('',#12,#13,#14);
#12 = CARTESIAN_POINT('',(0.,0.,0.));
#13 = DIRECTION('',(0.,0.,1.));
#14 = DIRECTION('',(1.,0.,-0.));
#15 = MANIFOLD_SOLID_BREP('',#16);
#16 = CLOSED_SHELL('',(#17,#57,#90,#123,#156,#180,#236,#269,#300,#347,
    #380,#427,#458,#491,#554,#587,#618,#642,#659,#685,#703,#715,#746,
    #770,#794,#811));
#17 = ADVANCED_FACE('',(#18),#52,.F.);
#18 = FACE_BOUND('',#19,.F.);
#19 = EDGE_LOOP('',(#20,#30,#38,#46));
#20 = ORIENTED_EDGE('',*,*,#21,.T.);
#21 = EDGE_CURVE('',#22,#24,#26,.T.);
#22 = VERTEX_POINT('',#23);
#23 = CARTESIAN_POINT('',(27.314213562365,0.560449153826,30.4));
#24 = VERTEX_POINT('',#25);
#25 = CARTESIAN_POINT('',(27.314213562365,-0.560449153759,30.4));
#26 = LINE('',#27,#28);
#27 = CARTESIAN_POINT('',(27.314213562365,1.560449153826,30.4));
#28 = VECTOR('',#29,1.);
#29 = DIRECTION('',(6.830175152134E-15,-1.,0.));
#30 = ORIENTED_EDGE('',*,*,#31,.T.);
#31 = EDGE_CURVE('',#24,#32,#34,.T.);
#32 = VERTEX_POINT('',#33);
#33 = CARTESIAN_POINT('',(32.314213562349,-0.560449153759,30.4));
#34 = LINE('',#35,#36);
#35 = CARTESIAN_POINT('',(27.314213562365,-0.560449153759,30.4));
#36 = VECTOR('',#37,1.);
#37 = DIRECTION('',(1.,0.,0.));
#38 = ORIENTED_EDGE('',*,*,#39,.T.);
#39 = EDGE_CURVE('',#32,#40,#42,.T.);
#40 = VERTEX_POINT('',#41);
#41 = CARTESIAN_POINT('',(32.314213562349,0.560449153826,30.4));
#42 = LINE('',#43,#44);
#43 = CARTESIAN_POINT('',(32.314213562349,-1.560449153759,30.4));
#44 = VECTOR('',#45,1.);
#45 = DIRECTION('',(0.,1.,0.));
#46 = ORIENTED_EDGE('',*,*,#47,.T.);
#47 = EDGE_CURVE('',#40,#22,#48,.T.);
#48 = LINE('',#49,#50);
#49 = CARTESIAN_POINT('',(32.314213562349,0.560449153826,30.4));
#50 = VECTOR('',#51,1.);
#51 = DIRECTION('',(-1.,0.,0.));
#52 = PLANE('',#53);
#53 = AXIS2_PLACEMENT_3D('',#54,#55,#56);
#54 = CARTESIAN_POINT('',(29.814213562357,3.36516216755E-11,30.4));
#55 = DIRECTION('',(0.,0.,1.));
#56 = DIRECTION('',(1.,0.,0.));
#57 = ADVANCED_FACE('',(#58),#85,.T.);
#58 = FACE_BOUND('',#59,.F.);
#59 = EDGE_LOOP('',(#60,#69,#77,#84));
#60 = ORIENTED_EDGE('',*,*,#61,.T.);
#61 = EDGE_CURVE('',#40,#62,#64,.T.);
#62 = VERTEX_POINT('',#63);
#63 = CARTESIAN_POINT('',(32.314213562349,1.560449153826,31.4));
#64 = CIRCLE('',#65,1.);
#65 = AXIS2_PLACEMENT_3D('',#66,#67,#68);
#66 = CARTESIAN_POINT('',(32.314213562349,0.560449153826,31.4));
#67 = DIRECTION('',(1.,-0.,0.));
#68 = DIRECTION('',(0.,0.,-1.));
#69 = ORIENTED_EDGE('',*,*,#70,.T.);
#70 = EDGE_CURVE('',#62,#71,#73,.T.);
#71 = VERTEX_POINT('',#72);
#72 = CARTESIAN_POINT('',(27.314213562365,1.560449153826,31.4));
#73 = LINE('',#74,#75);
#74 = CARTESIAN_POINT('',(32.314213562349,1.560449153826,31.4));
#75 = VECTOR('',#76,1.);
#76 = DIRECTION('',(-1.,0.,0.));
#77 = ORIENTED_EDGE('',*,*,#78,.F.);
#78 = EDGE_CURVE('',#22,#71,#79,.T.);
#79 = CIRCLE('',#80,1.);
#80 = AXIS2_PLACEMENT_3D('',#81,#82,#83);
#81 = CARTESIAN_POINT('',(27.314213562365,0.560449153826,31.4));
#82 = DIRECTION('',(1.,-0.,0.));
#83 = DIRECTION('',(0.,0.,-1.));
#84 = ORIENTED_EDGE('',*,*,#47,.F.);
#85 = CYLINDRICAL_SURFACE('',#86,1.);
#86 = AXIS2_PLACEMENT_3D('',#87,#88,#89);
#87 = CARTESIAN_POINT('',(32.314213562349,0.560449153826,31.4));
#88 = DIRECTION('',(-1.,0.,0.));
#89 = DIRECTION('',(0.,0.,-1.));
#90 = ADVANCED_FACE('',(#91),#118,.T.);
#91 = FACE_BOUND('',#92,.F.);
#92 = EDGE_LOOP('',(#93,#102,#110,#117));
#93 = ORIENTED_EDGE('',*,*,#94,.T.);
#94 = EDGE_CURVE('',#24,#95,#97,.T.);
#95 = VERTEX_POINT('',#96);
#96 = CARTESIAN_POINT('',(27.314213562365,-1.560449153759,31.4));
#97 = CIRCLE('',#98,1.);
#98 = AXIS2_PLACEMENT_3D('',#99,#100,#101);
#99 = CARTESIAN_POINT('',(27.314213562365,-0.560449153759,31.4));
#100 = DIRECTION('',(-1.,0.,0.));
#101 = DIRECTION('',(0.,0.,1.));
#102 = ORIENTED_EDGE('',*,*,#103,.T.);
#103 = EDGE_CURVE('',#95,#104,#106,.T.);
#104 = VERTEX_POINT('',#105);
#105 = CARTESIAN_POINT('',(32.314213562349,-1.560449153759,31.4));
#106 = LINE('',#107,#108);
#107 = CARTESIAN_POINT('',(27.314213562365,-1.560449153759,31.4));
#108 = VECTOR('',#109,1.);
#109 = DIRECTION('',(1.,0.,0.));
#110 = ORIENTED_EDGE('',*,*,#111,.F.);
#111 = EDGE_CURVE('',#32,#104,#112,.T.);
#112 = CIRCLE('',#113,1.);
#113 = AXIS2_PLACEMENT_3D('',#114,#115,#116);
#114 = CARTESIAN_POINT('',(32.314213562349,-0.560449153759,31.4));
#115 = DIRECTION('',(-1.,0.,0.));
#116 = DIRECTION('',(0.,0.,1.));
#117 = ORIENTED_EDGE('',*,*,#31,.F.);
#118 = CYLINDRICAL_SURFACE('',#119,1.);
#119 = AXIS2_PLACEMENT_3D('',#120,#121,#122);
#120 = CARTESIAN_POINT('',(27.314213562365,-0.560449153759,31.4));
#121 = DIRECTION('',(1.,0.,0.));
#122 = DIRECTION('',(0.,0.,-1.));
#123 = ADVANCED_FACE('',(#124),#151,.F.);
#124 = FACE_BOUND('',#125,.F.);
#125 = EDGE_LOOP('',(#126,#127,#128,#136,#144,#150));
#126 = ORIENTED_EDGE('',*,*,#39,.F.);
#127 = ORIENTED_EDGE('',*,*,#111,.T.);
#128 = ORIENTED_EDGE('',*,*,#129,.T.);
#129 = EDGE_CURVE('',#104,#130,#132,.T.);
#130 = VERTEX_POINT('',#131);
#131 = CARTESIAN_POINT('',(32.314213562349,-1.560449153759,34.4));
#132 = LINE('',#133,#134);
#133 = CARTESIAN_POINT('',(32.314213562349,-1.560449153759,30.4));
#134 = VECTOR('',#135,1.);
#135 = DIRECTION('',(0.,0.,1.));
#136 = ORIENTED_EDGE('',*,*,#137,.T.);
#137 = EDGE_CURVE('',#130,#138,#140,.T.);
#138 = VERTEX_POINT('',#139);
#139 = CARTESIAN_POINT('',(32.314213562349,1.560449153826,34.4));
#140 = LINE('',#141,#142);
#141 = CARTESIAN_POINT('',(32.314213562349,-0.780224576879,34.4));
#142 = VECTOR('',#143,1.);
#143 = DIRECTION('',(0.,1.,0.));
#144 = ORIENTED_EDGE('',*,*,#145,.F.);
#145 = EDGE_CURVE('',#62,#138,#146,.T.);
#146 = LINE('',#147,#148);
#147 = CARTESIAN_POINT('',(32.314213562349,1.560449153826,30.4));
#148 = VECTOR('',#149,1.);
#149 = DIRECTION('',(0.,0.,1.));
#150 = ORIENTED_EDGE('',*,*,#61,.F.);
#151 = PLANE('',#152);
#152 = AXIS2_PLACEMENT_3D('',#153,#154,#155);
#153 = CARTESIAN_POINT('',(32.314213562349,-1.560449153759,30.4));
#154 = DIRECTION('',(-1.,0.,0.));
#155 = DIRECTION('',(0.,1.,0.));
#156 = ADVANCED_FACE('',(#157),#175,.F.);
#157 = FACE_BOUND('',#158,.F.);
#158 = EDGE_LOOP('',(#159,#167,#168,#169));
#159 = ORIENTED_EDGE('',*,*,#160,.F.);
#160 = EDGE_CURVE('',#71,#161,#163,.T.);
#161 = VERTEX_POINT('',#162);
#162 = CARTESIAN_POINT('',(27.314213562365,1.560449153826,34.4));
#163 = LINE('',#164,#165);
#164 = CARTESIAN_POINT('',(27.314213562365,1.560449153826,30.4));
#165 = VECTOR('',#166,1.);
#166 = DIRECTION('',(0.,0.,1.));
#167 = ORIENTED_EDGE('',*,*,#70,.F.);
#168 = ORIENTED_EDGE('',*,*,#145,.T.);
#169 = ORIENTED_EDGE('',*,*,#170,.T.);
#170 = EDGE_CURVE('',#138,#161,#171,.T.);
#171 = LINE('',#172,#173);
#172 = CARTESIAN_POINT('',(30.822437781176,1.560449153826,34.4));
#173 = VECTOR('',#174,1.);
#174 = DIRECTION('',(-1.,0.,6.026148958591E-16));
#175 = PLANE('',#176);
#176 = AXIS2_PLACEMENT_3D('',#177,#178,#179);
#177 = CARTESIAN_POINT('',(32.314213562349,1.560449153826,30.4));
#178 = DIRECTION('',(-0.,-1.,-0.));
#179 = DIRECTION('',(-1.,0.,0.));
#180 = ADVANCED_FACE('',(#181),#231,.F.);
#181 = FACE_BOUND('',#182,.F.);
#182 = EDGE_LOOP('',(#183,#193,#201,#207,#208,#209,#217,#225));
#183 = ORIENTED_EDGE('',*,*,#184,.T.);
#184 = EDGE_CURVE('',#185,#187,#189,.T.);
#185 = VERTEX_POINT('',#186);
#186 = CARTESIAN_POINT('',(35.314213562365,-1.999999999999,34.4));
#187 = VERTEX_POINT('',#188);
#188 = CARTESIAN_POINT('',(35.314213562365,2.000000000001,34.4));
#189 = LINE('',#190,#191);
#190 = CARTESIAN_POINT('',(35.314213562365,-2.999999999999,34.4));
#191 = VECTOR('',#192,1.);
#192 = DIRECTION('',(0.,1.,0.));
#193 = ORIENTED_EDGE('',*,*,#194,.T.);
#194 = EDGE_CURVE('',#187,#195,#197,.T.);
#195 = VERTEX_POINT('',#196);
#196 = CARTESIAN_POINT('',(27.314213562365,2.000000000001,34.4));
#197 = LINE('',#198,#199);
#198 = CARTESIAN_POINT('',(35.314213562365,2.000000000001,34.4));
#199 = VECTOR('',#200,1.);
#200 = DIRECTION('',(-1.,0.,0.));
#201 = ORIENTED_EDGE('',*,*,#202,.T.);
#202 = EDGE_CURVE('',#195,#161,#203,.T.);
#203 = LINE('',#204,#205);
#204 = CARTESIAN_POINT('',(27.314213562365,3.000000000001,34.4));
#205 = VECTOR('',#206,1.);
#206 = DIRECTION('',(0.,-1.,0.));
#207 = ORIENTED_EDGE('',*,*,#170,.F.);
#208 = ORIENTED_EDGE('',*,*,#137,.F.);
#209 = ORIENTED_EDGE('',*,*,#210,.F.);
#210 = EDGE_CURVE('',#211,#130,#213,.T.);
#211 = VERTEX_POINT('',#212);
#212 = CARTESIAN_POINT('',(27.314213562365,-1.560449153759,34.4));
#213 = LINE('',#214,#215);
#214 = CARTESIAN_POINT('',(28.322437781185,-1.560449153759,34.4));
#215 = VECTOR('',#216,1.);
#216 = DIRECTION('',(1.,0.,-6.026148958591E-16));
#217 = ORIENTED_EDGE('',*,*,#218,.T.);
#218 = EDGE_CURVE('',#211,#219,#221,.T.);
#219 = VERTEX_POINT('',#220);
#220 = CARTESIAN_POINT('',(27.314213562365,-1.999999999999,34.4));
#221 = LINE('',#222,#223);
#222 = CARTESIAN_POINT('',(27.314213562365,3.000000000001,34.4));
#223 = VECTOR('',#224,1.);
#224 = DIRECTION('',(0.,-1.,0.));
#225 = ORIENTED_EDGE('',*,*,#226,.T.);
#226 = EDGE_CURVE('',#219,#185,#227,.T.);
#227 = LINE('',#228,#229);
#228 = CARTESIAN_POINT('',(27.314213562365,-1.999999999999,34.4));
#229 = VECTOR('',#230,1.);
#230 = DIRECTION('',(1.,0.,0.));
#231 = PLANE('',#232);
#232 = AXIS2_PLACEMENT_3D('',#233,#234,#235);
#233 = CARTESIAN_POINT('',(31.314213562365,8.69399790255E-13,34.4));
#234 = DIRECTION('',(0.,0.,1.));
#235 = DIRECTION('',(1.,0.,0.));
#236 = ADVANCED_FACE('',(#237),#264,.T.);
#237 = FACE_BOUND('',#238,.F.);
#238 = EDGE_LOOP('',(#239,#248,#256,#263));
#239 = ORIENTED_EDGE('',*,*,#240,.T.);
#240 = EDGE_CURVE('',#187,#241,#243,.T.);
#241 = VERTEX_POINT('',#242);
#242 = CARTESIAN_POINT('',(35.314213562365,3.000000000001,35.4));
#243 = CIRCLE('',#244,1.);
#244 = AXIS2_PLACEMENT_3D('',#245,#246,#247);
#245 = CARTESIAN_POINT('',(35.314213562365,2.000000000001,35.4));
#246 = DIRECTION('',(1.,-0.,0.));
#247 = DIRECTION('',(0.,0.,-1.));
#248 = ORIENTED_EDGE('',*,*,#249,.T.);
#249 = EDGE_CURVE('',#241,#250,#252,.T.);
#250 = VERTEX_POINT('',#251);
#251 = CARTESIAN_POINT('',(27.314213562365,3.000000000001,35.4));
#252 = LINE('',#253,#254);
#253 = CARTESIAN_POINT('',(35.314213562365,3.000000000001,35.4));
#254 = VECTOR('',#255,1.);
#255 = DIRECTION('',(-1.,0.,0.));
#256 = ORIENTED_EDGE('',*,*,#257,.F.);
#257 = EDGE_CURVE('',#195,#250,#258,.T.);
#258 = CIRCLE('',#259,1.);
#259 = AXIS2_PLACEMENT_3D('',#260,#261,#262);
#260 = CARTESIAN_POINT('',(27.314213562365,2.000000000001,35.4));
#261 = DIRECTION('',(1.,-0.,0.));
#262 = DIRECTION('',(0.,0.,-1.));
#263 = ORIENTED_EDGE('',*,*,#194,.F.);
#264 = CYLINDRICAL_SURFACE('',#265,1.);
#265 = AXIS2_PLACEMENT_3D('',#266,#267,#268);
#266 = CARTESIAN_POINT('',(35.314213562365,2.000000000001,35.4));
#267 = DIRECTION('',(-1.,0.,0.));
#268 = DIRECTION('',(0.,0.,-1.));
#269 = ADVANCED_FACE('',(#270),#295,.F.);
#270 = FACE_BOUND('',#271,.F.);
#271 = EDGE_LOOP('',(#272,#273,#281,#289));
#272 = ORIENTED_EDGE('',*,*,#249,.F.);
#273 = ORIENTED_EDGE('',*,*,#274,.T.);
#274 = EDGE_CURVE('',#241,#275,#277,.T.);
#275 = VERTEX_POINT('',#276);
#276 = CARTESIAN_POINT('',(35.314213562365,3.000000000001,36.9));
#277 = LINE('',#278,#279);
#278 = CARTESIAN_POINT('',(35.314213562365,3.000000000001,34.4));
#279 = VECTOR('',#280,1.);
#280 = DIRECTION('',(0.,0.,1.));
#281 = ORIENTED_EDGE('',*,*,#282,.F.);
#282 = EDGE_CURVE('',#283,#275,#285,.T.);
#283 = VERTEX_POINT('',#284);
#284 = CARTESIAN_POINT('',(27.314213562365,3.000000000001,36.9));
#285 = LINE('',#286,#287);
#286 = CARTESIAN_POINT('',(35.314213562365,3.000000000001,36.9));
#287 = VECTOR('',#288,1.);
#288 = DIRECTION('',(1.,0.,0.));
#289 = ORIENTED_EDGE('',*,*,#290,.F.);
#290 = EDGE_CURVE('',#250,#283,#291,.T.);
#291 = LINE('',#292,#293);
#292 = CARTESIAN_POINT('',(27.314213562365,3.000000000001,34.4));
#293 = VECTOR('',#294,1.);
#294 = DIRECTION('',(0.,0.,1.));
#295 = PLANE('',#296);
#296 = AXIS2_PLACEMENT_3D('',#297,#298,#299);
#297 = CARTESIAN_POINT('',(35.314213562365,3.000000000001,34.4));
#298 = DIRECTION('',(0.,-1.,0.));
#299 = DIRECTION('',(-1.,0.,0.));
#300 = ADVANCED_FACE('',(#301),#342,.F.);
#301 = FACE_BOUND('',#302,.F.);
#302 = EDGE_LOOP('',(#303,#311,#319,#327,#335,#341));
#303 = ORIENTED_EDGE('',*,*,#304,.F.);
#304 = EDGE_CURVE('',#305,#275,#307,.T.);
#305 = VERTEX_POINT('',#306);
#306 = CARTESIAN_POINT('',(35.314213562365,2.722131517783,36.9));
#307 = LINE('',#308,#309);
#308 = CARTESIAN_POINT('',(35.314213562365,1.813965582686,36.9));
#309 = VECTOR('',#310,1.);
#310 = DIRECTION('',(0.,1.,0.));
#311 = ORIENTED_EDGE('',*,*,#312,.F.);
#312 = EDGE_CURVE('',#313,#305,#315,.T.);
#313 = VERTEX_POINT('',#314);
#314 = CARTESIAN_POINT('',(33.314213562365,2.722131517783,36.9));
#315 = LINE('',#316,#317);
#316 = CARTESIAN_POINT('',(35.314213562365,2.722131517783,36.9));
#317 = VECTOR('',#318,1.);
#318 = DIRECTION('',(1.,0.,0.));
#319 = ORIENTED_EDGE('',*,*,#320,.F.);
#320 = EDGE_CURVE('',#321,#313,#323,.T.);
#321 = VERTEX_POINT('',#322);
#322 = CARTESIAN_POINT('',(33.314213562365,2.291287847478,36.9));
#323 = LINE('',#324,#325);
#324 = CARTESIAN_POINT('',(33.314213562365,0.906982791353,36.9));
#325 = VECTOR('',#326,1.);
#326 = DIRECTION('',(0.,1.,0.));
#327 = ORIENTED_EDGE('',*,*,#328,.F.);
#328 = EDGE_CURVE('',#329,#321,#331,.T.);
#329 = VERTEX_POINT('',#330);
#330 = CARTESIAN_POINT('',(27.314213562365,2.291287847478,36.9));
#331 = LINE('',#332,#333);
#332 = CARTESIAN_POINT('',(33.314213562365,2.291287847478,36.9));
#333 = VECTOR('',#334,1.);
#334 = DIRECTION('',(1.,0.,0.));
#335 = ORIENTED_EDGE('',*,*,#336,.F.);
#336 = EDGE_CURVE('',#283,#329,#337,.T.);
#337 = LINE('',#338,#339);
#338 = CARTESIAN_POINT('',(27.314213562365,0.906982791347,36.9));
#339 = VECTOR('',#340,1.);
#340 = DIRECTION('',(8.27397880939E-16,-1.,0.));
#341 = ORIENTED_EDGE('',*,*,#282,.T.);
#342 = PLANE('',#343);
#343 = AXIS2_PLACEMENT_3D('',#344,#345,#346);
#344 = CARTESIAN_POINT('',(35.314213562365,1.813965582686,36.9));
#345 = DIRECTION('',(0.,0.,-1.));
#346 = DIRECTION('',(0.,1.,0.));
#347 = ADVANCED_FACE('',(#348),#375,.F.);
#348 = FACE_BOUND('',#349,.F.);
#349 = EDGE_LOOP('',(#350,#359,#367,#374));
#350 = ORIENTED_EDGE('',*,*,#351,.F.);
#351 = EDGE_CURVE('',#352,#321,#354,.T.);
#352 = VERTEX_POINT('',#353);
#353 = CARTESIAN_POINT('',(33.314213562365,2.291287847478,38.9));
#354 = CIRCLE('',#355,2.5);
#355 = AXIS2_PLACEMENT_3D('',#356,#357,#358);
#356 = CARTESIAN_POINT('',(33.314213562365,0.,37.9));
#357 = DIRECTION('',(1.,0.,0.));
#358 = DIRECTION('',(0.,1.,0.));
#359 = ORIENTED_EDGE('',*,*,#360,.F.);
#360 = EDGE_CURVE('',#361,#352,#363,.T.);
#361 = VERTEX_POINT('',#362);
#362 = CARTESIAN_POINT('',(27.314213562365,2.291287847478,38.9));
#363 = LINE('',#364,#365);
#364 = CARTESIAN_POINT('',(33.314213562365,2.291287847478,38.9));
#365 = VECTOR('',#366,1.);
#366 = DIRECTION('',(1.,0.,0.));
#367 = ORIENTED_EDGE('',*,*,#368,.T.);
#368 = EDGE_CURVE('',#361,#329,#369,.T.);
#369 = CIRCLE('',#370,2.5);
#370 = AXIS2_PLACEMENT_3D('',#371,#372,#373);
#371 = CARTESIAN_POINT('',(27.314213562365,0.,37.9));
#372 = DIRECTION('',(1.,0.,0.));
#373 = DIRECTION('',(0.,1.,0.));
#374 = ORIENTED_EDGE('',*,*,#328,.T.);
#375 = CYLINDRICAL_SURFACE('',#376,2.5);
#376 = AXIS2_PLACEMENT_3D('',#377,#378,#379);
#377 = CARTESIAN_POINT('',(33.314213562365,0.,37.9));
#378 = DIRECTION('',(1.,0.,0.));
#379 = DIRECTION('',(0.,1.,0.));
#380 = ADVANCED_FACE('',(#381),#422,.F.);
#381 = FACE_BOUND('',#382,.F.);
#382 = EDGE_LOOP('',(#383,#393,#401,#407,#408,#416));
#383 = ORIENTED_EDGE('',*,*,#384,.F.);
#384 = EDGE_CURVE('',#385,#387,#389,.T.);
#385 = VERTEX_POINT('',#386);
#386 = CARTESIAN_POINT('',(35.314213562365,3.000000000001,38.9));
#387 = VERTEX_POINT('',#388);
#388 = CARTESIAN_POINT('',(35.314213562365,2.722131517783,38.9));
#389 = LINE('',#390,#391);
#390 = CARTESIAN_POINT('',(35.314213562365,4.186034417354,38.9));
#391 = VECTOR('',#392,1.);
#392 = DIRECTION('',(0.,-1.,0.));
#393 = ORIENTED_EDGE('',*,*,#394,.T.);
#394 = EDGE_CURVE('',#385,#395,#397,.T.);
#395 = VERTEX_POINT('',#396);
#396 = CARTESIAN_POINT('',(27.314213562365,3.000000000001,38.9));
#397 = LINE('',#398,#399);
#398 = CARTESIAN_POINT('',(35.314213562365,3.000000000001,38.9));
#399 = VECTOR('',#400,1.);
#400 = DIRECTION('',(-1.,0.,0.));
#401 = ORIENTED_EDGE('',*,*,#402,.F.);
#402 = EDGE_CURVE('',#361,#395,#403,.T.);
#403 = LINE('',#404,#405);
#404 = CARTESIAN_POINT('',(27.314213562365,2.093017208681,38.9));
#405 = VECTOR('',#406,1.);
#406 = DIRECTION('',(-8.27397880939E-16,1.,0.));
#407 = ORIENTED_EDGE('',*,*,#360,.T.);
#408 = ORIENTED_EDGE('',*,*,#409,.F.);
#409 = EDGE_CURVE('',#410,#352,#412,.T.);
#410 = VERTEX_POINT('',#411);
#411 = CARTESIAN_POINT('',(33.314213562365,2.722131517783,38.9));
#412 = LINE('',#413,#414);
#413 = CARTESIAN_POINT('',(33.314213562365,2.093017208687,38.9));
#414 = VECTOR('',#415,1.);
#415 = DIRECTION('',(0.,-1.,0.));
#416 = ORIENTED_EDGE('',*,*,#417,.T.);
#417 = EDGE_CURVE('',#410,#387,#418,.T.);
#418 = LINE('',#419,#420);
#419 = CARTESIAN_POINT('',(35.314213562365,2.722131517783,38.9));
#420 = VECTOR('',#421,1.);
#421 = DIRECTION('',(1.,0.,0.));
#422 = PLANE('',#423);
#423 = AXIS2_PLACEMENT_3D('',#424,#425,#426);
#424 = CARTESIAN_POINT('',(35.314213562365,4.186034417354,38.9));
#425 = DIRECTION('',(0.,0.,1.));
#426 = DIRECTION('',(0.,-1.,0.));
#427 = ADVANCED_FACE('',(#428),#453,.F.);
#428 = FACE_BOUND('',#429,.F.);
#429 = EDGE_LOOP('',(#430,#431,#439,#447));
#430 = ORIENTED_EDGE('',*,*,#394,.F.);
#431 = ORIENTED_EDGE('',*,*,#432,.T.);
#432 = EDGE_CURVE('',#385,#433,#435,.T.);
#433 = VERTEX_POINT('',#434);
#434 = CARTESIAN_POINT('',(35.314213562365,3.000000000001,40.4));
#435 = LINE('',#436,#437);
#436 = CARTESIAN_POINT('',(35.314213562365,3.000000000001,34.4));
#437 = VECTOR('',#438,1.);
#438 = DIRECTION('',(0.,0.,1.));
#439 = ORIENTED_EDGE('',*,*,#440,.T.);
#440 = EDGE_CURVE('',#433,#441,#443,.T.);
#441 = VERTEX_POINT('',#442);
#442 = CARTESIAN_POINT('',(27.314213562365,3.000000000001,40.4));
#443 = LINE('',#444,#445);
#444 = CARTESIAN_POINT('',(35.314213562365,3.000000000001,40.4));
#445 = VECTOR('',#446,1.);
#446 = DIRECTION('',(-1.,0.,0.));
#447 = ORIENTED_EDGE('',*,*,#448,.F.);
#448 = EDGE_CURVE('',#395,#441,#449,.T.);
#449 = LINE('',#450,#451);
#450 = CARTESIAN_POINT('',(27.314213562365,3.000000000001,34.4));
#451 = VECTOR('',#452,1.);
#452 = DIRECTION('',(0.,0.,1.));
#453 = PLANE('',#454);
#454 = AXIS2_PLACEMENT_3D('',#455,#456,#457);
#455 = CARTESIAN_POINT('',(35.314213562365,3.000000000001,34.4));
#456 = DIRECTION('',(0.,-1.,0.));
#457 = DIRECTION('',(-1.,0.,0.));
#458 = ADVANCED_FACE('',(#459),#486,.T.);
#459 = FACE_BOUND('',#460,.F.);
#460 = EDGE_LOOP('',(#461,#470,#478,#485));
#461 = ORIENTED_EDGE('',*,*,#462,.T.);
#462 = EDGE_CURVE('',#433,#463,#465,.T.);
#463 = VERTEX_POINT('',#464);
#464 = CARTESIAN_POINT('',(35.314213562365,2.000000000001,41.4));
#465 = CIRCLE('',#466,1.);
#466 = AXIS2_PLACEMENT_3D('',#467,#468,#469);
#467 = CARTESIAN_POINT('',(35.314213562365,2.000000000001,40.4));
#468 = DIRECTION('',(1.,-0.,0.));
#469 = DIRECTION('',(0.,0.,-1.));
#470 = ORIENTED_EDGE('',*,*,#471,.T.);
#471 = EDGE_CURVE('',#463,#472,#474,.T.);
#472 = VERTEX_POINT('',#473);
#473 = CARTESIAN_POINT('',(27.314213562365,2.000000000001,41.4));
#474 = LINE('',#475,#476);
#475 = CARTESIAN_POINT('',(35.314213562365,2.000000000001,41.4));
#476 = VECTOR('',#477,1.);
#477 = DIRECTION('',(-1.,0.,0.));
#478 = ORIENTED_EDGE('',*,*,#479,.F.);
#479 = EDGE_CURVE('',#441,#472,#480,.T.);
#480 = CIRCLE('',#481,1.);
#481 = AXIS2_PLACEMENT_3D('',#482,#483,#484);
#482 = CARTESIAN_POINT('',(27.314213562365,2.000000000001,40.4));
#483 = DIRECTION('',(1.,-0.,0.));
#484 = DIRECTION('',(0.,0.,-1.));
#485 = ORIENTED_EDGE('',*,*,#440,.F.);
#486 = CYLINDRICAL_SURFACE('',#487,1.);
#487 = AXIS2_PLACEMENT_3D('',#488,#489,#490);
#488 = CARTESIAN_POINT('',(35.314213562365,2.000000000001,40.4));
#489 = DIRECTION('',(-1.,0.,0.));
#490 = DIRECTION('',(0.,1.,0.));
#491 = ADVANCED_FACE('',(#492),#549,.T.);
#492 = FACE_BOUND('',#493,.T.);
#493 = EDGE_LOOP('',(#494,#495,#503,#511,#519,#527,#535,#543));
#494 = ORIENTED_EDGE('',*,*,#471,.T.);
#495 = ORIENTED_EDGE('',*,*,#496,.T.);
#496 = EDGE_CURVE('',#472,#497,#499,.T.);
#497 = VERTEX_POINT('',#498);
#498 = CARTESIAN_POINT('',(27.314213562365,0.500000000031,41.4));
#499 = LINE('',#500,#501);
#500 = CARTESIAN_POINT('',(27.314213562365,3.000000000001,41.4));
#501 = VECTOR('',#502,1.);
#502 = DIRECTION('',(0.,-1.,0.));
#503 = ORIENTED_EDGE('',*,*,#504,.T.);
#504 = EDGE_CURVE('',#497,#505,#507,.T.);
#505 = VERTEX_POINT('',#506);
#506 = CARTESIAN_POINT('',(28.314213562365,0.500000000031,41.4));
#507 = LINE('',#508,#509);
#508 = CARTESIAN_POINT('',(27.314213562365,0.500000000031,41.4));
#509 = VECTOR('',#510,1.);
#510 = DIRECTION('',(1.,0.,0.));
#511 = ORIENTED_EDGE('',*,*,#512,.T.);
#512 = EDGE_CURVE('',#505,#513,#515,.T.);
#513 = VERTEX_POINT('',#514);
#514 = CARTESIAN_POINT('',(28.314213562365,-0.499999999969,41.4));
#515 = LINE('',#516,#517);
#516 = CARTESIAN_POINT('',(28.314213562365,0.500000000031,41.4));
#517 = VECTOR('',#518,1.);
#518 = DIRECTION('',(0.,-1.,0.));
#519 = ORIENTED_EDGE('',*,*,#520,.T.);
#520 = EDGE_CURVE('',#513,#521,#523,.T.);
#521 = VERTEX_POINT('',#522);
#522 = CARTESIAN_POINT('',(27.314213562365,-0.499999999969,41.4));
#523 = LINE('',#524,#525);
#524 = CARTESIAN_POINT('',(28.314213562365,-0.499999999969,41.4));
#525 = VECTOR('',#526,1.);
#526 = DIRECTION('',(-1.,0.,0.));
#527 = ORIENTED_EDGE('',*,*,#528,.T.);
#528 = EDGE_CURVE('',#521,#529,#531,.T.);
#529 = VERTEX_POINT('',#530);
#530 = CARTESIAN_POINT('',(27.314213562365,-1.999999999999,41.4));
#531 = LINE('',#532,#533);
#532 = CARTESIAN_POINT('',(27.314213562365,3.000000000001,41.4));
#533 = VECTOR('',#534,1.);
#534 = DIRECTION('',(0.,-1.,0.));
#535 = ORIENTED_EDGE('',*,*,#536,.T.);
#536 = EDGE_CURVE('',#529,#537,#539,.T.);
#537 = VERTEX_POINT('',#538);
#538 = CARTESIAN_POINT('',(35.314213562365,-1.999999999999,41.4));
#539 = LINE('',#540,#541);
#540 = CARTESIAN_POINT('',(27.314213562365,-1.999999999999,41.4));
#541 = VECTOR('',#542,1.);
#542 = DIRECTION('',(1.,0.,0.));
#543 = ORIENTED_EDGE('',*,*,#544,.T.);
#544 = EDGE_CURVE('',#537,#463,#545,.T.);
#545 = LINE('',#546,#547);
#546 = CARTESIAN_POINT('',(35.314213562365,-2.999999999999,41.4));
#547 = VECTOR('',#548,1.);
#548 = DIRECTION('',(0.,1.,0.));
#549 = PLANE('',#550);
#550 = AXIS2_PLACEMENT_3D('',#551,#552,#553);
#551 = CARTESIAN_POINT('',(31.314213562365,8.69399790255E-13,41.4));
#552 = DIRECTION('',(0.,0.,1.));
#553 = DIRECTION('',(1.,0.,0.));
#554 = ADVANCED_FACE('',(#555),#582,.T.);
#555 = FACE_BOUND('',#556,.F.);
#556 = EDGE_LOOP('',(#557,#566,#567,#576));
#557 = ORIENTED_EDGE('',*,*,#558,.T.);
#558 = EDGE_CURVE('',#559,#529,#561,.T.);
#559 = VERTEX_POINT('',#560);
#560 = CARTESIAN_POINT('',(27.314213562365,-2.999999999999,40.4));
#561 = CIRCLE('',#562,1.);
#562 = AXIS2_PLACEMENT_3D('',#563,#564,#565);
#563 = CARTESIAN_POINT('',(27.314213562365,-1.999999999999,40.4));
#564 = DIRECTION('',(-1.,0.,0.));
#565 = DIRECTION('',(0.,0.,1.));
#566 = ORIENTED_EDGE('',*,*,#536,.T.);
#567 = ORIENTED_EDGE('',*,*,#568,.F.);
#568 = EDGE_CURVE('',#569,#537,#571,.T.);
#569 = VERTEX_POINT('',#570);
#570 = CARTESIAN_POINT('',(35.314213562365,-2.999999999999,40.4));
#571 = CIRCLE('',#572,1.);
#572 = AXIS2_PLACEMENT_3D('',#573,#574,#575);
#573 = CARTESIAN_POINT('',(35.314213562365,-1.999999999999,40.4));
#574 = DIRECTION('',(-1.,0.,0.));
#575 = DIRECTION('',(0.,0.,1.));
#576 = ORIENTED_EDGE('',*,*,#577,.F.);
#577 = EDGE_CURVE('',#559,#569,#578,.T.);
#578 = LINE('',#579,#580);
#579 = CARTESIAN_POINT('',(27.314213562365,-2.999999999999,40.4));
#580 = VECTOR('',#581,1.);
#581 = DIRECTION('',(1.,0.,0.));
#582 = CYLINDRICAL_SURFACE('',#583,1.);
#583 = AXIS2_PLACEMENT_3D('',#584,#585,#586);
#584 = CARTESIAN_POINT('',(27.314213562365,-1.999999999999,40.4));
#585 = DIRECTION('',(1.,0.,0.));
#586 = DIRECTION('',(0.,-1.,0.));
#587 = ADVANCED_FACE('',(#588),#613,.F.);
#588 = FACE_BOUND('',#589,.F.);
#589 = EDGE_LOOP('',(#590,#598,#599,#607));
#590 = ORIENTED_EDGE('',*,*,#591,.T.);
#591 = EDGE_CURVE('',#592,#559,#594,.T.);
#592 = VERTEX_POINT('',#593);
#593 = CARTESIAN_POINT('',(27.314213562365,-2.999999999999,35.4));
#594 = LINE('',#595,#596);
#595 = CARTESIAN_POINT('',(27.314213562365,-2.999999999999,34.4));
#596 = VECTOR('',#597,1.);
#597 = DIRECTION('',(0.,0.,1.));
#598 = ORIENTED_EDGE('',*,*,#577,.T.);
#599 = ORIENTED_EDGE('',*,*,#600,.F.);
#600 = EDGE_CURVE('',#601,#569,#603,.T.);
#601 = VERTEX_POINT('',#602);
#602 = CARTESIAN_POINT('',(35.314213562365,-2.999999999999,35.4));
#603 = LINE('',#604,#605);
#604 = CARTESIAN_POINT('',(35.314213562365,-2.999999999999,34.4));
#605 = VECTOR('',#606,1.);
#606 = DIRECTION('',(0.,0.,1.));
#607 = ORIENTED_EDGE('',*,*,#608,.F.);
#608 = EDGE_CURVE('',#592,#601,#609,.T.);
#609 = LINE('',#610,#611);
#610 = CARTESIAN_POINT('',(27.314213562365,-2.999999999999,35.4));
#611 = VECTOR('',#612,1.);
#612 = DIRECTION('',(1.,0.,0.));
#613 = PLANE('',#614);
#614 = AXIS2_PLACEMENT_3D('',#615,#616,#617);
#615 = CARTESIAN_POINT('',(27.314213562365,-2.999999999999,34.4));
#616 = DIRECTION('',(0.,1.,0.));
#617 = DIRECTION('',(1.,0.,0.));
#618 = ADVANCED_FACE('',(#619),#637,.T.);
#619 = FACE_BOUND('',#620,.F.);
#620 = EDGE_LOOP('',(#621,#628,#629,#636));
#621 = ORIENTED_EDGE('',*,*,#622,.T.);
#622 = EDGE_CURVE('',#219,#592,#623,.T.);
#623 = CIRCLE('',#624,1.);
#624 = AXIS2_PLACEMENT_3D('',#625,#626,#627);
#625 = CARTESIAN_POINT('',(27.314213562365,-1.999999999999,35.4));
#626 = DIRECTION('',(-1.,0.,0.));
#627 = DIRECTION('',(0.,0.,1.));
#628 = ORIENTED_EDGE('',*,*,#608,.T.);
#629 = ORIENTED_EDGE('',*,*,#630,.F.);
#630 = EDGE_CURVE('',#185,#601,#631,.T.);
#631 = CIRCLE('',#632,1.);
#632 = AXIS2_PLACEMENT_3D('',#633,#634,#635);
#633 = CARTESIAN_POINT('',(35.314213562365,-1.999999999999,35.4));
#634 = DIRECTION('',(-1.,0.,0.));
#635 = DIRECTION('',(0.,0.,1.));
#636 = ORIENTED_EDGE('',*,*,#226,.F.);
#637 = CYLINDRICAL_SURFACE('',#638,1.);
#638 = AXIS2_PLACEMENT_3D('',#639,#640,#641);
#639 = CARTESIAN_POINT('',(27.314213562365,-1.999999999999,35.4));
#640 = DIRECTION('',(1.,0.,0.));
#641 = DIRECTION('',(0.,0.,-1.));
#642 = ADVANCED_FACE('',(#643),#654,.F.);
#643 = FACE_BOUND('',#644,.F.);
#644 = EDGE_LOOP('',(#645,#646,#647,#653));
#645 = ORIENTED_EDGE('',*,*,#129,.F.);
#646 = ORIENTED_EDGE('',*,*,#103,.F.);
#647 = ORIENTED_EDGE('',*,*,#648,.T.);
#648 = EDGE_CURVE('',#95,#211,#649,.T.);
#649 = LINE('',#650,#651);
#650 = CARTESIAN_POINT('',(27.314213562365,-1.560449153759,30.4));
#651 = VECTOR('',#652,1.);
#652 = DIRECTION('',(0.,0.,1.));
#653 = ORIENTED_EDGE('',*,*,#210,.T.);
#654 = PLANE('',#655);
#655 = AXIS2_PLACEMENT_3D('',#656,#657,#658);
#656 = CARTESIAN_POINT('',(27.314213562365,-1.560449153759,30.4));
#657 = DIRECTION('',(0.,1.,0.));
#658 = DIRECTION('',(1.,0.,0.));
#659 = ADVANCED_FACE('',(#660),#680,.F.);
#660 = FACE_BOUND('',#661,.F.);
#661 = EDGE_LOOP('',(#662,#663,#664,#665,#666,#667,#668,#669,#676,#677,
    #678,#679));
#662 = ORIENTED_EDGE('',*,*,#630,.T.);
#663 = ORIENTED_EDGE('',*,*,#600,.T.);
#664 = ORIENTED_EDGE('',*,*,#568,.T.);
#665 = ORIENTED_EDGE('',*,*,#544,.T.);
#666 = ORIENTED_EDGE('',*,*,#462,.F.);
#667 = ORIENTED_EDGE('',*,*,#432,.F.);
#668 = ORIENTED_EDGE('',*,*,#384,.T.);
#669 = ORIENTED_EDGE('',*,*,#670,.T.);
#670 = EDGE_CURVE('',#387,#305,#671,.T.);
#671 = CIRCLE('',#672,2.9);
#672 = AXIS2_PLACEMENT_3D('',#673,#674,#675);
#673 = CARTESIAN_POINT('',(35.314213562365,1.99299E-11,37.9));
#674 = DIRECTION('',(1.,0.,0.));
#675 = DIRECTION('',(0.,1.,0.));
#676 = ORIENTED_EDGE('',*,*,#304,.T.);
#677 = ORIENTED_EDGE('',*,*,#274,.F.);
#678 = ORIENTED_EDGE('',*,*,#240,.F.);
#679 = ORIENTED_EDGE('',*,*,#184,.F.);
#680 = PLANE('',#681);
#681 = AXIS2_PLACEMENT_3D('',#682,#683,#684);
#682 = CARTESIAN_POINT('',(35.314213562365,-2.999999999999,34.4));
#683 = DIRECTION('',(-1.,0.,0.));
#684 = DIRECTION('',(0.,1.,0.));
#685 = ADVANCED_FACE('',(#686),#698,.T.);
#686 = FACE_BOUND('',#687,.T.);
#687 = EDGE_LOOP('',(#688,#689,#696,#697));
#688 = ORIENTED_EDGE('',*,*,#409,.F.);
#689 = ORIENTED_EDGE('',*,*,#690,.T.);
#690 = EDGE_CURVE('',#410,#313,#691,.T.);
#691 = CIRCLE('',#692,2.9);
#692 = AXIS2_PLACEMENT_3D('',#693,#694,#695);
#693 = CARTESIAN_POINT('',(33.314213562365,1.99299E-11,37.9));
#694 = DIRECTION('',(1.,0.,0.));
#695 = DIRECTION('',(0.,1.,0.));
#696 = ORIENTED_EDGE('',*,*,#320,.F.);
#697 = ORIENTED_EDGE('',*,*,#351,.F.);
#698 = PLANE('',#699);
#699 = AXIS2_PLACEMENT_3D('',#700,#701,#702);
#700 = CARTESIAN_POINT('',(33.314213562365,1.992967369376E-11,37.9));
#701 = DIRECTION('',(1.,0.,0.));
#702 = DIRECTION('',(0.,0.,1.));
#703 = ADVANCED_FACE('',(#704),#710,.F.);
#704 = FACE_BOUND('',#705,.F.);
#705 = EDGE_LOOP('',(#706,#707,#708,#709));
#706 = ORIENTED_EDGE('',*,*,#670,.F.);
#707 = ORIENTED_EDGE('',*,*,#417,.F.);
#708 = ORIENTED_EDGE('',*,*,#690,.T.);
#709 = ORIENTED_EDGE('',*,*,#312,.T.);
#710 = CYLINDRICAL_SURFACE('',#711,2.9);
#711 = AXIS2_PLACEMENT_3D('',#712,#713,#714);
#712 = CARTESIAN_POINT('',(35.314213562365,1.99299E-11,37.9));
#713 = DIRECTION('',(1.,0.,0.));
#714 = DIRECTION('',(0.,1.,0.));
#715 = ADVANCED_FACE('',(#716),#741,.T.);
#716 = FACE_BOUND('',#717,.T.);
#717 = EDGE_LOOP('',(#718,#726,#734,#740));
#718 = ORIENTED_EDGE('',*,*,#719,.T.);
#719 = EDGE_CURVE('',#513,#720,#722,.T.);
#720 = VERTEX_POINT('',#721);
#721 = CARTESIAN_POINT('',(28.314213562365,-0.499999999969,42.4));
#722 = LINE('',#723,#724);
#723 = CARTESIAN_POINT('',(28.314213562365,-0.499999999969,41.4));
#724 = VECTOR('',#725,1.);
#725 = DIRECTION('',(0.,0.,1.));
#726 = ORIENTED_EDGE('',*,*,#727,.T.);
#727 = EDGE_CURVE('',#720,#728,#730,.T.);
#728 = VERTEX_POINT('',#729);
#729 = CARTESIAN_POINT('',(27.314213562365,-0.499999999969,42.4));
#730 = LINE('',#731,#732);
#731 = CARTESIAN_POINT('',(28.314213562365,-0.499999999969,42.4));
#732 = VECTOR('',#733,1.);
#733 = DIRECTION('',(-1.,0.,0.));
#734 = ORIENTED_EDGE('',*,*,#735,.F.);
#735 = EDGE_CURVE('',#521,#728,#736,.T.);
#736 = LINE('',#737,#738);
#737 = CARTESIAN_POINT('',(27.314213562365,-0.499999999969,41.4));
#738 = VECTOR('',#739,1.);
#739 = DIRECTION('',(0.,0.,1.));
#740 = ORIENTED_EDGE('',*,*,#520,.F.);
#741 = PLANE('',#742);
#742 = AXIS2_PLACEMENT_3D('',#743,#744,#745);
#743 = CARTESIAN_POINT('',(28.314213562365,-0.499999999969,41.4));
#744 = DIRECTION('',(0.,-1.,0.));
#745 = DIRECTION('',(-1.,0.,0.));
#746 = ADVANCED_FACE('',(#747),#765,.T.);
#747 = FACE_BOUND('',#748,.T.);
#748 = EDGE_LOOP('',(#749,#757,#763,#764));
#749 = ORIENTED_EDGE('',*,*,#750,.T.);
#750 = EDGE_CURVE('',#505,#751,#753,.T.);
#751 = VERTEX_POINT('',#752);
#752 = CARTESIAN_POINT('',(28.314213562365,0.500000000031,42.4));
#753 = LINE('',#754,#755);
#754 = CARTESIAN_POINT('',(28.314213562365,0.500000000031,41.4));
#755 = VECTOR('',#756,1.);
#756 = DIRECTION('',(0.,0.,1.));
#757 = ORIENTED_EDGE('',*,*,#758,.T.);
#758 = EDGE_CURVE('',#751,#720,#759,.T.);
#759 = LINE('',#760,#761);
#760 = CARTESIAN_POINT('',(28.314213562365,0.500000000031,42.4));
#761 = VECTOR('',#762,1.);
#762 = DIRECTION('',(0.,-1.,0.));
#763 = ORIENTED_EDGE('',*,*,#719,.F.);
#764 = ORIENTED_EDGE('',*,*,#512,.F.);
#765 = PLANE('',#766);
#766 = AXIS2_PLACEMENT_3D('',#767,#768,#769);
#767 = CARTESIAN_POINT('',(28.314213562365,0.500000000031,41.4));
#768 = DIRECTION('',(1.,0.,0.));
#769 = DIRECTION('',(0.,-1.,0.));
#770 = ADVANCED_FACE('',(#771),#789,.T.);
#771 = FACE_BOUND('',#772,.T.);
#772 = EDGE_LOOP('',(#773,#781,#787,#788));
#773 = ORIENTED_EDGE('',*,*,#774,.T.);
#774 = EDGE_CURVE('',#497,#775,#777,.T.);
#775 = VERTEX_POINT('',#776);
#776 = CARTESIAN_POINT('',(27.314213562365,0.500000000031,42.4));
#777 = LINE('',#778,#779);
#778 = CARTESIAN_POINT('',(27.314213562365,0.500000000031,41.4));
#779 = VECTOR('',#780,1.);
#780 = DIRECTION('',(0.,0.,1.));
#781 = ORIENTED_EDGE('',*,*,#782,.T.);
#782 = EDGE_CURVE('',#775,#751,#783,.T.);
#783 = LINE('',#784,#785);
#784 = CARTESIAN_POINT('',(27.314213562365,0.500000000031,42.4));
#785 = VECTOR('',#786,1.);
#786 = DIRECTION('',(1.,0.,0.));
#787 = ORIENTED_EDGE('',*,*,#750,.F.);
#788 = ORIENTED_EDGE('',*,*,#504,.F.);
#789 = PLANE('',#790);
#790 = AXIS2_PLACEMENT_3D('',#791,#792,#793);
#791 = CARTESIAN_POINT('',(27.314213562365,0.500000000031,41.4));
#792 = DIRECTION('',(0.,1.,0.));
#793 = DIRECTION('',(1.,0.,0.));
#794 = ADVANCED_FACE('',(#795),#806,.T.);
#795 = FACE_BOUND('',#796,.F.);
#796 = EDGE_LOOP('',(#797,#803,#804,#805));
#797 = ORIENTED_EDGE('',*,*,#798,.T.);
#798 = EDGE_CURVE('',#728,#775,#799,.T.);
#799 = LINE('',#800,#801);
#800 = CARTESIAN_POINT('',(27.314213562365,-0.499999999969,42.4));
#801 = VECTOR('',#802,1.);
#802 = DIRECTION('',(0.,1.,0.));
#803 = ORIENTED_EDGE('',*,*,#782,.T.);
#804 = ORIENTED_EDGE('',*,*,#758,.T.);
#805 = ORIENTED_EDGE('',*,*,#727,.T.);
#806 = PLANE('',#807);
#807 = AXIS2_PLACEMENT_3D('',#808,#809,#810);
#808 = CARTESIAN_POINT('',(27.814213562365,3.08695291551E-11,42.4));
#809 = DIRECTION('',(0.,0.,1.));
#810 = DIRECTION('',(1.,0.,0.));
#811 = ADVANCED_FACE('',(#812),#836,.T.);
#812 = FACE_BOUND('',#813,.T.);
#813 = EDGE_LOOP('',(#814,#815,#816,#817,#818,#819,#820,#821,#822,#823,
    #824,#825,#826,#827,#828,#829,#830,#831,#832,#833,#834,#835));
#814 = ORIENTED_EDGE('',*,*,#78,.F.);
#815 = ORIENTED_EDGE('',*,*,#21,.T.);
#816 = ORIENTED_EDGE('',*,*,#94,.T.);
#817 = ORIENTED_EDGE('',*,*,#648,.T.);
#818 = ORIENTED_EDGE('',*,*,#218,.T.);
#819 = ORIENTED_EDGE('',*,*,#622,.T.);
#820 = ORIENTED_EDGE('',*,*,#591,.T.);
#821 = ORIENTED_EDGE('',*,*,#558,.T.);
#822 = ORIENTED_EDGE('',*,*,#528,.F.);
#823 = ORIENTED_EDGE('',*,*,#735,.T.);
#824 = ORIENTED_EDGE('',*,*,#798,.T.);
#825 = ORIENTED_EDGE('',*,*,#774,.F.);
#826 = ORIENTED_EDGE('',*,*,#496,.F.);
#827 = ORIENTED_EDGE('',*,*,#479,.F.);
#828 = ORIENTED_EDGE('',*,*,#448,.F.);
#829 = ORIENTED_EDGE('',*,*,#402,.F.);
#830 = ORIENTED_EDGE('',*,*,#368,.T.);
#831 = ORIENTED_EDGE('',*,*,#336,.F.);
#832 = ORIENTED_EDGE('',*,*,#290,.F.);
#833 = ORIENTED_EDGE('',*,*,#257,.F.);
#834 = ORIENTED_EDGE('',*,*,#202,.T.);
#835 = ORIENTED_EDGE('',*,*,#160,.F.);
#836 = PLANE('',#837);
#837 = AXIS2_PLACEMENT_3D('',#838,#839,#840);
#838 = CARTESIAN_POINT('',(27.314213562365,-0.11931143052,
    36.989155976468));
#839 = DIRECTION('',(-1.,-6.137293709762E-16,-7.564526520736E-16));
#840 = DIRECTION('',(7.564526520736E-16,0.,-1.));
#841 = ( GEOMETRIC_REPRESENTATION_CONTEXT(3) 
GLOBAL_UNCERTAINTY_ASSIGNED_CONTEXT((#845)) GLOBAL_UNIT_ASSIGNED_CONTEXT
((#842,#843,#844)) REPRESENTATION_CONTEXT('Context #1',
  '3D Context with UNIT and UNCERTAINTY') );
#842 = ( LENGTH_UNIT() NAMED_UNIT(*) SI_UNIT(.MILLI.,.METRE.) );
#843 = ( NAMED_UNIT(*) PLANE_ANGLE_UNIT() SI_UNIT($,.RADIAN.) );
#844 = ( NAMED_UNIT(*) SI_UNIT($,.STERADIAN.) SOLID_ANGLE_UNIT() );
#845 = UNCERTAINTY_MEASURE_WITH_UNIT(LENGTH_MEASURE(1.E-05),#842,
  'distance_accuracy_value','confusion accuracy');
#846 = PRODUCT_RELATED_PRODUCT_CATEGORY('part',$,(#7));
#847 = MECHANICAL_DESIGN_GEOMETRIC_PRESENTATION_REPRESENTATION('',(#848)
  ,#841);
#848 = STYLED_ITEM('color',(#849),#15);
#849 = PRESENTATION_STYLE_ASSIGNMENT((#850,#856));
#850 = SURFACE_STYLE_USAGE(.BOTH.,#851);
#851 = SURFACE_SIDE_STYLE('',(#852));
#852 = SURFACE_STYLE_FILL_AREA(#853);
#853 = FILL_AREA_STYLE('',(#854));
#854 = FILL_AREA_STYLE_COLOUR('',#855);
#855 = COLOUR_RGB('',0.447058818107,0.474509808674,0.501960817233);
#856 = CURVE_STYLE('',#857,POSITIVE_LENGTH_MEASURE(0.1),#858);
#857 = DRAUGHTING_PRE_DEFINED_CURVE_FONT('continuous');
#858 = COLOUR_RGB('',9.803921802644E-02,9.803921802644E-02,
  9.803921802644E-02);
ENDSEC;
END-ISO-10303-21;
