ISO-10303-21;
HEADER;
FILE_DESCRIPTION(('FreeCAD Model'),'2;1');
FILE_NAME('Open CASCADE Shape Model','2026-01-16T07:54:35',(''),(''),
  'Open CASCADE STEP processor 7.8','FreeCAD','Unknown');
FILE_SCHEMA(('AUTOMOTIVE_DESIGN { 1 0 10303 214 1 1 1 1 }'));
ENDSEC;
DATA;
#1 = APPLICATION_PROTOCOL_DEFINITION('international standard',
  'automotive_design',2000,#2);
#2 = APPLICATION_CONTEXT(
  'core data for automotive mechanical design processes');
#3 = SHAPE_DEFINITION_REPRESENTATION(#4,#10);
#4 = PRODUCT_DEFINITION_SHAPE('','',#5);
#5 = PRODUCT_DEFINITION('design','',#6,#9);
#6 = PRODUCT_DEFINITION_FORMATION('','',#7);
#7 = PRODUCT('cover','cover','',(#8));
#8 = PRODUCT_CONTEXT('',#2,'mechanical');
#9 = PRODUCT_DEFINITION_CONTEXT('part definition',#2,'design');
#10 = ADVANCED_BREP_SHAPE_REPRESENTATION('',(#11,#15),#447);
#11 = AXIS2_PLACEMENT_3D('',#12,#13,#14);
#12 = CARTESIAN_POINT('',(0.,0.,0.));
#13 = DIRECTION('',(0.,0.,1.));
#14 = DIRECTION('',(1.,0.,-0.));
#15 = MANIFOLD_SOLID_BREP('',#16);
#16 = CLOSED_SHELL('',(#17,#127,#158,#183,#208,#232,#256,#281,#306,#323,
    #354,#378,#402,#419,#435));
#17 = ADVANCED_FACE('',(#18,#88),#122,.F.);
#18 = FACE_BOUND('',#19,.F.);
#19 = EDGE_LOOP('',(#20,#30,#39,#47,#56,#64,#73,#81));
#20 = ORIENTED_EDGE('',*,*,#21,.T.);
#21 = EDGE_CURVE('',#22,#24,#26,.T.);
#22 = VERTEX_POINT('',#23);
#23 = CARTESIAN_POINT('',(11.500000000025,-3.485786437627,17.3));
#24 = VERTEX_POINT('',#25);
#25 = CARTESIAN_POINT('',(11.500000000025,-3.485786437627,1.7));
#26 = LINE('',#27,#28);
#27 = CARTESIAN_POINT('',(11.500000000025,-3.485786437627,18.3));
#28 = VECTOR('',#29,1.);
#29 = DIRECTION('',(0.,0.,-1.));
#30 = ORIENTED_EDGE('',*,*,#31,.T.);
#31 = EDGE_CURVE('',#24,#32,#34,.T.);
#32 = VERTEX_POINT('',#33);
#33 = CARTESIAN_POINT('',(11.500000000025,-2.485786437627,0.7));
#34 = CIRCLE('',#35,1.);
#35 = AXIS2_PLACEMENT_3D('',#36,#37,#38);
#36 = CARTESIAN_POINT('',(11.500000000025,-2.485786437627,1.7));
#37 = DIRECTION('',(1.,0.,-0.));
#38 = DIRECTION('',(0.,0.,1.));
#39 = ORIENTED_EDGE('',*,*,#40,.T.);
#40 = EDGE_CURVE('',#32,#41,#43,.T.);
#41 = VERTEX_POINT('',#42);
#42 = CARTESIAN_POINT('',(11.500000000025,0.114213562373,0.7));
#43 = LINE('',#44,#45);
#44 = CARTESIAN_POINT('',(11.500000000025,-3.485786437627,0.7));
#45 = VECTOR('',#46,1.);
#46 = DIRECTION('',(0.,1.,0.));
#47 = ORIENTED_EDGE('',*,*,#48,.T.);
#48 = EDGE_CURVE('',#41,#49,#51,.T.);
#49 = VERTEX_POINT('',#50);
#50 = CARTESIAN_POINT('',(11.500000000025,1.114213562373,1.7));
#51 = CIRCLE('',#52,1.);
#52 = AXIS2_PLACEMENT_3D('',#53,#54,#55);
#53 = CARTESIAN_POINT('',(11.500000000025,0.114213562373,1.7));
#54 = DIRECTION('',(1.,0.,-0.));
#55 = DIRECTION('',(0.,0.,1.));
#56 = ORIENTED_EDGE('',*,*,#57,.T.);
#57 = EDGE_CURVE('',#49,#58,#60,.T.);
#58 = VERTEX_POINT('',#59);
#59 = CARTESIAN_POINT('',(11.500000000025,1.114213562373,17.3));
#60 = LINE('',#61,#62);
#61 = CARTESIAN_POINT('',(11.500000000025,1.114213562373,0.7));
#62 = VECTOR('',#63,1.);
#63 = DIRECTION('',(0.,0.,1.));
#64 = ORIENTED_EDGE('',*,*,#65,.F.);
#65 = EDGE_CURVE('',#66,#58,#68,.T.);
#66 = VERTEX_POINT('',#67);
#67 = CARTESIAN_POINT('',(11.500000000025,0.114213562373,18.3));
#68 = CIRCLE('',#69,1.);
#69 = AXIS2_PLACEMENT_3D('',#70,#71,#72);
#70 = CARTESIAN_POINT('',(11.500000000025,0.114213562373,17.3));
#71 = DIRECTION('',(-1.,0.,0.));
#72 = DIRECTION('',(0.,0.,1.));
#73 = ORIENTED_EDGE('',*,*,#74,.T.);
#74 = EDGE_CURVE('',#66,#75,#77,.T.);
#75 = VERTEX_POINT('',#76);
#76 = CARTESIAN_POINT('',(11.500000000025,-2.485786437627,18.3));
#77 = LINE('',#78,#79);
#78 = CARTESIAN_POINT('',(11.500000000025,1.114213562373,18.3));
#79 = VECTOR('',#80,1.);
#80 = DIRECTION('',(0.,-1.,0.));
#81 = ORIENTED_EDGE('',*,*,#82,.F.);
#82 = EDGE_CURVE('',#22,#75,#83,.T.);
#83 = CIRCLE('',#84,1.);
#84 = AXIS2_PLACEMENT_3D('',#85,#86,#87);
#85 = CARTESIAN_POINT('',(11.500000000025,-2.485786437627,17.3));
#86 = DIRECTION('',(-1.,0.,0.));
#87 = DIRECTION('',(0.,0.,1.));
#88 = FACE_BOUND('',#89,.F.);
#89 = EDGE_LOOP('',(#90,#100,#108,#116));
#90 = ORIENTED_EDGE('',*,*,#91,.T.);
#91 = EDGE_CURVE('',#92,#94,#96,.T.);
#92 = VERTEX_POINT('',#93);
#93 = CARTESIAN_POINT('',(11.500000000025,-0.385786437627,2.2));
#94 = VERTEX_POINT('',#95);
#95 = CARTESIAN_POINT('',(11.500000000025,-1.985786437627,2.2));
#96 = LINE('',#97,#98);
#97 = CARTESIAN_POINT('',(11.500000000025,-3.685786437627,2.2));
#98 = VECTOR('',#99,1.);
#99 = DIRECTION('',(0.,-1.,0.));
#100 = ORIENTED_EDGE('',*,*,#101,.T.);
#101 = EDGE_CURVE('',#94,#102,#104,.T.);
#102 = VERTEX_POINT('',#103);
#103 = CARTESIAN_POINT('',(11.500000000025,-1.985786437627,16.8));
#104 = LINE('',#105,#106);
#105 = CARTESIAN_POINT('',(11.500000000025,-1.985786437627,8.4));
#106 = VECTOR('',#107,1.);
#107 = DIRECTION('',(0.,0.,1.));
#108 = ORIENTED_EDGE('',*,*,#109,.T.);
#109 = EDGE_CURVE('',#102,#110,#112,.T.);
#110 = VERTEX_POINT('',#111);
#111 = CARTESIAN_POINT('',(11.500000000025,-0.385786437627,16.8));
#112 = LINE('',#113,#114);
#113 = CARTESIAN_POINT('',(11.500000000025,-2.885786437627,16.8));
#114 = VECTOR('',#115,1.);
#115 = DIRECTION('',(0.,1.,0.));
#116 = ORIENTED_EDGE('',*,*,#117,.T.);
#117 = EDGE_CURVE('',#110,#92,#118,.T.);
#118 = LINE('',#119,#120);
#119 = CARTESIAN_POINT('',(11.500000000025,-0.385786437627,1.1));
#120 = VECTOR('',#121,1.);
#121 = DIRECTION('',(-0.,-0.,-1.));
#122 = PLANE('',#123);
#123 = AXIS2_PLACEMENT_3D('',#124,#125,#126);
#124 = CARTESIAN_POINT('',(11.500000000025,-1.185786437627,9.5));
#125 = DIRECTION('',(1.,0.,0.));
#126 = DIRECTION('',(0.,0.,1.));
#127 = ADVANCED_FACE('',(#128),#153,.F.);
#128 = FACE_BOUND('',#129,.F.);
#129 = EDGE_LOOP('',(#130,#131,#139,#147));
#130 = ORIENTED_EDGE('',*,*,#21,.F.);
#131 = ORIENTED_EDGE('',*,*,#132,.T.);
#132 = EDGE_CURVE('',#22,#133,#135,.T.);
#133 = VERTEX_POINT('',#134);
#134 = CARTESIAN_POINT('',(13.500000000025,-3.485786437627,17.3));
#135 = LINE('',#136,#137);
#136 = CARTESIAN_POINT('',(11.500000000025,-3.485786437627,17.3));
#137 = VECTOR('',#138,1.);
#138 = DIRECTION('',(1.,0.,0.));
#139 = ORIENTED_EDGE('',*,*,#140,.T.);
#140 = EDGE_CURVE('',#133,#141,#143,.T.);
#141 = VERTEX_POINT('',#142);
#142 = CARTESIAN_POINT('',(13.500000000025,-3.485786437627,1.7));
#143 = LINE('',#144,#145);
#144 = CARTESIAN_POINT('',(13.500000000025,-3.485786437627,18.3));
#145 = VECTOR('',#146,1.);
#146 = DIRECTION('',(0.,0.,-1.));
#147 = ORIENTED_EDGE('',*,*,#148,.F.);
#148 = EDGE_CURVE('',#24,#141,#149,.T.);
#149 = LINE('',#150,#151);
#150 = CARTESIAN_POINT('',(11.500000000025,-3.485786437627,1.7));
#151 = VECTOR('',#152,1.);
#152 = DIRECTION('',(1.,0.,0.));
#153 = PLANE('',#154);
#154 = AXIS2_PLACEMENT_3D('',#155,#156,#157);
#155 = CARTESIAN_POINT('',(11.500000000025,-3.485786437627,18.3));
#156 = DIRECTION('',(0.,1.,0.));
#157 = DIRECTION('',(0.,0.,-1.));
#158 = ADVANCED_FACE('',(#159),#178,.T.);
#159 = FACE_BOUND('',#160,.F.);
#160 = EDGE_LOOP('',(#161,#162,#170,#177));
#161 = ORIENTED_EDGE('',*,*,#82,.T.);
#162 = ORIENTED_EDGE('',*,*,#163,.T.);
#163 = EDGE_CURVE('',#75,#164,#166,.T.);
#164 = VERTEX_POINT('',#165);
#165 = CARTESIAN_POINT('',(13.500000000025,-2.485786437627,18.3));
#166 = LINE('',#167,#168);
#167 = CARTESIAN_POINT('',(11.500000000025,-2.485786437627,18.3));
#168 = VECTOR('',#169,1.);
#169 = DIRECTION('',(1.,0.,0.));
#170 = ORIENTED_EDGE('',*,*,#171,.F.);
#171 = EDGE_CURVE('',#133,#164,#172,.T.);
#172 = CIRCLE('',#173,1.);
#173 = AXIS2_PLACEMENT_3D('',#174,#175,#176);
#174 = CARTESIAN_POINT('',(13.500000000025,-2.485786437627,17.3));
#175 = DIRECTION('',(-1.,0.,0.));
#176 = DIRECTION('',(0.,0.,1.));
#177 = ORIENTED_EDGE('',*,*,#132,.F.);
#178 = CYLINDRICAL_SURFACE('',#179,1.);
#179 = AXIS2_PLACEMENT_3D('',#180,#181,#182);
#180 = CARTESIAN_POINT('',(11.500000000025,-2.485786437627,17.3));
#181 = DIRECTION('',(1.,0.,0.));
#182 = DIRECTION('',(0.,-1.,0.));
#183 = ADVANCED_FACE('',(#184),#203,.T.);
#184 = FACE_BOUND('',#185,.T.);
#185 = EDGE_LOOP('',(#186,#187,#195,#202));
#186 = ORIENTED_EDGE('',*,*,#31,.T.);
#187 = ORIENTED_EDGE('',*,*,#188,.T.);
#188 = EDGE_CURVE('',#32,#189,#191,.T.);
#189 = VERTEX_POINT('',#190);
#190 = CARTESIAN_POINT('',(13.500000000025,-2.485786437627,0.7));
#191 = LINE('',#192,#193);
#192 = CARTESIAN_POINT('',(11.500000000025,-2.485786437627,0.7));
#193 = VECTOR('',#194,1.);
#194 = DIRECTION('',(1.,0.,0.));
#195 = ORIENTED_EDGE('',*,*,#196,.F.);
#196 = EDGE_CURVE('',#141,#189,#197,.T.);
#197 = CIRCLE('',#198,1.);
#198 = AXIS2_PLACEMENT_3D('',#199,#200,#201);
#199 = CARTESIAN_POINT('',(13.500000000025,-2.485786437627,1.7));
#200 = DIRECTION('',(1.,0.,-0.));
#201 = DIRECTION('',(0.,0.,1.));
#202 = ORIENTED_EDGE('',*,*,#148,.F.);
#203 = CYLINDRICAL_SURFACE('',#204,1.);
#204 = AXIS2_PLACEMENT_3D('',#205,#206,#207);
#205 = CARTESIAN_POINT('',(11.500000000025,-2.485786437627,1.7));
#206 = DIRECTION('',(1.,0.,0.));
#207 = DIRECTION('',(0.,-1.,0.));
#208 = ADVANCED_FACE('',(#209),#227,.F.);
#209 = FACE_BOUND('',#210,.F.);
#210 = EDGE_LOOP('',(#211,#212,#220,#226));
#211 = ORIENTED_EDGE('',*,*,#74,.F.);
#212 = ORIENTED_EDGE('',*,*,#213,.T.);
#213 = EDGE_CURVE('',#66,#214,#216,.T.);
#214 = VERTEX_POINT('',#215);
#215 = CARTESIAN_POINT('',(13.500000000025,0.114213562373,18.3));
#216 = LINE('',#217,#218);
#217 = CARTESIAN_POINT('',(11.500000000025,0.114213562373,18.3));
#218 = VECTOR('',#219,1.);
#219 = DIRECTION('',(1.,0.,0.));
#220 = ORIENTED_EDGE('',*,*,#221,.T.);
#221 = EDGE_CURVE('',#214,#164,#222,.T.);
#222 = LINE('',#223,#224);
#223 = CARTESIAN_POINT('',(13.500000000025,1.114213562373,18.3));
#224 = VECTOR('',#225,1.);
#225 = DIRECTION('',(0.,-1.,0.));
#226 = ORIENTED_EDGE('',*,*,#163,.F.);
#227 = PLANE('',#228);
#228 = AXIS2_PLACEMENT_3D('',#229,#230,#231);
#229 = CARTESIAN_POINT('',(11.500000000025,1.114213562373,18.3));
#230 = DIRECTION('',(0.,0.,-1.));
#231 = DIRECTION('',(0.,-1.,0.));
#232 = ADVANCED_FACE('',(#233),#251,.F.);
#233 = FACE_BOUND('',#234,.F.);
#234 = EDGE_LOOP('',(#235,#236,#237,#245));
#235 = ORIENTED_EDGE('',*,*,#40,.F.);
#236 = ORIENTED_EDGE('',*,*,#188,.T.);
#237 = ORIENTED_EDGE('',*,*,#238,.T.);
#238 = EDGE_CURVE('',#189,#239,#241,.T.);
#239 = VERTEX_POINT('',#240);
#240 = CARTESIAN_POINT('',(13.500000000025,0.114213562373,0.7));
#241 = LINE('',#242,#243);
#242 = CARTESIAN_POINT('',(13.500000000025,-3.485786437627,0.7));
#243 = VECTOR('',#244,1.);
#244 = DIRECTION('',(0.,1.,0.));
#245 = ORIENTED_EDGE('',*,*,#246,.F.);
#246 = EDGE_CURVE('',#41,#239,#247,.T.);
#247 = LINE('',#248,#249);
#248 = CARTESIAN_POINT('',(11.500000000025,0.114213562373,0.7));
#249 = VECTOR('',#250,1.);
#250 = DIRECTION('',(1.,0.,0.));
#251 = PLANE('',#252);
#252 = AXIS2_PLACEMENT_3D('',#253,#254,#255);
#253 = CARTESIAN_POINT('',(11.500000000025,-3.485786437627,0.7));
#254 = DIRECTION('',(0.,0.,1.));
#255 = DIRECTION('',(0.,1.,0.));
#256 = ADVANCED_FACE('',(#257),#276,.T.);
#257 = FACE_BOUND('',#258,.F.);
#258 = EDGE_LOOP('',(#259,#260,#268,#275));
#259 = ORIENTED_EDGE('',*,*,#65,.T.);
#260 = ORIENTED_EDGE('',*,*,#261,.T.);
#261 = EDGE_CURVE('',#58,#262,#264,.T.);
#262 = VERTEX_POINT('',#263);
#263 = CARTESIAN_POINT('',(13.500000000025,1.114213562373,17.3));
#264 = LINE('',#265,#266);
#265 = CARTESIAN_POINT('',(11.500000000025,1.114213562373,17.3));
#266 = VECTOR('',#267,1.);
#267 = DIRECTION('',(1.,0.,0.));
#268 = ORIENTED_EDGE('',*,*,#269,.F.);
#269 = EDGE_CURVE('',#214,#262,#270,.T.);
#270 = CIRCLE('',#271,1.);
#271 = AXIS2_PLACEMENT_3D('',#272,#273,#274);
#272 = CARTESIAN_POINT('',(13.500000000025,0.114213562373,17.3));
#273 = DIRECTION('',(-1.,0.,0.));
#274 = DIRECTION('',(0.,0.,1.));
#275 = ORIENTED_EDGE('',*,*,#213,.F.);
#276 = CYLINDRICAL_SURFACE('',#277,1.);
#277 = AXIS2_PLACEMENT_3D('',#278,#279,#280);
#278 = CARTESIAN_POINT('',(11.500000000025,0.114213562373,17.3));
#279 = DIRECTION('',(1.,0.,0.));
#280 = DIRECTION('',(0.,0.,1.));
#281 = ADVANCED_FACE('',(#282),#301,.T.);
#282 = FACE_BOUND('',#283,.T.);
#283 = EDGE_LOOP('',(#284,#285,#293,#300));
#284 = ORIENTED_EDGE('',*,*,#48,.T.);
#285 = ORIENTED_EDGE('',*,*,#286,.T.);
#286 = EDGE_CURVE('',#49,#287,#289,.T.);
#287 = VERTEX_POINT('',#288);
#288 = CARTESIAN_POINT('',(13.500000000025,1.114213562373,1.7));
#289 = LINE('',#290,#291);
#290 = CARTESIAN_POINT('',(11.500000000025,1.114213562373,1.7));
#291 = VECTOR('',#292,1.);
#292 = DIRECTION('',(1.,0.,0.));
#293 = ORIENTED_EDGE('',*,*,#294,.F.);
#294 = EDGE_CURVE('',#239,#287,#295,.T.);
#295 = CIRCLE('',#296,1.);
#296 = AXIS2_PLACEMENT_3D('',#297,#298,#299);
#297 = CARTESIAN_POINT('',(13.500000000025,0.114213562373,1.7));
#298 = DIRECTION('',(1.,0.,-0.));
#299 = DIRECTION('',(0.,0.,1.));
#300 = ORIENTED_EDGE('',*,*,#246,.F.);
#301 = CYLINDRICAL_SURFACE('',#302,1.);
#302 = AXIS2_PLACEMENT_3D('',#303,#304,#305);
#303 = CARTESIAN_POINT('',(11.500000000025,0.114213562373,1.7));
#304 = DIRECTION('',(1.,0.,0.));
#305 = DIRECTION('',(0.,0.,-1.));
#306 = ADVANCED_FACE('',(#307),#318,.F.);
#307 = FACE_BOUND('',#308,.F.);
#308 = EDGE_LOOP('',(#309,#310,#311,#317));
#309 = ORIENTED_EDGE('',*,*,#57,.F.);
#310 = ORIENTED_EDGE('',*,*,#286,.T.);
#311 = ORIENTED_EDGE('',*,*,#312,.T.);
#312 = EDGE_CURVE('',#287,#262,#313,.T.);
#313 = LINE('',#314,#315);
#314 = CARTESIAN_POINT('',(13.500000000025,1.114213562373,0.7));
#315 = VECTOR('',#316,1.);
#316 = DIRECTION('',(0.,0.,1.));
#317 = ORIENTED_EDGE('',*,*,#261,.F.);
#318 = PLANE('',#319);
#319 = AXIS2_PLACEMENT_3D('',#320,#321,#322);
#320 = CARTESIAN_POINT('',(11.500000000025,1.114213562373,0.7));
#321 = DIRECTION('',(0.,-1.,0.));
#322 = DIRECTION('',(0.,0.,1.));
#323 = ADVANCED_FACE('',(#324),#349,.F.);
#324 = FACE_BOUND('',#325,.F.);
#325 = EDGE_LOOP('',(#326,#336,#342,#343));
#326 = ORIENTED_EDGE('',*,*,#327,.F.);
#327 = EDGE_CURVE('',#328,#330,#332,.T.);
#328 = VERTEX_POINT('',#329);
#329 = CARTESIAN_POINT('',(-7.499999999975,-1.985786437627,2.2));
#330 = VERTEX_POINT('',#331);
#331 = CARTESIAN_POINT('',(-7.499999999975,-0.385786437627,2.2));
#332 = LINE('',#333,#334);
#333 = CARTESIAN_POINT('',(-7.499999999975,-1.985786437627,2.2));
#334 = VECTOR('',#335,1.);
#335 = DIRECTION('',(0.,1.,0.));
#336 = ORIENTED_EDGE('',*,*,#337,.T.);
#337 = EDGE_CURVE('',#328,#94,#338,.T.);
#338 = LINE('',#339,#340);
#339 = CARTESIAN_POINT('',(-7.499999999975,-1.985786437627,2.2));
#340 = VECTOR('',#341,1.);
#341 = DIRECTION('',(1.,0.,0.));
#342 = ORIENTED_EDGE('',*,*,#91,.F.);
#343 = ORIENTED_EDGE('',*,*,#344,.F.);
#344 = EDGE_CURVE('',#330,#92,#345,.T.);
#345 = LINE('',#346,#347);
#346 = CARTESIAN_POINT('',(-7.499999999975,-0.385786437627,2.2));
#347 = VECTOR('',#348,1.);
#348 = DIRECTION('',(1.,0.,0.));
#349 = PLANE('',#350);
#350 = AXIS2_PLACEMENT_3D('',#351,#352,#353);
#351 = CARTESIAN_POINT('',(-7.499999999975,-1.985786437627,2.2));
#352 = DIRECTION('',(0.,0.,1.));
#353 = DIRECTION('',(0.,1.,0.));
#354 = ADVANCED_FACE('',(#355),#373,.F.);
#355 = FACE_BOUND('',#356,.F.);
#356 = EDGE_LOOP('',(#357,#365,#366,#367));
#357 = ORIENTED_EDGE('',*,*,#358,.F.);
#358 = EDGE_CURVE('',#330,#359,#361,.T.);
#359 = VERTEX_POINT('',#360);
#360 = CARTESIAN_POINT('',(-7.499999999975,-0.385786437627,16.8));
#361 = LINE('',#362,#363);
#362 = CARTESIAN_POINT('',(-7.499999999975,-0.385786437627,2.2));
#363 = VECTOR('',#364,1.);
#364 = DIRECTION('',(0.,0.,1.));
#365 = ORIENTED_EDGE('',*,*,#344,.T.);
#366 = ORIENTED_EDGE('',*,*,#117,.F.);
#367 = ORIENTED_EDGE('',*,*,#368,.F.);
#368 = EDGE_CURVE('',#359,#110,#369,.T.);
#369 = LINE('',#370,#371);
#370 = CARTESIAN_POINT('',(-7.499999999975,-0.385786437627,16.8));
#371 = VECTOR('',#372,1.);
#372 = DIRECTION('',(1.,0.,0.));
#373 = PLANE('',#374);
#374 = AXIS2_PLACEMENT_3D('',#375,#376,#377);
#375 = CARTESIAN_POINT('',(-7.499999999975,-0.385786437627,2.2));
#376 = DIRECTION('',(0.,-1.,0.));
#377 = DIRECTION('',(0.,0.,1.));
#378 = ADVANCED_FACE('',(#379),#397,.F.);
#379 = FACE_BOUND('',#380,.F.);
#380 = EDGE_LOOP('',(#381,#389,#390,#391));
#381 = ORIENTED_EDGE('',*,*,#382,.F.);
#382 = EDGE_CURVE('',#359,#383,#385,.T.);
#383 = VERTEX_POINT('',#384);
#384 = CARTESIAN_POINT('',(-7.499999999975,-1.985786437627,16.8));
#385 = LINE('',#386,#387);
#386 = CARTESIAN_POINT('',(-7.499999999975,-0.385786437627,16.8));
#387 = VECTOR('',#388,1.);
#388 = DIRECTION('',(0.,-1.,0.));
#389 = ORIENTED_EDGE('',*,*,#368,.T.);
#390 = ORIENTED_EDGE('',*,*,#109,.F.);
#391 = ORIENTED_EDGE('',*,*,#392,.F.);
#392 = EDGE_CURVE('',#383,#102,#393,.T.);
#393 = LINE('',#394,#395);
#394 = CARTESIAN_POINT('',(-7.499999999975,-1.985786437627,16.8));
#395 = VECTOR('',#396,1.);
#396 = DIRECTION('',(1.,0.,0.));
#397 = PLANE('',#398);
#398 = AXIS2_PLACEMENT_3D('',#399,#400,#401);
#399 = CARTESIAN_POINT('',(-7.499999999975,-0.385786437627,16.8));
#400 = DIRECTION('',(0.,0.,-1.));
#401 = DIRECTION('',(0.,-1.,0.));
#402 = ADVANCED_FACE('',(#403),#414,.F.);
#403 = FACE_BOUND('',#404,.F.);
#404 = EDGE_LOOP('',(#405,#411,#412,#413));
#405 = ORIENTED_EDGE('',*,*,#406,.F.);
#406 = EDGE_CURVE('',#383,#328,#407,.T.);
#407 = LINE('',#408,#409);
#408 = CARTESIAN_POINT('',(-7.499999999975,-1.985786437627,16.8));
#409 = VECTOR('',#410,1.);
#410 = DIRECTION('',(0.,0.,-1.));
#411 = ORIENTED_EDGE('',*,*,#392,.T.);
#412 = ORIENTED_EDGE('',*,*,#101,.F.);
#413 = ORIENTED_EDGE('',*,*,#337,.F.);
#414 = PLANE('',#415);
#415 = AXIS2_PLACEMENT_3D('',#416,#417,#418);
#416 = CARTESIAN_POINT('',(-7.499999999975,-1.985786437627,16.8));
#417 = DIRECTION('',(0.,1.,0.));
#418 = DIRECTION('',(0.,0.,-1.));
#419 = ADVANCED_FACE('',(#420),#430,.T.);
#420 = FACE_BOUND('',#421,.T.);
#421 = EDGE_LOOP('',(#422,#423,#424,#425,#426,#427,#428,#429));
#422 = ORIENTED_EDGE('',*,*,#140,.T.);
#423 = ORIENTED_EDGE('',*,*,#196,.T.);
#424 = ORIENTED_EDGE('',*,*,#238,.T.);
#425 = ORIENTED_EDGE('',*,*,#294,.T.);
#426 = ORIENTED_EDGE('',*,*,#312,.T.);
#427 = ORIENTED_EDGE('',*,*,#269,.F.);
#428 = ORIENTED_EDGE('',*,*,#221,.T.);
#429 = ORIENTED_EDGE('',*,*,#171,.F.);
#430 = PLANE('',#431);
#431 = AXIS2_PLACEMENT_3D('',#432,#433,#434);
#432 = CARTESIAN_POINT('',(13.500000000025,-1.185786437627,9.5));
#433 = DIRECTION('',(1.,0.,0.));
#434 = DIRECTION('',(0.,0.,1.));
#435 = ADVANCED_FACE('',(#436),#442,.F.);
#436 = FACE_BOUND('',#437,.F.);
#437 = EDGE_LOOP('',(#438,#439,#440,#441));
#438 = ORIENTED_EDGE('',*,*,#406,.T.);
#439 = ORIENTED_EDGE('',*,*,#327,.T.);
#440 = ORIENTED_EDGE('',*,*,#358,.T.);
#441 = ORIENTED_EDGE('',*,*,#382,.T.);
#442 = PLANE('',#443);
#443 = AXIS2_PLACEMENT_3D('',#444,#445,#446);
#444 = CARTESIAN_POINT('',(-7.499999999975,-1.185786437627,9.5));
#445 = DIRECTION('',(1.,0.,0.));
#446 = DIRECTION('',(0.,0.,1.));
#447 = ( GEOMETRIC_REPRESENTATION_CONTEXT(3) 
GLOBAL_UNCERTAINTY_ASSIGNED_CONTEXT((#451)) GLOBAL_UNIT_ASSIGNED_CONTEXT
((#448,#449,#450)) REPRESENTATION_CONTEXT('Context #1',
  '3D Context with UNIT and UNCERTAINTY') );
#448 = ( LENGTH_UNIT() NAMED_UNIT(*) SI_UNIT(.MILLI.,.METRE.) );
#449 = ( NAMED_UNIT(*) PLANE_ANGLE_UNIT() SI_UNIT($,.RADIAN.) );
#450 = ( NAMED_UNIT(*) SI_UNIT($,.STERADIAN.) SOLID_ANGLE_UNIT() );
#451 = UNCERTAINTY_MEASURE_WITH_UNIT(LENGTH_MEASURE(1.E-07),#448,
  'distance_accuracy_value','confusion accuracy');
#452 = PRODUCT_RELATED_PRODUCT_CATEGORY('part',$,(#7));
#453 = MECHANICAL_DESIGN_GEOMETRIC_PRESENTATION_REPRESENTATION('',(#454)
  ,#447);
#454 = STYLED_ITEM('color',(#455),#15);
#455 = PRESENTATION_STYLE_ASSIGNMENT((#456,#462));
#456 = SURFACE_STYLE_USAGE(.BOTH.,#457);
#457 = SURFACE_SIDE_STYLE('',(#458));
#458 = SURFACE_STYLE_FILL_AREA(#459);
#459 = FILL_AREA_STYLE('',(#460));
#460 = FILL_AREA_STYLE_COLOUR('',#461);
#461 = COLOUR_RGB('',0.447058818107,0.474509808674,0.501960817233);
#462 = CURVE_STYLE('',#463,POSITIVE_LENGTH_MEASURE(0.1),#464);
#463 = DRAUGHTING_PRE_DEFINED_CURVE_FONT('continuous');
#464 = COLOUR_RGB('',9.803921802644E-02,9.803921802644E-02,
  9.803921802644E-02);
ENDSEC;
END-ISO-10303-21;
