ISO-10303-21;
HEADER;
FILE_DESCRIPTION(('FreeCAD Model'),'2;1');
FILE_NAME('Open CASCADE Shape Model','2026-01-18T06:58:58',(''),(''),
  'Open CASCADE STEP processor 7.8','FreeCAD','Unknown');
FILE_SCHEMA(('AUTOMOTIVE_DESIGN { 1 0 10303 214 1 1 1 1 }'));
ENDSEC;
DATA;
#1 = APPLICATION_PROTOCOL_DEFINITION('international standard',
  'automotive_design',2000,#2);
#2 = APPLICATION_CONTEXT(
  'core data for automotive mechanical design processes');
#3 = SHAPE_DEFINITION_REPRESENTATION(#4,#10);
#4 = PRODUCT_DEFINITION_SHAPE('','',#5);
#5 = PRODUCT_DEFINITION('design','',#6,#9);
#6 = PRODUCT_DEFINITION_FORMATION('','',#7);
#7 = PRODUCT('base','base','',(#8));
#8 = PRODUCT_CONTEXT('',#2,'mechanical');
#9 = PRODUCT_DEFINITION_CONTEXT('part definition',#2,'design');
#10 = ADVANCED_BREP_SHAPE_REPRESENTATION('',(#11,#15),#1385);
#11 = AXIS2_PLACEMENT_3D('',#12,#13,#14);
#12 = CARTESIAN_POINT('',(0.,0.,0.));
#13 = DIRECTION('',(0.,0.,1.));
#14 = DIRECTION('',(1.,0.,-0.));
#15 = MANIFOLD_SOLID_BREP('',#16);
#16 = CLOSED_SHELL('',(#17,#67,#289,#339,#361,#377,#414,#450,#488,#510,
    #532,#574,#610,#632,#666,#696,#724,#749,#771,#787,#818,#840,#862,
    #878,#915,#943,#965,#987,#1006,#1037,#1059,#1081,#1097,#1133,#1145,
    #1154,#1191,#1203,#1215,#1252,#1289,#1312,#1321,#1330,#1339,#1376));
#17 = ADVANCED_FACE('',(#18,#48),#62,.F.);
#18 = FACE_BOUND('',#19,.F.);
#19 = EDGE_LOOP('',(#20,#29,#36,#43));
#20 = ORIENTED_EDGE('',*,*,#21,.F.);
#21 = EDGE_CURVE('',#22,#24,#26,.T.);
#22 = VERTEX_POINT('',#23);
#23 = CARTESIAN_POINT('',(-53.23066200002,17.,-4.));
#24 = VERTEX_POINT('',#25);
#25 = CARTESIAN_POINT('',(-40.83066200001,17.,-4.));
#26 = B_SPLINE_CURVE_WITH_KNOTS('',1,(#27,#28),.UNSPECIFIED.,.F.,.F.,(2,
    2),(0.,12.400000000007),.PIECEWISE_BEZIER_KNOTS.);
#27 = CARTESIAN_POINT('',(-53.23066200002,17.,-4.));
#28 = CARTESIAN_POINT('',(-40.83066200001,17.,-4.));
#29 = ORIENTED_EDGE('',*,*,#30,.T.);
#30 = EDGE_CURVE('',#22,#31,#33,.T.);
#31 = VERTEX_POINT('',#32);
#32 = CARTESIAN_POINT('',(-53.23066200002,17.,11.));
#33 = B_SPLINE_CURVE_WITH_KNOTS('',1,(#34,#35),.UNSPECIFIED.,.F.,.F.,(2,
    2),(0.,15.),.PIECEWISE_BEZIER_KNOTS.);
#34 = CARTESIAN_POINT('',(-53.23066200002,17.,-4.));
#35 = CARTESIAN_POINT('',(-53.23066200002,17.,11.));
#36 = ORIENTED_EDGE('',*,*,#37,.T.);
#37 = EDGE_CURVE('',#31,#38,#40,.T.);
#38 = VERTEX_POINT('',#39);
#39 = CARTESIAN_POINT('',(-40.83066200001,17.,11.));
#40 = B_SPLINE_CURVE_WITH_KNOTS('',1,(#41,#42),.UNSPECIFIED.,.F.,.F.,(2,
    2),(-26.61533100001,-14.215331),.PIECEWISE_BEZIER_KNOTS.);
#41 = CARTESIAN_POINT('',(-53.23066200002,17.,11.));
#42 = CARTESIAN_POINT('',(-40.83066200001,17.,11.));
#43 = ORIENTED_EDGE('',*,*,#44,.F.);
#44 = EDGE_CURVE('',#24,#38,#45,.T.);
#45 = B_SPLINE_CURVE_WITH_KNOTS('',1,(#46,#47),.UNSPECIFIED.,.F.,.F.,(2,
    2),(0.,15.),.PIECEWISE_BEZIER_KNOTS.);
#46 = CARTESIAN_POINT('',(-40.83066200001,17.,-4.));
#47 = CARTESIAN_POINT('',(-40.83066200001,17.,11.));
#48 = FACE_BOUND('',#49,.F.);
#49 = EDGE_LOOP('',(#50));
#50 = ORIENTED_EDGE('',*,*,#51,.T.);
#51 = EDGE_CURVE('',#52,#52,#54,.T.);
#52 = VERTEX_POINT('',#53);
#53 = CARTESIAN_POINT('',(-43.73066200002,17.,5.5));
#54 = ( BOUNDED_CURVE() B_SPLINE_CURVE(2,(#55,#56,#57,#58,#59,#60,#61),
.UNSPECIFIED.,.T.,.F.) B_SPLINE_CURVE_WITH_KNOTS((1,2,2,2,2,1),(
    -2.094395102393,0.,2.094395102393,4.188790204786,6.28318530718,
8.377580409573),.UNSPECIFIED.) CURVE() GEOMETRIC_REPRESENTATION_ITEM() 
RATIONAL_B_SPLINE_CURVE((1.,0.5,1.,0.5,1.,0.5,1.)) REPRESENTATION_ITEM(
  '') );
#55 = CARTESIAN_POINT('',(-43.73066200002,17.,5.5));
#56 = CARTESIAN_POINT('',(-43.73066200002,17.,11.215767664977));
#57 = CARTESIAN_POINT('',(-48.68066200002,17.,8.357883832489));
#58 = CARTESIAN_POINT('',(-53.63066200002,17.,5.5));
#59 = CARTESIAN_POINT('',(-48.68066200002,17.,2.642116167511));
#60 = CARTESIAN_POINT('',(-43.73066200002,17.,-0.215767664977));
#61 = CARTESIAN_POINT('',(-43.73066200002,17.,5.5));
#62 = B_SPLINE_SURFACE_WITH_KNOTS('',1,1,(
    (#63,#64)
    ,(#65,#66
    )),.UNSPECIFIED.,.F.,.F.,.F.,(2,2),(2,2),(0.,12.400000000007),(-15.,
    0.),.PIECEWISE_BEZIER_KNOTS.);
#63 = CARTESIAN_POINT('',(-53.23066200002,17.,11.));
#64 = CARTESIAN_POINT('',(-53.23066200002,17.,-4.));
#65 = CARTESIAN_POINT('',(-40.83066200001,17.,11.));
#66 = CARTESIAN_POINT('',(-40.83066200001,17.,-4.));
#67 = ADVANCED_FACE('',(#68,#146,#177,#208,#222,#253),#284,.T.);
#68 = FACE_BOUND('',#69,.T.);
#69 = EDGE_LOOP('',(#70,#71,#78,#85,#92,#99,#106,#113,#120,#127,#134,
    #141));
#70 = ORIENTED_EDGE('',*,*,#21,.F.);
#71 = ORIENTED_EDGE('',*,*,#72,.T.);
#72 = EDGE_CURVE('',#22,#73,#75,.T.);
#73 = VERTEX_POINT('',#74);
#74 = CARTESIAN_POINT('',(-53.23066200002,-17.,-4.));
#75 = B_SPLINE_CURVE_WITH_KNOTS('',1,(#76,#77),.UNSPECIFIED.,.F.,.F.,(2,
    2),(3.,37.),.PIECEWISE_BEZIER_KNOTS.);
#76 = CARTESIAN_POINT('',(-53.23066200002,17.,-4.));
#77 = CARTESIAN_POINT('',(-53.23066200002,-17.,-4.));
#78 = ORIENTED_EDGE('',*,*,#79,.T.);
#79 = EDGE_CURVE('',#73,#80,#82,.T.);
#80 = VERTEX_POINT('',#81);
#81 = CARTESIAN_POINT('',(-40.83066200001,-17.,-4.));
#82 = B_SPLINE_CURVE_WITH_KNOTS('',1,(#83,#84),.UNSPECIFIED.,.F.,.F.,(2,
    2),(0.,12.400000000007),.PIECEWISE_BEZIER_KNOTS.);
#83 = CARTESIAN_POINT('',(-53.23066200002,-17.,-4.));
#84 = CARTESIAN_POINT('',(-40.83066200001,-17.,-4.));
#85 = ORIENTED_EDGE('',*,*,#86,.F.);
#86 = EDGE_CURVE('',#87,#80,#89,.T.);
#87 = VERTEX_POINT('',#88);
#88 = CARTESIAN_POINT('',(-40.83066200001,-20.00000000006,-4.));
#89 = B_SPLINE_CURVE_WITH_KNOTS('',1,(#90,#91),.UNSPECIFIED.,.F.,.F.,(2,
    2),(0.,3.000000000063),.PIECEWISE_BEZIER_KNOTS.);
#90 = CARTESIAN_POINT('',(-40.83066200001,-20.00000000006,-4.));
#91 = CARTESIAN_POINT('',(-40.83066200001,-17.,-4.));
#92 = ORIENTED_EDGE('',*,*,#93,.T.);
#93 = EDGE_CURVE('',#87,#94,#96,.T.);
#94 = VERTEX_POINT('',#95);
#95 = CARTESIAN_POINT('',(40.830662000012,-20.00000000006,-4.));
#96 = B_SPLINE_CURVE_WITH_KNOTS('',1,(#97,#98),.UNSPECIFIED.,.F.,.F.,(2,
    2),(12.400000000007,94.061324000032),.PIECEWISE_BEZIER_KNOTS.);
#97 = CARTESIAN_POINT('',(-40.83066200001,-20.,-4.));
#98 = CARTESIAN_POINT('',(40.830662000012,-20.,-4.));
#99 = ORIENTED_EDGE('',*,*,#100,.T.);
#100 = EDGE_CURVE('',#94,#101,#103,.T.);
#101 = VERTEX_POINT('',#102);
#102 = CARTESIAN_POINT('',(40.830662000012,-17.,-4.));
#103 = B_SPLINE_CURVE_WITH_KNOTS('',1,(#104,#105),.UNSPECIFIED.,.F.,.F.,
  (2,2),(0.,3.000000000063),.PIECEWISE_BEZIER_KNOTS.);
#104 = CARTESIAN_POINT('',(40.830662000012,-20.00000000006,-4.));
#105 = CARTESIAN_POINT('',(40.830662000012,-17.,-4.));
#106 = ORIENTED_EDGE('',*,*,#107,.F.);
#107 = EDGE_CURVE('',#108,#101,#110,.T.);
#108 = VERTEX_POINT('',#109);
#109 = CARTESIAN_POINT('',(53.23066200002,-17.,-4.));
#110 = B_SPLINE_CURVE_WITH_KNOTS('',1,(#111,#112),.UNSPECIFIED.,.F.,.F.,
  (2,2),(0.,12.400000000007),.PIECEWISE_BEZIER_KNOTS.);
#111 = CARTESIAN_POINT('',(53.23066200002,-17.,-4.));
#112 = CARTESIAN_POINT('',(40.830662000012,-17.,-4.));
#113 = ORIENTED_EDGE('',*,*,#114,.F.);
#114 = EDGE_CURVE('',#115,#108,#117,.T.);
#115 = VERTEX_POINT('',#116);
#116 = CARTESIAN_POINT('',(53.23066200002,17.,-4.));
#117 = B_SPLINE_CURVE_WITH_KNOTS('',1,(#118,#119),.UNSPECIFIED.,.F.,.F.,
  (2,2),(3.,37.),.PIECEWISE_BEZIER_KNOTS.);
#118 = CARTESIAN_POINT('',(53.23066200002,17.,-4.));
#119 = CARTESIAN_POINT('',(53.23066200002,-17.,-4.));
#120 = ORIENTED_EDGE('',*,*,#121,.T.);
#121 = EDGE_CURVE('',#115,#122,#124,.T.);
#122 = VERTEX_POINT('',#123);
#123 = CARTESIAN_POINT('',(40.830662000012,17.,-4.));
#124 = B_SPLINE_CURVE_WITH_KNOTS('',1,(#125,#126),.UNSPECIFIED.,.F.,.F.,
  (2,2),(0.,12.400000000007),.PIECEWISE_BEZIER_KNOTS.);
#125 = CARTESIAN_POINT('',(53.23066200002,17.,-4.));
#126 = CARTESIAN_POINT('',(40.830662000012,17.,-4.));
#127 = ORIENTED_EDGE('',*,*,#128,.F.);
#128 = EDGE_CURVE('',#129,#122,#131,.T.);
#129 = VERTEX_POINT('',#130);
#130 = CARTESIAN_POINT('',(40.830662000012,20.000000000063,-4.));
#131 = B_SPLINE_CURVE_WITH_KNOTS('',1,(#132,#133),.UNSPECIFIED.,.F.,.F.,
  (2,2),(0.,3.000000000063),.PIECEWISE_BEZIER_KNOTS.);
#132 = CARTESIAN_POINT('',(40.830662000012,20.000000000063,-4.));
#133 = CARTESIAN_POINT('',(40.830662000012,17.,-4.));
#134 = ORIENTED_EDGE('',*,*,#135,.T.);
#135 = EDGE_CURVE('',#129,#136,#138,.T.);
#136 = VERTEX_POINT('',#137);
#137 = CARTESIAN_POINT('',(-40.83066200001,20.000000000021,-4.));
#138 = B_SPLINE_CURVE_WITH_KNOTS('',1,(#139,#140),.UNSPECIFIED.,.F.,.F.,
  (2,2),(12.400000000007,94.061324000032),.PIECEWISE_BEZIER_KNOTS.);
#139 = CARTESIAN_POINT('',(40.830662000012,20.,-4.));
#140 = CARTESIAN_POINT('',(-40.83066200001,20.,-4.));
#141 = ORIENTED_EDGE('',*,*,#142,.F.);
#142 = EDGE_CURVE('',#24,#136,#143,.T.);
#143 = B_SPLINE_CURVE_WITH_KNOTS('',1,(#144,#145),.UNSPECIFIED.,.F.,.F.,
  (2,2),(0.,3.),.PIECEWISE_BEZIER_KNOTS.);
#144 = CARTESIAN_POINT('',(-40.83066200001,17.,-4.));
#145 = CARTESIAN_POINT('',(-40.83066200001,20.,-4.));
#146 = FACE_BOUND('',#147,.T.);
#147 = EDGE_LOOP('',(#148,#157,#165,#172));
#148 = ORIENTED_EDGE('',*,*,#149,.F.);
#149 = EDGE_CURVE('',#150,#152,#154,.T.);
#150 = VERTEX_POINT('',#151);
#151 = CARTESIAN_POINT('',(-19.89974874213,-2.,-4.));
#152 = VERTEX_POINT('',#153);
#153 = CARTESIAN_POINT('',(-40.83066200001,-2.,-4.));
#154 = B_SPLINE_CURVE_WITH_KNOTS('',1,(#155,#156),.UNSPECIFIED.,.F.,.F.,
  (2,2),(0.,20.93091325788),.PIECEWISE_BEZIER_KNOTS.);
#155 = CARTESIAN_POINT('',(-19.89974874213,-2.,-4.));
#156 = CARTESIAN_POINT('',(-40.83066200001,-2.,-4.));
#157 = ORIENTED_EDGE('',*,*,#158,.T.);
#158 = EDGE_CURVE('',#150,#159,#161,.T.);
#159 = VERTEX_POINT('',#160);
#160 = CARTESIAN_POINT('',(-12.,-15.99999999999,-4.));
#161 = ( BOUNDED_CURVE() B_SPLINE_CURVE(2,(#162,#163,#164),
.UNSPECIFIED.,.F.,.F.) B_SPLINE_CURVE_WITH_KNOTS((3,3),(3.241760074751,
4.068887871591),.PIECEWISE_BEZIER_KNOTS.) CURVE() 
GEOMETRIC_REPRESENTATION_ITEM() RATIONAL_B_SPLINE_CURVE((1.,
0.915694398329,1.)) REPRESENTATION_ITEM('') );
#162 = CARTESIAN_POINT('',(-19.89974874213,-2.,-4.));
#163 = CARTESIAN_POINT('',(-19.02199888189,-10.73350083857,-4.));
#164 = CARTESIAN_POINT('',(-12.,-15.99999999999,-4.));
#165 = ORIENTED_EDGE('',*,*,#166,.F.);
#166 = EDGE_CURVE('',#167,#159,#169,.T.);
#167 = VERTEX_POINT('',#168);
#168 = CARTESIAN_POINT('',(-40.83066200001,-15.99999999999,-4.));
#169 = B_SPLINE_CURVE_WITH_KNOTS('',1,(#170,#171),.UNSPECIFIED.,.F.,.F.,
  (2,2),(0.,28.830662000011),.PIECEWISE_BEZIER_KNOTS.);
#170 = CARTESIAN_POINT('',(-40.83066200001,-15.99999999999,-4.));
#171 = CARTESIAN_POINT('',(-12.,-15.99999999999,-4.));
#172 = ORIENTED_EDGE('',*,*,#173,.T.);
#173 = EDGE_CURVE('',#167,#152,#174,.T.);
#174 = B_SPLINE_CURVE_WITH_KNOTS('',1,(#175,#176),.UNSPECIFIED.,.F.,.F.,
  (2,2),(4.000000000064,18.000000000063),.PIECEWISE_BEZIER_KNOTS.);
#175 = CARTESIAN_POINT('',(-40.83066200001,-15.99999999999,-4.));
#176 = CARTESIAN_POINT('',(-40.83066200001,-2.,-4.));
#177 = FACE_BOUND('',#178,.T.);
#178 = EDGE_LOOP('',(#179,#189,#196,#203));
#179 = ORIENTED_EDGE('',*,*,#180,.T.);
#180 = EDGE_CURVE('',#181,#183,#185,.T.);
#181 = VERTEX_POINT('',#182);
#182 = CARTESIAN_POINT('',(12.000000000001,-15.99999999999,-4.));
#183 = VERTEX_POINT('',#184);
#184 = CARTESIAN_POINT('',(19.899748742132,-2.,-4.));
#185 = ( BOUNDED_CURVE() B_SPLINE_CURVE(2,(#186,#187,#188),
.UNSPECIFIED.,.F.,.F.) B_SPLINE_CURVE_WITH_KNOTS((3,3),(5.355890089178,
6.183017886018),.PIECEWISE_BEZIER_KNOTS.) CURVE() 
GEOMETRIC_REPRESENTATION_ITEM() RATIONAL_B_SPLINE_CURVE((1.,
0.915694398329,1.)) REPRESENTATION_ITEM('') );
#186 = CARTESIAN_POINT('',(12.000000000001,-15.99999999999,-4.));
#187 = CARTESIAN_POINT('',(19.021998881896,-10.73350083857,-4.));
#188 = CARTESIAN_POINT('',(19.899748742132,-2.,-4.));
#189 = ORIENTED_EDGE('',*,*,#190,.T.);
#190 = EDGE_CURVE('',#183,#191,#193,.T.);
#191 = VERTEX_POINT('',#192);
#192 = CARTESIAN_POINT('',(40.830662000012,-2.,-4.));
#193 = B_SPLINE_CURVE_WITH_KNOTS('',1,(#194,#195),.UNSPECIFIED.,.F.,.F.,
  (2,2),(0.,20.93091325788),.PIECEWISE_BEZIER_KNOTS.);
#194 = CARTESIAN_POINT('',(19.899748742132,-2.,-4.));
#195 = CARTESIAN_POINT('',(40.830662000012,-2.,-4.));
#196 = ORIENTED_EDGE('',*,*,#197,.F.);
#197 = EDGE_CURVE('',#198,#191,#200,.T.);
#198 = VERTEX_POINT('',#199);
#199 = CARTESIAN_POINT('',(40.830662000012,-15.99999999999,-4.));
#200 = B_SPLINE_CURVE_WITH_KNOTS('',1,(#201,#202),.UNSPECIFIED.,.F.,.F.,
  (2,2),(4.000000000064,18.000000000063),.PIECEWISE_BEZIER_KNOTS.);
#201 = CARTESIAN_POINT('',(40.830662000012,-15.99999999999,-4.));
#202 = CARTESIAN_POINT('',(40.830662000012,-2.,-4.));
#203 = ORIENTED_EDGE('',*,*,#204,.T.);
#204 = EDGE_CURVE('',#198,#181,#205,.T.);
#205 = B_SPLINE_CURVE_WITH_KNOTS('',1,(#206,#207),.UNSPECIFIED.,.F.,.F.,
  (2,2),(0.,28.830662000011),.PIECEWISE_BEZIER_KNOTS.);
#206 = CARTESIAN_POINT('',(40.830662000012,-15.99999999999,-4.));
#207 = CARTESIAN_POINT('',(12.000000000001,-15.99999999999,-4.));
#208 = FACE_BOUND('',#209,.T.);
#209 = EDGE_LOOP('',(#210));
#210 = ORIENTED_EDGE('',*,*,#211,.T.);
#211 = EDGE_CURVE('',#212,#212,#214,.T.);
#212 = VERTEX_POINT('',#213);
#213 = CARTESIAN_POINT('',(6.5,0.,-4.));
#214 = ( BOUNDED_CURVE() B_SPLINE_CURVE(2,(#215,#216,#217,#218,#219,#220
,#221),.UNSPECIFIED.,.T.,.F.) B_SPLINE_CURVE_WITH_KNOTS((1,2,2,2,2,1),(
    -2.094395102393,0.,2.094395102393,4.188790204786,6.28318530718,
8.377580409573),.UNSPECIFIED.) CURVE() GEOMETRIC_REPRESENTATION_ITEM() 
RATIONAL_B_SPLINE_CURVE((1.,0.5,1.,0.5,1.,0.5,1.)) REPRESENTATION_ITEM(
  '') );
#215 = CARTESIAN_POINT('',(6.5,0.,-4.));
#216 = CARTESIAN_POINT('',(6.5,-11.25833024919,-4.));
#217 = CARTESIAN_POINT('',(-3.25,-5.629165124599,-4.));
#218 = CARTESIAN_POINT('',(-13.,-1.59E-15,-4.));
#219 = CARTESIAN_POINT('',(-3.25,5.629165124599,-4.));
#220 = CARTESIAN_POINT('',(6.5,11.258330249198,-4.));
#221 = CARTESIAN_POINT('',(6.5,0.,-4.));
#222 = FACE_BOUND('',#223,.T.);
#223 = EDGE_LOOP('',(#224,#233,#240,#248));
#224 = ORIENTED_EDGE('',*,*,#225,.T.);
#225 = EDGE_CURVE('',#226,#228,#230,.T.);
#226 = VERTEX_POINT('',#227);
#227 = CARTESIAN_POINT('',(-40.83066200001,2.,-4.));
#228 = VERTEX_POINT('',#229);
#229 = CARTESIAN_POINT('',(-40.83066200001,15.999999999999,-4.));
#230 = B_SPLINE_CURVE_WITH_KNOTS('',1,(#231,#232),.UNSPECIFIED.,.F.,.F.,
  (2,2),(4.,17.999999999999),.PIECEWISE_BEZIER_KNOTS.);
#231 = CARTESIAN_POINT('',(-40.83066200001,2.,-4.));
#232 = CARTESIAN_POINT('',(-40.83066200001,15.999999999999,-4.));
#233 = ORIENTED_EDGE('',*,*,#234,.T.);
#234 = EDGE_CURVE('',#228,#235,#237,.T.);
#235 = VERTEX_POINT('',#236);
#236 = CARTESIAN_POINT('',(-12.,15.999999999999,-4.));
#237 = B_SPLINE_CURVE_WITH_KNOTS('',1,(#238,#239),.UNSPECIFIED.,.F.,.F.,
  (2,2),(0.,28.830662000011),.PIECEWISE_BEZIER_KNOTS.);
#238 = CARTESIAN_POINT('',(-40.83066200001,15.999999999999,-4.));
#239 = CARTESIAN_POINT('',(-12.,15.999999999999,-4.));
#240 = ORIENTED_EDGE('',*,*,#241,.T.);
#241 = EDGE_CURVE('',#235,#242,#244,.T.);
#242 = VERTEX_POINT('',#243);
#243 = CARTESIAN_POINT('',(-19.89974874213,2.,-4.));
#244 = ( BOUNDED_CURVE() B_SPLINE_CURVE(2,(#245,#246,#247),
.UNSPECIFIED.,.F.,.F.) B_SPLINE_CURVE_WITH_KNOTS((3,3),(2.214297435588,
3.041425232428),.PIECEWISE_BEZIER_KNOTS.) CURVE() 
GEOMETRIC_REPRESENTATION_ITEM() RATIONAL_B_SPLINE_CURVE((1.,
0.915694398329,1.)) REPRESENTATION_ITEM('') );
#245 = CARTESIAN_POINT('',(-12.,15.999999999999,-4.));
#246 = CARTESIAN_POINT('',(-19.02199888189,10.733500838578,-4.));
#247 = CARTESIAN_POINT('',(-19.89974874213,2.,-4.));
#248 = ORIENTED_EDGE('',*,*,#249,.T.);
#249 = EDGE_CURVE('',#242,#226,#250,.T.);
#250 = B_SPLINE_CURVE_WITH_KNOTS('',1,(#251,#252),.UNSPECIFIED.,.F.,.F.,
  (2,2),(0.,20.93091325788),.PIECEWISE_BEZIER_KNOTS.);
#251 = CARTESIAN_POINT('',(-19.89974874213,2.,-4.));
#252 = CARTESIAN_POINT('',(-40.83066200001,2.,-4.));
#253 = FACE_BOUND('',#254,.T.);
#254 = EDGE_LOOP('',(#255,#265,#272,#279));
#255 = ORIENTED_EDGE('',*,*,#256,.T.);
#256 = EDGE_CURVE('',#257,#259,#261,.T.);
#257 = VERTEX_POINT('',#258);
#258 = CARTESIAN_POINT('',(19.899748742132,2.,-4.));
#259 = VERTEX_POINT('',#260);
#260 = CARTESIAN_POINT('',(12.000000000001,15.999999999999,-4.));
#261 = ( BOUNDED_CURVE() B_SPLINE_CURVE(2,(#262,#263,#264),
.UNSPECIFIED.,.F.,.F.) B_SPLINE_CURVE_WITH_KNOTS((3,3),(6.383352728341,
7.210480525181),.PIECEWISE_BEZIER_KNOTS.) CURVE() 
GEOMETRIC_REPRESENTATION_ITEM() RATIONAL_B_SPLINE_CURVE((1.,
0.915694398329,1.)) REPRESENTATION_ITEM('') );
#262 = CARTESIAN_POINT('',(19.899748742132,2.,-4.));
#263 = CARTESIAN_POINT('',(19.021998881896,10.733500838578,-4.));
#264 = CARTESIAN_POINT('',(12.000000000001,15.999999999999,-4.));
#265 = ORIENTED_EDGE('',*,*,#266,.F.);
#266 = EDGE_CURVE('',#267,#259,#269,.T.);
#267 = VERTEX_POINT('',#268);
#268 = CARTESIAN_POINT('',(40.830662000012,15.999999999999,-4.));
#269 = B_SPLINE_CURVE_WITH_KNOTS('',1,(#270,#271),.UNSPECIFIED.,.F.,.F.,
  (2,2),(0.,28.830662000011),.PIECEWISE_BEZIER_KNOTS.);
#270 = CARTESIAN_POINT('',(40.830662000012,15.999999999999,-4.));
#271 = CARTESIAN_POINT('',(12.000000000001,15.999999999999,-4.));
#272 = ORIENTED_EDGE('',*,*,#273,.F.);
#273 = EDGE_CURVE('',#274,#267,#276,.T.);
#274 = VERTEX_POINT('',#275);
#275 = CARTESIAN_POINT('',(40.830662000012,2.,-4.));
#276 = B_SPLINE_CURVE_WITH_KNOTS('',1,(#277,#278),.UNSPECIFIED.,.F.,.F.,
  (2,2),(4.,17.999999999999),.PIECEWISE_BEZIER_KNOTS.);
#277 = CARTESIAN_POINT('',(40.830662000012,2.,-4.));
#278 = CARTESIAN_POINT('',(40.830662000012,15.999999999999,-4.));
#279 = ORIENTED_EDGE('',*,*,#280,.F.);
#280 = EDGE_CURVE('',#257,#274,#281,.T.);
#281 = B_SPLINE_CURVE_WITH_KNOTS('',1,(#282,#283),.UNSPECIFIED.,.F.,.F.,
  (2,2),(0.,20.93091325788),.PIECEWISE_BEZIER_KNOTS.);
#282 = CARTESIAN_POINT('',(19.899748742132,2.,-4.));
#283 = CARTESIAN_POINT('',(40.830662000012,2.,-4.));
#284 = B_SPLINE_SURFACE_WITH_KNOTS('',1,1,(
    (#285,#286)
    ,(#287,#288
    )),.UNSPECIFIED.,.F.,.F.,.F.,(2,2),(2,2),(-53.23066200002,
    53.230662000011),(-20.00000000005,20.000000000067),
  .PIECEWISE_BEZIER_KNOTS.);
#285 = CARTESIAN_POINT('',(-53.23066200002,-20.00000000006,-4.));
#286 = CARTESIAN_POINT('',(-53.23066200002,20.000000000063,-4.));
#287 = CARTESIAN_POINT('',(53.23066200002,-20.00000000006,-4.));
#288 = CARTESIAN_POINT('',(53.23066200002,20.000000000063,-4.));
#289 = ADVANCED_FACE('',(#290),#334,.T.);
#290 = FACE_BOUND('',#291,.T.);
#291 = EDGE_LOOP('',(#292,#301,#308,#315,#320,#321,#322,#329));
#292 = ORIENTED_EDGE('',*,*,#293,.T.);
#293 = EDGE_CURVE('',#294,#296,#298,.T.);
#294 = VERTEX_POINT('',#295);
#295 = CARTESIAN_POINT('',(-53.23066200002,20.000000000032,-8.));
#296 = VERTEX_POINT('',#297);
#297 = CARTESIAN_POINT('',(-53.23066200002,-20.00000000003,-8.));
#298 = B_SPLINE_CURVE_WITH_KNOTS('',1,(#299,#300),.UNSPECIFIED.,.F.,.F.,
  (2,2),(0.,40.000000000063),.PIECEWISE_BEZIER_KNOTS.);
#299 = CARTESIAN_POINT('',(-53.23066200002,20.,-8.));
#300 = CARTESIAN_POINT('',(-53.23066200002,-20.00000000006,-8.));
#301 = ORIENTED_EDGE('',*,*,#302,.F.);
#302 = EDGE_CURVE('',#303,#296,#305,.T.);
#303 = VERTEX_POINT('',#304);
#304 = CARTESIAN_POINT('',(-53.23066200002,-20.,11.));
#305 = B_SPLINE_CURVE_WITH_KNOTS('',1,(#306,#307),.UNSPECIFIED.,.F.,.F.,
  (2,2),(-15.,4.),.PIECEWISE_BEZIER_KNOTS.);
#306 = CARTESIAN_POINT('',(-53.23066200002,-20.00000000006,11.));
#307 = CARTESIAN_POINT('',(-53.23066200002,-20.00000000006,-8.));
#308 = ORIENTED_EDGE('',*,*,#309,.T.);
#309 = EDGE_CURVE('',#303,#310,#312,.T.);
#310 = VERTEX_POINT('',#311);
#311 = CARTESIAN_POINT('',(-53.23066200002,-17.,11.));
#312 = B_SPLINE_CURVE_WITH_KNOTS('',1,(#313,#314),.UNSPECIFIED.,.F.,.F.,
  (2,2),(-10.,-7.),.PIECEWISE_BEZIER_KNOTS.);
#313 = CARTESIAN_POINT('',(-53.23066200002,-20.,11.));
#314 = CARTESIAN_POINT('',(-53.23066200002,-17.,11.));
#315 = ORIENTED_EDGE('',*,*,#316,.F.);
#316 = EDGE_CURVE('',#73,#310,#317,.T.);
#317 = B_SPLINE_CURVE_WITH_KNOTS('',1,(#318,#319),.UNSPECIFIED.,.F.,.F.,
  (2,2),(0.,15.),.PIECEWISE_BEZIER_KNOTS.);
#318 = CARTESIAN_POINT('',(-53.23066200002,-17.,-4.));
#319 = CARTESIAN_POINT('',(-53.23066200002,-17.,11.));
#320 = ORIENTED_EDGE('',*,*,#72,.F.);
#321 = ORIENTED_EDGE('',*,*,#30,.T.);
#322 = ORIENTED_EDGE('',*,*,#323,.F.);
#323 = EDGE_CURVE('',#324,#31,#326,.T.);
#324 = VERTEX_POINT('',#325);
#325 = CARTESIAN_POINT('',(-53.23066200002,20.,11.));
#326 = B_SPLINE_CURVE_WITH_KNOTS('',1,(#327,#328),.UNSPECIFIED.,.F.,.F.,
  (2,2),(-10.,-7.),.PIECEWISE_BEZIER_KNOTS.);
#327 = CARTESIAN_POINT('',(-53.23066200002,20.,11.));
#328 = CARTESIAN_POINT('',(-53.23066200002,17.,11.));
#329 = ORIENTED_EDGE('',*,*,#330,.F.);
#330 = EDGE_CURVE('',#294,#324,#331,.T.);
#331 = B_SPLINE_CURVE_WITH_KNOTS('',1,(#332,#333),.UNSPECIFIED.,.F.,.F.,
  (2,2),(-4.,15.),.PIECEWISE_BEZIER_KNOTS.);
#332 = CARTESIAN_POINT('',(-53.23066200002,20.,-8.));
#333 = CARTESIAN_POINT('',(-53.23066200002,20.,11.));
#334 = B_SPLINE_SURFACE_WITH_KNOTS('',1,1,(
    (#335,#336)
    ,(#337,#338
    )),.UNSPECIFIED.,.F.,.F.,.F.,(2,2),(2,2),(-12.54054054054,
    6.459459459457),(-20.00000000001,20.000000000053),
  .PIECEWISE_BEZIER_KNOTS.);
#335 = CARTESIAN_POINT('',(-53.23066200002,20.,11.));
#336 = CARTESIAN_POINT('',(-53.23066200002,-20.00000000006,11.));
#337 = CARTESIAN_POINT('',(-53.23066200002,20.,-8.));
#338 = CARTESIAN_POINT('',(-53.23066200002,-20.00000000006,-8.));
#339 = ADVANCED_FACE('',(#340),#356,.F.);
#340 = FACE_BOUND('',#341,.F.);
#341 = EDGE_LOOP('',(#342,#343,#344,#351));
#342 = ORIENTED_EDGE('',*,*,#142,.F.);
#343 = ORIENTED_EDGE('',*,*,#44,.T.);
#344 = ORIENTED_EDGE('',*,*,#345,.T.);
#345 = EDGE_CURVE('',#38,#346,#348,.T.);
#346 = VERTEX_POINT('',#347);
#347 = CARTESIAN_POINT('',(-40.83066200001,20.,11.));
#348 = B_SPLINE_CURVE_WITH_KNOTS('',1,(#349,#350),.UNSPECIFIED.,.F.,.F.,
  (2,2),(8.5,11.5),.PIECEWISE_BEZIER_KNOTS.);
#349 = CARTESIAN_POINT('',(-40.83066200001,17.,11.));
#350 = CARTESIAN_POINT('',(-40.83066200001,20.,11.));
#351 = ORIENTED_EDGE('',*,*,#352,.F.);
#352 = EDGE_CURVE('',#136,#346,#353,.T.);
#353 = B_SPLINE_CURVE_WITH_KNOTS('',1,(#354,#355),.UNSPECIFIED.,.F.,.F.,
  (2,2),(0.,15.),.PIECEWISE_BEZIER_KNOTS.);
#354 = CARTESIAN_POINT('',(-40.83066200001,20.,-4.));
#355 = CARTESIAN_POINT('',(-40.83066200001,20.,11.));
#356 = B_SPLINE_SURFACE_WITH_KNOTS('',1,1,(
    (#357,#358)
    ,(#359,#360
    )),.UNSPECIFIED.,.F.,.F.,.F.,(2,2),(2,2),(0.,3.),(-15.,0.),
  .PIECEWISE_BEZIER_KNOTS.);
#357 = CARTESIAN_POINT('',(-40.83066200001,17.,11.));
#358 = CARTESIAN_POINT('',(-40.83066200001,17.,-4.));
#359 = CARTESIAN_POINT('',(-40.83066200001,20.,11.));
#360 = CARTESIAN_POINT('',(-40.83066200001,20.,-4.));
#361 = ADVANCED_FACE('',(#362),#372,.T.);
#362 = FACE_BOUND('',#363,.T.);
#363 = EDGE_LOOP('',(#364,#369,#370,#371));
#364 = ORIENTED_EDGE('',*,*,#365,.T.);
#365 = EDGE_CURVE('',#346,#324,#366,.T.);
#366 = B_SPLINE_CURVE_WITH_KNOTS('',1,(#367,#368),.UNSPECIFIED.,.F.,.F.,
  (2,2),(20.415331000006,32.815331000014),.PIECEWISE_BEZIER_KNOTS.);
#367 = CARTESIAN_POINT('',(-40.83066200001,20.,11.));
#368 = CARTESIAN_POINT('',(-53.23066200002,20.,11.));
#369 = ORIENTED_EDGE('',*,*,#323,.T.);
#370 = ORIENTED_EDGE('',*,*,#37,.T.);
#371 = ORIENTED_EDGE('',*,*,#345,.T.);
#372 = B_SPLINE_SURFACE_WITH_KNOTS('',1,1,(
    (#373,#374)
    ,(#375,#376
    )),.UNSPECIFIED.,.F.,.F.,.F.,(2,2),(2,2),(-53.23066200002,
    -40.83066200001),(17.,20.),.PIECEWISE_BEZIER_KNOTS.);
#373 = CARTESIAN_POINT('',(-53.23066200002,17.,11.));
#374 = CARTESIAN_POINT('',(-53.23066200002,20.,11.));
#375 = CARTESIAN_POINT('',(-40.83066200001,17.,11.));
#376 = CARTESIAN_POINT('',(-40.83066200001,20.,11.));
#377 = ADVANCED_FACE('',(#378),#399,.F.);
#378 = FACE_BOUND('',#379,.F.);
#379 = EDGE_LOOP('',(#380,#387,#388,#389));
#380 = ORIENTED_EDGE('',*,*,#381,.F.);
#381 = EDGE_CURVE('',#52,#382,#384,.T.);
#382 = VERTEX_POINT('',#383);
#383 = CARTESIAN_POINT('',(-43.73066200002,7.2,5.5));
#384 = B_SPLINE_CURVE_WITH_KNOTS('',1,(#385,#386),.UNSPECIFIED.,.F.,.F.,
  (2,2),(0.,9.8),.PIECEWISE_BEZIER_KNOTS.);
#385 = CARTESIAN_POINT('',(-43.73066200002,17.,5.5));
#386 = CARTESIAN_POINT('',(-43.73066200002,7.2,5.5));
#387 = ORIENTED_EDGE('',*,*,#51,.F.);
#388 = ORIENTED_EDGE('',*,*,#381,.T.);
#389 = ORIENTED_EDGE('',*,*,#390,.F.);
#390 = EDGE_CURVE('',#382,#382,#391,.T.);
#391 = ( BOUNDED_CURVE() B_SPLINE_CURVE(2,(#392,#393,#394,#395,#396,#397
,#398),.UNSPECIFIED.,.T.,.F.) B_SPLINE_CURVE_WITH_KNOTS((1,2,2,2,2,1),(
    -2.094395102393,0.,2.094395102393,4.188790204786,6.28318530718,
8.377580409573),.UNSPECIFIED.) CURVE() GEOMETRIC_REPRESENTATION_ITEM() 
RATIONAL_B_SPLINE_CURVE((1.,0.5,1.,0.5,1.,0.5,1.)) REPRESENTATION_ITEM(
  '') );
#392 = CARTESIAN_POINT('',(-43.73066200002,7.2,5.5));
#393 = CARTESIAN_POINT('',(-43.73066200002,7.2,-0.215767664977));
#394 = CARTESIAN_POINT('',(-48.68066200002,7.2,2.642116167511));
#395 = CARTESIAN_POINT('',(-53.63066200002,7.2,5.5));
#396 = CARTESIAN_POINT('',(-48.68066200002,7.2,8.357883832489));
#397 = CARTESIAN_POINT('',(-43.73066200002,7.2,11.215767664977));
#398 = CARTESIAN_POINT('',(-43.73066200002,7.2,5.5));
#399 = ( BOUNDED_SURFACE() B_SPLINE_SURFACE(2,1,(
    (#400,#401)
    ,(#402,#403)
    ,(#404,#405)
    ,(#406,#407)
    ,(#408,#409)
    ,(#410,#411)
,(#412,#413
    )),.UNSPECIFIED.,.T.,.F.,.F.) B_SPLINE_SURFACE_WITH_KNOTS((1,2,2,2,2
    ,1),(2,2),(-2.094395102393,0.,2.094395102393,4.188790204786,
    6.28318530718,8.377580409573),(-9.8,0.),.UNSPECIFIED.) 
GEOMETRIC_REPRESENTATION_ITEM() RATIONAL_B_SPLINE_SURFACE((
    (1.,1.)
    ,(0.5,0.5)
    ,(1.,1.)
    ,(0.5,0.5)
    ,(1.,1.)
    ,(0.5,0.5)
,(1.,1.))) REPRESENTATION_ITEM('') SURFACE() );
#400 = CARTESIAN_POINT('',(-43.73066200002,7.2,5.5));
#401 = CARTESIAN_POINT('',(-43.73066200002,17.,5.5));
#402 = CARTESIAN_POINT('',(-43.73066200002,7.2,11.215767664977));
#403 = CARTESIAN_POINT('',(-43.73066200002,17.,11.215767664977));
#404 = CARTESIAN_POINT('',(-48.68066200002,7.2,8.357883832489));
#405 = CARTESIAN_POINT('',(-48.68066200002,17.,8.357883832489));
#406 = CARTESIAN_POINT('',(-53.63066200002,7.2,5.5));
#407 = CARTESIAN_POINT('',(-53.63066200002,17.,5.5));
#408 = CARTESIAN_POINT('',(-48.68066200002,7.2,2.642116167511));
#409 = CARTESIAN_POINT('',(-48.68066200002,17.,2.642116167511));
#410 = CARTESIAN_POINT('',(-43.73066200002,7.2,-0.215767664977));
#411 = CARTESIAN_POINT('',(-43.73066200002,17.,-0.215767664977));
#412 = CARTESIAN_POINT('',(-43.73066200002,7.2,5.5));
#413 = CARTESIAN_POINT('',(-43.73066200002,17.,5.5));
#414 = ADVANCED_FACE('',(#415,#431),#445,.T.);
#415 = FACE_BOUND('',#416,.T.);
#416 = EDGE_LOOP('',(#417,#418,#419,#426));
#417 = ORIENTED_EDGE('',*,*,#79,.F.);
#418 = ORIENTED_EDGE('',*,*,#316,.T.);
#419 = ORIENTED_EDGE('',*,*,#420,.T.);
#420 = EDGE_CURVE('',#310,#421,#423,.T.);
#421 = VERTEX_POINT('',#422);
#422 = CARTESIAN_POINT('',(-40.83066200001,-17.,11.));
#423 = B_SPLINE_CURVE_WITH_KNOTS('',1,(#424,#425),.UNSPECIFIED.,.F.,.F.,
  (2,2),(-26.61533100001,-14.215331),.PIECEWISE_BEZIER_KNOTS.);
#424 = CARTESIAN_POINT('',(-53.23066200002,-17.,11.));
#425 = CARTESIAN_POINT('',(-40.83066200001,-17.,11.));
#426 = ORIENTED_EDGE('',*,*,#427,.F.);
#427 = EDGE_CURVE('',#80,#421,#428,.T.);
#428 = B_SPLINE_CURVE_WITH_KNOTS('',1,(#429,#430),.UNSPECIFIED.,.F.,.F.,
  (2,2),(0.,15.),.PIECEWISE_BEZIER_KNOTS.);
#429 = CARTESIAN_POINT('',(-40.83066200001,-17.,-4.));
#430 = CARTESIAN_POINT('',(-40.83066200001,-17.,11.));
#431 = FACE_BOUND('',#432,.T.);
#432 = EDGE_LOOP('',(#433));
#433 = ORIENTED_EDGE('',*,*,#434,.T.);
#434 = EDGE_CURVE('',#435,#435,#437,.T.);
#435 = VERTEX_POINT('',#436);
#436 = CARTESIAN_POINT('',(-43.73066200002,-17.,5.5));
#437 = ( BOUNDED_CURVE() B_SPLINE_CURVE(2,(#438,#439,#440,#441,#442,#443
,#444),.UNSPECIFIED.,.T.,.F.) B_SPLINE_CURVE_WITH_KNOTS((1,2,2,2,2,1),(
    -2.094395102393,0.,2.094395102393,4.188790204786,6.28318530718,
8.377580409573),.UNSPECIFIED.) CURVE() GEOMETRIC_REPRESENTATION_ITEM() 
RATIONAL_B_SPLINE_CURVE((1.,0.5,1.,0.5,1.,0.5,1.)) REPRESENTATION_ITEM(
  '') );
#438 = CARTESIAN_POINT('',(-43.73066200002,-17.,5.5));
#439 = CARTESIAN_POINT('',(-43.73066200002,-17.,11.215767664977));
#440 = CARTESIAN_POINT('',(-48.68066200002,-17.,8.357883832489));
#441 = CARTESIAN_POINT('',(-53.63066200002,-17.,5.5));
#442 = CARTESIAN_POINT('',(-48.68066200002,-17.,2.642116167511));
#443 = CARTESIAN_POINT('',(-43.73066200002,-17.,-0.215767664977));
#444 = CARTESIAN_POINT('',(-43.73066200002,-17.,5.5));
#445 = B_SPLINE_SURFACE_WITH_KNOTS('',1,1,(
    (#446,#447)
    ,(#448,#449
    )),.UNSPECIFIED.,.F.,.F.,.F.,(2,2),(2,2),(0.,12.400000000007),(-15.,
    0.),.PIECEWISE_BEZIER_KNOTS.);
#446 = CARTESIAN_POINT('',(-53.23066200002,-17.,11.));
#447 = CARTESIAN_POINT('',(-53.23066200002,-17.,-4.));
#448 = CARTESIAN_POINT('',(-40.83066200001,-17.,11.));
#449 = CARTESIAN_POINT('',(-40.83066200001,-17.,-4.));
#450 = ADVANCED_FACE('',(#451),#483,.T.);
#451 = FACE_BOUND('',#452,.T.);
#452 = EDGE_LOOP('',(#453,#460,#461,#462,#463,#464,#471,#478));
#453 = ORIENTED_EDGE('',*,*,#454,.F.);
#454 = EDGE_CURVE('',#294,#455,#457,.T.);
#455 = VERTEX_POINT('',#456);
#456 = CARTESIAN_POINT('',(53.23066200002,20.000000000032,-8.));
#457 = B_SPLINE_CURVE_WITH_KNOTS('',1,(#458,#459),.UNSPECIFIED.,.F.,.F.,
  (2,2),(0.,106.46132400003),.PIECEWISE_BEZIER_KNOTS.);
#458 = CARTESIAN_POINT('',(-53.23066200002,20.,-8.));
#459 = CARTESIAN_POINT('',(53.23066200002,20.,-8.));
#460 = ORIENTED_EDGE('',*,*,#330,.T.);
#461 = ORIENTED_EDGE('',*,*,#365,.F.);
#462 = ORIENTED_EDGE('',*,*,#352,.F.);
#463 = ORIENTED_EDGE('',*,*,#135,.F.);
#464 = ORIENTED_EDGE('',*,*,#465,.T.);
#465 = EDGE_CURVE('',#129,#466,#468,.T.);
#466 = VERTEX_POINT('',#467);
#467 = CARTESIAN_POINT('',(40.830662000012,20.,11.));
#468 = B_SPLINE_CURVE_WITH_KNOTS('',1,(#469,#470),.UNSPECIFIED.,.F.,.F.,
  (2,2),(0.,15.),.PIECEWISE_BEZIER_KNOTS.);
#469 = CARTESIAN_POINT('',(40.830662000012,20.,-4.));
#470 = CARTESIAN_POINT('',(40.830662000012,20.,11.));
#471 = ORIENTED_EDGE('',*,*,#472,.T.);
#472 = EDGE_CURVE('',#466,#473,#475,.T.);
#473 = VERTEX_POINT('',#474);
#474 = CARTESIAN_POINT('',(53.23066200002,20.,11.));
#475 = B_SPLINE_CURVE_WITH_KNOTS('',1,(#476,#477),.UNSPECIFIED.,.F.,.F.,
  (2,2),(20.415331000006,32.815331000014),.PIECEWISE_BEZIER_KNOTS.);
#476 = CARTESIAN_POINT('',(40.830662000012,20.,11.));
#477 = CARTESIAN_POINT('',(53.23066200002,20.,11.));
#478 = ORIENTED_EDGE('',*,*,#479,.F.);
#479 = EDGE_CURVE('',#455,#473,#480,.T.);
#480 = B_SPLINE_CURVE_WITH_KNOTS('',1,(#481,#482),.UNSPECIFIED.,.F.,.F.,
  (2,2),(-4.,15.),.PIECEWISE_BEZIER_KNOTS.);
#481 = CARTESIAN_POINT('',(53.23066200002,20.,-8.));
#482 = CARTESIAN_POINT('',(53.23066200002,20.,11.));
#483 = B_SPLINE_SURFACE_WITH_KNOTS('',1,1,(
    (#484,#485)
    ,(#486,#487
    )),.UNSPECIFIED.,.F.,.F.,.F.,(2,2),(2,2),(-5.35323622608,
    13.64676377392),(-53.23066200002,53.23066200002),
  .PIECEWISE_BEZIER_KNOTS.);
#484 = CARTESIAN_POINT('',(-53.23066200002,20.,-8.));
#485 = CARTESIAN_POINT('',(53.23066200002,20.,-8.));
#486 = CARTESIAN_POINT('',(-53.23066200002,20.,11.));
#487 = CARTESIAN_POINT('',(53.23066200002,20.,11.));
#488 = ADVANCED_FACE('',(#489),#505,.T.);
#489 = FACE_BOUND('',#490,.T.);
#490 = EDGE_LOOP('',(#491,#492,#493,#500));
#491 = ORIENTED_EDGE('',*,*,#86,.T.);
#492 = ORIENTED_EDGE('',*,*,#427,.T.);
#493 = ORIENTED_EDGE('',*,*,#494,.T.);
#494 = EDGE_CURVE('',#421,#495,#497,.T.);
#495 = VERTEX_POINT('',#496);
#496 = CARTESIAN_POINT('',(-40.83066200001,-20.,11.));
#497 = B_SPLINE_CURVE_WITH_KNOTS('',1,(#498,#499),.UNSPECIFIED.,.F.,.F.,
  (2,2),(8.5,11.5),.PIECEWISE_BEZIER_KNOTS.);
#498 = CARTESIAN_POINT('',(-40.83066200001,-17.,11.));
#499 = CARTESIAN_POINT('',(-40.83066200001,-20.,11.));
#500 = ORIENTED_EDGE('',*,*,#501,.F.);
#501 = EDGE_CURVE('',#87,#495,#502,.T.);
#502 = B_SPLINE_CURVE_WITH_KNOTS('',1,(#503,#504),.UNSPECIFIED.,.F.,.F.,
  (2,2),(0.,15.),.PIECEWISE_BEZIER_KNOTS.);
#503 = CARTESIAN_POINT('',(-40.83066200001,-20.,-4.));
#504 = CARTESIAN_POINT('',(-40.83066200001,-20.,11.));
#505 = B_SPLINE_SURFACE_WITH_KNOTS('',1,1,(
    (#506,#507)
    ,(#508,#509
    )),.UNSPECIFIED.,.F.,.F.,.F.,(2,2),(2,2),(-1.78E-15,3.000000000063),
  (-15.,4.4E-16),.PIECEWISE_BEZIER_KNOTS.);
#506 = CARTESIAN_POINT('',(-40.83066200001,-17.,11.));
#507 = CARTESIAN_POINT('',(-40.83066200001,-17.,-4.));
#508 = CARTESIAN_POINT('',(-40.83066200001,-20.00000000006,11.));
#509 = CARTESIAN_POINT('',(-40.83066200001,-20.00000000006,-4.));
#510 = ADVANCED_FACE('',(#511),#527,.T.);
#511 = FACE_BOUND('',#512,.T.);
#512 = EDGE_LOOP('',(#513,#514,#521,#526));
#513 = ORIENTED_EDGE('',*,*,#128,.T.);
#514 = ORIENTED_EDGE('',*,*,#515,.T.);
#515 = EDGE_CURVE('',#122,#516,#518,.T.);
#516 = VERTEX_POINT('',#517);
#517 = CARTESIAN_POINT('',(40.830662000012,17.,11.));
#518 = B_SPLINE_CURVE_WITH_KNOTS('',1,(#519,#520),.UNSPECIFIED.,.F.,.F.,
  (2,2),(0.,15.),.PIECEWISE_BEZIER_KNOTS.);
#519 = CARTESIAN_POINT('',(40.830662000012,17.,-4.));
#520 = CARTESIAN_POINT('',(40.830662000012,17.,11.));
#521 = ORIENTED_EDGE('',*,*,#522,.T.);
#522 = EDGE_CURVE('',#516,#466,#523,.T.);
#523 = B_SPLINE_CURVE_WITH_KNOTS('',1,(#524,#525),.UNSPECIFIED.,.F.,.F.,
  (2,2),(8.5,11.5),.PIECEWISE_BEZIER_KNOTS.);
#524 = CARTESIAN_POINT('',(40.830662000012,17.,11.));
#525 = CARTESIAN_POINT('',(40.830662000012,20.,11.));
#526 = ORIENTED_EDGE('',*,*,#465,.F.);
#527 = B_SPLINE_SURFACE_WITH_KNOTS('',1,1,(
    (#528,#529)
    ,(#530,#531
    )),.UNSPECIFIED.,.F.,.F.,.F.,(2,2),(2,2),(0.,3.000000000063),(-15.,
    0.),.PIECEWISE_BEZIER_KNOTS.);
#528 = CARTESIAN_POINT('',(40.830662000012,17.,11.));
#529 = CARTESIAN_POINT('',(40.830662000012,17.,-4.));
#530 = CARTESIAN_POINT('',(40.830662000012,20.000000000063,11.));
#531 = CARTESIAN_POINT('',(40.830662000012,20.000000000063,-4.));
#532 = ADVANCED_FACE('',(#533),#569,.T.);
#533 = FACE_BOUND('',#534,.T.);
#534 = EDGE_LOOP('',(#535,#536,#543,#550,#557,#562,#563,#564));
#535 = ORIENTED_EDGE('',*,*,#302,.T.);
#536 = ORIENTED_EDGE('',*,*,#537,.F.);
#537 = EDGE_CURVE('',#538,#296,#540,.T.);
#538 = VERTEX_POINT('',#539);
#539 = CARTESIAN_POINT('',(53.23066200002,-20.00000000003,-8.));
#540 = B_SPLINE_CURVE_WITH_KNOTS('',1,(#541,#542),.UNSPECIFIED.,.F.,.F.,
  (2,2),(0.,106.46132400003),.PIECEWISE_BEZIER_KNOTS.);
#541 = CARTESIAN_POINT('',(53.23066200002,-20.00000000006,-8.));
#542 = CARTESIAN_POINT('',(-53.23066200002,-20.00000000006,-8.));
#543 = ORIENTED_EDGE('',*,*,#544,.F.);
#544 = EDGE_CURVE('',#545,#538,#547,.T.);
#545 = VERTEX_POINT('',#546);
#546 = CARTESIAN_POINT('',(53.23066200002,-20.,11.));
#547 = B_SPLINE_CURVE_WITH_KNOTS('',1,(#548,#549),.UNSPECIFIED.,.F.,.F.,
  (2,2),(-15.,4.),.PIECEWISE_BEZIER_KNOTS.);
#548 = CARTESIAN_POINT('',(53.23066200002,-20.00000000006,11.));
#549 = CARTESIAN_POINT('',(53.23066200002,-20.00000000006,-8.));
#550 = ORIENTED_EDGE('',*,*,#551,.F.);
#551 = EDGE_CURVE('',#552,#545,#554,.T.);
#552 = VERTEX_POINT('',#553);
#553 = CARTESIAN_POINT('',(40.830662000012,-20.,11.));
#554 = B_SPLINE_CURVE_WITH_KNOTS('',1,(#555,#556),.UNSPECIFIED.,.F.,.F.,
  (2,2),(20.415331000006,32.815331000014),.PIECEWISE_BEZIER_KNOTS.);
#555 = CARTESIAN_POINT('',(40.830662000012,-20.,11.));
#556 = CARTESIAN_POINT('',(53.23066200002,-20.,11.));
#557 = ORIENTED_EDGE('',*,*,#558,.F.);
#558 = EDGE_CURVE('',#94,#552,#559,.T.);
#559 = B_SPLINE_CURVE_WITH_KNOTS('',1,(#560,#561),.UNSPECIFIED.,.F.,.F.,
  (2,2),(0.,15.),.PIECEWISE_BEZIER_KNOTS.);
#560 = CARTESIAN_POINT('',(40.830662000012,-20.,-4.));
#561 = CARTESIAN_POINT('',(40.830662000012,-20.,11.));
#562 = ORIENTED_EDGE('',*,*,#93,.F.);
#563 = ORIENTED_EDGE('',*,*,#501,.T.);
#564 = ORIENTED_EDGE('',*,*,#565,.T.);
#565 = EDGE_CURVE('',#495,#303,#566,.T.);
#566 = B_SPLINE_CURVE_WITH_KNOTS('',1,(#567,#568),.UNSPECIFIED.,.F.,.F.,
  (2,2),(20.415331000006,32.815331000014),.PIECEWISE_BEZIER_KNOTS.);
#567 = CARTESIAN_POINT('',(-40.83066200001,-20.,11.));
#568 = CARTESIAN_POINT('',(-53.23066200002,-20.,11.));
#569 = B_SPLINE_SURFACE_WITH_KNOTS('',1,1,(
    (#570,#571)
    ,(#572,#573
    )),.UNSPECIFIED.,.F.,.F.,.F.,(2,2),(2,2),(-13.64676377392,
    5.35323622608),(-53.23066200002,53.23066200002),
  .PIECEWISE_BEZIER_KNOTS.);
#570 = CARTESIAN_POINT('',(-53.23066200002,-19.99999999999,11.));
#571 = CARTESIAN_POINT('',(53.23066200002,-19.99999999999,11.));
#572 = CARTESIAN_POINT('',(-53.23066200002,-20.00000000001,-8.));
#573 = CARTESIAN_POINT('',(53.23066200002,-20.00000000001,-8.));
#574 = ADVANCED_FACE('',(#575,#591),#605,.T.);
#575 = FACE_BOUND('',#576,.T.);
#576 = EDGE_LOOP('',(#577,#578,#585,#590));
#577 = ORIENTED_EDGE('',*,*,#121,.F.);
#578 = ORIENTED_EDGE('',*,*,#579,.T.);
#579 = EDGE_CURVE('',#115,#580,#582,.T.);
#580 = VERTEX_POINT('',#581);
#581 = CARTESIAN_POINT('',(53.23066200002,17.,11.));
#582 = B_SPLINE_CURVE_WITH_KNOTS('',1,(#583,#584),.UNSPECIFIED.,.F.,.F.,
  (2,2),(0.,15.),.PIECEWISE_BEZIER_KNOTS.);
#583 = CARTESIAN_POINT('',(53.23066200002,17.,-4.));
#584 = CARTESIAN_POINT('',(53.23066200002,17.,11.));
#585 = ORIENTED_EDGE('',*,*,#586,.T.);
#586 = EDGE_CURVE('',#580,#516,#587,.T.);
#587 = B_SPLINE_CURVE_WITH_KNOTS('',1,(#588,#589),.UNSPECIFIED.,.F.,.F.,
  (2,2),(-26.61533100001,-14.215331),.PIECEWISE_BEZIER_KNOTS.);
#588 = CARTESIAN_POINT('',(53.23066200002,17.,11.));
#589 = CARTESIAN_POINT('',(40.830662000012,17.,11.));
#590 = ORIENTED_EDGE('',*,*,#515,.F.);
#591 = FACE_BOUND('',#592,.T.);
#592 = EDGE_LOOP('',(#593));
#593 = ORIENTED_EDGE('',*,*,#594,.T.);
#594 = EDGE_CURVE('',#595,#595,#597,.T.);
#595 = VERTEX_POINT('',#596);
#596 = CARTESIAN_POINT('',(43.73066200002,17.,5.5));
#597 = ( BOUNDED_CURVE() B_SPLINE_CURVE(2,(#598,#599,#600,#601,#602,#603
,#604),.UNSPECIFIED.,.T.,.F.) B_SPLINE_CURVE_WITH_KNOTS((1,2,2,2,2,1),(
    -2.094395102393,0.,2.094395102393,4.188790204786,6.28318530718,
8.377580409573),.UNSPECIFIED.) CURVE() GEOMETRIC_REPRESENTATION_ITEM() 
RATIONAL_B_SPLINE_CURVE((1.,0.5,1.,0.5,1.,0.5,1.)) REPRESENTATION_ITEM(
  '') );
#598 = CARTESIAN_POINT('',(43.73066200002,17.,5.5));
#599 = CARTESIAN_POINT('',(43.73066200002,17.,11.215767664977));
#600 = CARTESIAN_POINT('',(48.68066200002,17.,8.357883832489));
#601 = CARTESIAN_POINT('',(53.63066200002,17.,5.5));
#602 = CARTESIAN_POINT('',(48.68066200002,17.,2.642116167511));
#603 = CARTESIAN_POINT('',(43.73066200002,17.,-0.215767664977));
#604 = CARTESIAN_POINT('',(43.73066200002,17.,5.5));
#605 = B_SPLINE_SURFACE_WITH_KNOTS('',1,1,(
    (#606,#607)
    ,(#608,#609
    )),.UNSPECIFIED.,.F.,.F.,.F.,(2,2),(2,2),(0.,12.400000000007),(-15.,
    0.),.PIECEWISE_BEZIER_KNOTS.);
#606 = CARTESIAN_POINT('',(53.23066200002,17.,11.));
#607 = CARTESIAN_POINT('',(53.23066200002,17.,-4.));
#608 = CARTESIAN_POINT('',(40.830662000012,17.,11.));
#609 = CARTESIAN_POINT('',(40.830662000012,17.,-4.));
#610 = ADVANCED_FACE('',(#611),#627,.F.);
#611 = FACE_BOUND('',#612,.F.);
#612 = EDGE_LOOP('',(#613,#614,#621,#626));
#613 = ORIENTED_EDGE('',*,*,#100,.T.);
#614 = ORIENTED_EDGE('',*,*,#615,.T.);
#615 = EDGE_CURVE('',#101,#616,#618,.T.);
#616 = VERTEX_POINT('',#617);
#617 = CARTESIAN_POINT('',(40.830662000012,-17.,11.));
#618 = B_SPLINE_CURVE_WITH_KNOTS('',1,(#619,#620),.UNSPECIFIED.,.F.,.F.,
  (2,2),(0.,15.),.PIECEWISE_BEZIER_KNOTS.);
#619 = CARTESIAN_POINT('',(40.830662000012,-17.,-4.));
#620 = CARTESIAN_POINT('',(40.830662000012,-17.,11.));
#621 = ORIENTED_EDGE('',*,*,#622,.T.);
#622 = EDGE_CURVE('',#616,#552,#623,.T.);
#623 = B_SPLINE_CURVE_WITH_KNOTS('',1,(#624,#625),.UNSPECIFIED.,.F.,.F.,
  (2,2),(8.5,11.5),.PIECEWISE_BEZIER_KNOTS.);
#624 = CARTESIAN_POINT('',(40.830662000012,-17.,11.));
#625 = CARTESIAN_POINT('',(40.830662000012,-20.,11.));
#626 = ORIENTED_EDGE('',*,*,#558,.F.);
#627 = B_SPLINE_SURFACE_WITH_KNOTS('',1,1,(
    (#628,#629)
    ,(#630,#631
    )),.UNSPECIFIED.,.F.,.F.,.F.,(2,2),(2,2),(0.,3.000000000063),(-15.,
    0.),.PIECEWISE_BEZIER_KNOTS.);
#628 = CARTESIAN_POINT('',(40.830662000012,-17.,11.));
#629 = CARTESIAN_POINT('',(40.830662000012,-17.,-4.));
#630 = CARTESIAN_POINT('',(40.830662000012,-20.00000000006,11.));
#631 = CARTESIAN_POINT('',(40.830662000012,-20.00000000006,-4.));
#632 = ADVANCED_FACE('',(#633),#661,.T.);
#633 = FACE_BOUND('',#634,.T.);
#634 = EDGE_LOOP('',(#635,#636,#641,#642,#643,#650,#655,#656));
#635 = ORIENTED_EDGE('',*,*,#479,.T.);
#636 = ORIENTED_EDGE('',*,*,#637,.T.);
#637 = EDGE_CURVE('',#473,#580,#638,.T.);
#638 = B_SPLINE_CURVE_WITH_KNOTS('',1,(#639,#640),.UNSPECIFIED.,.F.,.F.,
  (2,2),(-10.,-7.),.PIECEWISE_BEZIER_KNOTS.);
#639 = CARTESIAN_POINT('',(53.23066200002,20.,11.));
#640 = CARTESIAN_POINT('',(53.23066200002,17.,11.));
#641 = ORIENTED_EDGE('',*,*,#579,.F.);
#642 = ORIENTED_EDGE('',*,*,#114,.T.);
#643 = ORIENTED_EDGE('',*,*,#644,.T.);
#644 = EDGE_CURVE('',#108,#645,#647,.T.);
#645 = VERTEX_POINT('',#646);
#646 = CARTESIAN_POINT('',(53.23066200002,-17.,11.));
#647 = B_SPLINE_CURVE_WITH_KNOTS('',1,(#648,#649),.UNSPECIFIED.,.F.,.F.,
  (2,2),(0.,15.),.PIECEWISE_BEZIER_KNOTS.);
#648 = CARTESIAN_POINT('',(53.23066200002,-17.,-4.));
#649 = CARTESIAN_POINT('',(53.23066200002,-17.,11.));
#650 = ORIENTED_EDGE('',*,*,#651,.F.);
#651 = EDGE_CURVE('',#545,#645,#652,.T.);
#652 = B_SPLINE_CURVE_WITH_KNOTS('',1,(#653,#654),.UNSPECIFIED.,.F.,.F.,
  (2,2),(-10.,-7.),.PIECEWISE_BEZIER_KNOTS.);
#653 = CARTESIAN_POINT('',(53.23066200002,-20.,11.));
#654 = CARTESIAN_POINT('',(53.23066200002,-17.,11.));
#655 = ORIENTED_EDGE('',*,*,#544,.T.);
#656 = ORIENTED_EDGE('',*,*,#657,.F.);
#657 = EDGE_CURVE('',#455,#538,#658,.T.);
#658 = B_SPLINE_CURVE_WITH_KNOTS('',1,(#659,#660),.UNSPECIFIED.,.F.,.F.,
  (2,2),(0.,40.000000000063),.PIECEWISE_BEZIER_KNOTS.);
#659 = CARTESIAN_POINT('',(53.23066200002,20.,-8.));
#660 = CARTESIAN_POINT('',(53.23066200002,-20.00000000006,-8.));
#661 = B_SPLINE_SURFACE_WITH_KNOTS('',1,1,(
    (#662,#663)
    ,(#664,#665
    )),.UNSPECIFIED.,.F.,.F.,.F.,(2,2),(2,2),(-6.459459459457,
    12.540540540543),(-20.00000000001,20.000000000053),
  .PIECEWISE_BEZIER_KNOTS.);
#662 = CARTESIAN_POINT('',(53.23066200002,20.,-8.));
#663 = CARTESIAN_POINT('',(53.23066200002,-20.00000000006,-8.));
#664 = CARTESIAN_POINT('',(53.23066200002,20.,11.));
#665 = CARTESIAN_POINT('',(53.23066200002,-20.00000000006,11.));
#666 = ADVANCED_FACE('',(#667,#677),#691,.F.);
#667 = FACE_BOUND('',#668,.F.);
#668 = EDGE_LOOP('',(#669,#670,#671,#676));
#669 = ORIENTED_EDGE('',*,*,#107,.F.);
#670 = ORIENTED_EDGE('',*,*,#644,.T.);
#671 = ORIENTED_EDGE('',*,*,#672,.T.);
#672 = EDGE_CURVE('',#645,#616,#673,.T.);
#673 = B_SPLINE_CURVE_WITH_KNOTS('',1,(#674,#675),.UNSPECIFIED.,.F.,.F.,
  (2,2),(-26.61533100001,-14.215331),.PIECEWISE_BEZIER_KNOTS.);
#674 = CARTESIAN_POINT('',(53.23066200002,-17.,11.));
#675 = CARTESIAN_POINT('',(40.830662000012,-17.,11.));
#676 = ORIENTED_EDGE('',*,*,#615,.F.);
#677 = FACE_BOUND('',#678,.F.);
#678 = EDGE_LOOP('',(#679));
#679 = ORIENTED_EDGE('',*,*,#680,.T.);
#680 = EDGE_CURVE('',#681,#681,#683,.T.);
#681 = VERTEX_POINT('',#682);
#682 = CARTESIAN_POINT('',(43.73066200002,-17.,5.5));
#683 = ( BOUNDED_CURVE() B_SPLINE_CURVE(2,(#684,#685,#686,#687,#688,#689
,#690),.UNSPECIFIED.,.T.,.F.) B_SPLINE_CURVE_WITH_KNOTS((1,2,2,2,2,1),(
    -2.094395102393,0.,2.094395102393,4.188790204786,6.28318530718,
8.377580409573),.UNSPECIFIED.) CURVE() GEOMETRIC_REPRESENTATION_ITEM() 
RATIONAL_B_SPLINE_CURVE((1.,0.5,1.,0.5,1.,0.5,1.)) REPRESENTATION_ITEM(
  '') );
#684 = CARTESIAN_POINT('',(43.73066200002,-17.,5.5));
#685 = CARTESIAN_POINT('',(43.73066200002,-17.,11.215767664977));
#686 = CARTESIAN_POINT('',(48.68066200002,-17.,8.357883832489));
#687 = CARTESIAN_POINT('',(53.63066200002,-17.,5.5));
#688 = CARTESIAN_POINT('',(48.68066200002,-17.,2.642116167511));
#689 = CARTESIAN_POINT('',(43.73066200002,-17.,-0.215767664977));
#690 = CARTESIAN_POINT('',(43.73066200002,-17.,5.5));
#691 = B_SPLINE_SURFACE_WITH_KNOTS('',1,1,(
    (#692,#693)
    ,(#694,#695
    )),.UNSPECIFIED.,.F.,.F.,.F.,(2,2),(2,2),(0.,12.400000000007),(-15.,
    0.),.PIECEWISE_BEZIER_KNOTS.);
#692 = CARTESIAN_POINT('',(53.23066200002,-17.,11.));
#693 = CARTESIAN_POINT('',(53.23066200002,-17.,-4.));
#694 = CARTESIAN_POINT('',(40.830662000012,-17.,11.));
#695 = CARTESIAN_POINT('',(40.830662000012,-17.,-4.));
#696 = ADVANCED_FACE('',(#697),#719,.F.);
#697 = FACE_BOUND('',#698,.F.);
#698 = EDGE_LOOP('',(#699,#706,#713,#718));
#699 = ORIENTED_EDGE('',*,*,#700,.T.);
#700 = EDGE_CURVE('',#150,#701,#703,.T.);
#701 = VERTEX_POINT('',#702);
#702 = CARTESIAN_POINT('',(-19.89974874213,-2.,-8.));
#703 = B_SPLINE_CURVE_WITH_KNOTS('',1,(#704,#705),.UNSPECIFIED.,.F.,.F.,
  (2,2),(0.,4.),.PIECEWISE_BEZIER_KNOTS.);
#704 = CARTESIAN_POINT('',(-19.89974874213,-2.,-4.));
#705 = CARTESIAN_POINT('',(-19.89974874213,-2.,-8.));
#706 = ORIENTED_EDGE('',*,*,#707,.T.);
#707 = EDGE_CURVE('',#701,#708,#710,.T.);
#708 = VERTEX_POINT('',#709);
#709 = CARTESIAN_POINT('',(-40.83066200001,-2.,-8.));
#710 = B_SPLINE_CURVE_WITH_KNOTS('',1,(#711,#712),.UNSPECIFIED.,.F.,.F.,
  (2,2),(0.,20.93091325788),.PIECEWISE_BEZIER_KNOTS.);
#711 = CARTESIAN_POINT('',(-19.89974874213,-2.,-8.));
#712 = CARTESIAN_POINT('',(-40.83066200001,-2.,-8.));
#713 = ORIENTED_EDGE('',*,*,#714,.F.);
#714 = EDGE_CURVE('',#152,#708,#715,.T.);
#715 = B_SPLINE_CURVE_WITH_KNOTS('',1,(#716,#717),.UNSPECIFIED.,.F.,.F.,
  (2,2),(0.,4.),.PIECEWISE_BEZIER_KNOTS.);
#716 = CARTESIAN_POINT('',(-40.83066200001,-2.,-4.));
#717 = CARTESIAN_POINT('',(-40.83066200001,-2.,-8.));
#718 = ORIENTED_EDGE('',*,*,#149,.F.);
#719 = B_SPLINE_SURFACE_WITH_KNOTS('',1,1,(
    (#720,#721)
    ,(#722,#723
    )),.UNSPECIFIED.,.F.,.F.,.F.,(2,2),(2,2),(0.,20.93091325788),(-4.,0.
    ),.PIECEWISE_BEZIER_KNOTS.);
#720 = CARTESIAN_POINT('',(-19.89974874213,-2.,-8.));
#721 = CARTESIAN_POINT('',(-19.89974874213,-2.,-4.));
#722 = CARTESIAN_POINT('',(-40.83066200001,-2.,-8.));
#723 = CARTESIAN_POINT('',(-40.83066200001,-2.,-4.));
#724 = ADVANCED_FACE('',(#725),#742,.T.);
#725 = FACE_BOUND('',#726,.T.);
#726 = EDGE_LOOP('',(#727,#728,#729,#737));
#727 = ORIENTED_EDGE('',*,*,#158,.F.);
#728 = ORIENTED_EDGE('',*,*,#700,.T.);
#729 = ORIENTED_EDGE('',*,*,#730,.T.);
#730 = EDGE_CURVE('',#701,#731,#733,.T.);
#731 = VERTEX_POINT('',#732);
#732 = CARTESIAN_POINT('',(-12.,-15.99999999999,-8.));
#733 = ( BOUNDED_CURVE() B_SPLINE_CURVE(2,(#734,#735,#736),
.UNSPECIFIED.,.F.,.F.) B_SPLINE_CURVE_WITH_KNOTS((3,3),(3.241760074751,
4.068887871591),.PIECEWISE_BEZIER_KNOTS.) CURVE() 
GEOMETRIC_REPRESENTATION_ITEM() RATIONAL_B_SPLINE_CURVE((1.,
0.915694398329,1.)) REPRESENTATION_ITEM('') );
#734 = CARTESIAN_POINT('',(-19.89974874213,-2.,-8.));
#735 = CARTESIAN_POINT('',(-19.02199888189,-10.73350083857,-8.));
#736 = CARTESIAN_POINT('',(-12.,-15.99999999999,-8.));
#737 = ORIENTED_EDGE('',*,*,#738,.F.);
#738 = EDGE_CURVE('',#159,#731,#739,.T.);
#739 = B_SPLINE_CURVE_WITH_KNOTS('',1,(#740,#741),.UNSPECIFIED.,.F.,.F.,
  (2,2),(0.,4.),.PIECEWISE_BEZIER_KNOTS.);
#740 = CARTESIAN_POINT('',(-12.,-15.99999999999,-4.));
#741 = CARTESIAN_POINT('',(-12.,-15.99999999999,-8.));
#742 = ( BOUNDED_SURFACE() B_SPLINE_SURFACE(2,1,(
    (#743,#744)
    ,(#745,#746)
,(#747,#748
    )),.UNSPECIFIED.,.F.,.F.,.F.) B_SPLINE_SURFACE_WITH_KNOTS((3,3),(2,2
    ),(3.241760074751,4.068887871591),(-4.,0.),
.PIECEWISE_BEZIER_KNOTS.) GEOMETRIC_REPRESENTATION_ITEM() 
RATIONAL_B_SPLINE_SURFACE((
    (1.,1.)
    ,(0.915694398329,0.915694398329)
,(1.,1.))) REPRESENTATION_ITEM('') SURFACE() );
#743 = CARTESIAN_POINT('',(-19.89974874213,-2.,-8.));
#744 = CARTESIAN_POINT('',(-19.89974874213,-2.,-4.));
#745 = CARTESIAN_POINT('',(-19.02199888189,-10.73350083857,-8.));
#746 = CARTESIAN_POINT('',(-19.02199888189,-10.73350083857,-4.));
#747 = CARTESIAN_POINT('',(-12.,-15.99999999999,-8.));
#748 = CARTESIAN_POINT('',(-12.,-15.99999999999,-4.));
#749 = ADVANCED_FACE('',(#750),#766,.T.);
#750 = FACE_BOUND('',#751,.T.);
#751 = EDGE_LOOP('',(#752,#753,#760,#765));
#752 = ORIENTED_EDGE('',*,*,#173,.F.);
#753 = ORIENTED_EDGE('',*,*,#754,.T.);
#754 = EDGE_CURVE('',#167,#755,#757,.T.);
#755 = VERTEX_POINT('',#756);
#756 = CARTESIAN_POINT('',(-40.83066200001,-15.99999999999,-8.));
#757 = B_SPLINE_CURVE_WITH_KNOTS('',1,(#758,#759),.UNSPECIFIED.,.F.,.F.,
  (2,2),(0.,4.),.PIECEWISE_BEZIER_KNOTS.);
#758 = CARTESIAN_POINT('',(-40.83066200001,-15.99999999999,-4.));
#759 = CARTESIAN_POINT('',(-40.83066200001,-15.99999999999,-8.));
#760 = ORIENTED_EDGE('',*,*,#761,.T.);
#761 = EDGE_CURVE('',#755,#708,#762,.T.);
#762 = B_SPLINE_CURVE_WITH_KNOTS('',1,(#763,#764),.UNSPECIFIED.,.F.,.F.,
  (2,2),(4.000000000064,18.000000000063),.PIECEWISE_BEZIER_KNOTS.);
#763 = CARTESIAN_POINT('',(-40.83066200001,-15.99999999999,-8.));
#764 = CARTESIAN_POINT('',(-40.83066200001,-2.,-8.));
#765 = ORIENTED_EDGE('',*,*,#714,.F.);
#766 = B_SPLINE_SURFACE_WITH_KNOTS('',1,1,(
    (#767,#768)
    ,(#769,#770
    )),.UNSPECIFIED.,.F.,.F.,.F.,(2,2),(2,2),(4.000000000064,
    18.000000000063),(-4.,0.),.PIECEWISE_BEZIER_KNOTS.);
#767 = CARTESIAN_POINT('',(-40.83066200001,-15.99999999999,-8.));
#768 = CARTESIAN_POINT('',(-40.83066200001,-15.99999999999,-4.));
#769 = CARTESIAN_POINT('',(-40.83066200001,-2.,-8.));
#770 = CARTESIAN_POINT('',(-40.83066200001,-2.,-4.));
#771 = ADVANCED_FACE('',(#772),#782,.F.);
#772 = FACE_BOUND('',#773,.F.);
#773 = EDGE_LOOP('',(#774,#775,#780,#781));
#774 = ORIENTED_EDGE('',*,*,#754,.T.);
#775 = ORIENTED_EDGE('',*,*,#776,.T.);
#776 = EDGE_CURVE('',#755,#731,#777,.T.);
#777 = B_SPLINE_CURVE_WITH_KNOTS('',1,(#778,#779),.UNSPECIFIED.,.F.,.F.,
  (2,2),(0.,28.830662000011),.PIECEWISE_BEZIER_KNOTS.);
#778 = CARTESIAN_POINT('',(-40.83066200001,-15.99999999999,-8.));
#779 = CARTESIAN_POINT('',(-12.,-15.99999999999,-8.));
#780 = ORIENTED_EDGE('',*,*,#738,.F.);
#781 = ORIENTED_EDGE('',*,*,#166,.F.);
#782 = B_SPLINE_SURFACE_WITH_KNOTS('',1,1,(
    (#783,#784)
    ,(#785,#786
    )),.UNSPECIFIED.,.F.,.F.,.F.,(2,2),(2,2),(0.,28.830662000011),(-4.,
    0.),.PIECEWISE_BEZIER_KNOTS.);
#783 = CARTESIAN_POINT('',(-40.83066200001,-15.99999999999,-8.));
#784 = CARTESIAN_POINT('',(-40.83066200001,-15.99999999999,-4.));
#785 = CARTESIAN_POINT('',(-12.,-15.99999999999,-8.));
#786 = CARTESIAN_POINT('',(-12.,-15.99999999999,-4.));
#787 = ADVANCED_FACE('',(#788),#811,.T.);
#788 = FACE_BOUND('',#789,.T.);
#789 = EDGE_LOOP('',(#790,#791,#798,#806));
#790 = ORIENTED_EDGE('',*,*,#180,.F.);
#791 = ORIENTED_EDGE('',*,*,#792,.T.);
#792 = EDGE_CURVE('',#181,#793,#795,.T.);
#793 = VERTEX_POINT('',#794);
#794 = CARTESIAN_POINT('',(12.000000000001,-15.99999999999,-8.));
#795 = B_SPLINE_CURVE_WITH_KNOTS('',1,(#796,#797),.UNSPECIFIED.,.F.,.F.,
  (2,2),(0.,4.),.PIECEWISE_BEZIER_KNOTS.);
#796 = CARTESIAN_POINT('',(12.000000000001,-15.99999999999,-4.));
#797 = CARTESIAN_POINT('',(12.000000000001,-15.99999999999,-8.));
#798 = ORIENTED_EDGE('',*,*,#799,.T.);
#799 = EDGE_CURVE('',#793,#800,#802,.T.);
#800 = VERTEX_POINT('',#801);
#801 = CARTESIAN_POINT('',(19.899748742132,-2.,-8.));
#802 = ( BOUNDED_CURVE() B_SPLINE_CURVE(2,(#803,#804,#805),
.UNSPECIFIED.,.F.,.F.) B_SPLINE_CURVE_WITH_KNOTS((3,3),(5.355890089178,
6.183017886018),.PIECEWISE_BEZIER_KNOTS.) CURVE() 
GEOMETRIC_REPRESENTATION_ITEM() RATIONAL_B_SPLINE_CURVE((1.,
0.915694398329,1.)) REPRESENTATION_ITEM('') );
#803 = CARTESIAN_POINT('',(12.000000000001,-15.99999999999,-8.));
#804 = CARTESIAN_POINT('',(19.021998881896,-10.73350083857,-8.));
#805 = CARTESIAN_POINT('',(19.899748742132,-2.,-8.));
#806 = ORIENTED_EDGE('',*,*,#807,.F.);
#807 = EDGE_CURVE('',#183,#800,#808,.T.);
#808 = B_SPLINE_CURVE_WITH_KNOTS('',1,(#809,#810),.UNSPECIFIED.,.F.,.F.,
  (2,2),(0.,4.),.PIECEWISE_BEZIER_KNOTS.);
#809 = CARTESIAN_POINT('',(19.899748742132,-2.,-4.));
#810 = CARTESIAN_POINT('',(19.899748742132,-2.,-8.));
#811 = ( BOUNDED_SURFACE() B_SPLINE_SURFACE(2,1,(
    (#812,#813)
    ,(#814,#815)
,(#816,#817
    )),.UNSPECIFIED.,.F.,.F.,.F.) B_SPLINE_SURFACE_WITH_KNOTS((3,3),(2,2
    ),(5.355890089178,6.183017886018),(-4.,0.),
.PIECEWISE_BEZIER_KNOTS.) GEOMETRIC_REPRESENTATION_ITEM() 
RATIONAL_B_SPLINE_SURFACE((
    (1.,1.)
    ,(0.915694398329,0.915694398329)
,(1.,1.))) REPRESENTATION_ITEM('') SURFACE() );
#812 = CARTESIAN_POINT('',(12.000000000001,-15.99999999999,-8.));
#813 = CARTESIAN_POINT('',(12.000000000001,-15.99999999999,-4.));
#814 = CARTESIAN_POINT('',(19.021998881896,-10.73350083857,-8.));
#815 = CARTESIAN_POINT('',(19.021998881896,-10.73350083857,-4.));
#816 = CARTESIAN_POINT('',(19.899748742132,-2.,-8.));
#817 = CARTESIAN_POINT('',(19.899748742132,-2.,-4.));
#818 = ADVANCED_FACE('',(#819),#835,.T.);
#819 = FACE_BOUND('',#820,.T.);
#820 = EDGE_LOOP('',(#821,#828,#833,#834));
#821 = ORIENTED_EDGE('',*,*,#822,.T.);
#822 = EDGE_CURVE('',#198,#823,#825,.T.);
#823 = VERTEX_POINT('',#824);
#824 = CARTESIAN_POINT('',(40.830662000012,-15.99999999999,-8.));
#825 = B_SPLINE_CURVE_WITH_KNOTS('',1,(#826,#827),.UNSPECIFIED.,.F.,.F.,
  (2,2),(0.,4.),.PIECEWISE_BEZIER_KNOTS.);
#826 = CARTESIAN_POINT('',(40.830662000012,-15.99999999999,-4.));
#827 = CARTESIAN_POINT('',(40.830662000012,-15.99999999999,-8.));
#828 = ORIENTED_EDGE('',*,*,#829,.T.);
#829 = EDGE_CURVE('',#823,#793,#830,.T.);
#830 = B_SPLINE_CURVE_WITH_KNOTS('',1,(#831,#832),.UNSPECIFIED.,.F.,.F.,
  (2,2),(0.,28.830662000011),.PIECEWISE_BEZIER_KNOTS.);
#831 = CARTESIAN_POINT('',(40.830662000012,-15.99999999999,-8.));
#832 = CARTESIAN_POINT('',(12.000000000001,-15.99999999999,-8.));
#833 = ORIENTED_EDGE('',*,*,#792,.F.);
#834 = ORIENTED_EDGE('',*,*,#204,.F.);
#835 = B_SPLINE_SURFACE_WITH_KNOTS('',1,1,(
    (#836,#837)
    ,(#838,#839
    )),.UNSPECIFIED.,.F.,.F.,.F.,(2,2),(2,2),(0.,28.830662000011),(-4.,
    0.),.PIECEWISE_BEZIER_KNOTS.);
#836 = CARTESIAN_POINT('',(40.830662000012,-15.99999999999,-8.));
#837 = CARTESIAN_POINT('',(40.830662000012,-15.99999999999,-4.));
#838 = CARTESIAN_POINT('',(12.000000000001,-15.99999999999,-8.));
#839 = CARTESIAN_POINT('',(12.000000000001,-15.99999999999,-4.));
#840 = ADVANCED_FACE('',(#841),#857,.T.);
#841 = FACE_BOUND('',#842,.T.);
#842 = EDGE_LOOP('',(#843,#844,#851,#856));
#843 = ORIENTED_EDGE('',*,*,#807,.T.);
#844 = ORIENTED_EDGE('',*,*,#845,.T.);
#845 = EDGE_CURVE('',#800,#846,#848,.T.);
#846 = VERTEX_POINT('',#847);
#847 = CARTESIAN_POINT('',(40.830662000012,-2.,-8.));
#848 = B_SPLINE_CURVE_WITH_KNOTS('',1,(#849,#850),.UNSPECIFIED.,.F.,.F.,
  (2,2),(0.,20.93091325788),.PIECEWISE_BEZIER_KNOTS.);
#849 = CARTESIAN_POINT('',(19.899748742132,-2.,-8.));
#850 = CARTESIAN_POINT('',(40.830662000012,-2.,-8.));
#851 = ORIENTED_EDGE('',*,*,#852,.F.);
#852 = EDGE_CURVE('',#191,#846,#853,.T.);
#853 = B_SPLINE_CURVE_WITH_KNOTS('',1,(#854,#855),.UNSPECIFIED.,.F.,.F.,
  (2,2),(0.,4.),.PIECEWISE_BEZIER_KNOTS.);
#854 = CARTESIAN_POINT('',(40.830662000012,-2.,-4.));
#855 = CARTESIAN_POINT('',(40.830662000012,-2.,-8.));
#856 = ORIENTED_EDGE('',*,*,#190,.F.);
#857 = B_SPLINE_SURFACE_WITH_KNOTS('',1,1,(
    (#858,#859)
    ,(#860,#861
    )),.UNSPECIFIED.,.F.,.F.,.F.,(2,2),(2,2),(0.,20.93091325788),(-4.,0.
    ),.PIECEWISE_BEZIER_KNOTS.);
#858 = CARTESIAN_POINT('',(19.899748742132,-2.,-8.));
#859 = CARTESIAN_POINT('',(19.899748742132,-2.,-4.));
#860 = CARTESIAN_POINT('',(40.830662000012,-2.,-8.));
#861 = CARTESIAN_POINT('',(40.830662000012,-2.,-4.));
#862 = ADVANCED_FACE('',(#863),#873,.F.);
#863 = FACE_BOUND('',#864,.F.);
#864 = EDGE_LOOP('',(#865,#866,#867,#872));
#865 = ORIENTED_EDGE('',*,*,#197,.F.);
#866 = ORIENTED_EDGE('',*,*,#822,.T.);
#867 = ORIENTED_EDGE('',*,*,#868,.T.);
#868 = EDGE_CURVE('',#823,#846,#869,.T.);
#869 = B_SPLINE_CURVE_WITH_KNOTS('',1,(#870,#871),.UNSPECIFIED.,.F.,.F.,
  (2,2),(4.000000000064,18.000000000063),.PIECEWISE_BEZIER_KNOTS.);
#870 = CARTESIAN_POINT('',(40.830662000012,-15.99999999999,-8.));
#871 = CARTESIAN_POINT('',(40.830662000012,-2.,-8.));
#872 = ORIENTED_EDGE('',*,*,#852,.F.);
#873 = B_SPLINE_SURFACE_WITH_KNOTS('',1,1,(
    (#874,#875)
    ,(#876,#877
    )),.UNSPECIFIED.,.F.,.F.,.F.,(2,2),(2,2),(4.000000000064,
    18.000000000063),(-4.,0.),.PIECEWISE_BEZIER_KNOTS.);
#874 = CARTESIAN_POINT('',(40.830662000012,-15.99999999999,-8.));
#875 = CARTESIAN_POINT('',(40.830662000012,-15.99999999999,-4.));
#876 = CARTESIAN_POINT('',(40.830662000012,-2.,-8.));
#877 = CARTESIAN_POINT('',(40.830662000012,-2.,-4.));
#878 = ADVANCED_FACE('',(#879),#900,.F.);
#879 = FACE_BOUND('',#880,.F.);
#880 = EDGE_LOOP('',(#881,#888,#889,#890));
#881 = ORIENTED_EDGE('',*,*,#882,.T.);
#882 = EDGE_CURVE('',#883,#212,#885,.T.);
#883 = VERTEX_POINT('',#884);
#884 = CARTESIAN_POINT('',(6.5,0.,0.));
#885 = B_SPLINE_CURVE_WITH_KNOTS('',1,(#886,#887),.UNSPECIFIED.,.F.,.F.,
  (2,2),(0.,4.),.PIECEWISE_BEZIER_KNOTS.);
#886 = CARTESIAN_POINT('',(6.5,0.,0.));
#887 = CARTESIAN_POINT('',(6.5,0.,-4.));
#888 = ORIENTED_EDGE('',*,*,#211,.T.);
#889 = ORIENTED_EDGE('',*,*,#882,.F.);
#890 = ORIENTED_EDGE('',*,*,#891,.F.);
#891 = EDGE_CURVE('',#883,#883,#892,.T.);
#892 = ( BOUNDED_CURVE() B_SPLINE_CURVE(2,(#893,#894,#895,#896,#897,#898
,#899),.UNSPECIFIED.,.T.,.F.) B_SPLINE_CURVE_WITH_KNOTS((1,2,2,2,2,1),(
    -2.094395102393,0.,2.094395102393,4.188790204786,6.28318530718,
8.377580409573),.UNSPECIFIED.) CURVE() GEOMETRIC_REPRESENTATION_ITEM() 
RATIONAL_B_SPLINE_CURVE((1.,0.5,1.,0.5,1.,0.5,1.)) REPRESENTATION_ITEM(
  '') );
#893 = CARTESIAN_POINT('',(6.5,0.,0.));
#894 = CARTESIAN_POINT('',(6.5,-11.25833024919,0.));
#895 = CARTESIAN_POINT('',(-3.25,-5.629165124599,0.));
#896 = CARTESIAN_POINT('',(-13.,-1.59E-15,0.));
#897 = CARTESIAN_POINT('',(-3.25,5.629165124599,0.));
#898 = CARTESIAN_POINT('',(6.5,11.258330249198,0.));
#899 = CARTESIAN_POINT('',(6.5,0.,0.));
#900 = ( BOUNDED_SURFACE() B_SPLINE_SURFACE(2,1,(
    (#901,#902)
    ,(#903,#904)
    ,(#905,#906)
    ,(#907,#908)
    ,(#909,#910)
    ,(#911,#912)
,(#913,#914
    )),.UNSPECIFIED.,.T.,.F.,.F.) B_SPLINE_SURFACE_WITH_KNOTS((1,2,2,2,2
    ,1),(2,2),(-2.094395102393,0.,2.094395102393,4.188790204786,
    6.28318530718,8.377580409573),(-4.,0.),.UNSPECIFIED.) 
GEOMETRIC_REPRESENTATION_ITEM() RATIONAL_B_SPLINE_SURFACE((
    (1.,1.)
    ,(0.5,0.5)
    ,(1.,1.)
    ,(0.5,0.5)
    ,(1.,1.)
    ,(0.5,0.5)
,(1.,1.))) REPRESENTATION_ITEM('') SURFACE() );
#901 = CARTESIAN_POINT('',(6.5,0.,-4.));
#902 = CARTESIAN_POINT('',(6.5,0.,0.));
#903 = CARTESIAN_POINT('',(6.5,-11.25833024919,-4.));
#904 = CARTESIAN_POINT('',(6.5,-11.25833024919,0.));
#905 = CARTESIAN_POINT('',(-3.25,-5.629165124599,-4.));
#906 = CARTESIAN_POINT('',(-3.25,-5.629165124599,0.));
#907 = CARTESIAN_POINT('',(-13.,-1.59E-15,-4.));
#908 = CARTESIAN_POINT('',(-13.,-1.59E-15,0.));
#909 = CARTESIAN_POINT('',(-3.25,5.629165124599,-4.));
#910 = CARTESIAN_POINT('',(-3.25,5.629165124599,0.));
#911 = CARTESIAN_POINT('',(6.5,11.258330249198,-4.));
#912 = CARTESIAN_POINT('',(6.5,11.258330249198,0.));
#913 = CARTESIAN_POINT('',(6.5,0.,-4.));
#914 = CARTESIAN_POINT('',(6.5,0.,0.));
#915 = ADVANCED_FACE('',(#916),#938,.T.);
#916 = FACE_BOUND('',#917,.T.);
#917 = EDGE_LOOP('',(#918,#925,#932,#937));
#918 = ORIENTED_EDGE('',*,*,#919,.T.);
#919 = EDGE_CURVE('',#226,#920,#922,.T.);
#920 = VERTEX_POINT('',#921);
#921 = CARTESIAN_POINT('',(-40.83066200001,2.,-8.));
#922 = B_SPLINE_CURVE_WITH_KNOTS('',1,(#923,#924),.UNSPECIFIED.,.F.,.F.,
  (2,2),(0.,4.),.PIECEWISE_BEZIER_KNOTS.);
#923 = CARTESIAN_POINT('',(-40.83066200001,2.,-4.));
#924 = CARTESIAN_POINT('',(-40.83066200001,2.,-8.));
#925 = ORIENTED_EDGE('',*,*,#926,.T.);
#926 = EDGE_CURVE('',#920,#927,#929,.T.);
#927 = VERTEX_POINT('',#928);
#928 = CARTESIAN_POINT('',(-40.83066200001,15.999999999999,-8.));
#929 = B_SPLINE_CURVE_WITH_KNOTS('',1,(#930,#931),.UNSPECIFIED.,.F.,.F.,
  (2,2),(4.,17.999999999999),.PIECEWISE_BEZIER_KNOTS.);
#930 = CARTESIAN_POINT('',(-40.83066200001,2.,-8.));
#931 = CARTESIAN_POINT('',(-40.83066200001,15.999999999999,-8.));
#932 = ORIENTED_EDGE('',*,*,#933,.F.);
#933 = EDGE_CURVE('',#228,#927,#934,.T.);
#934 = B_SPLINE_CURVE_WITH_KNOTS('',1,(#935,#936),.UNSPECIFIED.,.F.,.F.,
  (2,2),(0.,4.),.PIECEWISE_BEZIER_KNOTS.);
#935 = CARTESIAN_POINT('',(-40.83066200001,15.999999999999,-4.));
#936 = CARTESIAN_POINT('',(-40.83066200001,15.999999999999,-8.));
#937 = ORIENTED_EDGE('',*,*,#225,.F.);
#938 = B_SPLINE_SURFACE_WITH_KNOTS('',1,1,(
    (#939,#940)
    ,(#941,#942
    )),.UNSPECIFIED.,.F.,.F.,.F.,(2,2),(2,2),(-4.4E-16,13.999999999999),
  (-4.,0.),.PIECEWISE_BEZIER_KNOTS.);
#939 = CARTESIAN_POINT('',(-40.83066200001,2.,-8.));
#940 = CARTESIAN_POINT('',(-40.83066200001,2.,-4.));
#941 = CARTESIAN_POINT('',(-40.83066200001,15.999999999999,-8.));
#942 = CARTESIAN_POINT('',(-40.83066200001,15.999999999999,-4.));
#943 = ADVANCED_FACE('',(#944),#960,.T.);
#944 = FACE_BOUND('',#945,.T.);
#945 = EDGE_LOOP('',(#946,#953,#958,#959));
#946 = ORIENTED_EDGE('',*,*,#947,.T.);
#947 = EDGE_CURVE('',#242,#948,#950,.T.);
#948 = VERTEX_POINT('',#949);
#949 = CARTESIAN_POINT('',(-19.89974874213,2.,-8.));
#950 = B_SPLINE_CURVE_WITH_KNOTS('',1,(#951,#952),.UNSPECIFIED.,.F.,.F.,
  (2,2),(0.,4.),.PIECEWISE_BEZIER_KNOTS.);
#951 = CARTESIAN_POINT('',(-19.89974874213,2.,-4.));
#952 = CARTESIAN_POINT('',(-19.89974874213,2.,-8.));
#953 = ORIENTED_EDGE('',*,*,#954,.T.);
#954 = EDGE_CURVE('',#948,#920,#955,.T.);
#955 = B_SPLINE_CURVE_WITH_KNOTS('',1,(#956,#957),.UNSPECIFIED.,.F.,.F.,
  (2,2),(0.,20.93091325788),.PIECEWISE_BEZIER_KNOTS.);
#956 = CARTESIAN_POINT('',(-19.89974874213,2.,-8.));
#957 = CARTESIAN_POINT('',(-40.83066200001,2.,-8.));
#958 = ORIENTED_EDGE('',*,*,#919,.F.);
#959 = ORIENTED_EDGE('',*,*,#249,.F.);
#960 = B_SPLINE_SURFACE_WITH_KNOTS('',1,1,(
    (#961,#962)
    ,(#963,#964
    )),.UNSPECIFIED.,.F.,.F.,.F.,(2,2),(2,2),(0.,20.93091325788),(-4.,0.
    ),.PIECEWISE_BEZIER_KNOTS.);
#961 = CARTESIAN_POINT('',(-19.89974874213,2.,-8.));
#962 = CARTESIAN_POINT('',(-19.89974874213,2.,-4.));
#963 = CARTESIAN_POINT('',(-40.83066200001,2.,-8.));
#964 = CARTESIAN_POINT('',(-40.83066200001,2.,-4.));
#965 = ADVANCED_FACE('',(#966),#982,.T.);
#966 = FACE_BOUND('',#967,.T.);
#967 = EDGE_LOOP('',(#968,#969,#976,#981));
#968 = ORIENTED_EDGE('',*,*,#933,.T.);
#969 = ORIENTED_EDGE('',*,*,#970,.T.);
#970 = EDGE_CURVE('',#927,#971,#973,.T.);
#971 = VERTEX_POINT('',#972);
#972 = CARTESIAN_POINT('',(-12.,15.999999999999,-8.));
#973 = B_SPLINE_CURVE_WITH_KNOTS('',1,(#974,#975),.UNSPECIFIED.,.F.,.F.,
  (2,2),(0.,28.830662000011),.PIECEWISE_BEZIER_KNOTS.);
#974 = CARTESIAN_POINT('',(-40.83066200001,15.999999999999,-8.));
#975 = CARTESIAN_POINT('',(-12.,15.999999999999,-8.));
#976 = ORIENTED_EDGE('',*,*,#977,.F.);
#977 = EDGE_CURVE('',#235,#971,#978,.T.);
#978 = B_SPLINE_CURVE_WITH_KNOTS('',1,(#979,#980),.UNSPECIFIED.,.F.,.F.,
  (2,2),(0.,4.),.PIECEWISE_BEZIER_KNOTS.);
#979 = CARTESIAN_POINT('',(-12.,15.999999999999,-4.));
#980 = CARTESIAN_POINT('',(-12.,15.999999999999,-8.));
#981 = ORIENTED_EDGE('',*,*,#234,.F.);
#982 = B_SPLINE_SURFACE_WITH_KNOTS('',1,1,(
    (#983,#984)
    ,(#985,#986
    )),.UNSPECIFIED.,.F.,.F.,.F.,(2,2),(2,2),(0.,28.830662000011),(-4.,
    0.),.PIECEWISE_BEZIER_KNOTS.);
#983 = CARTESIAN_POINT('',(-40.83066200001,15.999999999999,-8.));
#984 = CARTESIAN_POINT('',(-40.83066200001,15.999999999999,-4.));
#985 = CARTESIAN_POINT('',(-12.,15.999999999999,-8.));
#986 = CARTESIAN_POINT('',(-12.,15.999999999999,-4.));
#987 = ADVANCED_FACE('',(#988),#999,.T.);
#988 = FACE_BOUND('',#989,.T.);
#989 = EDGE_LOOP('',(#990,#991,#997,#998));
#990 = ORIENTED_EDGE('',*,*,#977,.T.);
#991 = ORIENTED_EDGE('',*,*,#992,.T.);
#992 = EDGE_CURVE('',#971,#948,#993,.T.);
#993 = ( BOUNDED_CURVE() B_SPLINE_CURVE(2,(#994,#995,#996),
.UNSPECIFIED.,.F.,.F.) B_SPLINE_CURVE_WITH_KNOTS((3,3),(2.214297435588,
3.041425232428),.PIECEWISE_BEZIER_KNOTS.) CURVE() 
GEOMETRIC_REPRESENTATION_ITEM() RATIONAL_B_SPLINE_CURVE((1.,
0.915694398329,1.)) REPRESENTATION_ITEM('') );
#994 = CARTESIAN_POINT('',(-12.,15.999999999999,-8.));
#995 = CARTESIAN_POINT('',(-19.02199888189,10.733500838578,-8.));
#996 = CARTESIAN_POINT('',(-19.89974874213,2.,-8.));
#997 = ORIENTED_EDGE('',*,*,#947,.F.);
#998 = ORIENTED_EDGE('',*,*,#241,.F.);
#999 = ( BOUNDED_SURFACE() B_SPLINE_SURFACE(2,1,(
    (#1000,#1001)
    ,(#1002,#1003)
    ,(#1004,#1005
)),.UNSPECIFIED.,.F.,.F.,.F.) B_SPLINE_SURFACE_WITH_KNOTS((3,3),(2,2),(
    2.214297435588,3.041425232428),(-4.,0.),.PIECEWISE_BEZIER_KNOTS.) 
GEOMETRIC_REPRESENTATION_ITEM() RATIONAL_B_SPLINE_SURFACE((
    (1.,1.)
    ,(0.915694398329,0.915694398329)
,(1.,1.))) REPRESENTATION_ITEM('') SURFACE() );
#1000 = CARTESIAN_POINT('',(-12.,15.999999999999,-8.));
#1001 = CARTESIAN_POINT('',(-12.,15.999999999999,-4.));
#1002 = CARTESIAN_POINT('',(-19.02199888189,10.733500838578,-8.));
#1003 = CARTESIAN_POINT('',(-19.02199888189,10.733500838578,-4.));
#1004 = CARTESIAN_POINT('',(-19.89974874213,2.,-8.));
#1005 = CARTESIAN_POINT('',(-19.89974874213,2.,-4.));
#1006 = ADVANCED_FACE('',(#1007),#1030,.T.);
#1007 = FACE_BOUND('',#1008,.T.);
#1008 = EDGE_LOOP('',(#1009,#1010,#1017,#1025));
#1009 = ORIENTED_EDGE('',*,*,#256,.F.);
#1010 = ORIENTED_EDGE('',*,*,#1011,.T.);
#1011 = EDGE_CURVE('',#257,#1012,#1014,.T.);
#1012 = VERTEX_POINT('',#1013);
#1013 = CARTESIAN_POINT('',(19.899748742132,2.,-8.));
#1014 = B_SPLINE_CURVE_WITH_KNOTS('',1,(#1015,#1016),.UNSPECIFIED.,.F.,
  .F.,(2,2),(0.,4.),.PIECEWISE_BEZIER_KNOTS.);
#1015 = CARTESIAN_POINT('',(19.899748742132,2.,-4.));
#1016 = CARTESIAN_POINT('',(19.899748742132,2.,-8.));
#1017 = ORIENTED_EDGE('',*,*,#1018,.T.);
#1018 = EDGE_CURVE('',#1012,#1019,#1021,.T.);
#1019 = VERTEX_POINT('',#1020);
#1020 = CARTESIAN_POINT('',(12.000000000001,15.999999999999,-8.));
#1021 = ( BOUNDED_CURVE() B_SPLINE_CURVE(2,(#1022,#1023,#1024),
.UNSPECIFIED.,.F.,.F.) B_SPLINE_CURVE_WITH_KNOTS((3,3),(6.383352728341,
7.210480525181),.PIECEWISE_BEZIER_KNOTS.) CURVE() 
GEOMETRIC_REPRESENTATION_ITEM() RATIONAL_B_SPLINE_CURVE((1.,
0.915694398329,1.)) REPRESENTATION_ITEM('') );
#1022 = CARTESIAN_POINT('',(19.899748742132,2.,-8.));
#1023 = CARTESIAN_POINT('',(19.021998881896,10.733500838578,-8.));
#1024 = CARTESIAN_POINT('',(12.000000000001,15.999999999999,-8.));
#1025 = ORIENTED_EDGE('',*,*,#1026,.F.);
#1026 = EDGE_CURVE('',#259,#1019,#1027,.T.);
#1027 = B_SPLINE_CURVE_WITH_KNOTS('',1,(#1028,#1029),.UNSPECIFIED.,.F.,
  .F.,(2,2),(0.,4.),.PIECEWISE_BEZIER_KNOTS.);
#1028 = CARTESIAN_POINT('',(12.000000000001,15.999999999999,-4.));
#1029 = CARTESIAN_POINT('',(12.000000000001,15.999999999999,-8.));
#1030 = ( BOUNDED_SURFACE() B_SPLINE_SURFACE(2,1,(
    (#1031,#1032)
    ,(#1033,#1034)
    ,(#1035,#1036
)),.UNSPECIFIED.,.F.,.F.,.F.) B_SPLINE_SURFACE_WITH_KNOTS((3,3),(2,2),(
    6.383352728341,7.210480525181),(-4.,0.),.PIECEWISE_BEZIER_KNOTS.) 
GEOMETRIC_REPRESENTATION_ITEM() RATIONAL_B_SPLINE_SURFACE((
    (1.,1.)
    ,(0.915694398329,0.915694398329)
,(1.,1.))) REPRESENTATION_ITEM('') SURFACE() );
#1031 = CARTESIAN_POINT('',(19.899748742132,2.,-8.));
#1032 = CARTESIAN_POINT('',(19.899748742132,2.,-4.));
#1033 = CARTESIAN_POINT('',(19.021998881896,10.733500838578,-8.));
#1034 = CARTESIAN_POINT('',(19.021998881896,10.733500838578,-4.));
#1035 = CARTESIAN_POINT('',(12.000000000001,15.999999999999,-8.));
#1036 = CARTESIAN_POINT('',(12.000000000001,15.999999999999,-4.));
#1037 = ADVANCED_FACE('',(#1038),#1054,.F.);
#1038 = FACE_BOUND('',#1039,.F.);
#1039 = EDGE_LOOP('',(#1040,#1041,#1048,#1053));
#1040 = ORIENTED_EDGE('',*,*,#1011,.T.);
#1041 = ORIENTED_EDGE('',*,*,#1042,.T.);
#1042 = EDGE_CURVE('',#1012,#1043,#1045,.T.);
#1043 = VERTEX_POINT('',#1044);
#1044 = CARTESIAN_POINT('',(40.830662000012,2.,-8.));
#1045 = B_SPLINE_CURVE_WITH_KNOTS('',1,(#1046,#1047),.UNSPECIFIED.,.F.,
  .F.,(2,2),(0.,20.93091325788),.PIECEWISE_BEZIER_KNOTS.);
#1046 = CARTESIAN_POINT('',(19.899748742132,2.,-8.));
#1047 = CARTESIAN_POINT('',(40.830662000012,2.,-8.));
#1048 = ORIENTED_EDGE('',*,*,#1049,.F.);
#1049 = EDGE_CURVE('',#274,#1043,#1050,.T.);
#1050 = B_SPLINE_CURVE_WITH_KNOTS('',1,(#1051,#1052),.UNSPECIFIED.,.F.,
  .F.,(2,2),(0.,4.),.PIECEWISE_BEZIER_KNOTS.);
#1051 = CARTESIAN_POINT('',(40.830662000012,2.,-4.));
#1052 = CARTESIAN_POINT('',(40.830662000012,2.,-8.));
#1053 = ORIENTED_EDGE('',*,*,#280,.F.);
#1054 = B_SPLINE_SURFACE_WITH_KNOTS('',1,1,(
    (#1055,#1056)
    ,(#1057,#1058
    )),.UNSPECIFIED.,.F.,.F.,.F.,(2,2),(2,2),(0.,20.93091325788),(-4.,0.
    ),.PIECEWISE_BEZIER_KNOTS.);
#1055 = CARTESIAN_POINT('',(19.899748742132,2.,-8.));
#1056 = CARTESIAN_POINT('',(19.899748742132,2.,-4.));
#1057 = CARTESIAN_POINT('',(40.830662000012,2.,-8.));
#1058 = CARTESIAN_POINT('',(40.830662000012,2.,-4.));
#1059 = ADVANCED_FACE('',(#1060),#1076,.F.);
#1060 = FACE_BOUND('',#1061,.F.);
#1061 = EDGE_LOOP('',(#1062,#1069,#1074,#1075));
#1062 = ORIENTED_EDGE('',*,*,#1063,.T.);
#1063 = EDGE_CURVE('',#267,#1064,#1066,.T.);
#1064 = VERTEX_POINT('',#1065);
#1065 = CARTESIAN_POINT('',(40.830662000012,15.999999999999,-8.));
#1066 = B_SPLINE_CURVE_WITH_KNOTS('',1,(#1067,#1068),.UNSPECIFIED.,.F.,
  .F.,(2,2),(0.,4.),.PIECEWISE_BEZIER_KNOTS.);
#1067 = CARTESIAN_POINT('',(40.830662000012,15.999999999999,-4.));
#1068 = CARTESIAN_POINT('',(40.830662000012,15.999999999999,-8.));
#1069 = ORIENTED_EDGE('',*,*,#1070,.T.);
#1070 = EDGE_CURVE('',#1064,#1019,#1071,.T.);
#1071 = B_SPLINE_CURVE_WITH_KNOTS('',1,(#1072,#1073),.UNSPECIFIED.,.F.,
  .F.,(2,2),(0.,28.830662000011),.PIECEWISE_BEZIER_KNOTS.);
#1072 = CARTESIAN_POINT('',(40.830662000012,15.999999999999,-8.));
#1073 = CARTESIAN_POINT('',(12.000000000001,15.999999999999,-8.));
#1074 = ORIENTED_EDGE('',*,*,#1026,.F.);
#1075 = ORIENTED_EDGE('',*,*,#266,.F.);
#1076 = B_SPLINE_SURFACE_WITH_KNOTS('',1,1,(
    (#1077,#1078)
    ,(#1079,#1080
    )),.UNSPECIFIED.,.F.,.F.,.F.,(2,2),(2,2),(0.,28.830662000011),(-4.,
    0.),.PIECEWISE_BEZIER_KNOTS.);
#1077 = CARTESIAN_POINT('',(40.830662000012,15.999999999999,-8.));
#1078 = CARTESIAN_POINT('',(40.830662000012,15.999999999999,-4.));
#1079 = CARTESIAN_POINT('',(12.000000000001,15.999999999999,-8.));
#1080 = CARTESIAN_POINT('',(12.000000000001,15.999999999999,-4.));
#1081 = ADVANCED_FACE('',(#1082),#1092,.F.);
#1082 = FACE_BOUND('',#1083,.F.);
#1083 = EDGE_LOOP('',(#1084,#1085,#1090,#1091));
#1084 = ORIENTED_EDGE('',*,*,#1049,.T.);
#1085 = ORIENTED_EDGE('',*,*,#1086,.T.);
#1086 = EDGE_CURVE('',#1043,#1064,#1087,.T.);
#1087 = B_SPLINE_CURVE_WITH_KNOTS('',1,(#1088,#1089),.UNSPECIFIED.,.F.,
  .F.,(2,2),(4.,17.999999999999),.PIECEWISE_BEZIER_KNOTS.);
#1088 = CARTESIAN_POINT('',(40.830662000012,2.,-8.));
#1089 = CARTESIAN_POINT('',(40.830662000012,15.999999999999,-8.));
#1090 = ORIENTED_EDGE('',*,*,#1063,.F.);
#1091 = ORIENTED_EDGE('',*,*,#273,.F.);
#1092 = B_SPLINE_SURFACE_WITH_KNOTS('',1,1,(
    (#1093,#1094)
    ,(#1095,#1096
    )),.UNSPECIFIED.,.F.,.F.,.F.,(2,2),(2,2),(-4.4E-16,13.999999999999),
  (-4.,0.),.PIECEWISE_BEZIER_KNOTS.);
#1093 = CARTESIAN_POINT('',(40.830662000012,2.,-8.));
#1094 = CARTESIAN_POINT('',(40.830662000012,2.,-4.));
#1095 = CARTESIAN_POINT('',(40.830662000012,15.999999999999,-8.));
#1096 = CARTESIAN_POINT('',(40.830662000012,15.999999999999,-4.));
#1097 = ADVANCED_FACE('',(#1098,#1104,#1110,#1116,#1122),#1128,.T.);
#1098 = FACE_BOUND('',#1099,.T.);
#1099 = EDGE_LOOP('',(#1100,#1101,#1102,#1103));
#1100 = ORIENTED_EDGE('',*,*,#293,.F.);
#1101 = ORIENTED_EDGE('',*,*,#454,.T.);
#1102 = ORIENTED_EDGE('',*,*,#657,.T.);
#1103 = ORIENTED_EDGE('',*,*,#537,.T.);
#1104 = FACE_BOUND('',#1105,.T.);
#1105 = EDGE_LOOP('',(#1106,#1107,#1108,#1109));
#1106 = ORIENTED_EDGE('',*,*,#1018,.F.);
#1107 = ORIENTED_EDGE('',*,*,#1042,.T.);
#1108 = ORIENTED_EDGE('',*,*,#1086,.T.);
#1109 = ORIENTED_EDGE('',*,*,#1070,.T.);
#1110 = FACE_BOUND('',#1111,.T.);
#1111 = EDGE_LOOP('',(#1112,#1113,#1114,#1115));
#1112 = ORIENTED_EDGE('',*,*,#954,.F.);
#1113 = ORIENTED_EDGE('',*,*,#992,.F.);
#1114 = ORIENTED_EDGE('',*,*,#970,.F.);
#1115 = ORIENTED_EDGE('',*,*,#926,.F.);
#1116 = FACE_BOUND('',#1117,.T.);
#1117 = EDGE_LOOP('',(#1118,#1119,#1120,#1121));
#1118 = ORIENTED_EDGE('',*,*,#707,.T.);
#1119 = ORIENTED_EDGE('',*,*,#761,.F.);
#1120 = ORIENTED_EDGE('',*,*,#776,.T.);
#1121 = ORIENTED_EDGE('',*,*,#730,.F.);
#1122 = FACE_BOUND('',#1123,.T.);
#1123 = EDGE_LOOP('',(#1124,#1125,#1126,#1127));
#1124 = ORIENTED_EDGE('',*,*,#799,.F.);
#1125 = ORIENTED_EDGE('',*,*,#829,.F.);
#1126 = ORIENTED_EDGE('',*,*,#868,.T.);
#1127 = ORIENTED_EDGE('',*,*,#845,.F.);
#1128 = B_SPLINE_SURFACE_WITH_KNOTS('',1,1,(
    (#1129,#1130)
    ,(#1131,#1132
    )),.UNSPECIFIED.,.F.,.F.,.F.,(2,2),(2,2),(-53.23066200002,
    53.23066200002),(-20.00000000004,20.000000000014),
  .PIECEWISE_BEZIER_KNOTS.);
#1129 = CARTESIAN_POINT('',(53.23066200002,-20.00000000006,-8.));
#1130 = CARTESIAN_POINT('',(53.23066200002,20.,-8.));
#1131 = CARTESIAN_POINT('',(-53.23066200002,-20.00000000006,-8.));
#1132 = CARTESIAN_POINT('',(-53.23066200002,20.,-8.));
#1133 = ADVANCED_FACE('',(#1134),#1140,.F.);
#1134 = FACE_BOUND('',#1135,.F.);
#1135 = EDGE_LOOP('',(#1136,#1137,#1138,#1139));
#1136 = ORIENTED_EDGE('',*,*,#565,.T.);
#1137 = ORIENTED_EDGE('',*,*,#309,.T.);
#1138 = ORIENTED_EDGE('',*,*,#420,.T.);
#1139 = ORIENTED_EDGE('',*,*,#494,.T.);
#1140 = B_SPLINE_SURFACE_WITH_KNOTS('',1,1,(
    (#1141,#1142)
    ,(#1143,#1144
    )),.UNSPECIFIED.,.F.,.F.,.F.,(2,2),(2,2),(-53.23066200002,
    -40.83066200001),(17.,20.),.PIECEWISE_BEZIER_KNOTS.);
#1141 = CARTESIAN_POINT('',(-53.23066200002,-17.,11.));
#1142 = CARTESIAN_POINT('',(-53.23066200002,-20.,11.));
#1143 = CARTESIAN_POINT('',(-40.83066200001,-17.,11.));
#1144 = CARTESIAN_POINT('',(-40.83066200001,-20.,11.));
#1145 = ADVANCED_FACE('',(#1146),#1149,.T.);
#1146 = FACE_BOUND('',#1147,.T.);
#1147 = EDGE_LOOP('',(#1148));
#1148 = ORIENTED_EDGE('',*,*,#390,.F.);
#1149 = B_SPLINE_SURFACE_WITH_KNOTS('',1,1,(
    (#1150,#1151)
    ,(#1152,#1153
    )),.UNSPECIFIED.,.F.,.F.,.F.,(2,2),(2,2),(0.9,7.5),(-8.8,-2.2),
  .PIECEWISE_BEZIER_KNOTS.);
#1150 = CARTESIAN_POINT('',(-43.73066200002,7.2,8.8));
#1151 = CARTESIAN_POINT('',(-43.73066200002,7.2,2.2));
#1152 = CARTESIAN_POINT('',(-50.33066200002,7.2,8.8));
#1153 = CARTESIAN_POINT('',(-50.33066200002,7.2,2.2));
#1154 = ADVANCED_FACE('',(#1155),#1176,.T.);
#1155 = FACE_BOUND('',#1156,.T.);
#1156 = EDGE_LOOP('',(#1157,#1164,#1165,#1166));
#1157 = ORIENTED_EDGE('',*,*,#1158,.F.);
#1158 = EDGE_CURVE('',#435,#1159,#1161,.T.);
#1159 = VERTEX_POINT('',#1160);
#1160 = CARTESIAN_POINT('',(-43.73066200002,-7.2,5.5));
#1161 = B_SPLINE_CURVE_WITH_KNOTS('',1,(#1162,#1163),.UNSPECIFIED.,.F.,
  .F.,(2,2),(0.,9.8),.PIECEWISE_BEZIER_KNOTS.);
#1162 = CARTESIAN_POINT('',(-43.73066200002,-17.,5.5));
#1163 = CARTESIAN_POINT('',(-43.73066200002,-7.2,5.5));
#1164 = ORIENTED_EDGE('',*,*,#434,.F.);
#1165 = ORIENTED_EDGE('',*,*,#1158,.T.);
#1166 = ORIENTED_EDGE('',*,*,#1167,.F.);
#1167 = EDGE_CURVE('',#1159,#1159,#1168,.T.);
#1168 = ( BOUNDED_CURVE() B_SPLINE_CURVE(2,(#1169,#1170,#1171,#1172,
#1173,#1174,#1175),.UNSPECIFIED.,.T.,.F.) B_SPLINE_CURVE_WITH_KNOTS((1,2
    ,2,2,2,1),(-2.094395102393,0.,2.094395102393,4.188790204786,
6.28318530718,8.377580409573),.UNSPECIFIED.) CURVE() 
GEOMETRIC_REPRESENTATION_ITEM() RATIONAL_B_SPLINE_CURVE((1.,0.5,1.,0.5,
1.,0.5,1.)) REPRESENTATION_ITEM('') );
#1169 = CARTESIAN_POINT('',(-43.73066200002,-7.2,5.5));
#1170 = CARTESIAN_POINT('',(-43.73066200002,-7.2,-0.215767664977));
#1171 = CARTESIAN_POINT('',(-48.68066200002,-7.2,2.642116167511));
#1172 = CARTESIAN_POINT('',(-53.63066200002,-7.2,5.5));
#1173 = CARTESIAN_POINT('',(-48.68066200002,-7.2,8.357883832489));
#1174 = CARTESIAN_POINT('',(-43.73066200002,-7.2,11.215767664977));
#1175 = CARTESIAN_POINT('',(-43.73066200002,-7.2,5.5));
#1176 = ( BOUNDED_SURFACE() B_SPLINE_SURFACE(2,1,(
    (#1177,#1178)
    ,(#1179,#1180)
    ,(#1181,#1182)
    ,(#1183,#1184)
    ,(#1185,#1186)
    ,(#1187,#1188)
    ,(#1189,#1190
)),.UNSPECIFIED.,.T.,.F.,.F.) B_SPLINE_SURFACE_WITH_KNOTS((1,2,2,2,2,1),
  (2,2),(-2.094395102393,0.,2.094395102393,4.188790204786,6.28318530718,
    8.377580409573),(-9.8,0.),.UNSPECIFIED.) 
GEOMETRIC_REPRESENTATION_ITEM() RATIONAL_B_SPLINE_SURFACE((
    (1.,1.)
    ,(0.5,0.5)
    ,(1.,1.)
    ,(0.5,0.5)
    ,(1.,1.)
    ,(0.5,0.5)
,(1.,1.))) REPRESENTATION_ITEM('') SURFACE() );
#1177 = CARTESIAN_POINT('',(-43.73066200002,-7.2,5.5));
#1178 = CARTESIAN_POINT('',(-43.73066200002,-17.,5.5));
#1179 = CARTESIAN_POINT('',(-43.73066200002,-7.2,11.215767664977));
#1180 = CARTESIAN_POINT('',(-43.73066200002,-17.,11.215767664977));
#1181 = CARTESIAN_POINT('',(-48.68066200002,-7.2,8.357883832489));
#1182 = CARTESIAN_POINT('',(-48.68066200002,-17.,8.357883832489));
#1183 = CARTESIAN_POINT('',(-53.63066200002,-7.2,5.5));
#1184 = CARTESIAN_POINT('',(-53.63066200002,-17.,5.5));
#1185 = CARTESIAN_POINT('',(-48.68066200002,-7.2,2.642116167511));
#1186 = CARTESIAN_POINT('',(-48.68066200002,-17.,2.642116167511));
#1187 = CARTESIAN_POINT('',(-43.73066200002,-7.2,-0.215767664977));
#1188 = CARTESIAN_POINT('',(-43.73066200002,-17.,-0.215767664977));
#1189 = CARTESIAN_POINT('',(-43.73066200002,-7.2,5.5));
#1190 = CARTESIAN_POINT('',(-43.73066200002,-17.,5.5));
#1191 = ADVANCED_FACE('',(#1192),#1198,.F.);
#1192 = FACE_BOUND('',#1193,.F.);
#1193 = EDGE_LOOP('',(#1194,#1195,#1196,#1197));
#1194 = ORIENTED_EDGE('',*,*,#472,.T.);
#1195 = ORIENTED_EDGE('',*,*,#637,.T.);
#1196 = ORIENTED_EDGE('',*,*,#586,.T.);
#1197 = ORIENTED_EDGE('',*,*,#522,.T.);
#1198 = B_SPLINE_SURFACE_WITH_KNOTS('',1,1,(
    (#1199,#1200)
    ,(#1201,#1202
    )),.UNSPECIFIED.,.F.,.F.,.F.,(2,2),(2,2),(-53.23066200002,
    -40.83066200001),(17.,20.),.PIECEWISE_BEZIER_KNOTS.);
#1199 = CARTESIAN_POINT('',(53.23066200002,17.,11.));
#1200 = CARTESIAN_POINT('',(53.23066200002,20.,11.));
#1201 = CARTESIAN_POINT('',(40.830662000012,17.,11.));
#1202 = CARTESIAN_POINT('',(40.830662000012,20.,11.));
#1203 = ADVANCED_FACE('',(#1204),#1210,.T.);
#1204 = FACE_BOUND('',#1205,.T.);
#1205 = EDGE_LOOP('',(#1206,#1207,#1208,#1209));
#1206 = ORIENTED_EDGE('',*,*,#551,.T.);
#1207 = ORIENTED_EDGE('',*,*,#651,.T.);
#1208 = ORIENTED_EDGE('',*,*,#672,.T.);
#1209 = ORIENTED_EDGE('',*,*,#622,.T.);
#1210 = B_SPLINE_SURFACE_WITH_KNOTS('',1,1,(
    (#1211,#1212)
    ,(#1213,#1214
    )),.UNSPECIFIED.,.F.,.F.,.F.,(2,2),(2,2),(-53.23066200002,
    -40.83066200001),(17.,20.),.PIECEWISE_BEZIER_KNOTS.);
#1211 = CARTESIAN_POINT('',(53.23066200002,-17.,11.));
#1212 = CARTESIAN_POINT('',(53.23066200002,-20.,11.));
#1213 = CARTESIAN_POINT('',(40.830662000012,-17.,11.));
#1214 = CARTESIAN_POINT('',(40.830662000012,-20.,11.));
#1215 = ADVANCED_FACE('',(#1216),#1237,.T.);
#1216 = FACE_BOUND('',#1217,.T.);
#1217 = EDGE_LOOP('',(#1218,#1225,#1226,#1227));
#1218 = ORIENTED_EDGE('',*,*,#1219,.F.);
#1219 = EDGE_CURVE('',#595,#1220,#1222,.T.);
#1220 = VERTEX_POINT('',#1221);
#1221 = CARTESIAN_POINT('',(43.73066200002,7.2,5.5));
#1222 = B_SPLINE_CURVE_WITH_KNOTS('',1,(#1223,#1224),.UNSPECIFIED.,.F.,
  .F.,(2,2),(0.,9.8),.PIECEWISE_BEZIER_KNOTS.);
#1223 = CARTESIAN_POINT('',(43.73066200002,17.,5.5));
#1224 = CARTESIAN_POINT('',(43.73066200002,7.2,5.5));
#1225 = ORIENTED_EDGE('',*,*,#594,.F.);
#1226 = ORIENTED_EDGE('',*,*,#1219,.T.);
#1227 = ORIENTED_EDGE('',*,*,#1228,.F.);
#1228 = EDGE_CURVE('',#1220,#1220,#1229,.T.);
#1229 = ( BOUNDED_CURVE() B_SPLINE_CURVE(2,(#1230,#1231,#1232,#1233,
#1234,#1235,#1236),.UNSPECIFIED.,.T.,.F.) B_SPLINE_CURVE_WITH_KNOTS((1,2
    ,2,2,2,1),(-2.094395102393,0.,2.094395102393,4.188790204786,
6.28318530718,8.377580409573),.UNSPECIFIED.) CURVE() 
GEOMETRIC_REPRESENTATION_ITEM() RATIONAL_B_SPLINE_CURVE((1.,0.5,1.,0.5,
1.,0.5,1.)) REPRESENTATION_ITEM('') );
#1230 = CARTESIAN_POINT('',(43.73066200002,7.2,5.5));
#1231 = CARTESIAN_POINT('',(43.73066200002,7.2,-0.215767664977));
#1232 = CARTESIAN_POINT('',(48.68066200002,7.2,2.642116167511));
#1233 = CARTESIAN_POINT('',(53.63066200002,7.2,5.5));
#1234 = CARTESIAN_POINT('',(48.68066200002,7.2,8.357883832489));
#1235 = CARTESIAN_POINT('',(43.73066200002,7.2,11.215767664977));
#1236 = CARTESIAN_POINT('',(43.73066200002,7.2,5.5));
#1237 = ( BOUNDED_SURFACE() B_SPLINE_SURFACE(2,1,(
    (#1238,#1239)
    ,(#1240,#1241)
    ,(#1242,#1243)
    ,(#1244,#1245)
    ,(#1246,#1247)
    ,(#1248,#1249)
    ,(#1250,#1251
)),.UNSPECIFIED.,.T.,.F.,.F.) B_SPLINE_SURFACE_WITH_KNOTS((1,2,2,2,2,1),
  (2,2),(-2.094395102393,0.,2.094395102393,4.188790204786,6.28318530718,
    8.377580409573),(-9.8,0.),.UNSPECIFIED.) 
GEOMETRIC_REPRESENTATION_ITEM() RATIONAL_B_SPLINE_SURFACE((
    (1.,1.)
    ,(0.5,0.5)
    ,(1.,1.)
    ,(0.5,0.5)
    ,(1.,1.)
    ,(0.5,0.5)
,(1.,1.))) REPRESENTATION_ITEM('') SURFACE() );
#1238 = CARTESIAN_POINT('',(43.73066200002,7.2,5.5));
#1239 = CARTESIAN_POINT('',(43.73066200002,17.,5.5));
#1240 = CARTESIAN_POINT('',(43.73066200002,7.2,11.215767664977));
#1241 = CARTESIAN_POINT('',(43.73066200002,17.,11.215767664977));
#1242 = CARTESIAN_POINT('',(48.68066200002,7.2,8.357883832489));
#1243 = CARTESIAN_POINT('',(48.68066200002,17.,8.357883832489));
#1244 = CARTESIAN_POINT('',(53.63066200002,7.2,5.5));
#1245 = CARTESIAN_POINT('',(53.63066200002,17.,5.5));
#1246 = CARTESIAN_POINT('',(48.68066200002,7.2,2.642116167511));
#1247 = CARTESIAN_POINT('',(48.68066200002,17.,2.642116167511));
#1248 = CARTESIAN_POINT('',(43.73066200002,7.2,-0.215767664977));
#1249 = CARTESIAN_POINT('',(43.73066200002,17.,-0.215767664977));
#1250 = CARTESIAN_POINT('',(43.73066200002,7.2,5.5));
#1251 = CARTESIAN_POINT('',(43.73066200002,17.,5.5));
#1252 = ADVANCED_FACE('',(#1253),#1274,.F.);
#1253 = FACE_BOUND('',#1254,.F.);
#1254 = EDGE_LOOP('',(#1255,#1262,#1263,#1264));
#1255 = ORIENTED_EDGE('',*,*,#1256,.F.);
#1256 = EDGE_CURVE('',#681,#1257,#1259,.T.);
#1257 = VERTEX_POINT('',#1258);
#1258 = CARTESIAN_POINT('',(43.73066200002,-7.2,5.5));
#1259 = B_SPLINE_CURVE_WITH_KNOTS('',1,(#1260,#1261),.UNSPECIFIED.,.F.,
  .F.,(2,2),(0.,9.8),.PIECEWISE_BEZIER_KNOTS.);
#1260 = CARTESIAN_POINT('',(43.73066200002,-17.,5.5));
#1261 = CARTESIAN_POINT('',(43.73066200002,-7.2,5.5));
#1262 = ORIENTED_EDGE('',*,*,#680,.F.);
#1263 = ORIENTED_EDGE('',*,*,#1256,.T.);
#1264 = ORIENTED_EDGE('',*,*,#1265,.F.);
#1265 = EDGE_CURVE('',#1257,#1257,#1266,.T.);
#1266 = ( BOUNDED_CURVE() B_SPLINE_CURVE(2,(#1267,#1268,#1269,#1270,
#1271,#1272,#1273),.UNSPECIFIED.,.T.,.F.) B_SPLINE_CURVE_WITH_KNOTS((1,2
    ,2,2,2,1),(-2.094395102393,0.,2.094395102393,4.188790204786,
6.28318530718,8.377580409573),.UNSPECIFIED.) CURVE() 
GEOMETRIC_REPRESENTATION_ITEM() RATIONAL_B_SPLINE_CURVE((1.,0.5,1.,0.5,
1.,0.5,1.)) REPRESENTATION_ITEM('') );
#1267 = CARTESIAN_POINT('',(43.73066200002,-7.2,5.5));
#1268 = CARTESIAN_POINT('',(43.73066200002,-7.2,-0.215767664977));
#1269 = CARTESIAN_POINT('',(48.68066200002,-7.2,2.642116167511));
#1270 = CARTESIAN_POINT('',(53.63066200002,-7.2,5.5));
#1271 = CARTESIAN_POINT('',(48.68066200002,-7.2,8.357883832489));
#1272 = CARTESIAN_POINT('',(43.73066200002,-7.2,11.215767664977));
#1273 = CARTESIAN_POINT('',(43.73066200002,-7.2,5.5));
#1274 = ( BOUNDED_SURFACE() B_SPLINE_SURFACE(2,1,(
    (#1275,#1276)
    ,(#1277,#1278)
    ,(#1279,#1280)
    ,(#1281,#1282)
    ,(#1283,#1284)
    ,(#1285,#1286)
    ,(#1287,#1288
)),.UNSPECIFIED.,.T.,.F.,.F.) B_SPLINE_SURFACE_WITH_KNOTS((1,2,2,2,2,1),
  (2,2),(-2.094395102393,0.,2.094395102393,4.188790204786,6.28318530718,
    8.377580409573),(-9.8,0.),.UNSPECIFIED.) 
GEOMETRIC_REPRESENTATION_ITEM() RATIONAL_B_SPLINE_SURFACE((
    (1.,1.)
    ,(0.5,0.5)
    ,(1.,1.)
    ,(0.5,0.5)
    ,(1.,1.)
    ,(0.5,0.5)
,(1.,1.))) REPRESENTATION_ITEM('') SURFACE() );
#1275 = CARTESIAN_POINT('',(43.73066200002,-7.2,5.5));
#1276 = CARTESIAN_POINT('',(43.73066200002,-17.,5.5));
#1277 = CARTESIAN_POINT('',(43.73066200002,-7.2,11.215767664977));
#1278 = CARTESIAN_POINT('',(43.73066200002,-17.,11.215767664977));
#1279 = CARTESIAN_POINT('',(48.68066200002,-7.2,8.357883832489));
#1280 = CARTESIAN_POINT('',(48.68066200002,-17.,8.357883832489));
#1281 = CARTESIAN_POINT('',(53.63066200002,-7.2,5.5));
#1282 = CARTESIAN_POINT('',(53.63066200002,-17.,5.5));
#1283 = CARTESIAN_POINT('',(48.68066200002,-7.2,2.642116167511));
#1284 = CARTESIAN_POINT('',(48.68066200002,-17.,2.642116167511));
#1285 = CARTESIAN_POINT('',(43.73066200002,-7.2,-0.215767664977));
#1286 = CARTESIAN_POINT('',(43.73066200002,-17.,-0.215767664977));
#1287 = CARTESIAN_POINT('',(43.73066200002,-7.2,5.5));
#1288 = CARTESIAN_POINT('',(43.73066200002,-17.,5.5));
#1289 = ADVANCED_FACE('',(#1290,#1293),#1307,.T.);
#1290 = FACE_BOUND('',#1291,.T.);
#1291 = EDGE_LOOP('',(#1292));
#1292 = ORIENTED_EDGE('',*,*,#891,.F.);
#1293 = FACE_BOUND('',#1294,.T.);
#1294 = EDGE_LOOP('',(#1295));
#1295 = ORIENTED_EDGE('',*,*,#1296,.F.);
#1296 = EDGE_CURVE('',#1297,#1297,#1299,.T.);
#1297 = VERTEX_POINT('',#1298);
#1298 = CARTESIAN_POINT('',(5.,0.,0.));
#1299 = ( BOUNDED_CURVE() B_SPLINE_CURVE(2,(#1300,#1301,#1302,#1303,
#1304,#1305,#1306),.UNSPECIFIED.,.T.,.F.) B_SPLINE_CURVE_WITH_KNOTS((1,2
    ,2,2,2,1),(-2.094395102393,0.,2.094395102393,4.188790204786,
6.28318530718,8.377580409573),.UNSPECIFIED.) CURVE() 
GEOMETRIC_REPRESENTATION_ITEM() RATIONAL_B_SPLINE_CURVE((1.,0.5,1.,0.5,
1.,0.5,1.)) REPRESENTATION_ITEM('') );
#1300 = CARTESIAN_POINT('',(5.,0.,0.));
#1301 = CARTESIAN_POINT('',(5.,8.660254037844,0.));
#1302 = CARTESIAN_POINT('',(-2.5,4.330127018922,0.));
#1303 = CARTESIAN_POINT('',(-10.,1.22E-15,0.));
#1304 = CARTESIAN_POINT('',(-2.5,-4.330127018922,0.));
#1305 = CARTESIAN_POINT('',(5.,-8.660254037844,0.));
#1306 = CARTESIAN_POINT('',(5.,0.,0.));
#1307 = B_SPLINE_SURFACE_WITH_KNOTS('',1,1,(
    (#1308,#1309)
    ,(#1310,#1311
    )),.UNSPECIFIED.,.F.,.F.,.F.,(2,2),(2,2),(-6.5,6.5),(-6.5,6.5),
  .PIECEWISE_BEZIER_KNOTS.);
#1308 = CARTESIAN_POINT('',(-6.5,-6.5,0.));
#1309 = CARTESIAN_POINT('',(-6.5,6.5,0.));
#1310 = CARTESIAN_POINT('',(6.5,-6.5,0.));
#1311 = CARTESIAN_POINT('',(6.5,6.5,0.));
#1312 = ADVANCED_FACE('',(#1313),#1316,.F.);
#1313 = FACE_BOUND('',#1314,.F.);
#1314 = EDGE_LOOP('',(#1315));
#1315 = ORIENTED_EDGE('',*,*,#1167,.F.);
#1316 = B_SPLINE_SURFACE_WITH_KNOTS('',1,1,(
    (#1317,#1318)
    ,(#1319,#1320
    )),.UNSPECIFIED.,.F.,.F.,.F.,(2,2),(2,2),(0.9,7.5),(-8.8,-2.2),
  .PIECEWISE_BEZIER_KNOTS.);
#1317 = CARTESIAN_POINT('',(-43.73066200002,-7.2,8.8));
#1318 = CARTESIAN_POINT('',(-43.73066200002,-7.2,2.2));
#1319 = CARTESIAN_POINT('',(-50.33066200002,-7.2,8.8));
#1320 = CARTESIAN_POINT('',(-50.33066200002,-7.2,2.2));
#1321 = ADVANCED_FACE('',(#1322),#1325,.F.);
#1322 = FACE_BOUND('',#1323,.F.);
#1323 = EDGE_LOOP('',(#1324));
#1324 = ORIENTED_EDGE('',*,*,#1228,.F.);
#1325 = B_SPLINE_SURFACE_WITH_KNOTS('',1,1,(
    (#1326,#1327)
    ,(#1328,#1329
    )),.UNSPECIFIED.,.F.,.F.,.F.,(2,2),(2,2),(0.9,7.5),(-8.8,-2.2),
  .PIECEWISE_BEZIER_KNOTS.);
#1326 = CARTESIAN_POINT('',(43.73066200002,7.2,8.8));
#1327 = CARTESIAN_POINT('',(43.73066200002,7.2,2.2));
#1328 = CARTESIAN_POINT('',(50.33066200002,7.2,8.8));
#1329 = CARTESIAN_POINT('',(50.33066200002,7.2,2.2));
#1330 = ADVANCED_FACE('',(#1331),#1334,.T.);
#1331 = FACE_BOUND('',#1332,.T.);
#1332 = EDGE_LOOP('',(#1333));
#1333 = ORIENTED_EDGE('',*,*,#1265,.F.);
#1334 = B_SPLINE_SURFACE_WITH_KNOTS('',1,1,(
    (#1335,#1336)
    ,(#1337,#1338
    )),.UNSPECIFIED.,.F.,.F.,.F.,(2,2),(2,2),(0.9,7.5),(-8.8,-2.2),
  .PIECEWISE_BEZIER_KNOTS.);
#1335 = CARTESIAN_POINT('',(43.73066200002,-7.2,8.8));
#1336 = CARTESIAN_POINT('',(43.73066200002,-7.2,2.2));
#1337 = CARTESIAN_POINT('',(50.33066200002,-7.2,8.8));
#1338 = CARTESIAN_POINT('',(50.33066200002,-7.2,2.2));
#1339 = ADVANCED_FACE('',(#1340),#1361,.F.);
#1340 = FACE_BOUND('',#1341,.F.);
#1341 = EDGE_LOOP('',(#1342,#1349,#1359,#1360));
#1342 = ORIENTED_EDGE('',*,*,#1343,.T.);
#1343 = EDGE_CURVE('',#1297,#1344,#1346,.T.);
#1344 = VERTEX_POINT('',#1345);
#1345 = CARTESIAN_POINT('',(5.,0.,8.));
#1346 = B_SPLINE_CURVE_WITH_KNOTS('',1,(#1347,#1348),.UNSPECIFIED.,.F.,
  .F.,(2,2),(0.,8.),.PIECEWISE_BEZIER_KNOTS.);
#1347 = CARTESIAN_POINT('',(5.,0.,0.));
#1348 = CARTESIAN_POINT('',(5.,0.,8.));
#1349 = ORIENTED_EDGE('',*,*,#1350,.T.);
#1350 = EDGE_CURVE('',#1344,#1344,#1351,.T.);
#1351 = ( BOUNDED_CURVE() B_SPLINE_CURVE(2,(#1352,#1353,#1354,#1355,
#1356,#1357,#1358),.UNSPECIFIED.,.T.,.F.) B_SPLINE_CURVE_WITH_KNOTS((1,2
    ,2,2,2,1),(-2.094395102393,0.,2.094395102393,4.188790204786,
6.28318530718,8.377580409573),.UNSPECIFIED.) CURVE() 
GEOMETRIC_REPRESENTATION_ITEM() RATIONAL_B_SPLINE_CURVE((1.,0.5,1.,0.5,
1.,0.5,1.)) REPRESENTATION_ITEM('') );
#1352 = CARTESIAN_POINT('',(5.,0.,8.));
#1353 = CARTESIAN_POINT('',(5.,8.660254037844,8.));
#1354 = CARTESIAN_POINT('',(-2.5,4.330127018922,8.));
#1355 = CARTESIAN_POINT('',(-10.,1.22E-15,8.));
#1356 = CARTESIAN_POINT('',(-2.5,-4.330127018922,8.));
#1357 = CARTESIAN_POINT('',(5.,-8.660254037844,8.));
#1358 = CARTESIAN_POINT('',(5.,0.,8.));
#1359 = ORIENTED_EDGE('',*,*,#1343,.F.);
#1360 = ORIENTED_EDGE('',*,*,#1296,.F.);
#1361 = ( BOUNDED_SURFACE() B_SPLINE_SURFACE(2,1,(
    (#1362,#1363)
    ,(#1364,#1365)
    ,(#1366,#1367)
    ,(#1368,#1369)
    ,(#1370,#1371)
    ,(#1372,#1373)
    ,(#1374,#1375
)),.UNSPECIFIED.,.T.,.F.,.F.) B_SPLINE_SURFACE_WITH_KNOTS((1,2,2,2,2,1),
  (2,2),(-2.094395102393,0.,2.094395102393,4.188790204786,6.28318530718,
    8.377580409573),(-8.,0.),.UNSPECIFIED.) 
GEOMETRIC_REPRESENTATION_ITEM() RATIONAL_B_SPLINE_SURFACE((
    (1.,1.)
    ,(0.5,0.5)
    ,(1.,1.)
    ,(0.5,0.5)
    ,(1.,1.)
    ,(0.5,0.5)
,(1.,1.))) REPRESENTATION_ITEM('') SURFACE() );
#1362 = CARTESIAN_POINT('',(5.,0.,8.));
#1363 = CARTESIAN_POINT('',(5.,0.,0.));
#1364 = CARTESIAN_POINT('',(5.,8.660254037844,8.));
#1365 = CARTESIAN_POINT('',(5.,8.660254037844,0.));
#1366 = CARTESIAN_POINT('',(-2.5,4.330127018922,8.));
#1367 = CARTESIAN_POINT('',(-2.5,4.330127018922,0.));
#1368 = CARTESIAN_POINT('',(-10.,1.22E-15,8.));
#1369 = CARTESIAN_POINT('',(-10.,1.22E-15,0.));
#1370 = CARTESIAN_POINT('',(-2.5,-4.330127018922,8.));
#1371 = CARTESIAN_POINT('',(-2.5,-4.330127018922,0.));
#1372 = CARTESIAN_POINT('',(5.,-8.660254037844,8.));
#1373 = CARTESIAN_POINT('',(5.,-8.660254037844,0.));
#1374 = CARTESIAN_POINT('',(5.,0.,8.));
#1375 = CARTESIAN_POINT('',(5.,0.,0.));
#1376 = ADVANCED_FACE('',(#1377),#1380,.T.);
#1377 = FACE_BOUND('',#1378,.T.);
#1378 = EDGE_LOOP('',(#1379));
#1379 = ORIENTED_EDGE('',*,*,#1350,.T.);
#1380 = B_SPLINE_SURFACE_WITH_KNOTS('',1,1,(
    (#1381,#1382)
    ,(#1383,#1384
    )),.UNSPECIFIED.,.F.,.F.,.F.,(2,2),(2,2),(-5.,5.),(-5.,5.),
  .PIECEWISE_BEZIER_KNOTS.);
#1381 = CARTESIAN_POINT('',(-5.,-5.,8.));
#1382 = CARTESIAN_POINT('',(-5.,5.,8.));
#1383 = CARTESIAN_POINT('',(5.,-5.,8.));
#1384 = CARTESIAN_POINT('',(5.,5.,8.));
#1385 = ( GEOMETRIC_REPRESENTATION_CONTEXT(3) 
GLOBAL_UNCERTAINTY_ASSIGNED_CONTEXT((#1389)) 
GLOBAL_UNIT_ASSIGNED_CONTEXT((#1386,#1387,#1388)) REPRESENTATION_CONTEXT
('Context #1','3D Context with UNIT and UNCERTAINTY') );
#1386 = ( LENGTH_UNIT() NAMED_UNIT(*) SI_UNIT(.MILLI.,.METRE.) );
#1387 = ( NAMED_UNIT(*) PLANE_ANGLE_UNIT() SI_UNIT($,.RADIAN.) );
#1388 = ( NAMED_UNIT(*) SI_UNIT($,.STERADIAN.) SOLID_ANGLE_UNIT() );
#1389 = UNCERTAINTY_MEASURE_WITH_UNIT(LENGTH_MEASURE(1.E-07),#1386,
  'distance_accuracy_value','confusion accuracy');
#1390 = PRODUCT_RELATED_PRODUCT_CATEGORY('part',$,(#7));
#1391 = MECHANICAL_DESIGN_GEOMETRIC_PRESENTATION_REPRESENTATION('',(
    #1392),#1385);
#1392 = STYLED_ITEM('color',(#1393),#15);
#1393 = PRESENTATION_STYLE_ASSIGNMENT((#1394,#1400));
#1394 = SURFACE_STYLE_USAGE(.BOTH.,#1395);
#1395 = SURFACE_SIDE_STYLE('',(#1396));
#1396 = SURFACE_STYLE_FILL_AREA(#1397);
#1397 = FILL_AREA_STYLE('',(#1398));
#1398 = FILL_AREA_STYLE_COLOUR('',#1399);
#1399 = COLOUR_RGB('',0.447058818107,0.474509808674,0.501960817233);
#1400 = CURVE_STYLE('',#1401,POSITIVE_LENGTH_MEASURE(0.1),#1402);
#1401 = DRAUGHTING_PRE_DEFINED_CURVE_FONT('continuous');
#1402 = COLOUR_RGB('',9.803921802644E-02,9.803921802644E-02,
  9.803921802644E-02);
ENDSEC;
END-ISO-10303-21;
