ISO-10303-21;
HEADER;
FILE_DESCRIPTION(('FreeCAD Model'),'2;1');
FILE_NAME('Open CASCADE Shape Model','2026-01-21T16:00:13',(''),(''),
  'Open CASCADE STEP processor 7.8','FreeCAD','Unknown');
FILE_SCHEMA(('AUTOMOTIVE_DESIGN { 1 0 10303 214 1 1 1 1 }'));
ENDSEC;
DATA;
#1 = APPLICATION_PROTOCOL_DEFINITION('international standard',
  'automotive_design',2000,#2);
#2 = APPLICATION_CONTEXT(
  'core data for automotive mechanical design processes');
#3 = SHAPE_DEFINITION_REPRESENTATION(#4,#10);
#4 = PRODUCT_DEFINITION_SHAPE('','',#5);
#5 = PRODUCT_DEFINITION('design','',#6,#9);
#6 = PRODUCT_DEFINITION_FORMATION('','',#7);
#7 = PRODUCT('rotor','rotor','',(#8));
#8 = PRODUCT_CONTEXT('',#2,'mechanical');
#9 = PRODUCT_DEFINITION_CONTEXT('part definition',#2,'design');
#10 = ADVANCED_BREP_SHAPE_REPRESENTATION('',(#11,#15),#1017);
#11 = AXIS2_PLACEMENT_3D('',#12,#13,#14);
#12 = CARTESIAN_POINT('',(0.,0.,0.));
#13 = DIRECTION('',(0.,0.,1.));
#14 = DIRECTION('',(1.,0.,-0.));
#15 = MANIFOLD_SOLID_BREP('',#16);
#16 = CLOSED_SHELL('',(#17,#145,#154,#235,#316,#325,#462,#511,#617,#635,
    #666,#697,#728,#759,#790,#821,#838,#855,#872,#891,#908,#925,#937,
    #970,#1003));
#17 = ADVANCED_FACE('',(#18,#104),#140,.T.);
#18 = FACE_BOUND('',#19,.F.);
#19 = EDGE_LOOP('',(#20,#29,#37,#46,#54,#63,#71,#78,#79,#88,#96,#103));
#20 = ORIENTED_EDGE('',*,*,#21,.F.);
#21 = EDGE_CURVE('',#22,#22,#24,.T.);
#22 = VERTEX_POINT('',#23);
#23 = CARTESIAN_POINT('',(5.,0.,0.));
#24 = CIRCLE('',#25,5.);
#25 = AXIS2_PLACEMENT_3D('',#26,#27,#28);
#26 = CARTESIAN_POINT('',(0.,0.,0.));
#27 = DIRECTION('',(0.,0.,1.));
#28 = DIRECTION('',(1.,0.,0.));
#29 = ORIENTED_EDGE('',*,*,#30,.T.);
#30 = EDGE_CURVE('',#22,#31,#33,.T.);
#31 = VERTEX_POINT('',#32);
#32 = CARTESIAN_POINT('',(5.,-1.472155730653E-13,13.));
#33 = LINE('',#34,#35);
#34 = CARTESIAN_POINT('',(5.,0.,0.));
#35 = VECTOR('',#36,1.);
#36 = DIRECTION('',(0.,0.,1.));
#37 = ORIENTED_EDGE('',*,*,#38,.T.);
#38 = EDGE_CURVE('',#31,#39,#41,.T.);
#39 = VERTEX_POINT('',#40);
#40 = CARTESIAN_POINT('',(4.737087712931,1.6,13.));
#41 = CIRCLE('',#42,5.);
#42 = AXIS2_PLACEMENT_3D('',#43,#44,#45);
#43 = CARTESIAN_POINT('',(0.,0.,13.));
#44 = DIRECTION('',(-0.,0.,1.));
#45 = DIRECTION('',(0.947417542586,-0.32,0.));
#46 = ORIENTED_EDGE('',*,*,#47,.T.);
#47 = EDGE_CURVE('',#39,#48,#50,.T.);
#48 = VERTEX_POINT('',#49);
#49 = CARTESIAN_POINT('',(4.737087712931,1.6,25.4));
#50 = LINE('',#51,#52);
#51 = CARTESIAN_POINT('',(4.737087712931,1.6,0.));
#52 = VECTOR('',#53,1.);
#53 = DIRECTION('',(0.,0.,1.));
#54 = ORIENTED_EDGE('',*,*,#55,.F.);
#55 = EDGE_CURVE('',#56,#48,#58,.T.);
#56 = VERTEX_POINT('',#57);
#57 = CARTESIAN_POINT('',(5.,-1.472155730653E-13,25.4));
#58 = CIRCLE('',#59,5.);
#59 = AXIS2_PLACEMENT_3D('',#60,#61,#62);
#60 = CARTESIAN_POINT('',(0.,0.,25.4));
#61 = DIRECTION('',(-0.,0.,1.));
#62 = DIRECTION('',(0.947417542586,-0.32,0.));
#63 = ORIENTED_EDGE('',*,*,#64,.T.);
#64 = EDGE_CURVE('',#56,#65,#67,.T.);
#65 = VERTEX_POINT('',#66);
#66 = CARTESIAN_POINT('',(5.,0.,30.));
#67 = LINE('',#68,#69);
#68 = CARTESIAN_POINT('',(5.,0.,0.));
#69 = VECTOR('',#70,1.);
#70 = DIRECTION('',(0.,0.,1.));
#71 = ORIENTED_EDGE('',*,*,#72,.T.);
#72 = EDGE_CURVE('',#65,#65,#73,.T.);
#73 = CIRCLE('',#74,5.);
#74 = AXIS2_PLACEMENT_3D('',#75,#76,#77);
#75 = CARTESIAN_POINT('',(0.,0.,30.));
#76 = DIRECTION('',(0.,0.,1.));
#77 = DIRECTION('',(1.,0.,0.));
#78 = ORIENTED_EDGE('',*,*,#64,.F.);
#79 = ORIENTED_EDGE('',*,*,#80,.F.);
#80 = EDGE_CURVE('',#81,#56,#83,.T.);
#81 = VERTEX_POINT('',#82);
#82 = CARTESIAN_POINT('',(4.737087712931,-1.6,25.4));
#83 = CIRCLE('',#84,5.);
#84 = AXIS2_PLACEMENT_3D('',#85,#86,#87);
#85 = CARTESIAN_POINT('',(0.,0.,25.4));
#86 = DIRECTION('',(-0.,0.,1.));
#87 = DIRECTION('',(0.947417542586,-0.32,0.));
#88 = ORIENTED_EDGE('',*,*,#89,.T.);
#89 = EDGE_CURVE('',#81,#90,#92,.T.);
#90 = VERTEX_POINT('',#91);
#91 = CARTESIAN_POINT('',(4.737087712931,-1.6,13.));
#92 = LINE('',#93,#94);
#93 = CARTESIAN_POINT('',(4.737087712931,-1.6,0.));
#94 = VECTOR('',#95,1.);
#95 = DIRECTION('',(0.,0.,-1.));
#96 = ORIENTED_EDGE('',*,*,#97,.T.);
#97 = EDGE_CURVE('',#90,#31,#98,.T.);
#98 = CIRCLE('',#99,5.);
#99 = AXIS2_PLACEMENT_3D('',#100,#101,#102);
#100 = CARTESIAN_POINT('',(0.,0.,13.));
#101 = DIRECTION('',(-0.,0.,1.));
#102 = DIRECTION('',(0.947417542586,-0.32,0.));
#103 = ORIENTED_EDGE('',*,*,#30,.F.);
#104 = FACE_BOUND('',#105,.F.);
#105 = EDGE_LOOP('',(#106,#116,#125,#133));
#106 = ORIENTED_EDGE('',*,*,#107,.T.);
#107 = EDGE_CURVE('',#108,#110,#112,.T.);
#108 = VERTEX_POINT('',#109);
#109 = CARTESIAN_POINT('',(-4.737087712931,-1.6,13.));
#110 = VERTEX_POINT('',#111);
#111 = CARTESIAN_POINT('',(-4.737087712931,-1.6,25.4));
#112 = LINE('',#113,#114);
#113 = CARTESIAN_POINT('',(-4.737087712931,-1.6,0.));
#114 = VECTOR('',#115,1.);
#115 = DIRECTION('',(0.,0.,1.));
#116 = ORIENTED_EDGE('',*,*,#117,.T.);
#117 = EDGE_CURVE('',#110,#118,#120,.T.);
#118 = VERTEX_POINT('',#119);
#119 = CARTESIAN_POINT('',(-4.737087712931,1.6,25.4));
#120 = CIRCLE('',#121,5.);
#121 = AXIS2_PLACEMENT_3D('',#122,#123,#124);
#122 = CARTESIAN_POINT('',(0.,0.,25.4));
#123 = DIRECTION('',(-0.,0.,-1.));
#124 = DIRECTION('',(-0.947417542586,-0.32,0.));
#125 = ORIENTED_EDGE('',*,*,#126,.T.);
#126 = EDGE_CURVE('',#118,#127,#129,.T.);
#127 = VERTEX_POINT('',#128);
#128 = CARTESIAN_POINT('',(-4.737087712931,1.6,13.));
#129 = LINE('',#130,#131);
#130 = CARTESIAN_POINT('',(-4.737087712931,1.6,0.));
#131 = VECTOR('',#132,1.);
#132 = DIRECTION('',(-0.,-0.,-1.));
#133 = ORIENTED_EDGE('',*,*,#134,.F.);
#134 = EDGE_CURVE('',#108,#127,#135,.T.);
#135 = CIRCLE('',#136,5.);
#136 = AXIS2_PLACEMENT_3D('',#137,#138,#139);
#137 = CARTESIAN_POINT('',(0.,0.,13.));
#138 = DIRECTION('',(-0.,0.,-1.));
#139 = DIRECTION('',(-0.947417542586,-0.32,0.));
#140 = CYLINDRICAL_SURFACE('',#141,5.);
#141 = AXIS2_PLACEMENT_3D('',#142,#143,#144);
#142 = CARTESIAN_POINT('',(0.,0.,0.));
#143 = DIRECTION('',(-0.,-0.,-1.));
#144 = DIRECTION('',(1.,0.,0.));
#145 = ADVANCED_FACE('',(#146),#149,.F.);
#146 = FACE_BOUND('',#147,.F.);
#147 = EDGE_LOOP('',(#148));
#148 = ORIENTED_EDGE('',*,*,#21,.T.);
#149 = PLANE('',#150);
#150 = AXIS2_PLACEMENT_3D('',#151,#152,#153);
#151 = CARTESIAN_POINT('',(-2.734880265079E-16,3.428682531579E-16,0.));
#152 = DIRECTION('',(0.,0.,1.));
#153 = DIRECTION('',(1.,0.,0.));
#154 = ADVANCED_FACE('',(#155),#230,.F.);
#155 = FACE_BOUND('',#156,.T.);
#156 = EDGE_LOOP('',(#157,#189,#190,#191,#223));
#157 = ORIENTED_EDGE('',*,*,#158,.F.);
#158 = EDGE_CURVE('',#90,#159,#161,.T.);
#159 = VERTEX_POINT('',#160);
#160 = CARTESIAN_POINT('',(6.81469001496,-1.6,15.));
#161 = B_SPLINE_CURVE_WITH_KNOTS('',6,(#162,#163,#164,#165,#166,#167,
    #168,#169,#170,#171,#172,#173,#174,#175,#176,#177,#178,#179,#180,
    #181,#182,#183,#184,#185,#186,#187,#188),.UNSPECIFIED.,.F.,.F.,(7,5,
    5,5,5,7),(0.,0.345792753246,0.478711210719,0.569084054316,
    0.798936317337,1.),.UNSPECIFIED.);
#162 = CARTESIAN_POINT('',(4.737087712931,-1.6,13.));
#163 = CARTESIAN_POINT('',(4.737087712931,-1.6,13.18381504281));
#164 = CARTESIAN_POINT('',(4.758485940202,-1.6,13.367687093141));
#165 = CARTESIAN_POINT('',(4.801304987763,-1.6,13.548390239649));
#166 = CARTESIAN_POINT('',(4.864628929198,-1.6,13.723028542158));
#167 = CARTESIAN_POINT('',(4.94702573808,-1.6,13.888997066484));
#168 = CARTESIAN_POINT('',(5.084807639685,-1.6,14.103600265806));
#169 = CARTESIAN_POINT('',(5.125602239892,-1.6,14.16158005812));
#170 = CARTESIAN_POINT('',(5.168831400178,-1.6,14.217830218663));
#171 = CARTESIAN_POINT('',(5.214385189308,-1.6,14.272237312237));
#172 = CARTESIAN_POINT('',(5.262148737102,-1.6,14.324696612358));
#173 = CARTESIAN_POINT('',(5.345900458872,-1.6,14.409388884833));
#174 = CARTESIAN_POINT('',(5.380764163272,-1.6,14.442721304493));
#175 = CARTESIAN_POINT('',(5.41655742008,-1.6,14.475078269467));
#176 = CARTESIAN_POINT('',(5.453242299502,-1.6,14.506431122219));
#177 = CARTESIAN_POINT('',(5.490780201335,-1.6,14.536752859672));
#178 = CARTESIAN_POINT('',(5.626674590451,-1.6,14.640450773403));
#179 = CARTESIAN_POINT('',(5.729481430267,-1.6,14.708049084742));
#180 = CARTESIAN_POINT('',(5.836906969216,-1.6,14.768396444246));
#181 = CARTESIAN_POINT('',(5.948282238527,-1.6,14.821139988407));
#182 = CARTESIAN_POINT('',(6.062916400341,-1.6,14.865991129567));
#183 = CARTESIAN_POINT('',(6.28260364516,-1.6,14.934860029893));
#184 = CARTESIAN_POINT('',(6.387059363082,-1.6,14.960783889614));
#185 = CARTESIAN_POINT('',(6.492988073636,-1.6,14.980348059785));
#186 = CARTESIAN_POINT('',(6.599902272728,-1.6,14.993442463903));
#187 = CARTESIAN_POINT('',(6.70730494177,-1.6,15.));
#188 = CARTESIAN_POINT('',(6.81469001496,-1.6,15.));
#189 = ORIENTED_EDGE('',*,*,#97,.T.);
#190 = ORIENTED_EDGE('',*,*,#38,.T.);
#191 = ORIENTED_EDGE('',*,*,#192,.T.);
#192 = EDGE_CURVE('',#39,#193,#195,.T.);
#193 = VERTEX_POINT('',#194);
#194 = CARTESIAN_POINT('',(6.81469001496,1.6,15.));
#195 = B_SPLINE_CURVE_WITH_KNOTS('',6,(#196,#197,#198,#199,#200,#201,
    #202,#203,#204,#205,#206,#207,#208,#209,#210,#211,#212,#213,#214,
    #215,#216,#217,#218,#219,#220,#221,#222),.UNSPECIFIED.,.F.,.F.,(7,5,
    5,5,5,7),(0.,0.345792753246,0.478711210719,0.569084054316,
    0.798936317337,1.),.UNSPECIFIED.);
#196 = CARTESIAN_POINT('',(4.737087712931,1.6,13.));
#197 = CARTESIAN_POINT('',(4.737087712931,1.6,13.18381504281));
#198 = CARTESIAN_POINT('',(4.758485940201,1.6,13.367687093141));
#199 = CARTESIAN_POINT('',(4.801304987763,1.6,13.54839023965));
#200 = CARTESIAN_POINT('',(4.864628929198,1.6,13.723028542158));
#201 = CARTESIAN_POINT('',(4.94702573808,1.6,13.888997066484));
#202 = CARTESIAN_POINT('',(5.084807639685,1.6,14.103600265806));
#203 = CARTESIAN_POINT('',(5.125602239892,1.6,14.16158005812));
#204 = CARTESIAN_POINT('',(5.168831400178,1.6,14.217830218663));
#205 = CARTESIAN_POINT('',(5.214385189308,1.6,14.272237312237));
#206 = CARTESIAN_POINT('',(5.262148737102,1.6,14.324696612358));
#207 = CARTESIAN_POINT('',(5.345900458872,1.6,14.409388884833));
#208 = CARTESIAN_POINT('',(5.380764163272,1.6,14.442721304493));
#209 = CARTESIAN_POINT('',(5.41655742008,1.6,14.475078269467));
#210 = CARTESIAN_POINT('',(5.453242299502,1.6,14.506431122219));
#211 = CARTESIAN_POINT('',(5.490780201335,1.6,14.536752859672));
#212 = CARTESIAN_POINT('',(5.626674590451,1.6,14.640450773403));
#213 = CARTESIAN_POINT('',(5.729481430267,1.6,14.708049084742));
#214 = CARTESIAN_POINT('',(5.836906969216,1.6,14.768396444246));
#215 = CARTESIAN_POINT('',(5.948282238527,1.6,14.821139988407));
#216 = CARTESIAN_POINT('',(6.062916400341,1.6,14.865991129567));
#217 = CARTESIAN_POINT('',(6.28260364516,1.6,14.934860029893));
#218 = CARTESIAN_POINT('',(6.387059363082,1.6,14.960783889614));
#219 = CARTESIAN_POINT('',(6.492988073636,1.6,14.980348059785));
#220 = CARTESIAN_POINT('',(6.599902272728,1.6,14.993442463903));
#221 = CARTESIAN_POINT('',(6.70730494177,1.6,15.));
#222 = CARTESIAN_POINT('',(6.81469001496,1.6,15.));
#223 = ORIENTED_EDGE('',*,*,#224,.F.);
#224 = EDGE_CURVE('',#159,#193,#225,.T.);
#225 = CIRCLE('',#226,7.);
#226 = AXIS2_PLACEMENT_3D('',#227,#228,#229);
#227 = CARTESIAN_POINT('',(0.,0.,15.));
#228 = DIRECTION('',(-0.,0.,1.));
#229 = DIRECTION('',(0.947417542586,-0.32,0.));
#230 = TOROIDAL_SURFACE('',#231,7.,2.);
#231 = AXIS2_PLACEMENT_3D('',#232,#233,#234);
#232 = CARTESIAN_POINT('',(0.,0.,13.));
#233 = DIRECTION('',(0.,0.,-1.));
#234 = DIRECTION('',(0.947417542586,-0.32,0.));
#235 = ADVANCED_FACE('',(#236),#311,.F.);
#236 = FACE_BOUND('',#237,.F.);
#237 = EDGE_LOOP('',(#238,#270,#271,#272,#304));
#238 = ORIENTED_EDGE('',*,*,#239,.F.);
#239 = EDGE_CURVE('',#81,#240,#242,.T.);
#240 = VERTEX_POINT('',#241);
#241 = CARTESIAN_POINT('',(6.81469001496,-1.6,23.4));
#242 = B_SPLINE_CURVE_WITH_KNOTS('',6,(#243,#244,#245,#246,#247,#248,
    #249,#250,#251,#252,#253,#254,#255,#256,#257,#258,#259,#260,#261,
    #262,#263,#264,#265,#266,#267,#268,#269),.UNSPECIFIED.,.F.,.F.,(7,5,
    5,5,5,7),(0.,0.345792753246,0.478711210719,0.569084054316,
    0.798936317337,1.),.UNSPECIFIED.);
#243 = CARTESIAN_POINT('',(4.737087712931,-1.6,25.4));
#244 = CARTESIAN_POINT('',(4.737087712931,-1.6,25.21618495719));
#245 = CARTESIAN_POINT('',(4.758485940201,-1.6,25.032312906859));
#246 = CARTESIAN_POINT('',(4.801304987763,-1.6,24.85160976035));
#247 = CARTESIAN_POINT('',(4.864628929198,-1.6,24.676971457842));
#248 = CARTESIAN_POINT('',(4.94702573808,-1.6,24.511002933516));
#249 = CARTESIAN_POINT('',(5.084807639685,-1.6,24.296399734194));
#250 = CARTESIAN_POINT('',(5.125602239892,-1.6,24.23841994188));
#251 = CARTESIAN_POINT('',(5.168831400178,-1.6,24.182169781337));
#252 = CARTESIAN_POINT('',(5.214385189308,-1.6,24.127762687763));
#253 = CARTESIAN_POINT('',(5.262148737102,-1.6,24.075303387642));
#254 = CARTESIAN_POINT('',(5.345900458872,-1.6,23.990611115167));
#255 = CARTESIAN_POINT('',(5.380764163272,-1.6,23.957278695507));
#256 = CARTESIAN_POINT('',(5.41655742008,-1.6,23.924921730533));
#257 = CARTESIAN_POINT('',(5.453242299502,-1.6,23.893568877781));
#258 = CARTESIAN_POINT('',(5.490780201335,-1.6,23.863247140328));
#259 = CARTESIAN_POINT('',(5.626674590451,-1.6,23.759549226597));
#260 = CARTESIAN_POINT('',(5.729481430267,-1.6,23.691950915258));
#261 = CARTESIAN_POINT('',(5.836906969216,-1.6,23.631603555754));
#262 = CARTESIAN_POINT('',(5.948282238527,-1.6,23.578860011593));
#263 = CARTESIAN_POINT('',(6.062916400341,-1.6,23.534008870433));
#264 = CARTESIAN_POINT('',(6.28260364516,-1.6,23.465139970107));
#265 = CARTESIAN_POINT('',(6.387059363082,-1.6,23.439216110386));
#266 = CARTESIAN_POINT('',(6.492988073636,-1.6,23.419651940215));
#267 = CARTESIAN_POINT('',(6.599902272728,-1.6,23.406557536097));
#268 = CARTESIAN_POINT('',(6.70730494177,-1.6,23.4));
#269 = CARTESIAN_POINT('',(6.81469001496,-1.6,23.4));
#270 = ORIENTED_EDGE('',*,*,#80,.T.);
#271 = ORIENTED_EDGE('',*,*,#55,.T.);
#272 = ORIENTED_EDGE('',*,*,#273,.T.);
#273 = EDGE_CURVE('',#48,#274,#276,.T.);
#274 = VERTEX_POINT('',#275);
#275 = CARTESIAN_POINT('',(6.81469001496,1.6,23.4));
#276 = B_SPLINE_CURVE_WITH_KNOTS('',6,(#277,#278,#279,#280,#281,#282,
    #283,#284,#285,#286,#287,#288,#289,#290,#291,#292,#293,#294,#295,
    #296,#297,#298,#299,#300,#301,#302,#303),.UNSPECIFIED.,.F.,.F.,(7,5,
    5,5,5,7),(0.,0.345792753246,0.478711210719,0.569084054316,
    0.798936317337,1.),.UNSPECIFIED.);
#277 = CARTESIAN_POINT('',(4.737087712931,1.6,25.4));
#278 = CARTESIAN_POINT('',(4.737087712931,1.6,25.21618495719));
#279 = CARTESIAN_POINT('',(4.758485940201,1.6,25.032312906859));
#280 = CARTESIAN_POINT('',(4.801304987763,1.6,24.85160976035));
#281 = CARTESIAN_POINT('',(4.864628929198,1.6,24.676971457842));
#282 = CARTESIAN_POINT('',(4.94702573808,1.6,24.511002933516));
#283 = CARTESIAN_POINT('',(5.084807639685,1.6,24.296399734194));
#284 = CARTESIAN_POINT('',(5.125602239892,1.6,24.23841994188));
#285 = CARTESIAN_POINT('',(5.168831400178,1.6,24.182169781337));
#286 = CARTESIAN_POINT('',(5.214385189308,1.6,24.127762687763));
#287 = CARTESIAN_POINT('',(5.262148737102,1.6,24.075303387642));
#288 = CARTESIAN_POINT('',(5.345900458872,1.6,23.990611115167));
#289 = CARTESIAN_POINT('',(5.380764163272,1.6,23.957278695507));
#290 = CARTESIAN_POINT('',(5.41655742008,1.6,23.924921730533));
#291 = CARTESIAN_POINT('',(5.453242299502,1.6,23.893568877781));
#292 = CARTESIAN_POINT('',(5.490780201335,1.6,23.863247140328));
#293 = CARTESIAN_POINT('',(5.626674590451,1.6,23.759549226597));
#294 = CARTESIAN_POINT('',(5.729481430267,1.6,23.691950915258));
#295 = CARTESIAN_POINT('',(5.836906969216,1.6,23.631603555754));
#296 = CARTESIAN_POINT('',(5.948282238527,1.6,23.578860011593));
#297 = CARTESIAN_POINT('',(6.062916400341,1.6,23.534008870433));
#298 = CARTESIAN_POINT('',(6.28260364516,1.6,23.465139970107));
#299 = CARTESIAN_POINT('',(6.387059363082,1.6,23.439216110386));
#300 = CARTESIAN_POINT('',(6.492988073636,1.6,23.419651940215));
#301 = CARTESIAN_POINT('',(6.599902272728,1.6,23.406557536097));
#302 = CARTESIAN_POINT('',(6.70730494177,1.6,23.4));
#303 = CARTESIAN_POINT('',(6.81469001496,1.6,23.4));
#304 = ORIENTED_EDGE('',*,*,#305,.F.);
#305 = EDGE_CURVE('',#240,#274,#306,.T.);
#306 = CIRCLE('',#307,7.);
#307 = AXIS2_PLACEMENT_3D('',#308,#309,#310);
#308 = CARTESIAN_POINT('',(0.,0.,23.4));
#309 = DIRECTION('',(-0.,0.,1.));
#310 = DIRECTION('',(0.947417542586,-0.32,0.));
#311 = TOROIDAL_SURFACE('',#312,7.,2.);
#312 = AXIS2_PLACEMENT_3D('',#313,#314,#315);
#313 = CARTESIAN_POINT('',(0.,0.,25.4));
#314 = DIRECTION('',(0.,0.,1.));
#315 = DIRECTION('',(0.947417542586,-0.32,0.));
#316 = ADVANCED_FACE('',(#317),#320,.T.);
#317 = FACE_BOUND('',#318,.T.);
#318 = EDGE_LOOP('',(#319));
#319 = ORIENTED_EDGE('',*,*,#72,.T.);
#320 = PLANE('',#321);
#321 = AXIS2_PLACEMENT_3D('',#322,#323,#324);
#322 = CARTESIAN_POINT('',(-2.734880265079E-16,3.428682531579E-16,30.));
#323 = DIRECTION('',(0.,0.,1.));
#324 = DIRECTION('',(1.,0.,0.));
#325 = ADVANCED_FACE('',(#326),#457,.F.);
#326 = FACE_BOUND('',#327,.F.);
#327 = EDGE_LOOP('',(#328,#338,#346,#354,#363,#372,#380,#388,#396,#426,
    #427));
#328 = ORIENTED_EDGE('',*,*,#329,.F.);
#329 = EDGE_CURVE('',#330,#332,#334,.T.);
#330 = VERTEX_POINT('',#331);
#331 = CARTESIAN_POINT('',(-13.38126634843,-1.6,15.));
#332 = VERTEX_POINT('',#333);
#333 = CARTESIAN_POINT('',(-6.81469001496,-1.6,15.));
#334 = LINE('',#335,#336);
#335 = CARTESIAN_POINT('',(-13.38126634843,-1.6,15.));
#336 = VECTOR('',#337,1.);
#337 = DIRECTION('',(1.,0.,0.));
#338 = ORIENTED_EDGE('',*,*,#339,.T.);
#339 = EDGE_CURVE('',#330,#340,#342,.T.);
#340 = VERTEX_POINT('',#341);
#341 = CARTESIAN_POINT('',(-13.38126634843,-1.6,18.075));
#342 = LINE('',#343,#344);
#343 = CARTESIAN_POINT('',(-13.38126634843,-1.6,15.));
#344 = VECTOR('',#345,1.);
#345 = DIRECTION('',(0.,0.,1.));
#346 = ORIENTED_EDGE('',*,*,#347,.F.);
#347 = EDGE_CURVE('',#348,#340,#350,.T.);
#348 = VERTEX_POINT('',#349);
#349 = CARTESIAN_POINT('',(-13.17699247076,-1.6,18.075));
#350 = LINE('',#351,#352);
#351 = CARTESIAN_POINT('',(-12.38126634843,-1.6,18.075));
#352 = VECTOR('',#353,1.);
#353 = DIRECTION('',(-1.,0.,0.));
#354 = ORIENTED_EDGE('',*,*,#355,.T.);
#355 = EDGE_CURVE('',#348,#356,#358,.T.);
#356 = VERTEX_POINT('',#357);
#357 = CARTESIAN_POINT('',(-6.981266348434,-1.6,19.2));
#358 = CIRCLE('',#359,3.2);
#359 = AXIS2_PLACEMENT_3D('',#360,#361,#362);
#360 = CARTESIAN_POINT('',(-10.18126634843,-1.6,19.2));
#361 = DIRECTION('',(0.,-1.,2.22044604925E-16));
#362 = DIRECTION('',(1.,0.,0.));
#363 = ORIENTED_EDGE('',*,*,#364,.T.);
#364 = EDGE_CURVE('',#356,#365,#367,.T.);
#365 = VERTEX_POINT('',#366);
#366 = CARTESIAN_POINT('',(-13.17699247076,-1.6,20.325));
#367 = CIRCLE('',#368,3.2);
#368 = AXIS2_PLACEMENT_3D('',#369,#370,#371);
#369 = CARTESIAN_POINT('',(-10.18126634843,-1.6,19.2));
#370 = DIRECTION('',(0.,-1.,2.22044604925E-16));
#371 = DIRECTION('',(1.,0.,0.));
#372 = ORIENTED_EDGE('',*,*,#373,.F.);
#373 = EDGE_CURVE('',#374,#365,#376,.T.);
#374 = VERTEX_POINT('',#375);
#375 = CARTESIAN_POINT('',(-13.38126634843,-1.6,20.325));
#376 = LINE('',#377,#378);
#377 = CARTESIAN_POINT('',(-14.38126634843,-1.6,20.325));
#378 = VECTOR('',#379,1.);
#379 = DIRECTION('',(1.,0.,0.));
#380 = ORIENTED_EDGE('',*,*,#381,.T.);
#381 = EDGE_CURVE('',#374,#382,#384,.T.);
#382 = VERTEX_POINT('',#383);
#383 = CARTESIAN_POINT('',(-13.38126634843,-1.6,23.4));
#384 = LINE('',#385,#386);
#385 = CARTESIAN_POINT('',(-13.38126634843,-1.6,15.));
#386 = VECTOR('',#387,1.);
#387 = DIRECTION('',(0.,0.,1.));
#388 = ORIENTED_EDGE('',*,*,#389,.T.);
#389 = EDGE_CURVE('',#382,#390,#392,.T.);
#390 = VERTEX_POINT('',#391);
#391 = CARTESIAN_POINT('',(-6.81469001496,-1.6,23.4));
#392 = LINE('',#393,#394);
#393 = CARTESIAN_POINT('',(-13.38126634843,-1.6,23.4));
#394 = VECTOR('',#395,1.);
#395 = DIRECTION('',(1.,0.,0.));
#396 = ORIENTED_EDGE('',*,*,#397,.F.);
#397 = EDGE_CURVE('',#110,#390,#398,.T.);
#398 = B_SPLINE_CURVE_WITH_KNOTS('',6,(#399,#400,#401,#402,#403,#404,
    #405,#406,#407,#408,#409,#410,#411,#412,#413,#414,#415,#416,#417,
    #418,#419,#420,#421,#422,#423,#424,#425),.UNSPECIFIED.,.F.,.F.,(7,5,
    5,5,5,7),(0.,0.345792753246,0.478711210719,0.569084054316,
    0.798936317337,1.),.UNSPECIFIED.);
#399 = CARTESIAN_POINT('',(-4.737087712931,-1.6,25.4));
#400 = CARTESIAN_POINT('',(-4.737087712931,-1.6,25.21618495719));
#401 = CARTESIAN_POINT('',(-4.758485940201,-1.6,25.032312906859));
#402 = CARTESIAN_POINT('',(-4.801304987763,-1.6,24.85160976035));
#403 = CARTESIAN_POINT('',(-4.864628929198,-1.6,24.676971457842));
#404 = CARTESIAN_POINT('',(-4.94702573808,-1.6,24.511002933516));
#405 = CARTESIAN_POINT('',(-5.084807639685,-1.6,24.296399734194));
#406 = CARTESIAN_POINT('',(-5.125602239892,-1.6,24.23841994188));
#407 = CARTESIAN_POINT('',(-5.168831400178,-1.6,24.182169781337));
#408 = CARTESIAN_POINT('',(-5.214385189308,-1.6,24.127762687763));
#409 = CARTESIAN_POINT('',(-5.262148737102,-1.6,24.075303387642));
#410 = CARTESIAN_POINT('',(-5.345900458872,-1.6,23.990611115167));
#411 = CARTESIAN_POINT('',(-5.380764163272,-1.6,23.957278695507));
#412 = CARTESIAN_POINT('',(-5.41655742008,-1.6,23.924921730533));
#413 = CARTESIAN_POINT('',(-5.453242299502,-1.6,23.893568877781));
#414 = CARTESIAN_POINT('',(-5.490780201335,-1.6,23.863247140328));
#415 = CARTESIAN_POINT('',(-5.626674590451,-1.6,23.759549226597));
#416 = CARTESIAN_POINT('',(-5.729481430267,-1.6,23.691950915258));
#417 = CARTESIAN_POINT('',(-5.836906969216,-1.6,23.631603555754));
#418 = CARTESIAN_POINT('',(-5.948282238527,-1.6,23.578860011593));
#419 = CARTESIAN_POINT('',(-6.062916400341,-1.6,23.534008870433));
#420 = CARTESIAN_POINT('',(-6.28260364516,-1.6,23.465139970107));
#421 = CARTESIAN_POINT('',(-6.387059363082,-1.6,23.439216110386));
#422 = CARTESIAN_POINT('',(-6.492988073636,-1.6,23.419651940215));
#423 = CARTESIAN_POINT('',(-6.599902272728,-1.6,23.406557536097));
#424 = CARTESIAN_POINT('',(-6.70730494177,-1.6,23.4));
#425 = CARTESIAN_POINT('',(-6.81469001496,-1.6,23.4));
#426 = ORIENTED_EDGE('',*,*,#107,.F.);
#427 = ORIENTED_EDGE('',*,*,#428,.T.);
#428 = EDGE_CURVE('',#108,#332,#429,.T.);
#429 = B_SPLINE_CURVE_WITH_KNOTS('',6,(#430,#431,#432,#433,#434,#435,
    #436,#437,#438,#439,#440,#441,#442,#443,#444,#445,#446,#447,#448,
    #449,#450,#451,#452,#453,#454,#455,#456),.UNSPECIFIED.,.F.,.F.,(7,5,
    5,5,5,7),(0.,0.345792753246,0.478711210719,0.569084054316,
    0.798936317337,1.),.UNSPECIFIED.);
#430 = CARTESIAN_POINT('',(-4.737087712931,-1.6,13.));
#431 = CARTESIAN_POINT('',(-4.737087712931,-1.6,13.18381504281));
#432 = CARTESIAN_POINT('',(-4.758485940202,-1.6,13.367687093141));
#433 = CARTESIAN_POINT('',(-4.801304987763,-1.6,13.548390239649));
#434 = CARTESIAN_POINT('',(-4.864628929198,-1.6,13.723028542158));
#435 = CARTESIAN_POINT('',(-4.94702573808,-1.6,13.888997066484));
#436 = CARTESIAN_POINT('',(-5.084807639685,-1.6,14.103600265806));
#437 = CARTESIAN_POINT('',(-5.125602239892,-1.6,14.16158005812));
#438 = CARTESIAN_POINT('',(-5.168831400178,-1.6,14.217830218663));
#439 = CARTESIAN_POINT('',(-5.214385189308,-1.6,14.272237312237));
#440 = CARTESIAN_POINT('',(-5.262148737102,-1.6,14.324696612358));
#441 = CARTESIAN_POINT('',(-5.345900458872,-1.6,14.409388884833));
#442 = CARTESIAN_POINT('',(-5.380764163272,-1.6,14.442721304493));
#443 = CARTESIAN_POINT('',(-5.41655742008,-1.6,14.475078269467));
#444 = CARTESIAN_POINT('',(-5.453242299502,-1.6,14.506431122219));
#445 = CARTESIAN_POINT('',(-5.490780201335,-1.6,14.536752859672));
#446 = CARTESIAN_POINT('',(-5.626674590451,-1.6,14.640450773403));
#447 = CARTESIAN_POINT('',(-5.729481430267,-1.6,14.708049084742));
#448 = CARTESIAN_POINT('',(-5.836906969216,-1.6,14.768396444246));
#449 = CARTESIAN_POINT('',(-5.948282238527,-1.6,14.821139988407));
#450 = CARTESIAN_POINT('',(-6.062916400341,-1.6,14.865991129567));
#451 = CARTESIAN_POINT('',(-6.28260364516,-1.6,14.934860029893));
#452 = CARTESIAN_POINT('',(-6.387059363082,-1.6,14.960783889614));
#453 = CARTESIAN_POINT('',(-6.492988073636,-1.6,14.980348059785));
#454 = CARTESIAN_POINT('',(-6.599902272728,-1.6,14.993442463903));
#455 = CARTESIAN_POINT('',(-6.70730494177,-1.6,15.));
#456 = CARTESIAN_POINT('',(-6.81469001496,-1.6,15.));
#457 = PLANE('',#458);
#458 = AXIS2_PLACEMENT_3D('',#459,#460,#461);
#459 = CARTESIAN_POINT('',(-13.38126634843,-1.6,15.));
#460 = DIRECTION('',(0.,1.,0.));
#461 = DIRECTION('',(1.,0.,0.));
#462 = ADVANCED_FACE('',(#463),#506,.F.);
#463 = FACE_BOUND('',#464,.T.);
#464 = EDGE_LOOP('',(#465,#466,#467,#499));
#465 = ORIENTED_EDGE('',*,*,#397,.F.);
#466 = ORIENTED_EDGE('',*,*,#117,.T.);
#467 = ORIENTED_EDGE('',*,*,#468,.T.);
#468 = EDGE_CURVE('',#118,#469,#471,.T.);
#469 = VERTEX_POINT('',#470);
#470 = CARTESIAN_POINT('',(-6.81469001496,1.6,23.4));
#471 = B_SPLINE_CURVE_WITH_KNOTS('',6,(#472,#473,#474,#475,#476,#477,
    #478,#479,#480,#481,#482,#483,#484,#485,#486,#487,#488,#489,#490,
    #491,#492,#493,#494,#495,#496,#497,#498),.UNSPECIFIED.,.F.,.F.,(7,5,
    5,5,5,7),(0.,0.345792753246,0.478711210719,0.569084054316,
    0.798936317337,1.),.UNSPECIFIED.);
#472 = CARTESIAN_POINT('',(-4.737087712931,1.6,25.4));
#473 = CARTESIAN_POINT('',(-4.737087712931,1.6,25.21618495719));
#474 = CARTESIAN_POINT('',(-4.758485940201,1.6,25.032312906859));
#475 = CARTESIAN_POINT('',(-4.801304987763,1.6,24.85160976035));
#476 = CARTESIAN_POINT('',(-4.864628929198,1.6,24.676971457842));
#477 = CARTESIAN_POINT('',(-4.94702573808,1.6,24.511002933516));
#478 = CARTESIAN_POINT('',(-5.084807639685,1.6,24.296399734194));
#479 = CARTESIAN_POINT('',(-5.125602239892,1.6,24.23841994188));
#480 = CARTESIAN_POINT('',(-5.168831400178,1.6,24.182169781337));
#481 = CARTESIAN_POINT('',(-5.214385189308,1.6,24.127762687763));
#482 = CARTESIAN_POINT('',(-5.262148737102,1.6,24.075303387642));
#483 = CARTESIAN_POINT('',(-5.345900458872,1.6,23.990611115167));
#484 = CARTESIAN_POINT('',(-5.380764163272,1.6,23.957278695507));
#485 = CARTESIAN_POINT('',(-5.41655742008,1.6,23.924921730533));
#486 = CARTESIAN_POINT('',(-5.453242299502,1.6,23.893568877781));
#487 = CARTESIAN_POINT('',(-5.490780201335,1.6,23.863247140328));
#488 = CARTESIAN_POINT('',(-5.626674590451,1.6,23.759549226597));
#489 = CARTESIAN_POINT('',(-5.729481430267,1.6,23.691950915258));
#490 = CARTESIAN_POINT('',(-5.836906969216,1.6,23.631603555754));
#491 = CARTESIAN_POINT('',(-5.948282238527,1.6,23.578860011593));
#492 = CARTESIAN_POINT('',(-6.062916400341,1.6,23.534008870433));
#493 = CARTESIAN_POINT('',(-6.28260364516,1.6,23.465139970107));
#494 = CARTESIAN_POINT('',(-6.387059363082,1.6,23.439216110386));
#495 = CARTESIAN_POINT('',(-6.492988073636,1.6,23.419651940215));
#496 = CARTESIAN_POINT('',(-6.599902272728,1.6,23.406557536097));
#497 = CARTESIAN_POINT('',(-6.70730494177,1.6,23.4));
#498 = CARTESIAN_POINT('',(-6.81469001496,1.6,23.4));
#499 = ORIENTED_EDGE('',*,*,#500,.F.);
#500 = EDGE_CURVE('',#390,#469,#501,.T.);
#501 = CIRCLE('',#502,7.);
#502 = AXIS2_PLACEMENT_3D('',#503,#504,#505);
#503 = CARTESIAN_POINT('',(0.,0.,23.4));
#504 = DIRECTION('',(-0.,0.,-1.));
#505 = DIRECTION('',(-0.947417542586,-0.32,0.));
#506 = TOROIDAL_SURFACE('',#507,7.,2.);
#507 = AXIS2_PLACEMENT_3D('',#508,#509,#510);
#508 = CARTESIAN_POINT('',(0.,0.,25.4));
#509 = DIRECTION('',(0.,0.,1.));
#510 = DIRECTION('',(-0.947417542586,-0.32,0.));
#511 = ADVANCED_FACE('',(#512),#612,.F.);
#512 = FACE_BOUND('',#513,.F.);
#513 = EDGE_LOOP('',(#514,#524,#554,#555,#556,#564,#572,#580,#589,#598,
    #606));
#514 = ORIENTED_EDGE('',*,*,#515,.F.);
#515 = EDGE_CURVE('',#516,#518,#520,.T.);
#516 = VERTEX_POINT('',#517);
#517 = CARTESIAN_POINT('',(-6.81469001496,1.6,15.));
#518 = VERTEX_POINT('',#519);
#519 = CARTESIAN_POINT('',(-13.38126634843,1.6,15.));
#520 = LINE('',#521,#522);
#521 = CARTESIAN_POINT('',(0.,1.6,15.));
#522 = VECTOR('',#523,1.);
#523 = DIRECTION('',(-1.,0.,0.));
#524 = ORIENTED_EDGE('',*,*,#525,.F.);
#525 = EDGE_CURVE('',#127,#516,#526,.T.);
#526 = B_SPLINE_CURVE_WITH_KNOTS('',6,(#527,#528,#529,#530,#531,#532,
    #533,#534,#535,#536,#537,#538,#539,#540,#541,#542,#543,#544,#545,
    #546,#547,#548,#549,#550,#551,#552,#553),.UNSPECIFIED.,.F.,.F.,(7,5,
    5,5,5,7),(0.,0.345792753246,0.478711210719,0.569084054316,
    0.798936317337,1.),.UNSPECIFIED.);
#527 = CARTESIAN_POINT('',(-4.737087712931,1.6,13.));
#528 = CARTESIAN_POINT('',(-4.737087712931,1.6,13.18381504281));
#529 = CARTESIAN_POINT('',(-4.758485940201,1.6,13.367687093141));
#530 = CARTESIAN_POINT('',(-4.801304987763,1.6,13.54839023965));
#531 = CARTESIAN_POINT('',(-4.864628929198,1.6,13.723028542158));
#532 = CARTESIAN_POINT('',(-4.94702573808,1.6,13.888997066484));
#533 = CARTESIAN_POINT('',(-5.084807639685,1.6,14.103600265806));
#534 = CARTESIAN_POINT('',(-5.125602239892,1.6,14.16158005812));
#535 = CARTESIAN_POINT('',(-5.168831400178,1.6,14.217830218663));
#536 = CARTESIAN_POINT('',(-5.214385189308,1.6,14.272237312237));
#537 = CARTESIAN_POINT('',(-5.262148737102,1.6,14.324696612358));
#538 = CARTESIAN_POINT('',(-5.345900458872,1.6,14.409388884833));
#539 = CARTESIAN_POINT('',(-5.380764163272,1.6,14.442721304493));
#540 = CARTESIAN_POINT('',(-5.41655742008,1.6,14.475078269467));
#541 = CARTESIAN_POINT('',(-5.453242299502,1.6,14.506431122219));
#542 = CARTESIAN_POINT('',(-5.490780201335,1.6,14.536752859672));
#543 = CARTESIAN_POINT('',(-5.626674590451,1.6,14.640450773403));
#544 = CARTESIAN_POINT('',(-5.729481430267,1.6,14.708049084742));
#545 = CARTESIAN_POINT('',(-5.836906969216,1.6,14.768396444246));
#546 = CARTESIAN_POINT('',(-5.948282238527,1.6,14.821139988407));
#547 = CARTESIAN_POINT('',(-6.062916400341,1.6,14.865991129567));
#548 = CARTESIAN_POINT('',(-6.28260364516,1.6,14.934860029893));
#549 = CARTESIAN_POINT('',(-6.387059363082,1.6,14.960783889614));
#550 = CARTESIAN_POINT('',(-6.492988073636,1.6,14.980348059785));
#551 = CARTESIAN_POINT('',(-6.599902272728,1.6,14.993442463903));
#552 = CARTESIAN_POINT('',(-6.70730494177,1.6,15.));
#553 = CARTESIAN_POINT('',(-6.81469001496,1.6,15.));
#554 = ORIENTED_EDGE('',*,*,#126,.F.);
#555 = ORIENTED_EDGE('',*,*,#468,.T.);
#556 = ORIENTED_EDGE('',*,*,#557,.T.);
#557 = EDGE_CURVE('',#469,#558,#560,.T.);
#558 = VERTEX_POINT('',#559);
#559 = CARTESIAN_POINT('',(-13.38126634843,1.6,23.4));
#560 = LINE('',#561,#562);
#561 = CARTESIAN_POINT('',(0.,1.6,23.4));
#562 = VECTOR('',#563,1.);
#563 = DIRECTION('',(-1.,0.,0.));
#564 = ORIENTED_EDGE('',*,*,#565,.F.);
#565 = EDGE_CURVE('',#566,#558,#568,.T.);
#566 = VERTEX_POINT('',#567);
#567 = CARTESIAN_POINT('',(-13.38126634843,1.6,20.325));
#568 = LINE('',#569,#570);
#569 = CARTESIAN_POINT('',(-13.38126634843,1.6,15.));
#570 = VECTOR('',#571,1.);
#571 = DIRECTION('',(0.,0.,1.));
#572 = ORIENTED_EDGE('',*,*,#573,.T.);
#573 = EDGE_CURVE('',#566,#574,#576,.T.);
#574 = VERTEX_POINT('',#575);
#575 = CARTESIAN_POINT('',(-13.17699247076,1.6,20.325));
#576 = LINE('',#577,#578);
#577 = CARTESIAN_POINT('',(-7.190633174217,1.6,20.325));
#578 = VECTOR('',#579,1.);
#579 = DIRECTION('',(1.,0.,0.));
#580 = ORIENTED_EDGE('',*,*,#581,.F.);
#581 = EDGE_CURVE('',#582,#574,#584,.T.);
#582 = VERTEX_POINT('',#583);
#583 = CARTESIAN_POINT('',(-6.981266348434,1.6,19.2));
#584 = CIRCLE('',#585,3.2);
#585 = AXIS2_PLACEMENT_3D('',#586,#587,#588);
#586 = CARTESIAN_POINT('',(-10.18126634843,1.6,19.2));
#587 = DIRECTION('',(0.,-1.,2.22044604925E-16));
#588 = DIRECTION('',(1.,0.,0.));
#589 = ORIENTED_EDGE('',*,*,#590,.F.);
#590 = EDGE_CURVE('',#591,#582,#593,.T.);
#591 = VERTEX_POINT('',#592);
#592 = CARTESIAN_POINT('',(-13.17699247076,1.6,18.075));
#593 = CIRCLE('',#594,3.2);
#594 = AXIS2_PLACEMENT_3D('',#595,#596,#597);
#595 = CARTESIAN_POINT('',(-10.18126634843,1.6,19.2));
#596 = DIRECTION('',(0.,-1.,2.22044604925E-16));
#597 = DIRECTION('',(1.,0.,0.));
#598 = ORIENTED_EDGE('',*,*,#599,.T.);
#599 = EDGE_CURVE('',#591,#600,#602,.T.);
#600 = VERTEX_POINT('',#601);
#601 = CARTESIAN_POINT('',(-13.38126634843,1.6,18.075));
#602 = LINE('',#603,#604);
#603 = CARTESIAN_POINT('',(-6.190633174217,1.6,18.075));
#604 = VECTOR('',#605,1.);
#605 = DIRECTION('',(-1.,0.,0.));
#606 = ORIENTED_EDGE('',*,*,#607,.F.);
#607 = EDGE_CURVE('',#518,#600,#608,.T.);
#608 = LINE('',#609,#610);
#609 = CARTESIAN_POINT('',(-13.38126634843,1.6,15.));
#610 = VECTOR('',#611,1.);
#611 = DIRECTION('',(0.,0.,1.));
#612 = PLANE('',#613);
#613 = AXIS2_PLACEMENT_3D('',#614,#615,#616);
#614 = CARTESIAN_POINT('',(0.,1.6,15.));
#615 = DIRECTION('',(0.,-1.,0.));
#616 = DIRECTION('',(-1.,0.,0.));
#617 = ADVANCED_FACE('',(#618),#630,.F.);
#618 = FACE_BOUND('',#619,.F.);
#619 = EDGE_LOOP('',(#620,#621,#622,#623));
#620 = ORIENTED_EDGE('',*,*,#428,.F.);
#621 = ORIENTED_EDGE('',*,*,#134,.T.);
#622 = ORIENTED_EDGE('',*,*,#525,.T.);
#623 = ORIENTED_EDGE('',*,*,#624,.F.);
#624 = EDGE_CURVE('',#332,#516,#625,.T.);
#625 = CIRCLE('',#626,7.);
#626 = AXIS2_PLACEMENT_3D('',#627,#628,#629);
#627 = CARTESIAN_POINT('',(0.,0.,15.));
#628 = DIRECTION('',(-0.,0.,-1.));
#629 = DIRECTION('',(-0.947417542586,-0.32,0.));
#630 = TOROIDAL_SURFACE('',#631,7.,2.);
#631 = AXIS2_PLACEMENT_3D('',#632,#633,#634);
#632 = CARTESIAN_POINT('',(0.,0.,13.));
#633 = DIRECTION('',(-0.,-0.,-1.));
#634 = DIRECTION('',(-0.947417542586,-0.32,0.));
#635 = ADVANCED_FACE('',(#636),#661,.F.);
#636 = FACE_BOUND('',#637,.T.);
#637 = EDGE_LOOP('',(#638,#639,#647,#655));
#638 = ORIENTED_EDGE('',*,*,#224,.T.);
#639 = ORIENTED_EDGE('',*,*,#640,.T.);
#640 = EDGE_CURVE('',#193,#641,#643,.T.);
#641 = VERTEX_POINT('',#642);
#642 = CARTESIAN_POINT('',(13.381266348434,1.6,15.));
#643 = LINE('',#644,#645);
#644 = CARTESIAN_POINT('',(0.,1.6,15.));
#645 = VECTOR('',#646,1.);
#646 = DIRECTION('',(1.,0.,0.));
#647 = ORIENTED_EDGE('',*,*,#648,.T.);
#648 = EDGE_CURVE('',#641,#649,#651,.T.);
#649 = VERTEX_POINT('',#650);
#650 = CARTESIAN_POINT('',(13.381266348434,-1.6,15.));
#651 = LINE('',#652,#653);
#652 = CARTESIAN_POINT('',(13.381266348434,1.6,15.));
#653 = VECTOR('',#654,1.);
#654 = DIRECTION('',(-0.,-1.,-0.));
#655 = ORIENTED_EDGE('',*,*,#656,.T.);
#656 = EDGE_CURVE('',#649,#159,#657,.T.);
#657 = LINE('',#658,#659);
#658 = CARTESIAN_POINT('',(13.381266348434,-1.6,15.));
#659 = VECTOR('',#660,1.);
#660 = DIRECTION('',(-1.,-0.,-0.));
#661 = PLANE('',#662);
#662 = AXIS2_PLACEMENT_3D('',#663,#664,#665);
#663 = CARTESIAN_POINT('',(6.690633174217,0.,15.));
#664 = DIRECTION('',(0.,0.,1.));
#665 = DIRECTION('',(1.,0.,0.));
#666 = ADVANCED_FACE('',(#667),#692,.T.);
#667 = FACE_BOUND('',#668,.F.);
#668 = EDGE_LOOP('',(#669,#670,#678,#686));
#669 = ORIENTED_EDGE('',*,*,#305,.T.);
#670 = ORIENTED_EDGE('',*,*,#671,.T.);
#671 = EDGE_CURVE('',#274,#672,#674,.T.);
#672 = VERTEX_POINT('',#673);
#673 = CARTESIAN_POINT('',(13.381266348434,1.6,23.4));
#674 = LINE('',#675,#676);
#675 = CARTESIAN_POINT('',(0.,1.6,23.4));
#676 = VECTOR('',#677,1.);
#677 = DIRECTION('',(1.,0.,0.));
#678 = ORIENTED_EDGE('',*,*,#679,.T.);
#679 = EDGE_CURVE('',#672,#680,#682,.T.);
#680 = VERTEX_POINT('',#681);
#681 = CARTESIAN_POINT('',(13.381266348434,-1.6,23.4));
#682 = LINE('',#683,#684);
#683 = CARTESIAN_POINT('',(13.381266348434,1.6,23.4));
#684 = VECTOR('',#685,1.);
#685 = DIRECTION('',(-0.,-1.,-0.));
#686 = ORIENTED_EDGE('',*,*,#687,.T.);
#687 = EDGE_CURVE('',#680,#240,#688,.T.);
#688 = LINE('',#689,#690);
#689 = CARTESIAN_POINT('',(13.381266348434,-1.6,23.4));
#690 = VECTOR('',#691,1.);
#691 = DIRECTION('',(-1.,-0.,-0.));
#692 = PLANE('',#693);
#693 = AXIS2_PLACEMENT_3D('',#694,#695,#696);
#694 = CARTESIAN_POINT('',(6.690633174217,0.,23.4));
#695 = DIRECTION('',(0.,0.,1.));
#696 = DIRECTION('',(1.,0.,0.));
#697 = ADVANCED_FACE('',(#698),#723,.F.);
#698 = FACE_BOUND('',#699,.T.);
#699 = EDGE_LOOP('',(#700,#710,#716,#717));
#700 = ORIENTED_EDGE('',*,*,#701,.F.);
#701 = EDGE_CURVE('',#702,#704,#706,.T.);
#702 = VERTEX_POINT('',#703);
#703 = CARTESIAN_POINT('',(13.381266348434,1.6,20.325));
#704 = VERTEX_POINT('',#705);
#705 = CARTESIAN_POINT('',(13.381266348434,-1.6,20.325));
#706 = LINE('',#707,#708);
#707 = CARTESIAN_POINT('',(13.381266348434,2.775557561563E-15,20.325));
#708 = VECTOR('',#709,1.);
#709 = DIRECTION('',(0.,-1.,2.22044604925E-16));
#710 = ORIENTED_EDGE('',*,*,#711,.T.);
#711 = EDGE_CURVE('',#702,#672,#712,.T.);
#712 = LINE('',#713,#714);
#713 = CARTESIAN_POINT('',(13.381266348434,1.6,15.));
#714 = VECTOR('',#715,1.);
#715 = DIRECTION('',(0.,0.,1.));
#716 = ORIENTED_EDGE('',*,*,#679,.T.);
#717 = ORIENTED_EDGE('',*,*,#718,.F.);
#718 = EDGE_CURVE('',#704,#680,#719,.T.);
#719 = LINE('',#720,#721);
#720 = CARTESIAN_POINT('',(13.381266348434,-1.6,15.));
#721 = VECTOR('',#722,1.);
#722 = DIRECTION('',(0.,0.,1.));
#723 = PLANE('',#724);
#724 = AXIS2_PLACEMENT_3D('',#725,#726,#727);
#725 = CARTESIAN_POINT('',(13.381266348434,1.6,15.));
#726 = DIRECTION('',(-1.,-0.,-0.));
#727 = DIRECTION('',(0.,1.,0.));
#728 = ADVANCED_FACE('',(#729),#754,.T.);
#729 = FACE_BOUND('',#730,.F.);
#730 = EDGE_LOOP('',(#731,#739,#740,#748));
#731 = ORIENTED_EDGE('',*,*,#732,.F.);
#732 = EDGE_CURVE('',#704,#733,#735,.T.);
#733 = VERTEX_POINT('',#734);
#734 = CARTESIAN_POINT('',(13.176992470763,-1.6,20.325));
#735 = LINE('',#736,#737);
#736 = CARTESIAN_POINT('',(14.381266348434,-1.6,20.325));
#737 = VECTOR('',#738,1.);
#738 = DIRECTION('',(-1.,0.,-0.));
#739 = ORIENTED_EDGE('',*,*,#701,.F.);
#740 = ORIENTED_EDGE('',*,*,#741,.F.);
#741 = EDGE_CURVE('',#742,#702,#744,.T.);
#742 = VERTEX_POINT('',#743);
#743 = CARTESIAN_POINT('',(13.176992470763,1.6,20.325));
#744 = LINE('',#745,#746);
#745 = CARTESIAN_POINT('',(7.190633174217,1.6,20.325));
#746 = VECTOR('',#747,1.);
#747 = DIRECTION('',(1.,0.,0.));
#748 = ORIENTED_EDGE('',*,*,#749,.T.);
#749 = EDGE_CURVE('',#742,#733,#750,.T.);
#750 = LINE('',#751,#752);
#751 = CARTESIAN_POINT('',(13.176992470763,-1.6,20.325));
#752 = VECTOR('',#753,1.);
#753 = DIRECTION('',(0.,-1.,2.22044604925E-16));
#754 = PLANE('',#755);
#755 = AXIS2_PLACEMENT_3D('',#756,#757,#758);
#756 = CARTESIAN_POINT('',(14.381266348434,-1.6,20.325));
#757 = DIRECTION('',(-0.,-2.22044604925E-16,-1.));
#758 = DIRECTION('',(1.,0.,0.));
#759 = ADVANCED_FACE('',(#760),#785,.F.);
#760 = FACE_BOUND('',#761,.T.);
#761 = EDGE_LOOP('',(#762,#763,#771,#779));
#762 = ORIENTED_EDGE('',*,*,#648,.F.);
#763 = ORIENTED_EDGE('',*,*,#764,.T.);
#764 = EDGE_CURVE('',#641,#765,#767,.T.);
#765 = VERTEX_POINT('',#766);
#766 = CARTESIAN_POINT('',(13.381266348434,1.6,18.075));
#767 = LINE('',#768,#769);
#768 = CARTESIAN_POINT('',(13.381266348434,1.6,15.));
#769 = VECTOR('',#770,1.);
#770 = DIRECTION('',(0.,0.,1.));
#771 = ORIENTED_EDGE('',*,*,#772,.F.);
#772 = EDGE_CURVE('',#773,#765,#775,.T.);
#773 = VERTEX_POINT('',#774);
#774 = CARTESIAN_POINT('',(13.381266348434,-1.6,18.075));
#775 = LINE('',#776,#777);
#776 = CARTESIAN_POINT('',(13.381266348434,2.331468351713E-15,18.075));
#777 = VECTOR('',#778,1.);
#778 = DIRECTION('',(0.,1.,-2.22044604925E-16));
#779 = ORIENTED_EDGE('',*,*,#780,.F.);
#780 = EDGE_CURVE('',#649,#773,#781,.T.);
#781 = LINE('',#782,#783);
#782 = CARTESIAN_POINT('',(13.381266348434,-1.6,15.));
#783 = VECTOR('',#784,1.);
#784 = DIRECTION('',(0.,0.,1.));
#785 = PLANE('',#786);
#786 = AXIS2_PLACEMENT_3D('',#787,#788,#789);
#787 = CARTESIAN_POINT('',(13.381266348434,1.6,15.));
#788 = DIRECTION('',(-1.,-0.,-0.));
#789 = DIRECTION('',(0.,1.,0.));
#790 = ADVANCED_FACE('',(#791),#816,.T.);
#791 = FACE_BOUND('',#792,.F.);
#792 = EDGE_LOOP('',(#793,#801,#809,#815));
#793 = ORIENTED_EDGE('',*,*,#794,.F.);
#794 = EDGE_CURVE('',#795,#773,#797,.T.);
#795 = VERTEX_POINT('',#796);
#796 = CARTESIAN_POINT('',(13.176992470763,-1.6,18.075));
#797 = LINE('',#798,#799);
#798 = CARTESIAN_POINT('',(12.381266348434,-1.6,18.075));
#799 = VECTOR('',#800,1.);
#800 = DIRECTION('',(1.,0.,0.));
#801 = ORIENTED_EDGE('',*,*,#802,.F.);
#802 = EDGE_CURVE('',#803,#795,#805,.T.);
#803 = VERTEX_POINT('',#804);
#804 = CARTESIAN_POINT('',(13.176992470763,1.6,18.075));
#805 = LINE('',#806,#807);
#806 = CARTESIAN_POINT('',(13.176992470763,-1.6,18.075));
#807 = VECTOR('',#808,1.);
#808 = DIRECTION('',(0.,-1.,2.22044604925E-16));
#809 = ORIENTED_EDGE('',*,*,#810,.F.);
#810 = EDGE_CURVE('',#765,#803,#811,.T.);
#811 = LINE('',#812,#813);
#812 = CARTESIAN_POINT('',(6.190633174217,1.6,18.075));
#813 = VECTOR('',#814,1.);
#814 = DIRECTION('',(-1.,0.,0.));
#815 = ORIENTED_EDGE('',*,*,#772,.F.);
#816 = PLANE('',#817);
#817 = AXIS2_PLACEMENT_3D('',#818,#819,#820);
#818 = CARTESIAN_POINT('',(12.381266348434,-1.6,18.075));
#819 = DIRECTION('',(0.,2.22044604925E-16,1.));
#820 = DIRECTION('',(-1.,-0.,-0.));
#821 = ADVANCED_FACE('',(#822),#833,.F.);
#822 = FACE_BOUND('',#823,.F.);
#823 = EDGE_LOOP('',(#824,#825,#831,#832));
#824 = ORIENTED_EDGE('',*,*,#515,.T.);
#825 = ORIENTED_EDGE('',*,*,#826,.T.);
#826 = EDGE_CURVE('',#518,#330,#827,.T.);
#827 = LINE('',#828,#829);
#828 = CARTESIAN_POINT('',(-13.38126634843,1.6,15.));
#829 = VECTOR('',#830,1.);
#830 = DIRECTION('',(0.,-1.,0.));
#831 = ORIENTED_EDGE('',*,*,#329,.T.);
#832 = ORIENTED_EDGE('',*,*,#624,.T.);
#833 = PLANE('',#834);
#834 = AXIS2_PLACEMENT_3D('',#835,#836,#837);
#835 = CARTESIAN_POINT('',(-6.690633174217,0.,15.));
#836 = DIRECTION('',(0.,0.,1.));
#837 = DIRECTION('',(1.,0.,0.));
#838 = ADVANCED_FACE('',(#839),#850,.T.);
#839 = FACE_BOUND('',#840,.T.);
#840 = EDGE_LOOP('',(#841,#842,#848,#849));
#841 = ORIENTED_EDGE('',*,*,#339,.T.);
#842 = ORIENTED_EDGE('',*,*,#843,.T.);
#843 = EDGE_CURVE('',#340,#600,#844,.T.);
#844 = LINE('',#845,#846);
#845 = CARTESIAN_POINT('',(-13.38126634843,-0.8,18.075));
#846 = VECTOR('',#847,1.);
#847 = DIRECTION('',(0.,1.,-2.22044604925E-16));
#848 = ORIENTED_EDGE('',*,*,#607,.F.);
#849 = ORIENTED_EDGE('',*,*,#826,.T.);
#850 = PLANE('',#851);
#851 = AXIS2_PLACEMENT_3D('',#852,#853,#854);
#852 = CARTESIAN_POINT('',(-13.38126634843,-3.828355257328E-17,19.2));
#853 = DIRECTION('',(-1.,-0.,-0.));
#854 = DIRECTION('',(0.,0.,-1.));
#855 = ADVANCED_FACE('',(#856),#867,.T.);
#856 = FACE_BOUND('',#857,.T.);
#857 = EDGE_LOOP('',(#858,#859,#865,#866));
#858 = ORIENTED_EDGE('',*,*,#347,.F.);
#859 = ORIENTED_EDGE('',*,*,#860,.F.);
#860 = EDGE_CURVE('',#591,#348,#861,.T.);
#861 = LINE('',#862,#863);
#862 = CARTESIAN_POINT('',(-13.17699247076,-1.6,18.075));
#863 = VECTOR('',#864,1.);
#864 = DIRECTION('',(0.,-1.,2.22044604925E-16));
#865 = ORIENTED_EDGE('',*,*,#599,.T.);
#866 = ORIENTED_EDGE('',*,*,#843,.F.);
#867 = PLANE('',#868);
#868 = AXIS2_PLACEMENT_3D('',#869,#870,#871);
#869 = CARTESIAN_POINT('',(-12.38126634843,-1.6,18.075));
#870 = DIRECTION('',(0.,2.22044604925E-16,1.));
#871 = DIRECTION('',(-1.,0.,0.));
#872 = ADVANCED_FACE('',(#873),#886,.F.);
#873 = FACE_BOUND('',#874,.F.);
#874 = EDGE_LOOP('',(#875,#876,#877,#878,#884,#885));
#875 = ORIENTED_EDGE('',*,*,#860,.F.);
#876 = ORIENTED_EDGE('',*,*,#590,.T.);
#877 = ORIENTED_EDGE('',*,*,#581,.T.);
#878 = ORIENTED_EDGE('',*,*,#879,.T.);
#879 = EDGE_CURVE('',#574,#365,#880,.T.);
#880 = LINE('',#881,#882);
#881 = CARTESIAN_POINT('',(-13.17699247076,-1.6,20.325));
#882 = VECTOR('',#883,1.);
#883 = DIRECTION('',(0.,-1.,2.22044604925E-16));
#884 = ORIENTED_EDGE('',*,*,#364,.F.);
#885 = ORIENTED_EDGE('',*,*,#355,.F.);
#886 = CYLINDRICAL_SURFACE('',#887,3.2);
#887 = AXIS2_PLACEMENT_3D('',#888,#889,#890);
#888 = CARTESIAN_POINT('',(-10.18126634843,-1.6,19.2));
#889 = DIRECTION('',(0.,-1.,2.22044604925E-16));
#890 = DIRECTION('',(1.,0.,0.));
#891 = ADVANCED_FACE('',(#892),#903,.T.);
#892 = FACE_BOUND('',#893,.T.);
#893 = EDGE_LOOP('',(#894,#895,#901,#902));
#894 = ORIENTED_EDGE('',*,*,#373,.F.);
#895 = ORIENTED_EDGE('',*,*,#896,.F.);
#896 = EDGE_CURVE('',#566,#374,#897,.T.);
#897 = LINE('',#898,#899);
#898 = CARTESIAN_POINT('',(-13.38126634843,-0.8,20.325));
#899 = VECTOR('',#900,1.);
#900 = DIRECTION('',(0.,-1.,2.22044604925E-16));
#901 = ORIENTED_EDGE('',*,*,#573,.T.);
#902 = ORIENTED_EDGE('',*,*,#879,.T.);
#903 = PLANE('',#904);
#904 = AXIS2_PLACEMENT_3D('',#905,#906,#907);
#905 = CARTESIAN_POINT('',(-14.38126634843,-1.6,20.325));
#906 = DIRECTION('',(0.,-2.22044604925E-16,-1.));
#907 = DIRECTION('',(1.,0.,0.));
#908 = ADVANCED_FACE('',(#909),#920,.T.);
#909 = FACE_BOUND('',#910,.T.);
#910 = EDGE_LOOP('',(#911,#912,#918,#919));
#911 = ORIENTED_EDGE('',*,*,#557,.T.);
#912 = ORIENTED_EDGE('',*,*,#913,.T.);
#913 = EDGE_CURVE('',#558,#382,#914,.T.);
#914 = LINE('',#915,#916);
#915 = CARTESIAN_POINT('',(-13.38126634843,1.6,23.4));
#916 = VECTOR('',#917,1.);
#917 = DIRECTION('',(0.,-1.,0.));
#918 = ORIENTED_EDGE('',*,*,#389,.T.);
#919 = ORIENTED_EDGE('',*,*,#500,.T.);
#920 = PLANE('',#921);
#921 = AXIS2_PLACEMENT_3D('',#922,#923,#924);
#922 = CARTESIAN_POINT('',(-6.690633174217,0.,23.4));
#923 = DIRECTION('',(0.,0.,1.));
#924 = DIRECTION('',(1.,0.,0.));
#925 = ADVANCED_FACE('',(#926),#932,.T.);
#926 = FACE_BOUND('',#927,.T.);
#927 = EDGE_LOOP('',(#928,#929,#930,#931));
#928 = ORIENTED_EDGE('',*,*,#896,.T.);
#929 = ORIENTED_EDGE('',*,*,#381,.T.);
#930 = ORIENTED_EDGE('',*,*,#913,.F.);
#931 = ORIENTED_EDGE('',*,*,#565,.F.);
#932 = PLANE('',#933);
#933 = AXIS2_PLACEMENT_3D('',#934,#935,#936);
#934 = CARTESIAN_POINT('',(-13.38126634843,-3.828355257328E-17,19.2));
#935 = DIRECTION('',(-1.,-0.,-0.));
#936 = DIRECTION('',(0.,0.,-1.));
#937 = ADVANCED_FACE('',(#938),#965,.T.);
#938 = FACE_BOUND('',#939,.T.);
#939 = EDGE_LOOP('',(#940,#941,#942,#943,#944,#953,#960,#961,#962,#963,
    #964));
#940 = ORIENTED_EDGE('',*,*,#158,.T.);
#941 = ORIENTED_EDGE('',*,*,#656,.F.);
#942 = ORIENTED_EDGE('',*,*,#780,.T.);
#943 = ORIENTED_EDGE('',*,*,#794,.F.);
#944 = ORIENTED_EDGE('',*,*,#945,.T.);
#945 = EDGE_CURVE('',#795,#946,#948,.T.);
#946 = VERTEX_POINT('',#947);
#947 = CARTESIAN_POINT('',(6.981266348434,-1.6,19.2));
#948 = CIRCLE('',#949,3.2);
#949 = AXIS2_PLACEMENT_3D('',#950,#951,#952);
#950 = CARTESIAN_POINT('',(10.181266348434,-1.6,19.2));
#951 = DIRECTION('',(0.,1.,-2.22044604925E-16));
#952 = DIRECTION('',(-1.,0.,-0.));
#953 = ORIENTED_EDGE('',*,*,#954,.T.);
#954 = EDGE_CURVE('',#946,#733,#955,.T.);
#955 = CIRCLE('',#956,3.2);
#956 = AXIS2_PLACEMENT_3D('',#957,#958,#959);
#957 = CARTESIAN_POINT('',(10.181266348434,-1.6,19.2));
#958 = DIRECTION('',(0.,1.,-2.22044604925E-16));
#959 = DIRECTION('',(-1.,0.,-0.));
#960 = ORIENTED_EDGE('',*,*,#732,.F.);
#961 = ORIENTED_EDGE('',*,*,#718,.T.);
#962 = ORIENTED_EDGE('',*,*,#687,.T.);
#963 = ORIENTED_EDGE('',*,*,#239,.F.);
#964 = ORIENTED_EDGE('',*,*,#89,.T.);
#965 = PLANE('',#966);
#966 = AXIS2_PLACEMENT_3D('',#967,#968,#969);
#967 = CARTESIAN_POINT('',(8.671730844272,-1.6,19.2));
#968 = DIRECTION('',(-0.,-1.,-0.));
#969 = DIRECTION('',(0.,0.,-1.));
#970 = ADVANCED_FACE('',(#971),#998,.T.);
#971 = FACE_BOUND('',#972,.T.);
#972 = EDGE_LOOP('',(#973,#974,#975,#976,#977,#986,#993,#994,#995,#996,
    #997));
#973 = ORIENTED_EDGE('',*,*,#273,.T.);
#974 = ORIENTED_EDGE('',*,*,#671,.T.);
#975 = ORIENTED_EDGE('',*,*,#711,.F.);
#976 = ORIENTED_EDGE('',*,*,#741,.F.);
#977 = ORIENTED_EDGE('',*,*,#978,.T.);
#978 = EDGE_CURVE('',#742,#979,#981,.T.);
#979 = VERTEX_POINT('',#980);
#980 = CARTESIAN_POINT('',(6.981266348434,1.6,19.2));
#981 = CIRCLE('',#982,3.2);
#982 = AXIS2_PLACEMENT_3D('',#983,#984,#985);
#983 = CARTESIAN_POINT('',(10.181266348434,1.6,19.2));
#984 = DIRECTION('',(0.,-1.,2.22044604925E-16));
#985 = DIRECTION('',(-1.,0.,0.));
#986 = ORIENTED_EDGE('',*,*,#987,.T.);
#987 = EDGE_CURVE('',#979,#803,#988,.T.);
#988 = CIRCLE('',#989,3.2);
#989 = AXIS2_PLACEMENT_3D('',#990,#991,#992);
#990 = CARTESIAN_POINT('',(10.181266348434,1.6,19.2));
#991 = DIRECTION('',(0.,-1.,2.22044604925E-16));
#992 = DIRECTION('',(-1.,0.,0.));
#993 = ORIENTED_EDGE('',*,*,#810,.F.);
#994 = ORIENTED_EDGE('',*,*,#764,.F.);
#995 = ORIENTED_EDGE('',*,*,#640,.F.);
#996 = ORIENTED_EDGE('',*,*,#192,.F.);
#997 = ORIENTED_EDGE('',*,*,#47,.T.);
#998 = PLANE('',#999);
#999 = AXIS2_PLACEMENT_3D('',#1000,#1001,#1002);
#1000 = CARTESIAN_POINT('',(8.671730844272,1.6,19.2));
#1001 = DIRECTION('',(0.,1.,0.));
#1002 = DIRECTION('',(0.,0.,1.));
#1003 = ADVANCED_FACE('',(#1004),#1012,.F.);
#1004 = FACE_BOUND('',#1005,.T.);
#1005 = EDGE_LOOP('',(#1006,#1007,#1008,#1009,#1010,#1011));
#1006 = ORIENTED_EDGE('',*,*,#945,.F.);
#1007 = ORIENTED_EDGE('',*,*,#802,.F.);
#1008 = ORIENTED_EDGE('',*,*,#987,.F.);
#1009 = ORIENTED_EDGE('',*,*,#978,.F.);
#1010 = ORIENTED_EDGE('',*,*,#749,.T.);
#1011 = ORIENTED_EDGE('',*,*,#954,.F.);
#1012 = CYLINDRICAL_SURFACE('',#1013,3.2);
#1013 = AXIS2_PLACEMENT_3D('',#1014,#1015,#1016);
#1014 = CARTESIAN_POINT('',(10.181266348434,-1.6,19.2));
#1015 = DIRECTION('',(0.,-1.,2.22044604925E-16));
#1016 = DIRECTION('',(-1.,-0.,-0.));
#1017 = ( GEOMETRIC_REPRESENTATION_CONTEXT(3) 
GLOBAL_UNCERTAINTY_ASSIGNED_CONTEXT((#1021)) 
GLOBAL_UNIT_ASSIGNED_CONTEXT((#1018,#1019,#1020)) REPRESENTATION_CONTEXT
('Context #1','3D Context with UNIT and UNCERTAINTY') );
#1018 = ( LENGTH_UNIT() NAMED_UNIT(*) SI_UNIT(.MILLI.,.METRE.) );
#1019 = ( NAMED_UNIT(*) PLANE_ANGLE_UNIT() SI_UNIT($,.RADIAN.) );
#1020 = ( NAMED_UNIT(*) SI_UNIT($,.STERADIAN.) SOLID_ANGLE_UNIT() );
#1021 = UNCERTAINTY_MEASURE_WITH_UNIT(LENGTH_MEASURE(2.E-05),#1018,
  'distance_accuracy_value','confusion accuracy');
#1022 = PRODUCT_RELATED_PRODUCT_CATEGORY('part',$,(#7));
#1023 = MECHANICAL_DESIGN_GEOMETRIC_PRESENTATION_REPRESENTATION('',(
    #1024),#1017);
#1024 = STYLED_ITEM('color',(#1025),#15);
#1025 = PRESENTATION_STYLE_ASSIGNMENT((#1026,#1032));
#1026 = SURFACE_STYLE_USAGE(.BOTH.,#1027);
#1027 = SURFACE_SIDE_STYLE('',(#1028));
#1028 = SURFACE_STYLE_FILL_AREA(#1029);
#1029 = FILL_AREA_STYLE('',(#1030));
#1030 = FILL_AREA_STYLE_COLOUR('',#1031);
#1031 = COLOUR_RGB('',0.447058818107,0.474509808674,0.501960817233);
#1032 = CURVE_STYLE('',#1033,POSITIVE_LENGTH_MEASURE(0.1),#1034);
#1033 = DRAUGHTING_PRE_DEFINED_CURVE_FONT('continuous');
#1034 = COLOUR_RGB('',9.803921802644E-02,9.803921802644E-02,
  9.803921802644E-02);
ENDSEC;
END-ISO-10303-21;
