ISO-10303-21;
HEADER;
FILE_DESCRIPTION(('FreeCAD Model'),'2;1');
FILE_NAME('Open CASCADE Shape Model','2026-01-23T14:55:12',(''),(''),
  'Open CASCADE STEP processor 7.8','FreeCAD','Unknown');
FILE_SCHEMA(('AUTOMOTIVE_DESIGN { 1 0 10303 214 1 1 1 1 }'));
ENDSEC;
DATA;
#1 = APPLICATION_PROTOCOL_DEFINITION('international standard',
  'automotive_design',2000,#2);
#2 = APPLICATION_CONTEXT(
  'core data for automotive mechanical design processes');
#3 = SHAPE_DEFINITION_REPRESENTATION(#4,#10);
#4 = PRODUCT_DEFINITION_SHAPE('','',#5);
#5 = PRODUCT_DEFINITION('design','',#6,#9);
#6 = PRODUCT_DEFINITION_FORMATION('','',#7);
#7 = PRODUCT('stator','stator','',(#8));
#8 = PRODUCT_CONTEXT('',#2,'mechanical');
#9 = PRODUCT_DEFINITION_CONTEXT('part definition',#2,'design');
#10 = ADVANCED_BREP_SHAPE_REPRESENTATION('',(#11,#15),#1175);
#11 = AXIS2_PLACEMENT_3D('',#12,#13,#14);
#12 = CARTESIAN_POINT('',(0.,0.,0.));
#13 = DIRECTION('',(0.,0.,1.));
#14 = DIRECTION('',(1.,0.,-0.));
#15 = MANIFOLD_SOLID_BREP('',#16);
#16 = CLOSED_SHELL('',(#17,#59,#90,#123,#154,#187,#577,#609,#633,#658,
    #744,#768,#793,#828,#858,#900,#979,#1058,#1161));
#17 = ADVANCED_FACE('',(#18),#54,.T.);
#18 = FACE_BOUND('',#19,.T.);
#19 = EDGE_LOOP('',(#20,#31,#39,#48));
#20 = ORIENTED_EDGE('',*,*,#21,.F.);
#21 = EDGE_CURVE('',#22,#24,#26,.T.);
#22 = VERTEX_POINT('',#23);
#23 = CARTESIAN_POINT('',(10.877831092289,-9.127584057549,2.));
#24 = VERTEX_POINT('',#25);
#25 = CARTESIAN_POINT('',(-10.87783109228,-9.127584057549,2.));
#26 = CIRCLE('',#27,14.2);
#27 = AXIS2_PLACEMENT_3D('',#28,#29,#30);
#28 = CARTESIAN_POINT('',(0.,0.,2.));
#29 = DIRECTION('',(0.,0.,-1.));
#30 = DIRECTION('',(1.,0.,0.));
#31 = ORIENTED_EDGE('',*,*,#32,.T.);
#32 = EDGE_CURVE('',#22,#33,#35,.T.);
#33 = VERTEX_POINT('',#34);
#34 = CARTESIAN_POINT('',(8.579697762933,-7.199221228489,2.));
#35 = LINE('',#36,#37);
#36 = CARTESIAN_POINT('',(10.877831092289,-9.127584057549,2.));
#37 = VECTOR('',#38,1.);
#38 = DIRECTION('',(-0.766044443119,0.642787609687,0.));
#39 = ORIENTED_EDGE('',*,*,#40,.T.);
#40 = EDGE_CURVE('',#33,#41,#43,.T.);
#41 = VERTEX_POINT('',#42);
#42 = CARTESIAN_POINT('',(-8.579697762933,-7.199221228489,2.));
#43 = CIRCLE('',#44,11.2);
#44 = AXIS2_PLACEMENT_3D('',#45,#46,#47);
#45 = CARTESIAN_POINT('',(0.,0.,2.));
#46 = DIRECTION('',(0.,0.,-1.));
#47 = DIRECTION('',(1.,0.,0.));
#48 = ORIENTED_EDGE('',*,*,#49,.F.);
#49 = EDGE_CURVE('',#24,#41,#50,.T.);
#50 = LINE('',#51,#52);
#51 = CARTESIAN_POINT('',(-10.87783109228,-9.127584057549,2.));
#52 = VECTOR('',#53,1.);
#53 = DIRECTION('',(0.766044443119,0.642787609687,1.700960357274E-16));
#54 = PLANE('',#55);
#55 = AXIS2_PLACEMENT_3D('',#56,#57,#58);
#56 = CARTESIAN_POINT('',(-3.58833704323E-13,3.66922357047E-12,2.));
#57 = DIRECTION('',(0.,0.,1.));
#58 = DIRECTION('',(1.,0.,0.));
#59 = ADVANCED_FACE('',(#60),#85,.F.);
#60 = FACE_BOUND('',#61,.T.);
#61 = EDGE_LOOP('',(#62,#63,#71,#79));
#62 = ORIENTED_EDGE('',*,*,#32,.F.);
#63 = ORIENTED_EDGE('',*,*,#64,.T.);
#64 = EDGE_CURVE('',#22,#65,#67,.T.);
#65 = VERTEX_POINT('',#66);
#66 = CARTESIAN_POINT('',(10.877831092289,-9.127584057549,
    19.133333333333));
#67 = LINE('',#68,#69);
#68 = CARTESIAN_POINT('',(10.877831092289,-9.127584057549,2.));
#69 = VECTOR('',#70,1.);
#70 = DIRECTION('',(0.,0.,1.));
#71 = ORIENTED_EDGE('',*,*,#72,.T.);
#72 = EDGE_CURVE('',#65,#73,#75,.T.);
#73 = VERTEX_POINT('',#74);
#74 = CARTESIAN_POINT('',(8.579697762933,-7.199221228489,19.133333333333
    ));
#75 = LINE('',#76,#77);
#76 = CARTESIAN_POINT('',(3.385031235228,-2.840378461003,19.133333333333
    ));
#77 = VECTOR('',#78,1.);
#78 = DIRECTION('',(-0.766044443119,0.642787609687,0.));
#79 = ORIENTED_EDGE('',*,*,#80,.F.);
#80 = EDGE_CURVE('',#33,#73,#81,.T.);
#81 = LINE('',#82,#83);
#82 = CARTESIAN_POINT('',(8.579697762933,-7.199221228489,2.));
#83 = VECTOR('',#84,1.);
#84 = DIRECTION('',(0.,0.,1.));
#85 = PLANE('',#86);
#86 = AXIS2_PLACEMENT_3D('',#87,#88,#89);
#87 = CARTESIAN_POINT('',(10.877831092289,-9.127584057549,2.));
#88 = DIRECTION('',(0.642787609687,0.766044443119,0.));
#89 = DIRECTION('',(0.766044443119,-0.642787609687,0.));
#90 = ADVANCED_FACE('',(#91),#118,.T.);
#91 = FACE_BOUND('',#92,.F.);
#92 = EDGE_LOOP('',(#93,#102,#103,#112));
#93 = ORIENTED_EDGE('',*,*,#94,.F.);
#94 = EDGE_CURVE('',#65,#95,#97,.T.);
#95 = VERTEX_POINT('',#96);
#96 = CARTESIAN_POINT('',(12.240361588415,-7.198162834005,
    19.133333333333));
#97 = CIRCLE('',#98,14.2);
#98 = AXIS2_PLACEMENT_3D('',#99,#100,#101);
#99 = CARTESIAN_POINT('',(0.,0.,19.133333333333));
#100 = DIRECTION('',(0.,0.,1.));
#101 = DIRECTION('',(1.,0.,0.));
#102 = ORIENTED_EDGE('',*,*,#72,.T.);
#103 = ORIENTED_EDGE('',*,*,#104,.T.);
#104 = EDGE_CURVE('',#73,#105,#107,.T.);
#105 = VERTEX_POINT('',#106);
#106 = CARTESIAN_POINT('',(9.384098343725,-6.113812090284,
    19.133333333333));
#107 = CIRCLE('',#108,11.2);
#108 = AXIS2_PLACEMENT_3D('',#109,#110,#111);
#109 = CARTESIAN_POINT('',(0.,0.,19.133333333333));
#110 = DIRECTION('',(0.,0.,1.));
#111 = DIRECTION('',(1.,0.,0.));
#112 = ORIENTED_EDGE('',*,*,#113,.F.);
#113 = EDGE_CURVE('',#95,#105,#114,.T.);
#114 = LINE('',#115,#116);
#115 = CARTESIAN_POINT('',(7.75449611395,-5.495150489989,19.133333333333
    ));
#116 = VECTOR('',#117,1.);
#117 = DIRECTION('',(-0.934895402775,0.354923352105,1.037942401777E-16)
  );
#118 = PLANE('',#119);
#119 = AXIS2_PLACEMENT_3D('',#120,#121,#122);
#120 = CARTESIAN_POINT('',(-7.,0.,19.133333333333));
#121 = DIRECTION('',(0.,0.,1.));
#122 = DIRECTION('',(-1.,-0.,-0.));
#123 = ADVANCED_FACE('',(#124),#149,.F.);
#124 = FACE_BOUND('',#125,.F.);
#125 = EDGE_LOOP('',(#126,#127,#135,#143));
#126 = ORIENTED_EDGE('',*,*,#49,.F.);
#127 = ORIENTED_EDGE('',*,*,#128,.T.);
#128 = EDGE_CURVE('',#24,#129,#131,.T.);
#129 = VERTEX_POINT('',#130);
#130 = CARTESIAN_POINT('',(-10.87783109228,-9.127584057549,
    19.133333333333));
#131 = LINE('',#132,#133);
#132 = CARTESIAN_POINT('',(-10.87783109228,-9.127584057549,2.));
#133 = VECTOR('',#134,1.);
#134 = DIRECTION('',(-2.22044604925E-16,2.465190328816E-32,1.));
#135 = ORIENTED_EDGE('',*,*,#136,.T.);
#136 = EDGE_CURVE('',#129,#137,#139,.T.);
#137 = VERTEX_POINT('',#138);
#138 = CARTESIAN_POINT('',(-8.579697762933,-7.199221228489,
    19.133333333333));
#139 = LINE('',#140,#141);
#140 = CARTESIAN_POINT('',(-3.385031235228,-2.840378461003,
    19.133333333333));
#141 = VECTOR('',#142,1.);
#142 = DIRECTION('',(0.766044443119,0.642787609687,1.700960357274E-16));
#143 = ORIENTED_EDGE('',*,*,#144,.F.);
#144 = EDGE_CURVE('',#41,#137,#145,.T.);
#145 = LINE('',#146,#147);
#146 = CARTESIAN_POINT('',(-8.579697762933,-7.199221228489,2.));
#147 = VECTOR('',#148,1.);
#148 = DIRECTION('',(-2.22044604925E-16,2.465190328816E-32,1.));
#149 = PLANE('',#150);
#150 = AXIS2_PLACEMENT_3D('',#151,#152,#153);
#151 = CARTESIAN_POINT('',(-10.87783109228,-9.127584057549,2.));
#152 = DIRECTION('',(-0.642787609687,0.766044443119,-1.427275208436E-16)
  );
#153 = DIRECTION('',(0.766044443119,0.642787609687,1.700960357274E-16));
#154 = ADVANCED_FACE('',(#155),#182,.T.);
#155 = FACE_BOUND('',#156,.T.);
#156 = EDGE_LOOP('',(#157,#166,#167,#176));
#157 = ORIENTED_EDGE('',*,*,#158,.F.);
#158 = EDGE_CURVE('',#129,#159,#161,.T.);
#159 = VERTEX_POINT('',#160);
#160 = CARTESIAN_POINT('',(-12.24036158841,-7.198162834005,
    19.133333333333));
#161 = CIRCLE('',#162,14.2);
#162 = AXIS2_PLACEMENT_3D('',#163,#164,#165);
#163 = CARTESIAN_POINT('',(-4.248453440899E-15,4.716730829134E-31,
    19.133333333333));
#164 = DIRECTION('',(2.22044604925E-16,-2.465190328816E-32,-1.));
#165 = DIRECTION('',(-1.,2.22044604925E-16,-2.22044604925E-16));
#166 = ORIENTED_EDGE('',*,*,#136,.T.);
#167 = ORIENTED_EDGE('',*,*,#168,.T.);
#168 = EDGE_CURVE('',#137,#169,#171,.T.);
#169 = VERTEX_POINT('',#170);
#170 = CARTESIAN_POINT('',(-9.384098343725,-6.113812090284,
    19.133333333333));
#171 = CIRCLE('',#172,11.2);
#172 = AXIS2_PLACEMENT_3D('',#173,#174,#175);
#173 = CARTESIAN_POINT('',(-4.248453440899E-15,4.716730829134E-31,
    19.133333333333));
#174 = DIRECTION('',(2.22044604925E-16,-2.465190328816E-32,-1.));
#175 = DIRECTION('',(-1.,2.22044604925E-16,-2.22044604925E-16));
#176 = ORIENTED_EDGE('',*,*,#177,.F.);
#177 = EDGE_CURVE('',#159,#169,#178,.T.);
#178 = LINE('',#179,#180);
#179 = CARTESIAN_POINT('',(-7.75449611395,-5.495150489989,
    19.133333333333));
#180 = VECTOR('',#181,1.);
#181 = DIRECTION('',(0.934895402775,0.354923352105,3.113827205332E-16));
#182 = PLANE('',#183);
#183 = AXIS2_PLACEMENT_3D('',#184,#185,#186);
#184 = CARTESIAN_POINT('',(7.,-1.554312234475E-15,19.133333333333));
#185 = DIRECTION('',(-2.22044604925E-16,2.465190328816E-32,1.));
#186 = DIRECTION('',(-1.,2.22044604925E-16,-2.22044604925E-16));
#187 = ADVANCED_FACE('',(#188),#572,.T.);
#188 = FACE_BOUND('',#189,.F.);
#189 = EDGE_LOOP('',(#190,#205,#259,#260,#261,#262,#263,#264,#320,#333,
    #342,#349,#358,#365,#366,#375,#388,#444,#453,#461,#470,#478,#487,
    #543,#556,#565));
#190 = ORIENTED_EDGE('',*,*,#191,.F.);
#191 = EDGE_CURVE('',#192,#194,#196,.T.);
#192 = VERTEX_POINT('',#193);
#193 = CARTESIAN_POINT('',(-14.06978850837,-1.918606611476,17.));
#194 = VERTEX_POINT('',#195);
#195 = CARTESIAN_POINT('',(-13.93344477158,-2.738451532762,
    19.133333333333));
#196 = B_SPLINE_CURVE_WITH_KNOTS('',7,(#197,#198,#199,#200,#201,#202,
    #203,#204),.UNSPECIFIED.,.F.,.F.,(8,8),(0.,1.),
  .PIECEWISE_BEZIER_KNOTS.);
#197 = CARTESIAN_POINT('',(-14.06978850837,-1.918606611476,17.));
#198 = CARTESIAN_POINT('',(-14.06978850837,-1.918606611476,
    17.321791805413));
#199 = CARTESIAN_POINT('',(-14.06455306923,-1.956999601442,
    17.643140663251));
#200 = CARTESIAN_POINT('',(-14.05410738477,-2.033602635044,
    17.961451130578));
#201 = CARTESIAN_POINT('',(-14.03770506239,-2.148952923739,
    18.273893960113));
#202 = CARTESIAN_POINT('',(-14.01387878808,-2.304093962365,
    18.576959152401));
#203 = CARTESIAN_POINT('',(-13.9802548076,-2.500285940032,
    18.865837608219));
#204 = CARTESIAN_POINT('',(-13.93342878889,-2.738532852588,
    19.133424671132));
#205 = ORIENTED_EDGE('',*,*,#206,.F.);
#206 = EDGE_CURVE('',#159,#192,#207,.T.);
#207 = B_SPLINE_CURVE_WITH_KNOTS('',8,(#208,#209,#210,#211,#212,#213,
    #214,#215,#216,#217,#218,#219,#220,#221,#222,#223,#224,#225,#226,
    #227,#228,#229,#230,#231,#232,#233,#234,#235,#236,#237,#238,#239,
    #240,#241,#242,#243,#244,#245,#246,#247,#248,#249,#250,#251,#252,
    #253,#254,#255,#256,#257,#258),.UNSPECIFIED.,.F.,.F.,(9,7,7,7,7,7,7,
    9),(0.,5.20292955913E-02,9.09736843737E-02,0.201397584006,
    0.38239732728,0.546117003749,0.739819785849,1.),.UNSPECIFIED.);
#208 = CARTESIAN_POINT('',(-12.2404035989,-7.198091395364,
    19.133424671132));
#209 = CARTESIAN_POINT('',(-12.21281164585,-7.245011700035,
    19.073437149536));
#210 = CARTESIAN_POINT('',(-12.18611149702,-7.289945072548,
    19.012410142739));
#211 = CARTESIAN_POINT('',(-12.16032219729,-7.332924600117,
    18.950418237347));
#212 = CARTESIAN_POINT('',(-12.1354608054,-7.373982158019,
    18.887531150685));
#213 = CARTESIAN_POINT('',(-12.1115424892,-7.413148423068,
    18.823813758355));
#214 = CARTESIAN_POINT('',(-12.08858062109,-7.450452887076,
    18.759326121786));
#215 = CARTESIAN_POINT('',(-12.0665868733,-7.485923870328,
    18.694123515796));
#216 = CARTESIAN_POINT('',(-12.0298409804,-7.54478683489,18.578954378335
    ));
#217 = CARTESIAN_POINT('',(-12.01465895761,-7.568972730877,
    18.529280825023));
#218 = CARTESIAN_POINT('',(-12.00002959087,-7.592157337861,
    18.479257375805));
#219 = CARTESIAN_POINT('',(-11.98595691975,-7.614351178649,
    18.428904753233));
#220 = CARTESIAN_POINT('',(-11.97244467743,-7.635564184002,
    18.378242822805));
#221 = CARTESIAN_POINT('',(-11.95949629071,-7.655805692633,
    18.327290592966));
#222 = CARTESIAN_POINT('',(-11.94711488,-7.675084451212,18.276066215107)
  );
#223 = CARTESIAN_POINT('',(-11.90181229298,-7.745365407499,
    18.078621475461));
#224 = CARTESIAN_POINT('',(-11.87289944119,-7.789652620105,
    17.93059411604));
#225 = CARTESIAN_POINT('',(-11.84863373939,-7.826448809495,
    17.78091375437));
#226 = CARTESIAN_POINT('',(-11.82906645715,-7.855898425721,
    17.629947390632));
#227 = CARTESIAN_POINT('',(-11.81423339015,-7.878111086779,
    17.478029776538));
#228 = CARTESIAN_POINT('',(-11.80415715219,-7.893160853803,
    17.325473015743));
#229 = CARTESIAN_POINT('',(-11.79884946722,-7.901085506275,
    17.17257616426));
#230 = CARTESIAN_POINT('',(-11.79743487495,-7.90319763539,
    16.768943248976));
#231 = CARTESIAN_POINT('',(-11.80937679116,-7.885366788996,
    16.518350814077));
#232 = CARTESIAN_POINT('',(-11.83411183992,-7.848452551652,
    16.269057157917));
#233 = CARTESIAN_POINT('',(-11.8715685272,-7.792203851714,
    16.022316231679));
#234 = CARTESIAN_POINT('',(-11.92161285578,-7.716092271513,
    15.779529809267));
#235 = CARTESIAN_POINT('',(-11.98400626731,-7.619333457493,
    15.542361914923));
#236 = CARTESIAN_POINT('',(-12.05834507253,-7.500907865826,
    15.312884191484));
#237 = CARTESIAN_POINT('',(-12.22145180044,-7.231767134888,
    14.895559859651));
#238 = CARTESIAN_POINT('',(-12.30870877202,-7.084316000127,
    14.704437813702));
#239 = CARTESIAN_POINT('',(-12.40518694345,-6.916404996741,
    14.52340817266));
#240 = CARTESIAN_POINT('',(-12.5099286799,-6.727415489375,
    14.355757035306));
#241 = CARTESIAN_POINT('',(-12.62159621136,-6.516979807039,
    14.20506007689));
#242 = CARTESIAN_POINT('',(-12.73848584182,-6.285058020972,
    14.075221645256));
#243 = CARTESIAN_POINT('',(-12.85857557651,-6.032091051895,
    13.970552335708));
#244 = CARTESIAN_POINT('',(-13.12285911798,-5.436476389504,
    13.807576048459));
#245 = CARTESIAN_POINT('',(-13.26334724582,-5.095112576876,
    13.763795150766));
#246 = CARTESIAN_POINT('',(-13.39533533819,-4.744265070003,
    13.769573201783));
#247 = CARTESIAN_POINT('',(-13.5141394387,-4.394441964536,
    13.825664852056));
#248 = CARTESIAN_POINT('',(-13.61707249487,-4.056724930092,
    13.928831843019));
#249 = CARTESIAN_POINT('',(-13.70364681183,-3.741796338786,
    14.071965727144));
#250 = CARTESIAN_POINT('',(-13.77475141965,-3.458336973648,
    14.243996814817));
#251 = CARTESIAN_POINT('',(-13.90870976621,-2.881497379224,
    14.679219330749));
#252 = CARTESIAN_POINT('',(-13.9643349541,-2.600968817998,
    14.966360448755));
#253 = CARTESIAN_POINT('',(-14.00408349879,-2.370481210269,
    15.278773866606));
#254 = CARTESIAN_POINT('',(-14.03215675515,-2.188547286231,
    15.608202131032));
#255 = CARTESIAN_POINT('',(-14.05140264503,-2.053429444,15.948788357434)
  );
#256 = CARTESIAN_POINT('',(-14.06364033612,-1.96369462553,
    16.296319939306));
#257 = CARTESIAN_POINT('',(-14.06978850837,-1.918606611476,
    16.647669885233));
#258 = CARTESIAN_POINT('',(-14.06978850837,-1.918606611476,17.));
#259 = ORIENTED_EDGE('',*,*,#158,.F.);
#260 = ORIENTED_EDGE('',*,*,#128,.F.);
#261 = ORIENTED_EDGE('',*,*,#21,.F.);
#262 = ORIENTED_EDGE('',*,*,#64,.T.);
#263 = ORIENTED_EDGE('',*,*,#94,.T.);
#264 = ORIENTED_EDGE('',*,*,#265,.T.);
#265 = EDGE_CURVE('',#95,#266,#268,.T.);
#266 = VERTEX_POINT('',#267);
#267 = CARTESIAN_POINT('',(14.069788508375,-1.918606611476,17.));
#268 = B_SPLINE_CURVE_WITH_KNOTS('',8,(#269,#270,#271,#272,#273,#274,
    #275,#276,#277,#278,#279,#280,#281,#282,#283,#284,#285,#286,#287,
    #288,#289,#290,#291,#292,#293,#294,#295,#296,#297,#298,#299,#300,
    #301,#302,#303,#304,#305,#306,#307,#308,#309,#310,#311,#312,#313,
    #314,#315,#316,#317,#318,#319),.UNSPECIFIED.,.F.,.F.,(9,7,7,7,7,7,7,
    9),(0.,5.202929559117E-02,9.09736843735E-02,0.201397584005,
    0.38239732728,0.546117003748,0.739819785848,1.),.UNSPECIFIED.);
#269 = CARTESIAN_POINT('',(12.240403598901,-7.198091395364,
    19.133424671132));
#270 = CARTESIAN_POINT('',(12.212811645859,-7.245011700035,
    19.073437149536));
#271 = CARTESIAN_POINT('',(12.18611149702,-7.289945072548,
    19.012410142739));
#272 = CARTESIAN_POINT('',(12.160322197295,-7.332924600117,
    18.950418237347));
#273 = CARTESIAN_POINT('',(12.1354608054,-7.373982158019,18.887531150685
    ));
#274 = CARTESIAN_POINT('',(12.111542489207,-7.413148423068,
    18.823813758355));
#275 = CARTESIAN_POINT('',(12.088580621096,-7.450452887076,
    18.759326121786));
#276 = CARTESIAN_POINT('',(12.066586873307,-7.485923870328,
    18.694123515796));
#277 = CARTESIAN_POINT('',(12.029840980402,-7.54478683489,
    18.578954378335));
#278 = CARTESIAN_POINT('',(12.014658957614,-7.568972730877,
    18.529280825023));
#279 = CARTESIAN_POINT('',(12.000029590877,-7.592157337861,
    18.479257375805));
#280 = CARTESIAN_POINT('',(11.985956919758,-7.614351178649,
    18.428904753233));
#281 = CARTESIAN_POINT('',(11.972444677438,-7.635564184002,
    18.378242822805));
#282 = CARTESIAN_POINT('',(11.959496290716,-7.655805692633,
    18.327290592966));
#283 = CARTESIAN_POINT('',(11.947114880008,-7.675084451212,
    18.276066215107));
#284 = CARTESIAN_POINT('',(11.901812292987,-7.745365407499,
    18.078621475461));
#285 = CARTESIAN_POINT('',(11.872899441192,-7.789652620105,
    17.93059411604));
#286 = CARTESIAN_POINT('',(11.848633739395,-7.826448809495,
    17.78091375437));
#287 = CARTESIAN_POINT('',(11.829066457154,-7.855898425721,
    17.629947390632));
#288 = CARTESIAN_POINT('',(11.814233390152,-7.878111086779,
    17.478029776538));
#289 = CARTESIAN_POINT('',(11.804157152197,-7.893160853803,
    17.325473015743));
#290 = CARTESIAN_POINT('',(11.798849467229,-7.901085506275,
    17.17257616426));
#291 = CARTESIAN_POINT('',(11.797434874953,-7.90319763539,
    16.768943248976));
#292 = CARTESIAN_POINT('',(11.809376791165,-7.885366788996,
    16.518350814077));
#293 = CARTESIAN_POINT('',(11.834111839928,-7.848452551652,
    16.269057157917));
#294 = CARTESIAN_POINT('',(11.871568527203,-7.792203851714,
    16.022316231679));
#295 = CARTESIAN_POINT('',(11.921612855783,-7.716092271513,
    15.779529809268));
#296 = CARTESIAN_POINT('',(11.984006267311,-7.619333457493,
    15.542361914923));
#297 = CARTESIAN_POINT('',(12.058345072533,-7.500907865826,
    15.312884191484));
#298 = CARTESIAN_POINT('',(12.221451800448,-7.231767134888,
    14.895559859651));
#299 = CARTESIAN_POINT('',(12.308708772027,-7.084316000126,
    14.704437813702));
#300 = CARTESIAN_POINT('',(12.405186943451,-6.916404996741,
    14.52340817266));
#301 = CARTESIAN_POINT('',(12.509928679902,-6.727415489375,
    14.355757035306));
#302 = CARTESIAN_POINT('',(12.621596211367,-6.516979807039,
    14.20506007689));
#303 = CARTESIAN_POINT('',(12.738485841828,-6.285058020972,
    14.075221645256));
#304 = CARTESIAN_POINT('',(12.85857557651,-6.032091051895,
    13.970552335708));
#305 = CARTESIAN_POINT('',(13.122859117988,-5.436476389504,
    13.807576048459));
#306 = CARTESIAN_POINT('',(13.263347245824,-5.095112576876,
    13.763795150766));
#307 = CARTESIAN_POINT('',(13.395335338194,-4.744265070004,
    13.769573201783));
#308 = CARTESIAN_POINT('',(13.514139438703,-4.394441964534,
    13.825664852057));
#309 = CARTESIAN_POINT('',(13.617072494878,-4.056724930094,
    13.928831843017));
#310 = CARTESIAN_POINT('',(13.703646811833,-3.741796338784,
    14.071965727145));
#311 = CARTESIAN_POINT('',(13.774751419655,-3.458336973648,
    14.243996814817));
#312 = CARTESIAN_POINT('',(13.908709766216,-2.881497379221,
    14.679219330751));
#313 = CARTESIAN_POINT('',(13.964334954102,-2.60096881801,
    14.966360448748));
#314 = CARTESIAN_POINT('',(14.0040834988,-2.370481210253,15.27877386661)
  );
#315 = CARTESIAN_POINT('',(14.03215675515,-2.188547286242,
    15.608202131047));
#316 = CARTESIAN_POINT('',(14.051402645039,-2.053429443997,
    15.948788357407));
#317 = CARTESIAN_POINT('',(14.063640336125,-1.96369462553,
    16.296319939327));
#318 = CARTESIAN_POINT('',(14.069788508375,-1.918606611476,
    16.647669885227));
#319 = CARTESIAN_POINT('',(14.069788508375,-1.918606611476,17.));
#320 = ORIENTED_EDGE('',*,*,#321,.T.);
#321 = EDGE_CURVE('',#266,#322,#324,.T.);
#322 = VERTEX_POINT('',#323);
#323 = CARTESIAN_POINT('',(13.933444771582,-2.738451532762,
    19.133333333333));
#324 = B_SPLINE_CURVE_WITH_KNOTS('',7,(#325,#326,#327,#328,#329,#330,
    #331,#332),.UNSPECIFIED.,.F.,.F.,(8,8),(0.,1.),
  .PIECEWISE_BEZIER_KNOTS.);
#325 = CARTESIAN_POINT('',(14.069788508375,-1.918606611476,17.));
#326 = CARTESIAN_POINT('',(14.069788508375,-1.918606611476,
    17.321791805413));
#327 = CARTESIAN_POINT('',(14.06455306923,-1.956999601442,
    17.643140663252));
#328 = CARTESIAN_POINT('',(14.054107384773,-2.033602635043,
    17.961451130577));
#329 = CARTESIAN_POINT('',(14.037705062392,-2.14895292374,
    18.273893960114));
#330 = CARTESIAN_POINT('',(14.013878788085,-2.304093962365,18.5769591524
    ));
#331 = CARTESIAN_POINT('',(13.980254807601,-2.500285940032,
    18.865837608219));
#332 = CARTESIAN_POINT('',(13.933428788898,-2.738532852588,
    19.133424671132));
#333 = ORIENTED_EDGE('',*,*,#334,.T.);
#334 = EDGE_CURVE('',#322,#335,#337,.T.);
#335 = VERTEX_POINT('',#336);
#336 = CARTESIAN_POINT('',(14.2,6.218261935441E-46,19.133333333333));
#337 = CIRCLE('',#338,14.2);
#338 = AXIS2_PLACEMENT_3D('',#339,#340,#341);
#339 = CARTESIAN_POINT('',(0.,0.,19.133333333333));
#340 = DIRECTION('',(0.,0.,1.));
#341 = DIRECTION('',(1.,0.,0.));
#342 = ORIENTED_EDGE('',*,*,#343,.T.);
#343 = EDGE_CURVE('',#335,#344,#346,.T.);
#344 = VERTEX_POINT('',#345);
#345 = CARTESIAN_POINT('',(14.2,0.,0.));
#346 = B_SPLINE_CURVE_WITH_KNOTS('',1,(#347,#348),.UNSPECIFIED.,.F.,.F.,
  (2,2),(-19.13333333333,0.),.PIECEWISE_BEZIER_KNOTS.);
#347 = CARTESIAN_POINT('',(14.2,0.,19.133333333333));
#348 = CARTESIAN_POINT('',(14.2,0.,0.));
#349 = ORIENTED_EDGE('',*,*,#350,.F.);
#350 = EDGE_CURVE('',#351,#344,#353,.T.);
#351 = VERTEX_POINT('',#352);
#352 = CARTESIAN_POINT('',(-14.2,3.153033389935E-15,-3.153033389935E-15)
  );
#353 = CIRCLE('',#354,14.2);
#354 = AXIS2_PLACEMENT_3D('',#355,#356,#357);
#355 = CARTESIAN_POINT('',(0.,0.,0.));
#356 = DIRECTION('',(0.,0.,1.));
#357 = DIRECTION('',(1.,0.,0.));
#358 = ORIENTED_EDGE('',*,*,#359,.F.);
#359 = EDGE_CURVE('',#344,#351,#360,.T.);
#360 = CIRCLE('',#361,14.2);
#361 = AXIS2_PLACEMENT_3D('',#362,#363,#364);
#362 = CARTESIAN_POINT('',(0.,0.,0.));
#363 = DIRECTION('',(0.,0.,1.));
#364 = DIRECTION('',(1.,0.,0.));
#365 = ORIENTED_EDGE('',*,*,#343,.F.);
#366 = ORIENTED_EDGE('',*,*,#367,.F.);
#367 = EDGE_CURVE('',#368,#335,#370,.T.);
#368 = VERTEX_POINT('',#369);
#369 = CARTESIAN_POINT('',(13.933444771582,2.738451532762,
    19.133333333333));
#370 = CIRCLE('',#371,14.2);
#371 = AXIS2_PLACEMENT_3D('',#372,#373,#374);
#372 = CARTESIAN_POINT('',(0.,0.,19.133333333333));
#373 = DIRECTION('',(0.,0.,-1.));
#374 = DIRECTION('',(1.,0.,0.));
#375 = ORIENTED_EDGE('',*,*,#376,.F.);
#376 = EDGE_CURVE('',#377,#368,#379,.T.);
#377 = VERTEX_POINT('',#378);
#378 = CARTESIAN_POINT('',(14.069788508375,1.918606611476,17.));
#379 = B_SPLINE_CURVE_WITH_KNOTS('',7,(#380,#381,#382,#383,#384,#385,
    #386,#387),.UNSPECIFIED.,.F.,.F.,(8,8),(0.,1.),
  .PIECEWISE_BEZIER_KNOTS.);
#380 = CARTESIAN_POINT('',(14.069788508375,1.918606611476,17.));
#381 = CARTESIAN_POINT('',(14.069788508375,1.918606611476,
    17.321776076282));
#382 = CARTESIAN_POINT('',(14.064553581027,1.956995848496,17.64310932366
    ));
#383 = CARTESIAN_POINT('',(14.054108912055,2.033591433962,
    17.961404616926));
#384 = CARTESIAN_POINT('',(14.037708257893,2.148930456079,
    18.273833092632));
#385 = CARTESIAN_POINT('',(14.01388458953,2.304056180077,18.576885320961
    ));
#386 = CARTESIAN_POINT('',(13.980264641077,2.500228559659,18.86575311012
    ));
#387 = CARTESIAN_POINT('',(13.933444771582,2.738451532762,
    19.133333333333));
#388 = ORIENTED_EDGE('',*,*,#389,.F.);
#389 = EDGE_CURVE('',#390,#377,#392,.T.);
#390 = VERTEX_POINT('',#391);
#391 = CARTESIAN_POINT('',(12.240361588415,7.198162834005,
    19.133333333333));
#392 = B_SPLINE_CURVE_WITH_KNOTS('',8,(#393,#394,#395,#396,#397,#398,
    #399,#400,#401,#402,#403,#404,#405,#406,#407,#408,#409,#410,#411,
    #412,#413,#414,#415,#416,#417,#418,#419,#420,#421,#422,#423,#424,
    #425,#426,#427,#428,#429,#430,#431,#432,#433,#434,#435,#436,#437,
    #438,#439,#440,#441,#442,#443),.UNSPECIFIED.,.F.,.F.,(9,7,7,7,7,7,7,
    9),(0.,5.201990846242E-02,9.096468319143E-02,0.20138966991,
    0.38239120686,0.546112505776,0.739817207467,1.),.UNSPECIFIED.);
#393 = CARTESIAN_POINT('',(12.240361588415,7.198162834005,
    19.133333333333));
#394 = CARTESIAN_POINT('',(12.212776074587,7.245071562196,
    19.073355843926));
#395 = CARTESIAN_POINT('',(12.186082047464,7.289994151922,
    19.012339350656));
#396 = CARTESIAN_POINT('',(12.160298539042,7.332963670619,
    18.950358392471));
#397 = CARTESIAN_POINT('',(12.135442596763,7.374011974614,
    18.887482642942));
#398 = CARTESIAN_POINT('',(12.111529378784,7.413169722583,
    18.823776937792));
#399 = CARTESIAN_POINT('',(12.088572249228,7.450466389014,
    18.759301302419));
#400 = CARTESIAN_POINT('',(12.066582873449,7.485930277669,
    18.694110979425));
#401 = CARTESIAN_POINT('',(12.029840980402,7.54478683489,18.578954378335
    ));
#402 = CARTESIAN_POINT('',(12.014658957614,7.568972730877,
    18.529280825023));
#403 = CARTESIAN_POINT('',(12.000029590877,7.592157337861,
    18.479257375805));
#404 = CARTESIAN_POINT('',(11.985956919758,7.614351178649,
    18.428904753233));
#405 = CARTESIAN_POINT('',(11.972444677438,7.635564184002,
    18.378242822805));
#406 = CARTESIAN_POINT('',(11.959496290716,7.655805692633,
    18.327290592965));
#407 = CARTESIAN_POINT('',(11.947114880008,7.675084451212,
    18.276066215107));
#408 = CARTESIAN_POINT('',(11.901812295182,7.745365404094,
    18.078621485027));
#409 = CARTESIAN_POINT('',(11.872899440991,7.789652620407,
    17.930594110297));
#410 = CARTESIAN_POINT('',(11.848633737775,7.826448811997,
    17.780913744615));
#411 = CARTESIAN_POINT('',(11.829066456254,7.855898427117,
    17.629947390797));
#412 = CARTESIAN_POINT('',(11.814233390786,7.878111085805,
    17.478029786472));
#413 = CARTESIAN_POINT('',(11.804157153294,7.89316085211,17.325473021318
    ));
#414 = CARTESIAN_POINT('',(11.798849467194,7.901085506327,
    17.172576154295));
#415 = CARTESIAN_POINT('',(11.797434874953,7.90319763539,16.768943248976
    ));
#416 = CARTESIAN_POINT('',(11.809376791165,7.885366788996,
    16.518350814077));
#417 = CARTESIAN_POINT('',(11.834111839928,7.848452551652,
    16.269057157917));
#418 = CARTESIAN_POINT('',(11.871568527203,7.792203851714,
    16.022316231679));
#419 = CARTESIAN_POINT('',(11.921612855783,7.716092271513,
    15.779529809268));
#420 = CARTESIAN_POINT('',(11.984006267311,7.619333457493,
    15.542361914923));
#421 = CARTESIAN_POINT('',(12.058345072533,7.500907865826,
    15.312884191484));
#422 = CARTESIAN_POINT('',(12.221451800455,7.231767134877,
    14.895559859634));
#423 = CARTESIAN_POINT('',(12.30870877203,7.084316000121,14.7044378137)
  );
#424 = CARTESIAN_POINT('',(12.405186943447,6.916404996747,
    14.523408172671));
#425 = CARTESIAN_POINT('',(12.509928679894,6.727415489389,
    14.355757035317));
#426 = CARTESIAN_POINT('',(12.621596211363,6.516979807048,
    14.205060076891));
#427 = CARTESIAN_POINT('',(12.738485841832,6.285058020966,
    14.075221645249));
#428 = CARTESIAN_POINT('',(12.858575576518,6.032091051877,
    13.970552335703));
#429 = CARTESIAN_POINT('',(13.122859117988,5.436476389504,
    13.807576048459));
#430 = CARTESIAN_POINT('',(13.263347245823,5.095112576877,
    13.763795150766));
#431 = CARTESIAN_POINT('',(13.395335338195,4.744265070003,
    13.769573201783));
#432 = CARTESIAN_POINT('',(13.514139438702,4.394441964535,
    13.825664852057));
#433 = CARTESIAN_POINT('',(13.617072494879,4.056724930094,
    13.928831843017));
#434 = CARTESIAN_POINT('',(13.703646811833,3.741796338784,
    14.071965727145));
#435 = CARTESIAN_POINT('',(13.774751419655,3.458336973649,
    14.243996814817));
#436 = CARTESIAN_POINT('',(13.908709766216,2.88149737922,14.679219330752
    ));
#437 = CARTESIAN_POINT('',(13.964334954102,2.600968818012,
    14.966360448746));
#438 = CARTESIAN_POINT('',(14.004083498801,2.370481210248,
    15.278773866613));
#439 = CARTESIAN_POINT('',(14.032156755149,2.188547286247,
    15.608202131042));
#440 = CARTESIAN_POINT('',(14.051402645039,2.053429443994,
    15.948788357411));
#441 = CARTESIAN_POINT('',(14.063640336125,1.963694625531,
    16.296319939324));
#442 = CARTESIAN_POINT('',(14.069788508375,1.918606611476,
    16.647669885228));
#443 = CARTESIAN_POINT('',(14.069788508375,1.918606611476,17.));
#444 = ORIENTED_EDGE('',*,*,#445,.F.);
#445 = EDGE_CURVE('',#446,#390,#448,.T.);
#446 = VERTEX_POINT('',#447);
#447 = CARTESIAN_POINT('',(10.877831092289,9.127584057549,
    19.133333333333));
#448 = CIRCLE('',#449,14.2);
#449 = AXIS2_PLACEMENT_3D('',#450,#451,#452);
#450 = CARTESIAN_POINT('',(0.,0.,19.133333333333));
#451 = DIRECTION('',(0.,0.,-1.));
#452 = DIRECTION('',(1.,0.,0.));
#453 = ORIENTED_EDGE('',*,*,#454,.F.);
#454 = EDGE_CURVE('',#455,#446,#457,.T.);
#455 = VERTEX_POINT('',#456);
#456 = CARTESIAN_POINT('',(10.877831092289,9.127584057549,2.));
#457 = LINE('',#458,#459);
#458 = CARTESIAN_POINT('',(10.877831092289,9.127584057549,2.));
#459 = VECTOR('',#460,1.);
#460 = DIRECTION('',(0.,0.,1.));
#461 = ORIENTED_EDGE('',*,*,#462,.F.);
#462 = EDGE_CURVE('',#463,#455,#465,.T.);
#463 = VERTEX_POINT('',#464);
#464 = CARTESIAN_POINT('',(-10.87783109228,9.127584057549,2.));
#465 = CIRCLE('',#466,14.2);
#466 = AXIS2_PLACEMENT_3D('',#467,#468,#469);
#467 = CARTESIAN_POINT('',(0.,0.,2.));
#468 = DIRECTION('',(0.,0.,-1.));
#469 = DIRECTION('',(1.,0.,0.));
#470 = ORIENTED_EDGE('',*,*,#471,.T.);
#471 = EDGE_CURVE('',#463,#472,#474,.T.);
#472 = VERTEX_POINT('',#473);
#473 = CARTESIAN_POINT('',(-10.87783109228,9.127584057549,
    19.133333333333));
#474 = LINE('',#475,#476);
#475 = CARTESIAN_POINT('',(-10.87783109228,9.127584057549,2.));
#476 = VECTOR('',#477,1.);
#477 = DIRECTION('',(-2.22044604925E-16,2.465190328816E-32,1.));
#478 = ORIENTED_EDGE('',*,*,#479,.T.);
#479 = EDGE_CURVE('',#472,#480,#482,.T.);
#480 = VERTEX_POINT('',#481);
#481 = CARTESIAN_POINT('',(-12.24036158841,7.198162834005,
    19.133333333333));
#482 = CIRCLE('',#483,14.2);
#483 = AXIS2_PLACEMENT_3D('',#484,#485,#486);
#484 = CARTESIAN_POINT('',(-4.248453440899E-15,4.716730829134E-31,
    19.133333333333));
#485 = DIRECTION('',(-2.22044604925E-16,2.465190328816E-32,1.));
#486 = DIRECTION('',(-1.,2.22044604925E-16,-2.22044604925E-16));
#487 = ORIENTED_EDGE('',*,*,#488,.T.);
#488 = EDGE_CURVE('',#480,#489,#491,.T.);
#489 = VERTEX_POINT('',#490);
#490 = CARTESIAN_POINT('',(-14.06978850837,1.918606611476,17.));
#491 = B_SPLINE_CURVE_WITH_KNOTS('',8,(#492,#493,#494,#495,#496,#497,
    #498,#499,#500,#501,#502,#503,#504,#505,#506,#507,#508,#509,#510,
    #511,#512,#513,#514,#515,#516,#517,#518,#519,#520,#521,#522,#523,
    #524,#525,#526,#527,#528,#529,#530,#531,#532,#533,#534,#535,#536,
    #537,#538,#539,#540,#541,#542),.UNSPECIFIED.,.F.,.F.,(9,7,7,7,7,7,7,
    9),(0.,5.202929598328E-02,9.09736850591E-02,0.201397578287,
    0.382397322858,0.546117000499,0.739819783987,1.),.UNSPECIFIED.);
#492 = CARTESIAN_POINT('',(-12.2404035989,7.198091395364,19.133424671132
    ));
#493 = CARTESIAN_POINT('',(-12.21281164585,7.245011700035,
    19.073437149536));
#494 = CARTESIAN_POINT('',(-12.18611149702,7.289945072548,
    19.012410142739));
#495 = CARTESIAN_POINT('',(-12.16032219729,7.332924600117,
    18.950418237347));
#496 = CARTESIAN_POINT('',(-12.1354608054,7.373982158019,18.887531150685
    ));
#497 = CARTESIAN_POINT('',(-12.1115424892,7.413148423068,18.823813758355
    ));
#498 = CARTESIAN_POINT('',(-12.08858062109,7.450452887076,
    18.759326121786));
#499 = CARTESIAN_POINT('',(-12.0665868733,7.485923870328,18.694123515796
    ));
#500 = CARTESIAN_POINT('',(-12.0298409804,7.54478683489,18.578954378335)
  );
#501 = CARTESIAN_POINT('',(-12.01465895761,7.568972730877,
    18.529280825023));
#502 = CARTESIAN_POINT('',(-12.00002959087,7.592157337861,
    18.479257375805));
#503 = CARTESIAN_POINT('',(-11.98595691975,7.614351178649,
    18.428904753233));
#504 = CARTESIAN_POINT('',(-11.97244467743,7.635564184002,
    18.378242822805));
#505 = CARTESIAN_POINT('',(-11.95949629071,7.655805692633,
    18.327290592965));
#506 = CARTESIAN_POINT('',(-11.94711488,7.675084451212,18.276066215107)
  );
#507 = CARTESIAN_POINT('',(-11.90181229518,7.745365404094,
    18.078621485027));
#508 = CARTESIAN_POINT('',(-11.87289944099,7.789652620407,
    17.930594110297));
#509 = CARTESIAN_POINT('',(-11.84863373777,7.826448811997,
    17.780913744615));
#510 = CARTESIAN_POINT('',(-11.82906645625,7.855898427117,
    17.629947390797));
#511 = CARTESIAN_POINT('',(-11.81423339078,7.878111085805,
    17.478029786472));
#512 = CARTESIAN_POINT('',(-11.80415715329,7.89316085211,17.325473021318
    ));
#513 = CARTESIAN_POINT('',(-11.79884946719,7.901085506327,
    17.172576154294));
#514 = CARTESIAN_POINT('',(-11.79743487495,7.90319763539,16.768943248976
    ));
#515 = CARTESIAN_POINT('',(-11.80937679116,7.885366788996,
    16.518350814077));
#516 = CARTESIAN_POINT('',(-11.83411183992,7.848452551652,
    16.269057157917));
#517 = CARTESIAN_POINT('',(-11.8715685272,7.792203851714,16.022316231679
    ));
#518 = CARTESIAN_POINT('',(-11.92161285578,7.716092271513,
    15.779529809267));
#519 = CARTESIAN_POINT('',(-11.98400626731,7.619333457493,
    15.542361914923));
#520 = CARTESIAN_POINT('',(-12.05834507253,7.500907865826,
    15.312884191484));
#521 = CARTESIAN_POINT('',(-12.22145180044,7.231767134888,
    14.895559859651));
#522 = CARTESIAN_POINT('',(-12.30870877202,7.084316000126,
    14.704437813702));
#523 = CARTESIAN_POINT('',(-12.40518694345,6.916404996741,14.52340817266
    ));
#524 = CARTESIAN_POINT('',(-12.5099286799,6.727415489375,14.355757035306
    ));
#525 = CARTESIAN_POINT('',(-12.62159621136,6.516979807039,
    14.205060076889));
#526 = CARTESIAN_POINT('',(-12.73848584182,6.285058020973,
    14.075221645256));
#527 = CARTESIAN_POINT('',(-12.85857557651,6.032091051895,
    13.970552335707));
#528 = CARTESIAN_POINT('',(-13.12285911798,5.436476389504,
    13.807576048459));
#529 = CARTESIAN_POINT('',(-13.26334724582,5.095112576876,
    13.763795150766));
#530 = CARTESIAN_POINT('',(-13.39533533819,4.744265070005,
    13.769573201783));
#531 = CARTESIAN_POINT('',(-13.5141394387,4.394441964532,13.825664852057
    ));
#532 = CARTESIAN_POINT('',(-13.61707249487,4.056724930096,
    13.928831843017));
#533 = CARTESIAN_POINT('',(-13.70364681183,3.741796338784,
    14.071965727145));
#534 = CARTESIAN_POINT('',(-13.77475141965,3.458336973649,
    14.243996814816));
#535 = CARTESIAN_POINT('',(-13.90870976621,2.881497379225,
    14.679219330748));
#536 = CARTESIAN_POINT('',(-13.9643349541,2.600968817996,14.966360448757
    ));
#537 = CARTESIAN_POINT('',(-14.00408349879,2.370481210272,
    15.278773866603));
#538 = CARTESIAN_POINT('',(-14.03215675515,2.188547286228,
    15.608202131037));
#539 = CARTESIAN_POINT('',(-14.05140264503,2.053429444002,15.94878835743
    ));
#540 = CARTESIAN_POINT('',(-14.06364033612,1.963694625529,
    16.296319939309));
#541 = CARTESIAN_POINT('',(-14.06978850837,1.918606611476,
    16.647669885232));
#542 = CARTESIAN_POINT('',(-14.06978850837,1.918606611476,17.));
#543 = ORIENTED_EDGE('',*,*,#544,.T.);
#544 = EDGE_CURVE('',#489,#545,#547,.T.);
#545 = VERTEX_POINT('',#546);
#546 = CARTESIAN_POINT('',(-13.93344477158,2.738451532762,
    19.133333333333));
#547 = B_SPLINE_CURVE_WITH_KNOTS('',7,(#548,#549,#550,#551,#552,#553,
    #554,#555),.UNSPECIFIED.,.F.,.F.,(8,8),(0.,1.),
  .PIECEWISE_BEZIER_KNOTS.);
#548 = CARTESIAN_POINT('',(-14.06978850837,1.918606611476,17.));
#549 = CARTESIAN_POINT('',(-14.06978850837,1.918606611476,
    17.321791805413));
#550 = CARTESIAN_POINT('',(-14.06455306923,1.956999601442,
    17.643140663251));
#551 = CARTESIAN_POINT('',(-14.05410738477,2.033602635043,
    17.961451130577));
#552 = CARTESIAN_POINT('',(-14.03770506239,2.14895292374,18.273893960114
    ));
#553 = CARTESIAN_POINT('',(-14.01387878808,2.304093962365,
    18.576959152401));
#554 = CARTESIAN_POINT('',(-13.9802548076,2.500285940032,18.865837608219
    ));
#555 = CARTESIAN_POINT('',(-13.93342878889,2.738532852588,
    19.133424671132));
#556 = ORIENTED_EDGE('',*,*,#557,.T.);
#557 = EDGE_CURVE('',#545,#558,#560,.T.);
#558 = VERTEX_POINT('',#559);
#559 = CARTESIAN_POINT('',(-14.2,3.153033389935E-15,19.133333333333));
#560 = CIRCLE('',#561,14.2);
#561 = AXIS2_PLACEMENT_3D('',#562,#563,#564);
#562 = CARTESIAN_POINT('',(-4.248453440899E-15,4.716730829134E-31,
    19.133333333333));
#563 = DIRECTION('',(-2.22044604925E-16,2.465190328816E-32,1.));
#564 = DIRECTION('',(-1.,2.22044604925E-16,-2.22044604925E-16));
#565 = ORIENTED_EDGE('',*,*,#566,.F.);
#566 = EDGE_CURVE('',#194,#558,#567,.T.);
#567 = CIRCLE('',#568,14.2);
#568 = AXIS2_PLACEMENT_3D('',#569,#570,#571);
#569 = CARTESIAN_POINT('',(-4.248453440899E-15,4.716730829134E-31,
    19.133333333333));
#570 = DIRECTION('',(2.22044604925E-16,-2.465190328816E-32,-1.));
#571 = DIRECTION('',(-1.,2.22044604925E-16,-2.22044604925E-16));
#572 = CYLINDRICAL_SURFACE('',#573,14.2);
#573 = AXIS2_PLACEMENT_3D('',#574,#575,#576);
#574 = CARTESIAN_POINT('',(0.,0.,0.));
#575 = DIRECTION('',(-0.,-0.,-1.));
#576 = DIRECTION('',(1.,0.,0.));
#577 = ADVANCED_FACE('',(#578),#604,.T.);
#578 = FACE_BOUND('',#579,.T.);
#579 = EDGE_LOOP('',(#580,#581,#589,#598));
#580 = ORIENTED_EDGE('',*,*,#462,.F.);
#581 = ORIENTED_EDGE('',*,*,#582,.T.);
#582 = EDGE_CURVE('',#463,#583,#585,.T.);
#583 = VERTEX_POINT('',#584);
#584 = CARTESIAN_POINT('',(-8.579697762933,7.199221228489,2.));
#585 = LINE('',#586,#587);
#586 = CARTESIAN_POINT('',(-10.87783109228,9.127584057549,2.));
#587 = VECTOR('',#588,1.);
#588 = DIRECTION('',(0.766044443119,-0.642787609687,1.700960357274E-16)
  );
#589 = ORIENTED_EDGE('',*,*,#590,.T.);
#590 = EDGE_CURVE('',#583,#591,#593,.T.);
#591 = VERTEX_POINT('',#592);
#592 = CARTESIAN_POINT('',(8.579697762933,7.199221228489,2.));
#593 = CIRCLE('',#594,11.2);
#594 = AXIS2_PLACEMENT_3D('',#595,#596,#597);
#595 = CARTESIAN_POINT('',(0.,0.,2.));
#596 = DIRECTION('',(0.,0.,-1.));
#597 = DIRECTION('',(1.,0.,0.));
#598 = ORIENTED_EDGE('',*,*,#599,.F.);
#599 = EDGE_CURVE('',#455,#591,#600,.T.);
#600 = LINE('',#601,#602);
#601 = CARTESIAN_POINT('',(10.877831092289,9.127584057549,2.));
#602 = VECTOR('',#603,1.);
#603 = DIRECTION('',(-0.766044443119,-0.642787609687,0.));
#604 = PLANE('',#605);
#605 = AXIS2_PLACEMENT_3D('',#606,#607,#608);
#606 = CARTESIAN_POINT('',(-3.58833704323E-13,3.66922357047E-12,2.));
#607 = DIRECTION('',(0.,0.,1.));
#608 = DIRECTION('',(1.,0.,0.));
#609 = ADVANCED_FACE('',(#610),#628,.F.);
#610 = FACE_BOUND('',#611,.F.);
#611 = EDGE_LOOP('',(#612,#613,#614,#622));
#612 = ORIENTED_EDGE('',*,*,#599,.F.);
#613 = ORIENTED_EDGE('',*,*,#454,.T.);
#614 = ORIENTED_EDGE('',*,*,#615,.T.);
#615 = EDGE_CURVE('',#446,#616,#618,.T.);
#616 = VERTEX_POINT('',#617);
#617 = CARTESIAN_POINT('',(8.579697762933,7.199221228489,19.133333333333
    ));
#618 = LINE('',#619,#620);
#619 = CARTESIAN_POINT('',(3.385031235228,2.840378461003,19.133333333333
    ));
#620 = VECTOR('',#621,1.);
#621 = DIRECTION('',(-0.766044443119,-0.642787609687,0.));
#622 = ORIENTED_EDGE('',*,*,#623,.F.);
#623 = EDGE_CURVE('',#591,#616,#624,.T.);
#624 = LINE('',#625,#626);
#625 = CARTESIAN_POINT('',(8.579697762933,7.199221228489,2.));
#626 = VECTOR('',#627,1.);
#627 = DIRECTION('',(0.,0.,1.));
#628 = PLANE('',#629);
#629 = AXIS2_PLACEMENT_3D('',#630,#631,#632);
#630 = CARTESIAN_POINT('',(10.877831092289,9.127584057549,2.));
#631 = DIRECTION('',(0.642787609687,-0.766044443119,0.));
#632 = DIRECTION('',(-0.766044443119,-0.642787609687,0.));
#633 = ADVANCED_FACE('',(#634),#653,.T.);
#634 = FACE_BOUND('',#635,.T.);
#635 = EDGE_LOOP('',(#636,#637,#638,#647));
#636 = ORIENTED_EDGE('',*,*,#445,.F.);
#637 = ORIENTED_EDGE('',*,*,#615,.T.);
#638 = ORIENTED_EDGE('',*,*,#639,.T.);
#639 = EDGE_CURVE('',#616,#640,#642,.T.);
#640 = VERTEX_POINT('',#641);
#641 = CARTESIAN_POINT('',(9.384098343725,6.113812090284,19.133333333333
    ));
#642 = CIRCLE('',#643,11.2);
#643 = AXIS2_PLACEMENT_3D('',#644,#645,#646);
#644 = CARTESIAN_POINT('',(0.,0.,19.133333333333));
#645 = DIRECTION('',(0.,0.,-1.));
#646 = DIRECTION('',(1.,0.,0.));
#647 = ORIENTED_EDGE('',*,*,#648,.F.);
#648 = EDGE_CURVE('',#390,#640,#649,.T.);
#649 = LINE('',#650,#651);
#650 = CARTESIAN_POINT('',(7.75449611395,5.495150489989,19.133333333333)
  );
#651 = VECTOR('',#652,1.);
#652 = DIRECTION('',(-0.934895402775,-0.354923352105,1.037942401777E-16)
  );
#653 = PLANE('',#654);
#654 = AXIS2_PLACEMENT_3D('',#655,#656,#657);
#655 = CARTESIAN_POINT('',(-7.,0.,19.133333333333));
#656 = DIRECTION('',(0.,0.,1.));
#657 = DIRECTION('',(1.,0.,0.));
#658 = ADVANCED_FACE('',(#659),#739,.F.);
#659 = FACE_BOUND('',#660,.F.);
#660 = EDGE_LOOP('',(#661,#669,#682,#736,#737,#738));
#661 = ORIENTED_EDGE('',*,*,#662,.T.);
#662 = EDGE_CURVE('',#368,#663,#665,.T.);
#663 = VERTEX_POINT('',#664);
#664 = CARTESIAN_POINT('',(11.077181526891,1.654100789041,
    19.133333333333));
#665 = LINE('',#666,#667);
#666 = CARTESIAN_POINT('',(9.447579297116,1.035439188746,19.133333333333
    ));
#667 = VECTOR('',#668,1.);
#668 = DIRECTION('',(-0.934895402775,-0.354923352105,1.037942401777E-16)
  );
#669 = ORIENTED_EDGE('',*,*,#670,.F.);
#670 = EDGE_CURVE('',#671,#663,#673,.T.);
#671 = VERTEX_POINT('',#672);
#672 = CARTESIAN_POINT('',(11.170105154533,0.817771873243,17.));
#673 = B_SPLINE_CURVE_WITH_KNOTS('',7,(#674,#675,#676,#677,#678,#679,
    #680,#681),.UNSPECIFIED.,.F.,.F.,(8,8),(0.,1.),
  .PIECEWISE_BEZIER_KNOTS.);
#674 = CARTESIAN_POINT('',(11.170105154533,0.817771873243,17.));
#675 = CARTESIAN_POINT('',(11.170105154533,0.817771873243,
    17.322549818411));
#676 = CARTESIAN_POINT('',(11.167215234176,0.857245838945,
    17.644552303315));
#677 = CARTESIAN_POINT('',(11.161452544423,0.935959652884,
    17.963271457851));
#678 = CARTESIAN_POINT('',(11.151908137511,1.054260258573,
    18.275767376779));
#679 = CARTESIAN_POINT('',(11.136790544242,1.212874081105,18.57848129136
    ));
#680 = CARTESIAN_POINT('',(11.113236628771,1.412646996656,
    18.866647748969));
#681 = CARTESIAN_POINT('',(11.077181526891,1.654100789041,
    19.133333333333));
#682 = ORIENTED_EDGE('',*,*,#683,.F.);
#683 = EDGE_CURVE('',#640,#671,#684,.T.);
#684 = B_SPLINE_CURVE_WITH_KNOTS('',8,(#685,#686,#687,#688,#689,#690,
    #691,#692,#693,#694,#695,#696,#697,#698,#699,#700,#701,#702,#703,
    #704,#705,#706,#707,#708,#709,#710,#711,#712,#713,#714,#715,#716,
    #717,#718,#719,#720,#721,#722,#723,#724,#725,#726,#727,#728,#729,
    #730,#731,#732,#733,#734,#735),.UNSPECIFIED.,.F.,.F.,(9,7,7,7,7,7,7,
    9),(0.,4.871276985808E-02,8.581901135657E-02,0.201009239996,
    0.381607313197,0.545538516669,0.739376657132,1.),.UNSPECIFIED.);
#685 = CARTESIAN_POINT('',(9.384098343725,6.113812090284,19.133333333333
    ));
#686 = CARTESIAN_POINT('',(9.356066288381,6.156838529473,19.077236591475
    ));
#687 = CARTESIAN_POINT('',(9.328834432867,6.198143794819,19.020222017499
    ));
#688 = CARTESIAN_POINT('',(9.302424877192,6.237757084146,18.96234928092)
  );
#689 = CARTESIAN_POINT('',(9.276857900497,6.275706438647,18.903674287828
    ));
#690 = CARTESIAN_POINT('',(9.252152033939,6.31201875941,18.844249199036)
  );
#691 = CARTESIAN_POINT('',(9.228324133577,6.346719823949,18.784122448226
    ));
#692 = CARTESIAN_POINT('',(9.205389453262,6.379834302735,18.723338760101
    ));
#693 = CARTESIAN_POINT('',(9.166582411303,6.435419649798,18.61516892575)
  );
#694 = CARTESIAN_POINT('',(9.150329698443,6.458546137069,18.568042273822
    ));
#695 = CARTESIAN_POINT('',(9.134609832924,6.480775333943,18.520577882377
    ));
#696 = CARTESIAN_POINT('',(9.119428727828,6.502116792866,18.472793766332
    ));
#697 = CARTESIAN_POINT('',(9.104791955342,6.522579522333,18.42470728589)
  );
#698 = CARTESIAN_POINT('',(9.09070474675,6.542171986884,18.37633514654)
  );
#699 = CARTESIAN_POINT('',(9.077171992437,6.560902107103,18.327693399058
    ));
#700 = CARTESIAN_POINT('',(9.023923365438,6.634267732992,18.127007968709
    ));
#701 = CARTESIAN_POINT('',(8.989029048991,6.68152859,17.972743831317));
#702 = CARTESIAN_POINT('',(8.95966096405,6.720767320005,17.816490025856)
  );
#703 = CARTESIAN_POINT('',(8.935931569996,6.752151554298,17.65868392532)
  );
#704 = CARTESIAN_POINT('',(8.917922724907,6.775808197896,17.499726307388
    ));
#705 = CARTESIAN_POINT('',(8.905688296368,6.791822561325,17.33999238464)
  );
#706 = CARTESIAN_POINT('',(8.899256772288,6.800237492407,17.179842834786
    ));
#707 = CARTESIAN_POINT('',(8.897657272868,6.802330309614,16.768456782539
    ));
#708 = CARTESIAN_POINT('',(8.91095917267,6.784925419655,16.517416166112)
  );
#709 = CARTESIAN_POINT('',(8.93850379878,6.748906776308,16.267780086546)
  );
#710 = CARTESIAN_POINT('',(8.980142145621,6.694036493919,16.020862610327
    ));
#711 = CARTESIAN_POINT('',(9.035594032907,6.619799934286,15.778110591402
    ));
#712 = CARTESIAN_POINT('',(9.104409239228,6.525423880576,15.541210043073
    ));
#713 = CARTESIAN_POINT('',(9.185911765952,6.409893547148,15.312222676399
    ));
#714 = CARTESIAN_POINT('',(9.363747849517,6.146792486829,14.895462853036
    ));
#715 = CARTESIAN_POINT('',(9.458593687123,6.00231147695,14.70448881702)
  );
#716 = CARTESIAN_POINT('',(9.562885236851,5.837604448044,14.523682436343
    ));
#717 = CARTESIAN_POINT('',(9.675413630734,5.651886184614,14.356202364196
    ));
#718 = CARTESIAN_POINT('',(9.794551309376,5.444565832664,14.205546355773
    ));
#719 = CARTESIAN_POINT('',(9.918262365987,5.215334585975,14.075598313931
    ));
#720 = CARTESIAN_POINT('',(10.044153174802,4.964336549482,
    13.970719024123));
#721 = CARTESIAN_POINT('',(10.317932520309,4.37099686533,13.807431277406
    ));
#722 = CARTESIAN_POINT('',(10.461146644865,4.030093291933,
    13.763675538586));
#723 = CARTESIAN_POINT('',(10.592942955429,3.678723281592,
    13.769632840925));
#724 = CARTESIAN_POINT('',(10.708507470478,3.327387713391,
    13.825995118131));
#725 = CARTESIAN_POINT('',(10.805486201481,2.98733050708,13.929458646846
    ));
#726 = CARTESIAN_POINT('',(10.884156156117,2.669607260286,
    14.072830919388));
#727 = CARTESIAN_POINT('',(10.946390074126,2.383393673644,
    14.244818607898));
#728 = CARTESIAN_POINT('',(11.059474053237,1.801047012454,
    14.678364794042));
#729 = CARTESIAN_POINT('',(11.102723034855,1.516374111349,
    14.964588391121));
#730 = CARTESIAN_POINT('',(11.130781871821,1.281445995015,15.27629035359
    ));
#731 = CARTESIAN_POINT('',(11.148704208045,1.095274588548,
    15.605380757449));
#732 = CARTESIAN_POINT('',(11.159943263728,0.956560814275,
    15.946085586449));
#733 = CARTESIAN_POINT('',(11.166704630983,0.864223184785,
    16.294188845744));
#734 = CARTESIAN_POINT('',(11.170105154533,0.817771873243,
    16.646482287391));
#735 = CARTESIAN_POINT('',(11.170105154533,0.817771873243,17.));
#736 = ORIENTED_EDGE('',*,*,#648,.F.);
#737 = ORIENTED_EDGE('',*,*,#389,.T.);
#738 = ORIENTED_EDGE('',*,*,#376,.T.);
#739 = CYLINDRICAL_SURFACE('',#740,3.2);
#740 = AXIS2_PLACEMENT_3D('',#741,#742,#743);
#741 = CARTESIAN_POINT('',(8.601037705533,3.265294839367,17.));
#742 = DIRECTION('',(-0.934895402775,-0.354923352105,1.037942401777E-16)
  );
#743 = DIRECTION('',(0.354923352105,-0.934895402775,1.110223024625E-16)
  );
#744 = ADVANCED_FACE('',(#745),#763,.F.);
#745 = FACE_BOUND('',#746,.T.);
#746 = EDGE_LOOP('',(#747,#748,#749,#757));
#747 = ORIENTED_EDGE('',*,*,#582,.F.);
#748 = ORIENTED_EDGE('',*,*,#471,.T.);
#749 = ORIENTED_EDGE('',*,*,#750,.T.);
#750 = EDGE_CURVE('',#472,#751,#753,.T.);
#751 = VERTEX_POINT('',#752);
#752 = CARTESIAN_POINT('',(-8.579697762933,7.199221228489,
    19.133333333333));
#753 = LINE('',#754,#755);
#754 = CARTESIAN_POINT('',(-3.385031235228,2.840378461003,
    19.133333333333));
#755 = VECTOR('',#756,1.);
#756 = DIRECTION('',(0.766044443119,-0.642787609687,1.700960357274E-16)
  );
#757 = ORIENTED_EDGE('',*,*,#758,.F.);
#758 = EDGE_CURVE('',#583,#751,#759,.T.);
#759 = LINE('',#760,#761);
#760 = CARTESIAN_POINT('',(-8.579697762933,7.199221228489,2.));
#761 = VECTOR('',#762,1.);
#762 = DIRECTION('',(-2.22044604925E-16,2.465190328816E-32,1.));
#763 = PLANE('',#764);
#764 = AXIS2_PLACEMENT_3D('',#765,#766,#767);
#765 = CARTESIAN_POINT('',(-10.87783109228,9.127584057549,2.));
#766 = DIRECTION('',(-0.642787609687,-0.766044443119,-1.427275208436E-16
    ));
#767 = DIRECTION('',(-0.766044443119,0.642787609687,-1.700960357274E-16)
  );
#768 = ADVANCED_FACE('',(#769),#788,.T.);
#769 = FACE_BOUND('',#770,.F.);
#770 = EDGE_LOOP('',(#771,#772,#773,#782));
#771 = ORIENTED_EDGE('',*,*,#479,.F.);
#772 = ORIENTED_EDGE('',*,*,#750,.T.);
#773 = ORIENTED_EDGE('',*,*,#774,.T.);
#774 = EDGE_CURVE('',#751,#775,#777,.T.);
#775 = VERTEX_POINT('',#776);
#776 = CARTESIAN_POINT('',(-9.384098343725,6.113812090284,
    19.133333333333));
#777 = CIRCLE('',#778,11.2);
#778 = AXIS2_PLACEMENT_3D('',#779,#780,#781);
#779 = CARTESIAN_POINT('',(-4.248453440899E-15,4.716730829134E-31,
    19.133333333333));
#780 = DIRECTION('',(-2.22044604925E-16,2.465190328816E-32,1.));
#781 = DIRECTION('',(-1.,2.22044604925E-16,-2.22044604925E-16));
#782 = ORIENTED_EDGE('',*,*,#783,.F.);
#783 = EDGE_CURVE('',#480,#775,#784,.T.);
#784 = LINE('',#785,#786);
#785 = CARTESIAN_POINT('',(-7.75449611395,5.495150489989,19.133333333333
    ));
#786 = VECTOR('',#787,1.);
#787 = DIRECTION('',(0.934895402775,-0.354923352105,3.113827205332E-16)
  );
#788 = PLANE('',#789);
#789 = AXIS2_PLACEMENT_3D('',#790,#791,#792);
#790 = CARTESIAN_POINT('',(7.,-1.554312234475E-15,19.133333333333));
#791 = DIRECTION('',(-2.22044604925E-16,2.465190328816E-32,1.));
#792 = DIRECTION('',(1.,-2.22044604925E-16,2.22044604925E-16));
#793 = ADVANCED_FACE('',(#794),#823,.T.);
#794 = FACE_BOUND('',#795,.T.);
#795 = EDGE_LOOP('',(#796,#797,#798,#799,#808,#817));
#796 = ORIENTED_EDGE('',*,*,#334,.T.);
#797 = ORIENTED_EDGE('',*,*,#367,.F.);
#798 = ORIENTED_EDGE('',*,*,#662,.T.);
#799 = ORIENTED_EDGE('',*,*,#800,.T.);
#800 = EDGE_CURVE('',#663,#801,#803,.T.);
#801 = VERTEX_POINT('',#802);
#802 = CARTESIAN_POINT('',(11.2,4.732754380553E-19,19.133333333333));
#803 = CIRCLE('',#804,11.2);
#804 = AXIS2_PLACEMENT_3D('',#805,#806,#807);
#805 = CARTESIAN_POINT('',(0.,0.,19.133333333333));
#806 = DIRECTION('',(0.,0.,-1.));
#807 = DIRECTION('',(1.,0.,0.));
#808 = ORIENTED_EDGE('',*,*,#809,.F.);
#809 = EDGE_CURVE('',#810,#801,#812,.T.);
#810 = VERTEX_POINT('',#811);
#811 = CARTESIAN_POINT('',(11.077181526891,-1.654100789041,
    19.133333333333));
#812 = CIRCLE('',#813,11.2);
#813 = AXIS2_PLACEMENT_3D('',#814,#815,#816);
#814 = CARTESIAN_POINT('',(0.,0.,19.133333333333));
#815 = DIRECTION('',(0.,0.,1.));
#816 = DIRECTION('',(1.,0.,0.));
#817 = ORIENTED_EDGE('',*,*,#818,.F.);
#818 = EDGE_CURVE('',#322,#810,#819,.T.);
#819 = LINE('',#820,#821);
#820 = CARTESIAN_POINT('',(9.447579297116,-1.035439188746,
    19.133333333333));
#821 = VECTOR('',#822,1.);
#822 = DIRECTION('',(-0.934895402775,0.354923352105,1.037942401777E-16)
  );
#823 = PLANE('',#824);
#824 = AXIS2_PLACEMENT_3D('',#825,#826,#827);
#825 = CARTESIAN_POINT('',(12.796058049197,-8.916965404558E-17,
    19.133333333333));
#826 = DIRECTION('',(0.,0.,1.));
#827 = DIRECTION('',(1.,0.,0.));
#828 = ADVANCED_FACE('',(#829,#833),#853,.F.);
#829 = FACE_BOUND('',#830,.F.);
#830 = EDGE_LOOP('',(#831,#832));
#831 = ORIENTED_EDGE('',*,*,#359,.T.);
#832 = ORIENTED_EDGE('',*,*,#350,.T.);
#833 = FACE_BOUND('',#834,.T.);
#834 = EDGE_LOOP('',(#835,#846));
#835 = ORIENTED_EDGE('',*,*,#836,.T.);
#836 = EDGE_CURVE('',#837,#839,#841,.T.);
#837 = VERTEX_POINT('',#838);
#838 = CARTESIAN_POINT('',(11.2,0.,0.));
#839 = VERTEX_POINT('',#840);
#840 = CARTESIAN_POINT('',(-11.2,2.48689957516E-15,-2.48689957516E-15));
#841 = CIRCLE('',#842,11.2);
#842 = AXIS2_PLACEMENT_3D('',#843,#844,#845);
#843 = CARTESIAN_POINT('',(0.,0.,0.));
#844 = DIRECTION('',(0.,0.,1.));
#845 = DIRECTION('',(1.,0.,0.));
#846 = ORIENTED_EDGE('',*,*,#847,.T.);
#847 = EDGE_CURVE('',#839,#837,#848,.T.);
#848 = CIRCLE('',#849,11.2);
#849 = AXIS2_PLACEMENT_3D('',#850,#851,#852);
#850 = CARTESIAN_POINT('',(0.,0.,0.));
#851 = DIRECTION('',(0.,0.,1.));
#852 = DIRECTION('',(1.,0.,0.));
#853 = PLANE('',#854);
#854 = AXIS2_PLACEMENT_3D('',#855,#856,#857);
#855 = CARTESIAN_POINT('',(-4.306898055242E-16,9.680040877274E-16,0.));
#856 = DIRECTION('',(0.,0.,1.));
#857 = DIRECTION('',(1.,0.,0.));
#858 = ADVANCED_FACE('',(#859),#895,.T.);
#859 = FACE_BOUND('',#860,.T.);
#860 = EDGE_LOOP('',(#861,#862,#870,#879,#888,#894));
#861 = ORIENTED_EDGE('',*,*,#566,.F.);
#862 = ORIENTED_EDGE('',*,*,#863,.T.);
#863 = EDGE_CURVE('',#194,#864,#866,.T.);
#864 = VERTEX_POINT('',#865);
#865 = CARTESIAN_POINT('',(-11.07718152689,-1.654100789041,
    19.133333333333));
#866 = LINE('',#867,#868);
#867 = CARTESIAN_POINT('',(-9.447579297116,-1.035439188746,
    19.133333333333));
#868 = VECTOR('',#869,1.);
#869 = DIRECTION('',(0.934895402775,0.354923352105,3.113827205332E-16));
#870 = ORIENTED_EDGE('',*,*,#871,.T.);
#871 = EDGE_CURVE('',#864,#872,#874,.T.);
#872 = VERTEX_POINT('',#873);
#873 = CARTESIAN_POINT('',(-11.2,2.487372850598E-15,19.133333333333));
#874 = CIRCLE('',#875,11.2);
#875 = AXIS2_PLACEMENT_3D('',#876,#877,#878);
#876 = CARTESIAN_POINT('',(-4.248453440899E-15,4.716730829134E-31,
    19.133333333333));
#877 = DIRECTION('',(2.22044604925E-16,-2.465190328816E-32,-1.));
#878 = DIRECTION('',(-1.,2.22044604925E-16,-2.22044604925E-16));
#879 = ORIENTED_EDGE('',*,*,#880,.F.);
#880 = EDGE_CURVE('',#881,#872,#883,.T.);
#881 = VERTEX_POINT('',#882);
#882 = CARTESIAN_POINT('',(-11.07718152689,1.654100789041,
    19.133333333333));
#883 = CIRCLE('',#884,11.2);
#884 = AXIS2_PLACEMENT_3D('',#885,#886,#887);
#885 = CARTESIAN_POINT('',(-4.248453440899E-15,4.716730829134E-31,
    19.133333333333));
#886 = DIRECTION('',(-2.22044604925E-16,2.465190328816E-32,1.));
#887 = DIRECTION('',(-1.,2.22044604925E-16,-2.22044604925E-16));
#888 = ORIENTED_EDGE('',*,*,#889,.F.);
#889 = EDGE_CURVE('',#545,#881,#890,.T.);
#890 = LINE('',#891,#892);
#891 = CARTESIAN_POINT('',(-9.447579297116,1.035439188746,
    19.133333333333));
#892 = VECTOR('',#893,1.);
#893 = DIRECTION('',(0.934895402775,-0.354923352105,3.113827205332E-16)
  );
#894 = ORIENTED_EDGE('',*,*,#557,.T.);
#895 = PLANE('',#896);
#896 = AXIS2_PLACEMENT_3D('',#897,#898,#899);
#897 = CARTESIAN_POINT('',(-12.79605804919,6.124989166753E-16,
    19.133333333333));
#898 = DIRECTION('',(0.,0.,1.));
#899 = DIRECTION('',(1.,0.,0.));
#900 = ADVANCED_FACE('',(#901),#974,.F.);
#901 = FACE_BOUND('',#902,.T.);
#902 = EDGE_LOOP('',(#903,#904,#905,#918,#972,#973));
#903 = ORIENTED_EDGE('',*,*,#321,.T.);
#904 = ORIENTED_EDGE('',*,*,#818,.T.);
#905 = ORIENTED_EDGE('',*,*,#906,.F.);
#906 = EDGE_CURVE('',#907,#810,#909,.T.);
#907 = VERTEX_POINT('',#908);
#908 = CARTESIAN_POINT('',(11.170105154533,-0.817771873243,17.));
#909 = B_SPLINE_CURVE_WITH_KNOTS('',7,(#910,#911,#912,#913,#914,#915,
    #916,#917),.UNSPECIFIED.,.F.,.F.,(8,8),(0.,1.),
  .PIECEWISE_BEZIER_KNOTS.);
#910 = CARTESIAN_POINT('',(11.170105154533,-0.817771873243,17.));
#911 = CARTESIAN_POINT('',(11.170105154533,-0.817771873243,
    17.322565644544));
#912 = CARTESIAN_POINT('',(11.167214950572,-0.857249712437,
    17.644583813341));
#913 = CARTESIAN_POINT('',(11.161451699052,-0.935971201276,
    17.963318175173));
#914 = CARTESIAN_POINT('',(11.151906271827,-1.054283370936,
    18.275828432577));
#915 = CARTESIAN_POINT('',(11.136786852991,-1.212912822478,
    18.578555253097));
#916 = CARTESIAN_POINT('',(11.113229719918,-1.412705604016,
    18.866732300077));
#917 = CARTESIAN_POINT('',(11.077169177516,-1.654183488215,
    19.133424671132));
#918 = ORIENTED_EDGE('',*,*,#919,.F.);
#919 = EDGE_CURVE('',#105,#907,#920,.T.);
#920 = B_SPLINE_CURVE_WITH_KNOTS('',8,(#921,#922,#923,#924,#925,#926,
    #927,#928,#929,#930,#931,#932,#933,#934,#935,#936,#937,#938,#939,
    #940,#941,#942,#943,#944,#945,#946,#947,#948,#949,#950,#951,#952,
    #953,#954,#955,#956,#957,#958,#959,#960,#961,#962,#963,#964,#965,
    #966,#967,#968,#969,#970,#971),.UNSPECIFIED.,.F.,.F.,(9,7,7,7,7,7,7,
    9),(0.,4.872220110805E-02,8.582807439919E-02,0.201017168189,
    0.381613449358,0.545543026179,0.739379243232,1.),.UNSPECIFIED.);
#921 = CARTESIAN_POINT('',(9.384143987519,-6.113742030992,
    19.133424671132));
#922 = CARTESIAN_POINT('',(9.356105086412,-6.156779680259,
    19.077317819655));
#923 = CARTESIAN_POINT('',(9.328866683886,-6.198095419321,
    19.020292689346));
#924 = CARTESIAN_POINT('',(9.302450895389,-6.237718464892,
    18.962408990298));
#925 = CARTESIAN_POINT('',(9.276878013907,-6.275676876171,
    18.903722665942));
#926 = CARTESIAN_POINT('',(9.252166582924,-6.311997571385,
    18.844285911221));
#927 = CARTESIAN_POINT('',(9.228333469386,-6.346706344331,
    18.784147190762));
#928 = CARTESIAN_POINT('',(9.205393936666,-6.379827880923,
    18.723351257035));
#929 = CARTESIAN_POINT('',(9.166582411303,-6.435419649798,18.61516892575
    ));
#930 = CARTESIAN_POINT('',(9.150329698443,-6.458546137069,
    18.568042273822));
#931 = CARTESIAN_POINT('',(9.134609832924,-6.480775333943,
    18.520577882377));
#932 = CARTESIAN_POINT('',(9.119428727828,-6.502116792866,
    18.472793766332));
#933 = CARTESIAN_POINT('',(9.104791955342,-6.522579522333,18.42470728589
    ));
#934 = CARTESIAN_POINT('',(9.09070474675,-6.542171986884,18.37633514654)
  );
#935 = CARTESIAN_POINT('',(9.077171992437,-6.560902107103,
    18.327693399058));
#936 = CARTESIAN_POINT('',(9.023923362574,-6.634267736937,
    18.127007957918));
#937 = CARTESIAN_POINT('',(8.989029049257,-6.68152858965,17.97274383786)
  );
#938 = CARTESIAN_POINT('',(8.959660966167,-6.720767317104,
    17.816490036903));
#939 = CARTESIAN_POINT('',(8.935931571171,-6.752151552679,
    17.658683925093));
#940 = CARTESIAN_POINT('',(8.917922724077,-6.775808199024,
    17.499726296093));
#941 = CARTESIAN_POINT('',(8.905688294933,-6.791822563288,
    17.339992378328));
#942 = CARTESIAN_POINT('',(8.899256772332,-6.80023749235,17.179842846129
    ));
#943 = CARTESIAN_POINT('',(8.897657272868,-6.802330309614,
    16.768456782539));
#944 = CARTESIAN_POINT('',(8.91095917267,-6.784925419655,16.517416166111
    ));
#945 = CARTESIAN_POINT('',(8.93850379878,-6.748906776308,16.267780086547
    ));
#946 = CARTESIAN_POINT('',(8.980142145621,-6.694036493919,
    16.020862610327));
#947 = CARTESIAN_POINT('',(9.035594032907,-6.619799934286,
    15.778110591402));
#948 = CARTESIAN_POINT('',(9.104409239228,-6.525423880576,
    15.541210043074));
#949 = CARTESIAN_POINT('',(9.185911765952,-6.409893547148,
    15.312222676399));
#950 = CARTESIAN_POINT('',(9.363747849517,-6.146792486829,
    14.895462853036));
#951 = CARTESIAN_POINT('',(9.458593687123,-6.00231147695,14.70448881702)
  );
#952 = CARTESIAN_POINT('',(9.562885236851,-5.837604448044,
    14.523682436343));
#953 = CARTESIAN_POINT('',(9.675413630734,-5.651886184614,
    14.356202364196));
#954 = CARTESIAN_POINT('',(9.794551309376,-5.444565832664,
    14.205546355773));
#955 = CARTESIAN_POINT('',(9.918262365987,-5.215334585975,
    14.075598313931));
#956 = CARTESIAN_POINT('',(10.044153174802,-4.964336549482,
    13.970719024123));
#957 = CARTESIAN_POINT('',(10.317932520309,-4.37099686533,
    13.807431277406));
#958 = CARTESIAN_POINT('',(10.461146644865,-4.030093291933,
    13.763675538586));
#959 = CARTESIAN_POINT('',(10.592942955428,-3.678723281592,
    13.769632840925));
#960 = CARTESIAN_POINT('',(10.708507470478,-3.327387713391,
    13.82599511813));
#961 = CARTESIAN_POINT('',(10.805486201481,-2.98733050708,
    13.929458646846));
#962 = CARTESIAN_POINT('',(10.884156156117,-2.669607260286,
    14.072830919388));
#963 = CARTESIAN_POINT('',(10.946390074126,-2.383393673644,
    14.244818607898));
#964 = CARTESIAN_POINT('',(11.059474053238,-1.80104701245,
    14.678364794045));
#965 = CARTESIAN_POINT('',(11.102723034853,-1.516374111363,
    14.964588391111));
#966 = CARTESIAN_POINT('',(11.130781871825,-1.281445994993,15.2762903536
    ));
#967 = CARTESIAN_POINT('',(11.148704208042,-1.095274588567,
    15.605380757453));
#968 = CARTESIAN_POINT('',(11.15994326373,-0.956560814266,
    15.946085586434));
#969 = CARTESIAN_POINT('',(11.166704630982,-0.864223184787,
    16.294188845757));
#970 = CARTESIAN_POINT('',(11.170105154533,-0.817771873243,
    16.646482287386));
#971 = CARTESIAN_POINT('',(11.170105154533,-0.817771873243,17.));
#972 = ORIENTED_EDGE('',*,*,#113,.F.);
#973 = ORIENTED_EDGE('',*,*,#265,.T.);
#974 = CYLINDRICAL_SURFACE('',#975,3.2);
#975 = AXIS2_PLACEMENT_3D('',#976,#977,#978);
#976 = CARTESIAN_POINT('',(8.601037705533,-3.265294839367,17.));
#977 = DIRECTION('',(-0.934895402775,0.354923352105,1.037942401777E-16)
  );
#978 = DIRECTION('',(0.354923352105,0.934895402775,1.110223024625E-16));
#979 = ADVANCED_FACE('',(#980),#1053,.F.);
#980 = FACE_BOUND('',#981,.T.);
#981 = EDGE_LOOP('',(#982,#983,#984,#997,#1051,#1052));
#982 = ORIENTED_EDGE('',*,*,#544,.T.);
#983 = ORIENTED_EDGE('',*,*,#889,.T.);
#984 = ORIENTED_EDGE('',*,*,#985,.F.);
#985 = EDGE_CURVE('',#986,#881,#988,.T.);
#986 = VERTEX_POINT('',#987);
#987 = CARTESIAN_POINT('',(-11.17010515453,0.817771873243,17.));
#988 = B_SPLINE_CURVE_WITH_KNOTS('',7,(#989,#990,#991,#992,#993,#994,
    #995,#996),.UNSPECIFIED.,.F.,.F.,(8,8),(0.,1.),
  .PIECEWISE_BEZIER_KNOTS.);
#989 = CARTESIAN_POINT('',(-11.17010515453,0.817771873243,17.));
#990 = CARTESIAN_POINT('',(-11.17010515453,0.817771873243,
    17.322565644544));
#991 = CARTESIAN_POINT('',(-11.16721495057,0.857249712437,
    17.644583813342));
#992 = CARTESIAN_POINT('',(-11.16145169905,0.935971201275,
    17.963318175172));
#993 = CARTESIAN_POINT('',(-11.15190627182,1.054283370936,
    18.275828432578));
#994 = CARTESIAN_POINT('',(-11.13678685299,1.212912822478,
    18.578555253097));
#995 = CARTESIAN_POINT('',(-11.11322971991,1.412705604016,
    18.866732300077));
#996 = CARTESIAN_POINT('',(-11.07716917751,1.654183488215,
    19.133424671132));
#997 = ORIENTED_EDGE('',*,*,#998,.F.);
#998 = EDGE_CURVE('',#775,#986,#999,.T.);
#999 = B_SPLINE_CURVE_WITH_KNOTS('',8,(#1000,#1001,#1002,#1003,#1004,
    #1005,#1006,#1007,#1008,#1009,#1010,#1011,#1012,#1013,#1014,#1015,
    #1016,#1017,#1018,#1019,#1020,#1021,#1022,#1023,#1024,#1025,#1026,
    #1027,#1028,#1029,#1030,#1031,#1032,#1033,#1034,#1035,#1036,#1037,
    #1038,#1039,#1040,#1041,#1042,#1043,#1044,#1045,#1046,#1047,#1048,
    #1049,#1050),.UNSPECIFIED.,.F.,.F.,(9,7,7,7,7,7,7,9),(0.,
    4.8722201108E-02,8.58280743991E-02,0.201017168189,0.381613449358,
    0.545543026178,0.739379243232,1.),.UNSPECIFIED.);
#1000 = CARTESIAN_POINT('',(-9.384143987519,6.113742030992,
    19.133424671132));
#1001 = CARTESIAN_POINT('',(-9.356105086412,6.156779680259,
    19.077317819655));
#1002 = CARTESIAN_POINT('',(-9.328866683886,6.198095419321,
    19.020292689346));
#1003 = CARTESIAN_POINT('',(-9.302450895389,6.237718464892,
    18.962408990298));
#1004 = CARTESIAN_POINT('',(-9.276878013907,6.275676876171,
    18.903722665941));
#1005 = CARTESIAN_POINT('',(-9.252166582924,6.311997571385,
    18.844285911221));
#1006 = CARTESIAN_POINT('',(-9.228333469386,6.346706344331,
    18.784147190762));
#1007 = CARTESIAN_POINT('',(-9.205393936666,6.379827880923,
    18.723351257035));
#1008 = CARTESIAN_POINT('',(-9.166582411303,6.435419649798,
    18.61516892575));
#1009 = CARTESIAN_POINT('',(-9.150329698443,6.458546137069,
    18.568042273822));
#1010 = CARTESIAN_POINT('',(-9.134609832924,6.480775333943,
    18.520577882377));
#1011 = CARTESIAN_POINT('',(-9.119428727828,6.502116792866,
    18.472793766332));
#1012 = CARTESIAN_POINT('',(-9.104791955342,6.522579522333,
    18.42470728589));
#1013 = CARTESIAN_POINT('',(-9.09070474675,6.542171986884,18.37633514654
    ));
#1014 = CARTESIAN_POINT('',(-9.077171992437,6.560902107103,
    18.327693399058));
#1015 = CARTESIAN_POINT('',(-9.023923362574,6.634267736937,
    18.127007957918));
#1016 = CARTESIAN_POINT('',(-8.989029049257,6.68152858965,17.97274383786
    ));
#1017 = CARTESIAN_POINT('',(-8.959660966167,6.720767317104,
    17.816490036903));
#1018 = CARTESIAN_POINT('',(-8.935931571171,6.752151552679,
    17.658683925093));
#1019 = CARTESIAN_POINT('',(-8.917922724077,6.775808199024,
    17.499726296092));
#1020 = CARTESIAN_POINT('',(-8.905688294933,6.791822563288,
    17.339992378328));
#1021 = CARTESIAN_POINT('',(-8.899256772332,6.80023749235,
    17.179842846129));
#1022 = CARTESIAN_POINT('',(-8.897657272868,6.802330309614,
    16.768456782539));
#1023 = CARTESIAN_POINT('',(-8.91095917267,6.784925419655,
    16.517416166111));
#1024 = CARTESIAN_POINT('',(-8.93850379878,6.748906776308,
    16.267780086546));
#1025 = CARTESIAN_POINT('',(-8.980142145621,6.694036493919,
    16.020862610328));
#1026 = CARTESIAN_POINT('',(-9.035594032907,6.619799934286,
    15.778110591402));
#1027 = CARTESIAN_POINT('',(-9.104409239228,6.525423880576,
    15.541210043074));
#1028 = CARTESIAN_POINT('',(-9.185911765952,6.409893547148,
    15.312222676399));
#1029 = CARTESIAN_POINT('',(-9.363747849517,6.146792486829,
    14.895462853036));
#1030 = CARTESIAN_POINT('',(-9.458593687123,6.002311476951,
    14.70448881702));
#1031 = CARTESIAN_POINT('',(-9.562885236851,5.837604448043,
    14.523682436343));
#1032 = CARTESIAN_POINT('',(-9.675413630734,5.651886184614,
    14.356202364196));
#1033 = CARTESIAN_POINT('',(-9.794551309376,5.444565832664,
    14.205546355773));
#1034 = CARTESIAN_POINT('',(-9.918262365987,5.215334585975,
    14.075598313931));
#1035 = CARTESIAN_POINT('',(-10.0441531748,4.964336549482,
    13.970719024123));
#1036 = CARTESIAN_POINT('',(-10.3179325203,4.37099686533,13.807431277405
    ));
#1037 = CARTESIAN_POINT('',(-10.46114664486,4.030093291935,
    13.763675538587));
#1038 = CARTESIAN_POINT('',(-10.59294295543,3.678723281588,
    13.769632840925));
#1039 = CARTESIAN_POINT('',(-10.70850747047,3.327387713396,
    13.82599511813));
#1040 = CARTESIAN_POINT('',(-10.80548620148,2.987330507076,
    13.929458646847));
#1041 = CARTESIAN_POINT('',(-10.88415615611,2.669607260288,
    14.072830919387));
#1042 = CARTESIAN_POINT('',(-10.94639007412,2.383393673643,
    14.244818607898));
#1043 = CARTESIAN_POINT('',(-11.05947405323,1.80104701245,
    14.678364794045));
#1044 = CARTESIAN_POINT('',(-11.10272303485,1.516374111363,
    14.964588391112));
#1045 = CARTESIAN_POINT('',(-11.13078187182,1.281445994993,
    15.276290353597));
#1046 = CARTESIAN_POINT('',(-11.14870420804,1.095274588566,
    15.605380757458));
#1047 = CARTESIAN_POINT('',(-11.15994326373,0.956560814267,
    15.946085586427));
#1048 = CARTESIAN_POINT('',(-11.16670463098,0.864223184786,
    16.294188845761));
#1049 = CARTESIAN_POINT('',(-11.17010515453,0.817771873243,
    16.646482287385));
#1050 = CARTESIAN_POINT('',(-11.17010515453,0.817771873243,17.));
#1051 = ORIENTED_EDGE('',*,*,#783,.F.);
#1052 = ORIENTED_EDGE('',*,*,#488,.T.);
#1053 = CYLINDRICAL_SURFACE('',#1054,3.2);
#1054 = AXIS2_PLACEMENT_3D('',#1055,#1056,#1057);
#1055 = CARTESIAN_POINT('',(-8.601037705533,3.265294839367,17.));
#1056 = DIRECTION('',(0.934895402775,-0.354923352105,3.113827205332E-16)
  );
#1057 = DIRECTION('',(-0.354923352105,-0.934895402775,3.221348696566E-17
    ));
#1058 = ADVANCED_FACE('',(#1059),#1156,.F.);
#1059 = FACE_BOUND('',#1060,.T.);
#1060 = EDGE_LOOP('',(#1061,#1062,#1075,#1129,#1130,#1131,#1132,#1133,
    #1134,#1135,#1136,#1137,#1142,#1143,#1144,#1145,#1146,#1147,#1148,
    #1149,#1150,#1151,#1152,#1153,#1154,#1155));
#1061 = ORIENTED_EDGE('',*,*,#871,.F.);
#1062 = ORIENTED_EDGE('',*,*,#1063,.F.);
#1063 = EDGE_CURVE('',#1064,#864,#1066,.T.);
#1064 = VERTEX_POINT('',#1065);
#1065 = CARTESIAN_POINT('',(-11.17010515453,-0.817771873243,17.));
#1066 = B_SPLINE_CURVE_WITH_KNOTS('',7,(#1067,#1068,#1069,#1070,#1071,
    #1072,#1073,#1074),.UNSPECIFIED.,.F.,.F.,(8,8),(0.,1.),
  .PIECEWISE_BEZIER_KNOTS.);
#1067 = CARTESIAN_POINT('',(-11.17010515453,-0.817771873243,17.));
#1068 = CARTESIAN_POINT('',(-11.17010515453,-0.817771873243,
    17.322565644544));
#1069 = CARTESIAN_POINT('',(-11.16721495057,-0.857249712437,
    17.644583813341));
#1070 = CARTESIAN_POINT('',(-11.16145169905,-0.935971201275,
    17.963318175173));
#1071 = CARTESIAN_POINT('',(-11.15190627182,-1.054283370936,
    18.275828432578));
#1072 = CARTESIAN_POINT('',(-11.13678685299,-1.212912822478,
    18.578555253097));
#1073 = CARTESIAN_POINT('',(-11.11322971991,-1.412705604016,
    18.866732300077));
#1074 = CARTESIAN_POINT('',(-11.07716917751,-1.654183488215,
    19.133424671132));
#1075 = ORIENTED_EDGE('',*,*,#1076,.F.);
#1076 = EDGE_CURVE('',#169,#1064,#1077,.T.);
#1077 = B_SPLINE_CURVE_WITH_KNOTS('',8,(#1078,#1079,#1080,#1081,#1082,
    #1083,#1084,#1085,#1086,#1087,#1088,#1089,#1090,#1091,#1092,#1093,
    #1094,#1095,#1096,#1097,#1098,#1099,#1100,#1101,#1102,#1103,#1104,
    #1105,#1106,#1107,#1108,#1109,#1110,#1111,#1112,#1113,#1114,#1115,
    #1116,#1117,#1118,#1119,#1120,#1121,#1122,#1123,#1124,#1125,#1126,
    #1127,#1128),.UNSPECIFIED.,.F.,.F.,(9,7,7,7,7,7,7,9),(0.,
    4.872220082878E-02,8.582807445948E-02,0.201017161114,0.381613443883,
    0.545543022156,0.739379240926,1.),.UNSPECIFIED.);
#1078 = CARTESIAN_POINT('',(-9.384143987519,-6.113742030992,
    19.133424671132));
#1079 = CARTESIAN_POINT('',(-9.356105085918,-6.156779681016,
    19.077317818667));
#1080 = CARTESIAN_POINT('',(-9.328866683689,-6.198095419612,
    19.020292688865));
#1081 = CARTESIAN_POINT('',(-9.302450895591,-6.23771846458,
    18.962408990674));
#1082 = CARTESIAN_POINT('',(-9.276878014261,-6.275676875643,
    18.903722666767));
#1083 = CARTESIAN_POINT('',(-9.252166583117,-6.311997571109,
    18.844285911769));
#1084 = CARTESIAN_POINT('',(-9.228333469253,-6.346706344536,
    18.784147190483));
#1085 = CARTESIAN_POINT('',(-9.205393936338,-6.379827881392,
    18.723351256121));
#1086 = CARTESIAN_POINT('',(-9.166582411303,-6.435419649798,
    18.61516892575));
#1087 = CARTESIAN_POINT('',(-9.150329698443,-6.458546137069,
    18.568042273822));
#1088 = CARTESIAN_POINT('',(-9.134609832924,-6.480775333943,
    18.520577882377));
#1089 = CARTESIAN_POINT('',(-9.119428727828,-6.502116792866,
    18.472793766332));
#1090 = CARTESIAN_POINT('',(-9.104791955342,-6.522579522333,
    18.42470728589));
#1091 = CARTESIAN_POINT('',(-9.09070474675,-6.542171986884,
    18.37633514654));
#1092 = CARTESIAN_POINT('',(-9.077171992437,-6.560902107103,
    18.327693399058));
#1093 = CARTESIAN_POINT('',(-9.023923365438,-6.634267732992,
    18.127007968709));
#1094 = CARTESIAN_POINT('',(-8.989029048991,-6.68152859,17.972743831317)
  );
#1095 = CARTESIAN_POINT('',(-8.95966096405,-6.720767320005,
    17.816490025856));
#1096 = CARTESIAN_POINT('',(-8.935931569996,-6.752151554298,
    17.65868392532));
#1097 = CARTESIAN_POINT('',(-8.917922724907,-6.775808197896,
    17.499726307387));
#1098 = CARTESIAN_POINT('',(-8.905688296368,-6.791822561325,
    17.33999238464));
#1099 = CARTESIAN_POINT('',(-8.899256772288,-6.800237492407,
    17.179842834787));
#1100 = CARTESIAN_POINT('',(-8.897657272868,-6.802330309614,
    16.768456782539));
#1101 = CARTESIAN_POINT('',(-8.91095917267,-6.784925419655,
    16.517416166111));
#1102 = CARTESIAN_POINT('',(-8.93850379878,-6.748906776308,
    16.267780086546));
#1103 = CARTESIAN_POINT('',(-8.980142145621,-6.694036493919,
    16.020862610327));
#1104 = CARTESIAN_POINT('',(-9.035594032907,-6.619799934286,
    15.778110591402));
#1105 = CARTESIAN_POINT('',(-9.104409239228,-6.525423880576,
    15.541210043074));
#1106 = CARTESIAN_POINT('',(-9.185911765952,-6.409893547148,
    15.312222676399));
#1107 = CARTESIAN_POINT('',(-9.363747849518,-6.146792486829,
    14.895462853036));
#1108 = CARTESIAN_POINT('',(-9.458593687123,-6.002311476951,
    14.704488817021));
#1109 = CARTESIAN_POINT('',(-9.562885236851,-5.837604448043,
    14.523682436343));
#1110 = CARTESIAN_POINT('',(-9.675413630734,-5.651886184614,
    14.356202364196));
#1111 = CARTESIAN_POINT('',(-9.794551309376,-5.444565832664,
    14.205546355773));
#1112 = CARTESIAN_POINT('',(-9.918262365987,-5.215334585975,
    14.075598313931));
#1113 = CARTESIAN_POINT('',(-10.0441531748,-4.964336549482,
    13.970719024123));
#1114 = CARTESIAN_POINT('',(-10.31793252031,-4.370996865329,
    13.807431277405));
#1115 = CARTESIAN_POINT('',(-10.46114664486,-4.030093291936,
    13.763675538587));
#1116 = CARTESIAN_POINT('',(-10.59294295543,-3.678723281586,
    13.769632840924));
#1117 = CARTESIAN_POINT('',(-10.70850747047,-3.327387713398,
    13.825995118131));
#1118 = CARTESIAN_POINT('',(-10.80548620148,-2.987330507075,
    13.929458646847));
#1119 = CARTESIAN_POINT('',(-10.88415615611,-2.669607260288,
    14.072830919387));
#1120 = CARTESIAN_POINT('',(-10.94639007412,-2.383393673643,
    14.244818607898));
#1121 = CARTESIAN_POINT('',(-11.05947405323,-1.801047012455,
    14.678364794041));
#1122 = CARTESIAN_POINT('',(-11.10272303485,-1.516374111347,
    14.964588391122));
#1123 = CARTESIAN_POINT('',(-11.13078187182,-1.281445995019,
    15.276290353587));
#1124 = CARTESIAN_POINT('',(-11.14870420804,-1.095274588543,
    15.605380757454));
#1125 = CARTESIAN_POINT('',(-11.15994326372,-0.956560814278,
    15.946085586446));
#1126 = CARTESIAN_POINT('',(-11.16670463098,-0.864223184784,
    16.294188845746));
#1127 = CARTESIAN_POINT('',(-11.17010515453,-0.817771873243,
    16.64648228739));
#1128 = CARTESIAN_POINT('',(-11.17010515453,-0.817771873243,17.));
#1129 = ORIENTED_EDGE('',*,*,#168,.F.);
#1130 = ORIENTED_EDGE('',*,*,#144,.F.);
#1131 = ORIENTED_EDGE('',*,*,#40,.F.);
#1132 = ORIENTED_EDGE('',*,*,#80,.T.);
#1133 = ORIENTED_EDGE('',*,*,#104,.T.);
#1134 = ORIENTED_EDGE('',*,*,#919,.T.);
#1135 = ORIENTED_EDGE('',*,*,#906,.T.);
#1136 = ORIENTED_EDGE('',*,*,#809,.T.);
#1137 = ORIENTED_EDGE('',*,*,#1138,.T.);
#1138 = EDGE_CURVE('',#801,#837,#1139,.T.);
#1139 = B_SPLINE_CURVE_WITH_KNOTS('',1,(#1140,#1141),.UNSPECIFIED.,.F.,
  .F.,(2,2),(-19.13333333333,0.),.PIECEWISE_BEZIER_KNOTS.);
#1140 = CARTESIAN_POINT('',(11.2,0.,19.133333333333));
#1141 = CARTESIAN_POINT('',(11.2,0.,0.));
#1142 = ORIENTED_EDGE('',*,*,#847,.F.);
#1143 = ORIENTED_EDGE('',*,*,#836,.F.);
#1144 = ORIENTED_EDGE('',*,*,#1138,.F.);
#1145 = ORIENTED_EDGE('',*,*,#800,.F.);
#1146 = ORIENTED_EDGE('',*,*,#670,.F.);
#1147 = ORIENTED_EDGE('',*,*,#683,.F.);
#1148 = ORIENTED_EDGE('',*,*,#639,.F.);
#1149 = ORIENTED_EDGE('',*,*,#623,.F.);
#1150 = ORIENTED_EDGE('',*,*,#590,.F.);
#1151 = ORIENTED_EDGE('',*,*,#758,.T.);
#1152 = ORIENTED_EDGE('',*,*,#774,.T.);
#1153 = ORIENTED_EDGE('',*,*,#998,.T.);
#1154 = ORIENTED_EDGE('',*,*,#985,.T.);
#1155 = ORIENTED_EDGE('',*,*,#880,.T.);
#1156 = CYLINDRICAL_SURFACE('',#1157,11.2);
#1157 = AXIS2_PLACEMENT_3D('',#1158,#1159,#1160);
#1158 = CARTESIAN_POINT('',(0.,0.,0.));
#1159 = DIRECTION('',(-0.,-0.,-1.));
#1160 = DIRECTION('',(1.,0.,0.));
#1161 = ADVANCED_FACE('',(#1162),#1170,.F.);
#1162 = FACE_BOUND('',#1163,.F.);
#1163 = EDGE_LOOP('',(#1164,#1165,#1166,#1167,#1168,#1169));
#1164 = ORIENTED_EDGE('',*,*,#863,.T.);
#1165 = ORIENTED_EDGE('',*,*,#1063,.F.);
#1166 = ORIENTED_EDGE('',*,*,#1076,.F.);
#1167 = ORIENTED_EDGE('',*,*,#177,.F.);
#1168 = ORIENTED_EDGE('',*,*,#206,.T.);
#1169 = ORIENTED_EDGE('',*,*,#191,.T.);
#1170 = CYLINDRICAL_SURFACE('',#1171,3.2);
#1171 = AXIS2_PLACEMENT_3D('',#1172,#1173,#1174);
#1172 = CARTESIAN_POINT('',(-8.601037705533,-3.265294839367,17.));
#1173 = DIRECTION('',(0.934895402775,0.354923352105,3.113827205332E-16)
  );
#1174 = DIRECTION('',(-0.354923352105,0.934895402775,3.221348696566E-17)
  );
#1175 = ( GEOMETRIC_REPRESENTATION_CONTEXT(3) 
GLOBAL_UNCERTAINTY_ASSIGNED_CONTEXT((#1179)) 
GLOBAL_UNIT_ASSIGNED_CONTEXT((#1176,#1177,#1178)) REPRESENTATION_CONTEXT
('Context #1','3D Context with UNIT and UNCERTAINTY') );
#1176 = ( LENGTH_UNIT() NAMED_UNIT(*) SI_UNIT(.MILLI.,.METRE.) );
#1177 = ( NAMED_UNIT(*) PLANE_ANGLE_UNIT() SI_UNIT($,.RADIAN.) );
#1178 = ( NAMED_UNIT(*) SI_UNIT($,.STERADIAN.) SOLID_ANGLE_UNIT() );
#1179 = UNCERTAINTY_MEASURE_WITH_UNIT(LENGTH_MEASURE(1.E-05),#1176,
  'distance_accuracy_value','confusion accuracy');
#1180 = PRODUCT_RELATED_PRODUCT_CATEGORY('part',$,(#7));
#1181 = MECHANICAL_DESIGN_GEOMETRIC_PRESENTATION_REPRESENTATION('',(
    #1182),#1175);
#1182 = STYLED_ITEM('color',(#1183),#15);
#1183 = PRESENTATION_STYLE_ASSIGNMENT((#1184,#1190));
#1184 = SURFACE_STYLE_USAGE(.BOTH.,#1185);
#1185 = SURFACE_SIDE_STYLE('',(#1186));
#1186 = SURFACE_STYLE_FILL_AREA(#1187);
#1187 = FILL_AREA_STYLE('',(#1188));
#1188 = FILL_AREA_STYLE_COLOUR('',#1189);
#1189 = COLOUR_RGB('',0.447058818107,0.474509808674,0.501960817233);
#1190 = CURVE_STYLE('',#1191,POSITIVE_LENGTH_MEASURE(0.1),#1192);
#1191 = DRAUGHTING_PRE_DEFINED_CURVE_FONT('continuous');
#1192 = COLOUR_RGB('',9.803921802644E-02,9.803921802644E-02,
  9.803921802644E-02);
ENDSEC;
END-ISO-10303-21;
