ISO-10303-21;
HEADER;
FILE_DESCRIPTION(('FreeCAD Model'),'2;1');
FILE_NAME('Open CASCADE Shape Model','2026-02-05T18:08:33',(''),(''),
  'Open CASCADE STEP processor 7.8','FreeCAD','Unknown');
FILE_SCHEMA(('AUTOMOTIVE_DESIGN { 1 0 10303 214 1 1 1 1 }'));
ENDSEC;
DATA;
#1 = APPLICATION_PROTOCOL_DEFINITION('international standard',
  'automotive_design',2000,#2);
#2 = APPLICATION_CONTEXT(
  'core data for automotive mechanical design processes');
#3 = SHAPE_DEFINITION_REPRESENTATION(#4,#10);
#4 = PRODUCT_DEFINITION_SHAPE('','',#5);
#5 = PRODUCT_DEFINITION('design','',#6,#9);
#6 = PRODUCT_DEFINITION_FORMATION('','',#7);
#7 = PRODUCT('design6-attachment','design6-attachment','',(#8));
#8 = PRODUCT_CONTEXT('',#2,'mechanical');
#9 = PRODUCT_DEFINITION_CONTEXT('part definition',#2,'design');
#10 = ADVANCED_BREP_SHAPE_REPRESENTATION('',(#11,#15),#961);
#11 = AXIS2_PLACEMENT_3D('',#12,#13,#14);
#12 = CARTESIAN_POINT('',(0.,0.,0.));
#13 = DIRECTION('',(0.,0.,1.));
#14 = DIRECTION('',(1.,0.,-0.));
#15 = MANIFOLD_SOLID_BREP('',#16);
#16 = CLOSED_SHELL('',(#17,#57,#88,#169,#191,#222,#246,#277,#301,#325,
    #343,#379,#410,#441,#472,#503,#534,#565,#596,#668,#699,#771,#802,
    #824,#841,#858,#875,#887,#918,#949));
#17 = ADVANCED_FACE('',(#18),#52,.T.);
#18 = FACE_BOUND('',#19,.F.);
#19 = EDGE_LOOP('',(#20,#30,#38,#46));
#20 = ORIENTED_EDGE('',*,*,#21,.F.);
#21 = EDGE_CURVE('',#22,#24,#26,.T.);
#22 = VERTEX_POINT('',#23);
#23 = CARTESIAN_POINT('',(10.5,-1.8,10.6));
#24 = VERTEX_POINT('',#25);
#25 = CARTESIAN_POINT('',(8.5,-1.8,12.6));
#26 = LINE('',#27,#28);
#27 = CARTESIAN_POINT('',(11.570055780933,-1.8,9.529944219067));
#28 = VECTOR('',#29,1.);
#29 = DIRECTION('',(-0.707106781187,1.09418821126E-15,0.707106781187));
#30 = ORIENTED_EDGE('',*,*,#31,.T.);
#31 = EDGE_CURVE('',#22,#32,#34,.T.);
#32 = VERTEX_POINT('',#33);
#33 = CARTESIAN_POINT('',(10.5,1.8,10.6));
#34 = LINE('',#35,#36);
#35 = CARTESIAN_POINT('',(10.5,-1.8,10.6));
#36 = VECTOR('',#37,1.);
#37 = DIRECTION('',(1.33226762955E-15,1.,0.));
#38 = ORIENTED_EDGE('',*,*,#39,.T.);
#39 = EDGE_CURVE('',#32,#40,#42,.T.);
#40 = VERTEX_POINT('',#41);
#41 = CARTESIAN_POINT('',(8.5,1.8,12.6));
#42 = LINE('',#43,#44);
#43 = CARTESIAN_POINT('',(11.570055780933,1.8,9.529944219067));
#44 = VECTOR('',#45,1.);
#45 = DIRECTION('',(-0.707106781187,1.119090592701E-15,0.707106781187));
#46 = ORIENTED_EDGE('',*,*,#47,.F.);
#47 = EDGE_CURVE('',#24,#40,#48,.T.);
#48 = LINE('',#49,#50);
#49 = CARTESIAN_POINT('',(8.5,-1.8,12.6));
#50 = VECTOR('',#51,1.);
#51 = DIRECTION('',(1.33226762955E-15,1.,0.));
#52 = PLANE('',#53);
#53 = AXIS2_PLACEMENT_3D('',#54,#55,#56);
#54 = CARTESIAN_POINT('',(9.5,-1.8,11.6));
#55 = DIRECTION('',(-0.707106781187,9.197517379476E-16,-0.707106781187)
  );
#56 = DIRECTION('',(-1.316496505686E-15,-1.,1.577112386425E-17));
#57 = ADVANCED_FACE('',(#58),#83,.F.);
#58 = FACE_BOUND('',#59,.F.);
#59 = EDGE_LOOP('',(#60,#68,#69,#77));
#60 = ORIENTED_EDGE('',*,*,#61,.F.);
#61 = EDGE_CURVE('',#32,#62,#64,.T.);
#62 = VERTEX_POINT('',#63);
#63 = CARTESIAN_POINT('',(10.5,1.8,-4.4));
#64 = LINE('',#65,#66);
#65 = CARTESIAN_POINT('',(10.5,1.8,12.6));
#66 = VECTOR('',#67,1.);
#67 = DIRECTION('',(0.,0.,-1.));
#68 = ORIENTED_EDGE('',*,*,#31,.F.);
#69 = ORIENTED_EDGE('',*,*,#70,.T.);
#70 = EDGE_CURVE('',#22,#71,#73,.T.);
#71 = VERTEX_POINT('',#72);
#72 = CARTESIAN_POINT('',(10.5,-1.8,-4.4));
#73 = LINE('',#74,#75);
#74 = CARTESIAN_POINT('',(10.5,-1.8,12.6));
#75 = VECTOR('',#76,1.);
#76 = DIRECTION('',(0.,0.,-1.));
#77 = ORIENTED_EDGE('',*,*,#78,.T.);
#78 = EDGE_CURVE('',#71,#62,#79,.T.);
#79 = LINE('',#80,#81);
#80 = CARTESIAN_POINT('',(10.5,-1.8,-4.4));
#81 = VECTOR('',#82,1.);
#82 = DIRECTION('',(8.881784197001E-16,1.,0.));
#83 = PLANE('',#84);
#84 = AXIS2_PLACEMENT_3D('',#85,#86,#87);
#85 = CARTESIAN_POINT('',(10.5,-1.8,12.6));
#86 = DIRECTION('',(1.,-1.33226762955E-15,0.));
#87 = DIRECTION('',(1.33226762955E-15,1.,0.));
#88 = ADVANCED_FACE('',(#89),#164,.T.);
#89 = FACE_BOUND('',#90,.T.);
#90 = EDGE_LOOP('',(#91,#101,#109,#117,#125,#134,#142,#150,#158));
#91 = ORIENTED_EDGE('',*,*,#92,.T.);
#92 = EDGE_CURVE('',#93,#95,#97,.T.);
#93 = VERTEX_POINT('',#94);
#94 = CARTESIAN_POINT('',(8.5,1.8,-6.4));
#95 = VERTEX_POINT('',#96);
#96 = CARTESIAN_POINT('',(3.999999999988,1.8,-6.4));
#97 = LINE('',#98,#99);
#98 = CARTESIAN_POINT('',(10.5,1.8,-6.4));
#99 = VECTOR('',#100,1.);
#100 = DIRECTION('',(-1.,8.881784197001E-16,0.));
#101 = ORIENTED_EDGE('',*,*,#102,.T.);
#102 = EDGE_CURVE('',#95,#103,#105,.T.);
#103 = VERTEX_POINT('',#104);
#104 = CARTESIAN_POINT('',(3.999999999988,5.8,-6.4));
#105 = LINE('',#106,#107);
#106 = CARTESIAN_POINT('',(3.999999999988,1.8,-6.4));
#107 = VECTOR('',#108,1.);
#108 = DIRECTION('',(1.582633093722E-15,1.,-2.22044604925E-16));
#109 = ORIENTED_EDGE('',*,*,#110,.F.);
#110 = EDGE_CURVE('',#111,#103,#113,.T.);
#111 = VERTEX_POINT('',#112);
#112 = CARTESIAN_POINT('',(1.999999999988,5.8,-6.4));
#113 = LINE('',#114,#115);
#114 = CARTESIAN_POINT('',(1.999999999988,5.8,-6.4));
#115 = VECTOR('',#116,1.);
#116 = DIRECTION('',(1.,-1.582633093722E-15,9.860761315263E-32));
#117 = ORIENTED_EDGE('',*,*,#118,.F.);
#118 = EDGE_CURVE('',#119,#111,#121,.T.);
#119 = VERTEX_POINT('',#120);
#120 = CARTESIAN_POINT('',(1.999999999988,3.3,-6.4));
#121 = LINE('',#122,#123);
#122 = CARTESIAN_POINT('',(1.999999999988,1.8,-6.4));
#123 = VECTOR('',#124,1.);
#124 = DIRECTION('',(1.582633093722E-15,1.,-2.22044604925E-16));
#125 = ORIENTED_EDGE('',*,*,#126,.F.);
#126 = EDGE_CURVE('',#127,#119,#129,.T.);
#127 = VERTEX_POINT('',#128);
#128 = CARTESIAN_POINT('',(0.499999999988,1.8,-6.4));
#129 = CIRCLE('',#130,1.5);
#130 = AXIS2_PLACEMENT_3D('',#131,#132,#133);
#131 = CARTESIAN_POINT('',(0.499999999988,3.3,-6.4));
#132 = DIRECTION('',(2.528075268842E-31,2.22044604925E-16,1.));
#133 = DIRECTION('',(-4.440892098501E-16,-1.,2.22044604925E-16));
#134 = ORIENTED_EDGE('',*,*,#135,.T.);
#135 = EDGE_CURVE('',#127,#136,#138,.T.);
#136 = VERTEX_POINT('',#137);
#137 = CARTESIAN_POINT('',(3.37507799486E-15,1.8,-6.4));
#138 = LINE('',#139,#140);
#139 = CARTESIAN_POINT('',(10.5,1.8,-6.4));
#140 = VECTOR('',#141,1.);
#141 = DIRECTION('',(-1.,8.881784197001E-16,0.));
#142 = ORIENTED_EDGE('',*,*,#143,.T.);
#143 = EDGE_CURVE('',#136,#144,#146,.T.);
#144 = VERTEX_POINT('',#145);
#145 = CARTESIAN_POINT('',(-1.59872115546E-15,-1.8,-6.4));
#146 = LINE('',#147,#148);
#147 = CARTESIAN_POINT('',(-4.440892098501E-16,-0.9,-6.4));
#148 = VECTOR('',#149,1.);
#149 = DIRECTION('',(-9.992007221626E-16,-1.,-0.));
#150 = ORIENTED_EDGE('',*,*,#151,.F.);
#151 = EDGE_CURVE('',#152,#144,#154,.T.);
#152 = VERTEX_POINT('',#153);
#153 = CARTESIAN_POINT('',(8.5,-1.8,-6.4));
#154 = LINE('',#155,#156);
#155 = CARTESIAN_POINT('',(10.5,-1.8,-6.4));
#156 = VECTOR('',#157,1.);
#157 = DIRECTION('',(-1.,8.881784197001E-16,0.));
#158 = ORIENTED_EDGE('',*,*,#159,.T.);
#159 = EDGE_CURVE('',#152,#93,#160,.T.);
#160 = LINE('',#161,#162);
#161 = CARTESIAN_POINT('',(8.5,-1.8,-6.4));
#162 = VECTOR('',#163,1.);
#163 = DIRECTION('',(8.881784197001E-16,1.,0.));
#164 = PLANE('',#165);
#165 = AXIS2_PLACEMENT_3D('',#166,#167,#168);
#166 = CARTESIAN_POINT('',(4.752762430937,1.060773480663,-6.4));
#167 = DIRECTION('',(2.282181546508E-31,5.139015981222E-16,1.));
#168 = DIRECTION('',(4.440892098501E-16,1.,-5.139015981222E-16));
#169 = ADVANCED_FACE('',(#170),#186,.T.);
#170 = FACE_BOUND('',#171,.F.);
#171 = EDGE_LOOP('',(#172,#178,#179,#185));
#172 = ORIENTED_EDGE('',*,*,#173,.F.);
#173 = EDGE_CURVE('',#152,#71,#174,.T.);
#174 = LINE('',#175,#176);
#175 = CARTESIAN_POINT('',(11.398149087221,-1.8,-3.501850912779));
#176 = VECTOR('',#177,1.);
#177 = DIRECTION('',(0.707106781187,-1.09418821126E-15,0.707106781187));
#178 = ORIENTED_EDGE('',*,*,#159,.T.);
#179 = ORIENTED_EDGE('',*,*,#180,.T.);
#180 = EDGE_CURVE('',#93,#62,#181,.T.);
#181 = LINE('',#182,#183);
#182 = CARTESIAN_POINT('',(11.398149087221,1.8,-3.501850912779));
#183 = VECTOR('',#184,1.);
#184 = DIRECTION('',(0.707106781187,-1.119090592701E-15,0.707106781187)
  );
#185 = ORIENTED_EDGE('',*,*,#78,.F.);
#186 = PLANE('',#187);
#187 = AXIS2_PLACEMENT_3D('',#188,#189,#190);
#188 = CARTESIAN_POINT('',(9.5,-1.8,-5.4));
#189 = DIRECTION('',(-0.707106781187,1.323573902088E-15,0.707106781187)
  );
#190 = DIRECTION('',(-1.379997291418E-15,-1.,4.91818871718E-16));
#191 = ADVANCED_FACE('',(#192),#217,.F.);
#192 = FACE_BOUND('',#193,.F.);
#193 = EDGE_LOOP('',(#194,#195,#203,#211));
#194 = ORIENTED_EDGE('',*,*,#102,.T.);
#195 = ORIENTED_EDGE('',*,*,#196,.T.);
#196 = EDGE_CURVE('',#103,#197,#199,.T.);
#197 = VERTEX_POINT('',#198);
#198 = CARTESIAN_POINT('',(3.999999999988,5.8,-10.));
#199 = LINE('',#200,#201);
#200 = CARTESIAN_POINT('',(3.999999999988,5.8,-6.4));
#201 = VECTOR('',#202,1.);
#202 = DIRECTION('',(-2.528075268842E-31,-2.22044604925E-16,-1.));
#203 = ORIENTED_EDGE('',*,*,#204,.F.);
#204 = EDGE_CURVE('',#205,#197,#207,.T.);
#205 = VERTEX_POINT('',#206);
#206 = CARTESIAN_POINT('',(3.999999999988,1.8,-10.));
#207 = LINE('',#208,#209);
#208 = CARTESIAN_POINT('',(3.999999999988,1.8,-10.));
#209 = VECTOR('',#210,1.);
#210 = DIRECTION('',(1.582633093722E-15,1.,-2.22044604925E-16));
#211 = ORIENTED_EDGE('',*,*,#212,.F.);
#212 = EDGE_CURVE('',#95,#205,#213,.T.);
#213 = LINE('',#214,#215);
#214 = CARTESIAN_POINT('',(3.999999999988,1.8,-6.4));
#215 = VECTOR('',#216,1.);
#216 = DIRECTION('',(-2.528075268842E-31,-2.22044604925E-16,-1.));
#217 = PLANE('',#218);
#218 = AXIS2_PLACEMENT_3D('',#219,#220,#221);
#219 = CARTESIAN_POINT('',(3.999999999988,1.8,-6.4));
#220 = DIRECTION('',(-1.,1.582633093722E-15,-9.860761315263E-32));
#221 = DIRECTION('',(-2.528075268842E-31,-2.22044604925E-16,-1.));
#222 = ADVANCED_FACE('',(#223),#241,.T.);
#223 = FACE_BOUND('',#224,.T.);
#224 = EDGE_LOOP('',(#225,#226,#234,#240));
#225 = ORIENTED_EDGE('',*,*,#196,.T.);
#226 = ORIENTED_EDGE('',*,*,#227,.T.);
#227 = EDGE_CURVE('',#197,#228,#230,.T.);
#228 = VERTEX_POINT('',#229);
#229 = CARTESIAN_POINT('',(1.999999999988,5.8,-10.));
#230 = LINE('',#231,#232);
#231 = CARTESIAN_POINT('',(3.999999999988,5.8,-10.));
#232 = VECTOR('',#233,1.);
#233 = DIRECTION('',(-1.,1.582633093722E-15,-9.860761315263E-32));
#234 = ORIENTED_EDGE('',*,*,#235,.T.);
#235 = EDGE_CURVE('',#228,#111,#236,.T.);
#236 = LINE('',#237,#238);
#237 = CARTESIAN_POINT('',(1.999999999988,5.8,-10.));
#238 = VECTOR('',#239,1.);
#239 = DIRECTION('',(2.528075268842E-31,2.22044604925E-16,1.));
#240 = ORIENTED_EDGE('',*,*,#110,.T.);
#241 = PLANE('',#242);
#242 = AXIS2_PLACEMENT_3D('',#243,#244,#245);
#243 = CARTESIAN_POINT('',(2.999999999988,5.8,-8.2));
#244 = DIRECTION('',(1.609823385706E-15,1.,0.));
#245 = DIRECTION('',(1.,-1.609823385706E-15,0.));
#246 = ADVANCED_FACE('',(#247),#272,.F.);
#247 = FACE_BOUND('',#248,.F.);
#248 = EDGE_LOOP('',(#249,#257,#265,#271));
#249 = ORIENTED_EDGE('',*,*,#250,.T.);
#250 = EDGE_CURVE('',#144,#251,#253,.T.);
#251 = VERTEX_POINT('',#252);
#252 = CARTESIAN_POINT('',(1.7763568394E-16,-1.8,-10.));
#253 = LINE('',#254,#255);
#254 = CARTESIAN_POINT('',(-8.104628079764E-16,-1.8,-5.));
#255 = VECTOR('',#256,1.);
#256 = DIRECTION('',(1.110223024625E-16,-9.860761315263E-32,-1.));
#257 = ORIENTED_EDGE('',*,*,#258,.T.);
#258 = EDGE_CURVE('',#251,#259,#261,.T.);
#259 = VERTEX_POINT('',#260);
#260 = CARTESIAN_POINT('',(3.37507799486E-15,1.8,-10.));
#261 = LINE('',#262,#263);
#262 = CARTESIAN_POINT('',(2.242650509743E-15,0.9,-10.));
#263 = VECTOR('',#264,1.);
#264 = DIRECTION('',(9.992007221626E-16,1.,0.));
#265 = ORIENTED_EDGE('',*,*,#266,.T.);
#266 = EDGE_CURVE('',#259,#136,#267,.T.);
#267 = LINE('',#268,#269);
#268 = CARTESIAN_POINT('',(1.698641227676E-15,1.8,-3.2));
#269 = VECTOR('',#270,1.);
#270 = DIRECTION('',(-1.110223024625E-16,9.860761315263E-32,1.));
#271 = ORIENTED_EDGE('',*,*,#143,.T.);
#272 = PLANE('',#273);
#273 = AXIS2_PLACEMENT_3D('',#274,#275,#276);
#274 = CARTESIAN_POINT('',(0.,0.,0.));
#275 = DIRECTION('',(1.,-9.992007221626E-16,1.110223024625E-16));
#276 = DIRECTION('',(-1.110223024625E-16,9.860761315263E-32,1.));
#277 = ADVANCED_FACE('',(#278),#296,.F.);
#278 = FACE_BOUND('',#279,.F.);
#279 = EDGE_LOOP('',(#280,#288,#289,#290));
#280 = ORIENTED_EDGE('',*,*,#281,.T.);
#281 = EDGE_CURVE('',#282,#228,#284,.T.);
#282 = VERTEX_POINT('',#283);
#283 = CARTESIAN_POINT('',(1.999999999988,3.3,-10.));
#284 = LINE('',#285,#286);
#285 = CARTESIAN_POINT('',(1.999999999988,1.8,-10.));
#286 = VECTOR('',#287,1.);
#287 = DIRECTION('',(1.582633093722E-15,1.,-2.22044604925E-16));
#288 = ORIENTED_EDGE('',*,*,#235,.T.);
#289 = ORIENTED_EDGE('',*,*,#118,.F.);
#290 = ORIENTED_EDGE('',*,*,#291,.F.);
#291 = EDGE_CURVE('',#282,#119,#292,.T.);
#292 = LINE('',#293,#294);
#293 = CARTESIAN_POINT('',(1.999999999988,3.3,-10.));
#294 = VECTOR('',#295,1.);
#295 = DIRECTION('',(2.528075268842E-31,2.22044604925E-16,1.));
#296 = PLANE('',#297);
#297 = AXIS2_PLACEMENT_3D('',#298,#299,#300);
#298 = CARTESIAN_POINT('',(1.999999999988,1.8,-10.));
#299 = DIRECTION('',(1.,-1.582633093722E-15,9.860761315263E-32));
#300 = DIRECTION('',(2.528075268842E-31,2.22044604925E-16,1.));
#301 = ADVANCED_FACE('',(#302),#320,.T.);
#302 = FACE_BOUND('',#303,.T.);
#303 = EDGE_LOOP('',(#304,#305,#313,#319));
#304 = ORIENTED_EDGE('',*,*,#135,.F.);
#305 = ORIENTED_EDGE('',*,*,#306,.F.);
#306 = EDGE_CURVE('',#307,#127,#309,.T.);
#307 = VERTEX_POINT('',#308);
#308 = CARTESIAN_POINT('',(0.499999999988,1.8,-10.));
#309 = LINE('',#310,#311);
#310 = CARTESIAN_POINT('',(0.499999999988,1.8,-10.));
#311 = VECTOR('',#312,1.);
#312 = DIRECTION('',(2.528075268842E-31,2.22044604925E-16,1.));
#313 = ORIENTED_EDGE('',*,*,#314,.T.);
#314 = EDGE_CURVE('',#307,#259,#315,.T.);
#315 = LINE('',#316,#317);
#316 = CARTESIAN_POINT('',(5.25,1.8,-10.));
#317 = VECTOR('',#318,1.);
#318 = DIRECTION('',(-1.,1.33226762955E-15,0.));
#319 = ORIENTED_EDGE('',*,*,#266,.T.);
#320 = PLANE('',#321);
#321 = AXIS2_PLACEMENT_3D('',#322,#323,#324);
#322 = CARTESIAN_POINT('',(8.936409736308,1.8,2.756186612576));
#323 = DIRECTION('',(1.582633093722E-15,1.,0.));
#324 = DIRECTION('',(1.,-1.582633093722E-15,0.));
#325 = ADVANCED_FACE('',(#326),#338,.F.);
#326 = FACE_BOUND('',#327,.F.);
#327 = EDGE_LOOP('',(#328,#335,#336,#337));
#328 = ORIENTED_EDGE('',*,*,#329,.T.);
#329 = EDGE_CURVE('',#307,#282,#330,.T.);
#330 = CIRCLE('',#331,1.5);
#331 = AXIS2_PLACEMENT_3D('',#332,#333,#334);
#332 = CARTESIAN_POINT('',(0.499999999988,3.3,-10.));
#333 = DIRECTION('',(2.528075268842E-31,2.22044604925E-16,1.));
#334 = DIRECTION('',(-4.440892098501E-16,-1.,2.22044604925E-16));
#335 = ORIENTED_EDGE('',*,*,#291,.T.);
#336 = ORIENTED_EDGE('',*,*,#126,.F.);
#337 = ORIENTED_EDGE('',*,*,#306,.F.);
#338 = CYLINDRICAL_SURFACE('',#339,1.5);
#339 = AXIS2_PLACEMENT_3D('',#340,#341,#342);
#340 = CARTESIAN_POINT('',(0.499999999988,3.3,-10.));
#341 = DIRECTION('',(2.528075268842E-31,2.22044604925E-16,1.));
#342 = DIRECTION('',(-1.582633093722E-15,-1.,2.22044604925E-16));
#343 = ADVANCED_FACE('',(#344),#374,.T.);
#344 = FACE_BOUND('',#345,.T.);
#345 = EDGE_LOOP('',(#346,#354,#355,#356,#357,#358,#359,#360,#368));
#346 = ORIENTED_EDGE('',*,*,#347,.T.);
#347 = EDGE_CURVE('',#348,#251,#350,.T.);
#348 = VERTEX_POINT('',#349);
#349 = CARTESIAN_POINT('',(12.1,-1.8,-10.));
#350 = LINE('',#351,#352);
#351 = CARTESIAN_POINT('',(10.5,-1.8,-10.));
#352 = VECTOR('',#353,1.);
#353 = DIRECTION('',(-1.,8.881784197001E-16,0.));
#354 = ORIENTED_EDGE('',*,*,#258,.T.);
#355 = ORIENTED_EDGE('',*,*,#314,.F.);
#356 = ORIENTED_EDGE('',*,*,#329,.T.);
#357 = ORIENTED_EDGE('',*,*,#281,.T.);
#358 = ORIENTED_EDGE('',*,*,#227,.F.);
#359 = ORIENTED_EDGE('',*,*,#204,.F.);
#360 = ORIENTED_EDGE('',*,*,#361,.F.);
#361 = EDGE_CURVE('',#362,#205,#364,.T.);
#362 = VERTEX_POINT('',#363);
#363 = CARTESIAN_POINT('',(12.1,1.8,-10.));
#364 = LINE('',#365,#366);
#365 = CARTESIAN_POINT('',(5.25,1.8,-10.));
#366 = VECTOR('',#367,1.);
#367 = DIRECTION('',(-1.,1.33226762955E-15,0.));
#368 = ORIENTED_EDGE('',*,*,#369,.F.);
#369 = EDGE_CURVE('',#348,#362,#370,.T.);
#370 = LINE('',#371,#372);
#371 = CARTESIAN_POINT('',(12.1,-1.8,-10.));
#372 = VECTOR('',#373,1.);
#373 = DIRECTION('',(1.33226762955E-15,1.,0.));
#374 = PLANE('',#375);
#375 = AXIS2_PLACEMENT_3D('',#376,#377,#378);
#376 = CARTESIAN_POINT('',(6.303456221196,0.884792626728,-10.));
#377 = DIRECTION('',(-1.114991725547E-31,-2.510738159847E-16,-1.));
#378 = DIRECTION('',(-4.440892098501E-16,-1.,2.510738159847E-16));
#379 = ADVANCED_FACE('',(#380),#405,.T.);
#380 = FACE_BOUND('',#381,.T.);
#381 = EDGE_LOOP('',(#382,#390,#391,#399));
#382 = ORIENTED_EDGE('',*,*,#383,.F.);
#383 = EDGE_CURVE('',#348,#384,#386,.T.);
#384 = VERTEX_POINT('',#385);
#385 = CARTESIAN_POINT('',(14.1,-1.8,-8.));
#386 = LINE('',#387,#388);
#387 = CARTESIAN_POINT('',(14.998149087221,-1.8,-7.101850912779));
#388 = VECTOR('',#389,1.);
#389 = DIRECTION('',(0.707106781187,-1.09418821126E-15,0.707106781187));
#390 = ORIENTED_EDGE('',*,*,#369,.T.);
#391 = ORIENTED_EDGE('',*,*,#392,.T.);
#392 = EDGE_CURVE('',#362,#393,#395,.T.);
#393 = VERTEX_POINT('',#394);
#394 = CARTESIAN_POINT('',(14.1,1.8,-8.));
#395 = LINE('',#396,#397);
#396 = CARTESIAN_POINT('',(14.998149087221,1.8,-7.101850912779));
#397 = VECTOR('',#398,1.);
#398 = DIRECTION('',(0.707106781187,-1.119090592701E-15,0.707106781187)
  );
#399 = ORIENTED_EDGE('',*,*,#400,.F.);
#400 = EDGE_CURVE('',#384,#393,#401,.T.);
#401 = LINE('',#402,#403);
#402 = CARTESIAN_POINT('',(14.1,-1.8,-8.));
#403 = VECTOR('',#404,1.);
#404 = DIRECTION('',(1.33226762955E-15,1.,0.));
#405 = PLANE('',#406);
#406 = AXIS2_PLACEMENT_3D('',#407,#408,#409);
#407 = CARTESIAN_POINT('',(13.1,-1.8,-9.));
#408 = DIRECTION('',(0.707106781187,-1.179351700609E-15,-0.707106781187)
  );
#409 = DIRECTION('',(1.50006139968E-15,1.,-1.677937701297E-16));
#410 = ADVANCED_FACE('',(#411),#436,.T.);
#411 = FACE_BOUND('',#412,.T.);
#412 = EDGE_LOOP('',(#413,#421,#429,#435));
#413 = ORIENTED_EDGE('',*,*,#414,.F.);
#414 = EDGE_CURVE('',#415,#24,#417,.T.);
#415 = VERTEX_POINT('',#416);
#416 = CARTESIAN_POINT('',(1.5,-1.8,12.6));
#417 = LINE('',#418,#419);
#418 = CARTESIAN_POINT('',(1.5,-1.8,12.6));
#419 = VECTOR('',#420,1.);
#420 = DIRECTION('',(1.,-1.7763568394E-15,0.));
#421 = ORIENTED_EDGE('',*,*,#422,.F.);
#422 = EDGE_CURVE('',#423,#415,#425,.T.);
#423 = VERTEX_POINT('',#424);
#424 = CARTESIAN_POINT('',(1.5,1.8,12.6));
#425 = LINE('',#426,#427);
#426 = CARTESIAN_POINT('',(1.5,1.8,12.6));
#427 = VECTOR('',#428,1.);
#428 = DIRECTION('',(-1.7763568394E-15,-1.,0.));
#429 = ORIENTED_EDGE('',*,*,#430,.T.);
#430 = EDGE_CURVE('',#423,#40,#431,.T.);
#431 = LINE('',#432,#433);
#432 = CARTESIAN_POINT('',(1.5,1.8,12.6));
#433 = VECTOR('',#434,1.);
#434 = DIRECTION('',(1.,-1.7763568394E-15,0.));
#435 = ORIENTED_EDGE('',*,*,#47,.F.);
#436 = PLANE('',#437);
#437 = AXIS2_PLACEMENT_3D('',#438,#439,#440);
#438 = CARTESIAN_POINT('',(1.5,1.8,12.6));
#439 = DIRECTION('',(0.,0.,-1.));
#440 = DIRECTION('',(-1.7763568394E-15,-1.,0.));
#441 = ADVANCED_FACE('',(#442),#467,.F.);
#442 = FACE_BOUND('',#443,.T.);
#443 = EDGE_LOOP('',(#444,#452,#453,#461));
#444 = ORIENTED_EDGE('',*,*,#445,.T.);
#445 = EDGE_CURVE('',#446,#423,#448,.T.);
#446 = VERTEX_POINT('',#447);
#447 = CARTESIAN_POINT('',(1.5,1.8,16.2));
#448 = LINE('',#449,#450);
#449 = CARTESIAN_POINT('',(1.5,1.8,16.2));
#450 = VECTOR('',#451,1.);
#451 = DIRECTION('',(0.,0.,-1.));
#452 = ORIENTED_EDGE('',*,*,#422,.T.);
#453 = ORIENTED_EDGE('',*,*,#454,.F.);
#454 = EDGE_CURVE('',#455,#415,#457,.T.);
#455 = VERTEX_POINT('',#456);
#456 = CARTESIAN_POINT('',(1.5,-1.8,16.2));
#457 = LINE('',#458,#459);
#458 = CARTESIAN_POINT('',(1.5,-1.8,16.2));
#459 = VECTOR('',#460,1.);
#460 = DIRECTION('',(0.,0.,-1.));
#461 = ORIENTED_EDGE('',*,*,#462,.F.);
#462 = EDGE_CURVE('',#446,#455,#463,.T.);
#463 = LINE('',#464,#465);
#464 = CARTESIAN_POINT('',(1.5,1.8,16.2));
#465 = VECTOR('',#466,1.);
#466 = DIRECTION('',(-1.7763568394E-15,-1.,0.));
#467 = PLANE('',#468);
#468 = AXIS2_PLACEMENT_3D('',#469,#470,#471);
#469 = CARTESIAN_POINT('',(1.5,-1.283972927979E-13,14.4));
#470 = DIRECTION('',(1.,-1.7763568394E-15,0.));
#471 = DIRECTION('',(0.,0.,1.));
#472 = ADVANCED_FACE('',(#473),#498,.F.);
#473 = FACE_BOUND('',#474,.F.);
#474 = EDGE_LOOP('',(#475,#476,#484,#492));
#475 = ORIENTED_EDGE('',*,*,#462,.F.);
#476 = ORIENTED_EDGE('',*,*,#477,.T.);
#477 = EDGE_CURVE('',#446,#478,#480,.T.);
#478 = VERTEX_POINT('',#479);
#479 = CARTESIAN_POINT('',(8.5,1.8,16.2));
#480 = LINE('',#481,#482);
#481 = CARTESIAN_POINT('',(1.5,1.8,16.2));
#482 = VECTOR('',#483,1.);
#483 = DIRECTION('',(1.,-1.7763568394E-15,0.));
#484 = ORIENTED_EDGE('',*,*,#485,.F.);
#485 = EDGE_CURVE('',#486,#478,#488,.T.);
#486 = VERTEX_POINT('',#487);
#487 = CARTESIAN_POINT('',(8.5,-1.8,16.2));
#488 = LINE('',#489,#490);
#489 = CARTESIAN_POINT('',(8.5,-1.8,16.2));
#490 = VECTOR('',#491,1.);
#491 = DIRECTION('',(1.33226762955E-15,1.,0.));
#492 = ORIENTED_EDGE('',*,*,#493,.F.);
#493 = EDGE_CURVE('',#455,#486,#494,.T.);
#494 = LINE('',#495,#496);
#495 = CARTESIAN_POINT('',(1.5,-1.8,16.2));
#496 = VECTOR('',#497,1.);
#497 = DIRECTION('',(1.,-1.7763568394E-15,0.));
#498 = PLANE('',#499);
#499 = AXIS2_PLACEMENT_3D('',#500,#501,#502);
#500 = CARTESIAN_POINT('',(1.5,1.8,16.2));
#501 = DIRECTION('',(0.,0.,-1.));
#502 = DIRECTION('',(-1.7763568394E-15,-1.,0.));
#503 = ADVANCED_FACE('',(#504),#529,.T.);
#504 = FACE_BOUND('',#505,.T.);
#505 = EDGE_LOOP('',(#506,#514,#522,#528));
#506 = ORIENTED_EDGE('',*,*,#507,.F.);
#507 = EDGE_CURVE('',#508,#486,#510,.T.);
#508 = VERTEX_POINT('',#509);
#509 = CARTESIAN_POINT('',(10.5,-1.8,18.2));
#510 = LINE('',#511,#512);
#511 = CARTESIAN_POINT('',(11.570055780933,-1.8,19.270055780933));
#512 = VECTOR('',#513,1.);
#513 = DIRECTION('',(-0.707106781187,1.09418821126E-15,-0.707106781187)
  );
#514 = ORIENTED_EDGE('',*,*,#515,.T.);
#515 = EDGE_CURVE('',#508,#516,#518,.T.);
#516 = VERTEX_POINT('',#517);
#517 = CARTESIAN_POINT('',(10.5,1.8,18.2));
#518 = LINE('',#519,#520);
#519 = CARTESIAN_POINT('',(10.5,-1.8,18.2));
#520 = VECTOR('',#521,1.);
#521 = DIRECTION('',(1.33226762955E-15,1.,0.));
#522 = ORIENTED_EDGE('',*,*,#523,.T.);
#523 = EDGE_CURVE('',#516,#478,#524,.T.);
#524 = LINE('',#525,#526);
#525 = CARTESIAN_POINT('',(11.570055780933,1.8,19.270055780933));
#526 = VECTOR('',#527,1.);
#527 = DIRECTION('',(-0.707106781187,1.119090592701E-15,-0.707106781187)
  );
#528 = ORIENTED_EDGE('',*,*,#485,.F.);
#529 = PLANE('',#530);
#530 = AXIS2_PLACEMENT_3D('',#531,#532,#533);
#531 = CARTESIAN_POINT('',(9.5,-1.8,17.2));
#532 = DIRECTION('',(-0.707106781187,9.197517379476E-16,0.707106781187)
  );
#533 = DIRECTION('',(1.316496505686E-15,1.,1.577112386425E-17));
#534 = ADVANCED_FACE('',(#535),#560,.F.);
#535 = FACE_BOUND('',#536,.T.);
#536 = EDGE_LOOP('',(#537,#545,#546,#554));
#537 = ORIENTED_EDGE('',*,*,#538,.F.);
#538 = EDGE_CURVE('',#516,#539,#541,.T.);
#539 = VERTEX_POINT('',#540);
#540 = CARTESIAN_POINT('',(10.5,1.8,33.2));
#541 = LINE('',#542,#543);
#542 = CARTESIAN_POINT('',(10.5,1.8,16.2));
#543 = VECTOR('',#544,1.);
#544 = DIRECTION('',(0.,0.,1.));
#545 = ORIENTED_EDGE('',*,*,#515,.F.);
#546 = ORIENTED_EDGE('',*,*,#547,.T.);
#547 = EDGE_CURVE('',#508,#548,#550,.T.);
#548 = VERTEX_POINT('',#549);
#549 = CARTESIAN_POINT('',(10.5,-1.8,33.2));
#550 = LINE('',#551,#552);
#551 = CARTESIAN_POINT('',(10.5,-1.8,16.2));
#552 = VECTOR('',#553,1.);
#553 = DIRECTION('',(0.,0.,1.));
#554 = ORIENTED_EDGE('',*,*,#555,.T.);
#555 = EDGE_CURVE('',#548,#539,#556,.T.);
#556 = LINE('',#557,#558);
#557 = CARTESIAN_POINT('',(10.5,-1.8,33.2));
#558 = VECTOR('',#559,1.);
#559 = DIRECTION('',(8.881784197001E-16,1.,0.));
#560 = PLANE('',#561);
#561 = AXIS2_PLACEMENT_3D('',#562,#563,#564);
#562 = CARTESIAN_POINT('',(10.5,-1.8,16.2));
#563 = DIRECTION('',(1.,-1.33226762955E-15,0.));
#564 = DIRECTION('',(-1.33226762955E-15,-1.,-0.));
#565 = ADVANCED_FACE('',(#566),#591,.T.);
#566 = FACE_BOUND('',#567,.T.);
#567 = EDGE_LOOP('',(#568,#576,#584,#590));
#568 = ORIENTED_EDGE('',*,*,#569,.F.);
#569 = EDGE_CURVE('',#570,#548,#572,.T.);
#570 = VERTEX_POINT('',#571);
#571 = CARTESIAN_POINT('',(8.5,-1.8,35.2));
#572 = LINE('',#573,#574);
#573 = CARTESIAN_POINT('',(11.398149087221,-1.8,32.301850912779));
#574 = VECTOR('',#575,1.);
#575 = DIRECTION('',(0.707106781187,-1.09418821126E-15,-0.707106781187)
  );
#576 = ORIENTED_EDGE('',*,*,#577,.T.);
#577 = EDGE_CURVE('',#570,#578,#580,.T.);
#578 = VERTEX_POINT('',#579);
#579 = CARTESIAN_POINT('',(8.5,1.8,35.2));
#580 = LINE('',#581,#582);
#581 = CARTESIAN_POINT('',(8.5,-1.8,35.2));
#582 = VECTOR('',#583,1.);
#583 = DIRECTION('',(8.881784197001E-16,1.,0.));
#584 = ORIENTED_EDGE('',*,*,#585,.T.);
#585 = EDGE_CURVE('',#578,#539,#586,.T.);
#586 = LINE('',#587,#588);
#587 = CARTESIAN_POINT('',(11.398149087221,1.8,32.301850912779));
#588 = VECTOR('',#589,1.);
#589 = DIRECTION('',(0.707106781187,-1.119090592701E-15,-0.707106781187)
  );
#590 = ORIENTED_EDGE('',*,*,#555,.F.);
#591 = PLANE('',#592);
#592 = AXIS2_PLACEMENT_3D('',#593,#594,#595);
#593 = CARTESIAN_POINT('',(9.5,-1.8,34.2));
#594 = DIRECTION('',(-0.707106781187,1.323573902088E-15,-0.707106781187)
  );
#595 = DIRECTION('',(1.379997291418E-15,1.,4.91818871718E-16));
#596 = ADVANCED_FACE('',(#597),#663,.T.);
#597 = FACE_BOUND('',#598,.F.);
#598 = EDGE_LOOP('',(#599,#607,#615,#623,#631,#640,#648,#656,#662));
#599 = ORIENTED_EDGE('',*,*,#600,.T.);
#600 = EDGE_CURVE('',#578,#601,#603,.T.);
#601 = VERTEX_POINT('',#602);
#602 = CARTESIAN_POINT('',(3.999999999988,1.8,35.2));
#603 = LINE('',#604,#605);
#604 = CARTESIAN_POINT('',(10.5,1.8,35.2));
#605 = VECTOR('',#606,1.);
#606 = DIRECTION('',(-1.,8.881784197001E-16,0.));
#607 = ORIENTED_EDGE('',*,*,#608,.T.);
#608 = EDGE_CURVE('',#601,#609,#611,.T.);
#609 = VERTEX_POINT('',#610);
#610 = CARTESIAN_POINT('',(3.999999999988,5.8,35.2));
#611 = LINE('',#612,#613);
#612 = CARTESIAN_POINT('',(3.999999999988,1.8,35.2));
#613 = VECTOR('',#614,1.);
#614 = DIRECTION('',(1.582633093722E-15,1.,2.22044604925E-16));
#615 = ORIENTED_EDGE('',*,*,#616,.F.);
#616 = EDGE_CURVE('',#617,#609,#619,.T.);
#617 = VERTEX_POINT('',#618);
#618 = CARTESIAN_POINT('',(1.999999999988,5.8,35.2));
#619 = LINE('',#620,#621);
#620 = CARTESIAN_POINT('',(1.999999999988,5.8,35.2));
#621 = VECTOR('',#622,1.);
#622 = DIRECTION('',(1.,-1.582633093722E-15,-9.860761315263E-32));
#623 = ORIENTED_EDGE('',*,*,#624,.F.);
#624 = EDGE_CURVE('',#625,#617,#627,.T.);
#625 = VERTEX_POINT('',#626);
#626 = CARTESIAN_POINT('',(1.999999999988,3.3,35.2));
#627 = LINE('',#628,#629);
#628 = CARTESIAN_POINT('',(1.999999999988,1.8,35.2));
#629 = VECTOR('',#630,1.);
#630 = DIRECTION('',(1.582633093722E-15,1.,2.22044604925E-16));
#631 = ORIENTED_EDGE('',*,*,#632,.F.);
#632 = EDGE_CURVE('',#633,#625,#635,.T.);
#633 = VERTEX_POINT('',#634);
#634 = CARTESIAN_POINT('',(0.499999999988,1.8,35.2));
#635 = CIRCLE('',#636,1.5);
#636 = AXIS2_PLACEMENT_3D('',#637,#638,#639);
#637 = CARTESIAN_POINT('',(0.499999999988,3.3,35.2));
#638 = DIRECTION('',(-2.528075268842E-31,-2.22044604925E-16,1.));
#639 = DIRECTION('',(-4.440892098501E-16,-1.,-2.22044604925E-16));
#640 = ORIENTED_EDGE('',*,*,#641,.T.);
#641 = EDGE_CURVE('',#633,#642,#644,.T.);
#642 = VERTEX_POINT('',#643);
#643 = CARTESIAN_POINT('',(3.37507799486E-15,1.8,35.2));
#644 = LINE('',#645,#646);
#645 = CARTESIAN_POINT('',(10.5,1.8,35.2));
#646 = VECTOR('',#647,1.);
#647 = DIRECTION('',(-1.,8.881784197001E-16,0.));
#648 = ORIENTED_EDGE('',*,*,#649,.T.);
#649 = EDGE_CURVE('',#642,#650,#652,.T.);
#650 = VERTEX_POINT('',#651);
#651 = CARTESIAN_POINT('',(-1.59872115546E-15,-1.8,35.2));
#652 = LINE('',#653,#654);
#653 = CARTESIAN_POINT('',(-4.440892098501E-16,-0.9,35.2));
#654 = VECTOR('',#655,1.);
#655 = DIRECTION('',(-9.992007221626E-16,-1.,0.));
#656 = ORIENTED_EDGE('',*,*,#657,.F.);
#657 = EDGE_CURVE('',#570,#650,#658,.T.);
#658 = LINE('',#659,#660);
#659 = CARTESIAN_POINT('',(10.5,-1.8,35.2));
#660 = VECTOR('',#661,1.);
#661 = DIRECTION('',(-1.,8.881784197001E-16,0.));
#662 = ORIENTED_EDGE('',*,*,#577,.T.);
#663 = PLANE('',#664);
#664 = AXIS2_PLACEMENT_3D('',#665,#666,#667);
#665 = CARTESIAN_POINT('',(4.752762430937,1.060773480663,35.2));
#666 = DIRECTION('',(2.282181546508E-31,5.139015981222E-16,-1.));
#667 = DIRECTION('',(-4.440892098501E-16,-1.,-5.139015981222E-16));
#668 = ADVANCED_FACE('',(#669),#694,.F.);
#669 = FACE_BOUND('',#670,.T.);
#670 = EDGE_LOOP('',(#671,#672,#680,#688));
#671 = ORIENTED_EDGE('',*,*,#608,.T.);
#672 = ORIENTED_EDGE('',*,*,#673,.T.);
#673 = EDGE_CURVE('',#609,#674,#676,.T.);
#674 = VERTEX_POINT('',#675);
#675 = CARTESIAN_POINT('',(3.999999999988,5.8,38.8));
#676 = LINE('',#677,#678);
#677 = CARTESIAN_POINT('',(3.999999999988,5.8,35.2));
#678 = VECTOR('',#679,1.);
#679 = DIRECTION('',(-2.528075268842E-31,-2.22044604925E-16,1.));
#680 = ORIENTED_EDGE('',*,*,#681,.F.);
#681 = EDGE_CURVE('',#682,#674,#684,.T.);
#682 = VERTEX_POINT('',#683);
#683 = CARTESIAN_POINT('',(3.999999999988,1.8,38.8));
#684 = LINE('',#685,#686);
#685 = CARTESIAN_POINT('',(3.999999999988,1.8,38.8));
#686 = VECTOR('',#687,1.);
#687 = DIRECTION('',(1.582633093722E-15,1.,2.22044604925E-16));
#688 = ORIENTED_EDGE('',*,*,#689,.F.);
#689 = EDGE_CURVE('',#601,#682,#690,.T.);
#690 = LINE('',#691,#692);
#691 = CARTESIAN_POINT('',(3.999999999988,1.8,35.2));
#692 = VECTOR('',#693,1.);
#693 = DIRECTION('',(-2.528075268842E-31,-2.22044604925E-16,1.));
#694 = PLANE('',#695);
#695 = AXIS2_PLACEMENT_3D('',#696,#697,#698);
#696 = CARTESIAN_POINT('',(3.999999999988,1.8,35.2));
#697 = DIRECTION('',(-1.,1.582633093722E-15,9.860761315263E-32));
#698 = DIRECTION('',(2.528075268842E-31,2.22044604925E-16,-1.));
#699 = ADVANCED_FACE('',(#700),#766,.T.);
#700 = FACE_BOUND('',#701,.F.);
#701 = EDGE_LOOP('',(#702,#712,#720,#728,#737,#745,#751,#752,#760));
#702 = ORIENTED_EDGE('',*,*,#703,.T.);
#703 = EDGE_CURVE('',#704,#706,#708,.T.);
#704 = VERTEX_POINT('',#705);
#705 = CARTESIAN_POINT('',(12.1,-1.8,38.8));
#706 = VERTEX_POINT('',#707);
#707 = CARTESIAN_POINT('',(1.7763568394E-16,-1.8,38.8));
#708 = LINE('',#709,#710);
#709 = CARTESIAN_POINT('',(10.5,-1.8,38.8));
#710 = VECTOR('',#711,1.);
#711 = DIRECTION('',(-1.,8.881784197001E-16,0.));
#712 = ORIENTED_EDGE('',*,*,#713,.T.);
#713 = EDGE_CURVE('',#706,#714,#716,.T.);
#714 = VERTEX_POINT('',#715);
#715 = CARTESIAN_POINT('',(3.37507799486E-15,1.8,38.8));
#716 = LINE('',#717,#718);
#717 = CARTESIAN_POINT('',(2.242650509743E-15,0.9,38.8));
#718 = VECTOR('',#719,1.);
#719 = DIRECTION('',(9.992007221626E-16,1.,0.));
#720 = ORIENTED_EDGE('',*,*,#721,.F.);
#721 = EDGE_CURVE('',#722,#714,#724,.T.);
#722 = VERTEX_POINT('',#723);
#723 = CARTESIAN_POINT('',(0.499999999988,1.8,38.8));
#724 = LINE('',#725,#726);
#725 = CARTESIAN_POINT('',(5.25,1.8,38.8));
#726 = VECTOR('',#727,1.);
#727 = DIRECTION('',(-1.,1.33226762955E-15,0.));
#728 = ORIENTED_EDGE('',*,*,#729,.T.);
#729 = EDGE_CURVE('',#722,#730,#732,.T.);
#730 = VERTEX_POINT('',#731);
#731 = CARTESIAN_POINT('',(1.999999999988,3.3,38.8));
#732 = CIRCLE('',#733,1.5);
#733 = AXIS2_PLACEMENT_3D('',#734,#735,#736);
#734 = CARTESIAN_POINT('',(0.499999999988,3.3,38.8));
#735 = DIRECTION('',(-2.528075268842E-31,-2.22044604925E-16,1.));
#736 = DIRECTION('',(-4.440892098501E-16,-1.,-2.22044604925E-16));
#737 = ORIENTED_EDGE('',*,*,#738,.T.);
#738 = EDGE_CURVE('',#730,#739,#741,.T.);
#739 = VERTEX_POINT('',#740);
#740 = CARTESIAN_POINT('',(1.999999999988,5.8,38.8));
#741 = LINE('',#742,#743);
#742 = CARTESIAN_POINT('',(1.999999999988,1.8,38.8));
#743 = VECTOR('',#744,1.);
#744 = DIRECTION('',(1.582633093722E-15,1.,2.22044604925E-16));
#745 = ORIENTED_EDGE('',*,*,#746,.F.);
#746 = EDGE_CURVE('',#674,#739,#747,.T.);
#747 = LINE('',#748,#749);
#748 = CARTESIAN_POINT('',(3.999999999988,5.8,38.8));
#749 = VECTOR('',#750,1.);
#750 = DIRECTION('',(-1.,1.582633093722E-15,9.860761315263E-32));
#751 = ORIENTED_EDGE('',*,*,#681,.F.);
#752 = ORIENTED_EDGE('',*,*,#753,.F.);
#753 = EDGE_CURVE('',#754,#682,#756,.T.);
#754 = VERTEX_POINT('',#755);
#755 = CARTESIAN_POINT('',(12.1,1.8,38.8));
#756 = LINE('',#757,#758);
#757 = CARTESIAN_POINT('',(5.25,1.8,38.8));
#758 = VECTOR('',#759,1.);
#759 = DIRECTION('',(-1.,1.33226762955E-15,0.));
#760 = ORIENTED_EDGE('',*,*,#761,.F.);
#761 = EDGE_CURVE('',#704,#754,#762,.T.);
#762 = LINE('',#763,#764);
#763 = CARTESIAN_POINT('',(12.1,-1.8,38.8));
#764 = VECTOR('',#765,1.);
#765 = DIRECTION('',(1.33226762955E-15,1.,0.));
#766 = PLANE('',#767);
#767 = AXIS2_PLACEMENT_3D('',#768,#769,#770);
#768 = CARTESIAN_POINT('',(6.303456221196,0.884792626728,38.8));
#769 = DIRECTION('',(-1.114991725547E-31,-2.510738159847E-16,1.));
#770 = DIRECTION('',(4.440892098501E-16,1.,2.510738159847E-16));
#771 = ADVANCED_FACE('',(#772),#797,.T.);
#772 = FACE_BOUND('',#773,.F.);
#773 = EDGE_LOOP('',(#774,#782,#783,#791));
#774 = ORIENTED_EDGE('',*,*,#775,.F.);
#775 = EDGE_CURVE('',#704,#776,#778,.T.);
#776 = VERTEX_POINT('',#777);
#777 = CARTESIAN_POINT('',(14.1,-1.8,36.8));
#778 = LINE('',#779,#780);
#779 = CARTESIAN_POINT('',(14.998149087221,-1.8,35.901850912779));
#780 = VECTOR('',#781,1.);
#781 = DIRECTION('',(0.707106781187,-1.09418821126E-15,-0.707106781187)
  );
#782 = ORIENTED_EDGE('',*,*,#761,.T.);
#783 = ORIENTED_EDGE('',*,*,#784,.T.);
#784 = EDGE_CURVE('',#754,#785,#787,.T.);
#785 = VERTEX_POINT('',#786);
#786 = CARTESIAN_POINT('',(14.1,1.8,36.8));
#787 = LINE('',#788,#789);
#788 = CARTESIAN_POINT('',(14.998149087221,1.8,35.901850912779));
#789 = VECTOR('',#790,1.);
#790 = DIRECTION('',(0.707106781187,-1.119090592701E-15,-0.707106781187)
  );
#791 = ORIENTED_EDGE('',*,*,#792,.F.);
#792 = EDGE_CURVE('',#776,#785,#793,.T.);
#793 = LINE('',#794,#795);
#794 = CARTESIAN_POINT('',(14.1,-1.8,36.8));
#795 = VECTOR('',#796,1.);
#796 = DIRECTION('',(1.33226762955E-15,1.,0.));
#797 = PLANE('',#798);
#798 = AXIS2_PLACEMENT_3D('',#799,#800,#801);
#799 = CARTESIAN_POINT('',(13.1,-1.8,37.8));
#800 = DIRECTION('',(0.707106781187,-1.179351700609E-15,0.707106781187)
  );
#801 = DIRECTION('',(-1.50006139968E-15,-1.,-1.677937701297E-16));
#802 = ADVANCED_FACE('',(#803),#819,.F.);
#803 = FACE_BOUND('',#804,.T.);
#804 = EDGE_LOOP('',(#805,#811,#812,#818));
#805 = ORIENTED_EDGE('',*,*,#806,.T.);
#806 = EDGE_CURVE('',#650,#706,#807,.T.);
#807 = LINE('',#808,#809);
#808 = CARTESIAN_POINT('',(-8.104628079764E-16,-1.8,33.8));
#809 = VECTOR('',#810,1.);
#810 = DIRECTION('',(1.110223024625E-16,-9.860761315263E-32,1.));
#811 = ORIENTED_EDGE('',*,*,#713,.T.);
#812 = ORIENTED_EDGE('',*,*,#813,.T.);
#813 = EDGE_CURVE('',#714,#642,#814,.T.);
#814 = LINE('',#815,#816);
#815 = CARTESIAN_POINT('',(1.698641227676E-15,1.8,32.));
#816 = VECTOR('',#817,1.);
#817 = DIRECTION('',(-1.110223024625E-16,9.860761315263E-32,-1.));
#818 = ORIENTED_EDGE('',*,*,#649,.T.);
#819 = PLANE('',#820);
#820 = AXIS2_PLACEMENT_3D('',#821,#822,#823);
#821 = CARTESIAN_POINT('',(0.,0.,28.8));
#822 = DIRECTION('',(1.,-9.992007221626E-16,-1.110223024625E-16));
#823 = DIRECTION('',(1.110223024625E-16,-9.860761315263E-32,1.));
#824 = ADVANCED_FACE('',(#825),#836,.T.);
#825 = FACE_BOUND('',#826,.F.);
#826 = EDGE_LOOP('',(#827,#828,#829,#835));
#827 = ORIENTED_EDGE('',*,*,#673,.T.);
#828 = ORIENTED_EDGE('',*,*,#746,.T.);
#829 = ORIENTED_EDGE('',*,*,#830,.T.);
#830 = EDGE_CURVE('',#739,#617,#831,.T.);
#831 = LINE('',#832,#833);
#832 = CARTESIAN_POINT('',(1.999999999988,5.8,38.8));
#833 = VECTOR('',#834,1.);
#834 = DIRECTION('',(2.528075268842E-31,2.22044604925E-16,-1.));
#835 = ORIENTED_EDGE('',*,*,#616,.T.);
#836 = PLANE('',#837);
#837 = AXIS2_PLACEMENT_3D('',#838,#839,#840);
#838 = CARTESIAN_POINT('',(2.999999999988,5.8,37.));
#839 = DIRECTION('',(1.609823385706E-15,1.,0.));
#840 = DIRECTION('',(-1.,1.609823385706E-15,0.));
#841 = ADVANCED_FACE('',(#842),#853,.F.);
#842 = FACE_BOUND('',#843,.T.);
#843 = EDGE_LOOP('',(#844,#845,#846,#847));
#844 = ORIENTED_EDGE('',*,*,#738,.T.);
#845 = ORIENTED_EDGE('',*,*,#830,.T.);
#846 = ORIENTED_EDGE('',*,*,#624,.F.);
#847 = ORIENTED_EDGE('',*,*,#848,.F.);
#848 = EDGE_CURVE('',#730,#625,#849,.T.);
#849 = LINE('',#850,#851);
#850 = CARTESIAN_POINT('',(1.999999999988,3.3,38.8));
#851 = VECTOR('',#852,1.);
#852 = DIRECTION('',(2.528075268842E-31,2.22044604925E-16,-1.));
#853 = PLANE('',#854);
#854 = AXIS2_PLACEMENT_3D('',#855,#856,#857);
#855 = CARTESIAN_POINT('',(1.999999999988,1.8,38.8));
#856 = DIRECTION('',(1.,-1.582633093722E-15,-9.860761315263E-32));
#857 = DIRECTION('',(-2.528075268842E-31,-2.22044604925E-16,1.));
#858 = ADVANCED_FACE('',(#859),#870,.T.);
#859 = FACE_BOUND('',#860,.F.);
#860 = EDGE_LOOP('',(#861,#862,#868,#869));
#861 = ORIENTED_EDGE('',*,*,#641,.F.);
#862 = ORIENTED_EDGE('',*,*,#863,.F.);
#863 = EDGE_CURVE('',#722,#633,#864,.T.);
#864 = LINE('',#865,#866);
#865 = CARTESIAN_POINT('',(0.499999999988,1.8,38.8));
#866 = VECTOR('',#867,1.);
#867 = DIRECTION('',(2.528075268842E-31,2.22044604925E-16,-1.));
#868 = ORIENTED_EDGE('',*,*,#721,.T.);
#869 = ORIENTED_EDGE('',*,*,#813,.T.);
#870 = PLANE('',#871);
#871 = AXIS2_PLACEMENT_3D('',#872,#873,#874);
#872 = CARTESIAN_POINT('',(8.936409736308,1.8,26.043813387424));
#873 = DIRECTION('',(1.582633093722E-15,1.,0.));
#874 = DIRECTION('',(-1.,1.582633093722E-15,0.));
#875 = ADVANCED_FACE('',(#876),#882,.F.);
#876 = FACE_BOUND('',#877,.T.);
#877 = EDGE_LOOP('',(#878,#879,#880,#881));
#878 = ORIENTED_EDGE('',*,*,#729,.T.);
#879 = ORIENTED_EDGE('',*,*,#848,.T.);
#880 = ORIENTED_EDGE('',*,*,#632,.F.);
#881 = ORIENTED_EDGE('',*,*,#863,.F.);
#882 = CYLINDRICAL_SURFACE('',#883,1.5);
#883 = AXIS2_PLACEMENT_3D('',#884,#885,#886);
#884 = CARTESIAN_POINT('',(0.499999999988,3.3,38.8));
#885 = DIRECTION('',(2.528075268842E-31,2.22044604925E-16,-1.));
#886 = DIRECTION('',(-1.582633093722E-15,-1.,-2.22044604925E-16));
#887 = ADVANCED_FACE('',(#888),#913,.T.);
#888 = FACE_BOUND('',#889,.T.);
#889 = EDGE_LOOP('',(#890,#891,#892,#893,#894,#895,#896,#897,#898,#899,
    #900,#901,#907,#908,#909,#910,#911,#912));
#890 = ORIENTED_EDGE('',*,*,#39,.T.);
#891 = ORIENTED_EDGE('',*,*,#430,.F.);
#892 = ORIENTED_EDGE('',*,*,#445,.F.);
#893 = ORIENTED_EDGE('',*,*,#477,.T.);
#894 = ORIENTED_EDGE('',*,*,#523,.F.);
#895 = ORIENTED_EDGE('',*,*,#538,.T.);
#896 = ORIENTED_EDGE('',*,*,#585,.F.);
#897 = ORIENTED_EDGE('',*,*,#600,.T.);
#898 = ORIENTED_EDGE('',*,*,#689,.T.);
#899 = ORIENTED_EDGE('',*,*,#753,.F.);
#900 = ORIENTED_EDGE('',*,*,#784,.T.);
#901 = ORIENTED_EDGE('',*,*,#902,.F.);
#902 = EDGE_CURVE('',#393,#785,#903,.T.);
#903 = LINE('',#904,#905);
#904 = CARTESIAN_POINT('',(14.1,1.8,5.05));
#905 = VECTOR('',#906,1.);
#906 = DIRECTION('',(-2.610128730948E-16,4.636520022935E-31,1.));
#907 = ORIENTED_EDGE('',*,*,#392,.F.);
#908 = ORIENTED_EDGE('',*,*,#361,.T.);
#909 = ORIENTED_EDGE('',*,*,#212,.F.);
#910 = ORIENTED_EDGE('',*,*,#92,.F.);
#911 = ORIENTED_EDGE('',*,*,#180,.T.);
#912 = ORIENTED_EDGE('',*,*,#61,.F.);
#913 = PLANE('',#914);
#914 = AXIS2_PLACEMENT_3D('',#915,#916,#917);
#915 = CARTESIAN_POINT('',(10.01001190865,1.8,14.4));
#916 = DIRECTION('',(1.644623096888E-15,1.,0.));
#917 = DIRECTION('',(1.,-1.644623096888E-15,0.));
#918 = ADVANCED_FACE('',(#919),#944,.T.);
#919 = FACE_BOUND('',#920,.T.);
#920 = EDGE_LOOP('',(#921,#927,#928,#929,#930,#931,#932,#933,#934,#935,
    #936,#937,#938,#939,#940,#941,#942,#943));
#921 = ORIENTED_EDGE('',*,*,#922,.F.);
#922 = EDGE_CURVE('',#776,#384,#923,.T.);
#923 = LINE('',#924,#925);
#924 = CARTESIAN_POINT('',(14.1,-1.8,23.75));
#925 = VECTOR('',#926,1.);
#926 = DIRECTION('',(-2.610128730948E-16,4.636520022935E-31,-1.));
#927 = ORIENTED_EDGE('',*,*,#775,.F.);
#928 = ORIENTED_EDGE('',*,*,#703,.T.);
#929 = ORIENTED_EDGE('',*,*,#806,.F.);
#930 = ORIENTED_EDGE('',*,*,#657,.F.);
#931 = ORIENTED_EDGE('',*,*,#569,.T.);
#932 = ORIENTED_EDGE('',*,*,#547,.F.);
#933 = ORIENTED_EDGE('',*,*,#507,.T.);
#934 = ORIENTED_EDGE('',*,*,#493,.F.);
#935 = ORIENTED_EDGE('',*,*,#454,.T.);
#936 = ORIENTED_EDGE('',*,*,#414,.T.);
#937 = ORIENTED_EDGE('',*,*,#21,.F.);
#938 = ORIENTED_EDGE('',*,*,#70,.T.);
#939 = ORIENTED_EDGE('',*,*,#173,.F.);
#940 = ORIENTED_EDGE('',*,*,#151,.T.);
#941 = ORIENTED_EDGE('',*,*,#250,.T.);
#942 = ORIENTED_EDGE('',*,*,#347,.F.);
#943 = ORIENTED_EDGE('',*,*,#383,.T.);
#944 = PLANE('',#945);
#945 = AXIS2_PLACEMENT_3D('',#946,#947,#948);
#946 = CARTESIAN_POINT('',(9.01514830543,-1.8,14.4));
#947 = DIRECTION('',(-1.453045625817E-15,-1.,-0.));
#948 = DIRECTION('',(-1.,1.453045625817E-15,0.));
#949 = ADVANCED_FACE('',(#950),#956,.T.);
#950 = FACE_BOUND('',#951,.T.);
#951 = EDGE_LOOP('',(#952,#953,#954,#955));
#952 = ORIENTED_EDGE('',*,*,#902,.T.);
#953 = ORIENTED_EDGE('',*,*,#792,.F.);
#954 = ORIENTED_EDGE('',*,*,#922,.T.);
#955 = ORIENTED_EDGE('',*,*,#400,.T.);
#956 = PLANE('',#957);
#957 = AXIS2_PLACEMENT_3D('',#958,#959,#960);
#958 = CARTESIAN_POINT('',(14.1,-1.501731705013E-13,14.4));
#959 = DIRECTION('',(1.,-1.430954120628E-15,0.));
#960 = DIRECTION('',(1.430954120628E-15,1.,0.));
#961 = ( GEOMETRIC_REPRESENTATION_CONTEXT(3) 
GLOBAL_UNCERTAINTY_ASSIGNED_CONTEXT((#965)) GLOBAL_UNIT_ASSIGNED_CONTEXT
((#962,#963,#964)) REPRESENTATION_CONTEXT('Context #1',
  '3D Context with UNIT and UNCERTAINTY') );
#962 = ( LENGTH_UNIT() NAMED_UNIT(*) SI_UNIT(.MILLI.,.METRE.) );
#963 = ( NAMED_UNIT(*) PLANE_ANGLE_UNIT() SI_UNIT($,.RADIAN.) );
#964 = ( NAMED_UNIT(*) SI_UNIT($,.STERADIAN.) SOLID_ANGLE_UNIT() );
#965 = UNCERTAINTY_MEASURE_WITH_UNIT(LENGTH_MEASURE(2.E-07),#962,
  'distance_accuracy_value','confusion accuracy');
#966 = PRODUCT_RELATED_PRODUCT_CATEGORY('part',$,(#7));
#967 = MECHANICAL_DESIGN_GEOMETRIC_PRESENTATION_REPRESENTATION('',(#968)
  ,#961);
#968 = STYLED_ITEM('color',(#969),#15);
#969 = PRESENTATION_STYLE_ASSIGNMENT((#970,#976));
#970 = SURFACE_STYLE_USAGE(.BOTH.,#971);
#971 = SURFACE_SIDE_STYLE('',(#972));
#972 = SURFACE_STYLE_FILL_AREA(#973);
#973 = FILL_AREA_STYLE('',(#974));
#974 = FILL_AREA_STYLE_COLOUR('',#975);
#975 = COLOUR_RGB('',0.447058818107,0.474509808674,0.501960817233);
#976 = CURVE_STYLE('',#977,POSITIVE_LENGTH_MEASURE(0.1),#978);
#977 = DRAUGHTING_PRE_DEFINED_CURVE_FONT('continuous');
#978 = COLOUR_RGB('',9.803921802644E-02,9.803921802644E-02,
  9.803921802644E-02);
ENDSEC;
END-ISO-10303-21;
