ISO-10303-21;
HEADER;
FILE_DESCRIPTION(('FreeCAD Model'),'2;1');
FILE_NAME('Open CASCADE Shape Model','2026-01-25T13:42:34',(''),(''),
  'Open CASCADE STEP processor 7.8','FreeCAD','Unknown');
FILE_SCHEMA(('AUTOMOTIVE_DESIGN { 1 0 10303 214 1 1 1 1 }'));
ENDSEC;
DATA;
#1 = APPLICATION_PROTOCOL_DEFINITION('international standard',
  'automotive_design',2000,#2);
#2 = APPLICATION_CONTEXT(
  'core data for automotive mechanical design processes');
#3 = SHAPE_DEFINITION_REPRESENTATION(#4,#10);
#4 = PRODUCT_DEFINITION_SHAPE('','',#5);
#5 = PRODUCT_DEFINITION('design','',#6,#9);
#6 = PRODUCT_DEFINITION_FORMATION('','',#7);
#7 = PRODUCT('design5-coil-holder','design5-coil-holder','',(#8));
#8 = PRODUCT_CONTEXT('',#2,'mechanical');
#9 = PRODUCT_DEFINITION_CONTEXT('part definition',#2,'design');
#10 = ADVANCED_BREP_SHAPE_REPRESENTATION('',(#11,#15),#1035);
#11 = AXIS2_PLACEMENT_3D('',#12,#13,#14);
#12 = CARTESIAN_POINT('',(0.,0.,0.));
#13 = DIRECTION('',(0.,0.,1.));
#14 = DIRECTION('',(1.,0.,-0.));
#15 = MANIFOLD_SOLID_BREP('',#16);
#16 = CLOSED_SHELL('',(#17,#95,#124,#158,#245,#274,#308,#322,#429,#492,
    #591,#616,#707,#731,#748,#772,#789,#834,#851,#863,#885,#902,#919,
    #936,#977,#994,#1011,#1023));
#17 = ADVANCED_FACE('',(#18),#90,.F.);
#18 = FACE_BOUND('',#19,.T.);
#19 = EDGE_LOOP('',(#20,#29,#37,#46,#55,#64,#73,#82,#89));
#20 = ORIENTED_EDGE('',*,*,#21,.F.);
#21 = EDGE_CURVE('',#22,#22,#24,.T.);
#22 = VERTEX_POINT('',#23);
#23 = CARTESIAN_POINT('',(7.75,0.,10.));
#24 = CIRCLE('',#25,7.75);
#25 = AXIS2_PLACEMENT_3D('',#26,#27,#28);
#26 = CARTESIAN_POINT('',(0.,0.,10.));
#27 = DIRECTION('',(0.,0.,1.));
#28 = DIRECTION('',(1.,0.,0.));
#29 = ORIENTED_EDGE('',*,*,#30,.T.);
#30 = EDGE_CURVE('',#22,#31,#33,.T.);
#31 = VERTEX_POINT('',#32);
#32 = CARTESIAN_POINT('',(7.75,0.,11.5));
#33 = LINE('',#34,#35);
#34 = CARTESIAN_POINT('',(7.75,0.,10.));
#35 = VECTOR('',#36,1.);
#36 = DIRECTION('',(0.,0.,1.));
#37 = ORIENTED_EDGE('',*,*,#38,.T.);
#38 = EDGE_CURVE('',#31,#39,#41,.T.);
#39 = VERTEX_POINT('',#40);
#40 = CARTESIAN_POINT('',(7.487489565936,2.,11.5));
#41 = CIRCLE('',#42,7.75);
#42 = AXIS2_PLACEMENT_3D('',#43,#44,#45);
#43 = CARTESIAN_POINT('',(0.,0.,11.5));
#44 = DIRECTION('',(0.,0.,1.));
#45 = DIRECTION('',(1.,0.,0.));
#46 = ORIENTED_EDGE('',*,*,#47,.T.);
#47 = EDGE_CURVE('',#39,#48,#50,.T.);
#48 = VERTEX_POINT('',#49);
#49 = CARTESIAN_POINT('',(-7.487489565936,2.,11.5));
#50 = CIRCLE('',#51,7.75);
#51 = AXIS2_PLACEMENT_3D('',#52,#53,#54);
#52 = CARTESIAN_POINT('',(0.,0.,11.5));
#53 = DIRECTION('',(0.,0.,1.));
#54 = DIRECTION('',(1.,0.,0.));
#55 = ORIENTED_EDGE('',*,*,#56,.T.);
#56 = EDGE_CURVE('',#48,#57,#59,.T.);
#57 = VERTEX_POINT('',#58);
#58 = CARTESIAN_POINT('',(-7.75,1.694182321512E-10,11.5));
#59 = CIRCLE('',#60,7.75);
#60 = AXIS2_PLACEMENT_3D('',#61,#62,#63);
#61 = CARTESIAN_POINT('',(0.,0.,11.5));
#62 = DIRECTION('',(0.,0.,1.));
#63 = DIRECTION('',(1.,0.,0.));
#64 = ORIENTED_EDGE('',*,*,#65,.T.);
#65 = EDGE_CURVE('',#57,#66,#68,.T.);
#66 = VERTEX_POINT('',#67);
#67 = CARTESIAN_POINT('',(-7.487489565936,-2.,11.5));
#68 = CIRCLE('',#69,7.75);
#69 = AXIS2_PLACEMENT_3D('',#70,#71,#72);
#70 = CARTESIAN_POINT('',(0.,0.,11.5));
#71 = DIRECTION('',(0.,0.,1.));
#72 = DIRECTION('',(1.,0.,0.));
#73 = ORIENTED_EDGE('',*,*,#74,.T.);
#74 = EDGE_CURVE('',#66,#75,#77,.T.);
#75 = VERTEX_POINT('',#76);
#76 = CARTESIAN_POINT('',(7.487489565936,-2.,11.5));
#77 = CIRCLE('',#78,7.75);
#78 = AXIS2_PLACEMENT_3D('',#79,#80,#81);
#79 = CARTESIAN_POINT('',(0.,0.,11.5));
#80 = DIRECTION('',(0.,0.,1.));
#81 = DIRECTION('',(1.,0.,0.));
#82 = ORIENTED_EDGE('',*,*,#83,.T.);
#83 = EDGE_CURVE('',#75,#31,#84,.T.);
#84 = CIRCLE('',#85,7.75);
#85 = AXIS2_PLACEMENT_3D('',#86,#87,#88);
#86 = CARTESIAN_POINT('',(0.,0.,11.5));
#87 = DIRECTION('',(0.,0.,1.));
#88 = DIRECTION('',(1.,0.,0.));
#89 = ORIENTED_EDGE('',*,*,#30,.F.);
#90 = CYLINDRICAL_SURFACE('',#91,7.75);
#91 = AXIS2_PLACEMENT_3D('',#92,#93,#94);
#92 = CARTESIAN_POINT('',(0.,0.,10.));
#93 = DIRECTION('',(-0.,-0.,-1.));
#94 = DIRECTION('',(1.,0.,0.));
#95 = ADVANCED_FACE('',(#96,#116),#119,.F.);
#96 = FACE_BOUND('',#97,.F.);
#97 = EDGE_LOOP('',(#98,#109));
#98 = ORIENTED_EDGE('',*,*,#99,.F.);
#99 = EDGE_CURVE('',#100,#102,#104,.T.);
#100 = VERTEX_POINT('',#101);
#101 = CARTESIAN_POINT('',(8.,0.,10.));
#102 = VERTEX_POINT('',#103);
#103 = CARTESIAN_POINT('',(-8.,1.7763568394E-15,10.));
#104 = CIRCLE('',#105,8.);
#105 = AXIS2_PLACEMENT_3D('',#106,#107,#108);
#106 = CARTESIAN_POINT('',(0.,0.,10.));
#107 = DIRECTION('',(0.,0.,-1.));
#108 = DIRECTION('',(1.,0.,0.));
#109 = ORIENTED_EDGE('',*,*,#110,.F.);
#110 = EDGE_CURVE('',#102,#100,#111,.T.);
#111 = CIRCLE('',#112,8.);
#112 = AXIS2_PLACEMENT_3D('',#113,#114,#115);
#113 = CARTESIAN_POINT('',(0.,0.,10.));
#114 = DIRECTION('',(0.,0.,-1.));
#115 = DIRECTION('',(1.,0.,0.));
#116 = FACE_BOUND('',#117,.F.);
#117 = EDGE_LOOP('',(#118));
#118 = ORIENTED_EDGE('',*,*,#21,.F.);
#119 = PLANE('',#120);
#120 = AXIS2_PLACEMENT_3D('',#121,#122,#123);
#121 = CARTESIAN_POINT('',(-7.057755522784E-16,5.192112833316E-16,10.));
#122 = DIRECTION('',(0.,0.,1.));
#123 = DIRECTION('',(1.,0.,0.));
#124 = ADVANCED_FACE('',(#125),#153,.F.);
#125 = FACE_BOUND('',#126,.F.);
#126 = EDGE_LOOP('',(#127,#128,#129,#136,#145,#152));
#127 = ORIENTED_EDGE('',*,*,#99,.T.);
#128 = ORIENTED_EDGE('',*,*,#110,.T.);
#129 = ORIENTED_EDGE('',*,*,#130,.T.);
#130 = EDGE_CURVE('',#100,#131,#133,.T.);
#131 = VERTEX_POINT('',#132);
#132 = CARTESIAN_POINT('',(8.,0.,8.));
#133 = B_SPLINE_CURVE_WITH_KNOTS('',1,(#134,#135),.UNSPECIFIED.,.F.,.F.,
  (2,2),(-2.,0.),.PIECEWISE_BEZIER_KNOTS.);
#134 = CARTESIAN_POINT('',(8.,0.,10.));
#135 = CARTESIAN_POINT('',(8.,0.,8.));
#136 = ORIENTED_EDGE('',*,*,#137,.F.);
#137 = EDGE_CURVE('',#138,#131,#140,.T.);
#138 = VERTEX_POINT('',#139);
#139 = CARTESIAN_POINT('',(-8.,1.7763568394E-15,8.));
#140 = CIRCLE('',#141,8.);
#141 = AXIS2_PLACEMENT_3D('',#142,#143,#144);
#142 = CARTESIAN_POINT('',(0.,0.,8.));
#143 = DIRECTION('',(0.,0.,-1.));
#144 = DIRECTION('',(1.,0.,0.));
#145 = ORIENTED_EDGE('',*,*,#146,.F.);
#146 = EDGE_CURVE('',#131,#138,#147,.T.);
#147 = CIRCLE('',#148,8.);
#148 = AXIS2_PLACEMENT_3D('',#149,#150,#151);
#149 = CARTESIAN_POINT('',(0.,0.,8.));
#150 = DIRECTION('',(0.,0.,-1.));
#151 = DIRECTION('',(1.,0.,0.));
#152 = ORIENTED_EDGE('',*,*,#130,.F.);
#153 = CYLINDRICAL_SURFACE('',#154,8.);
#154 = AXIS2_PLACEMENT_3D('',#155,#156,#157);
#155 = CARTESIAN_POINT('',(0.,0.,8.));
#156 = DIRECTION('',(0.,0.,-1.));
#157 = DIRECTION('',(1.,0.,0.));
#158 = ADVANCED_FACE('',(#159),#240,.T.);
#159 = FACE_BOUND('',#160,.F.);
#160 = EDGE_LOOP('',(#161,#170,#178,#187,#196,#205,#214,#223,#232,#239)
  );
#161 = ORIENTED_EDGE('',*,*,#162,.F.);
#162 = EDGE_CURVE('',#163,#163,#165,.T.);
#163 = VERTEX_POINT('',#164);
#164 = CARTESIAN_POINT('',(15.5,0.,10.));
#165 = CIRCLE('',#166,15.5);
#166 = AXIS2_PLACEMENT_3D('',#167,#168,#169);
#167 = CARTESIAN_POINT('',(0.,0.,10.));
#168 = DIRECTION('',(0.,0.,1.));
#169 = DIRECTION('',(1.,0.,0.));
#170 = ORIENTED_EDGE('',*,*,#171,.T.);
#171 = EDGE_CURVE('',#163,#172,#174,.T.);
#172 = VERTEX_POINT('',#173);
#173 = CARTESIAN_POINT('',(15.5,0.,11.5));
#174 = LINE('',#175,#176);
#175 = CARTESIAN_POINT('',(15.5,0.,10.));
#176 = VECTOR('',#177,1.);
#177 = DIRECTION('',(0.,0.,1.));
#178 = ORIENTED_EDGE('',*,*,#179,.T.);
#179 = EDGE_CURVE('',#172,#180,#182,.T.);
#180 = VERTEX_POINT('',#181);
#181 = CARTESIAN_POINT('',(9.75,12.049377577286,11.5));
#182 = CIRCLE('',#183,15.5);
#183 = AXIS2_PLACEMENT_3D('',#184,#185,#186);
#184 = CARTESIAN_POINT('',(0.,0.,11.5));
#185 = DIRECTION('',(0.,0.,1.));
#186 = DIRECTION('',(1.,0.,0.));
#187 = ORIENTED_EDGE('',*,*,#188,.T.);
#188 = EDGE_CURVE('',#180,#189,#191,.T.);
#189 = VERTEX_POINT('',#190);
#190 = CARTESIAN_POINT('',(-9.75,12.049377577286,11.5));
#191 = CIRCLE('',#192,15.5);
#192 = AXIS2_PLACEMENT_3D('',#193,#194,#195);
#193 = CARTESIAN_POINT('',(0.,0.,11.5));
#194 = DIRECTION('',(0.,0.,1.));
#195 = DIRECTION('',(1.,0.,0.));
#196 = ORIENTED_EDGE('',*,*,#197,.T.);
#197 = EDGE_CURVE('',#189,#198,#200,.T.);
#198 = VERTEX_POINT('',#199);
#199 = CARTESIAN_POINT('',(-15.37042614893,2.,11.5));
#200 = CIRCLE('',#201,15.5);
#201 = AXIS2_PLACEMENT_3D('',#202,#203,#204);
#202 = CARTESIAN_POINT('',(0.,0.,11.5));
#203 = DIRECTION('',(0.,0.,1.));
#204 = DIRECTION('',(1.,0.,0.));
#205 = ORIENTED_EDGE('',*,*,#206,.T.);
#206 = EDGE_CURVE('',#198,#207,#209,.T.);
#207 = VERTEX_POINT('',#208);
#208 = CARTESIAN_POINT('',(-15.37042614893,-2.,11.5));
#209 = CIRCLE('',#210,15.5);
#210 = AXIS2_PLACEMENT_3D('',#211,#212,#213);
#211 = CARTESIAN_POINT('',(0.,0.,11.5));
#212 = DIRECTION('',(0.,0.,1.));
#213 = DIRECTION('',(1.,0.,0.));
#214 = ORIENTED_EDGE('',*,*,#215,.T.);
#215 = EDGE_CURVE('',#207,#216,#218,.T.);
#216 = VERTEX_POINT('',#217);
#217 = CARTESIAN_POINT('',(-9.75,-12.04937757728,11.5));
#218 = CIRCLE('',#219,15.5);
#219 = AXIS2_PLACEMENT_3D('',#220,#221,#222);
#220 = CARTESIAN_POINT('',(0.,0.,11.5));
#221 = DIRECTION('',(0.,0.,1.));
#222 = DIRECTION('',(1.,0.,0.));
#223 = ORIENTED_EDGE('',*,*,#224,.T.);
#224 = EDGE_CURVE('',#216,#225,#227,.T.);
#225 = VERTEX_POINT('',#226);
#226 = CARTESIAN_POINT('',(9.75,-12.04937757728,11.5));
#227 = CIRCLE('',#228,15.5);
#228 = AXIS2_PLACEMENT_3D('',#229,#230,#231);
#229 = CARTESIAN_POINT('',(0.,0.,11.5));
#230 = DIRECTION('',(0.,0.,1.));
#231 = DIRECTION('',(1.,0.,0.));
#232 = ORIENTED_EDGE('',*,*,#233,.T.);
#233 = EDGE_CURVE('',#225,#172,#234,.T.);
#234 = CIRCLE('',#235,15.5);
#235 = AXIS2_PLACEMENT_3D('',#236,#237,#238);
#236 = CARTESIAN_POINT('',(0.,0.,11.5));
#237 = DIRECTION('',(0.,0.,1.));
#238 = DIRECTION('',(1.,0.,0.));
#239 = ORIENTED_EDGE('',*,*,#171,.F.);
#240 = CYLINDRICAL_SURFACE('',#241,15.5);
#241 = AXIS2_PLACEMENT_3D('',#242,#243,#244);
#242 = CARTESIAN_POINT('',(0.,0.,10.));
#243 = DIRECTION('',(-0.,-0.,-1.));
#244 = DIRECTION('',(1.,0.,0.));
#245 = ADVANCED_FACE('',(#246,#249),#269,.F.);
#246 = FACE_BOUND('',#247,.F.);
#247 = EDGE_LOOP('',(#248));
#248 = ORIENTED_EDGE('',*,*,#162,.T.);
#249 = FACE_BOUND('',#250,.F.);
#250 = EDGE_LOOP('',(#251,#262));
#251 = ORIENTED_EDGE('',*,*,#252,.T.);
#252 = EDGE_CURVE('',#253,#255,#257,.T.);
#253 = VERTEX_POINT('',#254);
#254 = CARTESIAN_POINT('',(10.9,0.,10.));
#255 = VERTEX_POINT('',#256);
#256 = CARTESIAN_POINT('',(-10.9,2.420286193683E-15,10.));
#257 = CIRCLE('',#258,10.9);
#258 = AXIS2_PLACEMENT_3D('',#259,#260,#261);
#259 = CARTESIAN_POINT('',(0.,0.,10.));
#260 = DIRECTION('',(0.,0.,-1.));
#261 = DIRECTION('',(1.,0.,0.));
#262 = ORIENTED_EDGE('',*,*,#263,.T.);
#263 = EDGE_CURVE('',#255,#253,#264,.T.);
#264 = CIRCLE('',#265,10.9);
#265 = AXIS2_PLACEMENT_3D('',#266,#267,#268);
#266 = CARTESIAN_POINT('',(0.,0.,10.));
#267 = DIRECTION('',(0.,0.,-1.));
#268 = DIRECTION('',(1.,0.,0.));
#269 = PLANE('',#270);
#270 = AXIS2_PLACEMENT_3D('',#271,#272,#273);
#271 = CARTESIAN_POINT('',(-7.057755522784E-16,5.192112833316E-16,10.));
#272 = DIRECTION('',(0.,0.,1.));
#273 = DIRECTION('',(1.,0.,0.));
#274 = ADVANCED_FACE('',(#275),#303,.T.);
#275 = FACE_BOUND('',#276,.T.);
#276 = EDGE_LOOP('',(#277,#288,#295,#300,#301,#302));
#277 = ORIENTED_EDGE('',*,*,#278,.F.);
#278 = EDGE_CURVE('',#279,#281,#283,.T.);
#279 = VERTEX_POINT('',#280);
#280 = CARTESIAN_POINT('',(-10.9,2.420286193683E-15,8.));
#281 = VERTEX_POINT('',#282);
#282 = CARTESIAN_POINT('',(10.9,0.,8.));
#283 = CIRCLE('',#284,10.9);
#284 = AXIS2_PLACEMENT_3D('',#285,#286,#287);
#285 = CARTESIAN_POINT('',(0.,0.,8.));
#286 = DIRECTION('',(0.,0.,-1.));
#287 = DIRECTION('',(1.,0.,0.));
#288 = ORIENTED_EDGE('',*,*,#289,.F.);
#289 = EDGE_CURVE('',#281,#279,#290,.T.);
#290 = CIRCLE('',#291,10.9);
#291 = AXIS2_PLACEMENT_3D('',#292,#293,#294);
#292 = CARTESIAN_POINT('',(0.,0.,8.));
#293 = DIRECTION('',(0.,0.,-1.));
#294 = DIRECTION('',(1.,0.,0.));
#295 = ORIENTED_EDGE('',*,*,#296,.F.);
#296 = EDGE_CURVE('',#253,#281,#297,.T.);
#297 = B_SPLINE_CURVE_WITH_KNOTS('',1,(#298,#299),.UNSPECIFIED.,.F.,.F.,
  (2,2),(-2.,0.),.PIECEWISE_BEZIER_KNOTS.);
#298 = CARTESIAN_POINT('',(10.9,2.669730022141E-15,10.));
#299 = CARTESIAN_POINT('',(10.9,2.669730022141E-15,8.));
#300 = ORIENTED_EDGE('',*,*,#252,.T.);
#301 = ORIENTED_EDGE('',*,*,#263,.T.);
#302 = ORIENTED_EDGE('',*,*,#296,.T.);
#303 = CYLINDRICAL_SURFACE('',#304,10.9);
#304 = AXIS2_PLACEMENT_3D('',#305,#306,#307);
#305 = CARTESIAN_POINT('',(0.,0.,8.));
#306 = DIRECTION('',(0.,0.,-1.));
#307 = DIRECTION('',(1.,0.,0.));
#308 = ADVANCED_FACE('',(#309,#313),#317,.F.);
#309 = FACE_BOUND('',#310,.T.);
#310 = EDGE_LOOP('',(#311,#312));
#311 = ORIENTED_EDGE('',*,*,#289,.T.);
#312 = ORIENTED_EDGE('',*,*,#278,.T.);
#313 = FACE_BOUND('',#314,.F.);
#314 = EDGE_LOOP('',(#315,#316));
#315 = ORIENTED_EDGE('',*,*,#146,.T.);
#316 = ORIENTED_EDGE('',*,*,#137,.T.);
#317 = PLANE('',#318);
#318 = AXIS2_PLACEMENT_3D('',#319,#320,#321);
#319 = CARTESIAN_POINT('',(-2.89405319056E-16,-6.116016957804E-16,8.));
#320 = DIRECTION('',(0.,0.,1.));
#321 = DIRECTION('',(1.,0.,0.));
#322 = ADVANCED_FACE('',(#323,#332,#340,#382),#424,.T.);
#323 = FACE_BOUND('',#324,.T.);
#324 = EDGE_LOOP('',(#325,#326,#327,#328,#329,#330,#331));
#325 = ORIENTED_EDGE('',*,*,#179,.T.);
#326 = ORIENTED_EDGE('',*,*,#188,.T.);
#327 = ORIENTED_EDGE('',*,*,#197,.T.);
#328 = ORIENTED_EDGE('',*,*,#206,.T.);
#329 = ORIENTED_EDGE('',*,*,#215,.T.);
#330 = ORIENTED_EDGE('',*,*,#224,.T.);
#331 = ORIENTED_EDGE('',*,*,#233,.T.);
#332 = FACE_BOUND('',#333,.T.);
#333 = EDGE_LOOP('',(#334,#335,#336,#337,#338,#339));
#334 = ORIENTED_EDGE('',*,*,#47,.F.);
#335 = ORIENTED_EDGE('',*,*,#38,.F.);
#336 = ORIENTED_EDGE('',*,*,#83,.F.);
#337 = ORIENTED_EDGE('',*,*,#74,.F.);
#338 = ORIENTED_EDGE('',*,*,#65,.F.);
#339 = ORIENTED_EDGE('',*,*,#56,.F.);
#340 = FACE_BOUND('',#341,.T.);
#341 = EDGE_LOOP('',(#342,#352,#360,#368,#376));
#342 = ORIENTED_EDGE('',*,*,#343,.T.);
#343 = EDGE_CURVE('',#344,#346,#348,.T.);
#344 = VERTEX_POINT('',#345);
#345 = CARTESIAN_POINT('',(9.75,2.,11.5));
#346 = VERTEX_POINT('',#347);
#347 = CARTESIAN_POINT('',(9.75,-2.,11.5));
#348 = LINE('',#349,#350);
#349 = CARTESIAN_POINT('',(9.75,12.049377577286,11.5));
#350 = VECTOR('',#351,1.);
#351 = DIRECTION('',(-2.22044604925E-16,-1.,-2.465190328816E-32));
#352 = ORIENTED_EDGE('',*,*,#353,.T.);
#353 = EDGE_CURVE('',#346,#354,#356,.T.);
#354 = VERTEX_POINT('',#355);
#355 = CARTESIAN_POINT('',(7.75,-2.,11.5));
#356 = LINE('',#357,#358);
#357 = CARTESIAN_POINT('',(9.75,-2.,11.5));
#358 = VECTOR('',#359,1.);
#359 = DIRECTION('',(-1.,-0.,-0.));
#360 = ORIENTED_EDGE('',*,*,#361,.T.);
#361 = EDGE_CURVE('',#354,#362,#364,.T.);
#362 = VERTEX_POINT('',#363);
#363 = CARTESIAN_POINT('',(7.75,0.,11.5));
#364 = LINE('',#365,#366);
#365 = CARTESIAN_POINT('',(7.75,-12.04937757728,11.5));
#366 = VECTOR('',#367,1.);
#367 = DIRECTION('',(2.22044604925E-16,1.,2.465190328816E-32));
#368 = ORIENTED_EDGE('',*,*,#369,.T.);
#369 = EDGE_CURVE('',#362,#370,#372,.T.);
#370 = VERTEX_POINT('',#371);
#371 = CARTESIAN_POINT('',(7.75,2.,11.5));
#372 = LINE('',#373,#374);
#373 = CARTESIAN_POINT('',(7.75,-12.04937757728,11.5));
#374 = VECTOR('',#375,1.);
#375 = DIRECTION('',(2.22044604925E-16,1.,2.465190328816E-32));
#376 = ORIENTED_EDGE('',*,*,#377,.F.);
#377 = EDGE_CURVE('',#344,#370,#378,.T.);
#378 = LINE('',#379,#380);
#379 = CARTESIAN_POINT('',(9.75,2.,11.5));
#380 = VECTOR('',#381,1.);
#381 = DIRECTION('',(-1.,-0.,-0.));
#382 = FACE_BOUND('',#383,.T.);
#383 = EDGE_LOOP('',(#384,#394,#402,#410,#418));
#384 = ORIENTED_EDGE('',*,*,#385,.F.);
#385 = EDGE_CURVE('',#386,#388,#390,.T.);
#386 = VERTEX_POINT('',#387);
#387 = CARTESIAN_POINT('',(-7.75,1.694182321512E-10,11.5));
#388 = VERTEX_POINT('',#389);
#389 = CARTESIAN_POINT('',(-7.75,2.,11.5));
#390 = LINE('',#391,#392);
#391 = CARTESIAN_POINT('',(-7.75,-12.04937757728,11.5));
#392 = VECTOR('',#393,1.);
#393 = DIRECTION('',(0.,1.,0.));
#394 = ORIENTED_EDGE('',*,*,#395,.F.);
#395 = EDGE_CURVE('',#396,#386,#398,.T.);
#396 = VERTEX_POINT('',#397);
#397 = CARTESIAN_POINT('',(-7.75,-2.,11.5));
#398 = LINE('',#399,#400);
#399 = CARTESIAN_POINT('',(-7.75,-12.04937757728,11.5));
#400 = VECTOR('',#401,1.);
#401 = DIRECTION('',(0.,1.,0.));
#402 = ORIENTED_EDGE('',*,*,#403,.T.);
#403 = EDGE_CURVE('',#396,#404,#406,.T.);
#404 = VERTEX_POINT('',#405);
#405 = CARTESIAN_POINT('',(-9.75,-2.,11.5));
#406 = LINE('',#407,#408);
#407 = CARTESIAN_POINT('',(9.75,-2.,11.5));
#408 = VECTOR('',#409,1.);
#409 = DIRECTION('',(-1.,-0.,-0.));
#410 = ORIENTED_EDGE('',*,*,#411,.F.);
#411 = EDGE_CURVE('',#412,#404,#414,.T.);
#412 = VERTEX_POINT('',#413);
#413 = CARTESIAN_POINT('',(-9.75,2.,11.5));
#414 = LINE('',#415,#416);
#415 = CARTESIAN_POINT('',(-9.75,12.049377577286,11.5));
#416 = VECTOR('',#417,1.);
#417 = DIRECTION('',(0.,-1.,0.));
#418 = ORIENTED_EDGE('',*,*,#419,.F.);
#419 = EDGE_CURVE('',#388,#412,#420,.T.);
#420 = LINE('',#421,#422);
#421 = CARTESIAN_POINT('',(9.75,2.,11.5));
#422 = VECTOR('',#423,1.);
#423 = DIRECTION('',(-1.,-0.,-0.));
#424 = PLANE('',#425);
#425 = AXIS2_PLACEMENT_3D('',#426,#427,#428);
#426 = CARTESIAN_POINT('',(-1.595699581382E-02,6.070446575513E-16,11.5)
  );
#427 = DIRECTION('',(0.,0.,1.));
#428 = DIRECTION('',(1.,0.,0.));
#429 = ADVANCED_FACE('',(#430),#487,.F.);
#430 = FACE_BOUND('',#431,.T.);
#431 = EDGE_LOOP('',(#432,#442,#450,#456,#457,#465,#473,#481));
#432 = ORIENTED_EDGE('',*,*,#433,.F.);
#433 = EDGE_CURVE('',#434,#436,#438,.T.);
#434 = VERTEX_POINT('',#435);
#435 = CARTESIAN_POINT('',(9.75,-12.04937757728,14.8));
#436 = VERTEX_POINT('',#437);
#437 = CARTESIAN_POINT('',(9.75,-12.04937757728,31.8));
#438 = LINE('',#439,#440);
#439 = CARTESIAN_POINT('',(9.75,-12.04937757728,11.5));
#440 = VECTOR('',#441,1.);
#441 = DIRECTION('',(-2.22044604925E-16,2.465190328816E-32,1.));
#442 = ORIENTED_EDGE('',*,*,#443,.F.);
#443 = EDGE_CURVE('',#444,#434,#446,.T.);
#444 = VERTEX_POINT('',#445);
#445 = CARTESIAN_POINT('',(9.75,-2.,14.8));
#446 = LINE('',#447,#448);
#447 = CARTESIAN_POINT('',(9.75,-2.,14.8));
#448 = VECTOR('',#449,1.);
#449 = DIRECTION('',(0.,-1.,0.));
#450 = ORIENTED_EDGE('',*,*,#451,.F.);
#451 = EDGE_CURVE('',#346,#444,#452,.T.);
#452 = LINE('',#453,#454);
#453 = CARTESIAN_POINT('',(9.75,-2.,11.5));
#454 = VECTOR('',#455,1.);
#455 = DIRECTION('',(0.,0.,1.));
#456 = ORIENTED_EDGE('',*,*,#343,.F.);
#457 = ORIENTED_EDGE('',*,*,#458,.F.);
#458 = EDGE_CURVE('',#459,#344,#461,.T.);
#459 = VERTEX_POINT('',#460);
#460 = CARTESIAN_POINT('',(9.75,2.,14.8));
#461 = LINE('',#462,#463);
#462 = CARTESIAN_POINT('',(9.75,2.,14.8));
#463 = VECTOR('',#464,1.);
#464 = DIRECTION('',(0.,0.,-1.));
#465 = ORIENTED_EDGE('',*,*,#466,.F.);
#466 = EDGE_CURVE('',#467,#459,#469,.T.);
#467 = VERTEX_POINT('',#468);
#468 = CARTESIAN_POINT('',(9.75,12.049377577286,14.8));
#469 = LINE('',#470,#471);
#470 = CARTESIAN_POINT('',(9.75,12.049377577286,14.8));
#471 = VECTOR('',#472,1.);
#472 = DIRECTION('',(0.,-1.,0.));
#473 = ORIENTED_EDGE('',*,*,#474,.T.);
#474 = EDGE_CURVE('',#467,#475,#477,.T.);
#475 = VERTEX_POINT('',#476);
#476 = CARTESIAN_POINT('',(9.75,12.049377577286,31.8));
#477 = LINE('',#478,#479);
#478 = CARTESIAN_POINT('',(9.75,12.049377577286,11.5));
#479 = VECTOR('',#480,1.);
#480 = DIRECTION('',(-2.22044604925E-16,2.465190328816E-32,1.));
#481 = ORIENTED_EDGE('',*,*,#482,.T.);
#482 = EDGE_CURVE('',#475,#436,#483,.T.);
#483 = LINE('',#484,#485);
#484 = CARTESIAN_POINT('',(9.75,12.049377577286,31.8));
#485 = VECTOR('',#486,1.);
#486 = DIRECTION('',(-2.22044604925E-16,-1.,-2.465190328816E-32));
#487 = PLANE('',#488);
#488 = AXIS2_PLACEMENT_3D('',#489,#490,#491);
#489 = CARTESIAN_POINT('',(9.75,12.049377577286,11.5));
#490 = DIRECTION('',(-1.,2.22044604925E-16,-2.22044604925E-16));
#491 = DIRECTION('',(2.22044604925E-16,1.,2.465190328816E-32));
#492 = ADVANCED_FACE('',(#493),#586,.T.);
#493 = FACE_BOUND('',#494,.T.);
#494 = EDGE_LOOP('',(#495,#505,#513,#521,#530,#538,#547,#555,#561,#562,
    #571,#579));
#495 = ORIENTED_EDGE('',*,*,#496,.F.);
#496 = EDGE_CURVE('',#497,#499,#501,.T.);
#497 = VERTEX_POINT('',#498);
#498 = CARTESIAN_POINT('',(-9.75,-12.04937757728,14.8));
#499 = VERTEX_POINT('',#500);
#500 = CARTESIAN_POINT('',(-9.75,-12.04937757728,31.8));
#501 = LINE('',#502,#503);
#502 = CARTESIAN_POINT('',(-9.75,-12.04937757728,11.5));
#503 = VECTOR('',#504,1.);
#504 = DIRECTION('',(0.,0.,1.));
#505 = ORIENTED_EDGE('',*,*,#506,.F.);
#506 = EDGE_CURVE('',#507,#497,#509,.T.);
#507 = VERTEX_POINT('',#508);
#508 = CARTESIAN_POINT('',(-7.75,-12.04937757728,14.8));
#509 = LINE('',#510,#511);
#510 = CARTESIAN_POINT('',(9.75,-12.04937757728,14.8));
#511 = VECTOR('',#512,1.);
#512 = DIRECTION('',(-1.,-0.,-0.));
#513 = ORIENTED_EDGE('',*,*,#514,.T.);
#514 = EDGE_CURVE('',#507,#515,#517,.T.);
#515 = VERTEX_POINT('',#516);
#516 = CARTESIAN_POINT('',(-7.75,-12.04937757728,29.8));
#517 = LINE('',#518,#519);
#518 = CARTESIAN_POINT('',(-7.75,-12.04937757728,11.5));
#519 = VECTOR('',#520,1.);
#520 = DIRECTION('',(0.,0.,1.));
#521 = ORIENTED_EDGE('',*,*,#522,.T.);
#522 = EDGE_CURVE('',#515,#523,#525,.T.);
#523 = VERTEX_POINT('',#524);
#524 = CARTESIAN_POINT('',(-4.75,-12.04937757728,32.8));
#525 = CIRCLE('',#526,3.);
#526 = AXIS2_PLACEMENT_3D('',#527,#528,#529);
#527 = CARTESIAN_POINT('',(-4.75,-12.04937757728,29.8));
#528 = DIRECTION('',(0.,1.,0.));
#529 = DIRECTION('',(0.,0.,1.));
#530 = ORIENTED_EDGE('',*,*,#531,.T.);
#531 = EDGE_CURVE('',#523,#532,#534,.T.);
#532 = VERTEX_POINT('',#533);
#533 = CARTESIAN_POINT('',(4.75,-12.04937757728,32.8));
#534 = LINE('',#535,#536);
#535 = CARTESIAN_POINT('',(-7.75,-12.04937757728,32.8));
#536 = VECTOR('',#537,1.);
#537 = DIRECTION('',(1.,0.,0.));
#538 = ORIENTED_EDGE('',*,*,#539,.F.);
#539 = EDGE_CURVE('',#540,#532,#542,.T.);
#540 = VERTEX_POINT('',#541);
#541 = CARTESIAN_POINT('',(7.75,-12.04937757728,29.8));
#542 = CIRCLE('',#543,3.);
#543 = AXIS2_PLACEMENT_3D('',#544,#545,#546);
#544 = CARTESIAN_POINT('',(4.75,-12.04937757728,29.8));
#545 = DIRECTION('',(-2.22044604925E-16,-1.,-2.465190328816E-32));
#546 = DIRECTION('',(-1.,2.22044604925E-16,0.));
#547 = ORIENTED_EDGE('',*,*,#548,.F.);
#548 = EDGE_CURVE('',#549,#540,#551,.T.);
#549 = VERTEX_POINT('',#550);
#550 = CARTESIAN_POINT('',(7.75,-12.04937757728,14.8));
#551 = LINE('',#552,#553);
#552 = CARTESIAN_POINT('',(7.75,-12.04937757728,11.5));
#553 = VECTOR('',#554,1.);
#554 = DIRECTION('',(-2.22044604925E-16,2.465190328816E-32,1.));
#555 = ORIENTED_EDGE('',*,*,#556,.F.);
#556 = EDGE_CURVE('',#434,#549,#557,.T.);
#557 = LINE('',#558,#559);
#558 = CARTESIAN_POINT('',(9.75,-12.04937757728,14.8));
#559 = VECTOR('',#560,1.);
#560 = DIRECTION('',(-1.,-0.,-0.));
#561 = ORIENTED_EDGE('',*,*,#433,.T.);
#562 = ORIENTED_EDGE('',*,*,#563,.T.);
#563 = EDGE_CURVE('',#436,#564,#566,.T.);
#564 = VERTEX_POINT('',#565);
#565 = CARTESIAN_POINT('',(6.75,-12.04937757728,34.8));
#566 = CIRCLE('',#567,3.);
#567 = AXIS2_PLACEMENT_3D('',#568,#569,#570);
#568 = CARTESIAN_POINT('',(6.75,-12.04937757728,31.8));
#569 = DIRECTION('',(-2.22044604925E-16,-1.,-2.465190328816E-32));
#570 = DIRECTION('',(1.,-2.22044604925E-16,0.));
#571 = ORIENTED_EDGE('',*,*,#572,.T.);
#572 = EDGE_CURVE('',#564,#573,#575,.T.);
#573 = VERTEX_POINT('',#574);
#574 = CARTESIAN_POINT('',(-6.75,-12.04937757728,34.8));
#575 = LINE('',#576,#577);
#576 = CARTESIAN_POINT('',(4.875,-12.04937757728,34.8));
#577 = VECTOR('',#578,1.);
#578 = DIRECTION('',(-1.,2.22044604925E-16,-2.22044604925E-16));
#579 = ORIENTED_EDGE('',*,*,#580,.F.);
#580 = EDGE_CURVE('',#499,#573,#581,.T.);
#581 = CIRCLE('',#582,3.);
#582 = AXIS2_PLACEMENT_3D('',#583,#584,#585);
#583 = CARTESIAN_POINT('',(-6.75,-12.04937757728,31.8));
#584 = DIRECTION('',(-0.,1.,0.));
#585 = DIRECTION('',(0.,0.,-1.));
#586 = PLANE('',#587);
#587 = AXIS2_PLACEMENT_3D('',#588,#589,#590);
#588 = CARTESIAN_POINT('',(-4.156841277848E-15,-12.04937757728,
    25.392979719189));
#589 = DIRECTION('',(-0.,-1.,-0.));
#590 = DIRECTION('',(0.,0.,-1.));
#591 = ADVANCED_FACE('',(#592),#611,.T.);
#592 = FACE_BOUND('',#593,.T.);
#593 = EDGE_LOOP('',(#594,#603,#609,#610));
#594 = ORIENTED_EDGE('',*,*,#595,.T.);
#595 = EDGE_CURVE('',#475,#596,#598,.T.);
#596 = VERTEX_POINT('',#597);
#597 = CARTESIAN_POINT('',(6.75,12.049377577286,34.8));
#598 = CIRCLE('',#599,3.);
#599 = AXIS2_PLACEMENT_3D('',#600,#601,#602);
#600 = CARTESIAN_POINT('',(6.75,12.049377577286,31.8));
#601 = DIRECTION('',(-2.22044604925E-16,-1.,-2.465190328816E-32));
#602 = DIRECTION('',(1.,-2.22044604925E-16,0.));
#603 = ORIENTED_EDGE('',*,*,#604,.T.);
#604 = EDGE_CURVE('',#596,#564,#605,.T.);
#605 = LINE('',#606,#607);
#606 = CARTESIAN_POINT('',(6.75,12.049377577286,34.8));
#607 = VECTOR('',#608,1.);
#608 = DIRECTION('',(-2.22044604925E-16,-1.,-2.465190328816E-32));
#609 = ORIENTED_EDGE('',*,*,#563,.F.);
#610 = ORIENTED_EDGE('',*,*,#482,.F.);
#611 = CYLINDRICAL_SURFACE('',#612,3.);
#612 = AXIS2_PLACEMENT_3D('',#613,#614,#615);
#613 = CARTESIAN_POINT('',(6.75,12.049377577286,31.8));
#614 = DIRECTION('',(-2.22044604925E-16,-1.,-2.465190328816E-32));
#615 = DIRECTION('',(1.,-2.22044604925E-16,2.22044604925E-16));
#616 = ADVANCED_FACE('',(#617),#702,.T.);
#617 = FACE_BOUND('',#618,.T.);
#618 = EDGE_LOOP('',(#619,#627,#635,#644,#652,#661,#669,#677,#685,#694,
    #700,#701));
#619 = ORIENTED_EDGE('',*,*,#620,.T.);
#620 = EDGE_CURVE('',#467,#621,#623,.T.);
#621 = VERTEX_POINT('',#622);
#622 = CARTESIAN_POINT('',(7.75,12.049377577286,14.8));
#623 = LINE('',#624,#625);
#624 = CARTESIAN_POINT('',(9.75,12.049377577286,14.8));
#625 = VECTOR('',#626,1.);
#626 = DIRECTION('',(-1.,-0.,-0.));
#627 = ORIENTED_EDGE('',*,*,#628,.T.);
#628 = EDGE_CURVE('',#621,#629,#631,.T.);
#629 = VERTEX_POINT('',#630);
#630 = CARTESIAN_POINT('',(7.75,12.049377577286,29.8));
#631 = LINE('',#632,#633);
#632 = CARTESIAN_POINT('',(7.75,12.049377577286,11.5));
#633 = VECTOR('',#634,1.);
#634 = DIRECTION('',(-2.22044604925E-16,2.465190328816E-32,1.));
#635 = ORIENTED_EDGE('',*,*,#636,.T.);
#636 = EDGE_CURVE('',#629,#637,#639,.T.);
#637 = VERTEX_POINT('',#638);
#638 = CARTESIAN_POINT('',(4.75,12.049377577286,32.8));
#639 = CIRCLE('',#640,3.);
#640 = AXIS2_PLACEMENT_3D('',#641,#642,#643);
#641 = CARTESIAN_POINT('',(4.75,12.049377577286,29.8));
#642 = DIRECTION('',(-2.22044604925E-16,-1.,-2.465190328816E-32));
#643 = DIRECTION('',(-1.,2.22044604925E-16,0.));
#644 = ORIENTED_EDGE('',*,*,#645,.T.);
#645 = EDGE_CURVE('',#637,#646,#648,.T.);
#646 = VERTEX_POINT('',#647);
#647 = CARTESIAN_POINT('',(-4.75,12.049377577286,32.8));
#648 = LINE('',#649,#650);
#649 = CARTESIAN_POINT('',(7.75,12.049377577286,32.8));
#650 = VECTOR('',#651,1.);
#651 = DIRECTION('',(-1.,2.22044604925E-16,-2.22044604925E-16));
#652 = ORIENTED_EDGE('',*,*,#653,.F.);
#653 = EDGE_CURVE('',#654,#646,#656,.T.);
#654 = VERTEX_POINT('',#655);
#655 = CARTESIAN_POINT('',(-7.75,12.049377577286,29.8));
#656 = CIRCLE('',#657,3.);
#657 = AXIS2_PLACEMENT_3D('',#658,#659,#660);
#658 = CARTESIAN_POINT('',(-4.75,12.049377577286,29.8));
#659 = DIRECTION('',(0.,1.,0.));
#660 = DIRECTION('',(0.,0.,1.));
#661 = ORIENTED_EDGE('',*,*,#662,.F.);
#662 = EDGE_CURVE('',#663,#654,#665,.T.);
#663 = VERTEX_POINT('',#664);
#664 = CARTESIAN_POINT('',(-7.75,12.049377577286,14.8));
#665 = LINE('',#666,#667);
#666 = CARTESIAN_POINT('',(-7.75,12.049377577286,11.5));
#667 = VECTOR('',#668,1.);
#668 = DIRECTION('',(0.,0.,1.));
#669 = ORIENTED_EDGE('',*,*,#670,.T.);
#670 = EDGE_CURVE('',#663,#671,#673,.T.);
#671 = VERTEX_POINT('',#672);
#672 = CARTESIAN_POINT('',(-9.75,12.049377577286,14.8));
#673 = LINE('',#674,#675);
#674 = CARTESIAN_POINT('',(9.75,12.049377577286,14.8));
#675 = VECTOR('',#676,1.);
#676 = DIRECTION('',(-1.,-0.,-0.));
#677 = ORIENTED_EDGE('',*,*,#678,.T.);
#678 = EDGE_CURVE('',#671,#679,#681,.T.);
#679 = VERTEX_POINT('',#680);
#680 = CARTESIAN_POINT('',(-9.75,12.049377577286,31.8));
#681 = LINE('',#682,#683);
#682 = CARTESIAN_POINT('',(-9.75,12.049377577286,11.5));
#683 = VECTOR('',#684,1.);
#684 = DIRECTION('',(0.,0.,1.));
#685 = ORIENTED_EDGE('',*,*,#686,.T.);
#686 = EDGE_CURVE('',#679,#687,#689,.T.);
#687 = VERTEX_POINT('',#688);
#688 = CARTESIAN_POINT('',(-6.75,12.049377577286,34.8));
#689 = CIRCLE('',#690,3.);
#690 = AXIS2_PLACEMENT_3D('',#691,#692,#693);
#691 = CARTESIAN_POINT('',(-6.75,12.049377577286,31.8));
#692 = DIRECTION('',(-0.,1.,0.));
#693 = DIRECTION('',(0.,0.,-1.));
#694 = ORIENTED_EDGE('',*,*,#695,.F.);
#695 = EDGE_CURVE('',#596,#687,#696,.T.);
#696 = LINE('',#697,#698);
#697 = CARTESIAN_POINT('',(-3.875,12.049377577286,34.8));
#698 = VECTOR('',#699,1.);
#699 = DIRECTION('',(-1.,0.,0.));
#700 = ORIENTED_EDGE('',*,*,#595,.F.);
#701 = ORIENTED_EDGE('',*,*,#474,.F.);
#702 = PLANE('',#703);
#703 = AXIS2_PLACEMENT_3D('',#704,#705,#706);
#704 = CARTESIAN_POINT('',(-8.867928059408E-16,12.049377577286,
    25.392979719189));
#705 = DIRECTION('',(0.,1.,0.));
#706 = DIRECTION('',(0.,0.,1.));
#707 = ADVANCED_FACE('',(#708),#726,.F.);
#708 = FACE_BOUND('',#709,.F.);
#709 = EDGE_LOOP('',(#710,#711,#712,#720));
#710 = ORIENTED_EDGE('',*,*,#466,.F.);
#711 = ORIENTED_EDGE('',*,*,#620,.T.);
#712 = ORIENTED_EDGE('',*,*,#713,.F.);
#713 = EDGE_CURVE('',#714,#621,#716,.T.);
#714 = VERTEX_POINT('',#715);
#715 = CARTESIAN_POINT('',(7.75,2.,14.8));
#716 = LINE('',#717,#718);
#717 = CARTESIAN_POINT('',(7.75,-1.7763568394E-15,14.8));
#718 = VECTOR('',#719,1.);
#719 = DIRECTION('',(2.22044604925E-16,1.,0.));
#720 = ORIENTED_EDGE('',*,*,#721,.F.);
#721 = EDGE_CURVE('',#459,#714,#722,.T.);
#722 = LINE('',#723,#724);
#723 = CARTESIAN_POINT('',(9.75,2.,14.8));
#724 = VECTOR('',#725,1.);
#725 = DIRECTION('',(-1.,-0.,-0.));
#726 = PLANE('',#727);
#727 = AXIS2_PLACEMENT_3D('',#728,#729,#730);
#728 = CARTESIAN_POINT('',(9.75,12.049377577286,14.8));
#729 = DIRECTION('',(0.,0.,1.));
#730 = DIRECTION('',(0.,-1.,0.));
#731 = ADVANCED_FACE('',(#732),#743,.F.);
#732 = FACE_BOUND('',#733,.F.);
#733 = EDGE_LOOP('',(#734,#735,#736,#742));
#734 = ORIENTED_EDGE('',*,*,#458,.F.);
#735 = ORIENTED_EDGE('',*,*,#721,.T.);
#736 = ORIENTED_EDGE('',*,*,#737,.F.);
#737 = EDGE_CURVE('',#370,#714,#738,.T.);
#738 = LINE('',#739,#740);
#739 = CARTESIAN_POINT('',(7.75,2.,13.15));
#740 = VECTOR('',#741,1.);
#741 = DIRECTION('',(-2.22044604925E-16,0.,1.));
#742 = ORIENTED_EDGE('',*,*,#377,.F.);
#743 = PLANE('',#744);
#744 = AXIS2_PLACEMENT_3D('',#745,#746,#747);
#745 = CARTESIAN_POINT('',(9.75,2.,14.8));
#746 = DIRECTION('',(0.,-1.,0.));
#747 = DIRECTION('',(0.,0.,-1.));
#748 = ADVANCED_FACE('',(#749),#767,.F.);
#749 = FACE_BOUND('',#750,.F.);
#750 = EDGE_LOOP('',(#751,#752,#753,#761));
#751 = ORIENTED_EDGE('',*,*,#451,.F.);
#752 = ORIENTED_EDGE('',*,*,#353,.T.);
#753 = ORIENTED_EDGE('',*,*,#754,.F.);
#754 = EDGE_CURVE('',#755,#354,#757,.T.);
#755 = VERTEX_POINT('',#756);
#756 = CARTESIAN_POINT('',(7.75,-2.,14.8));
#757 = LINE('',#758,#759);
#758 = CARTESIAN_POINT('',(7.75,-2.,11.5));
#759 = VECTOR('',#760,1.);
#760 = DIRECTION('',(2.22044604925E-16,0.,-1.));
#761 = ORIENTED_EDGE('',*,*,#762,.F.);
#762 = EDGE_CURVE('',#444,#755,#763,.T.);
#763 = LINE('',#764,#765);
#764 = CARTESIAN_POINT('',(9.75,-2.,14.8));
#765 = VECTOR('',#766,1.);
#766 = DIRECTION('',(-1.,-0.,-0.));
#767 = PLANE('',#768);
#768 = AXIS2_PLACEMENT_3D('',#769,#770,#771);
#769 = CARTESIAN_POINT('',(9.75,-2.,11.5));
#770 = DIRECTION('',(0.,1.,0.));
#771 = DIRECTION('',(0.,0.,1.));
#772 = ADVANCED_FACE('',(#773),#784,.F.);
#773 = FACE_BOUND('',#774,.F.);
#774 = EDGE_LOOP('',(#775,#776,#777,#783));
#775 = ORIENTED_EDGE('',*,*,#443,.F.);
#776 = ORIENTED_EDGE('',*,*,#762,.T.);
#777 = ORIENTED_EDGE('',*,*,#778,.F.);
#778 = EDGE_CURVE('',#549,#755,#779,.T.);
#779 = LINE('',#780,#781);
#780 = CARTESIAN_POINT('',(7.75,-7.024688788643,14.8));
#781 = VECTOR('',#782,1.);
#782 = DIRECTION('',(2.22044604925E-16,1.,0.));
#783 = ORIENTED_EDGE('',*,*,#556,.F.);
#784 = PLANE('',#785);
#785 = AXIS2_PLACEMENT_3D('',#786,#787,#788);
#786 = CARTESIAN_POINT('',(9.75,-2.,14.8));
#787 = DIRECTION('',(0.,0.,1.));
#788 = DIRECTION('',(0.,-1.,0.));
#789 = ADVANCED_FACE('',(#790),#829,.F.);
#790 = FACE_BOUND('',#791,.F.);
#791 = EDGE_LOOP('',(#792,#793,#801,#807,#808,#816,#822,#823));
#792 = ORIENTED_EDGE('',*,*,#496,.F.);
#793 = ORIENTED_EDGE('',*,*,#794,.F.);
#794 = EDGE_CURVE('',#795,#497,#797,.T.);
#795 = VERTEX_POINT('',#796);
#796 = CARTESIAN_POINT('',(-9.75,-2.,14.8));
#797 = LINE('',#798,#799);
#798 = CARTESIAN_POINT('',(-9.75,5.024688788643,14.8));
#799 = VECTOR('',#800,1.);
#800 = DIRECTION('',(0.,-1.,0.));
#801 = ORIENTED_EDGE('',*,*,#802,.F.);
#802 = EDGE_CURVE('',#404,#795,#803,.T.);
#803 = LINE('',#804,#805);
#804 = CARTESIAN_POINT('',(-9.75,-2.,11.5));
#805 = VECTOR('',#806,1.);
#806 = DIRECTION('',(0.,0.,1.));
#807 = ORIENTED_EDGE('',*,*,#411,.F.);
#808 = ORIENTED_EDGE('',*,*,#809,.F.);
#809 = EDGE_CURVE('',#810,#412,#812,.T.);
#810 = VERTEX_POINT('',#811);
#811 = CARTESIAN_POINT('',(-9.75,2.,14.8));
#812 = LINE('',#813,#814);
#813 = CARTESIAN_POINT('',(-9.75,2.,13.15));
#814 = VECTOR('',#815,1.);
#815 = DIRECTION('',(0.,0.,-1.));
#816 = ORIENTED_EDGE('',*,*,#817,.F.);
#817 = EDGE_CURVE('',#671,#810,#818,.T.);
#818 = LINE('',#819,#820);
#819 = CARTESIAN_POINT('',(-9.75,12.049377577286,14.8));
#820 = VECTOR('',#821,1.);
#821 = DIRECTION('',(0.,-1.,0.));
#822 = ORIENTED_EDGE('',*,*,#678,.T.);
#823 = ORIENTED_EDGE('',*,*,#824,.T.);
#824 = EDGE_CURVE('',#679,#499,#825,.T.);
#825 = LINE('',#826,#827);
#826 = CARTESIAN_POINT('',(-9.75,12.049377577286,31.8));
#827 = VECTOR('',#828,1.);
#828 = DIRECTION('',(0.,-1.,0.));
#829 = PLANE('',#830);
#830 = AXIS2_PLACEMENT_3D('',#831,#832,#833);
#831 = CARTESIAN_POINT('',(-9.75,12.049377577286,11.5));
#832 = DIRECTION('',(1.,0.,0.));
#833 = DIRECTION('',(0.,-1.,0.));
#834 = ADVANCED_FACE('',(#835),#846,.T.);
#835 = FACE_BOUND('',#836,.F.);
#836 = EDGE_LOOP('',(#837,#838,#844,#845));
#837 = ORIENTED_EDGE('',*,*,#686,.T.);
#838 = ORIENTED_EDGE('',*,*,#839,.T.);
#839 = EDGE_CURVE('',#687,#573,#840,.T.);
#840 = LINE('',#841,#842);
#841 = CARTESIAN_POINT('',(-6.75,12.049377577286,34.8));
#842 = VECTOR('',#843,1.);
#843 = DIRECTION('',(0.,-1.,0.));
#844 = ORIENTED_EDGE('',*,*,#580,.F.);
#845 = ORIENTED_EDGE('',*,*,#824,.F.);
#846 = CYLINDRICAL_SURFACE('',#847,3.);
#847 = AXIS2_PLACEMENT_3D('',#848,#849,#850);
#848 = CARTESIAN_POINT('',(-6.75,12.049377577286,31.8));
#849 = DIRECTION('',(0.,-1.,0.));
#850 = DIRECTION('',(-1.,0.,0.));
#851 = ADVANCED_FACE('',(#852),#858,.T.);
#852 = FACE_BOUND('',#853,.T.);
#853 = EDGE_LOOP('',(#854,#855,#856,#857));
#854 = ORIENTED_EDGE('',*,*,#572,.F.);
#855 = ORIENTED_EDGE('',*,*,#604,.F.);
#856 = ORIENTED_EDGE('',*,*,#695,.T.);
#857 = ORIENTED_EDGE('',*,*,#839,.T.);
#858 = PLANE('',#859);
#859 = AXIS2_PLACEMENT_3D('',#860,#861,#862);
#860 = CARTESIAN_POINT('',(-3.911356092114E-15,-8.148658525238E-16,34.8)
  );
#861 = DIRECTION('',(0.,0.,1.));
#862 = DIRECTION('',(1.,0.,0.));
#863 = ADVANCED_FACE('',(#864),#880,.F.);
#864 = FACE_BOUND('',#865,.T.);
#865 = EDGE_LOOP('',(#866,#867,#868,#869,#870,#871,#872,#873,#874));
#866 = ORIENTED_EDGE('',*,*,#628,.F.);
#867 = ORIENTED_EDGE('',*,*,#713,.F.);
#868 = ORIENTED_EDGE('',*,*,#737,.F.);
#869 = ORIENTED_EDGE('',*,*,#369,.F.);
#870 = ORIENTED_EDGE('',*,*,#361,.F.);
#871 = ORIENTED_EDGE('',*,*,#754,.F.);
#872 = ORIENTED_EDGE('',*,*,#778,.F.);
#873 = ORIENTED_EDGE('',*,*,#548,.T.);
#874 = ORIENTED_EDGE('',*,*,#875,.T.);
#875 = EDGE_CURVE('',#540,#629,#876,.T.);
#876 = LINE('',#877,#878);
#877 = CARTESIAN_POINT('',(7.75,-12.04937757728,29.8));
#878 = VECTOR('',#879,1.);
#879 = DIRECTION('',(2.22044604925E-16,1.,2.465190328816E-32));
#880 = PLANE('',#881);
#881 = AXIS2_PLACEMENT_3D('',#882,#883,#884);
#882 = CARTESIAN_POINT('',(7.75,-12.04937757728,11.5));
#883 = DIRECTION('',(1.,-2.22044604925E-16,2.22044604925E-16));
#884 = DIRECTION('',(-2.22044604925E-16,-1.,-2.465190328816E-32));
#885 = ADVANCED_FACE('',(#886),#897,.F.);
#886 = FACE_BOUND('',#887,.T.);
#887 = EDGE_LOOP('',(#888,#889,#895,#896));
#888 = ORIENTED_EDGE('',*,*,#539,.T.);
#889 = ORIENTED_EDGE('',*,*,#890,.T.);
#890 = EDGE_CURVE('',#532,#637,#891,.T.);
#891 = LINE('',#892,#893);
#892 = CARTESIAN_POINT('',(4.75,-12.04937757728,32.8));
#893 = VECTOR('',#894,1.);
#894 = DIRECTION('',(2.22044604925E-16,1.,2.465190328816E-32));
#895 = ORIENTED_EDGE('',*,*,#636,.F.);
#896 = ORIENTED_EDGE('',*,*,#875,.F.);
#897 = CYLINDRICAL_SURFACE('',#898,3.);
#898 = AXIS2_PLACEMENT_3D('',#899,#900,#901);
#899 = CARTESIAN_POINT('',(4.75,-12.04937757728,29.8));
#900 = DIRECTION('',(2.22044604925E-16,1.,2.465190328816E-32));
#901 = DIRECTION('',(1.,-2.22044604925E-16,2.22044604925E-16));
#902 = ADVANCED_FACE('',(#903),#914,.T.);
#903 = FACE_BOUND('',#904,.T.);
#904 = EDGE_LOOP('',(#905,#906,#907,#908));
#905 = ORIENTED_EDGE('',*,*,#645,.F.);
#906 = ORIENTED_EDGE('',*,*,#890,.F.);
#907 = ORIENTED_EDGE('',*,*,#531,.F.);
#908 = ORIENTED_EDGE('',*,*,#909,.T.);
#909 = EDGE_CURVE('',#523,#646,#910,.T.);
#910 = LINE('',#911,#912);
#911 = CARTESIAN_POINT('',(-4.75,-12.04937757728,32.8));
#912 = VECTOR('',#913,1.);
#913 = DIRECTION('',(0.,1.,0.));
#914 = PLANE('',#915);
#915 = AXIS2_PLACEMENT_3D('',#916,#917,#918);
#916 = CARTESIAN_POINT('',(-3.263485419224E-15,4.485890610617E-16,32.8)
  );
#917 = DIRECTION('',(-0.,-0.,-1.));
#918 = DIRECTION('',(-1.,0.,0.));
#919 = ADVANCED_FACE('',(#920),#931,.F.);
#920 = FACE_BOUND('',#921,.F.);
#921 = EDGE_LOOP('',(#922,#923,#924,#925));
#922 = ORIENTED_EDGE('',*,*,#522,.T.);
#923 = ORIENTED_EDGE('',*,*,#909,.T.);
#924 = ORIENTED_EDGE('',*,*,#653,.F.);
#925 = ORIENTED_EDGE('',*,*,#926,.F.);
#926 = EDGE_CURVE('',#515,#654,#927,.T.);
#927 = LINE('',#928,#929);
#928 = CARTESIAN_POINT('',(-7.75,-12.04937757728,29.8));
#929 = VECTOR('',#930,1.);
#930 = DIRECTION('',(0.,1.,0.));
#931 = CYLINDRICAL_SURFACE('',#932,3.);
#932 = AXIS2_PLACEMENT_3D('',#933,#934,#935);
#933 = CARTESIAN_POINT('',(-4.75,-12.04937757728,29.8));
#934 = DIRECTION('',(0.,1.,0.));
#935 = DIRECTION('',(-1.,0.,0.));
#936 = ADVANCED_FACE('',(#937),#972,.F.);
#937 = FACE_BOUND('',#938,.F.);
#938 = EDGE_LOOP('',(#939,#940,#948,#954,#955,#956,#964,#970,#971));
#939 = ORIENTED_EDGE('',*,*,#662,.F.);
#940 = ORIENTED_EDGE('',*,*,#941,.F.);
#941 = EDGE_CURVE('',#942,#663,#944,.T.);
#942 = VERTEX_POINT('',#943);
#943 = CARTESIAN_POINT('',(-7.75,2.,14.8));
#944 = LINE('',#945,#946);
#945 = CARTESIAN_POINT('',(-7.75,-8.881784197001E-16,14.8));
#946 = VECTOR('',#947,1.);
#947 = DIRECTION('',(0.,1.,0.));
#948 = ORIENTED_EDGE('',*,*,#949,.F.);
#949 = EDGE_CURVE('',#388,#942,#950,.T.);
#950 = LINE('',#951,#952);
#951 = CARTESIAN_POINT('',(-7.75,2.,13.15));
#952 = VECTOR('',#953,1.);
#953 = DIRECTION('',(0.,0.,1.));
#954 = ORIENTED_EDGE('',*,*,#385,.F.);
#955 = ORIENTED_EDGE('',*,*,#395,.F.);
#956 = ORIENTED_EDGE('',*,*,#957,.F.);
#957 = EDGE_CURVE('',#958,#396,#960,.T.);
#958 = VERTEX_POINT('',#959);
#959 = CARTESIAN_POINT('',(-7.75,-2.,14.8));
#960 = LINE('',#961,#962);
#961 = CARTESIAN_POINT('',(-7.75,-2.,11.5));
#962 = VECTOR('',#963,1.);
#963 = DIRECTION('',(0.,0.,-1.));
#964 = ORIENTED_EDGE('',*,*,#965,.F.);
#965 = EDGE_CURVE('',#507,#958,#966,.T.);
#966 = LINE('',#967,#968);
#967 = CARTESIAN_POINT('',(-7.75,-7.024688788643,14.8));
#968 = VECTOR('',#969,1.);
#969 = DIRECTION('',(0.,1.,0.));
#970 = ORIENTED_EDGE('',*,*,#514,.T.);
#971 = ORIENTED_EDGE('',*,*,#926,.T.);
#972 = PLANE('',#973);
#973 = AXIS2_PLACEMENT_3D('',#974,#975,#976);
#974 = CARTESIAN_POINT('',(-7.75,-12.04937757728,11.5));
#975 = DIRECTION('',(-1.,0.,0.));
#976 = DIRECTION('',(0.,1.,0.));
#977 = ADVANCED_FACE('',(#978),#989,.F.);
#978 = FACE_BOUND('',#979,.F.);
#979 = EDGE_LOOP('',(#980,#981,#987,#988));
#980 = ORIENTED_EDGE('',*,*,#965,.T.);
#981 = ORIENTED_EDGE('',*,*,#982,.T.);
#982 = EDGE_CURVE('',#958,#795,#983,.T.);
#983 = LINE('',#984,#985);
#984 = CARTESIAN_POINT('',(9.75,-2.,14.8));
#985 = VECTOR('',#986,1.);
#986 = DIRECTION('',(-1.,-0.,-0.));
#987 = ORIENTED_EDGE('',*,*,#794,.T.);
#988 = ORIENTED_EDGE('',*,*,#506,.F.);
#989 = PLANE('',#990);
#990 = AXIS2_PLACEMENT_3D('',#991,#992,#993);
#991 = CARTESIAN_POINT('',(9.75,-2.,14.8));
#992 = DIRECTION('',(0.,0.,1.));
#993 = DIRECTION('',(0.,-1.,0.));
#994 = ADVANCED_FACE('',(#995),#1006,.F.);
#995 = FACE_BOUND('',#996,.F.);
#996 = EDGE_LOOP('',(#997,#998,#999,#1000));
#997 = ORIENTED_EDGE('',*,*,#941,.T.);
#998 = ORIENTED_EDGE('',*,*,#670,.T.);
#999 = ORIENTED_EDGE('',*,*,#817,.T.);
#1000 = ORIENTED_EDGE('',*,*,#1001,.F.);
#1001 = EDGE_CURVE('',#942,#810,#1002,.T.);
#1002 = LINE('',#1003,#1004);
#1003 = CARTESIAN_POINT('',(9.75,2.,14.8));
#1004 = VECTOR('',#1005,1.);
#1005 = DIRECTION('',(-1.,-0.,-0.));
#1006 = PLANE('',#1007);
#1007 = AXIS2_PLACEMENT_3D('',#1008,#1009,#1010);
#1008 = CARTESIAN_POINT('',(9.75,12.049377577286,14.8));
#1009 = DIRECTION('',(0.,0.,1.));
#1010 = DIRECTION('',(0.,-1.,0.));
#1011 = ADVANCED_FACE('',(#1012),#1018,.F.);
#1012 = FACE_BOUND('',#1013,.F.);
#1013 = EDGE_LOOP('',(#1014,#1015,#1016,#1017));
#1014 = ORIENTED_EDGE('',*,*,#949,.T.);
#1015 = ORIENTED_EDGE('',*,*,#1001,.T.);
#1016 = ORIENTED_EDGE('',*,*,#809,.T.);
#1017 = ORIENTED_EDGE('',*,*,#419,.F.);
#1018 = PLANE('',#1019);
#1019 = AXIS2_PLACEMENT_3D('',#1020,#1021,#1022);
#1020 = CARTESIAN_POINT('',(9.75,2.,14.8));
#1021 = DIRECTION('',(0.,-1.,0.));
#1022 = DIRECTION('',(0.,0.,-1.));
#1023 = ADVANCED_FACE('',(#1024),#1030,.F.);
#1024 = FACE_BOUND('',#1025,.F.);
#1025 = EDGE_LOOP('',(#1026,#1027,#1028,#1029));
#1026 = ORIENTED_EDGE('',*,*,#982,.F.);
#1027 = ORIENTED_EDGE('',*,*,#957,.T.);
#1028 = ORIENTED_EDGE('',*,*,#403,.T.);
#1029 = ORIENTED_EDGE('',*,*,#802,.T.);
#1030 = PLANE('',#1031);
#1031 = AXIS2_PLACEMENT_3D('',#1032,#1033,#1034);
#1032 = CARTESIAN_POINT('',(9.75,-2.,11.5));
#1033 = DIRECTION('',(0.,1.,0.));
#1034 = DIRECTION('',(0.,0.,1.));
#1035 = ( GEOMETRIC_REPRESENTATION_CONTEXT(3) 
GLOBAL_UNCERTAINTY_ASSIGNED_CONTEXT((#1039)) 
GLOBAL_UNIT_ASSIGNED_CONTEXT((#1036,#1037,#1038)) REPRESENTATION_CONTEXT
('Context #1','3D Context with UNIT and UNCERTAINTY') );
#1036 = ( LENGTH_UNIT() NAMED_UNIT(*) SI_UNIT(.MILLI.,.METRE.) );
#1037 = ( NAMED_UNIT(*) PLANE_ANGLE_UNIT() SI_UNIT($,.RADIAN.) );
#1038 = ( NAMED_UNIT(*) SI_UNIT($,.STERADIAN.) SOLID_ANGLE_UNIT() );
#1039 = UNCERTAINTY_MEASURE_WITH_UNIT(LENGTH_MEASURE(2.E-05),#1036,
  'distance_accuracy_value','confusion accuracy');
#1040 = PRODUCT_RELATED_PRODUCT_CATEGORY('part',$,(#7));
#1041 = MECHANICAL_DESIGN_GEOMETRIC_PRESENTATION_REPRESENTATION('',(
    #1042),#1035);
#1042 = STYLED_ITEM('color',(#1043),#15);
#1043 = PRESENTATION_STYLE_ASSIGNMENT((#1044,#1050));
#1044 = SURFACE_STYLE_USAGE(.BOTH.,#1045);
#1045 = SURFACE_SIDE_STYLE('',(#1046));
#1046 = SURFACE_STYLE_FILL_AREA(#1047);
#1047 = FILL_AREA_STYLE('',(#1048));
#1048 = FILL_AREA_STYLE_COLOUR('',#1049);
#1049 = COLOUR_RGB('',0.447058818107,0.474509808674,0.501960817233);
#1050 = CURVE_STYLE('',#1051,POSITIVE_LENGTH_MEASURE(0.1),#1052);
#1051 = DRAUGHTING_PRE_DEFINED_CURVE_FONT('continuous');
#1052 = COLOUR_RGB('',9.803921802644E-02,9.803921802644E-02,
  9.803921802644E-02);
ENDSEC;
END-ISO-10303-21;
