ISO-10303-21;
HEADER;
FILE_DESCRIPTION(('FreeCAD Model'),'2;1');
FILE_NAME('Open CASCADE Shape Model','2026-01-23T08:33:12',(''),(''),
  'Open CASCADE STEP processor 7.8','FreeCAD','Unknown');
FILE_SCHEMA(('AUTOMOTIVE_DESIGN { 1 0 10303 214 1 1 1 1 }'));
ENDSEC;
DATA;
#1 = APPLICATION_PROTOCOL_DEFINITION('international standard',
  'automotive_design',2000,#2);
#2 = APPLICATION_CONTEXT(
  'core data for automotive mechanical design processes');
#3 = SHAPE_DEFINITION_REPRESENTATION(#4,#10);
#4 = PRODUCT_DEFINITION_SHAPE('','',#5);
#5 = PRODUCT_DEFINITION('design','',#6,#9);
#6 = PRODUCT_DEFINITION_FORMATION('','',#7);
#7 = PRODUCT('shaft2','shaft2','',(#8));
#8 = PRODUCT_CONTEXT('',#2,'mechanical');
#9 = PRODUCT_DEFINITION_CONTEXT('part definition',#2,'design');
#10 = ADVANCED_BREP_SHAPE_REPRESENTATION('',(#11,#15),#515);
#11 = AXIS2_PLACEMENT_3D('',#12,#13,#14);
#12 = CARTESIAN_POINT('',(0.,0.,0.));
#13 = DIRECTION('',(0.,0.,1.));
#14 = DIRECTION('',(1.,0.,-0.));
#15 = MANIFOLD_SOLID_BREP('',#16);
#16 = CLOSED_SHELL('',(#17,#89,#149,#174,#198,#279,#303,#328,#352,#397,
    #423,#440,#452,#469,#486,#498));
#17 = ADVANCED_FACE('',(#18),#84,.T.);
#18 = FACE_BOUND('',#19,.T.);
#19 = EDGE_LOOP('',(#20,#30,#38,#46,#54,#62,#70,#78));
#20 = ORIENTED_EDGE('',*,*,#21,.T.);
#21 = EDGE_CURVE('',#22,#24,#26,.T.);
#22 = VERTEX_POINT('',#23);
#23 = CARTESIAN_POINT('',(2.8,-2.799999999997,4.));
#24 = VERTEX_POINT('',#25);
#25 = CARTESIAN_POINT('',(8.,-2.799999999999,4.));
#26 = LINE('',#27,#28);
#27 = CARTESIAN_POINT('',(-10.,-2.8,4.));
#28 = VECTOR('',#29,1.);
#29 = DIRECTION('',(1.,0.,0.));
#30 = ORIENTED_EDGE('',*,*,#31,.T.);
#31 = EDGE_CURVE('',#24,#32,#34,.T.);
#32 = VERTEX_POINT('',#33);
#33 = CARTESIAN_POINT('',(8.,-2.799999999999,7.));
#34 = LINE('',#35,#36);
#35 = CARTESIAN_POINT('',(8.,-2.799999999999,4.));
#36 = VECTOR('',#37,1.);
#37 = DIRECTION('',(0.,0.,1.));
#38 = ORIENTED_EDGE('',*,*,#39,.F.);
#39 = EDGE_CURVE('',#40,#32,#42,.T.);
#40 = VERTEX_POINT('',#41);
#41 = CARTESIAN_POINT('',(-8.,-2.8,7.));
#42 = LINE('',#43,#44);
#43 = CARTESIAN_POINT('',(-10.,-2.8,7.));
#44 = VECTOR('',#45,1.);
#45 = DIRECTION('',(1.,0.,0.));
#46 = ORIENTED_EDGE('',*,*,#47,.F.);
#47 = EDGE_CURVE('',#48,#40,#50,.T.);
#48 = VERTEX_POINT('',#49);
#49 = CARTESIAN_POINT('',(-8.,-2.8,4.));
#50 = LINE('',#51,#52);
#51 = CARTESIAN_POINT('',(-8.,-2.8,4.));
#52 = VECTOR('',#53,1.);
#53 = DIRECTION('',(0.,0.,1.));
#54 = ORIENTED_EDGE('',*,*,#55,.T.);
#55 = EDGE_CURVE('',#48,#56,#58,.T.);
#56 = VERTEX_POINT('',#57);
#57 = CARTESIAN_POINT('',(-2.799999999997,-2.8,4.));
#58 = LINE('',#59,#60);
#59 = CARTESIAN_POINT('',(-10.,-2.8,4.));
#60 = VECTOR('',#61,1.);
#61 = DIRECTION('',(1.,0.,0.));
#62 = ORIENTED_EDGE('',*,*,#63,.F.);
#63 = EDGE_CURVE('',#64,#56,#66,.T.);
#64 = VERTEX_POINT('',#65);
#65 = CARTESIAN_POINT('',(-2.799999999997,-2.8,0.));
#66 = LINE('',#67,#68);
#67 = CARTESIAN_POINT('',(-2.799999999997,-2.8,0.));
#68 = VECTOR('',#69,1.);
#69 = DIRECTION('',(0.,0.,1.));
#70 = ORIENTED_EDGE('',*,*,#71,.F.);
#71 = EDGE_CURVE('',#72,#64,#74,.T.);
#72 = VERTEX_POINT('',#73);
#73 = CARTESIAN_POINT('',(2.8,-2.799999999997,0.));
#74 = LINE('',#75,#76);
#75 = CARTESIAN_POINT('',(2.8,-2.799999999997,0.));
#76 = VECTOR('',#77,1.);
#77 = DIRECTION('',(-1.,-4.756512644075E-13,0.));
#78 = ORIENTED_EDGE('',*,*,#79,.T.);
#79 = EDGE_CURVE('',#72,#22,#80,.T.);
#80 = LINE('',#81,#82);
#81 = CARTESIAN_POINT('',(2.8,-2.799999999997,0.));
#82 = VECTOR('',#83,1.);
#83 = DIRECTION('',(0.,0.,1.));
#84 = PLANE('',#85);
#85 = AXIS2_PLACEMENT_3D('',#86,#87,#88);
#86 = CARTESIAN_POINT('',(1.973565344071E-13,-2.8,4.566666666667));
#87 = DIRECTION('',(1.456066380946E-14,-1.,-1.788904737904E-13));
#88 = DIRECTION('',(0.,1.788904737904E-13,-1.));
#89 = ADVANCED_FACE('',(#90,#133),#144,.F.);
#90 = FACE_BOUND('',#91,.F.);
#91 = EDGE_LOOP('',(#92,#102,#108,#109,#118,#126));
#92 = ORIENTED_EDGE('',*,*,#93,.T.);
#93 = EDGE_CURVE('',#94,#96,#98,.T.);
#94 = VERTEX_POINT('',#95);
#95 = CARTESIAN_POINT('',(8.,2.8,4.));
#96 = VERTEX_POINT('',#97);
#97 = CARTESIAN_POINT('',(2.8,2.8,4.));
#98 = LINE('',#99,#100);
#99 = CARTESIAN_POINT('',(10.,2.8,4.));
#100 = VECTOR('',#101,1.);
#101 = DIRECTION('',(-1.,0.,0.));
#102 = ORIENTED_EDGE('',*,*,#103,.T.);
#103 = EDGE_CURVE('',#96,#22,#104,.T.);
#104 = LINE('',#105,#106);
#105 = CARTESIAN_POINT('',(2.8,2.8,4.));
#106 = VECTOR('',#107,1.);
#107 = DIRECTION('',(0.,-1.,0.));
#108 = ORIENTED_EDGE('',*,*,#21,.T.);
#109 = ORIENTED_EDGE('',*,*,#110,.T.);
#110 = EDGE_CURVE('',#24,#111,#113,.T.);
#111 = VERTEX_POINT('',#112);
#112 = CARTESIAN_POINT('',(10.,-0.799999999999,4.));
#113 = CIRCLE('',#114,2.);
#114 = AXIS2_PLACEMENT_3D('',#115,#116,#117);
#115 = CARTESIAN_POINT('',(8.,-0.799999999999,4.));
#116 = DIRECTION('',(-0.,0.,1.));
#117 = DIRECTION('',(0.,-1.,0.));
#118 = ORIENTED_EDGE('',*,*,#119,.T.);
#119 = EDGE_CURVE('',#111,#120,#122,.T.);
#120 = VERTEX_POINT('',#121);
#121 = CARTESIAN_POINT('',(10.,0.8,4.));
#122 = LINE('',#123,#124);
#123 = CARTESIAN_POINT('',(10.,-2.8,4.));
#124 = VECTOR('',#125,1.);
#125 = DIRECTION('',(0.,1.,0.));
#126 = ORIENTED_EDGE('',*,*,#127,.F.);
#127 = EDGE_CURVE('',#94,#120,#128,.T.);
#128 = CIRCLE('',#129,2.);
#129 = AXIS2_PLACEMENT_3D('',#130,#131,#132);
#130 = CARTESIAN_POINT('',(8.,0.8,4.));
#131 = DIRECTION('',(-0.,-0.,-1.));
#132 = DIRECTION('',(0.,-1.,0.));
#133 = FACE_BOUND('',#134,.F.);
#134 = EDGE_LOOP('',(#135));
#135 = ORIENTED_EDGE('',*,*,#136,.T.);
#136 = EDGE_CURVE('',#137,#137,#139,.T.);
#137 = VERTEX_POINT('',#138);
#138 = CARTESIAN_POINT('',(5.,0.,4.));
#139 = CIRCLE('',#140,2.);
#140 = AXIS2_PLACEMENT_3D('',#141,#142,#143);
#141 = CARTESIAN_POINT('',(7.,0.,4.));
#142 = DIRECTION('',(0.,0.,-1.));
#143 = DIRECTION('',(-1.,-0.,-0.));
#144 = PLANE('',#145);
#145 = AXIS2_PLACEMENT_3D('',#146,#147,#148);
#146 = CARTESIAN_POINT('',(0.,0.,4.));
#147 = DIRECTION('',(0.,0.,1.));
#148 = DIRECTION('',(1.,0.,0.));
#149 = ADVANCED_FACE('',(#150),#169,.T.);
#150 = FACE_BOUND('',#151,.T.);
#151 = EDGE_LOOP('',(#152,#153,#161,#168));
#152 = ORIENTED_EDGE('',*,*,#110,.T.);
#153 = ORIENTED_EDGE('',*,*,#154,.T.);
#154 = EDGE_CURVE('',#111,#155,#157,.T.);
#155 = VERTEX_POINT('',#156);
#156 = CARTESIAN_POINT('',(10.,-0.799999999999,7.));
#157 = LINE('',#158,#159);
#158 = CARTESIAN_POINT('',(10.,-0.799999999999,4.));
#159 = VECTOR('',#160,1.);
#160 = DIRECTION('',(0.,0.,1.));
#161 = ORIENTED_EDGE('',*,*,#162,.F.);
#162 = EDGE_CURVE('',#32,#155,#163,.T.);
#163 = CIRCLE('',#164,2.);
#164 = AXIS2_PLACEMENT_3D('',#165,#166,#167);
#165 = CARTESIAN_POINT('',(8.,-0.799999999999,7.));
#166 = DIRECTION('',(-0.,0.,1.));
#167 = DIRECTION('',(0.,-1.,0.));
#168 = ORIENTED_EDGE('',*,*,#31,.F.);
#169 = CYLINDRICAL_SURFACE('',#170,2.);
#170 = AXIS2_PLACEMENT_3D('',#171,#172,#173);
#171 = CARTESIAN_POINT('',(8.,-0.799999999999,4.));
#172 = DIRECTION('',(0.,0.,1.));
#173 = DIRECTION('',(1.456066380946E-14,-1.,0.));
#174 = ADVANCED_FACE('',(#175),#193,.T.);
#175 = FACE_BOUND('',#176,.T.);
#176 = EDGE_LOOP('',(#177,#185,#186,#187));
#177 = ORIENTED_EDGE('',*,*,#178,.T.);
#178 = EDGE_CURVE('',#179,#96,#181,.T.);
#179 = VERTEX_POINT('',#180);
#180 = CARTESIAN_POINT('',(2.8,2.8,0.));
#181 = LINE('',#182,#183);
#182 = CARTESIAN_POINT('',(2.8,2.8,0.));
#183 = VECTOR('',#184,1.);
#184 = DIRECTION('',(0.,0.,1.));
#185 = ORIENTED_EDGE('',*,*,#103,.T.);
#186 = ORIENTED_EDGE('',*,*,#79,.F.);
#187 = ORIENTED_EDGE('',*,*,#188,.F.);
#188 = EDGE_CURVE('',#179,#72,#189,.T.);
#189 = LINE('',#190,#191);
#190 = CARTESIAN_POINT('',(2.8,2.8,0.));
#191 = VECTOR('',#192,1.);
#192 = DIRECTION('',(0.,-1.,0.));
#193 = PLANE('',#194);
#194 = AXIS2_PLACEMENT_3D('',#195,#196,#197);
#195 = CARTESIAN_POINT('',(2.8,2.8,0.));
#196 = DIRECTION('',(1.,0.,0.));
#197 = DIRECTION('',(0.,-1.,0.));
#198 = ADVANCED_FACE('',(#199,#252,#263),#274,.T.);
#199 = FACE_BOUND('',#200,.T.);
#200 = EDGE_LOOP('',(#201,#211,#218,#219,#220,#228,#237,#245));
#201 = ORIENTED_EDGE('',*,*,#202,.T.);
#202 = EDGE_CURVE('',#203,#205,#207,.T.);
#203 = VERTEX_POINT('',#204);
#204 = CARTESIAN_POINT('',(-10.,0.8,7.));
#205 = VERTEX_POINT('',#206);
#206 = CARTESIAN_POINT('',(-10.,-0.8,7.));
#207 = LINE('',#208,#209);
#208 = CARTESIAN_POINT('',(-10.,2.8,7.));
#209 = VECTOR('',#210,1.);
#210 = DIRECTION('',(0.,-1.,0.));
#211 = ORIENTED_EDGE('',*,*,#212,.F.);
#212 = EDGE_CURVE('',#40,#205,#213,.T.);
#213 = CIRCLE('',#214,2.);
#214 = AXIS2_PLACEMENT_3D('',#215,#216,#217);
#215 = CARTESIAN_POINT('',(-8.,-0.8,7.));
#216 = DIRECTION('',(-0.,-0.,-1.));
#217 = DIRECTION('',(0.,-1.,0.));
#218 = ORIENTED_EDGE('',*,*,#39,.T.);
#219 = ORIENTED_EDGE('',*,*,#162,.T.);
#220 = ORIENTED_EDGE('',*,*,#221,.T.);
#221 = EDGE_CURVE('',#155,#222,#224,.T.);
#222 = VERTEX_POINT('',#223);
#223 = CARTESIAN_POINT('',(10.,0.8,7.));
#224 = LINE('',#225,#226);
#225 = CARTESIAN_POINT('',(10.,-2.8,7.));
#226 = VECTOR('',#227,1.);
#227 = DIRECTION('',(0.,1.,0.));
#228 = ORIENTED_EDGE('',*,*,#229,.F.);
#229 = EDGE_CURVE('',#230,#222,#232,.T.);
#230 = VERTEX_POINT('',#231);
#231 = CARTESIAN_POINT('',(8.,2.8,7.));
#232 = CIRCLE('',#233,2.);
#233 = AXIS2_PLACEMENT_3D('',#234,#235,#236);
#234 = CARTESIAN_POINT('',(8.,0.8,7.));
#235 = DIRECTION('',(-0.,-0.,-1.));
#236 = DIRECTION('',(0.,-1.,0.));
#237 = ORIENTED_EDGE('',*,*,#238,.T.);
#238 = EDGE_CURVE('',#230,#239,#241,.T.);
#239 = VERTEX_POINT('',#240);
#240 = CARTESIAN_POINT('',(-8.,2.8,7.));
#241 = LINE('',#242,#243);
#242 = CARTESIAN_POINT('',(10.,2.8,7.));
#243 = VECTOR('',#244,1.);
#244 = DIRECTION('',(-1.,0.,0.));
#245 = ORIENTED_EDGE('',*,*,#246,.T.);
#246 = EDGE_CURVE('',#239,#203,#247,.T.);
#247 = CIRCLE('',#248,2.);
#248 = AXIS2_PLACEMENT_3D('',#249,#250,#251);
#249 = CARTESIAN_POINT('',(-8.,0.8,7.));
#250 = DIRECTION('',(-0.,0.,1.));
#251 = DIRECTION('',(0.,-1.,0.));
#252 = FACE_BOUND('',#253,.T.);
#253 = EDGE_LOOP('',(#254));
#254 = ORIENTED_EDGE('',*,*,#255,.F.);
#255 = EDGE_CURVE('',#256,#256,#258,.T.);
#256 = VERTEX_POINT('',#257);
#257 = CARTESIAN_POINT('',(-5.,0.,7.));
#258 = CIRCLE('',#259,2.);
#259 = AXIS2_PLACEMENT_3D('',#260,#261,#262);
#260 = CARTESIAN_POINT('',(-7.,0.,7.));
#261 = DIRECTION('',(0.,0.,1.));
#262 = DIRECTION('',(1.,0.,0.));
#263 = FACE_BOUND('',#264,.T.);
#264 = EDGE_LOOP('',(#265));
#265 = ORIENTED_EDGE('',*,*,#266,.T.);
#266 = EDGE_CURVE('',#267,#267,#269,.T.);
#267 = VERTEX_POINT('',#268);
#268 = CARTESIAN_POINT('',(5.,0.,7.));
#269 = CIRCLE('',#270,2.);
#270 = AXIS2_PLACEMENT_3D('',#271,#272,#273);
#271 = CARTESIAN_POINT('',(7.,0.,7.));
#272 = DIRECTION('',(0.,0.,-1.));
#273 = DIRECTION('',(-1.,-0.,-0.));
#274 = PLANE('',#275);
#275 = AXIS2_PLACEMENT_3D('',#276,#277,#278);
#276 = CARTESIAN_POINT('',(0.,0.,7.));
#277 = DIRECTION('',(0.,0.,1.));
#278 = DIRECTION('',(1.,0.,0.));
#279 = ADVANCED_FACE('',(#280),#298,.F.);
#280 = FACE_BOUND('',#281,.T.);
#281 = EDGE_LOOP('',(#282,#283,#291,#297));
#282 = ORIENTED_EDGE('',*,*,#71,.T.);
#283 = ORIENTED_EDGE('',*,*,#284,.T.);
#284 = EDGE_CURVE('',#64,#285,#287,.T.);
#285 = VERTEX_POINT('',#286);
#286 = CARTESIAN_POINT('',(-2.799999999997,2.8,0.));
#287 = LINE('',#288,#289);
#288 = CARTESIAN_POINT('',(-2.799999999997,-2.8,0.));
#289 = VECTOR('',#290,1.);
#290 = DIRECTION('',(0.,1.,0.));
#291 = ORIENTED_EDGE('',*,*,#292,.T.);
#292 = EDGE_CURVE('',#285,#179,#293,.T.);
#293 = LINE('',#294,#295);
#294 = CARTESIAN_POINT('',(-2.799999999997,2.8,0.));
#295 = VECTOR('',#296,1.);
#296 = DIRECTION('',(1.,0.,0.));
#297 = ORIENTED_EDGE('',*,*,#188,.T.);
#298 = PLANE('',#299);
#299 = AXIS2_PLACEMENT_3D('',#300,#301,#302);
#300 = CARTESIAN_POINT('',(9.988042139399E-13,6.658562590192E-13,0.));
#301 = DIRECTION('',(0.,0.,1.));
#302 = DIRECTION('',(1.,0.,0.));
#303 = ADVANCED_FACE('',(#304),#323,.T.);
#304 = FACE_BOUND('',#305,.F.);
#305 = EDGE_LOOP('',(#306,#315,#321,#322));
#306 = ORIENTED_EDGE('',*,*,#307,.T.);
#307 = EDGE_CURVE('',#48,#308,#310,.T.);
#308 = VERTEX_POINT('',#309);
#309 = CARTESIAN_POINT('',(-10.,-0.8,4.));
#310 = CIRCLE('',#311,2.);
#311 = AXIS2_PLACEMENT_3D('',#312,#313,#314);
#312 = CARTESIAN_POINT('',(-8.,-0.8,4.));
#313 = DIRECTION('',(-0.,-0.,-1.));
#314 = DIRECTION('',(0.,-1.,0.));
#315 = ORIENTED_EDGE('',*,*,#316,.T.);
#316 = EDGE_CURVE('',#308,#205,#317,.T.);
#317 = LINE('',#318,#319);
#318 = CARTESIAN_POINT('',(-10.,-0.8,4.));
#319 = VECTOR('',#320,1.);
#320 = DIRECTION('',(0.,0.,1.));
#321 = ORIENTED_EDGE('',*,*,#212,.F.);
#322 = ORIENTED_EDGE('',*,*,#47,.F.);
#323 = CYLINDRICAL_SURFACE('',#324,2.);
#324 = AXIS2_PLACEMENT_3D('',#325,#326,#327);
#325 = CARTESIAN_POINT('',(-8.,-0.8,4.));
#326 = DIRECTION('',(0.,0.,1.));
#327 = DIRECTION('',(1.456066380946E-14,-1.,0.));
#328 = ADVANCED_FACE('',(#329),#347,.T.);
#329 = FACE_BOUND('',#330,.T.);
#330 = EDGE_LOOP('',(#331,#332,#340,#346));
#331 = ORIENTED_EDGE('',*,*,#63,.T.);
#332 = ORIENTED_EDGE('',*,*,#333,.T.);
#333 = EDGE_CURVE('',#56,#334,#336,.T.);
#334 = VERTEX_POINT('',#335);
#335 = CARTESIAN_POINT('',(-2.799999999997,2.8,4.));
#336 = LINE('',#337,#338);
#337 = CARTESIAN_POINT('',(-2.799999999997,-2.8,4.));
#338 = VECTOR('',#339,1.);
#339 = DIRECTION('',(0.,1.,0.));
#340 = ORIENTED_EDGE('',*,*,#341,.F.);
#341 = EDGE_CURVE('',#285,#334,#342,.T.);
#342 = LINE('',#343,#344);
#343 = CARTESIAN_POINT('',(-2.799999999997,2.8,0.));
#344 = VECTOR('',#345,1.);
#345 = DIRECTION('',(0.,0.,1.));
#346 = ORIENTED_EDGE('',*,*,#284,.F.);
#347 = PLANE('',#348);
#348 = AXIS2_PLACEMENT_3D('',#349,#350,#351);
#349 = CARTESIAN_POINT('',(-2.799999999997,-2.8,0.));
#350 = DIRECTION('',(-1.,0.,0.));
#351 = DIRECTION('',(0.,1.,0.));
#352 = ADVANCED_FACE('',(#353,#381),#392,.F.);
#353 = FACE_BOUND('',#354,.F.);
#354 = EDGE_LOOP('',(#355,#363,#372,#378,#379,#380));
#355 = ORIENTED_EDGE('',*,*,#356,.T.);
#356 = EDGE_CURVE('',#334,#357,#359,.T.);
#357 = VERTEX_POINT('',#358);
#358 = CARTESIAN_POINT('',(-8.,2.8,4.));
#359 = LINE('',#360,#361);
#360 = CARTESIAN_POINT('',(10.,2.8,4.));
#361 = VECTOR('',#362,1.);
#362 = DIRECTION('',(-1.,0.,0.));
#363 = ORIENTED_EDGE('',*,*,#364,.T.);
#364 = EDGE_CURVE('',#357,#365,#367,.T.);
#365 = VERTEX_POINT('',#366);
#366 = CARTESIAN_POINT('',(-10.,0.8,4.));
#367 = CIRCLE('',#368,2.);
#368 = AXIS2_PLACEMENT_3D('',#369,#370,#371);
#369 = CARTESIAN_POINT('',(-8.,0.8,4.));
#370 = DIRECTION('',(-0.,0.,1.));
#371 = DIRECTION('',(0.,-1.,0.));
#372 = ORIENTED_EDGE('',*,*,#373,.T.);
#373 = EDGE_CURVE('',#365,#308,#374,.T.);
#374 = LINE('',#375,#376);
#375 = CARTESIAN_POINT('',(-10.,2.8,4.));
#376 = VECTOR('',#377,1.);
#377 = DIRECTION('',(0.,-1.,0.));
#378 = ORIENTED_EDGE('',*,*,#307,.F.);
#379 = ORIENTED_EDGE('',*,*,#55,.T.);
#380 = ORIENTED_EDGE('',*,*,#333,.T.);
#381 = FACE_BOUND('',#382,.F.);
#382 = EDGE_LOOP('',(#383));
#383 = ORIENTED_EDGE('',*,*,#384,.F.);
#384 = EDGE_CURVE('',#385,#385,#387,.T.);
#385 = VERTEX_POINT('',#386);
#386 = CARTESIAN_POINT('',(-5.,0.,4.));
#387 = CIRCLE('',#388,2.);
#388 = AXIS2_PLACEMENT_3D('',#389,#390,#391);
#389 = CARTESIAN_POINT('',(-7.,0.,4.));
#390 = DIRECTION('',(0.,0.,1.));
#391 = DIRECTION('',(1.,0.,0.));
#392 = PLANE('',#393);
#393 = AXIS2_PLACEMENT_3D('',#394,#395,#396);
#394 = CARTESIAN_POINT('',(0.,0.,4.));
#395 = DIRECTION('',(0.,0.,1.));
#396 = DIRECTION('',(1.,0.,0.));
#397 = ADVANCED_FACE('',(#398),#418,.T.);
#398 = FACE_BOUND('',#399,.T.);
#399 = EDGE_LOOP('',(#400,#401,#407,#408,#414,#415,#416,#417));
#400 = ORIENTED_EDGE('',*,*,#356,.T.);
#401 = ORIENTED_EDGE('',*,*,#402,.T.);
#402 = EDGE_CURVE('',#357,#239,#403,.T.);
#403 = LINE('',#404,#405);
#404 = CARTESIAN_POINT('',(-8.,2.8,4.));
#405 = VECTOR('',#406,1.);
#406 = DIRECTION('',(0.,0.,1.));
#407 = ORIENTED_EDGE('',*,*,#238,.F.);
#408 = ORIENTED_EDGE('',*,*,#409,.F.);
#409 = EDGE_CURVE('',#94,#230,#410,.T.);
#410 = LINE('',#411,#412);
#411 = CARTESIAN_POINT('',(8.,2.8,4.));
#412 = VECTOR('',#413,1.);
#413 = DIRECTION('',(0.,0.,1.));
#414 = ORIENTED_EDGE('',*,*,#93,.T.);
#415 = ORIENTED_EDGE('',*,*,#178,.F.);
#416 = ORIENTED_EDGE('',*,*,#292,.F.);
#417 = ORIENTED_EDGE('',*,*,#341,.T.);
#418 = PLANE('',#419);
#419 = AXIS2_PLACEMENT_3D('',#420,#421,#422);
#420 = CARTESIAN_POINT('',(1.973565344071E-13,2.8,4.566666666667));
#421 = DIRECTION('',(0.,1.,0.));
#422 = DIRECTION('',(0.,0.,1.));
#423 = ADVANCED_FACE('',(#424),#435,.T.);
#424 = FACE_BOUND('',#425,.F.);
#425 = EDGE_LOOP('',(#426,#427,#433,#434));
#426 = ORIENTED_EDGE('',*,*,#127,.T.);
#427 = ORIENTED_EDGE('',*,*,#428,.T.);
#428 = EDGE_CURVE('',#120,#222,#429,.T.);
#429 = LINE('',#430,#431);
#430 = CARTESIAN_POINT('',(10.,0.8,4.));
#431 = VECTOR('',#432,1.);
#432 = DIRECTION('',(0.,0.,1.));
#433 = ORIENTED_EDGE('',*,*,#229,.F.);
#434 = ORIENTED_EDGE('',*,*,#409,.F.);
#435 = CYLINDRICAL_SURFACE('',#436,2.);
#436 = AXIS2_PLACEMENT_3D('',#437,#438,#439);
#437 = CARTESIAN_POINT('',(8.,0.8,4.));
#438 = DIRECTION('',(0.,0.,1.));
#439 = DIRECTION('',(0.,1.,0.));
#440 = ADVANCED_FACE('',(#441),#447,.F.);
#441 = FACE_BOUND('',#442,.F.);
#442 = EDGE_LOOP('',(#443,#444,#445,#446));
#443 = ORIENTED_EDGE('',*,*,#119,.F.);
#444 = ORIENTED_EDGE('',*,*,#154,.T.);
#445 = ORIENTED_EDGE('',*,*,#221,.T.);
#446 = ORIENTED_EDGE('',*,*,#428,.F.);
#447 = PLANE('',#448);
#448 = AXIS2_PLACEMENT_3D('',#449,#450,#451);
#449 = CARTESIAN_POINT('',(10.,-2.8,4.));
#450 = DIRECTION('',(-1.,0.,0.));
#451 = DIRECTION('',(0.,1.,0.));
#452 = ADVANCED_FACE('',(#453),#464,.F.);
#453 = FACE_BOUND('',#454,.T.);
#454 = EDGE_LOOP('',(#455,#461,#462,#463));
#455 = ORIENTED_EDGE('',*,*,#456,.T.);
#456 = EDGE_CURVE('',#267,#137,#457,.T.);
#457 = LINE('',#458,#459);
#458 = CARTESIAN_POINT('',(5.,0.,7.));
#459 = VECTOR('',#460,1.);
#460 = DIRECTION('',(0.,0.,-1.));
#461 = ORIENTED_EDGE('',*,*,#136,.T.);
#462 = ORIENTED_EDGE('',*,*,#456,.F.);
#463 = ORIENTED_EDGE('',*,*,#266,.F.);
#464 = CYLINDRICAL_SURFACE('',#465,2.);
#465 = AXIS2_PLACEMENT_3D('',#466,#467,#468);
#466 = CARTESIAN_POINT('',(7.,0.,7.));
#467 = DIRECTION('',(0.,0.,1.));
#468 = DIRECTION('',(-1.,-0.,-0.));
#469 = ADVANCED_FACE('',(#470),#481,.F.);
#470 = FACE_BOUND('',#471,.F.);
#471 = EDGE_LOOP('',(#472,#473,#479,#480));
#472 = ORIENTED_EDGE('',*,*,#373,.F.);
#473 = ORIENTED_EDGE('',*,*,#474,.T.);
#474 = EDGE_CURVE('',#365,#203,#475,.T.);
#475 = LINE('',#476,#477);
#476 = CARTESIAN_POINT('',(-10.,0.8,4.));
#477 = VECTOR('',#478,1.);
#478 = DIRECTION('',(0.,0.,1.));
#479 = ORIENTED_EDGE('',*,*,#202,.T.);
#480 = ORIENTED_EDGE('',*,*,#316,.F.);
#481 = PLANE('',#482);
#482 = AXIS2_PLACEMENT_3D('',#483,#484,#485);
#483 = CARTESIAN_POINT('',(-10.,2.8,4.));
#484 = DIRECTION('',(1.,0.,0.));
#485 = DIRECTION('',(0.,-1.,0.));
#486 = ADVANCED_FACE('',(#487),#493,.T.);
#487 = FACE_BOUND('',#488,.T.);
#488 = EDGE_LOOP('',(#489,#490,#491,#492));
#489 = ORIENTED_EDGE('',*,*,#364,.T.);
#490 = ORIENTED_EDGE('',*,*,#474,.T.);
#491 = ORIENTED_EDGE('',*,*,#246,.F.);
#492 = ORIENTED_EDGE('',*,*,#402,.F.);
#493 = CYLINDRICAL_SURFACE('',#494,2.);
#494 = AXIS2_PLACEMENT_3D('',#495,#496,#497);
#495 = CARTESIAN_POINT('',(-8.,0.8,4.));
#496 = DIRECTION('',(0.,0.,1.));
#497 = DIRECTION('',(0.,1.,0.));
#498 = ADVANCED_FACE('',(#499),#510,.F.);
#499 = FACE_BOUND('',#500,.F.);
#500 = EDGE_LOOP('',(#501,#507,#508,#509));
#501 = ORIENTED_EDGE('',*,*,#502,.T.);
#502 = EDGE_CURVE('',#256,#385,#503,.T.);
#503 = LINE('',#504,#505);
#504 = CARTESIAN_POINT('',(-5.,0.,7.));
#505 = VECTOR('',#506,1.);
#506 = DIRECTION('',(-0.,-0.,-1.));
#507 = ORIENTED_EDGE('',*,*,#384,.T.);
#508 = ORIENTED_EDGE('',*,*,#502,.F.);
#509 = ORIENTED_EDGE('',*,*,#255,.F.);
#510 = CYLINDRICAL_SURFACE('',#511,2.);
#511 = AXIS2_PLACEMENT_3D('',#512,#513,#514);
#512 = CARTESIAN_POINT('',(-7.,0.,7.));
#513 = DIRECTION('',(0.,0.,1.));
#514 = DIRECTION('',(1.,0.,0.));
#515 = ( GEOMETRIC_REPRESENTATION_CONTEXT(3) 
GLOBAL_UNCERTAINTY_ASSIGNED_CONTEXT((#519)) GLOBAL_UNIT_ASSIGNED_CONTEXT
((#516,#517,#518)) REPRESENTATION_CONTEXT('Context #1',
  '3D Context with UNIT and UNCERTAINTY') );
#516 = ( LENGTH_UNIT() NAMED_UNIT(*) SI_UNIT(.MILLI.,.METRE.) );
#517 = ( NAMED_UNIT(*) PLANE_ANGLE_UNIT() SI_UNIT($,.RADIAN.) );
#518 = ( NAMED_UNIT(*) SI_UNIT($,.STERADIAN.) SOLID_ANGLE_UNIT() );
#519 = UNCERTAINTY_MEASURE_WITH_UNIT(LENGTH_MEASURE(1.E-07),#516,
  'distance_accuracy_value','confusion accuracy');
#520 = PRODUCT_RELATED_PRODUCT_CATEGORY('part',$,(#7));
#521 = MECHANICAL_DESIGN_GEOMETRIC_PRESENTATION_REPRESENTATION('',(#522)
  ,#515);
#522 = STYLED_ITEM('color',(#523),#15);
#523 = PRESENTATION_STYLE_ASSIGNMENT((#524,#530));
#524 = SURFACE_STYLE_USAGE(.BOTH.,#525);
#525 = SURFACE_SIDE_STYLE('',(#526));
#526 = SURFACE_STYLE_FILL_AREA(#527);
#527 = FILL_AREA_STYLE('',(#528));
#528 = FILL_AREA_STYLE_COLOUR('',#529);
#529 = COLOUR_RGB('',0.447058818107,0.474509808674,0.501960817233);
#530 = CURVE_STYLE('',#531,POSITIVE_LENGTH_MEASURE(0.1),#532);
#531 = DRAUGHTING_PRE_DEFINED_CURVE_FONT('continuous');
#532 = COLOUR_RGB('',9.803921802644E-02,9.803921802644E-02,
  9.803921802644E-02);
ENDSEC;
END-ISO-10303-21;
