ISO-10303-21;
HEADER;
FILE_DESCRIPTION(('FreeCAD Model'),'2;1');
FILE_NAME('Open CASCADE Shape Model','2026-02-05T18:08:27',(''),(''),
  'Open CASCADE STEP processor 7.8','FreeCAD','Unknown');
FILE_SCHEMA(('AUTOMOTIVE_DESIGN { 1 0 10303 214 1 1 1 1 }'));
ENDSEC;
DATA;
#1 = APPLICATION_PROTOCOL_DEFINITION('international standard',
  'automotive_design',2000,#2);
#2 = APPLICATION_CONTEXT(
  'core data for automotive mechanical design processes');
#3 = SHAPE_DEFINITION_REPRESENTATION(#4,#10);
#4 = PRODUCT_DEFINITION_SHAPE('','',#5);
#5 = PRODUCT_DEFINITION('design','',#6,#9);
#6 = PRODUCT_DEFINITION_FORMATION('','',#7);
#7 = PRODUCT('design6-mirror-attachment-top',
  'design6-mirror-attachment-top','',(#8));
#8 = PRODUCT_CONTEXT('',#2,'mechanical');
#9 = PRODUCT_DEFINITION_CONTEXT('part definition',#2,'design');
#10 = ADVANCED_BREP_SHAPE_REPRESENTATION('',(#11,#15),#1229);
#11 = AXIS2_PLACEMENT_3D('',#12,#13,#14);
#12 = CARTESIAN_POINT('',(0.,0.,0.));
#13 = DIRECTION('',(0.,0.,1.));
#14 = DIRECTION('',(1.,0.,-0.));
#15 = MANIFOLD_SOLID_BREP('',#16);
#16 = CLOSED_SHELL('',(#17,#171,#202,#227,#251,#275,#315,#339,#379,#403,
    #541,#565,#605,#629,#669,#693,#717,#741,#765,#783,#819,#866,#892,
    #925,#942,#989,#1013,#1030,#1047,#1059,#1083,#1100,#1126,#1150,#1175
    ,#1192,#1204,#1216));
#17 = ADVANCED_FACE('',(#18),#166,.T.);
#18 = FACE_BOUND('',#19,.T.);
#19 = EDGE_LOOP('',(#20,#30,#38,#46,#54,#62,#70,#78,#86,#94,#103,#111,
    #119,#127,#135,#143,#151,#159));
#20 = ORIENTED_EDGE('',*,*,#21,.T.);
#21 = EDGE_CURVE('',#22,#24,#26,.T.);
#22 = VERTEX_POINT('',#23);
#23 = CARTESIAN_POINT('',(-1.79,-1.8,48.8));
#24 = VERTEX_POINT('',#25);
#25 = CARTESIAN_POINT('',(-1.8,-1.8,48.8));
#26 = LINE('',#27,#28);
#27 = CARTESIAN_POINT('',(0.565151515148,-1.8,48.8));
#28 = VECTOR('',#29,1.);
#29 = DIRECTION('',(-1.,0.,0.));
#30 = ORIENTED_EDGE('',*,*,#31,.F.);
#31 = EDGE_CURVE('',#32,#24,#34,.T.);
#32 = VERTEX_POINT('',#33);
#33 = CARTESIAN_POINT('',(-1.8,-1.8,40.8));
#34 = LINE('',#35,#36);
#35 = CARTESIAN_POINT('',(-1.8,-1.8,40.8));
#36 = VECTOR('',#37,1.);
#37 = DIRECTION('',(0.,0.,1.));
#38 = ORIENTED_EDGE('',*,*,#39,.T.);
#39 = EDGE_CURVE('',#32,#40,#42,.T.);
#40 = VERTEX_POINT('',#41);
#41 = CARTESIAN_POINT('',(-4.326167895121E-30,-1.8,40.8));
#42 = LINE('',#43,#44);
#43 = CARTESIAN_POINT('',(-1.8,-1.8,40.8));
#44 = VECTOR('',#45,1.);
#45 = DIRECTION('',(1.,0.,0.));
#46 = ORIENTED_EDGE('',*,*,#47,.F.);
#47 = EDGE_CURVE('',#48,#40,#50,.T.);
#48 = VERTEX_POINT('',#49);
#49 = CARTESIAN_POINT('',(-4.326167895121E-30,-1.8,38.8));
#50 = LINE('',#51,#52);
#51 = CARTESIAN_POINT('',(-4.326167895121E-30,-1.8,38.8));
#52 = VECTOR('',#53,1.);
#53 = DIRECTION('',(0.,0.,1.));
#54 = ORIENTED_EDGE('',*,*,#55,.F.);
#55 = EDGE_CURVE('',#56,#48,#58,.T.);
#56 = VERTEX_POINT('',#57);
#57 = CARTESIAN_POINT('',(5.999999999976,-1.8,38.8));
#58 = LINE('',#59,#60);
#59 = CARTESIAN_POINT('',(5.999999999976,-1.8,38.8));
#60 = VECTOR('',#61,1.);
#61 = DIRECTION('',(-1.,0.,0.));
#62 = ORIENTED_EDGE('',*,*,#63,.T.);
#63 = EDGE_CURVE('',#56,#64,#66,.T.);
#64 = VERTEX_POINT('',#65);
#65 = CARTESIAN_POINT('',(5.999999999976,-1.8,40.8));
#66 = LINE('',#67,#68);
#67 = CARTESIAN_POINT('',(5.999999999976,-1.8,38.8));
#68 = VECTOR('',#69,1.);
#69 = DIRECTION('',(0.,0.,1.));
#70 = ORIENTED_EDGE('',*,*,#71,.T.);
#71 = EDGE_CURVE('',#64,#72,#74,.T.);
#72 = VERTEX_POINT('',#73);
#73 = CARTESIAN_POINT('',(1.8,-1.8,40.8));
#74 = LINE('',#75,#76);
#75 = CARTESIAN_POINT('',(5.999999999976,-1.8,40.8));
#76 = VECTOR('',#77,1.);
#77 = DIRECTION('',(-1.,0.,0.));
#78 = ORIENTED_EDGE('',*,*,#79,.T.);
#79 = EDGE_CURVE('',#72,#80,#82,.T.);
#80 = VERTEX_POINT('',#81);
#81 = CARTESIAN_POINT('',(1.8,-1.8,48.8));
#82 = LINE('',#83,#84);
#83 = CARTESIAN_POINT('',(1.8,-1.8,40.8));
#84 = VECTOR('',#85,1.);
#85 = DIRECTION('',(0.,0.,1.));
#86 = ORIENTED_EDGE('',*,*,#87,.T.);
#87 = EDGE_CURVE('',#80,#88,#90,.T.);
#88 = VERTEX_POINT('',#89);
#89 = CARTESIAN_POINT('',(1.79,-1.8,48.8));
#90 = LINE('',#91,#92);
#91 = CARTESIAN_POINT('',(0.565151515148,-1.8,48.8));
#92 = VECTOR('',#93,1.);
#93 = DIRECTION('',(-1.,0.,0.));
#94 = ORIENTED_EDGE('',*,*,#95,.F.);
#95 = EDGE_CURVE('',#96,#88,#98,.T.);
#96 = VERTEX_POINT('',#97);
#97 = CARTESIAN_POINT('',(1.4,-1.8,49.19));
#98 = CIRCLE('',#99,0.39);
#99 = AXIS2_PLACEMENT_3D('',#100,#101,#102);
#100 = CARTESIAN_POINT('',(1.79,-1.8,49.19));
#101 = DIRECTION('',(0.,-1.,0.));
#102 = DIRECTION('',(0.,0.,-1.));
#103 = ORIENTED_EDGE('',*,*,#104,.F.);
#104 = EDGE_CURVE('',#105,#96,#107,.T.);
#105 = VERTEX_POINT('',#106);
#106 = CARTESIAN_POINT('',(1.4,-1.8,50.8));
#107 = LINE('',#108,#109);
#108 = CARTESIAN_POINT('',(1.4,-1.8,47.315151515154));
#109 = VECTOR('',#110,1.);
#110 = DIRECTION('',(0.,0.,-1.));
#111 = ORIENTED_EDGE('',*,*,#112,.F.);
#112 = EDGE_CURVE('',#113,#105,#115,.T.);
#113 = VERTEX_POINT('',#114);
#114 = CARTESIAN_POINT('',(0.9,-1.8,50.8));
#115 = LINE('',#116,#117);
#116 = CARTESIAN_POINT('',(-1.8,-1.8,50.8));
#117 = VECTOR('',#118,1.);
#118 = DIRECTION('',(1.,0.,0.));
#119 = ORIENTED_EDGE('',*,*,#120,.F.);
#120 = EDGE_CURVE('',#121,#113,#123,.T.);
#121 = VERTEX_POINT('',#122);
#122 = CARTESIAN_POINT('',(0.9,-1.8,48.8));
#123 = LINE('',#124,#125);
#124 = CARTESIAN_POINT('',(0.9,-1.8,47.315151515154));
#125 = VECTOR('',#126,1.);
#126 = DIRECTION('',(0.,0.,1.));
#127 = ORIENTED_EDGE('',*,*,#128,.T.);
#128 = EDGE_CURVE('',#121,#129,#131,.T.);
#129 = VERTEX_POINT('',#130);
#130 = CARTESIAN_POINT('',(-0.9,-1.8,48.8));
#131 = LINE('',#132,#133);
#132 = CARTESIAN_POINT('',(0.565151515148,-1.8,48.8));
#133 = VECTOR('',#134,1.);
#134 = DIRECTION('',(-1.,0.,0.));
#135 = ORIENTED_EDGE('',*,*,#136,.F.);
#136 = EDGE_CURVE('',#137,#129,#139,.T.);
#137 = VERTEX_POINT('',#138);
#138 = CARTESIAN_POINT('',(-0.9,-1.8,50.8));
#139 = LINE('',#140,#141);
#140 = CARTESIAN_POINT('',(-0.9,-1.8,47.315151515154));
#141 = VECTOR('',#142,1.);
#142 = DIRECTION('',(0.,0.,-1.));
#143 = ORIENTED_EDGE('',*,*,#144,.F.);
#144 = EDGE_CURVE('',#145,#137,#147,.T.);
#145 = VERTEX_POINT('',#146);
#146 = CARTESIAN_POINT('',(-1.4,-1.8,50.8));
#147 = LINE('',#148,#149);
#148 = CARTESIAN_POINT('',(-1.8,-1.8,50.8));
#149 = VECTOR('',#150,1.);
#150 = DIRECTION('',(1.,0.,0.));
#151 = ORIENTED_EDGE('',*,*,#152,.F.);
#152 = EDGE_CURVE('',#153,#145,#155,.T.);
#153 = VERTEX_POINT('',#154);
#154 = CARTESIAN_POINT('',(-1.4,-1.8,49.19));
#155 = LINE('',#156,#157);
#156 = CARTESIAN_POINT('',(-1.4,-1.8,47.315151515154));
#157 = VECTOR('',#158,1.);
#158 = DIRECTION('',(0.,0.,1.));
#159 = ORIENTED_EDGE('',*,*,#160,.F.);
#160 = EDGE_CURVE('',#22,#153,#161,.T.);
#161 = CIRCLE('',#162,0.39);
#162 = AXIS2_PLACEMENT_3D('',#163,#164,#165);
#163 = CARTESIAN_POINT('',(-1.79,-1.8,49.19));
#164 = DIRECTION('',(0.,-1.,0.));
#165 = DIRECTION('',(0.,0.,1.));
#166 = PLANE('',#167);
#167 = AXIS2_PLACEMENT_3D('',#168,#169,#170);
#168 = CARTESIAN_POINT('',(1.130303030296,-1.8,43.830303030308));
#169 = DIRECTION('',(-0.,-1.,-0.));
#170 = DIRECTION('',(0.,0.,-1.));
#171 = ADVANCED_FACE('',(#172),#197,.T.);
#172 = FACE_BOUND('',#173,.T.);
#173 = EDGE_LOOP('',(#174,#175,#183,#191));
#174 = ORIENTED_EDGE('',*,*,#21,.F.);
#175 = ORIENTED_EDGE('',*,*,#176,.T.);
#176 = EDGE_CURVE('',#22,#177,#179,.T.);
#177 = VERTEX_POINT('',#178);
#178 = CARTESIAN_POINT('',(-1.79,1.8,48.8));
#179 = LINE('',#180,#181);
#180 = CARTESIAN_POINT('',(-1.79,-1.8,48.8));
#181 = VECTOR('',#182,1.);
#182 = DIRECTION('',(0.,1.,0.));
#183 = ORIENTED_EDGE('',*,*,#184,.F.);
#184 = EDGE_CURVE('',#185,#177,#187,.T.);
#185 = VERTEX_POINT('',#186);
#186 = CARTESIAN_POINT('',(-1.8,1.8,48.8));
#187 = LINE('',#188,#189);
#188 = CARTESIAN_POINT('',(-0.565151515148,1.8,48.8));
#189 = VECTOR('',#190,1.);
#190 = DIRECTION('',(1.,0.,0.));
#191 = ORIENTED_EDGE('',*,*,#192,.T.);
#192 = EDGE_CURVE('',#185,#24,#193,.T.);
#193 = LINE('',#194,#195);
#194 = CARTESIAN_POINT('',(-1.8,0.9,48.8));
#195 = VECTOR('',#196,1.);
#196 = DIRECTION('',(0.,-1.,0.));
#197 = PLANE('',#198);
#198 = AXIS2_PLACEMENT_3D('',#199,#200,#201);
#199 = CARTESIAN_POINT('',(3.505344163088E-14,-1.805962786726E-15,48.8)
  );
#200 = DIRECTION('',(0.,0.,1.));
#201 = DIRECTION('',(1.,0.,0.));
#202 = ADVANCED_FACE('',(#203),#222,.F.);
#203 = FACE_BOUND('',#204,.T.);
#204 = EDGE_LOOP('',(#205,#206,#214,#221));
#205 = ORIENTED_EDGE('',*,*,#160,.T.);
#206 = ORIENTED_EDGE('',*,*,#207,.T.);
#207 = EDGE_CURVE('',#153,#208,#210,.T.);
#208 = VERTEX_POINT('',#209);
#209 = CARTESIAN_POINT('',(-1.4,1.8,49.19));
#210 = LINE('',#211,#212);
#211 = CARTESIAN_POINT('',(-1.4,-1.8,49.19));
#212 = VECTOR('',#213,1.);
#213 = DIRECTION('',(0.,1.,0.));
#214 = ORIENTED_EDGE('',*,*,#215,.F.);
#215 = EDGE_CURVE('',#177,#208,#216,.T.);
#216 = CIRCLE('',#217,0.39);
#217 = AXIS2_PLACEMENT_3D('',#218,#219,#220);
#218 = CARTESIAN_POINT('',(-1.79,1.8,49.19));
#219 = DIRECTION('',(0.,-1.,0.));
#220 = DIRECTION('',(0.,0.,1.));
#221 = ORIENTED_EDGE('',*,*,#176,.F.);
#222 = CYLINDRICAL_SURFACE('',#223,0.39);
#223 = AXIS2_PLACEMENT_3D('',#224,#225,#226);
#224 = CARTESIAN_POINT('',(-1.79,-1.8,49.19));
#225 = DIRECTION('',(0.,1.,0.));
#226 = DIRECTION('',(0.,0.,-1.));
#227 = ADVANCED_FACE('',(#228),#246,.F.);
#228 = FACE_BOUND('',#229,.F.);
#229 = EDGE_LOOP('',(#230,#238,#244,#245));
#230 = ORIENTED_EDGE('',*,*,#231,.F.);
#231 = EDGE_CURVE('',#232,#32,#234,.T.);
#232 = VERTEX_POINT('',#233);
#233 = CARTESIAN_POINT('',(-1.8,1.8,40.8));
#234 = LINE('',#235,#236);
#235 = CARTESIAN_POINT('',(-1.8,1.8,40.8));
#236 = VECTOR('',#237,1.);
#237 = DIRECTION('',(0.,-1.,0.));
#238 = ORIENTED_EDGE('',*,*,#239,.T.);
#239 = EDGE_CURVE('',#232,#185,#240,.T.);
#240 = LINE('',#241,#242);
#241 = CARTESIAN_POINT('',(-1.8,1.8,40.8));
#242 = VECTOR('',#243,1.);
#243 = DIRECTION('',(0.,0.,1.));
#244 = ORIENTED_EDGE('',*,*,#192,.T.);
#245 = ORIENTED_EDGE('',*,*,#31,.F.);
#246 = PLANE('',#247);
#247 = AXIS2_PLACEMENT_3D('',#248,#249,#250);
#248 = CARTESIAN_POINT('',(-1.8,1.8,40.8));
#249 = DIRECTION('',(1.,0.,0.));
#250 = DIRECTION('',(0.,-1.,0.));
#251 = ADVANCED_FACE('',(#252),#270,.F.);
#252 = FACE_BOUND('',#253,.F.);
#253 = EDGE_LOOP('',(#254,#262,#268,#269));
#254 = ORIENTED_EDGE('',*,*,#255,.F.);
#255 = EDGE_CURVE('',#256,#208,#258,.T.);
#256 = VERTEX_POINT('',#257);
#257 = CARTESIAN_POINT('',(-1.4,1.8,50.8));
#258 = LINE('',#259,#260);
#259 = CARTESIAN_POINT('',(-1.4,1.8,47.315151515154));
#260 = VECTOR('',#261,1.);
#261 = DIRECTION('',(0.,0.,-1.));
#262 = ORIENTED_EDGE('',*,*,#263,.F.);
#263 = EDGE_CURVE('',#145,#256,#264,.T.);
#264 = LINE('',#265,#266);
#265 = CARTESIAN_POINT('',(-1.4,-1.999999999997,50.8));
#266 = VECTOR('',#267,1.);
#267 = DIRECTION('',(0.,1.,0.));
#268 = ORIENTED_EDGE('',*,*,#152,.F.);
#269 = ORIENTED_EDGE('',*,*,#207,.T.);
#270 = PLANE('',#271);
#271 = AXIS2_PLACEMENT_3D('',#272,#273,#274);
#272 = CARTESIAN_POINT('',(-1.4,-1.999999999997,50.8));
#273 = DIRECTION('',(1.,0.,0.));
#274 = DIRECTION('',(0.,1.,0.));
#275 = ADVANCED_FACE('',(#276),#310,.T.);
#276 = FACE_BOUND('',#277,.T.);
#277 = EDGE_LOOP('',(#278,#279,#287,#295,#303,#309));
#278 = ORIENTED_EDGE('',*,*,#231,.F.);
#279 = ORIENTED_EDGE('',*,*,#280,.F.);
#280 = EDGE_CURVE('',#281,#232,#283,.T.);
#281 = VERTEX_POINT('',#282);
#282 = CARTESIAN_POINT('',(-5.999999999976,1.8,40.8));
#283 = LINE('',#284,#285);
#284 = CARTESIAN_POINT('',(-5.999999999976,1.8,40.8));
#285 = VECTOR('',#286,1.);
#286 = DIRECTION('',(1.,0.,0.));
#287 = ORIENTED_EDGE('',*,*,#288,.F.);
#288 = EDGE_CURVE('',#289,#281,#291,.T.);
#289 = VERTEX_POINT('',#290);
#290 = CARTESIAN_POINT('',(-5.999999999976,-5.8,40.8));
#291 = LINE('',#292,#293);
#292 = CARTESIAN_POINT('',(-5.999999999976,-5.800000000001,40.8));
#293 = VECTOR('',#294,1.);
#294 = DIRECTION('',(0.,1.,0.));
#295 = ORIENTED_EDGE('',*,*,#296,.F.);
#296 = EDGE_CURVE('',#297,#289,#299,.T.);
#297 = VERTEX_POINT('',#298);
#298 = CARTESIAN_POINT('',(-2.163083947561E-30,-5.8,40.8));
#299 = LINE('',#300,#301);
#300 = CARTESIAN_POINT('',(-4.326167895121E-30,-5.800000000001,40.8));
#301 = VECTOR('',#302,1.);
#302 = DIRECTION('',(-1.,0.,0.));
#303 = ORIENTED_EDGE('',*,*,#304,.F.);
#304 = EDGE_CURVE('',#40,#297,#305,.T.);
#305 = LINE('',#306,#307);
#306 = CARTESIAN_POINT('',(-4.326167895121E-30,-1.8,40.8));
#307 = VECTOR('',#308,1.);
#308 = DIRECTION('',(0.,-1.,0.));
#309 = ORIENTED_EDGE('',*,*,#39,.F.);
#310 = PLANE('',#311);
#311 = AXIS2_PLACEMENT_3D('',#312,#313,#314);
#312 = CARTESIAN_POINT('',(-1.152750211672E-13,-4.6922917529E-13,40.8));
#313 = DIRECTION('',(0.,0.,1.));
#314 = DIRECTION('',(1.,0.,0.));
#315 = ADVANCED_FACE('',(#316),#334,.T.);
#316 = FACE_BOUND('',#317,.T.);
#317 = EDGE_LOOP('',(#318,#326,#327,#328));
#318 = ORIENTED_EDGE('',*,*,#319,.T.);
#319 = EDGE_CURVE('',#320,#256,#322,.T.);
#320 = VERTEX_POINT('',#321);
#321 = CARTESIAN_POINT('',(-0.9,1.8,50.8));
#322 = LINE('',#323,#324);
#323 = CARTESIAN_POINT('',(1.8,1.8,50.8));
#324 = VECTOR('',#325,1.);
#325 = DIRECTION('',(-1.,0.,0.));
#326 = ORIENTED_EDGE('',*,*,#263,.F.);
#327 = ORIENTED_EDGE('',*,*,#144,.T.);
#328 = ORIENTED_EDGE('',*,*,#329,.F.);
#329 = EDGE_CURVE('',#320,#137,#330,.T.);
#330 = LINE('',#331,#332);
#331 = CARTESIAN_POINT('',(-0.9,1.999999999997,50.8));
#332 = VECTOR('',#333,1.);
#333 = DIRECTION('',(0.,-1.,0.));
#334 = PLANE('',#335);
#335 = AXIS2_PLACEMENT_3D('',#336,#337,#338);
#336 = CARTESIAN_POINT('',(6.167905692362E-17,-1.325482933289E-13,50.8)
  );
#337 = DIRECTION('',(0.,0.,1.));
#338 = DIRECTION('',(1.,0.,0.));
#339 = ADVANCED_FACE('',(#340),#374,.T.);
#340 = FACE_BOUND('',#341,.T.);
#341 = EDGE_LOOP('',(#342,#350,#351,#352,#360,#368));
#342 = ORIENTED_EDGE('',*,*,#343,.F.);
#343 = EDGE_CURVE('',#48,#344,#346,.T.);
#344 = VERTEX_POINT('',#345);
#345 = CARTESIAN_POINT('',(3.503246160812E-46,-1.95,38.8));
#346 = LINE('',#347,#348);
#347 = CARTESIAN_POINT('',(-4.326167895121E-30,-1.8,38.8));
#348 = VECTOR('',#349,1.);
#349 = DIRECTION('',(0.,-1.,0.));
#350 = ORIENTED_EDGE('',*,*,#47,.T.);
#351 = ORIENTED_EDGE('',*,*,#304,.T.);
#352 = ORIENTED_EDGE('',*,*,#353,.F.);
#353 = EDGE_CURVE('',#354,#297,#356,.T.);
#354 = VERTEX_POINT('',#355);
#355 = CARTESIAN_POINT('',(0.,-5.8,35.2));
#356 = LINE('',#357,#358);
#357 = CARTESIAN_POINT('',(-4.326167895121E-30,-5.800000000001,38.8));
#358 = VECTOR('',#359,1.);
#359 = DIRECTION('',(0.,0.,1.));
#360 = ORIENTED_EDGE('',*,*,#361,.F.);
#361 = EDGE_CURVE('',#362,#354,#364,.T.);
#362 = VERTEX_POINT('',#363);
#363 = CARTESIAN_POINT('',(4.326167895121E-30,-1.95,35.2));
#364 = LINE('',#365,#366);
#365 = CARTESIAN_POINT('',(2.163083947561E-30,-2.369613259668,35.2));
#366 = VECTOR('',#367,1.);
#367 = DIRECTION('',(0.,-1.,-5.139015981222E-16));
#368 = ORIENTED_EDGE('',*,*,#369,.F.);
#369 = EDGE_CURVE('',#344,#362,#370,.T.);
#370 = LINE('',#371,#372);
#371 = CARTESIAN_POINT('',(4.326167895121E-30,-1.95,40.8));
#372 = VECTOR('',#373,1.);
#373 = DIRECTION('',(-0.,-0.,-1.));
#374 = PLANE('',#375);
#375 = AXIS2_PLACEMENT_3D('',#376,#377,#378);
#376 = CARTESIAN_POINT('',(-5.914682669113E-31,-3.828125,38.028125));
#377 = DIRECTION('',(1.,0.,0.));
#378 = DIRECTION('',(0.,0.,1.));
#379 = ADVANCED_FACE('',(#380),#398,.F.);
#380 = FACE_BOUND('',#381,.F.);
#381 = EDGE_LOOP('',(#382,#383,#391,#397));
#382 = ORIENTED_EDGE('',*,*,#329,.F.);
#383 = ORIENTED_EDGE('',*,*,#384,.F.);
#384 = EDGE_CURVE('',#385,#320,#387,.T.);
#385 = VERTEX_POINT('',#386);
#386 = CARTESIAN_POINT('',(-0.9,1.8,48.8));
#387 = LINE('',#388,#389);
#388 = CARTESIAN_POINT('',(-0.9,1.8,47.315151515154));
#389 = VECTOR('',#390,1.);
#390 = DIRECTION('',(0.,0.,1.));
#391 = ORIENTED_EDGE('',*,*,#392,.T.);
#392 = EDGE_CURVE('',#385,#129,#393,.T.);
#393 = LINE('',#394,#395);
#394 = CARTESIAN_POINT('',(-0.9,1.999999999997,48.8));
#395 = VECTOR('',#396,1.);
#396 = DIRECTION('',(0.,-1.,0.));
#397 = ORIENTED_EDGE('',*,*,#136,.F.);
#398 = PLANE('',#399);
#399 = AXIS2_PLACEMENT_3D('',#400,#401,#402);
#400 = CARTESIAN_POINT('',(-0.9,1.999999999997,50.8));
#401 = DIRECTION('',(-1.,0.,0.));
#402 = DIRECTION('',(0.,-1.,0.));
#403 = ADVANCED_FACE('',(#404),#536,.F.);
#404 = FACE_BOUND('',#405,.F.);
#405 = EDGE_LOOP('',(#406,#416,#424,#433,#441,#449,#457,#465,#473,#481,
    #489,#497,#506,#512,#513,#514,#522,#530));
#406 = ORIENTED_EDGE('',*,*,#407,.F.);
#407 = EDGE_CURVE('',#408,#410,#412,.T.);
#408 = VERTEX_POINT('',#409);
#409 = CARTESIAN_POINT('',(1.849999999988,5.8,38.8));
#410 = VERTEX_POINT('',#411);
#411 = CARTESIAN_POINT('',(4.149999999988,5.8,38.8));
#412 = LINE('',#413,#414);
#413 = CARTESIAN_POINT('',(-4.326167895121E-30,5.8,38.8));
#414 = VECTOR('',#415,1.);
#415 = DIRECTION('',(1.,0.,0.));
#416 = ORIENTED_EDGE('',*,*,#417,.T.);
#417 = EDGE_CURVE('',#408,#418,#420,.T.);
#418 = VERTEX_POINT('',#419);
#419 = CARTESIAN_POINT('',(1.849999999988,3.3,38.8));
#420 = LINE('',#421,#422);
#421 = CARTESIAN_POINT('',(1.849999999988,2.9,38.8));
#422 = VECTOR('',#423,1.);
#423 = DIRECTION('',(0.,-1.,0.));
#424 = ORIENTED_EDGE('',*,*,#425,.F.);
#425 = EDGE_CURVE('',#426,#418,#428,.T.);
#426 = VERTEX_POINT('',#427);
#427 = CARTESIAN_POINT('',(0.499999999988,1.95,38.8));
#428 = CIRCLE('',#429,1.35);
#429 = AXIS2_PLACEMENT_3D('',#430,#431,#432);
#430 = CARTESIAN_POINT('',(0.499999999988,3.3,38.8));
#431 = DIRECTION('',(0.,0.,1.));
#432 = DIRECTION('',(1.,0.,0.));
#433 = ORIENTED_EDGE('',*,*,#434,.T.);
#434 = EDGE_CURVE('',#426,#435,#437,.T.);
#435 = VERTEX_POINT('',#436);
#436 = CARTESIAN_POINT('',(-3.244625921341E-30,1.95,38.8));
#437 = LINE('',#438,#439);
#438 = CARTESIAN_POINT('',(0.249999999994,1.95,38.8));
#439 = VECTOR('',#440,1.);
#440 = DIRECTION('',(-1.,0.,0.));
#441 = ORIENTED_EDGE('',*,*,#442,.F.);
#442 = EDGE_CURVE('',#443,#435,#445,.T.);
#443 = VERTEX_POINT('',#444);
#444 = CARTESIAN_POINT('',(-4.326167895121E-30,1.8,38.8));
#445 = LINE('',#446,#447);
#446 = CARTESIAN_POINT('',(-4.326167895121E-30,1.8,38.8));
#447 = VECTOR('',#448,1.);
#448 = DIRECTION('',(0.,1.,0.));
#449 = ORIENTED_EDGE('',*,*,#450,.F.);
#450 = EDGE_CURVE('',#451,#443,#453,.T.);
#451 = VERTEX_POINT('',#452);
#452 = CARTESIAN_POINT('',(-5.999999999976,1.8,38.8));
#453 = LINE('',#454,#455);
#454 = CARTESIAN_POINT('',(-5.999999999976,1.8,38.8));
#455 = VECTOR('',#456,1.);
#456 = DIRECTION('',(1.,0.,0.));
#457 = ORIENTED_EDGE('',*,*,#458,.F.);
#458 = EDGE_CURVE('',#459,#451,#461,.T.);
#459 = VERTEX_POINT('',#460);
#460 = CARTESIAN_POINT('',(-5.999999999976,-1.95,38.8));
#461 = LINE('',#462,#463);
#462 = CARTESIAN_POINT('',(-5.999999999976,-5.800000000001,38.8));
#463 = VECTOR('',#464,1.);
#464 = DIRECTION('',(0.,1.,0.));
#465 = ORIENTED_EDGE('',*,*,#466,.T.);
#466 = EDGE_CURVE('',#459,#467,#469,.T.);
#467 = VERTEX_POINT('',#468);
#468 = CARTESIAN_POINT('',(-4.149999999988,-1.95,38.8));
#469 = LINE('',#470,#471);
#470 = CARTESIAN_POINT('',(-2.999999999988,-1.95,38.8));
#471 = VECTOR('',#472,1.);
#472 = DIRECTION('',(1.,2.400482215422E-16,0.));
#473 = ORIENTED_EDGE('',*,*,#474,.T.);
#474 = EDGE_CURVE('',#467,#475,#477,.T.);
#475 = VERTEX_POINT('',#476);
#476 = CARTESIAN_POINT('',(-4.149999999988,-5.8,38.8));
#477 = LINE('',#478,#479);
#478 = CARTESIAN_POINT('',(-4.149999999988,-0.975,38.8));
#479 = VECTOR('',#480,1.);
#480 = DIRECTION('',(0.,-1.,0.));
#481 = ORIENTED_EDGE('',*,*,#482,.F.);
#482 = EDGE_CURVE('',#483,#475,#485,.T.);
#483 = VERTEX_POINT('',#484);
#484 = CARTESIAN_POINT('',(-1.849999999988,-5.8,38.8));
#485 = LINE('',#486,#487);
#486 = CARTESIAN_POINT('',(-4.326167895121E-30,-5.800000000001,38.8));
#487 = VECTOR('',#488,1.);
#488 = DIRECTION('',(-1.,0.,0.));
#489 = ORIENTED_EDGE('',*,*,#490,.T.);
#490 = EDGE_CURVE('',#483,#491,#493,.T.);
#491 = VERTEX_POINT('',#492);
#492 = CARTESIAN_POINT('',(-1.849999999988,-3.300000000006,38.8));
#493 = LINE('',#494,#495);
#494 = CARTESIAN_POINT('',(-1.849999999988,-2.9,38.8));
#495 = VECTOR('',#496,1.);
#496 = DIRECTION('',(-8.881784197001E-17,1.,0.));
#497 = ORIENTED_EDGE('',*,*,#498,.F.);
#498 = EDGE_CURVE('',#499,#491,#501,.T.);
#499 = VERTEX_POINT('',#500);
#500 = CARTESIAN_POINT('',(-0.499999999988,-1.95,38.8));
#501 = CIRCLE('',#502,1.35);
#502 = AXIS2_PLACEMENT_3D('',#503,#504,#505);
#503 = CARTESIAN_POINT('',(-0.499999999988,-3.3,38.8));
#504 = DIRECTION('',(0.,0.,1.));
#505 = DIRECTION('',(1.,0.,0.));
#506 = ORIENTED_EDGE('',*,*,#507,.F.);
#507 = EDGE_CURVE('',#344,#499,#508,.T.);
#508 = LINE('',#509,#510);
#509 = CARTESIAN_POINT('',(-5.652691121219E-14,-1.95,38.8));
#510 = VECTOR('',#511,1.);
#511 = DIRECTION('',(-1.,-8.881784197218E-16,0.));
#512 = ORIENTED_EDGE('',*,*,#343,.F.);
#513 = ORIENTED_EDGE('',*,*,#55,.F.);
#514 = ORIENTED_EDGE('',*,*,#515,.F.);
#515 = EDGE_CURVE('',#516,#56,#518,.T.);
#516 = VERTEX_POINT('',#517);
#517 = CARTESIAN_POINT('',(5.999999999976,1.95,38.8));
#518 = LINE('',#519,#520);
#519 = CARTESIAN_POINT('',(5.999999999976,5.8,38.8));
#520 = VECTOR('',#521,1.);
#521 = DIRECTION('',(0.,-1.,0.));
#522 = ORIENTED_EDGE('',*,*,#523,.F.);
#523 = EDGE_CURVE('',#524,#516,#526,.T.);
#524 = VERTEX_POINT('',#525);
#525 = CARTESIAN_POINT('',(4.149999999988,1.95,38.8));
#526 = LINE('',#527,#528);
#527 = CARTESIAN_POINT('',(2.074999999994,1.95,38.8));
#528 = VECTOR('',#529,1.);
#529 = DIRECTION('',(1.,0.,0.));
#530 = ORIENTED_EDGE('',*,*,#531,.F.);
#531 = EDGE_CURVE('',#410,#524,#532,.T.);
#532 = LINE('',#533,#534);
#533 = CARTESIAN_POINT('',(4.149999999988,2.9,38.8));
#534 = VECTOR('',#535,1.);
#535 = DIRECTION('',(0.,-1.,0.));
#536 = PLANE('',#537);
#537 = AXIS2_PLACEMENT_3D('',#538,#539,#540);
#538 = CARTESIAN_POINT('',(-1.147857703428E-13,-4.69041001896E-13,38.8)
  );
#539 = DIRECTION('',(0.,0.,1.));
#540 = DIRECTION('',(1.,0.,0.));
#541 = ADVANCED_FACE('',(#542),#560,.T.);
#542 = FACE_BOUND('',#543,.T.);
#543 = EDGE_LOOP('',(#544,#552,#553,#554));
#544 = ORIENTED_EDGE('',*,*,#545,.F.);
#545 = EDGE_CURVE('',#385,#546,#548,.T.);
#546 = VERTEX_POINT('',#547);
#547 = CARTESIAN_POINT('',(0.9,1.8,48.8));
#548 = LINE('',#549,#550);
#549 = CARTESIAN_POINT('',(-0.565151515148,1.8,48.8));
#550 = VECTOR('',#551,1.);
#551 = DIRECTION('',(1.,0.,0.));
#552 = ORIENTED_EDGE('',*,*,#392,.T.);
#553 = ORIENTED_EDGE('',*,*,#128,.F.);
#554 = ORIENTED_EDGE('',*,*,#555,.T.);
#555 = EDGE_CURVE('',#121,#546,#556,.T.);
#556 = LINE('',#557,#558);
#557 = CARTESIAN_POINT('',(0.9,-1.999999999997,48.8));
#558 = VECTOR('',#559,1.);
#559 = DIRECTION('',(0.,1.,0.));
#560 = PLANE('',#561);
#561 = AXIS2_PLACEMENT_3D('',#562,#563,#564);
#562 = CARTESIAN_POINT('',(3.505344163088E-14,-1.805962786726E-15,48.8)
  );
#563 = DIRECTION('',(0.,0.,1.));
#564 = DIRECTION('',(1.,0.,0.));
#565 = ADVANCED_FACE('',(#566),#600,.T.);
#566 = FACE_BOUND('',#567,.T.);
#567 = EDGE_LOOP('',(#568,#569,#577,#585,#593,#599));
#568 = ORIENTED_EDGE('',*,*,#515,.F.);
#569 = ORIENTED_EDGE('',*,*,#570,.T.);
#570 = EDGE_CURVE('',#516,#571,#573,.T.);
#571 = VERTEX_POINT('',#572);
#572 = CARTESIAN_POINT('',(5.999999999976,1.95,35.2));
#573 = LINE('',#574,#575);
#574 = CARTESIAN_POINT('',(5.999999999976,1.95,40.8));
#575 = VECTOR('',#576,1.);
#576 = DIRECTION('',(-0.,-0.,-1.));
#577 = ORIENTED_EDGE('',*,*,#578,.F.);
#578 = EDGE_CURVE('',#579,#571,#581,.T.);
#579 = VERTEX_POINT('',#580);
#580 = CARTESIAN_POINT('',(5.999999999976,5.8,35.2));
#581 = LINE('',#582,#583);
#582 = CARTESIAN_POINT('',(5.999999999976,1.505386740331,35.2));
#583 = VECTOR('',#584,1.);
#584 = DIRECTION('',(0.,-1.,-5.139015981222E-16));
#585 = ORIENTED_EDGE('',*,*,#586,.T.);
#586 = EDGE_CURVE('',#579,#587,#589,.T.);
#587 = VERTEX_POINT('',#588);
#588 = CARTESIAN_POINT('',(5.999999999976,5.8,40.8));
#589 = LINE('',#590,#591);
#590 = CARTESIAN_POINT('',(5.999999999976,5.8,38.8));
#591 = VECTOR('',#592,1.);
#592 = DIRECTION('',(0.,0.,1.));
#593 = ORIENTED_EDGE('',*,*,#594,.T.);
#594 = EDGE_CURVE('',#587,#64,#595,.T.);
#595 = LINE('',#596,#597);
#596 = CARTESIAN_POINT('',(5.999999999976,5.8,40.8));
#597 = VECTOR('',#598,1.);
#598 = DIRECTION('',(0.,-1.,0.));
#599 = ORIENTED_EDGE('',*,*,#63,.F.);
#600 = PLANE('',#601);
#601 = AXIS2_PLACEMENT_3D('',#602,#603,#604);
#602 = CARTESIAN_POINT('',(5.999999999976,2.511363636363,38.511363636364
    ));
#603 = DIRECTION('',(1.,0.,0.));
#604 = DIRECTION('',(0.,0.,1.));
#605 = ADVANCED_FACE('',(#606),#624,.F.);
#606 = FACE_BOUND('',#607,.F.);
#607 = EDGE_LOOP('',(#608,#616,#617,#618));
#608 = ORIENTED_EDGE('',*,*,#609,.F.);
#609 = EDGE_CURVE('',#113,#610,#612,.T.);
#610 = VERTEX_POINT('',#611);
#611 = CARTESIAN_POINT('',(0.9,1.8,50.8));
#612 = LINE('',#613,#614);
#613 = CARTESIAN_POINT('',(0.9,-1.999999999997,50.8));
#614 = VECTOR('',#615,1.);
#615 = DIRECTION('',(0.,1.,0.));
#616 = ORIENTED_EDGE('',*,*,#120,.F.);
#617 = ORIENTED_EDGE('',*,*,#555,.T.);
#618 = ORIENTED_EDGE('',*,*,#619,.F.);
#619 = EDGE_CURVE('',#610,#546,#620,.T.);
#620 = LINE('',#621,#622);
#621 = CARTESIAN_POINT('',(0.9,1.8,47.315151515154));
#622 = VECTOR('',#623,1.);
#623 = DIRECTION('',(0.,0.,-1.));
#624 = PLANE('',#625);
#625 = AXIS2_PLACEMENT_3D('',#626,#627,#628);
#626 = CARTESIAN_POINT('',(0.9,-1.999999999997,50.8));
#627 = DIRECTION('',(1.,0.,0.));
#628 = DIRECTION('',(0.,1.,0.));
#629 = ADVANCED_FACE('',(#630),#664,.T.);
#630 = FACE_BOUND('',#631,.T.);
#631 = EDGE_LOOP('',(#632,#640,#648,#656,#662,#663));
#632 = ORIENTED_EDGE('',*,*,#633,.F.);
#633 = EDGE_CURVE('',#634,#587,#636,.T.);
#634 = VERTEX_POINT('',#635);
#635 = CARTESIAN_POINT('',(-4.326167895121E-30,5.8,40.8));
#636 = LINE('',#637,#638);
#637 = CARTESIAN_POINT('',(-4.326167895121E-30,5.8,40.8));
#638 = VECTOR('',#639,1.);
#639 = DIRECTION('',(1.,0.,0.));
#640 = ORIENTED_EDGE('',*,*,#641,.F.);
#641 = EDGE_CURVE('',#642,#634,#644,.T.);
#642 = VERTEX_POINT('',#643);
#643 = CARTESIAN_POINT('',(-4.326167895121E-30,1.8,40.8));
#644 = LINE('',#645,#646);
#645 = CARTESIAN_POINT('',(-4.326167895121E-30,1.8,40.8));
#646 = VECTOR('',#647,1.);
#647 = DIRECTION('',(0.,1.,0.));
#648 = ORIENTED_EDGE('',*,*,#649,.F.);
#649 = EDGE_CURVE('',#650,#642,#652,.T.);
#650 = VERTEX_POINT('',#651);
#651 = CARTESIAN_POINT('',(1.8,1.8,40.8));
#652 = LINE('',#653,#654);
#653 = CARTESIAN_POINT('',(1.8,1.8,40.8));
#654 = VECTOR('',#655,1.);
#655 = DIRECTION('',(-1.,0.,0.));
#656 = ORIENTED_EDGE('',*,*,#657,.F.);
#657 = EDGE_CURVE('',#72,#650,#658,.T.);
#658 = LINE('',#659,#660);
#659 = CARTESIAN_POINT('',(1.8,-1.8,40.8));
#660 = VECTOR('',#661,1.);
#661 = DIRECTION('',(0.,1.,0.));
#662 = ORIENTED_EDGE('',*,*,#71,.F.);
#663 = ORIENTED_EDGE('',*,*,#594,.F.);
#664 = PLANE('',#665);
#665 = AXIS2_PLACEMENT_3D('',#666,#667,#668);
#666 = CARTESIAN_POINT('',(-1.152750211672E-13,-4.6922917529E-13,40.8));
#667 = DIRECTION('',(0.,0.,1.));
#668 = DIRECTION('',(1.,0.,0.));
#669 = ADVANCED_FACE('',(#670),#688,.T.);
#670 = FACE_BOUND('',#671,.T.);
#671 = EDGE_LOOP('',(#672,#680,#681,#682));
#672 = ORIENTED_EDGE('',*,*,#673,.T.);
#673 = EDGE_CURVE('',#674,#610,#676,.T.);
#674 = VERTEX_POINT('',#675);
#675 = CARTESIAN_POINT('',(1.4,1.8,50.8));
#676 = LINE('',#677,#678);
#677 = CARTESIAN_POINT('',(1.8,1.8,50.8));
#678 = VECTOR('',#679,1.);
#679 = DIRECTION('',(-1.,0.,0.));
#680 = ORIENTED_EDGE('',*,*,#609,.F.);
#681 = ORIENTED_EDGE('',*,*,#112,.T.);
#682 = ORIENTED_EDGE('',*,*,#683,.F.);
#683 = EDGE_CURVE('',#674,#105,#684,.T.);
#684 = LINE('',#685,#686);
#685 = CARTESIAN_POINT('',(1.4,1.999999999997,50.8));
#686 = VECTOR('',#687,1.);
#687 = DIRECTION('',(0.,-1.,0.));
#688 = PLANE('',#689);
#689 = AXIS2_PLACEMENT_3D('',#690,#691,#692);
#690 = CARTESIAN_POINT('',(6.167905692362E-17,-1.325482933289E-13,50.8)
  );
#691 = DIRECTION('',(0.,0.,1.));
#692 = DIRECTION('',(1.,0.,0.));
#693 = ADVANCED_FACE('',(#694),#712,.F.);
#694 = FACE_BOUND('',#695,.F.);
#695 = EDGE_LOOP('',(#696,#697,#698,#706));
#696 = ORIENTED_EDGE('',*,*,#657,.F.);
#697 = ORIENTED_EDGE('',*,*,#79,.T.);
#698 = ORIENTED_EDGE('',*,*,#699,.T.);
#699 = EDGE_CURVE('',#80,#700,#702,.T.);
#700 = VERTEX_POINT('',#701);
#701 = CARTESIAN_POINT('',(1.8,1.8,48.8));
#702 = LINE('',#703,#704);
#703 = CARTESIAN_POINT('',(1.8,-0.9,48.8));
#704 = VECTOR('',#705,1.);
#705 = DIRECTION('',(0.,1.,0.));
#706 = ORIENTED_EDGE('',*,*,#707,.F.);
#707 = EDGE_CURVE('',#650,#700,#708,.T.);
#708 = LINE('',#709,#710);
#709 = CARTESIAN_POINT('',(1.8,1.8,40.8));
#710 = VECTOR('',#711,1.);
#711 = DIRECTION('',(0.,0.,1.));
#712 = PLANE('',#713);
#713 = AXIS2_PLACEMENT_3D('',#714,#715,#716);
#714 = CARTESIAN_POINT('',(1.8,-1.8,40.8));
#715 = DIRECTION('',(-1.,0.,0.));
#716 = DIRECTION('',(0.,1.,0.));
#717 = ADVANCED_FACE('',(#718),#736,.F.);
#718 = FACE_BOUND('',#719,.F.);
#719 = EDGE_LOOP('',(#720,#721,#722,#730));
#720 = ORIENTED_EDGE('',*,*,#104,.F.);
#721 = ORIENTED_EDGE('',*,*,#683,.F.);
#722 = ORIENTED_EDGE('',*,*,#723,.F.);
#723 = EDGE_CURVE('',#724,#674,#726,.T.);
#724 = VERTEX_POINT('',#725);
#725 = CARTESIAN_POINT('',(1.4,1.8,49.19));
#726 = LINE('',#727,#728);
#727 = CARTESIAN_POINT('',(1.4,1.8,47.315151515154));
#728 = VECTOR('',#729,1.);
#729 = DIRECTION('',(0.,0.,1.));
#730 = ORIENTED_EDGE('',*,*,#731,.T.);
#731 = EDGE_CURVE('',#724,#96,#732,.T.);
#732 = LINE('',#733,#734);
#733 = CARTESIAN_POINT('',(1.4,1.8,49.19));
#734 = VECTOR('',#735,1.);
#735 = DIRECTION('',(0.,-1.,0.));
#736 = PLANE('',#737);
#737 = AXIS2_PLACEMENT_3D('',#738,#739,#740);
#738 = CARTESIAN_POINT('',(1.4,1.999999999997,50.8));
#739 = DIRECTION('',(-1.,0.,0.));
#740 = DIRECTION('',(0.,-1.,0.));
#741 = ADVANCED_FACE('',(#742),#760,.T.);
#742 = FACE_BOUND('',#743,.T.);
#743 = EDGE_LOOP('',(#744,#752,#758,#759));
#744 = ORIENTED_EDGE('',*,*,#745,.F.);
#745 = EDGE_CURVE('',#746,#700,#748,.T.);
#746 = VERTEX_POINT('',#747);
#747 = CARTESIAN_POINT('',(1.79,1.8,48.8));
#748 = LINE('',#749,#750);
#749 = CARTESIAN_POINT('',(-0.565151515148,1.8,48.8));
#750 = VECTOR('',#751,1.);
#751 = DIRECTION('',(1.,0.,0.));
#752 = ORIENTED_EDGE('',*,*,#753,.T.);
#753 = EDGE_CURVE('',#746,#88,#754,.T.);
#754 = LINE('',#755,#756);
#755 = CARTESIAN_POINT('',(1.79,1.8,48.8));
#756 = VECTOR('',#757,1.);
#757 = DIRECTION('',(0.,-1.,0.));
#758 = ORIENTED_EDGE('',*,*,#87,.F.);
#759 = ORIENTED_EDGE('',*,*,#699,.T.);
#760 = PLANE('',#761);
#761 = AXIS2_PLACEMENT_3D('',#762,#763,#764);
#762 = CARTESIAN_POINT('',(3.505344163088E-14,-1.805962786726E-15,48.8)
  );
#763 = DIRECTION('',(0.,0.,1.));
#764 = DIRECTION('',(1.,0.,0.));
#765 = ADVANCED_FACE('',(#766),#778,.F.);
#766 = FACE_BOUND('',#767,.F.);
#767 = EDGE_LOOP('',(#768,#775,#776,#777));
#768 = ORIENTED_EDGE('',*,*,#769,.T.);
#769 = EDGE_CURVE('',#724,#746,#770,.T.);
#770 = CIRCLE('',#771,0.39);
#771 = AXIS2_PLACEMENT_3D('',#772,#773,#774);
#772 = CARTESIAN_POINT('',(1.79,1.8,49.19));
#773 = DIRECTION('',(0.,-1.,0.));
#774 = DIRECTION('',(0.,0.,-1.));
#775 = ORIENTED_EDGE('',*,*,#753,.T.);
#776 = ORIENTED_EDGE('',*,*,#95,.F.);
#777 = ORIENTED_EDGE('',*,*,#731,.F.);
#778 = CYLINDRICAL_SURFACE('',#779,0.39);
#779 = AXIS2_PLACEMENT_3D('',#780,#781,#782);
#780 = CARTESIAN_POINT('',(1.79,1.8,49.19));
#781 = DIRECTION('',(0.,-1.,0.));
#782 = DIRECTION('',(-1.,0.,0.));
#783 = ADVANCED_FACE('',(#784),#814,.T.);
#784 = FACE_BOUND('',#785,.T.);
#785 = EDGE_LOOP('',(#786,#787,#788,#789,#795,#796,#802,#803,#804,#805,
    #806,#807,#808,#809,#810,#811,#812,#813));
#786 = ORIENTED_EDGE('',*,*,#745,.T.);
#787 = ORIENTED_EDGE('',*,*,#707,.F.);
#788 = ORIENTED_EDGE('',*,*,#649,.T.);
#789 = ORIENTED_EDGE('',*,*,#790,.F.);
#790 = EDGE_CURVE('',#443,#642,#791,.T.);
#791 = LINE('',#792,#793);
#792 = CARTESIAN_POINT('',(-4.326167895121E-30,1.8,38.8));
#793 = VECTOR('',#794,1.);
#794 = DIRECTION('',(0.,0.,1.));
#795 = ORIENTED_EDGE('',*,*,#450,.F.);
#796 = ORIENTED_EDGE('',*,*,#797,.T.);
#797 = EDGE_CURVE('',#451,#281,#798,.T.);
#798 = LINE('',#799,#800);
#799 = CARTESIAN_POINT('',(-5.999999999976,1.8,38.8));
#800 = VECTOR('',#801,1.);
#801 = DIRECTION('',(0.,0.,1.));
#802 = ORIENTED_EDGE('',*,*,#280,.T.);
#803 = ORIENTED_EDGE('',*,*,#239,.T.);
#804 = ORIENTED_EDGE('',*,*,#184,.T.);
#805 = ORIENTED_EDGE('',*,*,#215,.T.);
#806 = ORIENTED_EDGE('',*,*,#255,.F.);
#807 = ORIENTED_EDGE('',*,*,#319,.F.);
#808 = ORIENTED_EDGE('',*,*,#384,.F.);
#809 = ORIENTED_EDGE('',*,*,#545,.T.);
#810 = ORIENTED_EDGE('',*,*,#619,.F.);
#811 = ORIENTED_EDGE('',*,*,#673,.F.);
#812 = ORIENTED_EDGE('',*,*,#723,.F.);
#813 = ORIENTED_EDGE('',*,*,#769,.T.);
#814 = PLANE('',#815);
#815 = AXIS2_PLACEMENT_3D('',#816,#817,#818);
#816 = CARTESIAN_POINT('',(-1.130303030296,1.8,43.830303030308));
#817 = DIRECTION('',(0.,1.,0.));
#818 = DIRECTION('',(0.,0.,1.));
#819 = ADVANCED_FACE('',(#820),#861,.T.);
#820 = FACE_BOUND('',#821,.T.);
#821 = EDGE_LOOP('',(#822,#823,#831,#837,#838,#839,#847,#855));
#822 = ORIENTED_EDGE('',*,*,#482,.F.);
#823 = ORIENTED_EDGE('',*,*,#824,.T.);
#824 = EDGE_CURVE('',#483,#825,#827,.T.);
#825 = VERTEX_POINT('',#826);
#826 = CARTESIAN_POINT('',(-1.849999999988,-5.8,35.2));
#827 = LINE('',#828,#829);
#828 = CARTESIAN_POINT('',(-1.849999999988,-5.8,40.8));
#829 = VECTOR('',#830,1.);
#830 = DIRECTION('',(-0.,-0.,-1.));
#831 = ORIENTED_EDGE('',*,*,#832,.F.);
#832 = EDGE_CURVE('',#354,#825,#833,.T.);
#833 = LINE('',#834,#835);
#834 = CARTESIAN_POINT('',(1.451381215474,-5.8,35.2));
#835 = VECTOR('',#836,1.);
#836 = DIRECTION('',(-1.,-0.,-2.282181546508E-31));
#837 = ORIENTED_EDGE('',*,*,#353,.T.);
#838 = ORIENTED_EDGE('',*,*,#296,.T.);
#839 = ORIENTED_EDGE('',*,*,#840,.F.);
#840 = EDGE_CURVE('',#841,#289,#843,.T.);
#841 = VERTEX_POINT('',#842);
#842 = CARTESIAN_POINT('',(-5.999999999976,-5.8,35.2));
#843 = LINE('',#844,#845);
#844 = CARTESIAN_POINT('',(-5.999999999976,-5.800000000001,38.8));
#845 = VECTOR('',#846,1.);
#846 = DIRECTION('',(0.,0.,1.));
#847 = ORIENTED_EDGE('',*,*,#848,.T.);
#848 = EDGE_CURVE('',#841,#849,#851,.T.);
#849 = VERTEX_POINT('',#850);
#850 = CARTESIAN_POINT('',(-4.149999999988,-5.8,35.2));
#851 = LINE('',#852,#853);
#852 = CARTESIAN_POINT('',(0.301381215475,-5.799999999999,35.2));
#853 = VECTOR('',#854,1.);
#854 = DIRECTION('',(1.,1.373075827221E-13,7.079080434981E-29));
#855 = ORIENTED_EDGE('',*,*,#856,.F.);
#856 = EDGE_CURVE('',#475,#849,#857,.T.);
#857 = LINE('',#858,#859);
#858 = CARTESIAN_POINT('',(-4.149999999988,-5.8,40.8));
#859 = VECTOR('',#860,1.);
#860 = DIRECTION('',(-0.,-0.,-1.));
#861 = PLANE('',#862);
#862 = AXIS2_PLACEMENT_3D('',#863,#864,#865);
#863 = CARTESIAN_POINT('',(-2.999999999988,-5.8,38.035526315789));
#864 = DIRECTION('',(2.226078358175E-14,-1.,-1.804295582998E-13));
#865 = DIRECTION('',(0.,1.804295582998E-13,-1.));
#866 = ADVANCED_FACE('',(#867),#887,.T.);
#867 = FACE_BOUND('',#868,.T.);
#868 = EDGE_LOOP('',(#869,#870,#878,#884,#885,#886));
#869 = ORIENTED_EDGE('',*,*,#458,.F.);
#870 = ORIENTED_EDGE('',*,*,#871,.T.);
#871 = EDGE_CURVE('',#459,#872,#874,.T.);
#872 = VERTEX_POINT('',#873);
#873 = CARTESIAN_POINT('',(-5.999999999976,-1.95,35.2));
#874 = LINE('',#875,#876);
#875 = CARTESIAN_POINT('',(-5.999999999976,-1.95,40.8));
#876 = VECTOR('',#877,1.);
#877 = DIRECTION('',(-0.,-0.,-1.));
#878 = ORIENTED_EDGE('',*,*,#879,.T.);
#879 = EDGE_CURVE('',#872,#841,#880,.T.);
#880 = LINE('',#881,#882);
#881 = CARTESIAN_POINT('',(-5.999999999976,-2.369613259668,35.2));
#882 = VECTOR('',#883,1.);
#883 = DIRECTION('',(-1.658702035752E-13,-1.,-5.139015981222E-16));
#884 = ORIENTED_EDGE('',*,*,#840,.T.);
#885 = ORIENTED_EDGE('',*,*,#288,.T.);
#886 = ORIENTED_EDGE('',*,*,#797,.F.);
#887 = PLANE('',#888);
#888 = AXIS2_PLACEMENT_3D('',#889,#890,#891);
#889 = CARTESIAN_POINT('',(-5.999999999976,-2.511363636364,
    38.511363636364));
#890 = DIRECTION('',(-1.,4.568467011674E-14,4.103029943433E-14));
#891 = DIRECTION('',(-4.568467011674E-14,-1.,0.));
#892 = ADVANCED_FACE('',(#893),#920,.T.);
#893 = FACE_BOUND('',#894,.F.);
#894 = EDGE_LOOP('',(#895,#906,#912,#913,#914));
#895 = ORIENTED_EDGE('',*,*,#896,.T.);
#896 = EDGE_CURVE('',#897,#899,#901,.T.);
#897 = VERTEX_POINT('',#898);
#898 = CARTESIAN_POINT('',(-0.499999999988,-1.95,35.2));
#899 = VERTEX_POINT('',#900);
#900 = CARTESIAN_POINT('',(-1.849999999988,-3.300000000006,35.2));
#901 = CIRCLE('',#902,1.35);
#902 = AXIS2_PLACEMENT_3D('',#903,#904,#905);
#903 = CARTESIAN_POINT('',(-0.499999999988,-3.3,35.2));
#904 = DIRECTION('',(0.,0.,1.));
#905 = DIRECTION('',(1.,0.,0.));
#906 = ORIENTED_EDGE('',*,*,#907,.T.);
#907 = EDGE_CURVE('',#899,#825,#908,.T.);
#908 = LINE('',#909,#910);
#909 = CARTESIAN_POINT('',(-1.849999999988,-2.369613259668,35.2));
#910 = VECTOR('',#911,1.);
#911 = DIRECTION('',(8.881784197001E-17,-1.,-5.139015981222E-16));
#912 = ORIENTED_EDGE('',*,*,#832,.F.);
#913 = ORIENTED_EDGE('',*,*,#361,.F.);
#914 = ORIENTED_EDGE('',*,*,#915,.F.);
#915 = EDGE_CURVE('',#897,#362,#916,.T.);
#916 = LINE('',#917,#918);
#917 = CARTESIAN_POINT('',(2.376381215468,-1.95,35.2));
#918 = VECTOR('',#919,1.);
#919 = DIRECTION('',(1.,8.881784197218E-16,6.846544639634E-31));
#920 = PLANE('',#921);
#921 = AXIS2_PLACEMENT_3D('',#922,#923,#924);
#922 = CARTESIAN_POINT('',(4.752762430937,1.060773480663,35.2));
#923 = DIRECTION('',(2.282181546508E-31,5.139015981222E-16,-1.));
#924 = DIRECTION('',(-4.440892098501E-16,-1.,-5.139015981222E-16));
#925 = ADVANCED_FACE('',(#926),#937,.T.);
#926 = FACE_BOUND('',#927,.T.);
#927 = EDGE_LOOP('',(#928,#929,#930,#931));
#928 = ORIENTED_EDGE('',*,*,#507,.F.);
#929 = ORIENTED_EDGE('',*,*,#369,.T.);
#930 = ORIENTED_EDGE('',*,*,#915,.F.);
#931 = ORIENTED_EDGE('',*,*,#932,.F.);
#932 = EDGE_CURVE('',#499,#897,#933,.T.);
#933 = LINE('',#934,#935);
#934 = CARTESIAN_POINT('',(-0.499999999988,-1.95,40.8));
#935 = VECTOR('',#936,1.);
#936 = DIRECTION('',(-0.,-0.,-1.));
#937 = PLANE('',#938);
#938 = AXIS2_PLACEMENT_3D('',#939,#940,#941);
#939 = CARTESIAN_POINT('',(4.326167895121E-30,-1.95,40.8));
#940 = DIRECTION('',(-8.881784197218E-16,1.,0.));
#941 = DIRECTION('',(-1.,-8.881784197218E-16,0.));
#942 = ADVANCED_FACE('',(#943),#984,.T.);
#943 = FACE_BOUND('',#944,.T.);
#944 = EDGE_LOOP('',(#945,#946,#947,#955,#961,#962,#970,#978));
#945 = ORIENTED_EDGE('',*,*,#633,.T.);
#946 = ORIENTED_EDGE('',*,*,#586,.F.);
#947 = ORIENTED_EDGE('',*,*,#948,.F.);
#948 = EDGE_CURVE('',#949,#579,#951,.T.);
#949 = VERTEX_POINT('',#950);
#950 = CARTESIAN_POINT('',(4.149999999988,5.8,35.2));
#951 = LINE('',#952,#953);
#952 = CARTESIAN_POINT('',(5.376381215456,5.8,35.2));
#953 = VECTOR('',#954,1.);
#954 = DIRECTION('',(1.,0.,2.282181546508E-31));
#955 = ORIENTED_EDGE('',*,*,#956,.F.);
#956 = EDGE_CURVE('',#410,#949,#957,.T.);
#957 = LINE('',#958,#959);
#958 = CARTESIAN_POINT('',(4.149999999988,5.8,40.8));
#959 = VECTOR('',#960,1.);
#960 = DIRECTION('',(-0.,-0.,-1.));
#961 = ORIENTED_EDGE('',*,*,#407,.F.);
#962 = ORIENTED_EDGE('',*,*,#963,.T.);
#963 = EDGE_CURVE('',#408,#964,#966,.T.);
#964 = VERTEX_POINT('',#965);
#965 = CARTESIAN_POINT('',(1.849999999988,5.8,35.2));
#966 = LINE('',#967,#968);
#967 = CARTESIAN_POINT('',(1.849999999988,5.8,40.8));
#968 = VECTOR('',#969,1.);
#969 = DIRECTION('',(-0.,-0.,-1.));
#970 = ORIENTED_EDGE('',*,*,#971,.T.);
#971 = EDGE_CURVE('',#964,#972,#974,.T.);
#972 = VERTEX_POINT('',#973);
#973 = CARTESIAN_POINT('',(-4.326167895121E-30,5.8,35.2));
#974 = LINE('',#975,#976);
#975 = CARTESIAN_POINT('',(2.376381215468,5.8,35.2));
#976 = VECTOR('',#977,1.);
#977 = DIRECTION('',(-1.,-0.,-2.282181546508E-31));
#978 = ORIENTED_EDGE('',*,*,#979,.F.);
#979 = EDGE_CURVE('',#634,#972,#980,.T.);
#980 = LINE('',#981,#982);
#981 = CARTESIAN_POINT('',(-4.326167895121E-30,5.8,40.8));
#982 = VECTOR('',#983,1.);
#983 = DIRECTION('',(-0.,-0.,-1.));
#984 = PLANE('',#985);
#985 = AXIS2_PLACEMENT_3D('',#986,#987,#988);
#986 = CARTESIAN_POINT('',(2.999999999988,5.8,38.03552631579));
#987 = DIRECTION('',(0.,1.,0.));
#988 = DIRECTION('',(0.,0.,1.));
#989 = ADVANCED_FACE('',(#990),#1008,.T.);
#990 = FACE_BOUND('',#991,.T.);
#991 = EDGE_LOOP('',(#992,#993,#994,#1002));
#992 = ORIENTED_EDGE('',*,*,#531,.F.);
#993 = ORIENTED_EDGE('',*,*,#956,.T.);
#994 = ORIENTED_EDGE('',*,*,#995,.F.);
#995 = EDGE_CURVE('',#996,#949,#998,.T.);
#996 = VERTEX_POINT('',#997);
#997 = CARTESIAN_POINT('',(4.149999999988,1.95,35.2));
#998 = LINE('',#999,#1000);
#999 = CARTESIAN_POINT('',(4.149999999988,3.430386740331,35.2));
#1000 = VECTOR('',#1001,1.);
#1001 = DIRECTION('',(0.,1.,5.139015981222E-16));
#1002 = ORIENTED_EDGE('',*,*,#1003,.F.);
#1003 = EDGE_CURVE('',#524,#996,#1004,.T.);
#1004 = LINE('',#1005,#1006);
#1005 = CARTESIAN_POINT('',(4.149999999988,1.95,40.8));
#1006 = VECTOR('',#1007,1.);
#1007 = DIRECTION('',(-0.,-0.,-1.));
#1008 = PLANE('',#1009);
#1009 = AXIS2_PLACEMENT_3D('',#1010,#1011,#1012);
#1010 = CARTESIAN_POINT('',(4.149999999988,5.8,40.8));
#1011 = DIRECTION('',(-1.,0.,0.));
#1012 = DIRECTION('',(0.,-1.,0.));
#1013 = ADVANCED_FACE('',(#1014),#1025,.T.);
#1014 = FACE_BOUND('',#1015,.T.);
#1015 = EDGE_LOOP('',(#1016,#1017,#1018,#1024));
#1016 = ORIENTED_EDGE('',*,*,#523,.F.);
#1017 = ORIENTED_EDGE('',*,*,#1003,.T.);
#1018 = ORIENTED_EDGE('',*,*,#1019,.F.);
#1019 = EDGE_CURVE('',#571,#996,#1020,.T.);
#1020 = LINE('',#1021,#1022);
#1021 = CARTESIAN_POINT('',(4.451381215462,1.95,35.2));
#1022 = VECTOR('',#1023,1.);
#1023 = DIRECTION('',(-1.,-0.,-2.282181546508E-31));
#1024 = ORIENTED_EDGE('',*,*,#570,.F.);
#1025 = PLANE('',#1026);
#1026 = AXIS2_PLACEMENT_3D('',#1027,#1028,#1029);
#1027 = CARTESIAN_POINT('',(4.149999999988,1.95,40.8));
#1028 = DIRECTION('',(0.,-1.,0.));
#1029 = DIRECTION('',(1.,0.,0.));
#1030 = ADVANCED_FACE('',(#1031),#1042,.T.);
#1031 = FACE_BOUND('',#1032,.T.);
#1032 = EDGE_LOOP('',(#1033,#1034,#1035,#1036));
#1033 = ORIENTED_EDGE('',*,*,#498,.F.);
#1034 = ORIENTED_EDGE('',*,*,#932,.T.);
#1035 = ORIENTED_EDGE('',*,*,#896,.T.);
#1036 = ORIENTED_EDGE('',*,*,#1037,.F.);
#1037 = EDGE_CURVE('',#491,#899,#1038,.T.);
#1038 = LINE('',#1039,#1040);
#1039 = CARTESIAN_POINT('',(-1.849999999988,-3.300000000006,40.8));
#1040 = VECTOR('',#1041,1.);
#1041 = DIRECTION('',(-0.,-0.,-1.));
#1042 = CYLINDRICAL_SURFACE('',#1043,1.35);
#1043 = AXIS2_PLACEMENT_3D('',#1044,#1045,#1046);
#1044 = CARTESIAN_POINT('',(-0.499999999988,-3.3,40.8));
#1045 = DIRECTION('',(0.,0.,1.));
#1046 = DIRECTION('',(1.,0.,0.));
#1047 = ADVANCED_FACE('',(#1048),#1054,.F.);
#1048 = FACE_BOUND('',#1049,.F.);
#1049 = EDGE_LOOP('',(#1050,#1051,#1052,#1053));
#1050 = ORIENTED_EDGE('',*,*,#490,.F.);
#1051 = ORIENTED_EDGE('',*,*,#824,.T.);
#1052 = ORIENTED_EDGE('',*,*,#907,.F.);
#1053 = ORIENTED_EDGE('',*,*,#1037,.F.);
#1054 = PLANE('',#1055);
#1055 = AXIS2_PLACEMENT_3D('',#1056,#1057,#1058);
#1056 = CARTESIAN_POINT('',(-1.849999999988,-5.8,40.8));
#1057 = DIRECTION('',(1.,8.881784197001E-17,0.));
#1058 = DIRECTION('',(-8.881784197001E-17,1.,0.));
#1059 = ADVANCED_FACE('',(#1060),#1078,.F.);
#1060 = FACE_BOUND('',#1061,.F.);
#1061 = EDGE_LOOP('',(#1062,#1063,#1071,#1077));
#1062 = ORIENTED_EDGE('',*,*,#474,.F.);
#1063 = ORIENTED_EDGE('',*,*,#1064,.T.);
#1064 = EDGE_CURVE('',#467,#1065,#1067,.T.);
#1065 = VERTEX_POINT('',#1066);
#1066 = CARTESIAN_POINT('',(-4.149999999988,-1.95,35.2));
#1067 = LINE('',#1068,#1069);
#1068 = CARTESIAN_POINT('',(-4.149999999988,-1.95,40.8));
#1069 = VECTOR('',#1070,1.);
#1070 = DIRECTION('',(-0.,-0.,-1.));
#1071 = ORIENTED_EDGE('',*,*,#1072,.F.);
#1072 = EDGE_CURVE('',#849,#1065,#1073,.T.);
#1073 = LINE('',#1074,#1075);
#1074 = CARTESIAN_POINT('',(-4.149999999988,-0.444613259668,35.2));
#1075 = VECTOR('',#1076,1.);
#1076 = DIRECTION('',(0.,1.,5.139015981222E-16));
#1077 = ORIENTED_EDGE('',*,*,#856,.F.);
#1078 = PLANE('',#1079);
#1079 = AXIS2_PLACEMENT_3D('',#1080,#1081,#1082);
#1080 = CARTESIAN_POINT('',(-4.149999999988,-1.95,40.8));
#1081 = DIRECTION('',(-1.,0.,0.));
#1082 = DIRECTION('',(0.,-1.,0.));
#1083 = ADVANCED_FACE('',(#1084),#1095,.F.);
#1084 = FACE_BOUND('',#1085,.F.);
#1085 = EDGE_LOOP('',(#1086,#1087,#1088,#1094));
#1086 = ORIENTED_EDGE('',*,*,#466,.F.);
#1087 = ORIENTED_EDGE('',*,*,#871,.T.);
#1088 = ORIENTED_EDGE('',*,*,#1089,.F.);
#1089 = EDGE_CURVE('',#1065,#872,#1090,.T.);
#1090 = LINE('',#1091,#1092);
#1091 = CARTESIAN_POINT('',(-0.623618784519,-1.95,35.2));
#1092 = VECTOR('',#1093,1.);
#1093 = DIRECTION('',(-1.,-2.400482215422E-16,-3.515793193277E-31));
#1094 = ORIENTED_EDGE('',*,*,#1064,.F.);
#1095 = PLANE('',#1096);
#1096 = AXIS2_PLACEMENT_3D('',#1097,#1098,#1099);
#1097 = CARTESIAN_POINT('',(-5.999999999976,-1.95,40.8));
#1098 = DIRECTION('',(2.400482215422E-16,-1.,0.));
#1099 = DIRECTION('',(1.,2.400482215422E-16,0.));
#1100 = ADVANCED_FACE('',(#1101),#1121,.T.);
#1101 = FACE_BOUND('',#1102,.T.);
#1102 = EDGE_LOOP('',(#1103,#1104,#1112,#1118,#1119,#1120));
#1103 = ORIENTED_EDGE('',*,*,#979,.T.);
#1104 = ORIENTED_EDGE('',*,*,#1105,.F.);
#1105 = EDGE_CURVE('',#1106,#972,#1108,.T.);
#1106 = VERTEX_POINT('',#1107);
#1107 = CARTESIAN_POINT('',(-2.163083947561E-30,1.95,35.2));
#1108 = LINE('',#1109,#1110);
#1109 = CARTESIAN_POINT('',(-2.163083947561E-30,3.430386740331,35.2));
#1110 = VECTOR('',#1111,1.);
#1111 = DIRECTION('',(0.,1.,5.139015981222E-16));
#1112 = ORIENTED_EDGE('',*,*,#1113,.F.);
#1113 = EDGE_CURVE('',#435,#1106,#1114,.T.);
#1114 = LINE('',#1115,#1116);
#1115 = CARTESIAN_POINT('',(-2.163083947561E-30,1.95,40.8));
#1116 = VECTOR('',#1117,1.);
#1117 = DIRECTION('',(-0.,-0.,-1.));
#1118 = ORIENTED_EDGE('',*,*,#442,.F.);
#1119 = ORIENTED_EDGE('',*,*,#790,.T.);
#1120 = ORIENTED_EDGE('',*,*,#641,.T.);
#1121 = PLANE('',#1122);
#1122 = AXIS2_PLACEMENT_3D('',#1123,#1124,#1125);
#1123 = CARTESIAN_POINT('',(-3.486846259219E-30,3.828125,38.028125));
#1124 = DIRECTION('',(-1.,-0.,-0.));
#1125 = DIRECTION('',(0.,0.,-1.));
#1126 = ADVANCED_FACE('',(#1127),#1145,.F.);
#1127 = FACE_BOUND('',#1128,.F.);
#1128 = EDGE_LOOP('',(#1129,#1130,#1138,#1144));
#1129 = ORIENTED_EDGE('',*,*,#434,.F.);
#1130 = ORIENTED_EDGE('',*,*,#1131,.T.);
#1131 = EDGE_CURVE('',#426,#1132,#1134,.T.);
#1132 = VERTEX_POINT('',#1133);
#1133 = CARTESIAN_POINT('',(0.499999999988,1.95,35.2));
#1134 = LINE('',#1135,#1136);
#1135 = CARTESIAN_POINT('',(0.499999999988,1.95,40.8));
#1136 = VECTOR('',#1137,1.);
#1137 = DIRECTION('',(-0.,-0.,-1.));
#1138 = ORIENTED_EDGE('',*,*,#1139,.F.);
#1139 = EDGE_CURVE('',#1106,#1132,#1140,.T.);
#1140 = LINE('',#1141,#1142);
#1141 = CARTESIAN_POINT('',(2.626381215462,1.95,35.2));
#1142 = VECTOR('',#1143,1.);
#1143 = DIRECTION('',(1.,0.,2.282181546508E-31));
#1144 = ORIENTED_EDGE('',*,*,#1113,.F.);
#1145 = PLANE('',#1146);
#1146 = AXIS2_PLACEMENT_3D('',#1147,#1148,#1149);
#1147 = CARTESIAN_POINT('',(0.499999999988,1.95,40.8));
#1148 = DIRECTION('',(0.,1.,0.));
#1149 = DIRECTION('',(-1.,0.,0.));
#1150 = ADVANCED_FACE('',(#1151),#1170,.T.);
#1151 = FACE_BOUND('',#1152,.T.);
#1152 = EDGE_LOOP('',(#1153,#1154,#1155,#1164));
#1153 = ORIENTED_EDGE('',*,*,#425,.F.);
#1154 = ORIENTED_EDGE('',*,*,#1131,.T.);
#1155 = ORIENTED_EDGE('',*,*,#1156,.T.);
#1156 = EDGE_CURVE('',#1132,#1157,#1159,.T.);
#1157 = VERTEX_POINT('',#1158);
#1158 = CARTESIAN_POINT('',(1.849999999988,3.3,35.2));
#1159 = CIRCLE('',#1160,1.35);
#1160 = AXIS2_PLACEMENT_3D('',#1161,#1162,#1163);
#1161 = CARTESIAN_POINT('',(0.499999999988,3.3,35.2));
#1162 = DIRECTION('',(0.,0.,1.));
#1163 = DIRECTION('',(1.,0.,0.));
#1164 = ORIENTED_EDGE('',*,*,#1165,.F.);
#1165 = EDGE_CURVE('',#418,#1157,#1166,.T.);
#1166 = LINE('',#1167,#1168);
#1167 = CARTESIAN_POINT('',(1.849999999988,3.3,40.8));
#1168 = VECTOR('',#1169,1.);
#1169 = DIRECTION('',(-0.,-0.,-1.));
#1170 = CYLINDRICAL_SURFACE('',#1171,1.35);
#1171 = AXIS2_PLACEMENT_3D('',#1172,#1173,#1174);
#1172 = CARTESIAN_POINT('',(0.499999999988,3.3,40.8));
#1173 = DIRECTION('',(0.,0.,1.));
#1174 = DIRECTION('',(1.,0.,0.));
#1175 = ADVANCED_FACE('',(#1176),#1187,.F.);
#1176 = FACE_BOUND('',#1177,.F.);
#1177 = EDGE_LOOP('',(#1178,#1179,#1180,#1186));
#1178 = ORIENTED_EDGE('',*,*,#417,.F.);
#1179 = ORIENTED_EDGE('',*,*,#963,.T.);
#1180 = ORIENTED_EDGE('',*,*,#1181,.F.);
#1181 = EDGE_CURVE('',#1157,#964,#1182,.T.);
#1182 = LINE('',#1183,#1184);
#1183 = CARTESIAN_POINT('',(1.849999999988,3.430386740331,35.2));
#1184 = VECTOR('',#1185,1.);
#1185 = DIRECTION('',(0.,1.,5.139015981222E-16));
#1186 = ORIENTED_EDGE('',*,*,#1165,.F.);
#1187 = PLANE('',#1188);
#1188 = AXIS2_PLACEMENT_3D('',#1189,#1190,#1191);
#1189 = CARTESIAN_POINT('',(1.849999999988,5.8,40.8));
#1190 = DIRECTION('',(-1.,0.,0.));
#1191 = DIRECTION('',(0.,-1.,0.));
#1192 = ADVANCED_FACE('',(#1193),#1199,.T.);
#1193 = FACE_BOUND('',#1194,.F.);
#1194 = EDGE_LOOP('',(#1195,#1196,#1197,#1198));
#1195 = ORIENTED_EDGE('',*,*,#995,.F.);
#1196 = ORIENTED_EDGE('',*,*,#1019,.F.);
#1197 = ORIENTED_EDGE('',*,*,#578,.F.);
#1198 = ORIENTED_EDGE('',*,*,#948,.F.);
#1199 = PLANE('',#1200);
#1200 = AXIS2_PLACEMENT_3D('',#1201,#1202,#1203);
#1201 = CARTESIAN_POINT('',(4.752762430937,1.060773480663,35.2));
#1202 = DIRECTION('',(2.282181546508E-31,5.139015981222E-16,-1.));
#1203 = DIRECTION('',(-4.440892098501E-16,-1.,-5.139015981222E-16));
#1204 = ADVANCED_FACE('',(#1205),#1211,.T.);
#1205 = FACE_BOUND('',#1206,.F.);
#1206 = EDGE_LOOP('',(#1207,#1208,#1209,#1210));
#1207 = ORIENTED_EDGE('',*,*,#1072,.T.);
#1208 = ORIENTED_EDGE('',*,*,#1089,.T.);
#1209 = ORIENTED_EDGE('',*,*,#879,.T.);
#1210 = ORIENTED_EDGE('',*,*,#848,.T.);
#1211 = PLANE('',#1212);
#1212 = AXIS2_PLACEMENT_3D('',#1213,#1214,#1215);
#1213 = CARTESIAN_POINT('',(4.752762430937,1.060773480663,35.2));
#1214 = DIRECTION('',(2.282181546508E-31,5.139015981222E-16,-1.));
#1215 = DIRECTION('',(-4.440892098501E-16,-1.,-5.139015981222E-16));
#1216 = ADVANCED_FACE('',(#1217),#1224,.T.);
#1217 = FACE_BOUND('',#1218,.F.);
#1218 = EDGE_LOOP('',(#1219,#1220,#1221,#1222,#1223));
#1219 = ORIENTED_EDGE('',*,*,#1181,.T.);
#1220 = ORIENTED_EDGE('',*,*,#971,.T.);
#1221 = ORIENTED_EDGE('',*,*,#1105,.F.);
#1222 = ORIENTED_EDGE('',*,*,#1139,.T.);
#1223 = ORIENTED_EDGE('',*,*,#1156,.T.);
#1224 = PLANE('',#1225);
#1225 = AXIS2_PLACEMENT_3D('',#1226,#1227,#1228);
#1226 = CARTESIAN_POINT('',(4.752762430937,1.060773480663,35.2));
#1227 = DIRECTION('',(2.282181546508E-31,5.139015981222E-16,-1.));
#1228 = DIRECTION('',(-4.440892098501E-16,-1.,-5.139015981222E-16));
#1229 = ( GEOMETRIC_REPRESENTATION_CONTEXT(3) 
GLOBAL_UNCERTAINTY_ASSIGNED_CONTEXT((#1233)) 
GLOBAL_UNIT_ASSIGNED_CONTEXT((#1230,#1231,#1232)) REPRESENTATION_CONTEXT
('Context #1','3D Context with UNIT and UNCERTAINTY') );
#1230 = ( LENGTH_UNIT() NAMED_UNIT(*) SI_UNIT(.MILLI.,.METRE.) );
#1231 = ( NAMED_UNIT(*) PLANE_ANGLE_UNIT() SI_UNIT($,.RADIAN.) );
#1232 = ( NAMED_UNIT(*) SI_UNIT($,.STERADIAN.) SOLID_ANGLE_UNIT() );
#1233 = UNCERTAINTY_MEASURE_WITH_UNIT(LENGTH_MEASURE(5.E-06),#1230,
  'distance_accuracy_value','confusion accuracy');
#1234 = PRODUCT_RELATED_PRODUCT_CATEGORY('part',$,(#7));
#1235 = MECHANICAL_DESIGN_GEOMETRIC_PRESENTATION_REPRESENTATION('',(
    #1236),#1229);
#1236 = STYLED_ITEM('color',(#1237),#15);
#1237 = PRESENTATION_STYLE_ASSIGNMENT((#1238,#1244));
#1238 = SURFACE_STYLE_USAGE(.BOTH.,#1239);
#1239 = SURFACE_SIDE_STYLE('',(#1240));
#1240 = SURFACE_STYLE_FILL_AREA(#1241);
#1241 = FILL_AREA_STYLE('',(#1242));
#1242 = FILL_AREA_STYLE_COLOUR('',#1243);
#1243 = COLOUR_RGB('',0.447058818107,0.474509808674,0.501960817233);
#1244 = CURVE_STYLE('',#1245,POSITIVE_LENGTH_MEASURE(0.1),#1246);
#1245 = DRAUGHTING_PRE_DEFINED_CURVE_FONT('continuous');
#1246 = COLOUR_RGB('',9.803921802644E-02,9.803921802644E-02,
  9.803921802644E-02);
ENDSEC;
END-ISO-10303-21;
