ISO-10303-21;
HEADER;
FILE_DESCRIPTION(('FreeCAD Model'),'2;1');
FILE_NAME('Open CASCADE Shape Model','2026-02-05T18:08:22',(''),(''),
  'Open CASCADE STEP processor 7.8','FreeCAD','Unknown');
FILE_SCHEMA(('AUTOMOTIVE_DESIGN { 1 0 10303 214 1 1 1 1 }'));
ENDSEC;
DATA;
#1 = APPLICATION_PROTOCOL_DEFINITION('international standard',
  'automotive_design',2000,#2);
#2 = APPLICATION_CONTEXT(
  'core data for automotive mechanical design processes');
#3 = SHAPE_DEFINITION_REPRESENTATION(#4,#10);
#4 = PRODUCT_DEFINITION_SHAPE('','',#5);
#5 = PRODUCT_DEFINITION('design','',#6,#9);
#6 = PRODUCT_DEFINITION_FORMATION('','',#7);
#7 = PRODUCT('design6-mirror-attachment-bottom',
  'design6-mirror-attachment-bottom','',(#8));
#8 = PRODUCT_CONTEXT('',#2,'mechanical');
#9 = PRODUCT_DEFINITION_CONTEXT('part definition',#2,'design');
#10 = ADVANCED_BREP_SHAPE_REPRESENTATION('',(#11,#15),#1153);
#11 = AXIS2_PLACEMENT_3D('',#12,#13,#14);
#12 = CARTESIAN_POINT('',(0.,0.,0.));
#13 = DIRECTION('',(0.,0.,1.));
#14 = DIRECTION('',(1.,0.,-0.));
#15 = MANIFOLD_SOLID_BREP('',#16);
#16 = CLOSED_SHELL('',(#17,#189,#230,#255,#279,#305,#368,#408,#432,#472,
    #528,#568,#592,#625,#666,#691,#715,#741,#758,#770,#794,#818,#901,
    #925,#951,#963,#996,#1013,#1030,#1054,#1071,#1083,#1100,#1117,#1129,
    #1141));
#17 = ADVANCED_FACE('',(#18,#68,#134),#184,.T.);
#18 = FACE_BOUND('',#19,.T.);
#19 = EDGE_LOOP('',(#20,#30,#38,#46,#54,#62));
#20 = ORIENTED_EDGE('',*,*,#21,.F.);
#21 = EDGE_CURVE('',#22,#24,#26,.T.);
#22 = VERTEX_POINT('',#23);
#23 = CARTESIAN_POINT('',(1.8,-1.4,21.555382317156));
#24 = VERTEX_POINT('',#25);
#25 = CARTESIAN_POINT('',(1.8,-1.79,21.555382317156));
#26 = LINE('',#27,#28);
#27 = CARTESIAN_POINT('',(1.8,1.,21.555382317156));
#28 = VECTOR('',#29,1.);
#29 = DIRECTION('',(-0.,-1.,-0.));
#30 = ORIENTED_EDGE('',*,*,#31,.F.);
#31 = EDGE_CURVE('',#32,#22,#34,.T.);
#32 = VERTEX_POINT('',#33);
#33 = CARTESIAN_POINT('',(1.8,-0.9,21.555382317156));
#34 = LINE('',#35,#36);
#35 = CARTESIAN_POINT('',(1.8,2.,21.555382317156));
#36 = VECTOR('',#37,1.);
#37 = DIRECTION('',(0.,-1.,0.));
#38 = ORIENTED_EDGE('',*,*,#39,.F.);
#39 = EDGE_CURVE('',#40,#32,#42,.T.);
#40 = VERTEX_POINT('',#41);
#41 = CARTESIAN_POINT('',(-1.8,-0.9,21.555382317156));
#42 = LINE('',#43,#44);
#43 = CARTESIAN_POINT('',(-1.8,-0.9,21.555382317156));
#44 = VECTOR('',#45,1.);
#45 = DIRECTION('',(1.,0.,0.));
#46 = ORIENTED_EDGE('',*,*,#47,.F.);
#47 = EDGE_CURVE('',#48,#40,#50,.T.);
#48 = VERTEX_POINT('',#49);
#49 = CARTESIAN_POINT('',(-1.8,-1.4,21.555382317156));
#50 = LINE('',#51,#52);
#51 = CARTESIAN_POINT('',(-1.8,-1.999999999997,21.555382317156));
#52 = VECTOR('',#53,1.);
#53 = DIRECTION('',(0.,1.,0.));
#54 = ORIENTED_EDGE('',*,*,#55,.T.);
#55 = EDGE_CURVE('',#48,#56,#58,.T.);
#56 = VERTEX_POINT('',#57);
#57 = CARTESIAN_POINT('',(-1.8,-1.79,21.555382317156));
#58 = LINE('',#59,#60);
#59 = CARTESIAN_POINT('',(-1.8,-0.999999999999,21.555382317156));
#60 = VECTOR('',#61,1.);
#61 = DIRECTION('',(0.,-1.,0.));
#62 = ORIENTED_EDGE('',*,*,#63,.F.);
#63 = EDGE_CURVE('',#24,#56,#64,.T.);
#64 = LINE('',#65,#66);
#65 = CARTESIAN_POINT('',(1.8,-1.79,21.555382317156));
#66 = VECTOR('',#67,1.);
#67 = DIRECTION('',(-1.,0.,0.));
#68 = FACE_BOUND('',#69,.T.);
#69 = EDGE_LOOP('',(#70,#80,#88,#96,#104,#112,#120,#128));
#70 = ORIENTED_EDGE('',*,*,#71,.T.);
#71 = EDGE_CURVE('',#72,#74,#76,.T.);
#72 = VERTEX_POINT('',#73);
#73 = CARTESIAN_POINT('',(-2.264276125403E-15,5.8,21.555382317156));
#74 = VERTEX_POINT('',#75);
#75 = CARTESIAN_POINT('',(5.999999999976,5.8,21.555382317156));
#76 = LINE('',#77,#78);
#77 = CARTESIAN_POINT('',(-2.264276125403E-15,5.8,21.555382317156));
#78 = VECTOR('',#79,1.);
#79 = DIRECTION('',(1.,0.,-2.449293598295E-16));
#80 = ORIENTED_EDGE('',*,*,#81,.T.);
#81 = EDGE_CURVE('',#74,#82,#84,.T.);
#82 = VERTEX_POINT('',#83);
#83 = CARTESIAN_POINT('',(5.999999999976,-1.8,21.555382317156));
#84 = LINE('',#85,#86);
#85 = CARTESIAN_POINT('',(5.999999999976,5.8,21.555382317156));
#86 = VECTOR('',#87,1.);
#87 = DIRECTION('',(-0.,-1.,-0.));
#88 = ORIENTED_EDGE('',*,*,#89,.T.);
#89 = EDGE_CURVE('',#82,#90,#92,.T.);
#90 = VERTEX_POINT('',#91);
#91 = CARTESIAN_POINT('',(-2.264276125403E-15,-1.8,21.555382317156));
#92 = LINE('',#93,#94);
#93 = CARTESIAN_POINT('',(5.999999999976,-1.8,21.555382317156));
#94 = VECTOR('',#95,1.);
#95 = DIRECTION('',(-1.,0.,2.449293598295E-16));
#96 = ORIENTED_EDGE('',*,*,#97,.T.);
#97 = EDGE_CURVE('',#90,#98,#100,.T.);
#98 = VERTEX_POINT('',#99);
#99 = CARTESIAN_POINT('',(-2.264276125403E-15,-5.8,21.555382317156));
#100 = LINE('',#101,#102);
#101 = CARTESIAN_POINT('',(-2.264276125403E-15,-1.8,21.555382317156));
#102 = VECTOR('',#103,1.);
#103 = DIRECTION('',(-0.,-1.,-0.));
#104 = ORIENTED_EDGE('',*,*,#105,.T.);
#105 = EDGE_CURVE('',#98,#106,#108,.T.);
#106 = VERTEX_POINT('',#107);
#107 = CARTESIAN_POINT('',(-5.999999999976,-5.8,21.555382317156));
#108 = LINE('',#109,#110);
#109 = CARTESIAN_POINT('',(-2.264276125403E-15,-5.800000000001,
    21.555382317156));
#110 = VECTOR('',#111,1.);
#111 = DIRECTION('',(-1.,0.,2.449293598295E-16));
#112 = ORIENTED_EDGE('',*,*,#113,.T.);
#113 = EDGE_CURVE('',#106,#114,#116,.T.);
#114 = VERTEX_POINT('',#115);
#115 = CARTESIAN_POINT('',(-5.999999999976,1.8,21.555382317156));
#116 = LINE('',#117,#118);
#117 = CARTESIAN_POINT('',(-5.999999999976,-5.800000000001,
    21.555382317156));
#118 = VECTOR('',#119,1.);
#119 = DIRECTION('',(0.,1.,0.));
#120 = ORIENTED_EDGE('',*,*,#121,.T.);
#121 = EDGE_CURVE('',#114,#122,#124,.T.);
#122 = VERTEX_POINT('',#123);
#123 = CARTESIAN_POINT('',(-2.264276125403E-15,1.8,21.555382317156));
#124 = LINE('',#125,#126);
#125 = CARTESIAN_POINT('',(-5.999999999976,1.8,21.555382317156));
#126 = VECTOR('',#127,1.);
#127 = DIRECTION('',(1.,0.,-2.449293598295E-16));
#128 = ORIENTED_EDGE('',*,*,#129,.T.);
#129 = EDGE_CURVE('',#122,#72,#130,.T.);
#130 = LINE('',#131,#132);
#131 = CARTESIAN_POINT('',(-2.264276125403E-15,1.8,21.555382317156));
#132 = VECTOR('',#133,1.);
#133 = DIRECTION('',(0.,1.,0.));
#134 = FACE_BOUND('',#135,.T.);
#135 = EDGE_LOOP('',(#136,#146,#154,#162,#170,#178));
#136 = ORIENTED_EDGE('',*,*,#137,.F.);
#137 = EDGE_CURVE('',#138,#140,#142,.T.);
#138 = VERTEX_POINT('',#139);
#139 = CARTESIAN_POINT('',(-1.8,1.4,21.555382317156));
#140 = VERTEX_POINT('',#141);
#141 = CARTESIAN_POINT('',(-1.8,1.79,21.555382317156));
#142 = LINE('',#143,#144);
#143 = CARTESIAN_POINT('',(-1.8,-0.999999999999,21.555382317156));
#144 = VECTOR('',#145,1.);
#145 = DIRECTION('',(0.,1.,0.));
#146 = ORIENTED_EDGE('',*,*,#147,.F.);
#147 = EDGE_CURVE('',#148,#138,#150,.T.);
#148 = VERTEX_POINT('',#149);
#149 = CARTESIAN_POINT('',(-1.8,0.9,21.555382317156));
#150 = LINE('',#151,#152);
#151 = CARTESIAN_POINT('',(-1.8,-1.999999999997,21.555382317156));
#152 = VECTOR('',#153,1.);
#153 = DIRECTION('',(0.,1.,0.));
#154 = ORIENTED_EDGE('',*,*,#155,.F.);
#155 = EDGE_CURVE('',#156,#148,#158,.T.);
#156 = VERTEX_POINT('',#157);
#157 = CARTESIAN_POINT('',(1.8,0.9,21.555382317156));
#158 = LINE('',#159,#160);
#159 = CARTESIAN_POINT('',(1.8,0.9,21.555382317156));
#160 = VECTOR('',#161,1.);
#161 = DIRECTION('',(-1.,0.,0.));
#162 = ORIENTED_EDGE('',*,*,#163,.F.);
#163 = EDGE_CURVE('',#164,#156,#166,.T.);
#164 = VERTEX_POINT('',#165);
#165 = CARTESIAN_POINT('',(1.8,1.4,21.555382317156));
#166 = LINE('',#167,#168);
#167 = CARTESIAN_POINT('',(1.8,2.,21.555382317156));
#168 = VECTOR('',#169,1.);
#169 = DIRECTION('',(0.,-1.,0.));
#170 = ORIENTED_EDGE('',*,*,#171,.T.);
#171 = EDGE_CURVE('',#164,#172,#174,.T.);
#172 = VERTEX_POINT('',#173);
#173 = CARTESIAN_POINT('',(1.8,1.79,21.555382317156));
#174 = LINE('',#175,#176);
#175 = CARTESIAN_POINT('',(1.8,1.,21.555382317156));
#176 = VECTOR('',#177,1.);
#177 = DIRECTION('',(0.,1.,0.));
#178 = ORIENTED_EDGE('',*,*,#179,.F.);
#179 = EDGE_CURVE('',#140,#172,#180,.T.);
#180 = LINE('',#181,#182);
#181 = CARTESIAN_POINT('',(-1.8,1.79,21.555382317156));
#182 = VECTOR('',#183,1.);
#183 = DIRECTION('',(1.,0.,0.));
#184 = PLANE('',#185);
#185 = AXIS2_PLACEMENT_3D('',#186,#187,#188);
#186 = CARTESIAN_POINT('',(-9.895375278361E-14,-3.804866026774E-13,
    21.555382317156));
#187 = DIRECTION('',(-0.,-0.,-1.));
#188 = DIRECTION('',(-1.,0.,0.));
#189 = ADVANCED_FACE('',(#190),#225,.F.);
#190 = FACE_BOUND('',#191,.F.);
#191 = EDGE_LOOP('',(#192,#202,#209,#210,#211,#219));
#192 = ORIENTED_EDGE('',*,*,#193,.T.);
#193 = EDGE_CURVE('',#194,#196,#198,.T.);
#194 = VERTEX_POINT('',#195);
#195 = CARTESIAN_POINT('',(1.8,-1.4,19.555382317156));
#196 = VERTEX_POINT('',#197);
#197 = CARTESIAN_POINT('',(1.8,-1.4,21.165382317156));
#198 = LINE('',#199,#200);
#199 = CARTESIAN_POINT('',(1.8,-1.4,19.555382317156));
#200 = VECTOR('',#201,1.);
#201 = DIRECTION('',(0.,0.,1.));
#202 = ORIENTED_EDGE('',*,*,#203,.F.);
#203 = EDGE_CURVE('',#24,#196,#204,.T.);
#204 = CIRCLE('',#205,0.39);
#205 = AXIS2_PLACEMENT_3D('',#206,#207,#208);
#206 = CARTESIAN_POINT('',(1.8,-1.79,21.165382317156));
#207 = DIRECTION('',(-1.,0.,0.));
#208 = DIRECTION('',(0.,0.,-1.));
#209 = ORIENTED_EDGE('',*,*,#21,.F.);
#210 = ORIENTED_EDGE('',*,*,#31,.F.);
#211 = ORIENTED_EDGE('',*,*,#212,.F.);
#212 = EDGE_CURVE('',#213,#32,#215,.T.);
#213 = VERTEX_POINT('',#214);
#214 = CARTESIAN_POINT('',(1.8,-0.9,19.555382317156));
#215 = LINE('',#216,#217);
#216 = CARTESIAN_POINT('',(1.8,-0.9,19.555382317156));
#217 = VECTOR('',#218,1.);
#218 = DIRECTION('',(0.,0.,1.));
#219 = ORIENTED_EDGE('',*,*,#220,.T.);
#220 = EDGE_CURVE('',#213,#194,#221,.T.);
#221 = LINE('',#222,#223);
#222 = CARTESIAN_POINT('',(1.8,2.,19.555382317156));
#223 = VECTOR('',#224,1.);
#224 = DIRECTION('',(0.,-1.,0.));
#225 = PLANE('',#226);
#226 = AXIS2_PLACEMENT_3D('',#227,#228,#229);
#227 = CARTESIAN_POINT('',(1.8,2.,21.555382317156));
#228 = DIRECTION('',(-1.,-0.,-0.));
#229 = DIRECTION('',(0.,-1.,0.));
#230 = ADVANCED_FACE('',(#231),#250,.F.);
#231 = FACE_BOUND('',#232,.F.);
#232 = EDGE_LOOP('',(#233,#234,#242,#249));
#233 = ORIENTED_EDGE('',*,*,#203,.T.);
#234 = ORIENTED_EDGE('',*,*,#235,.T.);
#235 = EDGE_CURVE('',#196,#236,#238,.T.);
#236 = VERTEX_POINT('',#237);
#237 = CARTESIAN_POINT('',(-1.8,-1.4,21.165382317156));
#238 = LINE('',#239,#240);
#239 = CARTESIAN_POINT('',(1.8,-1.4,21.165382317156));
#240 = VECTOR('',#241,1.);
#241 = DIRECTION('',(-1.,0.,0.));
#242 = ORIENTED_EDGE('',*,*,#243,.F.);
#243 = EDGE_CURVE('',#56,#236,#244,.T.);
#244 = CIRCLE('',#245,0.39);
#245 = AXIS2_PLACEMENT_3D('',#246,#247,#248);
#246 = CARTESIAN_POINT('',(-1.8,-1.79,21.165382317156));
#247 = DIRECTION('',(-1.,0.,0.));
#248 = DIRECTION('',(0.,0.,-1.));
#249 = ORIENTED_EDGE('',*,*,#63,.F.);
#250 = CYLINDRICAL_SURFACE('',#251,0.39);
#251 = AXIS2_PLACEMENT_3D('',#252,#253,#254);
#252 = CARTESIAN_POINT('',(1.8,-1.79,21.165382317156));
#253 = DIRECTION('',(-1.,0.,0.));
#254 = DIRECTION('',(0.,0.,1.));
#255 = ADVANCED_FACE('',(#256),#274,.T.);
#256 = FACE_BOUND('',#257,.T.);
#257 = EDGE_LOOP('',(#258,#266,#267,#268));
#258 = ORIENTED_EDGE('',*,*,#259,.T.);
#259 = EDGE_CURVE('',#260,#40,#262,.T.);
#260 = VERTEX_POINT('',#261);
#261 = CARTESIAN_POINT('',(-1.8,-0.9,19.555382317156));
#262 = LINE('',#263,#264);
#263 = CARTESIAN_POINT('',(-1.8,-0.9,19.555382317156));
#264 = VECTOR('',#265,1.);
#265 = DIRECTION('',(0.,0.,1.));
#266 = ORIENTED_EDGE('',*,*,#39,.T.);
#267 = ORIENTED_EDGE('',*,*,#212,.F.);
#268 = ORIENTED_EDGE('',*,*,#269,.F.);
#269 = EDGE_CURVE('',#260,#213,#270,.T.);
#270 = LINE('',#271,#272);
#271 = CARTESIAN_POINT('',(-1.8,-0.9,19.555382317156));
#272 = VECTOR('',#273,1.);
#273 = DIRECTION('',(1.,0.,0.));
#274 = PLANE('',#275);
#275 = AXIS2_PLACEMENT_3D('',#276,#277,#278);
#276 = CARTESIAN_POINT('',(-1.8,-0.9,19.555382317156));
#277 = DIRECTION('',(0.,1.,0.));
#278 = DIRECTION('',(1.,0.,0.));
#279 = ADVANCED_FACE('',(#280),#300,.F.);
#280 = FACE_BOUND('',#281,.F.);
#281 = EDGE_LOOP('',(#282,#290,#296,#297,#298,#299));
#282 = ORIENTED_EDGE('',*,*,#283,.F.);
#283 = EDGE_CURVE('',#284,#236,#286,.T.);
#284 = VERTEX_POINT('',#285);
#285 = CARTESIAN_POINT('',(-1.8,-1.4,19.555382317156));
#286 = LINE('',#287,#288);
#287 = CARTESIAN_POINT('',(-1.8,-1.4,19.555382317156));
#288 = VECTOR('',#289,1.);
#289 = DIRECTION('',(0.,0.,1.));
#290 = ORIENTED_EDGE('',*,*,#291,.T.);
#291 = EDGE_CURVE('',#284,#260,#292,.T.);
#292 = LINE('',#293,#294);
#293 = CARTESIAN_POINT('',(-1.8,-1.999999999997,19.555382317156));
#294 = VECTOR('',#295,1.);
#295 = DIRECTION('',(0.,1.,0.));
#296 = ORIENTED_EDGE('',*,*,#259,.T.);
#297 = ORIENTED_EDGE('',*,*,#47,.F.);
#298 = ORIENTED_EDGE('',*,*,#55,.T.);
#299 = ORIENTED_EDGE('',*,*,#243,.T.);
#300 = PLANE('',#301);
#301 = AXIS2_PLACEMENT_3D('',#302,#303,#304);
#302 = CARTESIAN_POINT('',(-1.8,-1.999999999997,21.555382317156));
#303 = DIRECTION('',(1.,0.,0.));
#304 = DIRECTION('',(0.,1.,0.));
#305 = ADVANCED_FACE('',(#306),#363,.T.);
#306 = FACE_BOUND('',#307,.F.);
#307 = EDGE_LOOP('',(#308,#309,#317,#325,#333,#341,#349,#357));
#308 = ORIENTED_EDGE('',*,*,#71,.T.);
#309 = ORIENTED_EDGE('',*,*,#310,.F.);
#310 = EDGE_CURVE('',#311,#74,#313,.T.);
#311 = VERTEX_POINT('',#312);
#312 = CARTESIAN_POINT('',(5.999999999976,5.8,27.155382317156));
#313 = LINE('',#314,#315);
#314 = CARTESIAN_POINT('',(5.999999999976,5.8,23.555382317156));
#315 = VECTOR('',#316,1.);
#316 = DIRECTION('',(-2.449293598295E-16,-0.,-1.));
#317 = ORIENTED_EDGE('',*,*,#318,.F.);
#318 = EDGE_CURVE('',#319,#311,#321,.T.);
#319 = VERTEX_POINT('',#320);
#320 = CARTESIAN_POINT('',(4.149999999988,5.8,27.155382317156));
#321 = LINE('',#322,#323);
#322 = CARTESIAN_POINT('',(5.376381215456,5.8,27.155382317156));
#323 = VECTOR('',#324,1.);
#324 = DIRECTION('',(1.,0.,-2.449293598295E-16));
#325 = ORIENTED_EDGE('',*,*,#326,.F.);
#326 = EDGE_CURVE('',#327,#319,#329,.T.);
#327 = VERTEX_POINT('',#328);
#328 = CARTESIAN_POINT('',(4.149999999988,5.8,23.555382317156));
#329 = LINE('',#330,#331);
#330 = CARTESIAN_POINT('',(4.149999999988,5.8,21.555382317156));
#331 = VECTOR('',#332,1.);
#332 = DIRECTION('',(2.449293598295E-16,0.,1.));
#333 = ORIENTED_EDGE('',*,*,#334,.F.);
#334 = EDGE_CURVE('',#335,#327,#337,.T.);
#335 = VERTEX_POINT('',#336);
#336 = CARTESIAN_POINT('',(1.849999999988,5.8,23.555382317156));
#337 = LINE('',#338,#339);
#338 = CARTESIAN_POINT('',(-1.774417405744E-15,5.8,23.555382317156));
#339 = VECTOR('',#340,1.);
#340 = DIRECTION('',(1.,0.,-2.449293598295E-16));
#341 = ORIENTED_EDGE('',*,*,#342,.T.);
#342 = EDGE_CURVE('',#335,#343,#345,.T.);
#343 = VERTEX_POINT('',#344);
#344 = CARTESIAN_POINT('',(1.849999999988,5.8,27.155382317156));
#345 = LINE('',#346,#347);
#346 = CARTESIAN_POINT('',(1.849999999988,5.8,21.555382317156));
#347 = VECTOR('',#348,1.);
#348 = DIRECTION('',(2.449293598295E-16,0.,1.));
#349 = ORIENTED_EDGE('',*,*,#350,.T.);
#350 = EDGE_CURVE('',#343,#351,#353,.T.);
#351 = VERTEX_POINT('',#352);
#352 = CARTESIAN_POINT('',(-8.926717103583E-16,5.8,27.155382317156));
#353 = LINE('',#354,#355);
#354 = CARTESIAN_POINT('',(2.376381215468,5.8,27.155382317156));
#355 = VECTOR('',#356,1.);
#356 = DIRECTION('',(-1.,0.,2.449293598295E-16));
#357 = ORIENTED_EDGE('',*,*,#358,.F.);
#358 = EDGE_CURVE('',#72,#351,#359,.T.);
#359 = LINE('',#360,#361);
#360 = CARTESIAN_POINT('',(-2.264276125403E-15,5.8,21.555382317156));
#361 = VECTOR('',#362,1.);
#362 = DIRECTION('',(2.449293598295E-16,0.,1.));
#363 = PLANE('',#364);
#364 = AXIS2_PLACEMENT_3D('',#365,#366,#367);
#365 = CARTESIAN_POINT('',(2.999999999988,5.8,24.319856001367));
#366 = DIRECTION('',(0.,1.,0.));
#367 = DIRECTION('',(2.449293598295E-16,0.,1.));
#368 = ADVANCED_FACE('',(#369),#403,.T.);
#369 = FACE_BOUND('',#370,.F.);
#370 = EDGE_LOOP('',(#371,#381,#389,#395,#396,#397));
#371 = ORIENTED_EDGE('',*,*,#372,.F.);
#372 = EDGE_CURVE('',#373,#375,#377,.T.);
#373 = VERTEX_POINT('',#374);
#374 = CARTESIAN_POINT('',(5.999999999976,1.95,23.555382317156));
#375 = VERTEX_POINT('',#376);
#376 = CARTESIAN_POINT('',(5.999999999976,-1.8,23.555382317156));
#377 = LINE('',#378,#379);
#378 = CARTESIAN_POINT('',(5.999999999976,5.8,23.555382317156));
#379 = VECTOR('',#380,1.);
#380 = DIRECTION('',(-0.,-1.,-0.));
#381 = ORIENTED_EDGE('',*,*,#382,.T.);
#382 = EDGE_CURVE('',#373,#383,#385,.T.);
#383 = VERTEX_POINT('',#384);
#384 = CARTESIAN_POINT('',(5.999999999976,1.95,27.155382317156));
#385 = LINE('',#386,#387);
#386 = CARTESIAN_POINT('',(5.999999999976,1.95,21.555382317156));
#387 = VECTOR('',#388,1.);
#388 = DIRECTION('',(2.449293598295E-16,0.,1.));
#389 = ORIENTED_EDGE('',*,*,#390,.F.);
#390 = EDGE_CURVE('',#311,#383,#391,.T.);
#391 = LINE('',#392,#393);
#392 = CARTESIAN_POINT('',(5.999999999976,1.505386740331,27.155382317156
    ));
#393 = VECTOR('',#394,1.);
#394 = DIRECTION('',(1.258695894434E-31,-1.,5.139015981222E-16));
#395 = ORIENTED_EDGE('',*,*,#310,.T.);
#396 = ORIENTED_EDGE('',*,*,#81,.T.);
#397 = ORIENTED_EDGE('',*,*,#398,.F.);
#398 = EDGE_CURVE('',#375,#82,#399,.T.);
#399 = LINE('',#400,#401);
#400 = CARTESIAN_POINT('',(5.999999999976,-1.8,23.555382317156));
#401 = VECTOR('',#402,1.);
#402 = DIRECTION('',(-2.449293598295E-16,-0.,-1.));
#403 = PLANE('',#404);
#404 = AXIS2_PLACEMENT_3D('',#405,#406,#407);
#405 = CARTESIAN_POINT('',(5.999999999976,2.511363636363,23.844018680793
    ));
#406 = DIRECTION('',(1.,0.,-2.449293598295E-16));
#407 = DIRECTION('',(2.449293598295E-16,0.,1.));
#408 = ADVANCED_FACE('',(#409),#427,.T.);
#409 = FACE_BOUND('',#410,.F.);
#410 = EDGE_LOOP('',(#411,#412,#413,#421));
#411 = ORIENTED_EDGE('',*,*,#398,.T.);
#412 = ORIENTED_EDGE('',*,*,#89,.T.);
#413 = ORIENTED_EDGE('',*,*,#414,.F.);
#414 = EDGE_CURVE('',#415,#90,#417,.T.);
#415 = VERTEX_POINT('',#416);
#416 = CARTESIAN_POINT('',(-1.774417405744E-15,-1.8,23.555382317156));
#417 = LINE('',#418,#419);
#418 = CARTESIAN_POINT('',(-1.774417405744E-15,-1.8,23.555382317156));
#419 = VECTOR('',#420,1.);
#420 = DIRECTION('',(-2.449293598295E-16,-0.,-1.));
#421 = ORIENTED_EDGE('',*,*,#422,.F.);
#422 = EDGE_CURVE('',#375,#415,#423,.T.);
#423 = LINE('',#424,#425);
#424 = CARTESIAN_POINT('',(5.999999999976,-1.8,23.555382317156));
#425 = VECTOR('',#426,1.);
#426 = DIRECTION('',(-1.,0.,2.449293598295E-16));
#427 = PLANE('',#428);
#428 = AXIS2_PLACEMENT_3D('',#429,#430,#431);
#429 = CARTESIAN_POINT('',(5.999999999976,-1.8,23.555382317156));
#430 = DIRECTION('',(-0.,-1.,-0.));
#431 = DIRECTION('',(1.,0.,-2.449293598295E-16));
#432 = ADVANCED_FACE('',(#433),#467,.T.);
#433 = FACE_BOUND('',#434,.F.);
#434 = EDGE_LOOP('',(#435,#443,#444,#445,#453,#461));
#435 = ORIENTED_EDGE('',*,*,#436,.F.);
#436 = EDGE_CURVE('',#415,#437,#439,.T.);
#437 = VERTEX_POINT('',#438);
#438 = CARTESIAN_POINT('',(-1.774417405744E-15,-1.95,23.555382317156));
#439 = LINE('',#440,#441);
#440 = CARTESIAN_POINT('',(-1.774417405744E-15,-1.8,23.555382317156));
#441 = VECTOR('',#442,1.);
#442 = DIRECTION('',(-0.,-1.,-0.));
#443 = ORIENTED_EDGE('',*,*,#414,.T.);
#444 = ORIENTED_EDGE('',*,*,#97,.T.);
#445 = ORIENTED_EDGE('',*,*,#446,.F.);
#446 = EDGE_CURVE('',#447,#98,#449,.T.);
#447 = VERTEX_POINT('',#448);
#448 = CARTESIAN_POINT('',(-8.926717103583E-16,-5.8,27.155382317156));
#449 = LINE('',#450,#451);
#450 = CARTESIAN_POINT('',(-1.774417405744E-15,-5.800000000001,
    23.555382317156));
#451 = VECTOR('',#452,1.);
#452 = DIRECTION('',(-2.449293598295E-16,-0.,-1.));
#453 = ORIENTED_EDGE('',*,*,#454,.F.);
#454 = EDGE_CURVE('',#455,#447,#457,.T.);
#455 = VERTEX_POINT('',#456);
#456 = CARTESIAN_POINT('',(-8.926717103583E-16,-1.95,27.155382317156));
#457 = LINE('',#458,#459);
#458 = CARTESIAN_POINT('',(-8.926717103583E-16,-2.369613259668,
    27.155382317156));
#459 = VECTOR('',#460,1.);
#460 = DIRECTION('',(1.258695894434E-31,-1.,5.139015981222E-16));
#461 = ORIENTED_EDGE('',*,*,#462,.F.);
#462 = EDGE_CURVE('',#437,#455,#463,.T.);
#463 = LINE('',#464,#465);
#464 = CARTESIAN_POINT('',(-2.264276125403E-15,-1.95,21.555382317156));
#465 = VECTOR('',#466,1.);
#466 = DIRECTION('',(2.449293598295E-16,0.,1.));
#467 = PLANE('',#468);
#468 = AXIS2_PLACEMENT_3D('',#469,#470,#471);
#469 = CARTESIAN_POINT('',(-1.585362556126E-15,-3.828125,24.327257317156
    ));
#470 = DIRECTION('',(1.,0.,-2.449293598295E-16));
#471 = DIRECTION('',(2.449293598295E-16,0.,1.));
#472 = ADVANCED_FACE('',(#473),#523,.T.);
#473 = FACE_BOUND('',#474,.F.);
#474 = EDGE_LOOP('',(#475,#485,#493,#499,#500,#501,#509,#517));
#475 = ORIENTED_EDGE('',*,*,#476,.F.);
#476 = EDGE_CURVE('',#477,#479,#481,.T.);
#477 = VERTEX_POINT('',#478);
#478 = CARTESIAN_POINT('',(-1.849999999988,-5.8,23.555382317156));
#479 = VERTEX_POINT('',#480);
#480 = CARTESIAN_POINT('',(-4.149999999988,-5.8,23.555382317156));
#481 = LINE('',#482,#483);
#482 = CARTESIAN_POINT('',(-1.774417405744E-15,-5.800000000001,
    23.555382317156));
#483 = VECTOR('',#484,1.);
#484 = DIRECTION('',(-1.,0.,2.449293598295E-16));
#485 = ORIENTED_EDGE('',*,*,#486,.T.);
#486 = EDGE_CURVE('',#477,#487,#489,.T.);
#487 = VERTEX_POINT('',#488);
#488 = CARTESIAN_POINT('',(-1.849999999988,-5.8,27.155382317156));
#489 = LINE('',#490,#491);
#490 = CARTESIAN_POINT('',(-1.849999999988,-5.8,21.555382317156));
#491 = VECTOR('',#492,1.);
#492 = DIRECTION('',(2.449293598295E-16,0.,1.));
#493 = ORIENTED_EDGE('',*,*,#494,.F.);
#494 = EDGE_CURVE('',#447,#487,#495,.T.);
#495 = LINE('',#496,#497);
#496 = CARTESIAN_POINT('',(1.451381215474,-5.8,27.155382317156));
#497 = VECTOR('',#498,1.);
#498 = DIRECTION('',(-1.,0.,2.449293598295E-16));
#499 = ORIENTED_EDGE('',*,*,#446,.T.);
#500 = ORIENTED_EDGE('',*,*,#105,.T.);
#501 = ORIENTED_EDGE('',*,*,#502,.F.);
#502 = EDGE_CURVE('',#503,#106,#505,.T.);
#503 = VERTEX_POINT('',#504);
#504 = CARTESIAN_POINT('',(-5.999999999976,-5.8,27.155382317156));
#505 = LINE('',#506,#507);
#506 = CARTESIAN_POINT('',(-5.999999999976,-5.800000000001,
    23.555382317156));
#507 = VECTOR('',#508,1.);
#508 = DIRECTION('',(-2.449293598295E-16,-0.,-1.));
#509 = ORIENTED_EDGE('',*,*,#510,.T.);
#510 = EDGE_CURVE('',#503,#511,#513,.T.);
#511 = VERTEX_POINT('',#512);
#512 = CARTESIAN_POINT('',(-4.149999999988,-5.8,27.155382317156));
#513 = LINE('',#514,#515);
#514 = CARTESIAN_POINT('',(0.301381215475,-5.799999999999,
    27.155382317156));
#515 = VECTOR('',#516,1.);
#516 = DIRECTION('',(1.,1.373075827221E-13,-2.449293598295E-16));
#517 = ORIENTED_EDGE('',*,*,#518,.F.);
#518 = EDGE_CURVE('',#479,#511,#519,.T.);
#519 = LINE('',#520,#521);
#520 = CARTESIAN_POINT('',(-4.149999999988,-5.8,21.555382317156));
#521 = VECTOR('',#522,1.);
#522 = DIRECTION('',(2.449293598295E-16,0.,1.));
#523 = PLANE('',#524);
#524 = AXIS2_PLACEMENT_3D('',#525,#526,#527);
#525 = CARTESIAN_POINT('',(-2.999999999988,-5.8,24.319856001367));
#526 = DIRECTION('',(2.226078358175E-14,-1.,1.804295582998E-13));
#527 = DIRECTION('',(-2.449293598295E-16,-1.804295582998E-13,-1.));
#528 = ADVANCED_FACE('',(#529),#563,.T.);
#529 = FACE_BOUND('',#530,.F.);
#530 = EDGE_LOOP('',(#531,#541,#549,#555,#556,#557));
#531 = ORIENTED_EDGE('',*,*,#532,.F.);
#532 = EDGE_CURVE('',#533,#535,#537,.T.);
#533 = VERTEX_POINT('',#534);
#534 = CARTESIAN_POINT('',(-5.999999999976,-1.95,23.555382317156));
#535 = VERTEX_POINT('',#536);
#536 = CARTESIAN_POINT('',(-5.999999999976,1.8,23.555382317156));
#537 = LINE('',#538,#539);
#538 = CARTESIAN_POINT('',(-5.999999999976,-5.800000000001,
    23.555382317156));
#539 = VECTOR('',#540,1.);
#540 = DIRECTION('',(0.,1.,0.));
#541 = ORIENTED_EDGE('',*,*,#542,.T.);
#542 = EDGE_CURVE('',#533,#543,#545,.T.);
#543 = VERTEX_POINT('',#544);
#544 = CARTESIAN_POINT('',(-5.999999999976,-1.95,27.155382317156));
#545 = LINE('',#546,#547);
#546 = CARTESIAN_POINT('',(-5.999999999976,-1.95,21.555382317156));
#547 = VECTOR('',#548,1.);
#548 = DIRECTION('',(2.449293598295E-16,0.,1.));
#549 = ORIENTED_EDGE('',*,*,#550,.T.);
#550 = EDGE_CURVE('',#543,#503,#551,.T.);
#551 = LINE('',#552,#553);
#552 = CARTESIAN_POINT('',(-5.999999999976,-2.369613259668,
    27.155382317156));
#553 = VECTOR('',#554,1.);
#554 = DIRECTION('',(-1.658702035752E-13,-1.,5.139015981222E-16));
#555 = ORIENTED_EDGE('',*,*,#502,.T.);
#556 = ORIENTED_EDGE('',*,*,#113,.T.);
#557 = ORIENTED_EDGE('',*,*,#558,.F.);
#558 = EDGE_CURVE('',#535,#114,#559,.T.);
#559 = LINE('',#560,#561);
#560 = CARTESIAN_POINT('',(-5.999999999976,1.8,23.555382317156));
#561 = VECTOR('',#562,1.);
#562 = DIRECTION('',(-2.449293598295E-16,-0.,-1.));
#563 = PLANE('',#564);
#564 = AXIS2_PLACEMENT_3D('',#565,#566,#567);
#565 = CARTESIAN_POINT('',(-5.999999999976,-2.511363636364,
    23.844018680793));
#566 = DIRECTION('',(-1.,4.568467011674E-14,-4.07853700745E-14));
#567 = DIRECTION('',(4.568467011674E-14,1.,-1.118951700571E-29));
#568 = ADVANCED_FACE('',(#569),#587,.T.);
#569 = FACE_BOUND('',#570,.F.);
#570 = EDGE_LOOP('',(#571,#572,#573,#581));
#571 = ORIENTED_EDGE('',*,*,#558,.T.);
#572 = ORIENTED_EDGE('',*,*,#121,.T.);
#573 = ORIENTED_EDGE('',*,*,#574,.F.);
#574 = EDGE_CURVE('',#575,#122,#577,.T.);
#575 = VERTEX_POINT('',#576);
#576 = CARTESIAN_POINT('',(-1.774417405744E-15,1.8,23.555382317156));
#577 = LINE('',#578,#579);
#578 = CARTESIAN_POINT('',(-1.774417405744E-15,1.8,23.555382317156));
#579 = VECTOR('',#580,1.);
#580 = DIRECTION('',(-2.449293598295E-16,-0.,-1.));
#581 = ORIENTED_EDGE('',*,*,#582,.F.);
#582 = EDGE_CURVE('',#535,#575,#583,.T.);
#583 = LINE('',#584,#585);
#584 = CARTESIAN_POINT('',(-5.999999999976,1.8,23.555382317156));
#585 = VECTOR('',#586,1.);
#586 = DIRECTION('',(1.,0.,-2.449293598295E-16));
#587 = PLANE('',#588);
#588 = AXIS2_PLACEMENT_3D('',#589,#590,#591);
#589 = CARTESIAN_POINT('',(-5.999999999976,1.8,23.555382317156));
#590 = DIRECTION('',(0.,1.,0.));
#591 = DIRECTION('',(-1.,0.,2.449293598295E-16));
#592 = ADVANCED_FACE('',(#593),#620,.T.);
#593 = FACE_BOUND('',#594,.F.);
#594 = EDGE_LOOP('',(#595,#596,#604,#612,#618,#619));
#595 = ORIENTED_EDGE('',*,*,#358,.T.);
#596 = ORIENTED_EDGE('',*,*,#597,.F.);
#597 = EDGE_CURVE('',#598,#351,#600,.T.);
#598 = VERTEX_POINT('',#599);
#599 = CARTESIAN_POINT('',(-8.926717103583E-16,1.95,27.155382317156));
#600 = LINE('',#601,#602);
#601 = CARTESIAN_POINT('',(-8.926717103583E-16,3.430386740331,
    27.155382317156));
#602 = VECTOR('',#603,1.);
#603 = DIRECTION('',(-1.258695894434E-31,1.,-5.139015981222E-16));
#604 = ORIENTED_EDGE('',*,*,#605,.F.);
#605 = EDGE_CURVE('',#606,#598,#608,.T.);
#606 = VERTEX_POINT('',#607);
#607 = CARTESIAN_POINT('',(-1.774417405744E-15,1.95,23.555382317156));
#608 = LINE('',#609,#610);
#609 = CARTESIAN_POINT('',(-2.264276125403E-15,1.95,21.555382317156));
#610 = VECTOR('',#611,1.);
#611 = DIRECTION('',(2.449293598295E-16,0.,1.));
#612 = ORIENTED_EDGE('',*,*,#613,.F.);
#613 = EDGE_CURVE('',#575,#606,#614,.T.);
#614 = LINE('',#615,#616);
#615 = CARTESIAN_POINT('',(-1.774417405744E-15,1.8,23.555382317156));
#616 = VECTOR('',#617,1.);
#617 = DIRECTION('',(0.,1.,0.));
#618 = ORIENTED_EDGE('',*,*,#574,.T.);
#619 = ORIENTED_EDGE('',*,*,#129,.T.);
#620 = PLANE('',#621);
#621 = AXIS2_PLACEMENT_3D('',#622,#623,#624);
#622 = CARTESIAN_POINT('',(-1.585362556126E-15,3.828125,24.327257317156)
  );
#623 = DIRECTION('',(-1.,0.,2.449293598295E-16));
#624 = DIRECTION('',(-2.449293598295E-16,-0.,-1.));
#625 = ADVANCED_FACE('',(#626),#661,.F.);
#626 = FACE_BOUND('',#627,.F.);
#627 = EDGE_LOOP('',(#628,#638,#645,#646,#647,#655));
#628 = ORIENTED_EDGE('',*,*,#629,.T.);
#629 = EDGE_CURVE('',#630,#632,#634,.T.);
#630 = VERTEX_POINT('',#631);
#631 = CARTESIAN_POINT('',(-1.8,1.4,19.555382317156));
#632 = VERTEX_POINT('',#633);
#633 = CARTESIAN_POINT('',(-1.8,1.4,21.165382317156));
#634 = LINE('',#635,#636);
#635 = CARTESIAN_POINT('',(-1.8,1.4,19.555382317156));
#636 = VECTOR('',#637,1.);
#637 = DIRECTION('',(0.,0.,1.));
#638 = ORIENTED_EDGE('',*,*,#639,.F.);
#639 = EDGE_CURVE('',#140,#632,#640,.T.);
#640 = CIRCLE('',#641,0.39);
#641 = AXIS2_PLACEMENT_3D('',#642,#643,#644);
#642 = CARTESIAN_POINT('',(-1.8,1.79,21.165382317156));
#643 = DIRECTION('',(1.,0.,-0.));
#644 = DIRECTION('',(0.,0.,1.));
#645 = ORIENTED_EDGE('',*,*,#137,.F.);
#646 = ORIENTED_EDGE('',*,*,#147,.F.);
#647 = ORIENTED_EDGE('',*,*,#648,.F.);
#648 = EDGE_CURVE('',#649,#148,#651,.T.);
#649 = VERTEX_POINT('',#650);
#650 = CARTESIAN_POINT('',(-1.8,0.9,19.555382317156));
#651 = LINE('',#652,#653);
#652 = CARTESIAN_POINT('',(-1.8,0.9,19.555382317156));
#653 = VECTOR('',#654,1.);
#654 = DIRECTION('',(0.,0.,1.));
#655 = ORIENTED_EDGE('',*,*,#656,.T.);
#656 = EDGE_CURVE('',#649,#630,#657,.T.);
#657 = LINE('',#658,#659);
#658 = CARTESIAN_POINT('',(-1.8,-1.999999999997,19.555382317156));
#659 = VECTOR('',#660,1.);
#660 = DIRECTION('',(0.,1.,0.));
#661 = PLANE('',#662);
#662 = AXIS2_PLACEMENT_3D('',#663,#664,#665);
#663 = CARTESIAN_POINT('',(-1.8,-1.999999999997,21.555382317156));
#664 = DIRECTION('',(1.,0.,0.));
#665 = DIRECTION('',(0.,1.,0.));
#666 = ADVANCED_FACE('',(#667),#686,.F.);
#667 = FACE_BOUND('',#668,.F.);
#668 = EDGE_LOOP('',(#669,#670,#678,#685));
#669 = ORIENTED_EDGE('',*,*,#639,.T.);
#670 = ORIENTED_EDGE('',*,*,#671,.T.);
#671 = EDGE_CURVE('',#632,#672,#674,.T.);
#672 = VERTEX_POINT('',#673);
#673 = CARTESIAN_POINT('',(1.8,1.4,21.165382317156));
#674 = LINE('',#675,#676);
#675 = CARTESIAN_POINT('',(-1.8,1.4,21.165382317156));
#676 = VECTOR('',#677,1.);
#677 = DIRECTION('',(1.,0.,0.));
#678 = ORIENTED_EDGE('',*,*,#679,.F.);
#679 = EDGE_CURVE('',#172,#672,#680,.T.);
#680 = CIRCLE('',#681,0.39);
#681 = AXIS2_PLACEMENT_3D('',#682,#683,#684);
#682 = CARTESIAN_POINT('',(1.8,1.79,21.165382317156));
#683 = DIRECTION('',(1.,0.,-0.));
#684 = DIRECTION('',(0.,0.,1.));
#685 = ORIENTED_EDGE('',*,*,#179,.F.);
#686 = CYLINDRICAL_SURFACE('',#687,0.39);
#687 = AXIS2_PLACEMENT_3D('',#688,#689,#690);
#688 = CARTESIAN_POINT('',(-1.8,1.79,21.165382317156));
#689 = DIRECTION('',(1.,0.,0.));
#690 = DIRECTION('',(0.,0.,1.));
#691 = ADVANCED_FACE('',(#692),#710,.T.);
#692 = FACE_BOUND('',#693,.T.);
#693 = EDGE_LOOP('',(#694,#702,#703,#704));
#694 = ORIENTED_EDGE('',*,*,#695,.T.);
#695 = EDGE_CURVE('',#696,#156,#698,.T.);
#696 = VERTEX_POINT('',#697);
#697 = CARTESIAN_POINT('',(1.8,0.9,19.555382317156));
#698 = LINE('',#699,#700);
#699 = CARTESIAN_POINT('',(1.8,0.9,19.555382317156));
#700 = VECTOR('',#701,1.);
#701 = DIRECTION('',(0.,0.,1.));
#702 = ORIENTED_EDGE('',*,*,#155,.T.);
#703 = ORIENTED_EDGE('',*,*,#648,.F.);
#704 = ORIENTED_EDGE('',*,*,#705,.F.);
#705 = EDGE_CURVE('',#696,#649,#706,.T.);
#706 = LINE('',#707,#708);
#707 = CARTESIAN_POINT('',(1.8,0.9,19.555382317156));
#708 = VECTOR('',#709,1.);
#709 = DIRECTION('',(-1.,0.,0.));
#710 = PLANE('',#711);
#711 = AXIS2_PLACEMENT_3D('',#712,#713,#714);
#712 = CARTESIAN_POINT('',(1.8,0.9,19.555382317156));
#713 = DIRECTION('',(0.,-1.,0.));
#714 = DIRECTION('',(-1.,0.,0.));
#715 = ADVANCED_FACE('',(#716),#736,.F.);
#716 = FACE_BOUND('',#717,.F.);
#717 = EDGE_LOOP('',(#718,#726,#732,#733,#734,#735));
#718 = ORIENTED_EDGE('',*,*,#719,.F.);
#719 = EDGE_CURVE('',#720,#672,#722,.T.);
#720 = VERTEX_POINT('',#721);
#721 = CARTESIAN_POINT('',(1.8,1.4,19.555382317156));
#722 = LINE('',#723,#724);
#723 = CARTESIAN_POINT('',(1.8,1.4,19.555382317156));
#724 = VECTOR('',#725,1.);
#725 = DIRECTION('',(0.,0.,1.));
#726 = ORIENTED_EDGE('',*,*,#727,.T.);
#727 = EDGE_CURVE('',#720,#696,#728,.T.);
#728 = LINE('',#729,#730);
#729 = CARTESIAN_POINT('',(1.8,2.,19.555382317156));
#730 = VECTOR('',#731,1.);
#731 = DIRECTION('',(0.,-1.,0.));
#732 = ORIENTED_EDGE('',*,*,#695,.T.);
#733 = ORIENTED_EDGE('',*,*,#163,.F.);
#734 = ORIENTED_EDGE('',*,*,#171,.T.);
#735 = ORIENTED_EDGE('',*,*,#679,.T.);
#736 = PLANE('',#737);
#737 = AXIS2_PLACEMENT_3D('',#738,#739,#740);
#738 = CARTESIAN_POINT('',(1.8,2.,21.555382317156));
#739 = DIRECTION('',(-1.,-0.,-0.));
#740 = DIRECTION('',(0.,-1.,0.));
#741 = ADVANCED_FACE('',(#742),#753,.T.);
#742 = FACE_BOUND('',#743,.T.);
#743 = EDGE_LOOP('',(#744,#745,#746,#747));
#744 = ORIENTED_EDGE('',*,*,#193,.T.);
#745 = ORIENTED_EDGE('',*,*,#235,.T.);
#746 = ORIENTED_EDGE('',*,*,#283,.F.);
#747 = ORIENTED_EDGE('',*,*,#748,.F.);
#748 = EDGE_CURVE('',#194,#284,#749,.T.);
#749 = LINE('',#750,#751);
#750 = CARTESIAN_POINT('',(1.8,-1.4,19.555382317156));
#751 = VECTOR('',#752,1.);
#752 = DIRECTION('',(-1.,0.,0.));
#753 = PLANE('',#754);
#754 = AXIS2_PLACEMENT_3D('',#755,#756,#757);
#755 = CARTESIAN_POINT('',(1.8,-1.4,19.555382317156));
#756 = DIRECTION('',(0.,-1.,0.));
#757 = DIRECTION('',(-1.,0.,0.));
#758 = ADVANCED_FACE('',(#759),#765,.F.);
#759 = FACE_BOUND('',#760,.F.);
#760 = EDGE_LOOP('',(#761,#762,#763,#764));
#761 = ORIENTED_EDGE('',*,*,#748,.F.);
#762 = ORIENTED_EDGE('',*,*,#220,.F.);
#763 = ORIENTED_EDGE('',*,*,#269,.F.);
#764 = ORIENTED_EDGE('',*,*,#291,.F.);
#765 = PLANE('',#766);
#766 = AXIS2_PLACEMENT_3D('',#767,#768,#769);
#767 = CARTESIAN_POINT('',(1.285521396935E-14,1.682630643006E-12,
    19.555382317156));
#768 = DIRECTION('',(0.,0.,1.));
#769 = DIRECTION('',(1.,0.,0.));
#770 = ADVANCED_FACE('',(#771),#789,.T.);
#771 = FACE_BOUND('',#772,.T.);
#772 = EDGE_LOOP('',(#773,#781,#787,#788));
#773 = ORIENTED_EDGE('',*,*,#774,.F.);
#774 = EDGE_CURVE('',#775,#319,#777,.T.);
#775 = VERTEX_POINT('',#776);
#776 = CARTESIAN_POINT('',(4.149999999988,1.95,27.155382317156));
#777 = LINE('',#778,#779);
#778 = CARTESIAN_POINT('',(4.149999999988,3.430386740331,27.155382317156
    ));
#779 = VECTOR('',#780,1.);
#780 = DIRECTION('',(-1.258695894434E-31,1.,-5.139015981222E-16));
#781 = ORIENTED_EDGE('',*,*,#782,.F.);
#782 = EDGE_CURVE('',#383,#775,#783,.T.);
#783 = LINE('',#784,#785);
#784 = CARTESIAN_POINT('',(4.451381215462,1.95,27.155382317156));
#785 = VECTOR('',#786,1.);
#786 = DIRECTION('',(-1.,0.,2.449293598295E-16));
#787 = ORIENTED_EDGE('',*,*,#390,.F.);
#788 = ORIENTED_EDGE('',*,*,#318,.F.);
#789 = PLANE('',#790);
#790 = AXIS2_PLACEMENT_3D('',#791,#792,#793);
#791 = CARTESIAN_POINT('',(4.752762430937,1.060773480663,27.155382317156
    ));
#792 = DIRECTION('',(2.449293598295E-16,5.139015981222E-16,1.));
#793 = DIRECTION('',(4.440892098501E-16,1.,-5.139015981222E-16));
#794 = ADVANCED_FACE('',(#795),#813,.T.);
#795 = FACE_BOUND('',#796,.F.);
#796 = EDGE_LOOP('',(#797,#805,#806,#807));
#797 = ORIENTED_EDGE('',*,*,#798,.F.);
#798 = EDGE_CURVE('',#327,#799,#801,.T.);
#799 = VERTEX_POINT('',#800);
#800 = CARTESIAN_POINT('',(4.149999999988,1.95,23.555382317156));
#801 = LINE('',#802,#803);
#802 = CARTESIAN_POINT('',(4.149999999988,2.9,23.555382317156));
#803 = VECTOR('',#804,1.);
#804 = DIRECTION('',(-0.,-1.,-0.));
#805 = ORIENTED_EDGE('',*,*,#326,.T.);
#806 = ORIENTED_EDGE('',*,*,#774,.F.);
#807 = ORIENTED_EDGE('',*,*,#808,.F.);
#808 = EDGE_CURVE('',#799,#775,#809,.T.);
#809 = LINE('',#810,#811);
#810 = CARTESIAN_POINT('',(4.149999999988,1.95,21.555382317156));
#811 = VECTOR('',#812,1.);
#812 = DIRECTION('',(2.449293598295E-16,0.,1.));
#813 = PLANE('',#814);
#814 = AXIS2_PLACEMENT_3D('',#815,#816,#817);
#815 = CARTESIAN_POINT('',(4.149999999988,5.8,21.555382317156));
#816 = DIRECTION('',(-1.,0.,2.449293598295E-16));
#817 = DIRECTION('',(0.,1.,0.));
#818 = ADVANCED_FACE('',(#819),#896,.F.);
#819 = FACE_BOUND('',#820,.T.);
#820 = EDGE_LOOP('',(#821,#822,#830,#839,#845,#846,#847,#848,#856,#862,
    #863,#871,#880,#886,#887,#888,#889,#895));
#821 = ORIENTED_EDGE('',*,*,#334,.F.);
#822 = ORIENTED_EDGE('',*,*,#823,.T.);
#823 = EDGE_CURVE('',#335,#824,#826,.T.);
#824 = VERTEX_POINT('',#825);
#825 = CARTESIAN_POINT('',(1.849999999988,3.3,23.555382317156));
#826 = LINE('',#827,#828);
#827 = CARTESIAN_POINT('',(1.849999999988,2.9,23.555382317156));
#828 = VECTOR('',#829,1.);
#829 = DIRECTION('',(-0.,-1.,-0.));
#830 = ORIENTED_EDGE('',*,*,#831,.F.);
#831 = EDGE_CURVE('',#832,#824,#834,.T.);
#832 = VERTEX_POINT('',#833);
#833 = CARTESIAN_POINT('',(0.499999999988,1.95,23.555382317156));
#834 = CIRCLE('',#835,1.35);
#835 = AXIS2_PLACEMENT_3D('',#836,#837,#838);
#836 = CARTESIAN_POINT('',(0.499999999988,3.3,23.555382317156));
#837 = DIRECTION('',(2.449293598295E-16,-0.,1.));
#838 = DIRECTION('',(1.,0.,-2.449293598295E-16));
#839 = ORIENTED_EDGE('',*,*,#840,.T.);
#840 = EDGE_CURVE('',#832,#606,#841,.T.);
#841 = LINE('',#842,#843);
#842 = CARTESIAN_POINT('',(0.249999999994,1.95,23.555382317156));
#843 = VECTOR('',#844,1.);
#844 = DIRECTION('',(-1.,0.,2.449293598295E-16));
#845 = ORIENTED_EDGE('',*,*,#613,.F.);
#846 = ORIENTED_EDGE('',*,*,#582,.F.);
#847 = ORIENTED_EDGE('',*,*,#532,.F.);
#848 = ORIENTED_EDGE('',*,*,#849,.T.);
#849 = EDGE_CURVE('',#533,#850,#852,.T.);
#850 = VERTEX_POINT('',#851);
#851 = CARTESIAN_POINT('',(-4.149999999988,-1.95,23.555382317156));
#852 = LINE('',#853,#854);
#853 = CARTESIAN_POINT('',(-2.999999999988,-1.95,23.555382317156));
#854 = VECTOR('',#855,1.);
#855 = DIRECTION('',(1.,2.400482215422E-16,-2.449293598295E-16));
#856 = ORIENTED_EDGE('',*,*,#857,.T.);
#857 = EDGE_CURVE('',#850,#479,#858,.T.);
#858 = LINE('',#859,#860);
#859 = CARTESIAN_POINT('',(-4.149999999988,-0.975,23.555382317156));
#860 = VECTOR('',#861,1.);
#861 = DIRECTION('',(-0.,-1.,-0.));
#862 = ORIENTED_EDGE('',*,*,#476,.F.);
#863 = ORIENTED_EDGE('',*,*,#864,.T.);
#864 = EDGE_CURVE('',#477,#865,#867,.T.);
#865 = VERTEX_POINT('',#866);
#866 = CARTESIAN_POINT('',(-1.849999999988,-3.300000000006,
    23.555382317156));
#867 = LINE('',#868,#869);
#868 = CARTESIAN_POINT('',(-1.849999999988,-2.9,23.555382317156));
#869 = VECTOR('',#870,1.);
#870 = DIRECTION('',(-8.881784197001E-17,1.,2.175409717515E-32));
#871 = ORIENTED_EDGE('',*,*,#872,.F.);
#872 = EDGE_CURVE('',#873,#865,#875,.T.);
#873 = VERTEX_POINT('',#874);
#874 = CARTESIAN_POINT('',(-0.499999999988,-1.95,23.555382317156));
#875 = CIRCLE('',#876,1.35);
#876 = AXIS2_PLACEMENT_3D('',#877,#878,#879);
#877 = CARTESIAN_POINT('',(-0.499999999988,-3.3,23.555382317156));
#878 = DIRECTION('',(2.449293598295E-16,-0.,1.));
#879 = DIRECTION('',(1.,0.,-2.449293598295E-16));
#880 = ORIENTED_EDGE('',*,*,#881,.F.);
#881 = EDGE_CURVE('',#437,#873,#882,.T.);
#882 = LINE('',#883,#884);
#883 = CARTESIAN_POINT('',(-5.830132861793E-14,-1.95,23.555382317156));
#884 = VECTOR('',#885,1.);
#885 = DIRECTION('',(-1.,-8.881784197218E-16,2.449293598295E-16));
#886 = ORIENTED_EDGE('',*,*,#436,.F.);
#887 = ORIENTED_EDGE('',*,*,#422,.F.);
#888 = ORIENTED_EDGE('',*,*,#372,.F.);
#889 = ORIENTED_EDGE('',*,*,#890,.F.);
#890 = EDGE_CURVE('',#799,#373,#891,.T.);
#891 = LINE('',#892,#893);
#892 = CARTESIAN_POINT('',(2.074999999994,1.95,23.555382317156));
#893 = VECTOR('',#894,1.);
#894 = DIRECTION('',(1.,0.,-2.449293598295E-16));
#895 = ORIENTED_EDGE('',*,*,#798,.F.);
#896 = PLANE('',#897);
#897 = AXIS2_PLACEMENT_3D('',#898,#899,#900);
#898 = CARTESIAN_POINT('',(-1.165601877486E-13,-4.69041001896E-13,
    23.555382317156));
#899 = DIRECTION('',(-2.449293598295E-16,-0.,-1.));
#900 = DIRECTION('',(-1.,0.,2.449293598295E-16));
#901 = ADVANCED_FACE('',(#902),#920,.F.);
#902 = FACE_BOUND('',#903,.T.);
#903 = EDGE_LOOP('',(#904,#905,#906,#914));
#904 = ORIENTED_EDGE('',*,*,#823,.F.);
#905 = ORIENTED_EDGE('',*,*,#342,.T.);
#906 = ORIENTED_EDGE('',*,*,#907,.F.);
#907 = EDGE_CURVE('',#908,#343,#910,.T.);
#908 = VERTEX_POINT('',#909);
#909 = CARTESIAN_POINT('',(1.849999999988,3.3,27.155382317156));
#910 = LINE('',#911,#912);
#911 = CARTESIAN_POINT('',(1.849999999988,3.430386740331,27.155382317156
    ));
#912 = VECTOR('',#913,1.);
#913 = DIRECTION('',(-1.258695894434E-31,1.,-5.139015981222E-16));
#914 = ORIENTED_EDGE('',*,*,#915,.F.);
#915 = EDGE_CURVE('',#824,#908,#916,.T.);
#916 = LINE('',#917,#918);
#917 = CARTESIAN_POINT('',(1.849999999988,3.3,21.555382317156));
#918 = VECTOR('',#919,1.);
#919 = DIRECTION('',(2.449293598295E-16,0.,1.));
#920 = PLANE('',#921);
#921 = AXIS2_PLACEMENT_3D('',#922,#923,#924);
#922 = CARTESIAN_POINT('',(1.849999999988,5.8,21.555382317156));
#923 = DIRECTION('',(-1.,0.,2.449293598295E-16));
#924 = DIRECTION('',(0.,1.,0.));
#925 = ADVANCED_FACE('',(#926),#946,.T.);
#926 = FACE_BOUND('',#927,.T.);
#927 = EDGE_LOOP('',(#928,#929,#930,#931,#939));
#928 = ORIENTED_EDGE('',*,*,#907,.T.);
#929 = ORIENTED_EDGE('',*,*,#350,.T.);
#930 = ORIENTED_EDGE('',*,*,#597,.F.);
#931 = ORIENTED_EDGE('',*,*,#932,.T.);
#932 = EDGE_CURVE('',#598,#933,#935,.T.);
#933 = VERTEX_POINT('',#934);
#934 = CARTESIAN_POINT('',(0.499999999988,1.95,27.155382317156));
#935 = LINE('',#936,#937);
#936 = CARTESIAN_POINT('',(2.626381215462,1.95,27.155382317156));
#937 = VECTOR('',#938,1.);
#938 = DIRECTION('',(1.,0.,-2.449293598295E-16));
#939 = ORIENTED_EDGE('',*,*,#940,.T.);
#940 = EDGE_CURVE('',#933,#908,#941,.T.);
#941 = CIRCLE('',#942,1.35);
#942 = AXIS2_PLACEMENT_3D('',#943,#944,#945);
#943 = CARTESIAN_POINT('',(0.499999999988,3.3,27.155382317156));
#944 = DIRECTION('',(2.449293598295E-16,-0.,1.));
#945 = DIRECTION('',(1.,0.,-2.449293598295E-16));
#946 = PLANE('',#947);
#947 = AXIS2_PLACEMENT_3D('',#948,#949,#950);
#948 = CARTESIAN_POINT('',(4.752762430937,1.060773480663,27.155382317156
    ));
#949 = DIRECTION('',(2.449293598295E-16,5.139015981222E-16,1.));
#950 = DIRECTION('',(4.440892098501E-16,1.,-5.139015981222E-16));
#951 = ADVANCED_FACE('',(#952),#958,.T.);
#952 = FACE_BOUND('',#953,.F.);
#953 = EDGE_LOOP('',(#954,#955,#956,#957));
#954 = ORIENTED_EDGE('',*,*,#890,.F.);
#955 = ORIENTED_EDGE('',*,*,#808,.T.);
#956 = ORIENTED_EDGE('',*,*,#782,.F.);
#957 = ORIENTED_EDGE('',*,*,#382,.F.);
#958 = PLANE('',#959);
#959 = AXIS2_PLACEMENT_3D('',#960,#961,#962);
#960 = CARTESIAN_POINT('',(4.149999999988,1.95,21.555382317156));
#961 = DIRECTION('',(-0.,-1.,-0.));
#962 = DIRECTION('',(-1.,0.,2.449293598295E-16));
#963 = ADVANCED_FACE('',(#964),#991,.T.);
#964 = FACE_BOUND('',#965,.T.);
#965 = EDGE_LOOP('',(#966,#977,#983,#984,#985));
#966 = ORIENTED_EDGE('',*,*,#967,.T.);
#967 = EDGE_CURVE('',#968,#970,#972,.T.);
#968 = VERTEX_POINT('',#969);
#969 = CARTESIAN_POINT('',(-0.499999999988,-1.95,27.155382317156));
#970 = VERTEX_POINT('',#971);
#971 = CARTESIAN_POINT('',(-1.849999999988,-3.300000000006,
    27.155382317156));
#972 = CIRCLE('',#973,1.35);
#973 = AXIS2_PLACEMENT_3D('',#974,#975,#976);
#974 = CARTESIAN_POINT('',(-0.499999999988,-3.3,27.155382317156));
#975 = DIRECTION('',(2.449293598295E-16,-0.,1.));
#976 = DIRECTION('',(1.,0.,-2.449293598295E-16));
#977 = ORIENTED_EDGE('',*,*,#978,.T.);
#978 = EDGE_CURVE('',#970,#487,#979,.T.);
#979 = LINE('',#980,#981);
#980 = CARTESIAN_POINT('',(-1.849999999988,-2.369613259668,
    27.155382317156));
#981 = VECTOR('',#982,1.);
#982 = DIRECTION('',(8.881784197001E-17,-1.,5.139015981222E-16));
#983 = ORIENTED_EDGE('',*,*,#494,.F.);
#984 = ORIENTED_EDGE('',*,*,#454,.F.);
#985 = ORIENTED_EDGE('',*,*,#986,.F.);
#986 = EDGE_CURVE('',#968,#455,#987,.T.);
#987 = LINE('',#988,#989);
#988 = CARTESIAN_POINT('',(2.376381215468,-1.95,27.155382317156));
#989 = VECTOR('',#990,1.);
#990 = DIRECTION('',(1.,8.881784197218E-16,-2.449293598295E-16));
#991 = PLANE('',#992);
#992 = AXIS2_PLACEMENT_3D('',#993,#994,#995);
#993 = CARTESIAN_POINT('',(4.752762430937,1.060773480663,27.155382317156
    ));
#994 = DIRECTION('',(2.449293598295E-16,5.139015981222E-16,1.));
#995 = DIRECTION('',(4.440892098501E-16,1.,-5.139015981222E-16));
#996 = ADVANCED_FACE('',(#997),#1008,.T.);
#997 = FACE_BOUND('',#998,.F.);
#998 = EDGE_LOOP('',(#999,#1000,#1001,#1002));
#999 = ORIENTED_EDGE('',*,*,#881,.F.);
#1000 = ORIENTED_EDGE('',*,*,#462,.T.);
#1001 = ORIENTED_EDGE('',*,*,#986,.F.);
#1002 = ORIENTED_EDGE('',*,*,#1003,.F.);
#1003 = EDGE_CURVE('',#873,#968,#1004,.T.);
#1004 = LINE('',#1005,#1006);
#1005 = CARTESIAN_POINT('',(-0.499999999988,-1.95,21.555382317156));
#1006 = VECTOR('',#1007,1.);
#1007 = DIRECTION('',(2.449293598295E-16,0.,1.));
#1008 = PLANE('',#1009);
#1009 = AXIS2_PLACEMENT_3D('',#1010,#1011,#1012);
#1010 = CARTESIAN_POINT('',(-2.264276125403E-15,-1.95,21.555382317156));
#1011 = DIRECTION('',(-8.881784197218E-16,1.,2.175409717568E-31));
#1012 = DIRECTION('',(1.,8.881784197218E-16,-2.449293598295E-16));
#1013 = ADVANCED_FACE('',(#1014),#1025,.F.);
#1014 = FACE_BOUND('',#1015,.T.);
#1015 = EDGE_LOOP('',(#1016,#1017,#1018,#1019));
#1016 = ORIENTED_EDGE('',*,*,#864,.F.);
#1017 = ORIENTED_EDGE('',*,*,#486,.T.);
#1018 = ORIENTED_EDGE('',*,*,#978,.F.);
#1019 = ORIENTED_EDGE('',*,*,#1020,.F.);
#1020 = EDGE_CURVE('',#865,#970,#1021,.T.);
#1021 = LINE('',#1022,#1023);
#1022 = CARTESIAN_POINT('',(-1.849999999988,-3.300000000006,
    21.555382317156));
#1023 = VECTOR('',#1024,1.);
#1024 = DIRECTION('',(2.449293598295E-16,0.,1.));
#1025 = PLANE('',#1026);
#1026 = AXIS2_PLACEMENT_3D('',#1027,#1028,#1029);
#1027 = CARTESIAN_POINT('',(-1.849999999988,-5.8,21.555382317156));
#1028 = DIRECTION('',(1.,8.881784197001E-17,-2.449293598295E-16));
#1029 = DIRECTION('',(8.881784197001E-17,-1.,-2.175409717515E-32));
#1030 = ADVANCED_FACE('',(#1031),#1049,.T.);
#1031 = FACE_BOUND('',#1032,.T.);
#1032 = EDGE_LOOP('',(#1033,#1041,#1047,#1048));
#1033 = ORIENTED_EDGE('',*,*,#1034,.T.);
#1034 = EDGE_CURVE('',#511,#1035,#1037,.T.);
#1035 = VERTEX_POINT('',#1036);
#1036 = CARTESIAN_POINT('',(-4.149999999988,-1.95,27.155382317156));
#1037 = LINE('',#1038,#1039);
#1038 = CARTESIAN_POINT('',(-4.149999999988,-0.444613259668,
    27.155382317156));
#1039 = VECTOR('',#1040,1.);
#1040 = DIRECTION('',(-1.258695894434E-31,1.,-5.139015981222E-16));
#1041 = ORIENTED_EDGE('',*,*,#1042,.T.);
#1042 = EDGE_CURVE('',#1035,#543,#1043,.T.);
#1043 = LINE('',#1044,#1045);
#1044 = CARTESIAN_POINT('',(-0.623618784519,-1.95,27.155382317156));
#1045 = VECTOR('',#1046,1.);
#1046 = DIRECTION('',(-1.,-2.400482215422E-16,2.449293598295E-16));
#1047 = ORIENTED_EDGE('',*,*,#550,.T.);
#1048 = ORIENTED_EDGE('',*,*,#510,.T.);
#1049 = PLANE('',#1050);
#1050 = AXIS2_PLACEMENT_3D('',#1051,#1052,#1053);
#1051 = CARTESIAN_POINT('',(4.752762430937,1.060773480663,
    27.155382317156));
#1052 = DIRECTION('',(2.449293598295E-16,5.139015981222E-16,1.));
#1053 = DIRECTION('',(4.440892098501E-16,1.,-5.139015981222E-16));
#1054 = ADVANCED_FACE('',(#1055),#1066,.F.);
#1055 = FACE_BOUND('',#1056,.T.);
#1056 = EDGE_LOOP('',(#1057,#1058,#1064,#1065));
#1057 = ORIENTED_EDGE('',*,*,#857,.F.);
#1058 = ORIENTED_EDGE('',*,*,#1059,.T.);
#1059 = EDGE_CURVE('',#850,#1035,#1060,.T.);
#1060 = LINE('',#1061,#1062);
#1061 = CARTESIAN_POINT('',(-4.149999999988,-1.95,21.555382317156));
#1062 = VECTOR('',#1063,1.);
#1063 = DIRECTION('',(2.449293598295E-16,0.,1.));
#1064 = ORIENTED_EDGE('',*,*,#1034,.F.);
#1065 = ORIENTED_EDGE('',*,*,#518,.F.);
#1066 = PLANE('',#1067);
#1067 = AXIS2_PLACEMENT_3D('',#1068,#1069,#1070);
#1068 = CARTESIAN_POINT('',(-4.149999999988,-1.95,21.555382317156));
#1069 = DIRECTION('',(-1.,0.,2.449293598295E-16));
#1070 = DIRECTION('',(0.,1.,0.));
#1071 = ADVANCED_FACE('',(#1072),#1078,.F.);
#1072 = FACE_BOUND('',#1073,.T.);
#1073 = EDGE_LOOP('',(#1074,#1075,#1076,#1077));
#1074 = ORIENTED_EDGE('',*,*,#849,.F.);
#1075 = ORIENTED_EDGE('',*,*,#542,.T.);
#1076 = ORIENTED_EDGE('',*,*,#1042,.F.);
#1077 = ORIENTED_EDGE('',*,*,#1059,.F.);
#1078 = PLANE('',#1079);
#1079 = AXIS2_PLACEMENT_3D('',#1080,#1081,#1082);
#1080 = CARTESIAN_POINT('',(-5.999999999976,-1.95,21.555382317156));
#1081 = DIRECTION('',(2.400482215422E-16,-1.,-5.879485723052E-32));
#1082 = DIRECTION('',(-1.,-2.400482215422E-16,2.449293598295E-16));
#1083 = ADVANCED_FACE('',(#1084),#1095,.F.);
#1084 = FACE_BOUND('',#1085,.T.);
#1085 = EDGE_LOOP('',(#1086,#1087,#1093,#1094));
#1086 = ORIENTED_EDGE('',*,*,#840,.F.);
#1087 = ORIENTED_EDGE('',*,*,#1088,.T.);
#1088 = EDGE_CURVE('',#832,#933,#1089,.T.);
#1089 = LINE('',#1090,#1091);
#1090 = CARTESIAN_POINT('',(0.499999999988,1.95,21.555382317156));
#1091 = VECTOR('',#1092,1.);
#1092 = DIRECTION('',(2.449293598295E-16,0.,1.));
#1093 = ORIENTED_EDGE('',*,*,#932,.F.);
#1094 = ORIENTED_EDGE('',*,*,#605,.F.);
#1095 = PLANE('',#1096);
#1096 = AXIS2_PLACEMENT_3D('',#1097,#1098,#1099);
#1097 = CARTESIAN_POINT('',(0.499999999988,1.95,21.555382317156));
#1098 = DIRECTION('',(0.,1.,0.));
#1099 = DIRECTION('',(1.,0.,-2.449293598295E-16));
#1100 = ADVANCED_FACE('',(#1101),#1112,.T.);
#1101 = FACE_BOUND('',#1102,.T.);
#1102 = EDGE_LOOP('',(#1103,#1104,#1105,#1106));
#1103 = ORIENTED_EDGE('',*,*,#629,.T.);
#1104 = ORIENTED_EDGE('',*,*,#671,.T.);
#1105 = ORIENTED_EDGE('',*,*,#719,.F.);
#1106 = ORIENTED_EDGE('',*,*,#1107,.F.);
#1107 = EDGE_CURVE('',#630,#720,#1108,.T.);
#1108 = LINE('',#1109,#1110);
#1109 = CARTESIAN_POINT('',(-1.8,1.4,19.555382317156));
#1110 = VECTOR('',#1111,1.);
#1111 = DIRECTION('',(1.,0.,0.));
#1112 = PLANE('',#1113);
#1113 = AXIS2_PLACEMENT_3D('',#1114,#1115,#1116);
#1114 = CARTESIAN_POINT('',(-1.8,1.4,19.555382317156));
#1115 = DIRECTION('',(0.,1.,0.));
#1116 = DIRECTION('',(1.,0.,0.));
#1117 = ADVANCED_FACE('',(#1118),#1124,.F.);
#1118 = FACE_BOUND('',#1119,.F.);
#1119 = EDGE_LOOP('',(#1120,#1121,#1122,#1123));
#1120 = ORIENTED_EDGE('',*,*,#705,.F.);
#1121 = ORIENTED_EDGE('',*,*,#727,.F.);
#1122 = ORIENTED_EDGE('',*,*,#1107,.F.);
#1123 = ORIENTED_EDGE('',*,*,#656,.F.);
#1124 = PLANE('',#1125);
#1125 = AXIS2_PLACEMENT_3D('',#1126,#1127,#1128);
#1126 = CARTESIAN_POINT('',(1.285521396935E-14,1.682630643006E-12,
    19.555382317156));
#1127 = DIRECTION('',(0.,0.,1.));
#1128 = DIRECTION('',(1.,0.,0.));
#1129 = ADVANCED_FACE('',(#1130),#1136,.T.);
#1130 = FACE_BOUND('',#1131,.F.);
#1131 = EDGE_LOOP('',(#1132,#1133,#1134,#1135));
#1132 = ORIENTED_EDGE('',*,*,#872,.F.);
#1133 = ORIENTED_EDGE('',*,*,#1003,.T.);
#1134 = ORIENTED_EDGE('',*,*,#967,.T.);
#1135 = ORIENTED_EDGE('',*,*,#1020,.F.);
#1136 = CYLINDRICAL_SURFACE('',#1137,1.35);
#1137 = AXIS2_PLACEMENT_3D('',#1138,#1139,#1140);
#1138 = CARTESIAN_POINT('',(-0.499999999988,-3.3,21.555382317156));
#1139 = DIRECTION('',(-2.449293598295E-16,-0.,-1.));
#1140 = DIRECTION('',(1.,0.,-2.449293598295E-16));
#1141 = ADVANCED_FACE('',(#1142),#1148,.T.);
#1142 = FACE_BOUND('',#1143,.F.);
#1143 = EDGE_LOOP('',(#1144,#1145,#1146,#1147));
#1144 = ORIENTED_EDGE('',*,*,#831,.F.);
#1145 = ORIENTED_EDGE('',*,*,#1088,.T.);
#1146 = ORIENTED_EDGE('',*,*,#940,.T.);
#1147 = ORIENTED_EDGE('',*,*,#915,.F.);
#1148 = CYLINDRICAL_SURFACE('',#1149,1.35);
#1149 = AXIS2_PLACEMENT_3D('',#1150,#1151,#1152);
#1150 = CARTESIAN_POINT('',(0.499999999988,3.3,21.555382317156));
#1151 = DIRECTION('',(-2.449293598295E-16,-0.,-1.));
#1152 = DIRECTION('',(1.,0.,-2.449293598295E-16));
#1153 = ( GEOMETRIC_REPRESENTATION_CONTEXT(3) 
GLOBAL_UNCERTAINTY_ASSIGNED_CONTEXT((#1157)) 
GLOBAL_UNIT_ASSIGNED_CONTEXT((#1154,#1155,#1156)) REPRESENTATION_CONTEXT
('Context #1','3D Context with UNIT and UNCERTAINTY') );
#1154 = ( LENGTH_UNIT() NAMED_UNIT(*) SI_UNIT(.MILLI.,.METRE.) );
#1155 = ( NAMED_UNIT(*) PLANE_ANGLE_UNIT() SI_UNIT($,.RADIAN.) );
#1156 = ( NAMED_UNIT(*) SI_UNIT($,.STERADIAN.) SOLID_ANGLE_UNIT() );
#1157 = UNCERTAINTY_MEASURE_WITH_UNIT(LENGTH_MEASURE(2.E-06),#1154,
  'distance_accuracy_value','confusion accuracy');
#1158 = PRODUCT_RELATED_PRODUCT_CATEGORY('part',$,(#7));
#1159 = MECHANICAL_DESIGN_GEOMETRIC_PRESENTATION_REPRESENTATION('',(
    #1160),#1153);
#1160 = STYLED_ITEM('color',(#1161),#15);
#1161 = PRESENTATION_STYLE_ASSIGNMENT((#1162,#1168));
#1162 = SURFACE_STYLE_USAGE(.BOTH.,#1163);
#1163 = SURFACE_SIDE_STYLE('',(#1164));
#1164 = SURFACE_STYLE_FILL_AREA(#1165);
#1165 = FILL_AREA_STYLE('',(#1166));
#1166 = FILL_AREA_STYLE_COLOUR('',#1167);
#1167 = COLOUR_RGB('',0.447058818107,0.474509808674,0.501960817233);
#1168 = CURVE_STYLE('',#1169,POSITIVE_LENGTH_MEASURE(0.1),#1170);
#1169 = DRAUGHTING_PRE_DEFINED_CURVE_FONT('continuous');
#1170 = COLOUR_RGB('',9.803921802644E-02,9.803921802644E-02,
  9.803921802644E-02);
ENDSEC;
END-ISO-10303-21;
