ISO-10303-21;
HEADER;
FILE_DESCRIPTION(('FreeCAD Model'),'2;1');
FILE_NAME('Open CASCADE Shape Model','2026-01-23T12:06:01',(''),(''),
  'Open CASCADE STEP processor 7.8','FreeCAD','Unknown');
FILE_SCHEMA(('AUTOMOTIVE_DESIGN { 1 0 10303 214 1 1 1 1 }'));
ENDSEC;
DATA;
#1 = APPLICATION_PROTOCOL_DEFINITION('international standard',
  'automotive_design',2000,#2);
#2 = APPLICATION_CONTEXT(
  'core data for automotive mechanical design processes');
#3 = SHAPE_DEFINITION_REPRESENTATION(#4,#10);
#4 = PRODUCT_DEFINITION_SHAPE('','',#5);
#5 = PRODUCT_DEFINITION('design','',#6,#9);
#6 = PRODUCT_DEFINITION_FORMATION('','',#7);
#7 = PRODUCT('spring','spring','',(#8));
#8 = PRODUCT_CONTEXT('',#2,'mechanical');
#9 = PRODUCT_DEFINITION_CONTEXT('part definition',#2,'design');
#10 = ADVANCED_BREP_SHAPE_REPRESENTATION('',(#11,#15),#1120);
#11 = AXIS2_PLACEMENT_3D('',#12,#13,#14);
#12 = CARTESIAN_POINT('',(0.,0.,0.));
#13 = DIRECTION('',(0.,0.,1.));
#14 = DIRECTION('',(1.,0.,-0.));
#15 = MANIFOLD_SOLID_BREP('',#16);
#16 = CLOSED_SHELL('',(#17,#307,#338,#363,#388,#412,#436,#461,#486,#503,
    #547,#608,#632,#684,#739,#764,#810,#871,#895,#947,#1002,#1036,#1082)
  );
#17 = ADVANCED_FACE('',(#18,#88,#117,#205),#302,.T.);
#18 = FACE_BOUND('',#19,.T.);
#19 = EDGE_LOOP('',(#20,#30,#39,#47,#56,#64,#73,#81));
#20 = ORIENTED_EDGE('',*,*,#21,.T.);
#21 = EDGE_CURVE('',#22,#24,#26,.T.);
#22 = VERTEX_POINT('',#23);
#23 = CARTESIAN_POINT('',(1.,-3.,2.));
#24 = VERTEX_POINT('',#25);
#25 = CARTESIAN_POINT('',(-1.,-3.,2.));
#26 = LINE('',#27,#28);
#27 = CARTESIAN_POINT('',(-1.5,-3.,2.));
#28 = VECTOR('',#29,1.);
#29 = DIRECTION('',(-1.,0.,0.));
#30 = ORIENTED_EDGE('',*,*,#31,.T.);
#31 = EDGE_CURVE('',#24,#32,#34,.T.);
#32 = VERTEX_POINT('',#33);
#33 = CARTESIAN_POINT('',(-3.,-1.,2.));
#34 = CIRCLE('',#35,2.);
#35 = AXIS2_PLACEMENT_3D('',#36,#37,#38);
#36 = CARTESIAN_POINT('',(-1.,-1.,2.));
#37 = DIRECTION('',(-0.,-0.,-1.));
#38 = DIRECTION('',(0.,-1.,0.));
#39 = ORIENTED_EDGE('',*,*,#40,.T.);
#40 = EDGE_CURVE('',#32,#41,#43,.T.);
#41 = VERTEX_POINT('',#42);
#42 = CARTESIAN_POINT('',(-3.,1.,2.));
#43 = LINE('',#44,#45);
#44 = CARTESIAN_POINT('',(-3.,1.5,2.));
#45 = VECTOR('',#46,1.);
#46 = DIRECTION('',(0.,1.,0.));
#47 = ORIENTED_EDGE('',*,*,#48,.T.);
#48 = EDGE_CURVE('',#41,#49,#51,.T.);
#49 = VERTEX_POINT('',#50);
#50 = CARTESIAN_POINT('',(-1.,3.,2.));
#51 = CIRCLE('',#52,2.);
#52 = AXIS2_PLACEMENT_3D('',#53,#54,#55);
#53 = CARTESIAN_POINT('',(-1.,1.,2.));
#54 = DIRECTION('',(-0.,-0.,-1.));
#55 = DIRECTION('',(0.,-1.,0.));
#56 = ORIENTED_EDGE('',*,*,#57,.T.);
#57 = EDGE_CURVE('',#49,#58,#60,.T.);
#58 = VERTEX_POINT('',#59);
#59 = CARTESIAN_POINT('',(1.,3.,2.));
#60 = LINE('',#61,#62);
#61 = CARTESIAN_POINT('',(1.5,3.,2.));
#62 = VECTOR('',#63,1.);
#63 = DIRECTION('',(1.,0.,0.));
#64 = ORIENTED_EDGE('',*,*,#65,.F.);
#65 = EDGE_CURVE('',#66,#58,#68,.T.);
#66 = VERTEX_POINT('',#67);
#67 = CARTESIAN_POINT('',(3.,1.,2.));
#68 = CIRCLE('',#69,2.);
#69 = AXIS2_PLACEMENT_3D('',#70,#71,#72);
#70 = CARTESIAN_POINT('',(1.,1.,2.));
#71 = DIRECTION('',(-0.,0.,1.));
#72 = DIRECTION('',(0.,-1.,0.));
#73 = ORIENTED_EDGE('',*,*,#74,.T.);
#74 = EDGE_CURVE('',#66,#75,#77,.T.);
#75 = VERTEX_POINT('',#76);
#76 = CARTESIAN_POINT('',(3.,-1.,2.));
#77 = LINE('',#78,#79);
#78 = CARTESIAN_POINT('',(3.,-1.5,2.));
#79 = VECTOR('',#80,1.);
#80 = DIRECTION('',(0.,-1.,0.));
#81 = ORIENTED_EDGE('',*,*,#82,.F.);
#82 = EDGE_CURVE('',#22,#75,#83,.T.);
#83 = CIRCLE('',#84,2.);
#84 = AXIS2_PLACEMENT_3D('',#85,#86,#87);
#85 = CARTESIAN_POINT('',(1.,-1.,2.));
#86 = DIRECTION('',(-0.,0.,1.));
#87 = DIRECTION('',(0.,-1.,0.));
#88 = FACE_BOUND('',#89,.T.);
#89 = EDGE_LOOP('',(#90,#101,#110));
#90 = ORIENTED_EDGE('',*,*,#91,.F.);
#91 = EDGE_CURVE('',#92,#94,#96,.T.);
#92 = VERTEX_POINT('',#93);
#93 = CARTESIAN_POINT('',(11.,0.,2.));
#94 = VERTEX_POINT('',#95);
#95 = CARTESIAN_POINT('',(11.000000020843,-4.597266518994E-03,2.));
#96 = CIRCLE('',#97,11.);
#97 = AXIS2_PLACEMENT_3D('',#98,#99,#100);
#98 = CARTESIAN_POINT('',(0.,0.,2.));
#99 = DIRECTION('',(0.,0.,-1.));
#100 = DIRECTION('',(1.,0.,0.));
#101 = ORIENTED_EDGE('',*,*,#102,.F.);
#102 = EDGE_CURVE('',#103,#92,#105,.T.);
#103 = VERTEX_POINT('',#104);
#104 = CARTESIAN_POINT('',(-11.00000002084,4.597266519304E-03,2.));
#105 = CIRCLE('',#106,11.);
#106 = AXIS2_PLACEMENT_3D('',#107,#108,#109);
#107 = CARTESIAN_POINT('',(0.,0.,2.));
#108 = DIRECTION('',(0.,0.,-1.));
#109 = DIRECTION('',(1.,0.,0.));
#110 = ORIENTED_EDGE('',*,*,#111,.F.);
#111 = EDGE_CURVE('',#94,#103,#112,.T.);
#112 = CIRCLE('',#113,11.);
#113 = AXIS2_PLACEMENT_3D('',#114,#115,#116);
#114 = CARTESIAN_POINT('',(0.,0.,2.));
#115 = DIRECTION('',(0.,0.,-1.));
#116 = DIRECTION('',(1.,0.,0.));
#117 = FACE_BOUND('',#118,.T.);
#118 = EDGE_LOOP('',(#119,#138,#147,#164,#181,#190));
#119 = ORIENTED_EDGE('',*,*,#120,.T.);
#120 = EDGE_CURVE('',#121,#123,#125,.T.);
#121 = VERTEX_POINT('',#122);
#122 = CARTESIAN_POINT('',(8.250000005267,-2.310901535828E-03,2.));
#123 = VERTEX_POINT('',#124);
#124 = CARTESIAN_POINT('',(-1.46272844254,-10.14509473236,2.));
#125 = B_SPLINE_CURVE_WITH_KNOTS('',11,(#126,#127,#128,#129,#130,#131,
    #132,#133,#134,#135,#136,#137),.UNSPECIFIED.,.F.,.F.,(12,12),(0.,
    6.303048278758),.PIECEWISE_BEZIER_KNOTS.);
#126 = CARTESIAN_POINT('',(8.250000005266,-2.310901535767E-03,2.));
#127 = CARTESIAN_POINT('',(8.501319990315,4.709869146072,2.));
#128 = CARTESIAN_POINT('',(5.792692544906,9.736523013085,2.));
#129 = CARTESIAN_POINT('',(-0.211798807244,13.016017215444,2.));
#130 = CARTESIAN_POINT('',(-8.1891598957,12.110423394433,2.));
#131 = CARTESIAN_POINT('',(-14.92328462975,5.809089373747,2.));
#132 = CARTESIAN_POINT('',(-16.05219557081,-4.367992511447,2.));
#133 = CARTESIAN_POINT('',(-10.19126491159,-12.56782678301,2.));
#134 = CARTESIAN_POINT('',(-1.27601578054,-15.14872120892,2.));
#135 = CARTESIAN_POINT('',(6.547980164132,-12.25501064025,2.));
#136 = CARTESIAN_POINT('',(10.747374066718,-6.28757586101,2.));
#137 = CARTESIAN_POINT('',(11.000000020843,-4.597266518994E-03,2.));
#138 = ORIENTED_EDGE('',*,*,#139,.T.);
#139 = EDGE_CURVE('',#123,#140,#142,.T.);
#140 = VERTEX_POINT('',#141);
#141 = CARTESIAN_POINT('',(-10.25000002087,4.604067209422E-03,2.));
#142 = CIRCLE('',#143,10.250001054895);
#143 = AXIS2_PLACEMENT_3D('',#144,#145,#146);
#144 = CARTESIAN_POINT('',(0.,0.,2.));
#145 = DIRECTION('',(0.,0.,-1.));
#146 = DIRECTION('',(1.,0.,0.));
#147 = ORIENTED_EDGE('',*,*,#148,.F.);
#148 = EDGE_CURVE('',#149,#140,#151,.T.);
#149 = VERTEX_POINT('',#150);
#150 = CARTESIAN_POINT('',(-7.500000005274,2.3143200293E-03,2.));
#151 = B_SPLINE_CURVE_WITH_KNOTS('',11,(#152,#153,#154,#155,#156,#157,
    #158,#159,#160,#161,#162,#163),.UNSPECIFIED.,.F.,.F.,(12,12),(0.,
    6.303048278758),.PIECEWISE_BEZIER_KNOTS.);
#152 = CARTESIAN_POINT('',(-7.500000005274,2.314320029236E-03,2.));
#153 = CARTESIAN_POINT('',(-7.75132194296,-4.281466420289,2.));
#154 = CARTESIAN_POINT('',(-5.311809972493,-8.8797319151,2.));
#155 = CARTESIAN_POINT('',(0.153894935629,-11.91865537716,2.));
#156 = CARTESIAN_POINT('',(7.473048206347,-11.14887215762,2.));
#157 = CARTESIAN_POINT('',(13.716397835669,-5.41255086561,2.));
#158 = CARTESIAN_POINT('',(14.845314188332,3.971437540915,2.));
#159 = CARTESIAN_POINT('',(9.475166338535,11.606265783211,2.));
#160 = CARTESIAN_POINT('',(1.218126872112,14.051358585243,2.));
#161 = CARTESIAN_POINT('',(-6.067085913392,11.398226100571,2.));
#162 = CARTESIAN_POINT('',(-9.997370182204,5.859183357696,2.));
#163 = CARTESIAN_POINT('',(-10.25000002087,4.604067209422E-03,2.));
#164 = ORIENTED_EDGE('',*,*,#165,.F.);
#165 = EDGE_CURVE('',#166,#149,#168,.T.);
#166 = VERTEX_POINT('',#167);
#167 = CARTESIAN_POINT('',(0.782161420834,-5.444099880766,2.));
#168 = B_SPLINE_CURVE_WITH_KNOTS('',11,(#169,#170,#171,#172,#173,#174,
    #175,#176,#177,#178,#179,#180),.UNSPECIFIED.,.F.,.F.,(12,12),(0.,
    6.303048278758),.PIECEWISE_BEZIER_KNOTS.);
#169 = CARTESIAN_POINT('',(-4.75,2.777725965908E-15,2.));
#170 = CARTESIAN_POINT('',(-5.000000000243,-2.71298215815,2.));
#171 = CARTESIAN_POINT('',(-3.54591710978,-5.739654254447,2.));
#172 = CARTESIAN_POINT('',(-5.501894836138E-02,-7.894813786607,2.));
#173 = CARTESIAN_POINT('',(4.850281708137,-7.620964002751,2.));
#174 = CARTESIAN_POINT('',(9.292370103505,-3.954839375077,2.));
#175 = CARTESIAN_POINT('',(10.41885224359,2.521134627464,2.));
#176 = CARTESIAN_POINT('',(6.846497241407,8.082753548296,2.));
#177 = CARTESIAN_POINT('',(1.002476669068,10.027872455748,2.));
#178 = CARTESIAN_POINT('',(-4.306452617264,8.255196442185,2.));
#179 = CARTESIAN_POINT('',(-7.248678068024,4.286095059813,2.));
#180 = CARTESIAN_POINT('',(-7.500000005275,2.314320029027E-03,2.));
#181 = ORIENTED_EDGE('',*,*,#182,.T.);
#182 = EDGE_CURVE('',#166,#183,#185,.T.);
#183 = VERTEX_POINT('',#184);
#184 = CARTESIAN_POINT('',(5.5,-2.609240948304E-15,2.));
#185 = CIRCLE('',#186,5.5);
#186 = AXIS2_PLACEMENT_3D('',#187,#188,#189);
#187 = CARTESIAN_POINT('',(0.,0.,2.));
#188 = DIRECTION('',(0.,0.,1.));
#189 = DIRECTION('',(1.,0.,0.));
#190 = ORIENTED_EDGE('',*,*,#191,.T.);
#191 = EDGE_CURVE('',#183,#121,#192,.T.);
#192 = B_SPLINE_CURVE_WITH_KNOTS('',11,(#193,#194,#195,#196,#197,#198,
    #199,#200,#201,#202,#203,#204),.UNSPECIFIED.,.F.,.F.,(12,12),(0.,
    6.303048278758),.PIECEWISE_BEZIER_KNOTS.);
#193 = CARTESIAN_POINT('',(5.5,-2.609240948304E-15,2.));
#194 = CARTESIAN_POINT('',(5.750000000246,3.141381468771,2.));
#195 = CARTESIAN_POINT('',(4.026803583257,6.596443167204,2.));
#196 = CARTESIAN_POINT('',(-2.879934036176E-03,8.992175894416,2.));
#197 = CARTESIAN_POINT('',(-5.56638903512,8.582518499304,2.));
#198 = CARTESIAN_POINT('',(-10.49925510915,4.351383362344,2.));
#199 = CARTESIAN_POINT('',(-11.62573543344,-2.917684133866,2.));
#200 = CARTESIAN_POINT('',(-7.562600170721,-9.044311314629,2.));
#201 = CARTESIAN_POINT('',(-1.060370538574,-11.12523482389,2.));
#202 = CARTESIAN_POINT('',(4.787343000146,-9.111983157057,2.));
#203 = CARTESIAN_POINT('',(7.998680020654,-4.714490948609,2.));
#204 = CARTESIAN_POINT('',(8.250000005267,-2.310901536049E-03,2.));
#205 = FACE_BOUND('',#206,.T.);
#206 = EDGE_LOOP('',(#207,#226,#235,#252,#269,#278,#287));
#207 = ORIENTED_EDGE('',*,*,#208,.F.);
#208 = EDGE_CURVE('',#209,#211,#213,.T.);
#209 = VERTEX_POINT('',#210);
#210 = CARTESIAN_POINT('',(-0.782161420773,5.444099880775,2.));
#211 = VERTEX_POINT('',#212);
#212 = CARTESIAN_POINT('',(7.500000005274,-2.314320029224E-03,2.));
#213 = B_SPLINE_CURVE_WITH_KNOTS('',11,(#214,#215,#216,#217,#218,#219,
    #220,#221,#222,#223,#224,#225),.UNSPECIFIED.,.F.,.F.,(12,12),(0.,
    6.303048278758),.PIECEWISE_BEZIER_KNOTS.);
#214 = CARTESIAN_POINT('',(4.75,1.727350901204E-15,2.));
#215 = CARTESIAN_POINT('',(5.000000000246,2.71298215815,2.));
#216 = CARTESIAN_POINT('',(3.545917109784,5.739654254446,2.));
#217 = CARTESIAN_POINT('',(5.501894837378E-02,7.894813786623,2.));
#218 = CARTESIAN_POINT('',(-4.850281708152,7.620964002729,2.));
#219 = CARTESIAN_POINT('',(-9.292370103459,3.95483937514,2.));
#220 = CARTESIAN_POINT('',(-10.41885224364,-2.521134627505,2.));
#221 = CARTESIAN_POINT('',(-6.846497241379,-8.082753548253,2.));
#222 = CARTESIAN_POINT('',(-1.002476669089,-10.02787245575,2.));
#223 = CARTESIAN_POINT('',(4.306452617262,-8.255196442179,2.));
#224 = CARTESIAN_POINT('',(7.248678068021,-4.286095059813,2.));
#225 = CARTESIAN_POINT('',(7.500000005275,-2.314320029456E-03,2.));
#226 = ORIENTED_EDGE('',*,*,#227,.T.);
#227 = EDGE_CURVE('',#209,#228,#230,.T.);
#228 = VERTEX_POINT('',#229);
#229 = CARTESIAN_POINT('',(-5.5,-2.67754568517E-15,2.));
#230 = CIRCLE('',#231,5.5);
#231 = AXIS2_PLACEMENT_3D('',#232,#233,#234);
#232 = CARTESIAN_POINT('',(0.,0.,2.));
#233 = DIRECTION('',(0.,0.,1.));
#234 = DIRECTION('',(1.,0.,0.));
#235 = ORIENTED_EDGE('',*,*,#236,.T.);
#236 = EDGE_CURVE('',#228,#237,#239,.T.);
#237 = VERTEX_POINT('',#238);
#238 = CARTESIAN_POINT('',(-8.250000005267,2.310901535904E-03,2.));
#239 = B_SPLINE_CURVE_WITH_KNOTS('',11,(#240,#241,#242,#243,#244,#245,
    #246,#247,#248,#249,#250,#251),.UNSPECIFIED.,.F.,.F.,(12,12),(0.,
    6.303048278758),.PIECEWISE_BEZIER_KNOTS.);
#240 = CARTESIAN_POINT('',(-5.5,-2.67754568517E-15,2.));
#241 = CARTESIAN_POINT('',(-5.750000000243,-3.141381468771,2.));
#242 = CARTESIAN_POINT('',(-4.026803583253,-6.596443167206,2.));
#243 = CARTESIAN_POINT('',(2.879934046718E-03,-8.992175894395,2.));
#244 = CARTESIAN_POINT('',(5.566389035108,-8.582518499336,2.));
#245 = CARTESIAN_POINT('',(10.499255109196,-4.351383362268,2.));
#246 = CARTESIAN_POINT('',(11.625735433393,2.917684133813,2.));
#247 = CARTESIAN_POINT('',(7.562600170745,9.044311314681,2.));
#248 = CARTESIAN_POINT('',(1.060370538556,11.12523482388,2.));
#249 = CARTESIAN_POINT('',(-4.787343000149,9.111983157064,2.));
#250 = CARTESIAN_POINT('',(-7.998680020656,4.714490948609,2.));
#251 = CARTESIAN_POINT('',(-8.250000005267,2.310901535639E-03,2.));
#252 = ORIENTED_EDGE('',*,*,#253,.T.);
#253 = EDGE_CURVE('',#237,#254,#256,.T.);
#254 = VERTEX_POINT('',#255);
#255 = CARTESIAN_POINT('',(1.462728442639,10.145094732354,2.));
#256 = B_SPLINE_CURVE_WITH_KNOTS('',11,(#257,#258,#259,#260,#261,#262,
    #263,#264,#265,#266,#267,#268),.UNSPECIFIED.,.F.,.F.,(12,12),(0.,
    6.303048278758),.PIECEWISE_BEZIER_KNOTS.);
#257 = CARTESIAN_POINT('',(-8.250000005266,2.310901535836E-03,2.));
#258 = CARTESIAN_POINT('',(-8.501319990312,-4.709869146072,2.));
#259 = CARTESIAN_POINT('',(-5.792692544899,-9.736523013081,2.));
#260 = CARTESIAN_POINT('',(0.211798807239,-13.01601721544,2.));
#261 = CARTESIAN_POINT('',(8.189159895744,-12.1104233944,2.));
#262 = CARTESIAN_POINT('',(14.923284629691,-5.809089373764,2.));
#263 = CARTESIAN_POINT('',(16.052195570881,4.367992511473,2.));
#264 = CARTESIAN_POINT('',(10.191264911541,12.567826783026,2.));
#265 = CARTESIAN_POINT('',(1.276015780551,15.148721208928,2.));
#266 = CARTESIAN_POINT('',(-6.547980164141,12.255010640262,2.));
#267 = CARTESIAN_POINT('',(-10.74737406672,6.28757586101,2.));
#268 = CARTESIAN_POINT('',(-11.00000002084,4.597266519304E-03,2.));
#269 = ORIENTED_EDGE('',*,*,#270,.T.);
#270 = EDGE_CURVE('',#254,#271,#273,.T.);
#271 = VERTEX_POINT('',#272);
#272 = CARTESIAN_POINT('',(10.250001054895,0.,2.));
#273 = CIRCLE('',#274,10.250001054895);
#274 = AXIS2_PLACEMENT_3D('',#275,#276,#277);
#275 = CARTESIAN_POINT('',(0.,0.,2.));
#276 = DIRECTION('',(0.,0.,-1.));
#277 = DIRECTION('',(1.,0.,0.));
#278 = ORIENTED_EDGE('',*,*,#279,.T.);
#279 = EDGE_CURVE('',#271,#280,#282,.T.);
#280 = VERTEX_POINT('',#281);
#281 = CARTESIAN_POINT('',(10.250000020874,-4.604067209108E-03,2.));
#282 = CIRCLE('',#283,10.250001054895);
#283 = AXIS2_PLACEMENT_3D('',#284,#285,#286);
#284 = CARTESIAN_POINT('',(0.,0.,2.));
#285 = DIRECTION('',(0.,0.,-1.));
#286 = DIRECTION('',(1.,0.,0.));
#287 = ORIENTED_EDGE('',*,*,#288,.F.);
#288 = EDGE_CURVE('',#211,#280,#289,.T.);
#289 = B_SPLINE_CURVE_WITH_KNOTS('',11,(#290,#291,#292,#293,#294,#295,
    #296,#297,#298,#299,#300,#301),.UNSPECIFIED.,.F.,.F.,(12,12),(0.,
    6.303048278758),.PIECEWISE_BEZIER_KNOTS.);
#290 = CARTESIAN_POINT('',(7.500000005274,-2.314320029167E-03,2.));
#291 = CARTESIAN_POINT('',(7.751321942963,4.281466420289,2.));
#292 = CARTESIAN_POINT('',(5.311809972499,8.879731915104,2.));
#293 = CARTESIAN_POINT('',(-0.153894935632,11.918655377154,2.));
#294 = CARTESIAN_POINT('',(-7.473048206308,11.148872157655,2.));
#295 = CARTESIAN_POINT('',(-13.71639783572,5.412550865591,2.));
#296 = CARTESIAN_POINT('',(-14.84531418827,-3.971437540889,2.));
#297 = CARTESIAN_POINT('',(-9.475166338581,-11.6062657832,2.));
#298 = CARTESIAN_POINT('',(-1.218126872103,-14.05135858524,2.));
#299 = CARTESIAN_POINT('',(6.067085913383,-11.39822610056,2.));
#300 = CARTESIAN_POINT('',(9.997370182201,-5.859183357696,2.));
#301 = CARTESIAN_POINT('',(10.250000020874,-4.604067209108E-03,2.));
#302 = PLANE('',#303);
#303 = AXIS2_PLACEMENT_3D('',#304,#305,#306);
#304 = CARTESIAN_POINT('',(-3.58833704323E-13,3.66922357047E-12,2.));
#305 = DIRECTION('',(0.,0.,1.));
#306 = DIRECTION('',(1.,0.,0.));
#307 = ADVANCED_FACE('',(#308),#333,.T.);
#308 = FACE_BOUND('',#309,.T.);
#309 = EDGE_LOOP('',(#310,#320,#326,#327));
#310 = ORIENTED_EDGE('',*,*,#311,.F.);
#311 = EDGE_CURVE('',#312,#314,#316,.T.);
#312 = VERTEX_POINT('',#313);
#313 = CARTESIAN_POINT('',(-1.,-3.,0.));
#314 = VERTEX_POINT('',#315);
#315 = CARTESIAN_POINT('',(1.,-3.,0.));
#316 = LINE('',#317,#318);
#317 = CARTESIAN_POINT('',(-3.,-3.,0.));
#318 = VECTOR('',#319,1.);
#319 = DIRECTION('',(1.,0.,0.));
#320 = ORIENTED_EDGE('',*,*,#321,.T.);
#321 = EDGE_CURVE('',#312,#24,#322,.T.);
#322 = LINE('',#323,#324);
#323 = CARTESIAN_POINT('',(-1.,-3.,0.));
#324 = VECTOR('',#325,1.);
#325 = DIRECTION('',(0.,0.,1.));
#326 = ORIENTED_EDGE('',*,*,#21,.F.);
#327 = ORIENTED_EDGE('',*,*,#328,.F.);
#328 = EDGE_CURVE('',#314,#22,#329,.T.);
#329 = LINE('',#330,#331);
#330 = CARTESIAN_POINT('',(1.,-3.,0.));
#331 = VECTOR('',#332,1.);
#332 = DIRECTION('',(0.,0.,1.));
#333 = PLANE('',#334);
#334 = AXIS2_PLACEMENT_3D('',#335,#336,#337);
#335 = CARTESIAN_POINT('',(-3.,-3.,0.));
#336 = DIRECTION('',(0.,1.,0.));
#337 = DIRECTION('',(1.,0.,0.));
#338 = ADVANCED_FACE('',(#339),#358,.F.);
#339 = FACE_BOUND('',#340,.F.);
#340 = EDGE_LOOP('',(#341,#350,#356,#357));
#341 = ORIENTED_EDGE('',*,*,#342,.T.);
#342 = EDGE_CURVE('',#314,#343,#345,.T.);
#343 = VERTEX_POINT('',#344);
#344 = CARTESIAN_POINT('',(3.,-1.,0.));
#345 = CIRCLE('',#346,2.);
#346 = AXIS2_PLACEMENT_3D('',#347,#348,#349);
#347 = CARTESIAN_POINT('',(1.,-1.,0.));
#348 = DIRECTION('',(-0.,0.,1.));
#349 = DIRECTION('',(0.,-1.,0.));
#350 = ORIENTED_EDGE('',*,*,#351,.T.);
#351 = EDGE_CURVE('',#343,#75,#352,.T.);
#352 = LINE('',#353,#354);
#353 = CARTESIAN_POINT('',(3.,-1.,0.));
#354 = VECTOR('',#355,1.);
#355 = DIRECTION('',(0.,0.,1.));
#356 = ORIENTED_EDGE('',*,*,#82,.F.);
#357 = ORIENTED_EDGE('',*,*,#328,.F.);
#358 = CYLINDRICAL_SURFACE('',#359,2.);
#359 = AXIS2_PLACEMENT_3D('',#360,#361,#362);
#360 = CARTESIAN_POINT('',(1.,-1.,0.));
#361 = DIRECTION('',(0.,0.,1.));
#362 = DIRECTION('',(0.,-1.,0.));
#363 = ADVANCED_FACE('',(#364),#383,.F.);
#364 = FACE_BOUND('',#365,.T.);
#365 = EDGE_LOOP('',(#366,#375,#381,#382));
#366 = ORIENTED_EDGE('',*,*,#367,.T.);
#367 = EDGE_CURVE('',#312,#368,#370,.T.);
#368 = VERTEX_POINT('',#369);
#369 = CARTESIAN_POINT('',(-3.,-1.,0.));
#370 = CIRCLE('',#371,2.);
#371 = AXIS2_PLACEMENT_3D('',#372,#373,#374);
#372 = CARTESIAN_POINT('',(-1.,-1.,0.));
#373 = DIRECTION('',(-0.,-0.,-1.));
#374 = DIRECTION('',(0.,-1.,0.));
#375 = ORIENTED_EDGE('',*,*,#376,.T.);
#376 = EDGE_CURVE('',#368,#32,#377,.T.);
#377 = LINE('',#378,#379);
#378 = CARTESIAN_POINT('',(-3.,-1.,0.));
#379 = VECTOR('',#380,1.);
#380 = DIRECTION('',(0.,0.,1.));
#381 = ORIENTED_EDGE('',*,*,#31,.F.);
#382 = ORIENTED_EDGE('',*,*,#321,.F.);
#383 = CYLINDRICAL_SURFACE('',#384,2.);
#384 = AXIS2_PLACEMENT_3D('',#385,#386,#387);
#385 = CARTESIAN_POINT('',(-1.,-1.,0.));
#386 = DIRECTION('',(0.,0.,1.));
#387 = DIRECTION('',(0.,-1.,0.));
#388 = ADVANCED_FACE('',(#389),#407,.T.);
#389 = FACE_BOUND('',#390,.T.);
#390 = EDGE_LOOP('',(#391,#399,#400,#401));
#391 = ORIENTED_EDGE('',*,*,#392,.F.);
#392 = EDGE_CURVE('',#343,#393,#395,.T.);
#393 = VERTEX_POINT('',#394);
#394 = CARTESIAN_POINT('',(3.,1.,0.));
#395 = LINE('',#396,#397);
#396 = CARTESIAN_POINT('',(3.,-3.,0.));
#397 = VECTOR('',#398,1.);
#398 = DIRECTION('',(0.,1.,0.));
#399 = ORIENTED_EDGE('',*,*,#351,.T.);
#400 = ORIENTED_EDGE('',*,*,#74,.F.);
#401 = ORIENTED_EDGE('',*,*,#402,.F.);
#402 = EDGE_CURVE('',#393,#66,#403,.T.);
#403 = LINE('',#404,#405);
#404 = CARTESIAN_POINT('',(3.,1.,0.));
#405 = VECTOR('',#406,1.);
#406 = DIRECTION('',(0.,0.,1.));
#407 = PLANE('',#408);
#408 = AXIS2_PLACEMENT_3D('',#409,#410,#411);
#409 = CARTESIAN_POINT('',(3.,-3.,0.));
#410 = DIRECTION('',(-1.,0.,0.));
#411 = DIRECTION('',(0.,1.,0.));
#412 = ADVANCED_FACE('',(#413),#431,.T.);
#413 = FACE_BOUND('',#414,.T.);
#414 = EDGE_LOOP('',(#415,#423,#429,#430));
#415 = ORIENTED_EDGE('',*,*,#416,.F.);
#416 = EDGE_CURVE('',#417,#368,#419,.T.);
#417 = VERTEX_POINT('',#418);
#418 = CARTESIAN_POINT('',(-3.,1.,0.));
#419 = LINE('',#420,#421);
#420 = CARTESIAN_POINT('',(-3.,3.,0.));
#421 = VECTOR('',#422,1.);
#422 = DIRECTION('',(0.,-1.,0.));
#423 = ORIENTED_EDGE('',*,*,#424,.T.);
#424 = EDGE_CURVE('',#417,#41,#425,.T.);
#425 = LINE('',#426,#427);
#426 = CARTESIAN_POINT('',(-3.,1.,0.));
#427 = VECTOR('',#428,1.);
#428 = DIRECTION('',(0.,0.,1.));
#429 = ORIENTED_EDGE('',*,*,#40,.F.);
#430 = ORIENTED_EDGE('',*,*,#376,.F.);
#431 = PLANE('',#432);
#432 = AXIS2_PLACEMENT_3D('',#433,#434,#435);
#433 = CARTESIAN_POINT('',(-3.,3.,0.));
#434 = DIRECTION('',(1.,0.,0.));
#435 = DIRECTION('',(0.,-1.,0.));
#436 = ADVANCED_FACE('',(#437),#456,.F.);
#437 = FACE_BOUND('',#438,.F.);
#438 = EDGE_LOOP('',(#439,#448,#454,#455));
#439 = ORIENTED_EDGE('',*,*,#440,.T.);
#440 = EDGE_CURVE('',#393,#441,#443,.T.);
#441 = VERTEX_POINT('',#442);
#442 = CARTESIAN_POINT('',(1.,3.,0.));
#443 = CIRCLE('',#444,2.);
#444 = AXIS2_PLACEMENT_3D('',#445,#446,#447);
#445 = CARTESIAN_POINT('',(1.,1.,0.));
#446 = DIRECTION('',(-0.,0.,1.));
#447 = DIRECTION('',(0.,-1.,0.));
#448 = ORIENTED_EDGE('',*,*,#449,.T.);
#449 = EDGE_CURVE('',#441,#58,#450,.T.);
#450 = LINE('',#451,#452);
#451 = CARTESIAN_POINT('',(1.,3.,0.));
#452 = VECTOR('',#453,1.);
#453 = DIRECTION('',(0.,0.,1.));
#454 = ORIENTED_EDGE('',*,*,#65,.F.);
#455 = ORIENTED_EDGE('',*,*,#402,.F.);
#456 = CYLINDRICAL_SURFACE('',#457,2.);
#457 = AXIS2_PLACEMENT_3D('',#458,#459,#460);
#458 = CARTESIAN_POINT('',(1.,1.,0.));
#459 = DIRECTION('',(0.,0.,1.));
#460 = DIRECTION('',(1.,0.,0.));
#461 = ADVANCED_FACE('',(#462),#481,.F.);
#462 = FACE_BOUND('',#463,.T.);
#463 = EDGE_LOOP('',(#464,#473,#479,#480));
#464 = ORIENTED_EDGE('',*,*,#465,.T.);
#465 = EDGE_CURVE('',#417,#466,#468,.T.);
#466 = VERTEX_POINT('',#467);
#467 = CARTESIAN_POINT('',(-1.,3.,0.));
#468 = CIRCLE('',#469,2.);
#469 = AXIS2_PLACEMENT_3D('',#470,#471,#472);
#470 = CARTESIAN_POINT('',(-1.,1.,0.));
#471 = DIRECTION('',(-0.,-0.,-1.));
#472 = DIRECTION('',(0.,-1.,0.));
#473 = ORIENTED_EDGE('',*,*,#474,.T.);
#474 = EDGE_CURVE('',#466,#49,#475,.T.);
#475 = LINE('',#476,#477);
#476 = CARTESIAN_POINT('',(-1.,3.,0.));
#477 = VECTOR('',#478,1.);
#478 = DIRECTION('',(0.,0.,1.));
#479 = ORIENTED_EDGE('',*,*,#48,.F.);
#480 = ORIENTED_EDGE('',*,*,#424,.F.);
#481 = CYLINDRICAL_SURFACE('',#482,2.);
#482 = AXIS2_PLACEMENT_3D('',#483,#484,#485);
#483 = CARTESIAN_POINT('',(-1.,1.,0.));
#484 = DIRECTION('',(0.,0.,1.));
#485 = DIRECTION('',(-1.,0.,0.));
#486 = ADVANCED_FACE('',(#487),#498,.T.);
#487 = FACE_BOUND('',#488,.T.);
#488 = EDGE_LOOP('',(#489,#495,#496,#497));
#489 = ORIENTED_EDGE('',*,*,#490,.F.);
#490 = EDGE_CURVE('',#441,#466,#491,.T.);
#491 = LINE('',#492,#493);
#492 = CARTESIAN_POINT('',(3.,3.,0.));
#493 = VECTOR('',#494,1.);
#494 = DIRECTION('',(-1.,0.,0.));
#495 = ORIENTED_EDGE('',*,*,#449,.T.);
#496 = ORIENTED_EDGE('',*,*,#57,.F.);
#497 = ORIENTED_EDGE('',*,*,#474,.F.);
#498 = PLANE('',#499);
#499 = AXIS2_PLACEMENT_3D('',#500,#501,#502);
#500 = CARTESIAN_POINT('',(3.,3.,0.));
#501 = DIRECTION('',(0.,-1.,0.));
#502 = DIRECTION('',(-1.,0.,0.));
#503 = ADVANCED_FACE('',(#504),#542,.T.);
#504 = FACE_BOUND('',#505,.F.);
#505 = EDGE_LOOP('',(#506,#507,#514,#523,#532,#539,#540,#541));
#506 = ORIENTED_EDGE('',*,*,#91,.F.);
#507 = ORIENTED_EDGE('',*,*,#508,.T.);
#508 = EDGE_CURVE('',#92,#509,#511,.T.);
#509 = VERTEX_POINT('',#510);
#510 = CARTESIAN_POINT('',(11.,0.,0.));
#511 = B_SPLINE_CURVE_WITH_KNOTS('',1,(#512,#513),.UNSPECIFIED.,.F.,.F.,
  (2,2),(-2.,0.),.PIECEWISE_BEZIER_KNOTS.);
#512 = CARTESIAN_POINT('',(11.,0.,2.));
#513 = CARTESIAN_POINT('',(11.,0.,0.));
#514 = ORIENTED_EDGE('',*,*,#515,.F.);
#515 = EDGE_CURVE('',#516,#509,#518,.T.);
#516 = VERTEX_POINT('',#517);
#517 = CARTESIAN_POINT('',(11.000000020843,-4.597266518995E-03,0.));
#518 = CIRCLE('',#519,11.);
#519 = AXIS2_PLACEMENT_3D('',#520,#521,#522);
#520 = CARTESIAN_POINT('',(0.,0.,0.));
#521 = DIRECTION('',(0.,0.,1.));
#522 = DIRECTION('',(1.,0.,0.));
#523 = ORIENTED_EDGE('',*,*,#524,.F.);
#524 = EDGE_CURVE('',#525,#516,#527,.T.);
#525 = VERTEX_POINT('',#526);
#526 = CARTESIAN_POINT('',(-11.00000002084,4.597266519301E-03,
    4.688181181488E-30));
#527 = CIRCLE('',#528,11.);
#528 = AXIS2_PLACEMENT_3D('',#529,#530,#531);
#529 = CARTESIAN_POINT('',(0.,0.,0.));
#530 = DIRECTION('',(0.,0.,1.));
#531 = DIRECTION('',(1.,0.,0.));
#532 = ORIENTED_EDGE('',*,*,#533,.F.);
#533 = EDGE_CURVE('',#509,#525,#534,.T.);
#534 = CIRCLE('',#535,11.);
#535 = AXIS2_PLACEMENT_3D('',#536,#537,#538);
#536 = CARTESIAN_POINT('',(0.,0.,0.));
#537 = DIRECTION('',(0.,0.,1.));
#538 = DIRECTION('',(1.,0.,0.));
#539 = ORIENTED_EDGE('',*,*,#508,.F.);
#540 = ORIENTED_EDGE('',*,*,#102,.F.);
#541 = ORIENTED_EDGE('',*,*,#111,.F.);
#542 = CYLINDRICAL_SURFACE('',#543,11.);
#543 = AXIS2_PLACEMENT_3D('',#544,#545,#546);
#544 = CARTESIAN_POINT('',(0.,0.,0.));
#545 = DIRECTION('',(-0.,-0.,-1.));
#546 = DIRECTION('',(1.,0.,0.));
#547 = ADVANCED_FACE('',(#548),#583,.T.);
#548 = FACE_BOUND('',#549,.T.);
#549 = EDGE_LOOP('',(#550,#551,#558,#575));
#550 = ORIENTED_EDGE('',*,*,#120,.F.);
#551 = ORIENTED_EDGE('',*,*,#552,.T.);
#552 = EDGE_CURVE('',#121,#553,#555,.T.);
#553 = VERTEX_POINT('',#554);
#554 = CARTESIAN_POINT('',(8.250000005267,-2.310901535829E-03,0.));
#555 = B_SPLINE_CURVE_WITH_KNOTS('',1,(#556,#557),.UNSPECIFIED.,.F.,.F.,
  (2,2),(-2.,-0.),.PIECEWISE_BEZIER_KNOTS.);
#556 = CARTESIAN_POINT('',(8.250000005267,-2.310901536049E-03,2.));
#557 = CARTESIAN_POINT('',(8.250000005267,-2.310901536049E-03,0.));
#558 = ORIENTED_EDGE('',*,*,#559,.T.);
#559 = EDGE_CURVE('',#553,#560,#562,.T.);
#560 = VERTEX_POINT('',#561);
#561 = CARTESIAN_POINT('',(-1.462728442541,-10.14509473236,0.));
#562 = B_SPLINE_CURVE_WITH_KNOTS('',11,(#563,#564,#565,#566,#567,#568,
    #569,#570,#571,#572,#573,#574),.UNSPECIFIED.,.F.,.F.,(12,12),(0.,
    6.303048278758),.PIECEWISE_BEZIER_KNOTS.);
#563 = CARTESIAN_POINT('',(8.250000005266,-2.310901535768E-03,0.));
#564 = CARTESIAN_POINT('',(8.501319990314,4.709869146072,0.));
#565 = CARTESIAN_POINT('',(5.792692544907,9.736523013086,0.));
#566 = CARTESIAN_POINT('',(-0.211798807247,13.016017215441,0.));
#567 = CARTESIAN_POINT('',(-8.189159895695,12.110423394438,0.));
#568 = CARTESIAN_POINT('',(-14.92328462976,5.80908937374,0.));
#569 = CARTESIAN_POINT('',(-16.0521955708,-4.36799251144,0.));
#570 = CARTESIAN_POINT('',(-10.19126491159,-12.56782678302,0.));
#571 = CARTESIAN_POINT('',(-1.276015780538,-15.14872120892,0.));
#572 = CARTESIAN_POINT('',(6.547980164131,-12.25501064025,0.));
#573 = CARTESIAN_POINT('',(10.747374066719,-6.28757586101,0.));
#574 = CARTESIAN_POINT('',(11.000000020843,-4.597266518995E-03,0.));
#575 = ORIENTED_EDGE('',*,*,#576,.T.);
#576 = EDGE_CURVE('',#560,#123,#577,.T.);
#577 = B_SPLINE_CURVE_WITH_KNOTS('',4,(#578,#579,#580,#581,#582),
  .UNSPECIFIED.,.F.,.F.,(5,5),(0.,1.),.PIECEWISE_BEZIER_KNOTS.);
#578 = CARTESIAN_POINT('',(-1.46272844254,-10.14509473236,0.));
#579 = CARTESIAN_POINT('',(-1.46272844254,-10.14509473236,0.5));
#580 = CARTESIAN_POINT('',(-1.46272844254,-10.14509473236,1.));
#581 = CARTESIAN_POINT('',(-1.46272844254,-10.14509473236,1.5));
#582 = CARTESIAN_POINT('',(-1.46272844254,-10.14509473236,2.));
#583 = B_SPLINE_SURFACE_WITH_KNOTS('',1,11,(
    (#584,#585,#586,#587,#588,#589,#590,#591,#592,#593,#594,#595)
    ,(#596,#597,#598,#599,#600,#601,#602,#603,#604,#605,#606,#607
  )),.UNSPECIFIED.,.F.,.F.,.F.,(2,2),(12,12),(-2.,-0.),(0.,
    6.303048278758),.PIECEWISE_BEZIER_KNOTS.);
#584 = CARTESIAN_POINT('',(8.250000005266,-2.310901535767E-03,2.));
#585 = CARTESIAN_POINT('',(8.501319990315,4.709869146072,2.));
#586 = CARTESIAN_POINT('',(5.792692544906,9.736523013085,2.));
#587 = CARTESIAN_POINT('',(-0.211798807244,13.016017215444,2.));
#588 = CARTESIAN_POINT('',(-8.1891598957,12.110423394433,2.));
#589 = CARTESIAN_POINT('',(-14.92328462975,5.809089373747,2.));
#590 = CARTESIAN_POINT('',(-16.05219557081,-4.367992511447,2.));
#591 = CARTESIAN_POINT('',(-10.19126491159,-12.56782678301,2.));
#592 = CARTESIAN_POINT('',(-1.27601578054,-15.14872120892,2.));
#593 = CARTESIAN_POINT('',(6.547980164132,-12.25501064025,2.));
#594 = CARTESIAN_POINT('',(10.747374066718,-6.28757586101,2.));
#595 = CARTESIAN_POINT('',(11.000000020843,-4.597266518994E-03,2.));
#596 = CARTESIAN_POINT('',(8.250000005266,-2.310901535768E-03,0.));
#597 = CARTESIAN_POINT('',(8.501319990314,4.709869146072,0.));
#598 = CARTESIAN_POINT('',(5.792692544907,9.736523013086,0.));
#599 = CARTESIAN_POINT('',(-0.211798807247,13.016017215441,0.));
#600 = CARTESIAN_POINT('',(-8.189159895695,12.110423394438,0.));
#601 = CARTESIAN_POINT('',(-14.92328462976,5.80908937374,0.));
#602 = CARTESIAN_POINT('',(-16.0521955708,-4.36799251144,0.));
#603 = CARTESIAN_POINT('',(-10.19126491159,-12.56782678302,0.));
#604 = CARTESIAN_POINT('',(-1.276015780538,-15.14872120892,0.));
#605 = CARTESIAN_POINT('',(6.547980164131,-12.25501064025,0.));
#606 = CARTESIAN_POINT('',(10.747374066719,-6.28757586101,0.));
#607 = CARTESIAN_POINT('',(11.000000020843,-4.597266518995E-03,0.));
#608 = ADVANCED_FACE('',(#609),#627,.F.);
#609 = FACE_BOUND('',#610,.T.);
#610 = EDGE_LOOP('',(#611,#612,#621,#626));
#611 = ORIENTED_EDGE('',*,*,#576,.F.);
#612 = ORIENTED_EDGE('',*,*,#613,.F.);
#613 = EDGE_CURVE('',#614,#560,#616,.T.);
#614 = VERTEX_POINT('',#615);
#615 = CARTESIAN_POINT('',(-10.25000002087,4.604067209422E-03,
    4.688181181488E-30));
#616 = CIRCLE('',#617,10.250001054895);
#617 = AXIS2_PLACEMENT_3D('',#618,#619,#620);
#618 = CARTESIAN_POINT('',(0.,0.,0.));
#619 = DIRECTION('',(0.,0.,1.));
#620 = DIRECTION('',(1.,0.,0.));
#621 = ORIENTED_EDGE('',*,*,#622,.F.);
#622 = EDGE_CURVE('',#140,#614,#623,.T.);
#623 = B_SPLINE_CURVE_WITH_KNOTS('',1,(#624,#625),.UNSPECIFIED.,.F.,.F.,
  (2,2),(-2.,-0.),.PIECEWISE_BEZIER_KNOTS.);
#624 = CARTESIAN_POINT('',(-10.25000002087,4.604067209422E-03,2.));
#625 = CARTESIAN_POINT('',(-10.25000002087,4.604067209422E-03,
    4.688181181488E-30));
#626 = ORIENTED_EDGE('',*,*,#139,.F.);
#627 = CYLINDRICAL_SURFACE('',#628,10.250001054895);
#628 = AXIS2_PLACEMENT_3D('',#629,#630,#631);
#629 = CARTESIAN_POINT('',(0.,0.,0.));
#630 = DIRECTION('',(-0.,-0.,-1.));
#631 = DIRECTION('',(1.,0.,0.));
#632 = ADVANCED_FACE('',(#633),#659,.F.);
#633 = FACE_BOUND('',#634,.F.);
#634 = EDGE_LOOP('',(#635,#636,#643,#658));
#635 = ORIENTED_EDGE('',*,*,#148,.F.);
#636 = ORIENTED_EDGE('',*,*,#637,.T.);
#637 = EDGE_CURVE('',#149,#638,#640,.T.);
#638 = VERTEX_POINT('',#639);
#639 = CARTESIAN_POINT('',(-7.500000005274,2.314320029299E-03,0.));
#640 = B_SPLINE_CURVE_WITH_KNOTS('',1,(#641,#642),.UNSPECIFIED.,.F.,.F.,
  (2,2),(-2.,-0.),.PIECEWISE_BEZIER_KNOTS.);
#641 = CARTESIAN_POINT('',(-7.500000005275,2.314320029027E-03,2.));
#642 = CARTESIAN_POINT('',(-7.500000005275,2.314320029023E-03,
    -3.786251519529E-30));
#643 = ORIENTED_EDGE('',*,*,#644,.T.);
#644 = EDGE_CURVE('',#638,#614,#645,.T.);
#645 = B_SPLINE_CURVE_WITH_KNOTS('',11,(#646,#647,#648,#649,#650,#651,
    #652,#653,#654,#655,#656,#657),.UNSPECIFIED.,.F.,.F.,(12,12),(0.,
    6.303048278758),.PIECEWISE_BEZIER_KNOTS.);
#646 = CARTESIAN_POINT('',(-7.500000005274,2.314320029236E-03,
    3.975119405215E-31));
#647 = CARTESIAN_POINT('',(-7.75132194296,-4.281466420289,
    4.034657430517E-29));
#648 = CARTESIAN_POINT('',(-5.311809972492,-8.8797319151,
    -3.707667147624E-16));
#649 = CARTESIAN_POINT('',(0.153894935627,-11.91865537716,
    2.175164726606E-15));
#650 = CARTESIAN_POINT('',(7.473048206349,-11.14887215762,
    -6.344230452599E-15));
#651 = CARTESIAN_POINT('',(13.716397835666,-5.41255086561,
    1.165266817824E-14));
#652 = CARTESIAN_POINT('',(14.845314188334,3.971437540915,
    -1.45658352228E-14));
#653 = CARTESIAN_POINT('',(9.475166338534,11.606265783211,
    1.26884609052E-14));
#654 = CARTESIAN_POINT('',(1.218126872112,14.051358585243,
    -7.613076543119E-15));
#655 = CARTESIAN_POINT('',(-6.067085913392,11.398226100571,
    2.966133718098E-15));
#656 = CARTESIAN_POINT('',(-9.997370182204,5.859183357696,
    -6.179445246038E-16));
#657 = CARTESIAN_POINT('',(-10.25000002087,4.604067209422E-03,
    4.688181181488E-30));
#658 = ORIENTED_EDGE('',*,*,#622,.F.);
#659 = B_SPLINE_SURFACE_WITH_KNOTS('',1,11,(
    (#660,#661,#662,#663,#664,#665,#666,#667,#668,#669,#670,#671)
    ,(#672,#673,#674,#675,#676,#677,#678,#679,#680,#681,#682,#683
  )),.UNSPECIFIED.,.F.,.F.,.F.,(2,2),(12,12),(-2.,-0.),(0.,
    6.303048278758),.PIECEWISE_BEZIER_KNOTS.);
#660 = CARTESIAN_POINT('',(-7.500000005274,2.314320029236E-03,2.));
#661 = CARTESIAN_POINT('',(-7.75132194296,-4.281466420289,2.));
#662 = CARTESIAN_POINT('',(-5.311809972493,-8.8797319151,2.));
#663 = CARTESIAN_POINT('',(0.153894935629,-11.91865537716,2.));
#664 = CARTESIAN_POINT('',(7.473048206347,-11.14887215762,2.));
#665 = CARTESIAN_POINT('',(13.716397835669,-5.41255086561,2.));
#666 = CARTESIAN_POINT('',(14.845314188332,3.971437540915,2.));
#667 = CARTESIAN_POINT('',(9.475166338535,11.606265783211,2.));
#668 = CARTESIAN_POINT('',(1.218126872112,14.051358585243,2.));
#669 = CARTESIAN_POINT('',(-6.067085913392,11.398226100571,2.));
#670 = CARTESIAN_POINT('',(-9.997370182204,5.859183357696,2.));
#671 = CARTESIAN_POINT('',(-10.25000002087,4.604067209422E-03,2.));
#672 = CARTESIAN_POINT('',(-7.500000005274,2.314320029236E-03,
    3.975119405215E-31));
#673 = CARTESIAN_POINT('',(-7.75132194296,-4.281466420289,
    4.034657430517E-29));
#674 = CARTESIAN_POINT('',(-5.311809972492,-8.8797319151,
    -3.707667147624E-16));
#675 = CARTESIAN_POINT('',(0.153894935627,-11.91865537716,
    2.175164726606E-15));
#676 = CARTESIAN_POINT('',(7.473048206349,-11.14887215762,
    -6.344230452599E-15));
#677 = CARTESIAN_POINT('',(13.716397835666,-5.41255086561,
    1.165266817824E-14));
#678 = CARTESIAN_POINT('',(14.845314188334,3.971437540915,
    -1.45658352228E-14));
#679 = CARTESIAN_POINT('',(9.475166338534,11.606265783211,
    1.26884609052E-14));
#680 = CARTESIAN_POINT('',(1.218126872112,14.051358585243,
    -7.613076543119E-15));
#681 = CARTESIAN_POINT('',(-6.067085913392,11.398226100571,
    2.966133718098E-15));
#682 = CARTESIAN_POINT('',(-9.997370182204,5.859183357696,
    -6.179445246038E-16));
#683 = CARTESIAN_POINT('',(-10.25000002087,4.604067209422E-03,
    4.688181181488E-30));
#684 = ADVANCED_FACE('',(#685),#714,.F.);
#685 = FACE_BOUND('',#686,.F.);
#686 = EDGE_LOOP('',(#687,#688,#698,#713));
#687 = ORIENTED_EDGE('',*,*,#165,.F.);
#688 = ORIENTED_EDGE('',*,*,#689,.F.);
#689 = EDGE_CURVE('',#690,#166,#692,.T.);
#690 = VERTEX_POINT('',#691);
#691 = CARTESIAN_POINT('',(0.782161420834,-5.444099880766,
    3.553919141401E-18));
#692 = B_SPLINE_CURVE_WITH_KNOTS('',4,(#693,#694,#695,#696,#697),
  .UNSPECIFIED.,.F.,.F.,(5,5),(0.,1.),.PIECEWISE_BEZIER_KNOTS.);
#693 = CARTESIAN_POINT('',(0.782161420834,-5.444099880766,
    3.330669073875E-16));
#694 = CARTESIAN_POINT('',(0.782161420834,-5.444099880766,0.5));
#695 = CARTESIAN_POINT('',(0.782161420834,-5.444099880766,1.));
#696 = CARTESIAN_POINT('',(0.782161420834,-5.444099880766,1.5));
#697 = CARTESIAN_POINT('',(0.782161420834,-5.444099880766,2.));
#698 = ORIENTED_EDGE('',*,*,#699,.T.);
#699 = EDGE_CURVE('',#690,#638,#700,.T.);
#700 = B_SPLINE_CURVE_WITH_KNOTS('',11,(#701,#702,#703,#704,#705,#706,
    #707,#708,#709,#710,#711,#712),.UNSPECIFIED.,.F.,.F.,(12,12),(0.,
    6.303048278758),.PIECEWISE_BEZIER_KNOTS.);
#701 = CARTESIAN_POINT('',(-4.75,2.842344415388E-15,-2.449782889261E-30)
  );
#702 = CARTESIAN_POINT('',(-5.000000000243,-2.71298215815,
    -3.810865021534E-29));
#703 = CARTESIAN_POINT('',(-3.545917109779,-5.739654254447,
    3.727455721423E-16));
#704 = CARTESIAN_POINT('',(-5.50189483642E-02,-7.894813786606,
    -2.186774023234E-15));
#705 = CARTESIAN_POINT('',(4.850281708142,-7.620964002752,
    6.3780909011E-15));
#706 = CARTESIAN_POINT('',(9.292370103499,-3.954839375075,
    -1.171486083875E-14));
#707 = CARTESIAN_POINT('',(10.418852243596,2.521134627463,
    1.464357604844E-14));
#708 = CARTESIAN_POINT('',(6.846497241403,8.082753548297,
    -1.27561818022E-14));
#709 = CARTESIAN_POINT('',(1.00247666907,10.027872455747,
    7.653709081319E-15));
#710 = CARTESIAN_POINT('',(-4.306452617265,8.255196442185,
    -2.981964577137E-15));
#711 = CARTESIAN_POINT('',(-7.248678068024,4.286095059813,
    6.21242620237E-16));
#712 = CARTESIAN_POINT('',(-7.500000005275,2.314320029023E-03,
    -3.786251519529E-30));
#713 = ORIENTED_EDGE('',*,*,#637,.F.);
#714 = B_SPLINE_SURFACE_WITH_KNOTS('',1,11,(
    (#715,#716,#717,#718,#719,#720,#721,#722,#723,#724,#725,#726)
    ,(#727,#728,#729,#730,#731,#732,#733,#734,#735,#736,#737,#738
  )),.UNSPECIFIED.,.F.,.F.,.F.,(2,2),(12,12),(-2.,-0.),(0.,
    6.303048278758),.PIECEWISE_BEZIER_KNOTS.);
#715 = CARTESIAN_POINT('',(-4.75,2.777725965908E-15,2.));
#716 = CARTESIAN_POINT('',(-5.000000000243,-2.71298215815,2.));
#717 = CARTESIAN_POINT('',(-3.54591710978,-5.739654254447,2.));
#718 = CARTESIAN_POINT('',(-5.501894836138E-02,-7.894813786607,2.));
#719 = CARTESIAN_POINT('',(4.850281708137,-7.620964002751,2.));
#720 = CARTESIAN_POINT('',(9.292370103505,-3.954839375077,2.));
#721 = CARTESIAN_POINT('',(10.41885224359,2.521134627464,2.));
#722 = CARTESIAN_POINT('',(6.846497241407,8.082753548296,2.));
#723 = CARTESIAN_POINT('',(1.002476669068,10.027872455748,2.));
#724 = CARTESIAN_POINT('',(-4.306452617264,8.255196442185,2.));
#725 = CARTESIAN_POINT('',(-7.248678068024,4.286095059813,2.));
#726 = CARTESIAN_POINT('',(-7.500000005275,2.314320029027E-03,2.));
#727 = CARTESIAN_POINT('',(-4.75,2.842344415388E-15,-2.449782889261E-30)
  );
#728 = CARTESIAN_POINT('',(-5.000000000243,-2.71298215815,
    -3.810865021534E-29));
#729 = CARTESIAN_POINT('',(-3.545917109779,-5.739654254447,
    3.727455721423E-16));
#730 = CARTESIAN_POINT('',(-5.50189483642E-02,-7.894813786606,
    -2.186774023234E-15));
#731 = CARTESIAN_POINT('',(4.850281708142,-7.620964002752,
    6.3780909011E-15));
#732 = CARTESIAN_POINT('',(9.292370103499,-3.954839375075,
    -1.171486083875E-14));
#733 = CARTESIAN_POINT('',(10.418852243596,2.521134627463,
    1.464357604844E-14));
#734 = CARTESIAN_POINT('',(6.846497241403,8.082753548297,
    -1.27561818022E-14));
#735 = CARTESIAN_POINT('',(1.00247666907,10.027872455747,
    7.653709081319E-15));
#736 = CARTESIAN_POINT('',(-4.306452617265,8.255196442185,
    -2.981964577137E-15));
#737 = CARTESIAN_POINT('',(-7.248678068024,4.286095059813,
    6.21242620237E-16));
#738 = CARTESIAN_POINT('',(-7.500000005275,2.314320029023E-03,
    -3.786251519529E-30));
#739 = ADVANCED_FACE('',(#740),#759,.T.);
#740 = FACE_BOUND('',#741,.F.);
#741 = EDGE_LOOP('',(#742,#750,#757,#758));
#742 = ORIENTED_EDGE('',*,*,#743,.F.);
#743 = EDGE_CURVE('',#744,#183,#746,.T.);
#744 = VERTEX_POINT('',#745);
#745 = CARTESIAN_POINT('',(5.5,-2.609240948304E-15,0.));
#746 = LINE('',#747,#748);
#747 = CARTESIAN_POINT('',(5.5,0.,0.));
#748 = VECTOR('',#749,1.);
#749 = DIRECTION('',(0.,0.,1.));
#750 = ORIENTED_EDGE('',*,*,#751,.F.);
#751 = EDGE_CURVE('',#690,#744,#752,.T.);
#752 = CIRCLE('',#753,5.5);
#753 = AXIS2_PLACEMENT_3D('',#754,#755,#756);
#754 = CARTESIAN_POINT('',(0.,0.,0.));
#755 = DIRECTION('',(0.,0.,1.));
#756 = DIRECTION('',(1.,0.,0.));
#757 = ORIENTED_EDGE('',*,*,#689,.T.);
#758 = ORIENTED_EDGE('',*,*,#182,.T.);
#759 = CYLINDRICAL_SURFACE('',#760,5.5);
#760 = AXIS2_PLACEMENT_3D('',#761,#762,#763);
#761 = CARTESIAN_POINT('',(0.,0.,0.));
#762 = DIRECTION('',(-0.,-0.,-1.));
#763 = DIRECTION('',(1.,0.,0.));
#764 = ADVANCED_FACE('',(#765),#785,.T.);
#765 = FACE_BOUND('',#766,.T.);
#766 = EDGE_LOOP('',(#767,#768,#769,#784));
#767 = ORIENTED_EDGE('',*,*,#191,.F.);
#768 = ORIENTED_EDGE('',*,*,#743,.F.);
#769 = ORIENTED_EDGE('',*,*,#770,.T.);
#770 = EDGE_CURVE('',#744,#553,#771,.T.);
#771 = B_SPLINE_CURVE_WITH_KNOTS('',11,(#772,#773,#774,#775,#776,#777,
    #778,#779,#780,#781,#782,#783),.UNSPECIFIED.,.F.,.F.,(12,12),(0.,
    6.303048278758),.PIECEWISE_BEZIER_KNOTS.);
#772 = CARTESIAN_POINT('',(5.5,-2.609240948304E-15,0.));
#773 = CARTESIAN_POINT('',(5.750000000246,3.141381468771,0.));
#774 = CARTESIAN_POINT('',(4.026803583257,6.596443167204,0.));
#775 = CARTESIAN_POINT('',(-2.879934035618E-03,8.992175894416,0.));
#776 = CARTESIAN_POINT('',(-5.566389035121,8.582518499304,0.));
#777 = CARTESIAN_POINT('',(-10.49925510915,4.351383362344,0.));
#778 = CARTESIAN_POINT('',(-11.62573543344,-2.917684133866,0.));
#779 = CARTESIAN_POINT('',(-7.56260017072,-9.044311314629,0.));
#780 = CARTESIAN_POINT('',(-1.060370538575,-11.12523482389,0.));
#781 = CARTESIAN_POINT('',(4.787343000146,-9.111983157057,0.));
#782 = CARTESIAN_POINT('',(7.998680020654,-4.714490948609,0.));
#783 = CARTESIAN_POINT('',(8.250000005267,-2.310901536049E-03,0.));
#784 = ORIENTED_EDGE('',*,*,#552,.F.);
#785 = B_SPLINE_SURFACE_WITH_KNOTS('',1,11,(
    (#786,#787,#788,#789,#790,#791,#792,#793,#794,#795,#796,#797)
    ,(#798,#799,#800,#801,#802,#803,#804,#805,#806,#807,#808,#809
  )),.UNSPECIFIED.,.F.,.F.,.F.,(2,2),(12,12),(-2.,-0.),(0.,
    6.303048278758),.PIECEWISE_BEZIER_KNOTS.);
#786 = CARTESIAN_POINT('',(5.5,-2.609240948304E-15,2.));
#787 = CARTESIAN_POINT('',(5.750000000246,3.141381468771,2.));
#788 = CARTESIAN_POINT('',(4.026803583257,6.596443167204,2.));
#789 = CARTESIAN_POINT('',(-2.879934036176E-03,8.992175894416,2.));
#790 = CARTESIAN_POINT('',(-5.56638903512,8.582518499304,2.));
#791 = CARTESIAN_POINT('',(-10.49925510915,4.351383362344,2.));
#792 = CARTESIAN_POINT('',(-11.62573543344,-2.917684133866,2.));
#793 = CARTESIAN_POINT('',(-7.562600170721,-9.044311314629,2.));
#794 = CARTESIAN_POINT('',(-1.060370538574,-11.12523482389,2.));
#795 = CARTESIAN_POINT('',(4.787343000146,-9.111983157057,2.));
#796 = CARTESIAN_POINT('',(7.998680020654,-4.714490948609,2.));
#797 = CARTESIAN_POINT('',(8.250000005267,-2.310901536049E-03,2.));
#798 = CARTESIAN_POINT('',(5.5,-2.609240948304E-15,0.));
#799 = CARTESIAN_POINT('',(5.750000000246,3.141381468771,0.));
#800 = CARTESIAN_POINT('',(4.026803583257,6.596443167204,0.));
#801 = CARTESIAN_POINT('',(-2.879934035618E-03,8.992175894416,0.));
#802 = CARTESIAN_POINT('',(-5.566389035121,8.582518499304,0.));
#803 = CARTESIAN_POINT('',(-10.49925510915,4.351383362344,0.));
#804 = CARTESIAN_POINT('',(-11.62573543344,-2.917684133866,0.));
#805 = CARTESIAN_POINT('',(-7.56260017072,-9.044311314629,0.));
#806 = CARTESIAN_POINT('',(-1.060370538575,-11.12523482389,0.));
#807 = CARTESIAN_POINT('',(4.787343000146,-9.111983157057,0.));
#808 = CARTESIAN_POINT('',(7.998680020654,-4.714490948609,0.));
#809 = CARTESIAN_POINT('',(8.250000005267,-2.310901536049E-03,0.));
#810 = ADVANCED_FACE('',(#811),#846,.T.);
#811 = FACE_BOUND('',#812,.T.);
#812 = EDGE_LOOP('',(#813,#832,#840,#841));
#813 = ORIENTED_EDGE('',*,*,#814,.F.);
#814 = EDGE_CURVE('',#815,#817,#819,.T.);
#815 = VERTEX_POINT('',#816);
#816 = CARTESIAN_POINT('',(-0.782161420773,5.444099880775,0.));
#817 = VERTEX_POINT('',#818);
#818 = CARTESIAN_POINT('',(7.500000005274,-2.314320029225E-03,0.));
#819 = B_SPLINE_CURVE_WITH_KNOTS('',11,(#820,#821,#822,#823,#824,#825,
    #826,#827,#828,#829,#830,#831),.UNSPECIFIED.,.F.,.F.,(12,12),(0.,
    6.303048278758),.PIECEWISE_BEZIER_KNOTS.);
#820 = CARTESIAN_POINT('',(4.75,1.727350901204E-15,0.));
#821 = CARTESIAN_POINT('',(5.000000000246,2.71298215815,0.));
#822 = CARTESIAN_POINT('',(3.545917109784,5.739654254446,0.));
#823 = CARTESIAN_POINT('',(5.501894837329E-02,7.894813786623,0.));
#824 = CARTESIAN_POINT('',(-4.850281708151,7.620964002729,0.));
#825 = CARTESIAN_POINT('',(-9.292370103461,3.95483937514,0.));
#826 = CARTESIAN_POINT('',(-10.41885224364,-2.521134627505,0.));
#827 = CARTESIAN_POINT('',(-6.846497241381,-8.082753548253,0.));
#828 = CARTESIAN_POINT('',(-1.002476669088,-10.02787245575,0.));
#829 = CARTESIAN_POINT('',(4.306452617262,-8.255196442179,0.));
#830 = CARTESIAN_POINT('',(7.248678068021,-4.286095059813,0.));
#831 = CARTESIAN_POINT('',(7.500000005275,-2.314320029456E-03,0.));
#832 = ORIENTED_EDGE('',*,*,#833,.F.);
#833 = EDGE_CURVE('',#209,#815,#834,.T.);
#834 = B_SPLINE_CURVE_WITH_KNOTS('',4,(#835,#836,#837,#838,#839),
  .UNSPECIFIED.,.F.,.F.,(5,5),(0.,1.),.PIECEWISE_BEZIER_KNOTS.);
#835 = CARTESIAN_POINT('',(-0.782161420773,5.444099880775,2.));
#836 = CARTESIAN_POINT('',(-0.782161420773,5.444099880775,1.5));
#837 = CARTESIAN_POINT('',(-0.782161420774,5.444099880775,1.));
#838 = CARTESIAN_POINT('',(-0.782161420773,5.444099880775,0.5));
#839 = CARTESIAN_POINT('',(-0.782161420773,5.444099880775,0.));
#840 = ORIENTED_EDGE('',*,*,#208,.T.);
#841 = ORIENTED_EDGE('',*,*,#842,.F.);
#842 = EDGE_CURVE('',#817,#211,#843,.T.);
#843 = B_SPLINE_CURVE_WITH_KNOTS('',1,(#844,#845),.UNSPECIFIED.,.F.,.F.,
  (2,2),(-2.,-0.),.PIECEWISE_BEZIER_KNOTS.);
#844 = CARTESIAN_POINT('',(7.500000005275,-2.314320029456E-03,0.));
#845 = CARTESIAN_POINT('',(7.500000005275,-2.314320029456E-03,2.));
#846 = B_SPLINE_SURFACE_WITH_KNOTS('',1,11,(
    (#847,#848,#849,#850,#851,#852,#853,#854,#855,#856,#857,#858)
    ,(#859,#860,#861,#862,#863,#864,#865,#866,#867,#868,#869,#870
  )),.UNSPECIFIED.,.F.,.F.,.F.,(2,2),(12,12),(-2.,-0.),(0.,
    6.303048278758),.PIECEWISE_BEZIER_KNOTS.);
#847 = CARTESIAN_POINT('',(4.75,1.727350901204E-15,0.));
#848 = CARTESIAN_POINT('',(5.000000000246,2.71298215815,0.));
#849 = CARTESIAN_POINT('',(3.545917109784,5.739654254446,0.));
#850 = CARTESIAN_POINT('',(5.501894837329E-02,7.894813786623,0.));
#851 = CARTESIAN_POINT('',(-4.850281708151,7.620964002729,0.));
#852 = CARTESIAN_POINT('',(-9.292370103461,3.95483937514,0.));
#853 = CARTESIAN_POINT('',(-10.41885224364,-2.521134627505,0.));
#854 = CARTESIAN_POINT('',(-6.846497241381,-8.082753548253,0.));
#855 = CARTESIAN_POINT('',(-1.002476669088,-10.02787245575,0.));
#856 = CARTESIAN_POINT('',(4.306452617262,-8.255196442179,0.));
#857 = CARTESIAN_POINT('',(7.248678068021,-4.286095059813,0.));
#858 = CARTESIAN_POINT('',(7.500000005275,-2.314320029456E-03,0.));
#859 = CARTESIAN_POINT('',(4.75,1.727350901204E-15,2.));
#860 = CARTESIAN_POINT('',(5.000000000246,2.71298215815,2.));
#861 = CARTESIAN_POINT('',(3.545917109784,5.739654254446,2.));
#862 = CARTESIAN_POINT('',(5.501894837378E-02,7.894813786623,2.));
#863 = CARTESIAN_POINT('',(-4.850281708152,7.620964002729,2.));
#864 = CARTESIAN_POINT('',(-9.292370103459,3.95483937514,2.));
#865 = CARTESIAN_POINT('',(-10.41885224364,-2.521134627505,2.));
#866 = CARTESIAN_POINT('',(-6.846497241379,-8.082753548253,2.));
#867 = CARTESIAN_POINT('',(-1.002476669089,-10.02787245575,2.));
#868 = CARTESIAN_POINT('',(4.306452617262,-8.255196442179,2.));
#869 = CARTESIAN_POINT('',(7.248678068021,-4.286095059813,2.));
#870 = CARTESIAN_POINT('',(7.500000005275,-2.314320029456E-03,2.));
#871 = ADVANCED_FACE('',(#872),#890,.T.);
#872 = FACE_BOUND('',#873,.F.);
#873 = EDGE_LOOP('',(#874,#881,#888,#889));
#874 = ORIENTED_EDGE('',*,*,#875,.F.);
#875 = EDGE_CURVE('',#876,#228,#878,.T.);
#876 = VERTEX_POINT('',#877);
#877 = CARTESIAN_POINT('',(-5.5,-5.959642501718E-15,-2.449782889261E-30)
  );
#878 = B_SPLINE_CURVE_WITH_KNOTS('',1,(#879,#880),.UNSPECIFIED.,.F.,.F.,
  (2,2),(-2.,-0.),.PIECEWISE_BEZIER_KNOTS.);
#879 = CARTESIAN_POINT('',(-5.5,-5.959642501718E-15,-2.449782889261E-30)
  );
#880 = CARTESIAN_POINT('',(-5.5,-2.67754568517E-15,2.));
#881 = ORIENTED_EDGE('',*,*,#882,.F.);
#882 = EDGE_CURVE('',#815,#876,#883,.T.);
#883 = CIRCLE('',#884,5.5);
#884 = AXIS2_PLACEMENT_3D('',#885,#886,#887);
#885 = CARTESIAN_POINT('',(0.,0.,0.));
#886 = DIRECTION('',(0.,0.,1.));
#887 = DIRECTION('',(1.,0.,0.));
#888 = ORIENTED_EDGE('',*,*,#833,.F.);
#889 = ORIENTED_EDGE('',*,*,#227,.T.);
#890 = CYLINDRICAL_SURFACE('',#891,5.5);
#891 = AXIS2_PLACEMENT_3D('',#892,#893,#894);
#892 = CARTESIAN_POINT('',(0.,0.,0.));
#893 = DIRECTION('',(-0.,-0.,-1.));
#894 = DIRECTION('',(1.,0.,0.));
#895 = ADVANCED_FACE('',(#896),#922,.F.);
#896 = FACE_BOUND('',#897,.F.);
#897 = EDGE_LOOP('',(#898,#915,#916,#917));
#898 = ORIENTED_EDGE('',*,*,#899,.F.);
#899 = EDGE_CURVE('',#876,#900,#902,.T.);
#900 = VERTEX_POINT('',#901);
#901 = CARTESIAN_POINT('',(-8.250000005267,2.310901535903E-03,0.));
#902 = B_SPLINE_CURVE_WITH_KNOTS('',11,(#903,#904,#905,#906,#907,#908,
    #909,#910,#911,#912,#913,#914),.UNSPECIFIED.,.F.,.F.,(12,12),(0.,
    6.303048278758),.PIECEWISE_BEZIER_KNOTS.);
#903 = CARTESIAN_POINT('',(-5.5,-5.959642501718E-15,-2.449782889261E-30)
  );
#904 = CARTESIAN_POINT('',(-5.750000000243,-3.141381468771,
    -3.810865021534E-29));
#905 = CARTESIAN_POINT('',(-4.026803583253,-6.596443167207,
    3.727455721423E-16));
#906 = CARTESIAN_POINT('',(2.879934046797E-03,-8.992175894394,
    -2.186774023234E-15));
#907 = CARTESIAN_POINT('',(5.566389035108,-8.582518499337,
    6.3780909011E-15));
#908 = CARTESIAN_POINT('',(10.499255109196,-4.351383362266,
    -1.171486083875E-14));
#909 = CARTESIAN_POINT('',(11.625735433393,2.917684133811,
    1.464357604844E-14));
#910 = CARTESIAN_POINT('',(7.562600170746,9.044311314683,
    -1.27561818022E-14));
#911 = CARTESIAN_POINT('',(1.060370538555,11.125234823878,
    7.653709081319E-15));
#912 = CARTESIAN_POINT('',(-4.787343000149,9.111983157064,
    -2.981964577137E-15));
#913 = CARTESIAN_POINT('',(-7.998680020656,4.714490948609,
    6.21242620237E-16));
#914 = CARTESIAN_POINT('',(-8.250000005267,2.310901535636E-03,
    -3.786251519529E-30));
#915 = ORIENTED_EDGE('',*,*,#875,.T.);
#916 = ORIENTED_EDGE('',*,*,#236,.T.);
#917 = ORIENTED_EDGE('',*,*,#918,.F.);
#918 = EDGE_CURVE('',#900,#237,#919,.T.);
#919 = B_SPLINE_CURVE_WITH_KNOTS('',1,(#920,#921),.UNSPECIFIED.,.F.,.F.,
  (2,2),(-2.,-0.),.PIECEWISE_BEZIER_KNOTS.);
#920 = CARTESIAN_POINT('',(-8.250000005267,2.310901535636E-03,
    -3.786251519529E-30));
#921 = CARTESIAN_POINT('',(-8.250000005267,2.310901535639E-03,2.));
#922 = B_SPLINE_SURFACE_WITH_KNOTS('',1,11,(
    (#923,#924,#925,#926,#927,#928,#929,#930,#931,#932,#933,#934)
    ,(#935,#936,#937,#938,#939,#940,#941,#942,#943,#944,#945,#946
  )),.UNSPECIFIED.,.F.,.F.,.F.,(2,2),(12,12),(-2.,-0.),(0.,
    6.303048278758),.PIECEWISE_BEZIER_KNOTS.);
#923 = CARTESIAN_POINT('',(-5.5,-5.959642501718E-15,-2.449782889261E-30)
  );
#924 = CARTESIAN_POINT('',(-5.750000000243,-3.141381468771,
    -3.810865021534E-29));
#925 = CARTESIAN_POINT('',(-4.026803583253,-6.596443167207,
    3.727455721423E-16));
#926 = CARTESIAN_POINT('',(2.879934046797E-03,-8.992175894394,
    -2.186774023234E-15));
#927 = CARTESIAN_POINT('',(5.566389035108,-8.582518499337,
    6.3780909011E-15));
#928 = CARTESIAN_POINT('',(10.499255109196,-4.351383362266,
    -1.171486083875E-14));
#929 = CARTESIAN_POINT('',(11.625735433393,2.917684133811,
    1.464357604844E-14));
#930 = CARTESIAN_POINT('',(7.562600170746,9.044311314683,
    -1.27561818022E-14));
#931 = CARTESIAN_POINT('',(1.060370538555,11.125234823878,
    7.653709081319E-15));
#932 = CARTESIAN_POINT('',(-4.787343000149,9.111983157064,
    -2.981964577137E-15));
#933 = CARTESIAN_POINT('',(-7.998680020656,4.714490948609,
    6.21242620237E-16));
#934 = CARTESIAN_POINT('',(-8.250000005267,2.310901535636E-03,
    -3.786251519529E-30));
#935 = CARTESIAN_POINT('',(-5.5,-2.67754568517E-15,2.));
#936 = CARTESIAN_POINT('',(-5.750000000243,-3.141381468771,2.));
#937 = CARTESIAN_POINT('',(-4.026803583253,-6.596443167206,2.));
#938 = CARTESIAN_POINT('',(2.879934046718E-03,-8.992175894395,2.));
#939 = CARTESIAN_POINT('',(5.566389035108,-8.582518499336,2.));
#940 = CARTESIAN_POINT('',(10.499255109196,-4.351383362268,2.));
#941 = CARTESIAN_POINT('',(11.625735433393,2.917684133813,2.));
#942 = CARTESIAN_POINT('',(7.562600170745,9.044311314681,2.));
#943 = CARTESIAN_POINT('',(1.060370538556,11.12523482388,2.));
#944 = CARTESIAN_POINT('',(-4.787343000149,9.111983157064,2.));
#945 = CARTESIAN_POINT('',(-7.998680020656,4.714490948609,2.));
#946 = CARTESIAN_POINT('',(-8.250000005267,2.310901535639E-03,2.));
#947 = ADVANCED_FACE('',(#948),#977,.F.);
#948 = FACE_BOUND('',#949,.F.);
#949 = EDGE_LOOP('',(#950,#967,#968,#969));
#950 = ORIENTED_EDGE('',*,*,#951,.F.);
#951 = EDGE_CURVE('',#900,#952,#954,.T.);
#952 = VERTEX_POINT('',#953);
#953 = CARTESIAN_POINT('',(1.462728442641,10.145094732354,
    -3.87508631949E-19));
#954 = B_SPLINE_CURVE_WITH_KNOTS('',11,(#955,#956,#957,#958,#959,#960,
    #961,#962,#963,#964,#965,#966),.UNSPECIFIED.,.F.,.F.,(12,12),(0.,
    6.303048278758),.PIECEWISE_BEZIER_KNOTS.);
#955 = CARTESIAN_POINT('',(-8.250000005266,2.310901535839E-03,
    3.975119405215E-31));
#956 = CARTESIAN_POINT('',(-8.501319990312,-4.709869146072,
    4.034657430517E-29));
#957 = CARTESIAN_POINT('',(-5.792692544899,-9.73652301308,
    -3.707667147624E-16));
#958 = CARTESIAN_POINT('',(0.211798807239,-13.01601721545,
    2.175164726606E-15));
#959 = CARTESIAN_POINT('',(8.189159895743,-12.11042339439,
    -6.344230452599E-15));
#960 = CARTESIAN_POINT('',(14.923284629692,-5.809089373771,
    1.165266817824E-14));
#961 = CARTESIAN_POINT('',(16.05219557088,4.36799251148,
    -1.45658352228E-14));
#962 = CARTESIAN_POINT('',(10.191264911542,12.56782678302,
    1.26884609052E-14));
#963 = CARTESIAN_POINT('',(1.27601578055,15.148721208932,
    -7.613076543119E-15));
#964 = CARTESIAN_POINT('',(-6.547980164141,12.25501064026,
    2.966133718098E-15));
#965 = CARTESIAN_POINT('',(-10.74737406672,6.28757586101,
    -6.179445246038E-16));
#966 = CARTESIAN_POINT('',(-11.00000002084,4.597266519301E-03,
    4.688181181488E-30));
#967 = ORIENTED_EDGE('',*,*,#918,.T.);
#968 = ORIENTED_EDGE('',*,*,#253,.T.);
#969 = ORIENTED_EDGE('',*,*,#970,.T.);
#970 = EDGE_CURVE('',#254,#952,#971,.T.);
#971 = B_SPLINE_CURVE_WITH_KNOTS('',4,(#972,#973,#974,#975,#976),
  .UNSPECIFIED.,.F.,.F.,(5,5),(0.,1.),.PIECEWISE_BEZIER_KNOTS.);
#972 = CARTESIAN_POINT('',(1.46272844264,10.145094732354,2.));
#973 = CARTESIAN_POINT('',(1.46272844264,10.145094732354,1.5));
#974 = CARTESIAN_POINT('',(1.46272844264,10.145094732354,1.));
#975 = CARTESIAN_POINT('',(1.46272844264,10.145094732354,0.5));
#976 = CARTESIAN_POINT('',(1.46272844264,10.145094732354,
    3.330669073875E-16));
#977 = B_SPLINE_SURFACE_WITH_KNOTS('',1,11,(
    (#978,#979,#980,#981,#982,#983,#984,#985,#986,#987,#988,#989)
    ,(#990,#991,#992,#993,#994,#995,#996,#997,#998,#999,#1000,#1001
  )),.UNSPECIFIED.,.F.,.F.,.F.,(2,2),(12,12),(-2.,-0.),(0.,
    6.303048278758),.PIECEWISE_BEZIER_KNOTS.);
#978 = CARTESIAN_POINT('',(-8.250000005266,2.310901535839E-03,
    3.975119405215E-31));
#979 = CARTESIAN_POINT('',(-8.501319990312,-4.709869146072,
    4.034657430517E-29));
#980 = CARTESIAN_POINT('',(-5.792692544899,-9.73652301308,
    -3.707667147624E-16));
#981 = CARTESIAN_POINT('',(0.211798807239,-13.01601721545,
    2.175164726606E-15));
#982 = CARTESIAN_POINT('',(8.189159895743,-12.11042339439,
    -6.344230452599E-15));
#983 = CARTESIAN_POINT('',(14.923284629692,-5.809089373771,
    1.165266817824E-14));
#984 = CARTESIAN_POINT('',(16.05219557088,4.36799251148,
    -1.45658352228E-14));
#985 = CARTESIAN_POINT('',(10.191264911542,12.56782678302,
    1.26884609052E-14));
#986 = CARTESIAN_POINT('',(1.27601578055,15.148721208932,
    -7.613076543119E-15));
#987 = CARTESIAN_POINT('',(-6.547980164141,12.25501064026,
    2.966133718098E-15));
#988 = CARTESIAN_POINT('',(-10.74737406672,6.28757586101,
    -6.179445246038E-16));
#989 = CARTESIAN_POINT('',(-11.00000002084,4.597266519301E-03,
    4.688181181488E-30));
#990 = CARTESIAN_POINT('',(-8.250000005266,2.310901535836E-03,2.));
#991 = CARTESIAN_POINT('',(-8.501319990312,-4.709869146072,2.));
#992 = CARTESIAN_POINT('',(-5.792692544899,-9.736523013081,2.));
#993 = CARTESIAN_POINT('',(0.211798807239,-13.01601721544,2.));
#994 = CARTESIAN_POINT('',(8.189159895744,-12.1104233944,2.));
#995 = CARTESIAN_POINT('',(14.923284629691,-5.809089373764,2.));
#996 = CARTESIAN_POINT('',(16.052195570881,4.367992511473,2.));
#997 = CARTESIAN_POINT('',(10.191264911541,12.567826783026,2.));
#998 = CARTESIAN_POINT('',(1.276015780551,15.148721208928,2.));
#999 = CARTESIAN_POINT('',(-6.547980164141,12.255010640262,2.));
#1000 = CARTESIAN_POINT('',(-10.74737406672,6.28757586101,2.));
#1001 = CARTESIAN_POINT('',(-11.00000002084,4.597266519304E-03,2.));
#1002 = ADVANCED_FACE('',(#1003),#1031,.F.);
#1003 = FACE_BOUND('',#1004,.T.);
#1004 = EDGE_LOOP('',(#1005,#1006,#1007,#1016,#1025,#1030));
#1005 = ORIENTED_EDGE('',*,*,#270,.F.);
#1006 = ORIENTED_EDGE('',*,*,#970,.T.);
#1007 = ORIENTED_EDGE('',*,*,#1008,.F.);
#1008 = EDGE_CURVE('',#1009,#952,#1011,.T.);
#1009 = VERTEX_POINT('',#1010);
#1010 = CARTESIAN_POINT('',(10.250001054895,0.,0.));
#1011 = CIRCLE('',#1012,10.250001054895);
#1012 = AXIS2_PLACEMENT_3D('',#1013,#1014,#1015);
#1013 = CARTESIAN_POINT('',(0.,0.,0.));
#1014 = DIRECTION('',(0.,0.,1.));
#1015 = DIRECTION('',(1.,0.,0.));
#1016 = ORIENTED_EDGE('',*,*,#1017,.F.);
#1017 = EDGE_CURVE('',#1018,#1009,#1020,.T.);
#1018 = VERTEX_POINT('',#1019);
#1019 = CARTESIAN_POINT('',(10.250000020874,-4.604067209108E-03,0.));
#1020 = CIRCLE('',#1021,10.250001054895);
#1021 = AXIS2_PLACEMENT_3D('',#1022,#1023,#1024);
#1022 = CARTESIAN_POINT('',(0.,0.,0.));
#1023 = DIRECTION('',(0.,0.,1.));
#1024 = DIRECTION('',(1.,0.,0.));
#1025 = ORIENTED_EDGE('',*,*,#1026,.T.);
#1026 = EDGE_CURVE('',#1018,#280,#1027,.T.);
#1027 = B_SPLINE_CURVE_WITH_KNOTS('',1,(#1028,#1029),.UNSPECIFIED.,.F.,
  .F.,(2,2),(-2.,-0.),.PIECEWISE_BEZIER_KNOTS.);
#1028 = CARTESIAN_POINT('',(10.250000020874,-4.604067209108E-03,0.));
#1029 = CARTESIAN_POINT('',(10.250000020874,-4.604067209108E-03,2.));
#1030 = ORIENTED_EDGE('',*,*,#279,.F.);
#1031 = CYLINDRICAL_SURFACE('',#1032,10.250001054895);
#1032 = AXIS2_PLACEMENT_3D('',#1033,#1034,#1035);
#1033 = CARTESIAN_POINT('',(0.,0.,0.));
#1034 = DIRECTION('',(-0.,-0.,-1.));
#1035 = DIRECTION('',(1.,0.,0.));
#1036 = ADVANCED_FACE('',(#1037),#1057,.T.);
#1037 = FACE_BOUND('',#1038,.T.);
#1038 = EDGE_LOOP('',(#1039,#1054,#1055,#1056));
#1039 = ORIENTED_EDGE('',*,*,#1040,.F.);
#1040 = EDGE_CURVE('',#817,#1018,#1041,.T.);
#1041 = B_SPLINE_CURVE_WITH_KNOTS('',11,(#1042,#1043,#1044,#1045,#1046,
    #1047,#1048,#1049,#1050,#1051,#1052,#1053),.UNSPECIFIED.,.F.,.F.,(12
    ,12),(0.,6.303048278758),.PIECEWISE_BEZIER_KNOTS.);
#1042 = CARTESIAN_POINT('',(7.500000005274,-2.314320029167E-03,0.));
#1043 = CARTESIAN_POINT('',(7.751321942962,4.281466420289,0.));
#1044 = CARTESIAN_POINT('',(5.311809972499,8.879731915104,0.));
#1045 = CARTESIAN_POINT('',(-0.153894935632,11.918655377153,0.));
#1046 = CARTESIAN_POINT('',(-7.473048206307,11.148872157656,0.));
#1047 = CARTESIAN_POINT('',(-13.71639783572,5.41255086559,0.));
#1048 = CARTESIAN_POINT('',(-14.84531418826,-3.971437540887,0.));
#1049 = CARTESIAN_POINT('',(-9.475166338582,-11.6062657832,0.));
#1050 = CARTESIAN_POINT('',(-1.218126872102,-14.05135858524,0.));
#1051 = CARTESIAN_POINT('',(6.067085913383,-11.39822610056,0.));
#1052 = CARTESIAN_POINT('',(9.997370182201,-5.859183357696,0.));
#1053 = CARTESIAN_POINT('',(10.250000020874,-4.604067209108E-03,0.));
#1054 = ORIENTED_EDGE('',*,*,#842,.T.);
#1055 = ORIENTED_EDGE('',*,*,#288,.T.);
#1056 = ORIENTED_EDGE('',*,*,#1026,.F.);
#1057 = B_SPLINE_SURFACE_WITH_KNOTS('',1,11,(
    (#1058,#1059,#1060,#1061,#1062,#1063,#1064,#1065,#1066,#1067,#1068
      ,#1069)
    ,(#1070,#1071,#1072,#1073,#1074,#1075,#1076,#1077,#1078,#1079,#1080
      ,#1081
    )),.UNSPECIFIED.,.F.,.F.,.F.,(2,2),(12,12),(-2.,-0.),(0.,
    6.303048278758),.PIECEWISE_BEZIER_KNOTS.);
#1058 = CARTESIAN_POINT('',(7.500000005274,-2.314320029167E-03,0.));
#1059 = CARTESIAN_POINT('',(7.751321942962,4.281466420289,0.));
#1060 = CARTESIAN_POINT('',(5.311809972499,8.879731915104,0.));
#1061 = CARTESIAN_POINT('',(-0.153894935632,11.918655377153,0.));
#1062 = CARTESIAN_POINT('',(-7.473048206307,11.148872157656,0.));
#1063 = CARTESIAN_POINT('',(-13.71639783572,5.41255086559,0.));
#1064 = CARTESIAN_POINT('',(-14.84531418826,-3.971437540887,0.));
#1065 = CARTESIAN_POINT('',(-9.475166338582,-11.6062657832,0.));
#1066 = CARTESIAN_POINT('',(-1.218126872102,-14.05135858524,0.));
#1067 = CARTESIAN_POINT('',(6.067085913383,-11.39822610056,0.));
#1068 = CARTESIAN_POINT('',(9.997370182201,-5.859183357696,0.));
#1069 = CARTESIAN_POINT('',(10.250000020874,-4.604067209108E-03,0.));
#1070 = CARTESIAN_POINT('',(7.500000005274,-2.314320029167E-03,2.));
#1071 = CARTESIAN_POINT('',(7.751321942963,4.281466420289,2.));
#1072 = CARTESIAN_POINT('',(5.311809972499,8.879731915104,2.));
#1073 = CARTESIAN_POINT('',(-0.153894935632,11.918655377154,2.));
#1074 = CARTESIAN_POINT('',(-7.473048206308,11.148872157655,2.));
#1075 = CARTESIAN_POINT('',(-13.71639783572,5.412550865591,2.));
#1076 = CARTESIAN_POINT('',(-14.84531418827,-3.971437540889,2.));
#1077 = CARTESIAN_POINT('',(-9.475166338581,-11.6062657832,2.));
#1078 = CARTESIAN_POINT('',(-1.218126872103,-14.05135858524,2.));
#1079 = CARTESIAN_POINT('',(6.067085913383,-11.39822610056,2.));
#1080 = CARTESIAN_POINT('',(9.997370182201,-5.859183357696,2.));
#1081 = CARTESIAN_POINT('',(10.250000020874,-4.604067209108E-03,2.));
#1082 = ADVANCED_FACE('',(#1083,#1093,#1098,#1106),#1115,.T.);
#1083 = FACE_BOUND('',#1084,.T.);
#1084 = EDGE_LOOP('',(#1085,#1086,#1087,#1088,#1089,#1090,#1091,#1092));
#1085 = ORIENTED_EDGE('',*,*,#416,.T.);
#1086 = ORIENTED_EDGE('',*,*,#367,.F.);
#1087 = ORIENTED_EDGE('',*,*,#311,.T.);
#1088 = ORIENTED_EDGE('',*,*,#342,.T.);
#1089 = ORIENTED_EDGE('',*,*,#392,.T.);
#1090 = ORIENTED_EDGE('',*,*,#440,.T.);
#1091 = ORIENTED_EDGE('',*,*,#490,.T.);
#1092 = ORIENTED_EDGE('',*,*,#465,.F.);
#1093 = FACE_BOUND('',#1094,.T.);
#1094 = EDGE_LOOP('',(#1095,#1096,#1097));
#1095 = ORIENTED_EDGE('',*,*,#515,.F.);
#1096 = ORIENTED_EDGE('',*,*,#524,.F.);
#1097 = ORIENTED_EDGE('',*,*,#533,.F.);
#1098 = FACE_BOUND('',#1099,.T.);
#1099 = EDGE_LOOP('',(#1100,#1101,#1102,#1103,#1104,#1105));
#1100 = ORIENTED_EDGE('',*,*,#644,.T.);
#1101 = ORIENTED_EDGE('',*,*,#613,.T.);
#1102 = ORIENTED_EDGE('',*,*,#559,.F.);
#1103 = ORIENTED_EDGE('',*,*,#770,.F.);
#1104 = ORIENTED_EDGE('',*,*,#751,.F.);
#1105 = ORIENTED_EDGE('',*,*,#699,.T.);
#1106 = FACE_BOUND('',#1107,.T.);
#1107 = EDGE_LOOP('',(#1108,#1109,#1110,#1111,#1112,#1113,#1114));
#1108 = ORIENTED_EDGE('',*,*,#882,.F.);
#1109 = ORIENTED_EDGE('',*,*,#814,.T.);
#1110 = ORIENTED_EDGE('',*,*,#1040,.T.);
#1111 = ORIENTED_EDGE('',*,*,#1017,.T.);
#1112 = ORIENTED_EDGE('',*,*,#1008,.T.);
#1113 = ORIENTED_EDGE('',*,*,#951,.F.);
#1114 = ORIENTED_EDGE('',*,*,#899,.F.);
#1115 = PLANE('',#1116);
#1116 = AXIS2_PLACEMENT_3D('',#1117,#1118,#1119);
#1117 = CARTESIAN_POINT('',(1.02678535646E-04,1.276714886936E-04,0.));
#1118 = DIRECTION('',(-0.,-0.,-1.));
#1119 = DIRECTION('',(-1.,0.,0.));
#1120 = ( GEOMETRIC_REPRESENTATION_CONTEXT(3) 
GLOBAL_UNCERTAINTY_ASSIGNED_CONTEXT((#1124)) 
GLOBAL_UNIT_ASSIGNED_CONTEXT((#1121,#1122,#1123)) REPRESENTATION_CONTEXT
('Context #1','3D Context with UNIT and UNCERTAINTY') );
#1121 = ( LENGTH_UNIT() NAMED_UNIT(*) SI_UNIT(.MILLI.,.METRE.) );
#1122 = ( NAMED_UNIT(*) PLANE_ANGLE_UNIT() SI_UNIT($,.RADIAN.) );
#1123 = ( NAMED_UNIT(*) SI_UNIT($,.STERADIAN.) SOLID_ANGLE_UNIT() );
#1124 = UNCERTAINTY_MEASURE_WITH_UNIT(LENGTH_MEASURE(1.E-05),#1121,
  'distance_accuracy_value','confusion accuracy');
#1125 = PRODUCT_RELATED_PRODUCT_CATEGORY('part',$,(#7));
#1126 = MECHANICAL_DESIGN_GEOMETRIC_PRESENTATION_REPRESENTATION('',(
    #1127),#1120);
#1127 = STYLED_ITEM('color',(#1128),#15);
#1128 = PRESENTATION_STYLE_ASSIGNMENT((#1129,#1135));
#1129 = SURFACE_STYLE_USAGE(.BOTH.,#1130);
#1130 = SURFACE_SIDE_STYLE('',(#1131));
#1131 = SURFACE_STYLE_FILL_AREA(#1132);
#1132 = FILL_AREA_STYLE('',(#1133));
#1133 = FILL_AREA_STYLE_COLOUR('',#1134);
#1134 = COLOUR_RGB('',0.447058818107,0.474509808674,0.501960817233);
#1135 = CURVE_STYLE('',#1136,POSITIVE_LENGTH_MEASURE(0.1),#1137);
#1136 = DRAUGHTING_PRE_DEFINED_CURVE_FONT('continuous');
#1137 = COLOUR_RGB('',9.803921802644E-02,9.803921802644E-02,
  9.803921802644E-02);
ENDSEC;
END-ISO-10303-21;
