ISO-10303-21;
HEADER;
FILE_DESCRIPTION(('FreeCAD Model'),'2;1');
FILE_NAME('Open CASCADE Shape Model','2026-01-22T09:22:14',(''),(''),
  'Open CASCADE STEP processor 7.8','FreeCAD','Unknown');
FILE_SCHEMA(('AUTOMOTIVE_DESIGN { 1 0 10303 214 1 1 1 1 }'));
ENDSEC;
DATA;
#1 = APPLICATION_PROTOCOL_DEFINITION('international standard',
  'automotive_design',2000,#2);
#2 = APPLICATION_CONTEXT(
  'core data for automotive mechanical design processes');
#3 = SHAPE_DEFINITION_REPRESENTATION(#4,#10);
#4 = PRODUCT_DEFINITION_SHAPE('','',#5);
#5 = PRODUCT_DEFINITION('design','',#6,#9);
#6 = PRODUCT_DEFINITION_FORMATION('','',#7);
#7 = PRODUCT('Pocket020','Pocket020','',(#8));
#8 = PRODUCT_CONTEXT('',#2,'mechanical');
#9 = PRODUCT_DEFINITION_CONTEXT('part definition',#2,'design');
#10 = ADVANCED_BREP_SHAPE_REPRESENTATION('',(#11,#15),#479);
#11 = AXIS2_PLACEMENT_3D('',#12,#13,#14);
#12 = CARTESIAN_POINT('',(0.,0.,0.));
#13 = DIRECTION('',(0.,0.,1.));
#14 = DIRECTION('',(1.,0.,-0.));
#15 = MANIFOLD_SOLID_BREP('',#16);
#16 = CLOSED_SHELL('',(#17,#136,#229,#251,#338,#359,#411,#433,#450,#467)
  );
#17 = ADVANCED_FACE('',(#18),#91,.T.);
#18 = FACE_BOUND('',#19,.T.);
#19 = EDGE_LOOP('',(#20,#49,#59,#86));
#20 = ORIENTED_EDGE('',*,*,#21,.F.);
#21 = EDGE_CURVE('',#22,#24,#26,.T.);
#22 = VERTEX_POINT('',#23);
#23 = CARTESIAN_POINT('',(-5.625527318007,3.256292737817,2.5));
#24 = VERTEX_POINT('',#25);
#25 = CARTESIAN_POINT('',(16.000001756898,-3.35846466551E-02,2.5));
#26 = B_SPLINE_CURVE_WITH_KNOTS('',11,(#27,#28,#29,#30,#31,#32,#33,#34,
    #35,#36,#37,#38,#39,#40,#41,#42,#43,#44,#45,#46,#47,#48),
  .UNSPECIFIED.,.F.,.F.,(12,10,12),(0.,6.303048278758,12.606096557517),
  .UNSPECIFIED.);
#27 = CARTESIAN_POINT('',(4.,-6.572867250476E-15,2.5));
#28 = CARTESIAN_POINT('',(4.545454545581,2.283211733289,2.5));
#29 = CARTESIAN_POINT('',(3.657701677579,5.250925658996,2.5));
#30 = CARTESIAN_POINT('',(0.615523202125,7.912229303432,2.5));
#31 = CARTESIAN_POINT('',(-4.499564035211,8.47034276637,2.499999999999)
  );
#32 = CARTESIAN_POINT('',(-10.02765838796,5.271476853304,2.500000000001)
  );
#33 = CARTESIAN_POINT('',(-12.49193955846,-2.123723166813,2.499999999999
    ));
#34 = CARTESIAN_POINT('',(-8.870621158169,-9.466290321412,2.500000000001
    ));
#35 = CARTESIAN_POINT('',(-1.70954144148,-12.56530117167,2.499999999999)
  );
#36 = CARTESIAN_POINT('',(5.303224109039,-10.74719991715,2.5));
#37 = CARTESIAN_POINT('',(9.444780208663,-5.72755756071,2.5));
#38 = CARTESIAN_POINT('',(10.555220701936,5.693364134959,2.5));
#39 = CARTESIAN_POINT('',(7.524256703948,12.094383891989,2.5));
#40 = CARTESIAN_POINT('',(0.177142380669,16.692537576221,2.499999999999)
  );
#41 = CARTESIAN_POINT('',(-10.2068343122,16.179034291766,2.500000000002)
  );
#42 = CARTESIAN_POINT('',(-19.67400881256,8.470984142877,2.499999999998)
  );
#43 = CARTESIAN_POINT('',(-22.15603982745,-5.26920281518,2.500000000002)
  );
#44 = CARTESIAN_POINT('',(-14.62093658266,-17.14292037654,2.499999999999
    ));
#45 = CARTESIAN_POINT('',(-2.197051821696,-21.34301425709,2.500000000001
    ));
#46 = CARTESIAN_POINT('',(9.131416575759,-17.61218738702,2.5));
#47 = CARTESIAN_POINT('',(15.435363552115,-9.171292080951,2.5));
#48 = CARTESIAN_POINT('',(16.000001756898,-3.35846466551E-02,2.5));
#49 = ORIENTED_EDGE('',*,*,#50,.F.);
#50 = EDGE_CURVE('',#51,#22,#53,.T.);
#51 = VERTEX_POINT('',#52);
#52 = CARTESIAN_POINT('',(-5.625527318007,3.256292737817,
    1.254359327002E-17));
#53 = B_SPLINE_CURVE_WITH_KNOTS('',4,(#54,#55,#56,#57,#58),
  .UNSPECIFIED.,.F.,.F.,(5,5),(0.,1.),.PIECEWISE_BEZIER_KNOTS.);
#54 = CARTESIAN_POINT('',(-5.625527318007,3.256292737817,
    2.22044604925E-16));
#55 = CARTESIAN_POINT('',(-5.625527318007,3.256292737817,0.625));
#56 = CARTESIAN_POINT('',(-5.625527318007,3.256292737817,1.25));
#57 = CARTESIAN_POINT('',(-5.625527318007,3.256292737817,1.875));
#58 = CARTESIAN_POINT('',(-5.625527318007,3.256292737817,2.5));
#59 = ORIENTED_EDGE('',*,*,#60,.T.);
#60 = EDGE_CURVE('',#51,#61,#63,.T.);
#61 = VERTEX_POINT('',#62);
#62 = CARTESIAN_POINT('',(16.000001756898,-3.358464665509E-02,
    6.119136938275E-30));
#63 = B_SPLINE_CURVE_WITH_KNOTS('',11,(#64,#65,#66,#67,#68,#69,#70,#71,
    #72,#73,#74,#75,#76,#77,#78,#79,#80,#81,#82,#83,#84,#85),
  .UNSPECIFIED.,.F.,.F.,(12,10,12),(0.,6.303048278758,12.606096557517),
  .UNSPECIFIED.);
#64 = CARTESIAN_POINT('',(4.,-6.572867250476E-15,-7.346267179871E-30));
#65 = CARTESIAN_POINT('',(4.545454545581,2.283211733289,
    -7.277870388834E-17));
#66 = CARTESIAN_POINT('',(3.657701677579,5.250925658996,
    -1.127157288412E-15));
#67 = CARTESIAN_POINT('',(0.615523202124,7.912229303432,
    7.635227591178E-15));
#68 = CARTESIAN_POINT('',(-4.49956403521,8.47034276637,-2.3068540267E-14
    ));
#69 = CARTESIAN_POINT('',(-10.02765838797,5.271476853304,
    4.280706495842E-14));
#70 = CARTESIAN_POINT('',(-12.49193955846,-2.123723166813,
    -5.337372058127E-14));
#71 = CARTESIAN_POINT('',(-8.870621158171,-9.466290321412,
    4.574657689048E-14));
#72 = CARTESIAN_POINT('',(-1.709541441479,-12.56530117167,
    -2.628044086216E-14));
#73 = CARTESIAN_POINT('',(5.303224109038,-10.74719991715,
    8.980247159514E-15));
#74 = CARTESIAN_POINT('',(9.444780208664,-5.72755756071,
    -8.005657427441E-16));
#75 = CARTESIAN_POINT('',(10.555220701935,5.693364134959,
    -8.005657428018E-16));
#76 = CARTESIAN_POINT('',(7.52425670395,12.094383891989,
    7.555506426871E-15));
#77 = CARTESIAN_POINT('',(0.177142380663,16.692537576221,
    -1.792196189641E-14));
#78 = CARTESIAN_POINT('',(-10.20683431219,16.179034291767,
    2.136767990614E-14));
#79 = CARTESIAN_POINT('',(-19.67400881257,8.470984142877,
    -8.596154690855E-15));
#80 = CARTESIAN_POINT('',(-22.15603982744,-5.269202815179,
    -1.316489240521E-14));
#81 = CARTESIAN_POINT('',(-14.62093658267,-17.14292037654,
    2.568925370345E-14));
#82 = CARTESIAN_POINT('',(-2.19705182169,-21.34301425709,
    -2.161944879125E-14));
#83 = CARTESIAN_POINT('',(9.131416575757,-17.61218738702,
    1.027076857492E-14));
#84 = CARTESIAN_POINT('',(15.435363552116,-9.17129208095,
    -2.447346592089E-15));
#85 = CARTESIAN_POINT('',(16.000001756898,-3.358464665509E-02,
    6.119136938275E-30));
#86 = ORIENTED_EDGE('',*,*,#87,.F.);
#87 = EDGE_CURVE('',#24,#61,#88,.T.);
#88 = B_SPLINE_CURVE_WITH_KNOTS('',1,(#89,#90),.UNSPECIFIED.,.F.,.F.,(2,
    2),(0.,2.5),.PIECEWISE_BEZIER_KNOTS.);
#89 = CARTESIAN_POINT('',(16.000001756898,-3.35846466551E-02,2.5));
#90 = CARTESIAN_POINT('',(16.000001756898,-3.358464665509E-02,
    6.119136938275E-30));
#91 = B_SPLINE_SURFACE_WITH_KNOTS('',1,11,(
    (#92,#93,#94,#95,#96,#97,#98,#99,#100,#101,#102,#103,#104,#105,#106
      ,#107,#108,#109,#110,#111,#112,#113)
    ,(#114,#115,#116,#117,#118,#119,#120,#121,#122,#123,#124,#125,#126
      ,#127,#128,#129,#130,#131,#132,#133,#134,#135
  )),.UNSPECIFIED.,.F.,.F.,.F.,(2,2),(12,10,12),(0.,2.5),(0.,
    6.303048278758,12.606096557517),.UNSPECIFIED.);
#92 = CARTESIAN_POINT('',(4.,-6.572867250476E-15,2.5));
#93 = CARTESIAN_POINT('',(4.545454545581,2.283211733289,2.5));
#94 = CARTESIAN_POINT('',(3.657701677579,5.250925658996,2.5));
#95 = CARTESIAN_POINT('',(0.615523202125,7.912229303432,2.5));
#96 = CARTESIAN_POINT('',(-4.499564035211,8.47034276637,2.499999999999)
  );
#97 = CARTESIAN_POINT('',(-10.02765838796,5.271476853304,2.500000000001)
  );
#98 = CARTESIAN_POINT('',(-12.49193955846,-2.123723166813,2.499999999999
    ));
#99 = CARTESIAN_POINT('',(-8.870621158169,-9.466290321412,2.500000000001
    ));
#100 = CARTESIAN_POINT('',(-1.70954144148,-12.56530117167,2.499999999999
    ));
#101 = CARTESIAN_POINT('',(5.303224109039,-10.74719991715,2.5));
#102 = CARTESIAN_POINT('',(9.444780208663,-5.72755756071,2.5));
#103 = CARTESIAN_POINT('',(10.555220701936,5.693364134959,2.5));
#104 = CARTESIAN_POINT('',(7.524256703948,12.094383891989,2.5));
#105 = CARTESIAN_POINT('',(0.177142380669,16.692537576221,2.499999999999
    ));
#106 = CARTESIAN_POINT('',(-10.2068343122,16.179034291766,2.500000000002
    ));
#107 = CARTESIAN_POINT('',(-19.67400881256,8.470984142877,2.499999999998
    ));
#108 = CARTESIAN_POINT('',(-22.15603982745,-5.26920281518,2.500000000002
    ));
#109 = CARTESIAN_POINT('',(-14.62093658266,-17.14292037654,
    2.499999999999));
#110 = CARTESIAN_POINT('',(-2.197051821696,-21.34301425709,
    2.500000000001));
#111 = CARTESIAN_POINT('',(9.131416575759,-17.61218738702,2.5));
#112 = CARTESIAN_POINT('',(15.435363552115,-9.171292080951,2.5));
#113 = CARTESIAN_POINT('',(16.000001756898,-3.35846466551E-02,2.5));
#114 = CARTESIAN_POINT('',(4.,-6.572867250476E-15,-7.346267179871E-30));
#115 = CARTESIAN_POINT('',(4.545454545581,2.283211733289,
    -7.277870388834E-17));
#116 = CARTESIAN_POINT('',(3.657701677579,5.250925658996,
    -1.127157288412E-15));
#117 = CARTESIAN_POINT('',(0.615523202124,7.912229303432,
    7.635227591178E-15));
#118 = CARTESIAN_POINT('',(-4.49956403521,8.47034276637,
    -2.3068540267E-14));
#119 = CARTESIAN_POINT('',(-10.02765838797,5.271476853304,
    4.280706495842E-14));
#120 = CARTESIAN_POINT('',(-12.49193955846,-2.123723166813,
    -5.337372058127E-14));
#121 = CARTESIAN_POINT('',(-8.870621158171,-9.466290321412,
    4.574657689048E-14));
#122 = CARTESIAN_POINT('',(-1.709541441479,-12.56530117167,
    -2.628044086216E-14));
#123 = CARTESIAN_POINT('',(5.303224109038,-10.74719991715,
    8.980247159514E-15));
#124 = CARTESIAN_POINT('',(9.444780208664,-5.72755756071,
    -8.005657427441E-16));
#125 = CARTESIAN_POINT('',(10.555220701935,5.693364134959,
    -8.005657428018E-16));
#126 = CARTESIAN_POINT('',(7.52425670395,12.094383891989,
    7.555506426871E-15));
#127 = CARTESIAN_POINT('',(0.177142380663,16.692537576221,
    -1.792196189641E-14));
#128 = CARTESIAN_POINT('',(-10.20683431219,16.179034291767,
    2.136767990614E-14));
#129 = CARTESIAN_POINT('',(-19.67400881257,8.470984142877,
    -8.596154690855E-15));
#130 = CARTESIAN_POINT('',(-22.15603982744,-5.269202815179,
    -1.316489240521E-14));
#131 = CARTESIAN_POINT('',(-14.62093658267,-17.14292037654,
    2.568925370345E-14));
#132 = CARTESIAN_POINT('',(-2.19705182169,-21.34301425709,
    -2.161944879125E-14));
#133 = CARTESIAN_POINT('',(9.131416575757,-17.61218738702,
    1.027076857492E-14));
#134 = CARTESIAN_POINT('',(15.435363552116,-9.17129208095,
    -2.447346592089E-15));
#135 = CARTESIAN_POINT('',(16.000001756898,-3.358464665509E-02,
    6.119136938275E-30));
#136 = ADVANCED_FACE('',(#137,#190),#224,.T.);
#137 = FACE_BOUND('',#138,.T.);
#138 = EDGE_LOOP('',(#139,#150,#157,#158,#165));
#139 = ORIENTED_EDGE('',*,*,#140,.F.);
#140 = EDGE_CURVE('',#141,#143,#145,.T.);
#141 = VERTEX_POINT('',#142);
#142 = CARTESIAN_POINT('',(6.5,0.,2.5));
#143 = VERTEX_POINT('',#144);
#144 = CARTESIAN_POINT('',(-3.260019966694,-5.623368191463,2.5));
#145 = CIRCLE('',#146,6.5);
#146 = AXIS2_PLACEMENT_3D('',#147,#148,#149);
#147 = CARTESIAN_POINT('',(0.,0.,2.5));
#148 = DIRECTION('',(0.,0.,-1.));
#149 = DIRECTION('',(1.,0.,0.));
#150 = ORIENTED_EDGE('',*,*,#151,.F.);
#151 = EDGE_CURVE('',#22,#141,#152,.T.);
#152 = CIRCLE('',#153,6.5);
#153 = AXIS2_PLACEMENT_3D('',#154,#155,#156);
#154 = CARTESIAN_POINT('',(0.,0.,2.5));
#155 = DIRECTION('',(0.,0.,-1.));
#156 = DIRECTION('',(1.,0.,0.));
#157 = ORIENTED_EDGE('',*,*,#21,.T.);
#158 = ORIENTED_EDGE('',*,*,#159,.F.);
#159 = EDGE_CURVE('',#160,#24,#162,.T.);
#160 = VERTEX_POINT('',#161);
#161 = CARTESIAN_POINT('',(14.500001765108,-3.374158425629E-02,2.5));
#162 = B_SPLINE_CURVE_WITH_KNOTS('',1,(#163,#164),.UNSPECIFIED.,.F.,.F.,
  (2,2),(0.,1.5),.PIECEWISE_BEZIER_KNOTS.);
#163 = CARTESIAN_POINT('',(14.500001765108,-3.374158425629E-02,2.5));
#164 = CARTESIAN_POINT('',(16.000001756898,-3.35846466551E-02,2.5));
#165 = ORIENTED_EDGE('',*,*,#166,.F.);
#166 = EDGE_CURVE('',#143,#160,#167,.T.);
#167 = B_SPLINE_CURVE_WITH_KNOTS('',11,(#168,#169,#170,#171,#172,#173,
    #174,#175,#176,#177,#178,#179,#180,#181,#182,#183,#184,#185,#186,
    #187,#188,#189),.UNSPECIFIED.,.F.,.F.,(12,10,12),(0.,6.303048278758,
    12.606096557517),.UNSPECIFIED.);
#168 = CARTESIAN_POINT('',(2.5,1.684416495173E-15,2.5));
#169 = CARTESIAN_POINT('',(3.045454545581,1.426406340015,2.5));
#170 = CARTESIAN_POINT('',(2.695937229768,3.537334314735,2.5));
#171 = CARTESIAN_POINT('',(0.731346514426,5.717493768561,2.5));
#172 = CARTESIAN_POINT('',(-3.067308133489,6.547242402889,2.499999999999
    ));
#173 = CARTESIAN_POINT('',(-7.613849743767,4.47843342356,2.500000000001)
  );
#174 = CARTESIAN_POINT('',(-10.07817383116,-1.330549723514,
    2.499999999999));
#175 = CARTESIAN_POINT('',(-7.438468870746,-7.54311321466,2.500000000001
    ));
#176 = CARTESIAN_POINT('',(-1.593835914359,-10.37055975421,
    2.499999999999));
#177 = CARTESIAN_POINT('',(4.341368061599,-9.033660278718,2.5));
#178 = CARTESIAN_POINT('',(7.944734576673,-4.870832325576,2.5));
#179 = CARTESIAN_POINT('',(9.055266338181,4.836479117461,2.5));
#180 = CARTESIAN_POINT('',(6.562583191189,10.380741855805,2.5));
#181 = CARTESIAN_POINT('',(0.29308158453,14.497808656337,2.499999999999)
  );
#182 = CARTESIAN_POINT('',(-8.774477601813,14.256009874042,
    2.500000000002));
#183 = CARTESIAN_POINT('',(-17.26015944291,7.678067530417,2.499999999998
    ));
#184 = CARTESIAN_POINT('',(-19.74231631788,-4.475903723545,
    2.500000000002));
#185 = CARTESIAN_POINT('',(-13.18888463213,-15.21966939561,
    2.499999999999));
#186 = CARTESIAN_POINT('',(-2.081459980386,-19.14826732756,
    2.500000000001));
#187 = CARTESIAN_POINT('',(8.169472199074,-15.89869766058,2.5));
#188 = CARTESIAN_POINT('',(13.935273917058,-8.314644147379,2.5));
#189 = CARTESIAN_POINT('',(14.500001765108,-3.374158425629E-02,2.5));
#190 = FACE_BOUND('',#191,.T.);
#191 = EDGE_LOOP('',(#192,#202,#210,#218));
#192 = ORIENTED_EDGE('',*,*,#193,.T.);
#193 = EDGE_CURVE('',#194,#196,#198,.T.);
#194 = VERTEX_POINT('',#195);
#195 = CARTESIAN_POINT('',(2.5,2.5,2.5));
#196 = VERTEX_POINT('',#197);
#197 = CARTESIAN_POINT('',(2.5,-2.5,2.5));
#198 = LINE('',#199,#200);
#199 = CARTESIAN_POINT('',(2.5,-2.301634261349,2.5));
#200 = VECTOR('',#201,1.);
#201 = DIRECTION('',(0.,-1.,0.));
#202 = ORIENTED_EDGE('',*,*,#203,.T.);
#203 = EDGE_CURVE('',#196,#204,#206,.T.);
#204 = VERTEX_POINT('',#205);
#205 = CARTESIAN_POINT('',(-2.5,-2.5,2.5));
#206 = LINE('',#207,#208);
#207 = CARTESIAN_POINT('',(-0.895754931969,-2.5,2.5));
#208 = VECTOR('',#209,1.);
#209 = DIRECTION('',(-1.,0.,2.526572241163E-16));
#210 = ORIENTED_EDGE('',*,*,#211,.T.);
#211 = EDGE_CURVE('',#204,#212,#214,.T.);
#212 = VERTEX_POINT('',#213);
#213 = CARTESIAN_POINT('',(-2.5,2.5,2.5));
#214 = LINE('',#215,#216);
#215 = CARTESIAN_POINT('',(-2.5,0.198365738651,2.5));
#216 = VECTOR('',#217,1.);
#217 = DIRECTION('',(-0.,1.,0.));
#218 = ORIENTED_EDGE('',*,*,#219,.T.);
#219 = EDGE_CURVE('',#212,#194,#220,.T.);
#220 = LINE('',#221,#222);
#221 = CARTESIAN_POINT('',(1.604245068031,2.5,2.5));
#222 = VECTOR('',#223,1.);
#223 = DIRECTION('',(1.,0.,-2.526572241163E-16));
#224 = PLANE('',#225);
#225 = AXIS2_PLACEMENT_3D('',#226,#227,#228);
#226 = CARTESIAN_POINT('',(0.708490136063,-2.103268522697,2.5));
#227 = DIRECTION('',(2.526572241163E-16,0.,1.));
#228 = DIRECTION('',(1.,0.,-2.526572241163E-16));
#229 = ADVANCED_FACE('',(#230),#246,.T.);
#230 = FACE_BOUND('',#231,.T.);
#231 = EDGE_LOOP('',(#232,#233,#240,#245));
#232 = ORIENTED_EDGE('',*,*,#87,.T.);
#233 = ORIENTED_EDGE('',*,*,#234,.T.);
#234 = EDGE_CURVE('',#61,#235,#237,.T.);
#235 = VERTEX_POINT('',#236);
#236 = CARTESIAN_POINT('',(14.500001765108,-3.374158425628E-02,
    6.119136938275E-30));
#237 = B_SPLINE_CURVE_WITH_KNOTS('',1,(#238,#239),.UNSPECIFIED.,.F.,.F.,
  (2,2),(0.,1.5),.PIECEWISE_BEZIER_KNOTS.);
#238 = CARTESIAN_POINT('',(16.000001756898,-3.358464665509E-02,
    6.119136938275E-30));
#239 = CARTESIAN_POINT('',(14.500001765108,-3.374158425629E-02,
    6.119136938275E-30));
#240 = ORIENTED_EDGE('',*,*,#241,.T.);
#241 = EDGE_CURVE('',#235,#160,#242,.T.);
#242 = B_SPLINE_CURVE_WITH_KNOTS('',1,(#243,#244),.UNSPECIFIED.,.F.,.F.,
  (2,2),(0.,2.5),.PIECEWISE_BEZIER_KNOTS.);
#243 = CARTESIAN_POINT('',(14.500001765108,-3.374158425628E-02,
    6.119136938275E-30));
#244 = CARTESIAN_POINT('',(14.500001765108,-3.374158425629E-02,2.5));
#245 = ORIENTED_EDGE('',*,*,#159,.T.);
#246 = PLANE('',#247);
#247 = AXIS2_PLACEMENT_3D('',#248,#249,#250);
#248 = CARTESIAN_POINT('',(15.250001761003,-3.366311545575E-02,1.25));
#249 = DIRECTION('',(-1.046250674611E-04,0.999999994527,0.));
#250 = DIRECTION('',(0.,0.,1.));
#251 = ADVANCED_FACE('',(#252,#299),#333,.T.);
#252 = FACE_BOUND('',#253,.T.);
#253 = EDGE_LOOP('',(#254,#265,#290,#291,#292));
#254 = ORIENTED_EDGE('',*,*,#255,.F.);
#255 = EDGE_CURVE('',#256,#258,#260,.T.);
#256 = VERTEX_POINT('',#257);
#257 = CARTESIAN_POINT('',(-3.260019966694,-5.623368191463,
    2.034675451743E-17));
#258 = VERTEX_POINT('',#259);
#259 = CARTESIAN_POINT('',(6.5,0.,0.));
#260 = CIRCLE('',#261,6.5);
#261 = AXIS2_PLACEMENT_3D('',#262,#263,#264);
#262 = CARTESIAN_POINT('',(0.,0.,0.));
#263 = DIRECTION('',(0.,0.,1.));
#264 = DIRECTION('',(1.,0.,0.));
#265 = ORIENTED_EDGE('',*,*,#266,.T.);
#266 = EDGE_CURVE('',#256,#235,#267,.T.);
#267 = B_SPLINE_CURVE_WITH_KNOTS('',11,(#268,#269,#270,#271,#272,#273,
    #274,#275,#276,#277,#278,#279,#280,#281,#282,#283,#284,#285,#286,
    #287,#288,#289),.UNSPECIFIED.,.F.,.F.,(12,10,12),(0.,6.303048278758,
    12.606096557517),.UNSPECIFIED.);
#268 = CARTESIAN_POINT('',(2.5,-7.230327447871E-15,-7.346267179871E-30)
  );
#269 = CARTESIAN_POINT('',(3.045454545581,1.426406340015,
    -7.277870388834E-17));
#270 = CARTESIAN_POINT('',(2.695937229768,3.537334314735,
    -1.127157288412E-15));
#271 = CARTESIAN_POINT('',(0.731346514426,5.717493768561,
    7.635227591178E-15));
#272 = CARTESIAN_POINT('',(-3.067308133489,6.54724240289,
    -2.3068540267E-14));
#273 = CARTESIAN_POINT('',(-7.613849743766,4.478433423558,
    4.280706495842E-14));
#274 = CARTESIAN_POINT('',(-10.07817383116,-1.330549723512,
    -5.337372058127E-14));
#275 = CARTESIAN_POINT('',(-7.438468870746,-7.543113214662,
    4.574657689048E-14));
#276 = CARTESIAN_POINT('',(-1.593835914359,-10.37055975421,
    -2.628044086216E-14));
#277 = CARTESIAN_POINT('',(4.341368061599,-9.033660278718,
    8.980247159514E-15));
#278 = CARTESIAN_POINT('',(7.944734576673,-4.870832325576,
    -8.005657427441E-16));
#279 = CARTESIAN_POINT('',(9.055266338181,4.836479117461,
    -8.005657428018E-16));
#280 = CARTESIAN_POINT('',(6.562583191189,10.380741855805,
    7.555506426871E-15));
#281 = CARTESIAN_POINT('',(0.293081584529,14.497808656336,
    -1.792196189641E-14));
#282 = CARTESIAN_POINT('',(-8.774477601812,14.256009874043,
    2.136767990614E-14));
#283 = CARTESIAN_POINT('',(-17.26015944291,7.678067530416,
    -8.596154690855E-15));
#284 = CARTESIAN_POINT('',(-19.74231631788,-4.475903723544,
    -1.316489240521E-14));
#285 = CARTESIAN_POINT('',(-13.18888463212,-15.21966939561,
    2.568925370345E-14));
#286 = CARTESIAN_POINT('',(-2.081459980387,-19.14826732756,
    -2.161944879125E-14));
#287 = CARTESIAN_POINT('',(8.169472199074,-15.89869766058,
    1.027076857492E-14));
#288 = CARTESIAN_POINT('',(13.935273917057,-8.314644147379,
    -2.447346592089E-15));
#289 = CARTESIAN_POINT('',(14.500001765108,-3.374158425629E-02,
    6.119136938275E-30));
#290 = ORIENTED_EDGE('',*,*,#234,.F.);
#291 = ORIENTED_EDGE('',*,*,#60,.F.);
#292 = ORIENTED_EDGE('',*,*,#293,.F.);
#293 = EDGE_CURVE('',#258,#51,#294,.T.);
#294 = CIRCLE('',#295,6.5);
#295 = AXIS2_PLACEMENT_3D('',#296,#297,#298);
#296 = CARTESIAN_POINT('',(0.,0.,0.));
#297 = DIRECTION('',(0.,0.,1.));
#298 = DIRECTION('',(1.,0.,0.));
#299 = FACE_BOUND('',#300,.T.);
#300 = EDGE_LOOP('',(#301,#311,#319,#327));
#301 = ORIENTED_EDGE('',*,*,#302,.T.);
#302 = EDGE_CURVE('',#303,#305,#307,.T.);
#303 = VERTEX_POINT('',#304);
#304 = CARTESIAN_POINT('',(-2.5,2.5,0.));
#305 = VERTEX_POINT('',#306);
#306 = CARTESIAN_POINT('',(-2.5,-2.5,0.));
#307 = LINE('',#308,#309);
#308 = CARTESIAN_POINT('',(-2.5,2.5,0.));
#309 = VECTOR('',#310,1.);
#310 = DIRECTION('',(0.,-1.,0.));
#311 = ORIENTED_EDGE('',*,*,#312,.T.);
#312 = EDGE_CURVE('',#305,#313,#315,.T.);
#313 = VERTEX_POINT('',#314);
#314 = CARTESIAN_POINT('',(2.5,-2.5,0.));
#315 = LINE('',#316,#317);
#316 = CARTESIAN_POINT('',(-2.5,-2.5,0.));
#317 = VECTOR('',#318,1.);
#318 = DIRECTION('',(1.,0.,0.));
#319 = ORIENTED_EDGE('',*,*,#320,.T.);
#320 = EDGE_CURVE('',#313,#321,#323,.T.);
#321 = VERTEX_POINT('',#322);
#322 = CARTESIAN_POINT('',(2.5,2.5,0.));
#323 = LINE('',#324,#325);
#324 = CARTESIAN_POINT('',(2.5,-2.5,0.));
#325 = VECTOR('',#326,1.);
#326 = DIRECTION('',(0.,1.,0.));
#327 = ORIENTED_EDGE('',*,*,#328,.T.);
#328 = EDGE_CURVE('',#321,#303,#329,.T.);
#329 = LINE('',#330,#331);
#330 = CARTESIAN_POINT('',(2.5,2.5,0.));
#331 = VECTOR('',#332,1.);
#332 = DIRECTION('',(-1.,0.,0.));
#333 = PLANE('',#334);
#334 = AXIS2_PLACEMENT_3D('',#335,#336,#337);
#335 = CARTESIAN_POINT('',(0.708490136063,-2.103268522697,
    -2.981421691211E-17));
#336 = DIRECTION('',(-0.,-0.,-1.));
#337 = DIRECTION('',(-1.,0.,0.));
#338 = ADVANCED_FACE('',(#339),#354,.T.);
#339 = FACE_BOUND('',#340,.F.);
#340 = EDGE_LOOP('',(#341,#342,#343,#344,#352,#353));
#341 = ORIENTED_EDGE('',*,*,#50,.F.);
#342 = ORIENTED_EDGE('',*,*,#293,.F.);
#343 = ORIENTED_EDGE('',*,*,#255,.F.);
#344 = ORIENTED_EDGE('',*,*,#345,.F.);
#345 = EDGE_CURVE('',#143,#256,#346,.T.);
#346 = B_SPLINE_CURVE_WITH_KNOTS('',4,(#347,#348,#349,#350,#351),
  .UNSPECIFIED.,.F.,.F.,(5,5),(0.,1.),.PIECEWISE_BEZIER_KNOTS.);
#347 = CARTESIAN_POINT('',(-3.260019966694,-5.623368191463,2.5));
#348 = CARTESIAN_POINT('',(-3.260019966694,-5.623368191463,1.875));
#349 = CARTESIAN_POINT('',(-3.260019966694,-5.623368191463,1.25));
#350 = CARTESIAN_POINT('',(-3.260019966694,-5.623368191463,0.625));
#351 = CARTESIAN_POINT('',(-3.260019966694,-5.623368191463,0.));
#352 = ORIENTED_EDGE('',*,*,#140,.F.);
#353 = ORIENTED_EDGE('',*,*,#151,.F.);
#354 = CYLINDRICAL_SURFACE('',#355,6.5);
#355 = AXIS2_PLACEMENT_3D('',#356,#357,#358);
#356 = CARTESIAN_POINT('',(0.,0.,0.));
#357 = DIRECTION('',(-0.,-0.,-1.));
#358 = DIRECTION('',(1.,0.,0.));
#359 = ADVANCED_FACE('',(#360),#366,.T.);
#360 = FACE_BOUND('',#361,.T.);
#361 = EDGE_LOOP('',(#362,#363,#364,#365));
#362 = ORIENTED_EDGE('',*,*,#266,.F.);
#363 = ORIENTED_EDGE('',*,*,#345,.F.);
#364 = ORIENTED_EDGE('',*,*,#166,.T.);
#365 = ORIENTED_EDGE('',*,*,#241,.F.);
#366 = B_SPLINE_SURFACE_WITH_KNOTS('',1,11,(
    (#367,#368,#369,#370,#371,#372,#373,#374,#375,#376,#377,#378,#379
      ,#380,#381,#382,#383,#384,#385,#386,#387,#388)
    ,(#389,#390,#391,#392,#393,#394,#395,#396,#397,#398,#399,#400,#401
      ,#402,#403,#404,#405,#406,#407,#408,#409,#410
  )),.UNSPECIFIED.,.F.,.F.,.F.,(2,2),(12,10,12),(0.,2.5),(0.,
    6.303048278758,12.606096557517),.UNSPECIFIED.);
#367 = CARTESIAN_POINT('',(2.5,-7.230327447871E-15,-7.346267179871E-30)
  );
#368 = CARTESIAN_POINT('',(3.045454545581,1.426406340015,
    -7.277870388834E-17));
#369 = CARTESIAN_POINT('',(2.695937229767,3.537334314735,
    -1.127157288412E-15));
#370 = CARTESIAN_POINT('',(0.731346514426,5.717493768561,
    7.635227591178E-15));
#371 = CARTESIAN_POINT('',(-3.067308133491,6.54724240289,
    -2.3068540267E-14));
#372 = CARTESIAN_POINT('',(-7.613849743764,4.478433423558,
    4.280706495842E-14));
#373 = CARTESIAN_POINT('',(-10.07817383116,-1.330549723512,
    -5.337372058127E-14));
#374 = CARTESIAN_POINT('',(-7.438468870744,-7.543113214662,
    4.574657689048E-14));
#375 = CARTESIAN_POINT('',(-1.59383591436,-10.37055975421,
    -2.628044086216E-14));
#376 = CARTESIAN_POINT('',(4.3413680616,-9.033660278718,
    8.980247159514E-15));
#377 = CARTESIAN_POINT('',(7.944734576673,-4.870832325576,
    -8.005657427441E-16));
#378 = CARTESIAN_POINT('',(9.055266338181,4.836479117461,
    -8.005657428018E-16));
#379 = CARTESIAN_POINT('',(6.562583191189,10.380741855805,
    7.555506426871E-15));
#380 = CARTESIAN_POINT('',(0.293081584531,14.497808656338,
    -1.792196189641E-14));
#381 = CARTESIAN_POINT('',(-8.774477601814,14.256009874041,
    2.136767990614E-14));
#382 = CARTESIAN_POINT('',(-17.26015944291,7.678067530419,
    -8.596154690855E-15));
#383 = CARTESIAN_POINT('',(-19.74231631788,-4.475903723547,
    -1.316489240521E-14));
#384 = CARTESIAN_POINT('',(-13.18888463213,-15.21966939561,
    2.568925370345E-14));
#385 = CARTESIAN_POINT('',(-2.081459980386,-19.14826732756,
    -2.161944879125E-14));
#386 = CARTESIAN_POINT('',(8.169472199074,-15.89869766058,
    1.027076857492E-14));
#387 = CARTESIAN_POINT('',(13.935273917058,-8.314644147379,
    -2.447346592089E-15));
#388 = CARTESIAN_POINT('',(14.500001765108,-3.374158425628E-02,
    6.119136938275E-30));
#389 = CARTESIAN_POINT('',(2.5,1.684416495173E-15,2.5));
#390 = CARTESIAN_POINT('',(3.045454545581,1.426406340015,2.5));
#391 = CARTESIAN_POINT('',(2.695937229768,3.537334314735,2.5));
#392 = CARTESIAN_POINT('',(0.731346514426,5.717493768561,2.5));
#393 = CARTESIAN_POINT('',(-3.067308133489,6.547242402889,2.499999999999
    ));
#394 = CARTESIAN_POINT('',(-7.613849743767,4.47843342356,2.500000000001)
  );
#395 = CARTESIAN_POINT('',(-10.07817383116,-1.330549723514,
    2.499999999999));
#396 = CARTESIAN_POINT('',(-7.438468870746,-7.54311321466,2.500000000001
    ));
#397 = CARTESIAN_POINT('',(-1.593835914359,-10.37055975421,
    2.499999999999));
#398 = CARTESIAN_POINT('',(4.341368061599,-9.033660278718,2.5));
#399 = CARTESIAN_POINT('',(7.944734576673,-4.870832325576,2.5));
#400 = CARTESIAN_POINT('',(9.055266338181,4.836479117461,2.5));
#401 = CARTESIAN_POINT('',(6.562583191189,10.380741855805,2.5));
#402 = CARTESIAN_POINT('',(0.29308158453,14.497808656337,2.499999999999)
  );
#403 = CARTESIAN_POINT('',(-8.774477601813,14.256009874042,
    2.500000000002));
#404 = CARTESIAN_POINT('',(-17.26015944291,7.678067530417,2.499999999998
    ));
#405 = CARTESIAN_POINT('',(-19.74231631788,-4.475903723545,
    2.500000000002));
#406 = CARTESIAN_POINT('',(-13.18888463213,-15.21966939561,
    2.499999999999));
#407 = CARTESIAN_POINT('',(-2.081459980386,-19.14826732756,
    2.500000000001));
#408 = CARTESIAN_POINT('',(8.169472199074,-15.89869766058,2.5));
#409 = CARTESIAN_POINT('',(13.935273917058,-8.314644147379,2.5));
#410 = CARTESIAN_POINT('',(14.500001765108,-3.374158425629E-02,2.5));
#411 = ADVANCED_FACE('',(#412),#428,.T.);
#412 = FACE_BOUND('',#413,.T.);
#413 = EDGE_LOOP('',(#414,#415,#421,#422));
#414 = ORIENTED_EDGE('',*,*,#320,.F.);
#415 = ORIENTED_EDGE('',*,*,#416,.T.);
#416 = EDGE_CURVE('',#313,#196,#417,.T.);
#417 = LINE('',#418,#419);
#418 = CARTESIAN_POINT('',(2.5,-2.5,0.));
#419 = VECTOR('',#420,1.);
#420 = DIRECTION('',(0.,0.,1.));
#421 = ORIENTED_EDGE('',*,*,#193,.F.);
#422 = ORIENTED_EDGE('',*,*,#423,.F.);
#423 = EDGE_CURVE('',#321,#194,#424,.T.);
#424 = LINE('',#425,#426);
#425 = CARTESIAN_POINT('',(2.5,2.5,0.));
#426 = VECTOR('',#427,1.);
#427 = DIRECTION('',(0.,0.,1.));
#428 = PLANE('',#429);
#429 = AXIS2_PLACEMENT_3D('',#430,#431,#432);
#430 = CARTESIAN_POINT('',(2.5,-2.5,0.));
#431 = DIRECTION('',(-1.,0.,0.));
#432 = DIRECTION('',(0.,1.,0.));
#433 = ADVANCED_FACE('',(#434),#445,.T.);
#434 = FACE_BOUND('',#435,.T.);
#435 = EDGE_LOOP('',(#436,#437,#438,#439));
#436 = ORIENTED_EDGE('',*,*,#328,.F.);
#437 = ORIENTED_EDGE('',*,*,#423,.T.);
#438 = ORIENTED_EDGE('',*,*,#219,.F.);
#439 = ORIENTED_EDGE('',*,*,#440,.F.);
#440 = EDGE_CURVE('',#303,#212,#441,.T.);
#441 = LINE('',#442,#443);
#442 = CARTESIAN_POINT('',(-2.5,2.5,0.));
#443 = VECTOR('',#444,1.);
#444 = DIRECTION('',(0.,0.,1.));
#445 = PLANE('',#446);
#446 = AXIS2_PLACEMENT_3D('',#447,#448,#449);
#447 = CARTESIAN_POINT('',(2.5,2.5,0.));
#448 = DIRECTION('',(0.,-1.,0.));
#449 = DIRECTION('',(-1.,0.,0.));
#450 = ADVANCED_FACE('',(#451),#462,.T.);
#451 = FACE_BOUND('',#452,.T.);
#452 = EDGE_LOOP('',(#453,#454,#455,#456));
#453 = ORIENTED_EDGE('',*,*,#302,.F.);
#454 = ORIENTED_EDGE('',*,*,#440,.T.);
#455 = ORIENTED_EDGE('',*,*,#211,.F.);
#456 = ORIENTED_EDGE('',*,*,#457,.F.);
#457 = EDGE_CURVE('',#305,#204,#458,.T.);
#458 = LINE('',#459,#460);
#459 = CARTESIAN_POINT('',(-2.5,-2.5,0.));
#460 = VECTOR('',#461,1.);
#461 = DIRECTION('',(0.,0.,1.));
#462 = PLANE('',#463);
#463 = AXIS2_PLACEMENT_3D('',#464,#465,#466);
#464 = CARTESIAN_POINT('',(-2.5,2.5,0.));
#465 = DIRECTION('',(1.,0.,-0.));
#466 = DIRECTION('',(0.,-1.,0.));
#467 = ADVANCED_FACE('',(#468),#474,.T.);
#468 = FACE_BOUND('',#469,.T.);
#469 = EDGE_LOOP('',(#470,#471,#472,#473));
#470 = ORIENTED_EDGE('',*,*,#312,.F.);
#471 = ORIENTED_EDGE('',*,*,#457,.T.);
#472 = ORIENTED_EDGE('',*,*,#203,.F.);
#473 = ORIENTED_EDGE('',*,*,#416,.F.);
#474 = PLANE('',#475);
#475 = AXIS2_PLACEMENT_3D('',#476,#477,#478);
#476 = CARTESIAN_POINT('',(-2.5,-2.5,0.));
#477 = DIRECTION('',(0.,1.,0.));
#478 = DIRECTION('',(1.,0.,0.));
#479 = ( GEOMETRIC_REPRESENTATION_CONTEXT(3) 
GLOBAL_UNCERTAINTY_ASSIGNED_CONTEXT((#483)) GLOBAL_UNIT_ASSIGNED_CONTEXT
((#480,#481,#482)) REPRESENTATION_CONTEXT('Context #1',
  '3D Context with UNIT and UNCERTAINTY') );
#480 = ( LENGTH_UNIT() NAMED_UNIT(*) SI_UNIT(.MILLI.,.METRE.) );
#481 = ( NAMED_UNIT(*) PLANE_ANGLE_UNIT() SI_UNIT($,.RADIAN.) );
#482 = ( NAMED_UNIT(*) SI_UNIT($,.STERADIAN.) SOLID_ANGLE_UNIT() );
#483 = UNCERTAINTY_MEASURE_WITH_UNIT(LENGTH_MEASURE(2.E-05),#480,
  'distance_accuracy_value','confusion accuracy');
#484 = PRODUCT_RELATED_PRODUCT_CATEGORY('part',$,(#7));
#485 = MECHANICAL_DESIGN_GEOMETRIC_PRESENTATION_REPRESENTATION('',(#486)
  ,#479);
#486 = STYLED_ITEM('color',(#487),#15);
#487 = PRESENTATION_STYLE_ASSIGNMENT((#488,#494));
#488 = SURFACE_STYLE_USAGE(.BOTH.,#489);
#489 = SURFACE_SIDE_STYLE('',(#490));
#490 = SURFACE_STYLE_FILL_AREA(#491);
#491 = FILL_AREA_STYLE('',(#492));
#492 = FILL_AREA_STYLE_COLOUR('',#493);
#493 = COLOUR_RGB('',0.447058818107,0.474509808674,0.501960817233);
#494 = CURVE_STYLE('',#495,POSITIVE_LENGTH_MEASURE(0.1),#496);
#495 = DRAUGHTING_PRE_DEFINED_CURVE_FONT('continuous');
#496 = COLOUR_RGB('',9.803921802644E-02,9.803921802644E-02,
  9.803921802644E-02);
ENDSEC;
END-ISO-10303-21;
