ISO-10303-21;
HEADER;
FILE_DESCRIPTION(('FreeCAD Model'),'2;1');
FILE_NAME('Open CASCADE Shape Model','2026-01-23T08:39:38',(''),(''),
  'Open CASCADE STEP processor 7.8','FreeCAD','Unknown');
FILE_SCHEMA(('AUTOMOTIVE_DESIGN { 1 0 10303 214 1 1 1 1 }'));
ENDSEC;
DATA;
#1 = APPLICATION_PROTOCOL_DEFINITION('international standard',
  'automotive_design',2000,#2);
#2 = APPLICATION_CONTEXT(
  'core data for automotive mechanical design processes');
#3 = SHAPE_DEFINITION_REPRESENTATION(#4,#10);
#4 = PRODUCT_DEFINITION_SHAPE('','',#5);
#5 = PRODUCT_DEFINITION('design','',#6,#9);
#6 = PRODUCT_DEFINITION_FORMATION('','',#7);
#7 = PRODUCT('spring2','spring2','',(#8));
#8 = PRODUCT_CONTEXT('',#2,'mechanical');
#9 = PRODUCT_DEFINITION_CONTEXT('part definition',#2,'design');
#10 = ADVANCED_BREP_SHAPE_REPRESENTATION('',(#11,#15),#941);
#11 = AXIS2_PLACEMENT_3D('',#12,#13,#14);
#12 = CARTESIAN_POINT('',(0.,0.,0.));
#13 = DIRECTION('',(0.,0.,1.));
#14 = DIRECTION('',(1.,0.,-0.));
#15 = MANIFOLD_SOLID_BREP('',#16);
#16 = CLOSED_SHELL('',(#17,#50,#278,#312,#364,#416,#471,#523,#541,#602,
    #654,#681,#733,#785,#816,#840,#864,#881,#927));
#17 = ADVANCED_FACE('',(#18),#45,.T.);
#18 = FACE_BOUND('',#19,.F.);
#19 = EDGE_LOOP('',(#20,#29,#37,#44));
#20 = ORIENTED_EDGE('',*,*,#21,.F.);
#21 = EDGE_CURVE('',#22,#22,#24,.T.);
#22 = VERTEX_POINT('',#23);
#23 = CARTESIAN_POINT('',(11.,0.,0.));
#24 = CIRCLE('',#25,11.);
#25 = AXIS2_PLACEMENT_3D('',#26,#27,#28);
#26 = CARTESIAN_POINT('',(0.,0.,0.));
#27 = DIRECTION('',(0.,0.,1.));
#28 = DIRECTION('',(1.,0.,0.));
#29 = ORIENTED_EDGE('',*,*,#30,.T.);
#30 = EDGE_CURVE('',#22,#31,#33,.T.);
#31 = VERTEX_POINT('',#32);
#32 = CARTESIAN_POINT('',(11.,0.,2.));
#33 = LINE('',#34,#35);
#34 = CARTESIAN_POINT('',(11.,0.,0.));
#35 = VECTOR('',#36,1.);
#36 = DIRECTION('',(0.,0.,1.));
#37 = ORIENTED_EDGE('',*,*,#38,.F.);
#38 = EDGE_CURVE('',#31,#31,#39,.T.);
#39 = CIRCLE('',#40,11.);
#40 = AXIS2_PLACEMENT_3D('',#41,#42,#43);
#41 = CARTESIAN_POINT('',(0.,0.,2.));
#42 = DIRECTION('',(0.,0.,-1.));
#43 = DIRECTION('',(1.,0.,0.));
#44 = ORIENTED_EDGE('',*,*,#30,.F.);
#45 = CYLINDRICAL_SURFACE('',#46,11.);
#46 = AXIS2_PLACEMENT_3D('',#47,#48,#49);
#47 = CARTESIAN_POINT('',(0.,0.,0.));
#48 = DIRECTION('',(-0.,-0.,-1.));
#49 = DIRECTION('',(1.,0.,0.));
#50 = ADVANCED_FACE('',(#51,#54,#142,#239),#273,.T.);
#51 = FACE_BOUND('',#52,.T.);
#52 = EDGE_LOOP('',(#53));
#53 = ORIENTED_EDGE('',*,*,#38,.F.);
#54 = FACE_BOUND('',#55,.T.);
#55 = EDGE_LOOP('',(#56,#75,#84,#101,#118,#127));
#56 = ORIENTED_EDGE('',*,*,#57,.T.);
#57 = EDGE_CURVE('',#58,#60,#62,.T.);
#58 = VERTEX_POINT('',#59);
#59 = CARTESIAN_POINT('',(8.000000003601,-1.91076340216E-03,2.));
#60 = VERTEX_POINT('',#61);
#61 = CARTESIAN_POINT('',(-3.016020946128,-9.271792299076,2.));
#62 = B_SPLINE_CURVE_WITH_KNOTS('',11,(#63,#64,#65,#66,#67,#68,#69,#70,
    #71,#72,#73,#74),.UNSPECIFIED.,.F.,.F.,(12,12),(0.,6.303048278758),
  .PIECEWISE_BEZIER_KNOTS.);
#63 = CARTESIAN_POINT('',(8.0000000036,-1.910763402266E-03,2.));
#64 = CARTESIAN_POINT('',(8.228364157259,4.567505715224,2.));
#65 = CARTESIAN_POINT('',(5.586436794132,9.422732767225,2.));
#66 = CARTESIAN_POINT('',(-0.231485503708,12.56433136065,2.));
#67 = CARTESIAN_POINT('',(-7.9224425211,11.650309145519,2.));
#68 = CARTESIAN_POINT('',(-14.3714097604,5.54493596979,2.));
#69 = CARTESIAN_POINT('',(-15.39739212341,-4.235761123067,2.));
#70 = CARTESIAN_POINT('',(-9.741810376003,-12.06667173379,2.));
#71 = CARTESIAN_POINT('',(-1.198125702562,-14.50319652556,2.));
#72 = CARTESIAN_POINT('',(6.273709295161,-11.71190322807,2.));
#73 = CARTESIAN_POINT('',(10.270554980057,-6.001217876306,2.));
#74 = CARTESIAN_POINT('',(10.500000014264,-3.803065353773E-03,2.));
#75 = ORIENTED_EDGE('',*,*,#76,.T.);
#76 = EDGE_CURVE('',#60,#77,#79,.T.);
#77 = VERTEX_POINT('',#78);
#78 = CARTESIAN_POINT('',(-9.750000014285,3.808691190231E-03,2.));
#79 = CIRCLE('',#80,9.750000758189);
#80 = AXIS2_PLACEMENT_3D('',#81,#82,#83);
#81 = CARTESIAN_POINT('',(0.,0.,2.));
#82 = DIRECTION('',(0.,0.,-1.));
#83 = DIRECTION('',(1.,0.,0.));
#84 = ORIENTED_EDGE('',*,*,#85,.F.);
#85 = EDGE_CURVE('',#86,#77,#88,.T.);
#86 = VERTEX_POINT('',#87);
#87 = CARTESIAN_POINT('',(-7.250000003606,1.913589975291E-03,2.));
#88 = B_SPLINE_CURVE_WITH_KNOTS('',11,(#89,#90,#91,#92,#93,#94,#95,#96,
    #97,#98,#99,#100),.UNSPECIFIED.,.F.,.F.,(12,12),(0.,6.303048278758),
  .PIECEWISE_BEZIER_KNOTS.);
#89 = CARTESIAN_POINT('',(-7.250000003606,1.913589975393E-03,2.));
#90 = CARTESIAN_POINT('',(-7.478365771797,-4.13910363476,2.));
#91 = CARTESIAN_POINT('',(-5.1055534785,-8.565942155496,2.));
#92 = CARTESIAN_POINT('',(0.173582699892,-11.46696956629,2.));
#93 = CARTESIAN_POINT('',(7.206331916911,-10.68875727583,2.));
#94 = CARTESIAN_POINT('',(13.164523586019,-5.148396157109,2.));
#95 = CARTESIAN_POINT('',(14.190510424327,3.839207695493,2.));
#96 = CARTESIAN_POINT('',(9.025710619421,11.105111789415,2.));
#97 = CARTESIAN_POINT('',(1.140235274144,13.405834081354,2.));
#98 = CARTESIAN_POINT('',(-5.792816320547,10.855118040346,2.));
#99 = CARTESIAN_POINT('',(-9.520551766609,5.572824250724,2.));
#100 = CARTESIAN_POINT('',(-9.750000014285,3.808691190231E-03,2.));
#101 = ORIENTED_EDGE('',*,*,#102,.F.);
#102 = EDGE_CURVE('',#103,#86,#105,.T.);
#103 = VERTEX_POINT('',#104);
#104 = CARTESIAN_POINT('',(1.699052700819,-5.230986514974,2.));
#105 = B_SPLINE_CURVE_WITH_KNOTS('',11,(#106,#107,#108,#109,#110,#111,
    #112,#113,#114,#115,#116,#117),.UNSPECIFIED.,.F.,.F.,(12,12),(0.,
    6.303048278758),.PIECEWISE_BEZIER_KNOTS.);
#106 = CARTESIAN_POINT('',(-4.75,-2.633201816316E-15,2.));
#107 = CARTESIAN_POINT('',(-4.977272727499,-2.713018868885,2.));
#108 = CARTESIAN_POINT('',(-3.500413325776,-5.71120476686,2.));
#109 = CARTESIAN_POINT('',(-1.661616793175E-02,-7.808947049172,2.));
#110 = CARTESIAN_POINT('',(4.82175687299,-7.481749329705,2.));
#111 = CARTESIAN_POINT('',(9.142581588972,-3.823507849792,2.));
#112 = CARTESIAN_POINT('',(10.166554724701,2.520448120476,2.));
#113 = CARTESIAN_POINT('',(6.636252658804,7.9017403611,2.));
#114 = CARTESIAN_POINT('',(0.944463803916,9.748105607692,2.));
#115 = CARTESIAN_POINT('',(-4.192027124442,7.997938621569,2.));
#116 = CARTESIAN_POINT('',(-7.021634235838,4.142930814531,2.));
#117 = CARTESIAN_POINT('',(-7.250000003606,1.913589975472E-03,2.));
#118 = ORIENTED_EDGE('',*,*,#119,.T.);
#119 = EDGE_CURVE('',#103,#120,#122,.T.);
#120 = VERTEX_POINT('',#121);
#121 = CARTESIAN_POINT('',(5.5,1.290688476235E-14,2.));
#122 = CIRCLE('',#123,5.5);
#123 = AXIS2_PLACEMENT_3D('',#124,#125,#126);
#124 = CARTESIAN_POINT('',(0.,0.,2.));
#125 = DIRECTION('',(0.,0.,1.));
#126 = DIRECTION('',(1.,0.,0.));
#127 = ORIENTED_EDGE('',*,*,#128,.T.);
#128 = EDGE_CURVE('',#120,#58,#129,.T.);
#129 = B_SPLINE_CURVE_WITH_KNOTS('',11,(#130,#131,#132,#133,#134,#135,
    #136,#137,#138,#139,#140,#141),.UNSPECIFIED.,.F.,.F.,(12,12),(0.,
    6.303048278758),.PIECEWISE_BEZIER_KNOTS.);
#130 = CARTESIAN_POINT('',(5.5,1.290688476235E-14,2.));
#131 = CARTESIAN_POINT('',(5.727272727501,3.14141812528,2.));
#132 = CARTESIAN_POINT('',(3.981299867311,6.567993571248,2.));
#133 = CARTESIAN_POINT('',(-4.128250964796E-02,8.906309065924,2.));
#134 = CARTESIAN_POINT('',(-5.537863868558,8.443303895096,2.));
#135 = CARTESIAN_POINT('',(-10.34946628331,4.220052194397,2.));
#136 = CARTESIAN_POINT('',(-11.37343791806,-2.916997027196,2.));
#137 = CARTESIAN_POINT('',(-7.352356019424,-8.863297629666,2.));
#138 = CARTESIAN_POINT('',(-1.002358337385,-10.84546783996,2.));
#139 = CARTESIAN_POINT('',(4.672916898133,-8.854725609092,2.));
#140 = CARTESIAN_POINT('',(7.771635850366,-4.571327241848,2.));
#141 = CARTESIAN_POINT('',(8.000000003601,-1.91076340231E-03,2.));
#142 = FACE_BOUND('',#143,.T.);
#143 = EDGE_LOOP('',(#144,#163,#172,#189,#206,#215,#224));
#144 = ORIENTED_EDGE('',*,*,#145,.F.);
#145 = EDGE_CURVE('',#146,#148,#150,.T.);
#146 = VERTEX_POINT('',#147);
#147 = CARTESIAN_POINT('',(-1.699052700758,5.230986514994,2.));
#148 = VERTEX_POINT('',#149);
#149 = CARTESIAN_POINT('',(7.250000003606,-1.91358997524E-03,2.));
#150 = B_SPLINE_CURVE_WITH_KNOTS('',11,(#151,#152,#153,#154,#155,#156,
    #157,#158,#159,#160,#161,#162),.UNSPECIFIED.,.F.,.F.,(12,12),(0.,
    6.303048278758),.PIECEWISE_BEZIER_KNOTS.);
#151 = CARTESIAN_POINT('',(4.75,2.978845468904E-15,2.));
#152 = CARTESIAN_POINT('',(4.977272727502,2.713018868885,2.));
#153 = CARTESIAN_POINT('',(3.500413325782,5.711204766862,2.));
#154 = CARTESIAN_POINT('',(1.661616792736E-02,7.808947049177,2.));
#155 = CARTESIAN_POINT('',(-4.82175687295,7.481749329714,2.));
#156 = CARTESIAN_POINT('',(-9.142581589031,3.8235078498,2.));
#157 = CARTESIAN_POINT('',(-10.16655472463,-2.52044812046,2.));
#158 = CARTESIAN_POINT('',(-6.636252658856,-7.901740361094,2.));
#159 = CARTESIAN_POINT('',(-0.944463803904,-9.748105607686,2.));
#160 = CARTESIAN_POINT('',(4.192027124433,-7.997938621568,2.));
#161 = CARTESIAN_POINT('',(7.021634235836,-4.14293081453,2.));
#162 = CARTESIAN_POINT('',(7.250000003606,-1.91358997538E-03,2.));
#163 = ORIENTED_EDGE('',*,*,#164,.T.);
#164 = EDGE_CURVE('',#146,#165,#167,.T.);
#165 = VERTEX_POINT('',#166);
#166 = CARTESIAN_POINT('',(-5.5,6.998741863828E-15,2.));
#167 = CIRCLE('',#168,5.5);
#168 = AXIS2_PLACEMENT_3D('',#169,#170,#171);
#169 = CARTESIAN_POINT('',(0.,0.,2.));
#170 = DIRECTION('',(0.,0.,1.));
#171 = DIRECTION('',(1.,0.,0.));
#172 = ORIENTED_EDGE('',*,*,#173,.T.);
#173 = EDGE_CURVE('',#165,#174,#176,.T.);
#174 = VERTEX_POINT('',#175);
#175 = CARTESIAN_POINT('',(-8.000000003601,1.910763402211E-03,2.));
#176 = B_SPLINE_CURVE_WITH_KNOTS('',11,(#177,#178,#179,#180,#181,#182,
    #183,#184,#185,#186,#187,#188),.UNSPECIFIED.,.F.,.F.,(12,12),(0.,
    6.303048278758),.PIECEWISE_BEZIER_KNOTS.);
#177 = CARTESIAN_POINT('',(-5.5,7.588873106312E-15,2.));
#178 = CARTESIAN_POINT('',(-5.727272727499,-3.14141812528,2.));
#179 = CARTESIAN_POINT('',(-3.981299867302,-6.567993571246,2.));
#180 = CARTESIAN_POINT('',(4.128250963893E-02,-8.906309065917,2.));
#181 = CARTESIAN_POINT('',(5.537863868605,-8.443303895091,2.));
#182 = CARTESIAN_POINT('',(10.349466283248,-4.220052194382,2.));
#183 = CARTESIAN_POINT('',(11.373437918134,2.916997027204,2.));
#184 = CARTESIAN_POINT('',(7.352356019372,8.863297629677,2.));
#185 = CARTESIAN_POINT('',(1.002358337397,10.84546783997,2.));
#186 = CARTESIAN_POINT('',(-4.672916898142,8.854725609094,2.));
#187 = CARTESIAN_POINT('',(-7.771635850369,4.571327241848,2.));
#188 = CARTESIAN_POINT('',(-8.000000003601,1.91076340238E-03,2.));
#189 = ORIENTED_EDGE('',*,*,#190,.T.);
#190 = EDGE_CURVE('',#174,#191,#193,.T.);
#191 = VERTEX_POINT('',#192);
#192 = CARTESIAN_POINT('',(3.016020946222,9.271792299045,2.));
#193 = B_SPLINE_CURVE_WITH_KNOTS('',11,(#194,#195,#196,#197,#198,#199,
    #200,#201,#202,#203,#204,#205),.UNSPECIFIED.,.F.,.F.,(12,12),(0.,
    6.303048278758),.PIECEWISE_BEZIER_KNOTS.);
#194 = CARTESIAN_POINT('',(-8.0000000036,1.910763402317E-03,2.));
#195 = CARTESIAN_POINT('',(-8.228364157256,-4.567505715224,2.));
#196 = CARTESIAN_POINT('',(-5.586436794126,-9.422732767225,2.));
#197 = CARTESIAN_POINT('',(0.23148550371,-12.56433136063,2.));
#198 = CARTESIAN_POINT('',(7.922442521116,-11.65030914554,2.));
#199 = CARTESIAN_POINT('',(14.371409760392,-5.544935969731,2.));
#200 = CARTESIAN_POINT('',(15.397392123429,4.235761123032,2.));
#201 = CARTESIAN_POINT('',(9.741810375984,12.066671733831,2.));
#202 = CARTESIAN_POINT('',(1.198125702563,14.503196525554,2.));
#203 = CARTESIAN_POINT('',(-6.273709295168,11.711903228079,2.));
#204 = CARTESIAN_POINT('',(-10.27055498006,6.001217876305,2.));
#205 = CARTESIAN_POINT('',(-10.50000001426,3.803065353903E-03,2.));
#206 = ORIENTED_EDGE('',*,*,#207,.T.);
#207 = EDGE_CURVE('',#191,#208,#210,.T.);
#208 = VERTEX_POINT('',#209);
#209 = CARTESIAN_POINT('',(9.750000758189,0.,2.));
#210 = CIRCLE('',#211,9.750000758189);
#211 = AXIS2_PLACEMENT_3D('',#212,#213,#214);
#212 = CARTESIAN_POINT('',(0.,0.,2.));
#213 = DIRECTION('',(0.,0.,-1.));
#214 = DIRECTION('',(1.,0.,0.));
#215 = ORIENTED_EDGE('',*,*,#216,.T.);
#216 = EDGE_CURVE('',#208,#217,#219,.T.);
#217 = VERTEX_POINT('',#218);
#218 = CARTESIAN_POINT('',(9.750000014285,-3.808691190091E-03,2.));
#219 = CIRCLE('',#220,9.750000758189);
#220 = AXIS2_PLACEMENT_3D('',#221,#222,#223);
#221 = CARTESIAN_POINT('',(0.,0.,2.));
#222 = DIRECTION('',(0.,0.,-1.));
#223 = DIRECTION('',(1.,0.,0.));
#224 = ORIENTED_EDGE('',*,*,#225,.F.);
#225 = EDGE_CURVE('',#148,#217,#226,.T.);
#226 = B_SPLINE_CURVE_WITH_KNOTS('',11,(#227,#228,#229,#230,#231,#232,
    #233,#234,#235,#236,#237,#238),.UNSPECIFIED.,.F.,.F.,(12,12),(0.,
    6.303048278758),.PIECEWISE_BEZIER_KNOTS.);
#227 = CARTESIAN_POINT('',(7.250000003606,-1.913589975356E-03,2.));
#228 = CARTESIAN_POINT('',(7.478365771799,4.13910363476,2.));
#229 = CARTESIAN_POINT('',(5.105553478505,8.565942155496,2.));
#230 = CARTESIAN_POINT('',(-0.173582699886,11.466969566314,2.));
#231 = CARTESIAN_POINT('',(-7.206331916902,10.688757275815,2.));
#232 = CARTESIAN_POINT('',(-13.16452358602,5.148396157168,2.));
#233 = CARTESIAN_POINT('',(-14.19051042432,-3.839207695529,2.));
#234 = CARTESIAN_POINT('',(-9.025710619433,-11.10511178937,2.));
#235 = CARTESIAN_POINT('',(-1.140235274148,-13.40583408136,2.));
#236 = CARTESIAN_POINT('',(5.792816320541,-10.85511804034,2.));
#237 = CARTESIAN_POINT('',(9.520551766606,-5.572824250725,2.));
#238 = CARTESIAN_POINT('',(9.750000014285,-3.808691190085E-03,2.));
#239 = FACE_BOUND('',#240,.T.);
#240 = EDGE_LOOP('',(#241,#251,#259,#267));
#241 = ORIENTED_EDGE('',*,*,#242,.T.);
#242 = EDGE_CURVE('',#243,#245,#247,.T.);
#243 = VERTEX_POINT('',#244);
#244 = CARTESIAN_POINT('',(3.,-3.,2.));
#245 = VERTEX_POINT('',#246);
#246 = CARTESIAN_POINT('',(-3.,-3.,2.));
#247 = LINE('',#248,#249);
#248 = CARTESIAN_POINT('',(-1.5,-3.,2.));
#249 = VECTOR('',#250,1.);
#250 = DIRECTION('',(-1.,0.,0.));
#251 = ORIENTED_EDGE('',*,*,#252,.T.);
#252 = EDGE_CURVE('',#245,#253,#255,.T.);
#253 = VERTEX_POINT('',#254);
#254 = CARTESIAN_POINT('',(-3.,3.,2.));
#255 = LINE('',#256,#257);
#256 = CARTESIAN_POINT('',(-3.,1.5,2.));
#257 = VECTOR('',#258,1.);
#258 = DIRECTION('',(0.,1.,0.));
#259 = ORIENTED_EDGE('',*,*,#260,.T.);
#260 = EDGE_CURVE('',#253,#261,#263,.T.);
#261 = VERTEX_POINT('',#262);
#262 = CARTESIAN_POINT('',(3.,3.,2.));
#263 = LINE('',#264,#265);
#264 = CARTESIAN_POINT('',(1.5,3.,2.));
#265 = VECTOR('',#266,1.);
#266 = DIRECTION('',(1.,0.,0.));
#267 = ORIENTED_EDGE('',*,*,#268,.T.);
#268 = EDGE_CURVE('',#261,#243,#269,.T.);
#269 = LINE('',#270,#271);
#270 = CARTESIAN_POINT('',(3.,-1.5,2.));
#271 = VECTOR('',#272,1.);
#272 = DIRECTION('',(0.,-1.,0.));
#273 = PLANE('',#274);
#274 = AXIS2_PLACEMENT_3D('',#275,#276,#277);
#275 = CARTESIAN_POINT('',(-6.75712737756E-13,3.807371344561E-12,2.));
#276 = DIRECTION('',(0.,0.,1.));
#277 = DIRECTION('',(1.,0.,0.));
#278 = ADVANCED_FACE('',(#279),#307,.T.);
#279 = FACE_BOUND('',#280,.F.);
#280 = EDGE_LOOP('',(#281,#289,#298,#306));
#281 = ORIENTED_EDGE('',*,*,#282,.F.);
#282 = EDGE_CURVE('',#283,#120,#285,.T.);
#283 = VERTEX_POINT('',#284);
#284 = CARTESIAN_POINT('',(5.5,-7.587246803054E-16,-3.109221302219E-30)
  );
#285 = LINE('',#286,#287);
#286 = CARTESIAN_POINT('',(5.5,0.,0.));
#287 = VECTOR('',#288,1.);
#288 = DIRECTION('',(0.,0.,1.));
#289 = ORIENTED_EDGE('',*,*,#290,.F.);
#290 = EDGE_CURVE('',#291,#283,#293,.T.);
#291 = VERTEX_POINT('',#292);
#292 = CARTESIAN_POINT('',(1.699052700818,-5.230986514974,0.));
#293 = CIRCLE('',#294,5.5);
#294 = AXIS2_PLACEMENT_3D('',#295,#296,#297);
#295 = CARTESIAN_POINT('',(0.,0.,0.));
#296 = DIRECTION('',(0.,0.,1.));
#297 = DIRECTION('',(1.,0.,0.));
#298 = ORIENTED_EDGE('',*,*,#299,.T.);
#299 = EDGE_CURVE('',#291,#103,#300,.T.);
#300 = B_SPLINE_CURVE_WITH_KNOTS('',4,(#301,#302,#303,#304,#305),
  .UNSPECIFIED.,.F.,.F.,(5,5),(0.,1.),.PIECEWISE_BEZIER_KNOTS.);
#301 = CARTESIAN_POINT('',(1.699052700819,-5.230986514974,0.));
#302 = CARTESIAN_POINT('',(1.699052700819,-5.230986514974,0.5));
#303 = CARTESIAN_POINT('',(1.699052700819,-5.230986514974,1.));
#304 = CARTESIAN_POINT('',(1.699052700819,-5.230986514974,1.5));
#305 = CARTESIAN_POINT('',(1.699052700819,-5.230986514974,2.));
#306 = ORIENTED_EDGE('',*,*,#119,.T.);
#307 = CYLINDRICAL_SURFACE('',#308,5.5);
#308 = AXIS2_PLACEMENT_3D('',#309,#310,#311);
#309 = CARTESIAN_POINT('',(0.,0.,0.));
#310 = DIRECTION('',(-0.,-0.,-1.));
#311 = DIRECTION('',(1.,0.,0.));
#312 = ADVANCED_FACE('',(#313),#339,.T.);
#313 = FACE_BOUND('',#314,.T.);
#314 = EDGE_LOOP('',(#315,#316,#317,#334));
#315 = ORIENTED_EDGE('',*,*,#128,.F.);
#316 = ORIENTED_EDGE('',*,*,#282,.F.);
#317 = ORIENTED_EDGE('',*,*,#318,.T.);
#318 = EDGE_CURVE('',#283,#319,#321,.T.);
#319 = VERTEX_POINT('',#320);
#320 = CARTESIAN_POINT('',(8.000000003601,-1.910763402161E-03,0.));
#321 = B_SPLINE_CURVE_WITH_KNOTS('',11,(#322,#323,#324,#325,#326,#327,
    #328,#329,#330,#331,#332,#333),.UNSPECIFIED.,.F.,.F.,(12,12),(0.,
    6.303048278758),.PIECEWISE_BEZIER_KNOTS.);
#322 = CARTESIAN_POINT('',(5.5,-6.35559313511E-16,-3.109221302219E-30));
#323 = CARTESIAN_POINT('',(5.727272727502,3.14141812528,
    3.762909505323E-29));
#324 = CARTESIAN_POINT('',(3.98129986731,6.567993571248,
    -3.72926586323E-16));
#325 = CARTESIAN_POINT('',(-4.12825096455E-02,8.906309065922,
    2.187835973094E-15));
#326 = CARTESIAN_POINT('',(-5.537863868562,8.443303895099,
    -6.381188254858E-15));
#327 = CARTESIAN_POINT('',(-10.3494662833,4.220052194394,
    1.172054985586E-14));
#328 = CARTESIAN_POINT('',(-11.37343791807,-2.916997027192,
    -1.465068731983E-14));
#329 = CARTESIAN_POINT('',(-7.35235601942,-8.863297629669,
    1.276237650972E-14));
#330 = CARTESIAN_POINT('',(-1.002358337387,-10.84546783996,
    -7.65742590583E-15));
#331 = CARTESIAN_POINT('',(4.672916898134,-8.854725609093,
    2.983412690583E-15));
#332 = CARTESIAN_POINT('',(7.771635850366,-4.571327241848,
    -6.215443105382E-16));
#333 = CARTESIAN_POINT('',(8.000000003601,-1.910763402299E-03,
    3.503123069586E-30));
#334 = ORIENTED_EDGE('',*,*,#335,.F.);
#335 = EDGE_CURVE('',#58,#319,#336,.T.);
#336 = B_SPLINE_CURVE_WITH_KNOTS('',1,(#337,#338),.UNSPECIFIED.,.F.,.F.,
  (2,2),(-2.,-0.),.PIECEWISE_BEZIER_KNOTS.);
#337 = CARTESIAN_POINT('',(8.000000003601,-1.91076340231E-03,2.));
#338 = CARTESIAN_POINT('',(8.000000003601,-1.910763402299E-03,
    3.503123069586E-30));
#339 = B_SPLINE_SURFACE_WITH_KNOTS('',1,11,(
    (#340,#341,#342,#343,#344,#345,#346,#347,#348,#349,#350,#351)
    ,(#352,#353,#354,#355,#356,#357,#358,#359,#360,#361,#362,#363
  )),.UNSPECIFIED.,.F.,.F.,.F.,(2,2),(12,12),(-2.,-0.),(0.,
    6.303048278758),.PIECEWISE_BEZIER_KNOTS.);
#340 = CARTESIAN_POINT('',(5.5,1.290688476235E-14,2.));
#341 = CARTESIAN_POINT('',(5.727272727501,3.14141812528,2.));
#342 = CARTESIAN_POINT('',(3.981299867311,6.567993571248,2.));
#343 = CARTESIAN_POINT('',(-4.128250964796E-02,8.906309065924,2.));
#344 = CARTESIAN_POINT('',(-5.537863868558,8.443303895096,2.));
#345 = CARTESIAN_POINT('',(-10.34946628331,4.220052194397,2.));
#346 = CARTESIAN_POINT('',(-11.37343791806,-2.916997027196,2.));
#347 = CARTESIAN_POINT('',(-7.352356019424,-8.863297629666,2.));
#348 = CARTESIAN_POINT('',(-1.002358337385,-10.84546783996,2.));
#349 = CARTESIAN_POINT('',(4.672916898133,-8.854725609092,2.));
#350 = CARTESIAN_POINT('',(7.771635850366,-4.571327241848,2.));
#351 = CARTESIAN_POINT('',(8.000000003601,-1.91076340231E-03,2.));
#352 = CARTESIAN_POINT('',(5.5,-6.35559313511E-16,-3.109221302219E-30));
#353 = CARTESIAN_POINT('',(5.727272727502,3.14141812528,
    3.762909505323E-29));
#354 = CARTESIAN_POINT('',(3.98129986731,6.567993571248,
    -3.72926586323E-16));
#355 = CARTESIAN_POINT('',(-4.12825096455E-02,8.906309065922,
    2.187835973094E-15));
#356 = CARTESIAN_POINT('',(-5.537863868562,8.443303895099,
    -6.381188254858E-15));
#357 = CARTESIAN_POINT('',(-10.3494662833,4.220052194394,
    1.172054985586E-14));
#358 = CARTESIAN_POINT('',(-11.37343791807,-2.916997027192,
    -1.465068731983E-14));
#359 = CARTESIAN_POINT('',(-7.35235601942,-8.863297629669,
    1.276237650972E-14));
#360 = CARTESIAN_POINT('',(-1.002358337387,-10.84546783996,
    -7.65742590583E-15));
#361 = CARTESIAN_POINT('',(4.672916898134,-8.854725609093,
    2.983412690583E-15));
#362 = CARTESIAN_POINT('',(7.771635850366,-4.571327241848,
    -6.215443105382E-16));
#363 = CARTESIAN_POINT('',(8.000000003601,-1.910763402299E-03,
    3.503123069586E-30));
#364 = ADVANCED_FACE('',(#365),#391,.F.);
#365 = FACE_BOUND('',#366,.F.);
#366 = EDGE_LOOP('',(#367,#368,#369,#386));
#367 = ORIENTED_EDGE('',*,*,#102,.F.);
#368 = ORIENTED_EDGE('',*,*,#299,.F.);
#369 = ORIENTED_EDGE('',*,*,#370,.T.);
#370 = EDGE_CURVE('',#291,#371,#373,.T.);
#371 = VERTEX_POINT('',#372);
#372 = CARTESIAN_POINT('',(-7.250000003606,1.91358997529E-03,0.));
#373 = B_SPLINE_CURVE_WITH_KNOTS('',11,(#374,#375,#376,#377,#378,#379,
    #380,#381,#382,#383,#384,#385),.UNSPECIFIED.,.F.,.F.,(12,12),(0.,
    6.303048278758),.PIECEWISE_BEZIER_KNOTS.);
#374 = CARTESIAN_POINT('',(-4.75,3.059618530754E-16,0.));
#375 = CARTESIAN_POINT('',(-4.977272727499,-2.713018868885,0.));
#376 = CARTESIAN_POINT('',(-3.500413325775,-5.71120476686,0.));
#377 = CARTESIAN_POINT('',(-1.661616793254E-02,-7.808947049171,0.));
#378 = CARTESIAN_POINT('',(4.821756872991,-7.481749329706,0.));
#379 = CARTESIAN_POINT('',(9.14258158897,-3.82350784979,0.));
#380 = CARTESIAN_POINT('',(10.166554724703,2.520448120474,0.));
#381 = CARTESIAN_POINT('',(6.636252658803,7.901740361102,0.));
#382 = CARTESIAN_POINT('',(0.944463803917,9.748105607691,0.));
#383 = CARTESIAN_POINT('',(-4.192027124443,7.99793862157,0.));
#384 = CARTESIAN_POINT('',(-7.021634235838,4.14293081453,0.));
#385 = CARTESIAN_POINT('',(-7.250000003606,1.913589975475E-03,0.));
#386 = ORIENTED_EDGE('',*,*,#387,.F.);
#387 = EDGE_CURVE('',#86,#371,#388,.T.);
#388 = B_SPLINE_CURVE_WITH_KNOTS('',1,(#389,#390),.UNSPECIFIED.,.F.,.F.,
  (2,2),(-2.,-0.),.PIECEWISE_BEZIER_KNOTS.);
#389 = CARTESIAN_POINT('',(-7.250000003606,1.913589975472E-03,2.));
#390 = CARTESIAN_POINT('',(-7.250000003606,1.913589975475E-03,0.));
#391 = B_SPLINE_SURFACE_WITH_KNOTS('',1,11,(
    (#392,#393,#394,#395,#396,#397,#398,#399,#400,#401,#402,#403)
    ,(#404,#405,#406,#407,#408,#409,#410,#411,#412,#413,#414,#415
  )),.UNSPECIFIED.,.F.,.F.,.F.,(2,2),(12,12),(-2.,-0.),(0.,
    6.303048278758),.PIECEWISE_BEZIER_KNOTS.);
#392 = CARTESIAN_POINT('',(-4.75,-2.633201816316E-15,2.));
#393 = CARTESIAN_POINT('',(-4.977272727499,-2.713018868885,2.));
#394 = CARTESIAN_POINT('',(-3.500413325776,-5.71120476686,2.));
#395 = CARTESIAN_POINT('',(-1.661616793175E-02,-7.808947049172,2.));
#396 = CARTESIAN_POINT('',(4.82175687299,-7.481749329705,2.));
#397 = CARTESIAN_POINT('',(9.142581588972,-3.823507849792,2.));
#398 = CARTESIAN_POINT('',(10.166554724701,2.520448120476,2.));
#399 = CARTESIAN_POINT('',(6.636252658804,7.9017403611,2.));
#400 = CARTESIAN_POINT('',(0.944463803916,9.748105607692,2.));
#401 = CARTESIAN_POINT('',(-4.192027124442,7.997938621569,2.));
#402 = CARTESIAN_POINT('',(-7.021634235838,4.142930814531,2.));
#403 = CARTESIAN_POINT('',(-7.250000003606,1.913589975472E-03,2.));
#404 = CARTESIAN_POINT('',(-4.75,3.059618530754E-16,0.));
#405 = CARTESIAN_POINT('',(-4.977272727499,-2.713018868885,0.));
#406 = CARTESIAN_POINT('',(-3.500413325775,-5.71120476686,0.));
#407 = CARTESIAN_POINT('',(-1.661616793254E-02,-7.808947049171,0.));
#408 = CARTESIAN_POINT('',(4.821756872991,-7.481749329706,0.));
#409 = CARTESIAN_POINT('',(9.14258158897,-3.82350784979,0.));
#410 = CARTESIAN_POINT('',(10.166554724703,2.520448120474,0.));
#411 = CARTESIAN_POINT('',(6.636252658803,7.901740361102,0.));
#412 = CARTESIAN_POINT('',(0.944463803917,9.748105607691,0.));
#413 = CARTESIAN_POINT('',(-4.192027124443,7.99793862157,0.));
#414 = CARTESIAN_POINT('',(-7.021634235838,4.14293081453,0.));
#415 = CARTESIAN_POINT('',(-7.250000003606,1.913589975475E-03,0.));
#416 = ADVANCED_FACE('',(#417),#446,.T.);
#417 = FACE_BOUND('',#418,.T.);
#418 = EDGE_LOOP('',(#419,#420,#421,#438));
#419 = ORIENTED_EDGE('',*,*,#57,.F.);
#420 = ORIENTED_EDGE('',*,*,#335,.T.);
#421 = ORIENTED_EDGE('',*,*,#422,.T.);
#422 = EDGE_CURVE('',#319,#423,#425,.T.);
#423 = VERTEX_POINT('',#424);
#424 = CARTESIAN_POINT('',(-3.016020946128,-9.271792299076,
    -3.267066919026E-18));
#425 = B_SPLINE_CURVE_WITH_KNOTS('',11,(#426,#427,#428,#429,#430,#431,
    #432,#433,#434,#435,#436,#437),.UNSPECIFIED.,.F.,.F.,(12,12),(0.,
    6.303048278758),.PIECEWISE_BEZIER_KNOTS.);
#426 = CARTESIAN_POINT('',(8.0000000036,-1.910763402266E-03,
    -3.478999851541E-30));
#427 = CARTESIAN_POINT('',(8.228364157259,4.567505715224,
    -3.430417926263E-29));
#428 = CARTESIAN_POINT('',(5.586436794132,9.422732767225,
    3.711250118137E-16));
#429 = CARTESIAN_POINT('',(-0.231485503708,12.564331360651,
    -2.177266735973E-15));
#430 = CARTESIAN_POINT('',(-7.922442521101,11.650309145519,
    6.350361313255E-15));
#431 = CARTESIAN_POINT('',(-14.3714097604,5.54493596979,
    -1.166392894271E-14));
#432 = CARTESIAN_POINT('',(-15.39739212341,-4.235761123067,
    1.457991117839E-14));
#433 = CARTESIAN_POINT('',(-9.741810376001,-12.06667173379,
    -1.270072262651E-14));
#434 = CARTESIAN_POINT('',(-1.198125702563,-14.50319652556,
    7.620433575905E-15));
#435 = CARTESIAN_POINT('',(6.273709295161,-11.71190322807,
    -2.969000094509E-15));
#436 = CARTESIAN_POINT('',(10.270554980057,-6.001217876306,
    6.18541686356E-16));
#437 = CARTESIAN_POINT('',(10.500000014264,-3.803065353773E-03,
    8.084639707713E-31));
#438 = ORIENTED_EDGE('',*,*,#439,.T.);
#439 = EDGE_CURVE('',#423,#60,#440,.T.);
#440 = B_SPLINE_CURVE_WITH_KNOTS('',4,(#441,#442,#443,#444,#445),
  .UNSPECIFIED.,.F.,.F.,(5,5),(0.,1.),.PIECEWISE_BEZIER_KNOTS.);
#441 = CARTESIAN_POINT('',(-3.016020946128,-9.271792299076,
    2.22044604925E-16));
#442 = CARTESIAN_POINT('',(-3.016020946128,-9.271792299076,0.5));
#443 = CARTESIAN_POINT('',(-3.016020946128,-9.271792299076,1.));
#444 = CARTESIAN_POINT('',(-3.016020946128,-9.271792299076,1.5));
#445 = CARTESIAN_POINT('',(-3.016020946128,-9.271792299076,2.));
#446 = B_SPLINE_SURFACE_WITH_KNOTS('',1,11,(
    (#447,#448,#449,#450,#451,#452,#453,#454,#455,#456,#457,#458)
    ,(#459,#460,#461,#462,#463,#464,#465,#466,#467,#468,#469,#470
  )),.UNSPECIFIED.,.F.,.F.,.F.,(2,2),(12,12),(-2.,-0.),(0.,
    6.303048278758),.PIECEWISE_BEZIER_KNOTS.);
#447 = CARTESIAN_POINT('',(8.0000000036,-1.910763402266E-03,2.));
#448 = CARTESIAN_POINT('',(8.228364157259,4.567505715224,2.));
#449 = CARTESIAN_POINT('',(5.586436794132,9.422732767225,2.));
#450 = CARTESIAN_POINT('',(-0.231485503708,12.56433136065,2.));
#451 = CARTESIAN_POINT('',(-7.9224425211,11.650309145519,2.));
#452 = CARTESIAN_POINT('',(-14.3714097604,5.54493596979,2.));
#453 = CARTESIAN_POINT('',(-15.39739212341,-4.235761123067,2.));
#454 = CARTESIAN_POINT('',(-9.741810376003,-12.06667173379,2.));
#455 = CARTESIAN_POINT('',(-1.198125702562,-14.50319652556,2.));
#456 = CARTESIAN_POINT('',(6.273709295161,-11.71190322807,2.));
#457 = CARTESIAN_POINT('',(10.270554980057,-6.001217876306,2.));
#458 = CARTESIAN_POINT('',(10.500000014264,-3.803065353773E-03,2.));
#459 = CARTESIAN_POINT('',(8.0000000036,-1.910763402266E-03,
    -3.478999851541E-30));
#460 = CARTESIAN_POINT('',(8.228364157259,4.567505715224,
    -3.430417926263E-29));
#461 = CARTESIAN_POINT('',(5.586436794132,9.422732767225,
    3.711250118137E-16));
#462 = CARTESIAN_POINT('',(-0.231485503708,12.564331360651,
    -2.177266735973E-15));
#463 = CARTESIAN_POINT('',(-7.922442521101,11.650309145519,
    6.350361313255E-15));
#464 = CARTESIAN_POINT('',(-14.3714097604,5.54493596979,
    -1.166392894271E-14));
#465 = CARTESIAN_POINT('',(-15.39739212341,-4.235761123067,
    1.457991117839E-14));
#466 = CARTESIAN_POINT('',(-9.741810376001,-12.06667173379,
    -1.270072262651E-14));
#467 = CARTESIAN_POINT('',(-1.198125702563,-14.50319652556,
    7.620433575905E-15));
#468 = CARTESIAN_POINT('',(6.273709295161,-11.71190322807,
    -2.969000094509E-15));
#469 = CARTESIAN_POINT('',(10.270554980057,-6.001217876306,
    6.18541686356E-16));
#470 = CARTESIAN_POINT('',(10.500000014264,-3.803065353773E-03,
    8.084639707713E-31));
#471 = ADVANCED_FACE('',(#472),#498,.F.);
#472 = FACE_BOUND('',#473,.F.);
#473 = EDGE_LOOP('',(#474,#475,#476,#493));
#474 = ORIENTED_EDGE('',*,*,#85,.F.);
#475 = ORIENTED_EDGE('',*,*,#387,.T.);
#476 = ORIENTED_EDGE('',*,*,#477,.T.);
#477 = EDGE_CURVE('',#371,#478,#480,.T.);
#478 = VERTEX_POINT('',#479);
#479 = CARTESIAN_POINT('',(-9.750000014285,3.808691190222E-03,0.));
#480 = B_SPLINE_CURVE_WITH_KNOTS('',11,(#481,#482,#483,#484,#485,#486,
    #487,#488,#489,#490,#491,#492),.UNSPECIFIED.,.F.,.F.,(12,12),(0.,
    6.303048278758),.PIECEWISE_BEZIER_KNOTS.);
#481 = CARTESIAN_POINT('',(-7.250000003606,1.913589975389E-03,0.));
#482 = CARTESIAN_POINT('',(-7.478365771797,-4.13910363476,0.));
#483 = CARTESIAN_POINT('',(-5.105553478499,-8.565942155496,0.));
#484 = CARTESIAN_POINT('',(0.173582699889,-11.46696956629,0.));
#485 = CARTESIAN_POINT('',(7.206331916916,-10.68875727583,0.));
#486 = CARTESIAN_POINT('',(13.164523586013,-5.14839615711,0.));
#487 = CARTESIAN_POINT('',(14.190510424332,3.839207695494,0.));
#488 = CARTESIAN_POINT('',(9.025710619418,11.105111789414,0.));
#489 = CARTESIAN_POINT('',(1.140235274146,13.405834081355,0.));
#490 = CARTESIAN_POINT('',(-5.792816320547,10.855118040345,0.));
#491 = CARTESIAN_POINT('',(-9.520551766609,5.572824250724,0.));
#492 = CARTESIAN_POINT('',(-9.750000014285,3.808691190231E-03,0.));
#493 = ORIENTED_EDGE('',*,*,#494,.F.);
#494 = EDGE_CURVE('',#77,#478,#495,.T.);
#495 = B_SPLINE_CURVE_WITH_KNOTS('',1,(#496,#497),.UNSPECIFIED.,.F.,.F.,
  (2,2),(-2.,-0.),.PIECEWISE_BEZIER_KNOTS.);
#496 = CARTESIAN_POINT('',(-9.750000014285,3.808691190231E-03,2.));
#497 = CARTESIAN_POINT('',(-9.750000014285,3.808691190231E-03,0.));
#498 = B_SPLINE_SURFACE_WITH_KNOTS('',1,11,(
    (#499,#500,#501,#502,#503,#504,#505,#506,#507,#508,#509,#510)
    ,(#511,#512,#513,#514,#515,#516,#517,#518,#519,#520,#521,#522
  )),.UNSPECIFIED.,.F.,.F.,.F.,(2,2),(12,12),(-2.,-0.),(0.,
    6.303048278758),.PIECEWISE_BEZIER_KNOTS.);
#499 = CARTESIAN_POINT('',(-7.250000003606,1.913589975393E-03,2.));
#500 = CARTESIAN_POINT('',(-7.478365771797,-4.13910363476,2.));
#501 = CARTESIAN_POINT('',(-5.1055534785,-8.565942155496,2.));
#502 = CARTESIAN_POINT('',(0.173582699892,-11.46696956629,2.));
#503 = CARTESIAN_POINT('',(7.206331916911,-10.68875727583,2.));
#504 = CARTESIAN_POINT('',(13.164523586019,-5.148396157109,2.));
#505 = CARTESIAN_POINT('',(14.190510424327,3.839207695493,2.));
#506 = CARTESIAN_POINT('',(9.025710619421,11.105111789415,2.));
#507 = CARTESIAN_POINT('',(1.140235274144,13.405834081354,2.));
#508 = CARTESIAN_POINT('',(-5.792816320547,10.855118040346,2.));
#509 = CARTESIAN_POINT('',(-9.520551766609,5.572824250724,2.));
#510 = CARTESIAN_POINT('',(-9.750000014285,3.808691190231E-03,2.));
#511 = CARTESIAN_POINT('',(-7.250000003606,1.913589975389E-03,0.));
#512 = CARTESIAN_POINT('',(-7.478365771797,-4.13910363476,0.));
#513 = CARTESIAN_POINT('',(-5.105553478499,-8.565942155496,0.));
#514 = CARTESIAN_POINT('',(0.173582699889,-11.46696956629,0.));
#515 = CARTESIAN_POINT('',(7.206331916916,-10.68875727583,0.));
#516 = CARTESIAN_POINT('',(13.164523586013,-5.14839615711,0.));
#517 = CARTESIAN_POINT('',(14.190510424332,3.839207695494,0.));
#518 = CARTESIAN_POINT('',(9.025710619418,11.105111789414,0.));
#519 = CARTESIAN_POINT('',(1.140235274146,13.405834081355,0.));
#520 = CARTESIAN_POINT('',(-5.792816320547,10.855118040345,0.));
#521 = CARTESIAN_POINT('',(-9.520551766609,5.572824250724,0.));
#522 = CARTESIAN_POINT('',(-9.750000014285,3.808691190231E-03,0.));
#523 = ADVANCED_FACE('',(#524),#536,.F.);
#524 = FACE_BOUND('',#525,.T.);
#525 = EDGE_LOOP('',(#526,#527,#534,#535));
#526 = ORIENTED_EDGE('',*,*,#439,.F.);
#527 = ORIENTED_EDGE('',*,*,#528,.F.);
#528 = EDGE_CURVE('',#478,#423,#529,.T.);
#529 = CIRCLE('',#530,9.750000758189);
#530 = AXIS2_PLACEMENT_3D('',#531,#532,#533);
#531 = CARTESIAN_POINT('',(0.,0.,0.));
#532 = DIRECTION('',(0.,0.,1.));
#533 = DIRECTION('',(1.,0.,0.));
#534 = ORIENTED_EDGE('',*,*,#494,.F.);
#535 = ORIENTED_EDGE('',*,*,#76,.F.);
#536 = CYLINDRICAL_SURFACE('',#537,9.750000758189);
#537 = AXIS2_PLACEMENT_3D('',#538,#539,#540);
#538 = CARTESIAN_POINT('',(0.,0.,0.));
#539 = DIRECTION('',(-0.,-0.,-1.));
#540 = DIRECTION('',(1.,0.,0.));
#541 = ADVANCED_FACE('',(#542),#577,.F.);
#542 = FACE_BOUND('',#543,.F.);
#543 = EDGE_LOOP('',(#544,#563,#568,#569));
#544 = ORIENTED_EDGE('',*,*,#545,.F.);
#545 = EDGE_CURVE('',#546,#548,#550,.T.);
#546 = VERTEX_POINT('',#547);
#547 = CARTESIAN_POINT('',(-8.000000003601,1.91076340221E-03,0.));
#548 = VERTEX_POINT('',#549);
#549 = CARTESIAN_POINT('',(3.016020946222,9.271792299045,0.));
#550 = B_SPLINE_CURVE_WITH_KNOTS('',11,(#551,#552,#553,#554,#555,#556,
    #557,#558,#559,#560,#561,#562),.UNSPECIFIED.,.F.,.F.,(12,12),(0.,
    6.303048278758),.PIECEWISE_BEZIER_KNOTS.);
#551 = CARTESIAN_POINT('',(-8.0000000036,1.910763402317E-03,0.));
#552 = CARTESIAN_POINT('',(-8.228364157256,-4.567505715224,0.));
#553 = CARTESIAN_POINT('',(-5.586436794125,-9.422732767225,0.));
#554 = CARTESIAN_POINT('',(0.231485503709,-12.56433136063,0.));
#555 = CARTESIAN_POINT('',(7.922442521117,-11.65030914554,0.));
#556 = CARTESIAN_POINT('',(14.37140976039,-5.544935969731,0.));
#557 = CARTESIAN_POINT('',(15.397392123432,4.235761123032,0.));
#558 = CARTESIAN_POINT('',(9.741810375981,12.066671733831,0.));
#559 = CARTESIAN_POINT('',(1.198125702564,14.503196525554,0.));
#560 = CARTESIAN_POINT('',(-6.273709295169,11.711903228079,0.));
#561 = CARTESIAN_POINT('',(-10.27055498005,6.001217876305,0.));
#562 = CARTESIAN_POINT('',(-10.50000001426,3.803065353903E-03,0.));
#563 = ORIENTED_EDGE('',*,*,#564,.T.);
#564 = EDGE_CURVE('',#546,#174,#565,.T.);
#565 = B_SPLINE_CURVE_WITH_KNOTS('',1,(#566,#567),.UNSPECIFIED.,.F.,.F.,
  (2,2),(-2.,-0.),.PIECEWISE_BEZIER_KNOTS.);
#566 = CARTESIAN_POINT('',(-8.000000003601,1.910763402389E-03,0.));
#567 = CARTESIAN_POINT('',(-8.000000003601,1.91076340238E-03,2.));
#568 = ORIENTED_EDGE('',*,*,#190,.T.);
#569 = ORIENTED_EDGE('',*,*,#570,.T.);
#570 = EDGE_CURVE('',#191,#548,#571,.T.);
#571 = B_SPLINE_CURVE_WITH_KNOTS('',4,(#572,#573,#574,#575,#576),
  .UNSPECIFIED.,.F.,.F.,(5,5),(0.,1.),.PIECEWISE_BEZIER_KNOTS.);
#572 = CARTESIAN_POINT('',(3.016020946221,9.271792299045,2.));
#573 = CARTESIAN_POINT('',(3.016020946221,9.271792299045,1.5));
#574 = CARTESIAN_POINT('',(3.016020946222,9.271792299045,1.));
#575 = CARTESIAN_POINT('',(3.016020946221,9.271792299045,0.5));
#576 = CARTESIAN_POINT('',(3.016020946221,9.271792299045,0.));
#577 = B_SPLINE_SURFACE_WITH_KNOTS('',1,11,(
    (#578,#579,#580,#581,#582,#583,#584,#585,#586,#587,#588,#589)
    ,(#590,#591,#592,#593,#594,#595,#596,#597,#598,#599,#600,#601
  )),.UNSPECIFIED.,.F.,.F.,.F.,(2,2),(12,12),(-2.,-0.),(0.,
    6.303048278758),.PIECEWISE_BEZIER_KNOTS.);
#578 = CARTESIAN_POINT('',(-8.0000000036,1.910763402317E-03,0.));
#579 = CARTESIAN_POINT('',(-8.228364157256,-4.567505715224,0.));
#580 = CARTESIAN_POINT('',(-5.586436794125,-9.422732767225,0.));
#581 = CARTESIAN_POINT('',(0.231485503709,-12.56433136063,0.));
#582 = CARTESIAN_POINT('',(7.922442521117,-11.65030914554,0.));
#583 = CARTESIAN_POINT('',(14.37140976039,-5.544935969731,0.));
#584 = CARTESIAN_POINT('',(15.397392123432,4.235761123032,0.));
#585 = CARTESIAN_POINT('',(9.741810375981,12.066671733831,0.));
#586 = CARTESIAN_POINT('',(1.198125702564,14.503196525554,0.));
#587 = CARTESIAN_POINT('',(-6.273709295169,11.711903228079,0.));
#588 = CARTESIAN_POINT('',(-10.27055498005,6.001217876305,0.));
#589 = CARTESIAN_POINT('',(-10.50000001426,3.803065353903E-03,0.));
#590 = CARTESIAN_POINT('',(-8.0000000036,1.910763402317E-03,2.));
#591 = CARTESIAN_POINT('',(-8.228364157256,-4.567505715224,2.));
#592 = CARTESIAN_POINT('',(-5.586436794126,-9.422732767225,2.));
#593 = CARTESIAN_POINT('',(0.23148550371,-12.56433136063,2.));
#594 = CARTESIAN_POINT('',(7.922442521116,-11.65030914554,2.));
#595 = CARTESIAN_POINT('',(14.371409760392,-5.544935969731,2.));
#596 = CARTESIAN_POINT('',(15.397392123429,4.235761123032,2.));
#597 = CARTESIAN_POINT('',(9.741810375984,12.066671733831,2.));
#598 = CARTESIAN_POINT('',(1.198125702563,14.503196525554,2.));
#599 = CARTESIAN_POINT('',(-6.273709295168,11.711903228079,2.));
#600 = CARTESIAN_POINT('',(-10.27055498006,6.001217876305,2.));
#601 = CARTESIAN_POINT('',(-10.50000001426,3.803065353903E-03,2.));
#602 = ADVANCED_FACE('',(#603),#629,.F.);
#603 = FACE_BOUND('',#604,.F.);
#604 = EDGE_LOOP('',(#605,#622,#627,#628));
#605 = ORIENTED_EDGE('',*,*,#606,.F.);
#606 = EDGE_CURVE('',#607,#546,#609,.T.);
#607 = VERTEX_POINT('',#608);
#608 = CARTESIAN_POINT('',(-5.5,9.172567219662E-15,0.));
#609 = B_SPLINE_CURVE_WITH_KNOTS('',11,(#610,#611,#612,#613,#614,#615,
    #616,#617,#618,#619,#620,#621),.UNSPECIFIED.,.F.,.F.,(12,12),(0.,
    6.303048278758),.PIECEWISE_BEZIER_KNOTS.);
#610 = CARTESIAN_POINT('',(-5.5,9.172567219662E-15,0.));
#611 = CARTESIAN_POINT('',(-5.727272727499,-3.14141812528,0.));
#612 = CARTESIAN_POINT('',(-3.981299867302,-6.567993571247,0.));
#613 = CARTESIAN_POINT('',(4.12825096389E-02,-8.906309065915,0.));
#614 = CARTESIAN_POINT('',(5.537863868605,-8.443303895095,0.));
#615 = CARTESIAN_POINT('',(10.349466283248,-4.220052194376,0.));
#616 = CARTESIAN_POINT('',(11.373437918134,2.916997027197,0.));
#617 = CARTESIAN_POINT('',(7.352356019372,8.863297629682,0.));
#618 = CARTESIAN_POINT('',(1.002358337397,10.845467839968,0.));
#619 = CARTESIAN_POINT('',(-4.672916898142,8.854725609094,0.));
#620 = CARTESIAN_POINT('',(-7.771635850369,4.571327241848,0.));
#621 = CARTESIAN_POINT('',(-8.000000003601,1.910763402389E-03,0.));
#622 = ORIENTED_EDGE('',*,*,#623,.T.);
#623 = EDGE_CURVE('',#607,#165,#624,.T.);
#624 = B_SPLINE_CURVE_WITH_KNOTS('',1,(#625,#626),.UNSPECIFIED.,.F.,.F.,
  (2,2),(-2.,-0.),.PIECEWISE_BEZIER_KNOTS.);
#625 = CARTESIAN_POINT('',(-5.5,9.172567219662E-15,0.));
#626 = CARTESIAN_POINT('',(-5.5,7.588873106312E-15,2.));
#627 = ORIENTED_EDGE('',*,*,#173,.T.);
#628 = ORIENTED_EDGE('',*,*,#564,.F.);
#629 = B_SPLINE_SURFACE_WITH_KNOTS('',1,11,(
    (#630,#631,#632,#633,#634,#635,#636,#637,#638,#639,#640,#641)
    ,(#642,#643,#644,#645,#646,#647,#648,#649,#650,#651,#652,#653
  )),.UNSPECIFIED.,.F.,.F.,.F.,(2,2),(12,12),(-2.,-0.),(0.,
    6.303048278758),.PIECEWISE_BEZIER_KNOTS.);
#630 = CARTESIAN_POINT('',(-5.5,9.172567219662E-15,0.));
#631 = CARTESIAN_POINT('',(-5.727272727499,-3.14141812528,0.));
#632 = CARTESIAN_POINT('',(-3.981299867302,-6.567993571247,0.));
#633 = CARTESIAN_POINT('',(4.12825096389E-02,-8.906309065915,0.));
#634 = CARTESIAN_POINT('',(5.537863868605,-8.443303895095,0.));
#635 = CARTESIAN_POINT('',(10.349466283248,-4.220052194376,0.));
#636 = CARTESIAN_POINT('',(11.373437918134,2.916997027197,0.));
#637 = CARTESIAN_POINT('',(7.352356019372,8.863297629682,0.));
#638 = CARTESIAN_POINT('',(1.002358337397,10.845467839968,0.));
#639 = CARTESIAN_POINT('',(-4.672916898142,8.854725609094,0.));
#640 = CARTESIAN_POINT('',(-7.771635850369,4.571327241848,0.));
#641 = CARTESIAN_POINT('',(-8.000000003601,1.910763402389E-03,0.));
#642 = CARTESIAN_POINT('',(-5.5,7.588873106312E-15,2.));
#643 = CARTESIAN_POINT('',(-5.727272727499,-3.14141812528,2.));
#644 = CARTESIAN_POINT('',(-3.981299867302,-6.567993571246,2.));
#645 = CARTESIAN_POINT('',(4.128250963893E-02,-8.906309065917,2.));
#646 = CARTESIAN_POINT('',(5.537863868605,-8.443303895091,2.));
#647 = CARTESIAN_POINT('',(10.349466283248,-4.220052194382,2.));
#648 = CARTESIAN_POINT('',(11.373437918134,2.916997027204,2.));
#649 = CARTESIAN_POINT('',(7.352356019372,8.863297629677,2.));
#650 = CARTESIAN_POINT('',(1.002358337397,10.84546783997,2.));
#651 = CARTESIAN_POINT('',(-4.672916898142,8.854725609094,2.));
#652 = CARTESIAN_POINT('',(-7.771635850369,4.571327241848,2.));
#653 = CARTESIAN_POINT('',(-8.000000003601,1.91076340238E-03,2.));
#654 = ADVANCED_FACE('',(#655),#676,.T.);
#655 = FACE_BOUND('',#656,.F.);
#656 = EDGE_LOOP('',(#657,#658,#667,#675));
#657 = ORIENTED_EDGE('',*,*,#623,.F.);
#658 = ORIENTED_EDGE('',*,*,#659,.F.);
#659 = EDGE_CURVE('',#660,#607,#662,.T.);
#660 = VERTEX_POINT('',#661);
#661 = CARTESIAN_POINT('',(-1.699052700758,5.230986514994,
    -2.15562109656E-18));
#662 = CIRCLE('',#663,5.5);
#663 = AXIS2_PLACEMENT_3D('',#664,#665,#666);
#664 = CARTESIAN_POINT('',(0.,0.,0.));
#665 = DIRECTION('',(0.,0.,1.));
#666 = DIRECTION('',(1.,0.,0.));
#667 = ORIENTED_EDGE('',*,*,#668,.F.);
#668 = EDGE_CURVE('',#146,#660,#669,.T.);
#669 = B_SPLINE_CURVE_WITH_KNOTS('',4,(#670,#671,#672,#673,#674),
  .UNSPECIFIED.,.F.,.F.,(5,5),(0.,1.),.PIECEWISE_BEZIER_KNOTS.);
#670 = CARTESIAN_POINT('',(-1.699052700758,5.230986514994,2.));
#671 = CARTESIAN_POINT('',(-1.699052700758,5.230986514994,1.5));
#672 = CARTESIAN_POINT('',(-1.699052700758,5.230986514994,1.));
#673 = CARTESIAN_POINT('',(-1.699052700758,5.230986514994,0.5));
#674 = CARTESIAN_POINT('',(-1.699052700758,5.230986514994,
    2.22044604925E-16));
#675 = ORIENTED_EDGE('',*,*,#164,.T.);
#676 = CYLINDRICAL_SURFACE('',#677,5.5);
#677 = AXIS2_PLACEMENT_3D('',#678,#679,#680);
#678 = CARTESIAN_POINT('',(0.,0.,0.));
#679 = DIRECTION('',(-0.,-0.,-1.));
#680 = DIRECTION('',(1.,0.,0.));
#681 = ADVANCED_FACE('',(#682),#708,.T.);
#682 = FACE_BOUND('',#683,.T.);
#683 = EDGE_LOOP('',(#684,#701,#702,#703));
#684 = ORIENTED_EDGE('',*,*,#685,.F.);
#685 = EDGE_CURVE('',#660,#686,#688,.T.);
#686 = VERTEX_POINT('',#687);
#687 = CARTESIAN_POINT('',(7.250000003606,-1.913589975241E-03,0.));
#688 = B_SPLINE_CURVE_WITH_KNOTS('',11,(#689,#690,#691,#692,#693,#694,
    #695,#696,#697,#698,#699,#700),.UNSPECIFIED.,.F.,.F.,(12,12),(0.,
    6.303048278758),.PIECEWISE_BEZIER_KNOTS.);
#689 = CARTESIAN_POINT('',(4.75,6.509549843603E-16,-3.109221302219E-30)
  );
#690 = CARTESIAN_POINT('',(4.977272727502,2.713018868885,
    3.762909505323E-29));
#691 = CARTESIAN_POINT('',(3.500413325783,5.711204766862,
    -3.72926586323E-16));
#692 = CARTESIAN_POINT('',(1.661616792719E-02,7.808947049177,
    2.187835973094E-15));
#693 = CARTESIAN_POINT('',(-4.821756872951,7.481749329713,
    -6.381188254858E-15));
#694 = CARTESIAN_POINT('',(-9.142581589029,3.823507849801,
    1.172054985586E-14));
#695 = CARTESIAN_POINT('',(-10.16655472464,-2.52044812046,
    -1.465068731983E-14));
#696 = CARTESIAN_POINT('',(-6.636252658852,-7.901740361094,
    1.276237650972E-14));
#697 = CARTESIAN_POINT('',(-0.944463803906,-9.748105607686,
    -7.65742590583E-15));
#698 = CARTESIAN_POINT('',(4.192027124434,-7.997938621568,
    2.983412690583E-15));
#699 = CARTESIAN_POINT('',(7.021634235836,-4.14293081453,
    -6.215443105382E-16));
#700 = CARTESIAN_POINT('',(7.250000003606,-1.913589975382E-03,
    3.503123069586E-30));
#701 = ORIENTED_EDGE('',*,*,#668,.F.);
#702 = ORIENTED_EDGE('',*,*,#145,.T.);
#703 = ORIENTED_EDGE('',*,*,#704,.F.);
#704 = EDGE_CURVE('',#686,#148,#705,.T.);
#705 = B_SPLINE_CURVE_WITH_KNOTS('',1,(#706,#707),.UNSPECIFIED.,.F.,.F.,
  (2,2),(-2.,-0.),.PIECEWISE_BEZIER_KNOTS.);
#706 = CARTESIAN_POINT('',(7.250000003606,-1.913589975382E-03,
    3.503123069586E-30));
#707 = CARTESIAN_POINT('',(7.250000003606,-1.913589975382E-03,2.));
#708 = B_SPLINE_SURFACE_WITH_KNOTS('',1,11,(
    (#709,#710,#711,#712,#713,#714,#715,#716,#717,#718,#719,#720)
    ,(#721,#722,#723,#724,#725,#726,#727,#728,#729,#730,#731,#732
  )),.UNSPECIFIED.,.F.,.F.,.F.,(2,2),(12,12),(-2.,-0.),(0.,
    6.303048278758),.PIECEWISE_BEZIER_KNOTS.);
#709 = CARTESIAN_POINT('',(4.75,6.509549843603E-16,-3.109221302219E-30)
  );
#710 = CARTESIAN_POINT('',(4.977272727502,2.713018868885,
    3.762909505323E-29));
#711 = CARTESIAN_POINT('',(3.500413325783,5.711204766862,
    -3.72926586323E-16));
#712 = CARTESIAN_POINT('',(1.661616792719E-02,7.808947049177,
    2.187835973094E-15));
#713 = CARTESIAN_POINT('',(-4.821756872951,7.481749329713,
    -6.381188254858E-15));
#714 = CARTESIAN_POINT('',(-9.142581589029,3.823507849801,
    1.172054985586E-14));
#715 = CARTESIAN_POINT('',(-10.16655472464,-2.52044812046,
    -1.465068731983E-14));
#716 = CARTESIAN_POINT('',(-6.636252658852,-7.901740361094,
    1.276237650972E-14));
#717 = CARTESIAN_POINT('',(-0.944463803906,-9.748105607686,
    -7.65742590583E-15));
#718 = CARTESIAN_POINT('',(4.192027124434,-7.997938621568,
    2.983412690583E-15));
#719 = CARTESIAN_POINT('',(7.021634235836,-4.14293081453,
    -6.215443105382E-16));
#720 = CARTESIAN_POINT('',(7.250000003606,-1.913589975382E-03,
    3.503123069586E-30));
#721 = CARTESIAN_POINT('',(4.75,6.509549843603E-16,2.));
#722 = CARTESIAN_POINT('',(4.977272727502,2.713018868885,2.));
#723 = CARTESIAN_POINT('',(3.500413325782,5.711204766862,2.));
#724 = CARTESIAN_POINT('',(1.661616792887E-02,7.808947049177,2.));
#725 = CARTESIAN_POINT('',(-4.821756872953,7.481749329713,2.));
#726 = CARTESIAN_POINT('',(-9.142581589025,3.823507849801,2.));
#727 = CARTESIAN_POINT('',(-10.16655472464,-2.52044812046,2.));
#728 = CARTESIAN_POINT('',(-6.63625265885,-7.901740361094,2.));
#729 = CARTESIAN_POINT('',(-0.944463803907,-9.748105607686,2.));
#730 = CARTESIAN_POINT('',(4.192027124434,-7.997938621568,2.));
#731 = CARTESIAN_POINT('',(7.021634235836,-4.14293081453,2.));
#732 = CARTESIAN_POINT('',(7.250000003606,-1.913589975382E-03,2.));
#733 = ADVANCED_FACE('',(#734),#760,.T.);
#734 = FACE_BOUND('',#735,.T.);
#735 = EDGE_LOOP('',(#736,#753,#754,#755));
#736 = ORIENTED_EDGE('',*,*,#737,.F.);
#737 = EDGE_CURVE('',#686,#738,#740,.T.);
#738 = VERTEX_POINT('',#739);
#739 = CARTESIAN_POINT('',(9.750000014285,-3.808691190091E-03,
    8.084639707713E-31));
#740 = B_SPLINE_CURVE_WITH_KNOTS('',11,(#741,#742,#743,#744,#745,#746,
    #747,#748,#749,#750,#751,#752),.UNSPECIFIED.,.F.,.F.,(12,12),(0.,
    6.303048278758),.PIECEWISE_BEZIER_KNOTS.);
#741 = CARTESIAN_POINT('',(7.250000003606,-1.913589975355E-03,
    -3.478999851541E-30));
#742 = CARTESIAN_POINT('',(7.478365771799,4.139103634761,
    -3.430417926263E-29));
#743 = CARTESIAN_POINT('',(5.105553478505,8.565942155495,
    3.711250118137E-16));
#744 = CARTESIAN_POINT('',(-0.173582699888,11.466969566318,
    -2.177266735973E-15));
#745 = CARTESIAN_POINT('',(-7.206331916899,10.688757275809,
    6.350361313255E-15));
#746 = CARTESIAN_POINT('',(-13.16452358602,5.148396157175,
    -1.166392894271E-14));
#747 = CARTESIAN_POINT('',(-14.19051042431,-3.839207695535,
    1.457991117839E-14));
#748 = CARTESIAN_POINT('',(-9.025710619436,-11.10511178937,
    -1.270072262651E-14));
#749 = CARTESIAN_POINT('',(-1.140235274146,-13.40583408136,
    7.620433575905E-15));
#750 = CARTESIAN_POINT('',(5.792816320541,-10.85511804033,
    -2.969000094509E-15));
#751 = CARTESIAN_POINT('',(9.520551766606,-5.572824250725,
    6.18541686356E-16));
#752 = CARTESIAN_POINT('',(9.750000014285,-3.808691190091E-03,
    8.084639707713E-31));
#753 = ORIENTED_EDGE('',*,*,#704,.T.);
#754 = ORIENTED_EDGE('',*,*,#225,.T.);
#755 = ORIENTED_EDGE('',*,*,#756,.F.);
#756 = EDGE_CURVE('',#738,#217,#757,.T.);
#757 = B_SPLINE_CURVE_WITH_KNOTS('',1,(#758,#759),.UNSPECIFIED.,.F.,.F.,
  (2,2),(-2.,-0.),.PIECEWISE_BEZIER_KNOTS.);
#758 = CARTESIAN_POINT('',(9.750000014285,-3.808691190091E-03,
    8.084639707713E-31));
#759 = CARTESIAN_POINT('',(9.750000014285,-3.808691190091E-03,2.));
#760 = B_SPLINE_SURFACE_WITH_KNOTS('',1,11,(
    (#761,#762,#763,#764,#765,#766,#767,#768,#769,#770,#771,#772)
    ,(#773,#774,#775,#776,#777,#778,#779,#780,#781,#782,#783,#784
  )),.UNSPECIFIED.,.F.,.F.,.F.,(2,2),(12,12),(-2.,-0.),(0.,
    6.303048278758),.PIECEWISE_BEZIER_KNOTS.);
#761 = CARTESIAN_POINT('',(7.250000003606,-1.913589975355E-03,
    -3.478999851541E-30));
#762 = CARTESIAN_POINT('',(7.478365771799,4.139103634761,
    -3.430417926263E-29));
#763 = CARTESIAN_POINT('',(5.105553478505,8.565942155495,
    3.711250118137E-16));
#764 = CARTESIAN_POINT('',(-0.173582699888,11.466969566318,
    -2.177266735973E-15));
#765 = CARTESIAN_POINT('',(-7.206331916899,10.688757275809,
    6.350361313255E-15));
#766 = CARTESIAN_POINT('',(-13.16452358602,5.148396157175,
    -1.166392894271E-14));
#767 = CARTESIAN_POINT('',(-14.19051042431,-3.839207695535,
    1.457991117839E-14));
#768 = CARTESIAN_POINT('',(-9.025710619436,-11.10511178937,
    -1.270072262651E-14));
#769 = CARTESIAN_POINT('',(-1.140235274146,-13.40583408136,
    7.620433575905E-15));
#770 = CARTESIAN_POINT('',(5.792816320541,-10.85511804033,
    -2.969000094509E-15));
#771 = CARTESIAN_POINT('',(9.520551766606,-5.572824250725,
    6.18541686356E-16));
#772 = CARTESIAN_POINT('',(9.750000014285,-3.808691190091E-03,
    8.084639707713E-31));
#773 = CARTESIAN_POINT('',(7.250000003606,-1.913589975359E-03,2.));
#774 = CARTESIAN_POINT('',(7.478365771799,4.13910363476,2.));
#775 = CARTESIAN_POINT('',(5.105553478506,8.565942155495,2.));
#776 = CARTESIAN_POINT('',(-0.173582699889,11.466969566317,2.));
#777 = CARTESIAN_POINT('',(-7.206331916897,10.688757275811,2.));
#778 = CARTESIAN_POINT('',(-13.16452358602,5.148396157173,2.));
#779 = CARTESIAN_POINT('',(-14.19051042431,-3.839207695532,2.));
#780 = CARTESIAN_POINT('',(-9.02571061944,-11.10511178937,2.));
#781 = CARTESIAN_POINT('',(-1.140235274143,-13.40583408136,2.));
#782 = CARTESIAN_POINT('',(5.792816320539,-10.85511804034,2.));
#783 = CARTESIAN_POINT('',(9.520551766607,-5.572824250725,2.));
#784 = CARTESIAN_POINT('',(9.750000014285,-3.808691190091E-03,2.));
#785 = ADVANCED_FACE('',(#786),#811,.T.);
#786 = FACE_BOUND('',#787,.T.);
#787 = EDGE_LOOP('',(#788,#798,#804,#805));
#788 = ORIENTED_EDGE('',*,*,#789,.F.);
#789 = EDGE_CURVE('',#790,#792,#794,.T.);
#790 = VERTEX_POINT('',#791);
#791 = CARTESIAN_POINT('',(-3.,-3.,0.));
#792 = VERTEX_POINT('',#793);
#793 = CARTESIAN_POINT('',(3.,-3.,0.));
#794 = LINE('',#795,#796);
#795 = CARTESIAN_POINT('',(-3.,-3.,0.));
#796 = VECTOR('',#797,1.);
#797 = DIRECTION('',(1.,0.,0.));
#798 = ORIENTED_EDGE('',*,*,#799,.T.);
#799 = EDGE_CURVE('',#790,#245,#800,.T.);
#800 = LINE('',#801,#802);
#801 = CARTESIAN_POINT('',(-3.,-3.,0.));
#802 = VECTOR('',#803,1.);
#803 = DIRECTION('',(0.,0.,1.));
#804 = ORIENTED_EDGE('',*,*,#242,.F.);
#805 = ORIENTED_EDGE('',*,*,#806,.F.);
#806 = EDGE_CURVE('',#792,#243,#807,.T.);
#807 = LINE('',#808,#809);
#808 = CARTESIAN_POINT('',(3.,-3.,0.));
#809 = VECTOR('',#810,1.);
#810 = DIRECTION('',(0.,0.,1.));
#811 = PLANE('',#812);
#812 = AXIS2_PLACEMENT_3D('',#813,#814,#815);
#813 = CARTESIAN_POINT('',(-3.,-3.,0.));
#814 = DIRECTION('',(0.,1.,0.));
#815 = DIRECTION('',(1.,0.,0.));
#816 = ADVANCED_FACE('',(#817),#835,.T.);
#817 = FACE_BOUND('',#818,.T.);
#818 = EDGE_LOOP('',(#819,#827,#828,#829));
#819 = ORIENTED_EDGE('',*,*,#820,.F.);
#820 = EDGE_CURVE('',#792,#821,#823,.T.);
#821 = VERTEX_POINT('',#822);
#822 = CARTESIAN_POINT('',(3.,3.,0.));
#823 = LINE('',#824,#825);
#824 = CARTESIAN_POINT('',(3.,-3.,0.));
#825 = VECTOR('',#826,1.);
#826 = DIRECTION('',(0.,1.,0.));
#827 = ORIENTED_EDGE('',*,*,#806,.T.);
#828 = ORIENTED_EDGE('',*,*,#268,.F.);
#829 = ORIENTED_EDGE('',*,*,#830,.F.);
#830 = EDGE_CURVE('',#821,#261,#831,.T.);
#831 = LINE('',#832,#833);
#832 = CARTESIAN_POINT('',(3.,3.,0.));
#833 = VECTOR('',#834,1.);
#834 = DIRECTION('',(0.,0.,1.));
#835 = PLANE('',#836);
#836 = AXIS2_PLACEMENT_3D('',#837,#838,#839);
#837 = CARTESIAN_POINT('',(3.,-3.,0.));
#838 = DIRECTION('',(-1.,0.,0.));
#839 = DIRECTION('',(0.,1.,0.));
#840 = ADVANCED_FACE('',(#841),#859,.T.);
#841 = FACE_BOUND('',#842,.T.);
#842 = EDGE_LOOP('',(#843,#851,#857,#858));
#843 = ORIENTED_EDGE('',*,*,#844,.F.);
#844 = EDGE_CURVE('',#845,#790,#847,.T.);
#845 = VERTEX_POINT('',#846);
#846 = CARTESIAN_POINT('',(-3.,3.,0.));
#847 = LINE('',#848,#849);
#848 = CARTESIAN_POINT('',(-3.,3.,0.));
#849 = VECTOR('',#850,1.);
#850 = DIRECTION('',(0.,-1.,0.));
#851 = ORIENTED_EDGE('',*,*,#852,.T.);
#852 = EDGE_CURVE('',#845,#253,#853,.T.);
#853 = LINE('',#854,#855);
#854 = CARTESIAN_POINT('',(-3.,3.,0.));
#855 = VECTOR('',#856,1.);
#856 = DIRECTION('',(0.,0.,1.));
#857 = ORIENTED_EDGE('',*,*,#252,.F.);
#858 = ORIENTED_EDGE('',*,*,#799,.F.);
#859 = PLANE('',#860);
#860 = AXIS2_PLACEMENT_3D('',#861,#862,#863);
#861 = CARTESIAN_POINT('',(-3.,3.,0.));
#862 = DIRECTION('',(1.,0.,0.));
#863 = DIRECTION('',(0.,-1.,0.));
#864 = ADVANCED_FACE('',(#865),#876,.T.);
#865 = FACE_BOUND('',#866,.T.);
#866 = EDGE_LOOP('',(#867,#873,#874,#875));
#867 = ORIENTED_EDGE('',*,*,#868,.F.);
#868 = EDGE_CURVE('',#821,#845,#869,.T.);
#869 = LINE('',#870,#871);
#870 = CARTESIAN_POINT('',(3.,3.,0.));
#871 = VECTOR('',#872,1.);
#872 = DIRECTION('',(-1.,0.,0.));
#873 = ORIENTED_EDGE('',*,*,#830,.T.);
#874 = ORIENTED_EDGE('',*,*,#260,.F.);
#875 = ORIENTED_EDGE('',*,*,#852,.F.);
#876 = PLANE('',#877);
#877 = AXIS2_PLACEMENT_3D('',#878,#879,#880);
#878 = CARTESIAN_POINT('',(3.,3.,0.));
#879 = DIRECTION('',(0.,-1.,0.));
#880 = DIRECTION('',(-1.,0.,0.));
#881 = ADVANCED_FACE('',(#882,#885,#893,#916),#922,.T.);
#882 = FACE_BOUND('',#883,.T.);
#883 = EDGE_LOOP('',(#884));
#884 = ORIENTED_EDGE('',*,*,#21,.F.);
#885 = FACE_BOUND('',#886,.T.);
#886 = EDGE_LOOP('',(#887,#888,#889,#890,#891,#892));
#887 = ORIENTED_EDGE('',*,*,#477,.T.);
#888 = ORIENTED_EDGE('',*,*,#528,.T.);
#889 = ORIENTED_EDGE('',*,*,#422,.F.);
#890 = ORIENTED_EDGE('',*,*,#318,.F.);
#891 = ORIENTED_EDGE('',*,*,#290,.F.);
#892 = ORIENTED_EDGE('',*,*,#370,.T.);
#893 = FACE_BOUND('',#894,.T.);
#894 = EDGE_LOOP('',(#895,#896,#897,#898,#907,#914,#915));
#895 = ORIENTED_EDGE('',*,*,#659,.F.);
#896 = ORIENTED_EDGE('',*,*,#685,.T.);
#897 = ORIENTED_EDGE('',*,*,#737,.T.);
#898 = ORIENTED_EDGE('',*,*,#899,.T.);
#899 = EDGE_CURVE('',#738,#900,#902,.T.);
#900 = VERTEX_POINT('',#901);
#901 = CARTESIAN_POINT('',(9.750000758189,0.,0.));
#902 = CIRCLE('',#903,9.750000758189);
#903 = AXIS2_PLACEMENT_3D('',#904,#905,#906);
#904 = CARTESIAN_POINT('',(0.,0.,0.));
#905 = DIRECTION('',(0.,0.,1.));
#906 = DIRECTION('',(1.,0.,0.));
#907 = ORIENTED_EDGE('',*,*,#908,.T.);
#908 = EDGE_CURVE('',#900,#548,#909,.T.);
#909 = CIRCLE('',#910,9.750000758189);
#910 = AXIS2_PLACEMENT_3D('',#911,#912,#913);
#911 = CARTESIAN_POINT('',(0.,0.,0.));
#912 = DIRECTION('',(0.,0.,1.));
#913 = DIRECTION('',(1.,0.,0.));
#914 = ORIENTED_EDGE('',*,*,#545,.F.);
#915 = ORIENTED_EDGE('',*,*,#606,.F.);
#916 = FACE_BOUND('',#917,.T.);
#917 = EDGE_LOOP('',(#918,#919,#920,#921));
#918 = ORIENTED_EDGE('',*,*,#844,.T.);
#919 = ORIENTED_EDGE('',*,*,#789,.T.);
#920 = ORIENTED_EDGE('',*,*,#820,.T.);
#921 = ORIENTED_EDGE('',*,*,#868,.T.);
#922 = PLANE('',#923);
#923 = AXIS2_PLACEMENT_3D('',#924,#925,#926);
#924 = CARTESIAN_POINT('',(-7.458764359306E-16,-4.490371596874E-16,0.));
#925 = DIRECTION('',(-0.,-0.,-1.));
#926 = DIRECTION('',(-1.,0.,0.));
#927 = ADVANCED_FACE('',(#928),#936,.F.);
#928 = FACE_BOUND('',#929,.T.);
#929 = EDGE_LOOP('',(#930,#931,#932,#933,#934,#935));
#930 = ORIENTED_EDGE('',*,*,#207,.F.);
#931 = ORIENTED_EDGE('',*,*,#570,.T.);
#932 = ORIENTED_EDGE('',*,*,#908,.F.);
#933 = ORIENTED_EDGE('',*,*,#899,.F.);
#934 = ORIENTED_EDGE('',*,*,#756,.T.);
#935 = ORIENTED_EDGE('',*,*,#216,.F.);
#936 = CYLINDRICAL_SURFACE('',#937,9.750000758189);
#937 = AXIS2_PLACEMENT_3D('',#938,#939,#940);
#938 = CARTESIAN_POINT('',(0.,0.,0.));
#939 = DIRECTION('',(-0.,-0.,-1.));
#940 = DIRECTION('',(1.,0.,0.));
#941 = ( GEOMETRIC_REPRESENTATION_CONTEXT(3) 
GLOBAL_UNCERTAINTY_ASSIGNED_CONTEXT((#945)) GLOBAL_UNIT_ASSIGNED_CONTEXT
((#942,#943,#944)) REPRESENTATION_CONTEXT('Context #1',
  '3D Context with UNIT and UNCERTAINTY') );
#942 = ( LENGTH_UNIT() NAMED_UNIT(*) SI_UNIT(.MILLI.,.METRE.) );
#943 = ( NAMED_UNIT(*) PLANE_ANGLE_UNIT() SI_UNIT($,.RADIAN.) );
#944 = ( NAMED_UNIT(*) SI_UNIT($,.STERADIAN.) SOLID_ANGLE_UNIT() );
#945 = UNCERTAINTY_MEASURE_WITH_UNIT(LENGTH_MEASURE(1.E-05),#942,
  'distance_accuracy_value','confusion accuracy');
#946 = PRODUCT_RELATED_PRODUCT_CATEGORY('part',$,(#7));
#947 = MECHANICAL_DESIGN_GEOMETRIC_PRESENTATION_REPRESENTATION('',(#948)
  ,#941);
#948 = STYLED_ITEM('color',(#949),#15);
#949 = PRESENTATION_STYLE_ASSIGNMENT((#950,#956));
#950 = SURFACE_STYLE_USAGE(.BOTH.,#951);
#951 = SURFACE_SIDE_STYLE('',(#952));
#952 = SURFACE_STYLE_FILL_AREA(#953);
#953 = FILL_AREA_STYLE('',(#954));
#954 = FILL_AREA_STYLE_COLOUR('',#955);
#955 = COLOUR_RGB('',0.447058818107,0.474509808674,0.501960817233);
#956 = CURVE_STYLE('',#957,POSITIVE_LENGTH_MEASURE(0.1),#958);
#957 = DRAUGHTING_PRE_DEFINED_CURVE_FONT('continuous');
#958 = COLOUR_RGB('',9.803921802644E-02,9.803921802644E-02,
  9.803921802644E-02);
ENDSEC;
END-ISO-10303-21;
