ISO-10303-21;
HEADER;
FILE_DESCRIPTION(('FreeCAD Model'),'2;1');
FILE_NAME('Open CASCADE Shape Model','2026-01-23T08:33:18',(''),(''),
  'Open CASCADE STEP processor 7.8','FreeCAD','Unknown');
FILE_SCHEMA(('AUTOMOTIVE_DESIGN { 1 0 10303 214 1 1 1 1 }'));
ENDSEC;
DATA;
#1 = APPLICATION_PROTOCOL_DEFINITION('international standard',
  'automotive_design',2000,#2);
#2 = APPLICATION_CONTEXT(
  'core data for automotive mechanical design processes');
#3 = SHAPE_DEFINITION_REPRESENTATION(#4,#10);
#4 = PRODUCT_DEFINITION_SHAPE('','',#5);
#5 = PRODUCT_DEFINITION('design','',#6,#9);
#6 = PRODUCT_DEFINITION_FORMATION('','',#7);
#7 = PRODUCT('coil','coil','',(#8));
#8 = PRODUCT_CONTEXT('',#2,'mechanical');
#9 = PRODUCT_DEFINITION_CONTEXT('part definition',#2,'design');
#10 = ADVANCED_BREP_SHAPE_REPRESENTATION('',(#11,#15),#749);
#11 = AXIS2_PLACEMENT_3D('',#12,#13,#14);
#12 = CARTESIAN_POINT('',(0.,0.,0.));
#13 = DIRECTION('',(0.,0.,1.));
#14 = DIRECTION('',(1.,0.,-0.));
#15 = MANIFOLD_SOLID_BREP('',#16);
#16 = CLOSED_SHELL('',(#17,#79,#110,#141,#172,#203,#241,#258,#275,#291,
    #310,#326,#345,#356,#367,#391,#442,#457,#474,#497,#520,#565,#589,
    #622,#639,#670,#687,#704,#720,#733));
#17 = ADVANCED_FACE('',(#18,#52,#63),#74,.F.);
#18 = FACE_BOUND('',#19,.T.);
#19 = EDGE_LOOP('',(#20,#30,#38,#46));
#20 = ORIENTED_EDGE('',*,*,#21,.T.);
#21 = EDGE_CURVE('',#22,#24,#26,.T.);
#22 = VERTEX_POINT('',#23);
#23 = CARTESIAN_POINT('',(6.999999818462,-2.,7.));
#24 = VERTEX_POINT('',#25);
#25 = CARTESIAN_POINT('',(6.999999818462,-2.,27.));
#26 = LINE('',#27,#28);
#27 = CARTESIAN_POINT('',(7.,-2.,7.));
#28 = VECTOR('',#29,1.);
#29 = DIRECTION('',(-2.22044604925E-16,2.465190328816E-32,1.));
#30 = ORIENTED_EDGE('',*,*,#31,.T.);
#31 = EDGE_CURVE('',#24,#32,#34,.T.);
#32 = VERTEX_POINT('',#33);
#33 = CARTESIAN_POINT('',(6.999999818462,2.,27.));
#34 = LINE('',#35,#36);
#35 = CARTESIAN_POINT('',(7.,-2.,27.));
#36 = VECTOR('',#37,1.);
#37 = DIRECTION('',(2.22044604925E-16,1.,2.465190328816E-32));
#38 = ORIENTED_EDGE('',*,*,#39,.F.);
#39 = EDGE_CURVE('',#40,#32,#42,.T.);
#40 = VERTEX_POINT('',#41);
#41 = CARTESIAN_POINT('',(6.999999818462,2.,7.));
#42 = LINE('',#43,#44);
#43 = CARTESIAN_POINT('',(7.,2.,7.));
#44 = VECTOR('',#45,1.);
#45 = DIRECTION('',(-2.22044604925E-16,2.465190328816E-32,1.));
#46 = ORIENTED_EDGE('',*,*,#47,.F.);
#47 = EDGE_CURVE('',#22,#40,#48,.T.);
#48 = LINE('',#49,#50);
#49 = CARTESIAN_POINT('',(7.,-2.,7.));
#50 = VECTOR('',#51,1.);
#51 = DIRECTION('',(2.22044604925E-16,1.,2.465190328816E-32));
#52 = FACE_BOUND('',#53,.T.);
#53 = EDGE_LOOP('',(#54));
#54 = ORIENTED_EDGE('',*,*,#55,.T.);
#55 = EDGE_CURVE('',#56,#56,#58,.T.);
#56 = VERTEX_POINT('',#57);
#57 = CARTESIAN_POINT('',(7.,1.5,22.5));
#58 = CIRCLE('',#59,1.5);
#59 = AXIS2_PLACEMENT_3D('',#60,#61,#62);
#60 = CARTESIAN_POINT('',(7.,-1.515303460955E-15,22.5));
#61 = DIRECTION('',(1.,-2.22044604925E-16,2.22044604925E-16));
#62 = DIRECTION('',(2.22044604925E-16,1.,2.465190328816E-32));
#63 = FACE_BOUND('',#64,.T.);
#64 = EDGE_LOOP('',(#65));
#65 = ORIENTED_EDGE('',*,*,#66,.T.);
#66 = EDGE_CURVE('',#67,#67,#69,.T.);
#67 = VERTEX_POINT('',#68);
#68 = CARTESIAN_POINT('',(7.,1.5,11.5));
#69 = CIRCLE('',#70,1.5);
#70 = AXIS2_PLACEMENT_3D('',#71,#72,#73);
#71 = CARTESIAN_POINT('',(7.,-7.97499327489E-15,11.5));
#72 = DIRECTION('',(1.,-2.22044604925E-16,2.22044604925E-16));
#73 = DIRECTION('',(2.22044604925E-16,1.,2.465190328816E-32));
#74 = PLANE('',#75);
#75 = AXIS2_PLACEMENT_3D('',#76,#77,#78);
#76 = CARTESIAN_POINT('',(7.,-2.,7.));
#77 = DIRECTION('',(1.,-2.22044604925E-16,2.22044604925E-16));
#78 = DIRECTION('',(-2.22044604925E-16,-1.,-2.465190328816E-32));
#79 = ADVANCED_FACE('',(#80),#105,.F.);
#80 = FACE_BOUND('',#81,.T.);
#81 = EDGE_LOOP('',(#82,#92,#98,#99));
#82 = ORIENTED_EDGE('',*,*,#83,.T.);
#83 = EDGE_CURVE('',#84,#86,#88,.T.);
#84 = VERTEX_POINT('',#85);
#85 = CARTESIAN_POINT('',(9.,-2.,7.));
#86 = VERTEX_POINT('',#87);
#87 = CARTESIAN_POINT('',(9.,-2.,27.));
#88 = LINE('',#89,#90);
#89 = CARTESIAN_POINT('',(9.,-2.,7.));
#90 = VECTOR('',#91,1.);
#91 = DIRECTION('',(-2.22044604925E-16,2.465190328816E-32,1.));
#92 = ORIENTED_EDGE('',*,*,#93,.T.);
#93 = EDGE_CURVE('',#86,#24,#94,.T.);
#94 = LINE('',#95,#96);
#95 = CARTESIAN_POINT('',(9.,-2.,27.));
#96 = VECTOR('',#97,1.);
#97 = DIRECTION('',(-1.,2.22044604925E-16,-2.22044604925E-16));
#98 = ORIENTED_EDGE('',*,*,#21,.F.);
#99 = ORIENTED_EDGE('',*,*,#100,.F.);
#100 = EDGE_CURVE('',#84,#22,#101,.T.);
#101 = LINE('',#102,#103);
#102 = CARTESIAN_POINT('',(9.,-2.,7.));
#103 = VECTOR('',#104,1.);
#104 = DIRECTION('',(-1.,2.22044604925E-16,-2.22044604925E-16));
#105 = PLANE('',#106);
#106 = AXIS2_PLACEMENT_3D('',#107,#108,#109);
#107 = CARTESIAN_POINT('',(9.,-2.,7.));
#108 = DIRECTION('',(2.22044604925E-16,1.,2.465190328816E-32));
#109 = DIRECTION('',(1.,-2.22044604925E-16,2.22044604925E-16));
#110 = ADVANCED_FACE('',(#111),#136,.F.);
#111 = FACE_BOUND('',#112,.T.);
#112 = EDGE_LOOP('',(#113,#123,#129,#130));
#113 = ORIENTED_EDGE('',*,*,#114,.F.);
#114 = EDGE_CURVE('',#115,#117,#119,.T.);
#115 = VERTEX_POINT('',#116);
#116 = CARTESIAN_POINT('',(6.99999965359,-2.,4.));
#117 = VERTEX_POINT('',#118);
#118 = CARTESIAN_POINT('',(6.99999965359,2.,4.));
#119 = LINE('',#120,#121);
#120 = CARTESIAN_POINT('',(6.99999965359,-2.,4.));
#121 = VECTOR('',#122,1.);
#122 = DIRECTION('',(2.22044604925E-16,1.,-1.224646799147E-16));
#123 = ORIENTED_EDGE('',*,*,#124,.T.);
#124 = EDGE_CURVE('',#115,#22,#125,.T.);
#125 = LINE('',#126,#127);
#126 = CARTESIAN_POINT('',(6.99999965359,-2.,4.));
#127 = VECTOR('',#128,1.);
#128 = DIRECTION('',(-2.22044604925E-16,1.224646799147E-16,1.));
#129 = ORIENTED_EDGE('',*,*,#47,.T.);
#130 = ORIENTED_EDGE('',*,*,#131,.F.);
#131 = EDGE_CURVE('',#117,#40,#132,.T.);
#132 = LINE('',#133,#134);
#133 = CARTESIAN_POINT('',(6.99999965359,2.,4.));
#134 = VECTOR('',#135,1.);
#135 = DIRECTION('',(-2.22044604925E-16,1.224646799147E-16,1.));
#136 = PLANE('',#137);
#137 = AXIS2_PLACEMENT_3D('',#138,#139,#140);
#138 = CARTESIAN_POINT('',(6.99999965359,-2.,4.));
#139 = DIRECTION('',(1.,-2.22044604925E-16,2.22044604925E-16));
#140 = DIRECTION('',(-2.22044604925E-16,-1.,1.224646799147E-16));
#141 = ADVANCED_FACE('',(#142),#167,.F.);
#142 = FACE_BOUND('',#143,.F.);
#143 = EDGE_LOOP('',(#144,#154,#160,#161));
#144 = ORIENTED_EDGE('',*,*,#145,.F.);
#145 = EDGE_CURVE('',#146,#148,#150,.T.);
#146 = VERTEX_POINT('',#147);
#147 = CARTESIAN_POINT('',(6.99999965359,-2.,30.));
#148 = VERTEX_POINT('',#149);
#149 = CARTESIAN_POINT('',(6.99999965359,2.,30.));
#150 = LINE('',#151,#152);
#151 = CARTESIAN_POINT('',(6.99999965359,-2.,30.));
#152 = VECTOR('',#153,1.);
#153 = DIRECTION('',(2.22044604925E-16,1.,-5.436691348604E-16));
#154 = ORIENTED_EDGE('',*,*,#155,.T.);
#155 = EDGE_CURVE('',#146,#24,#156,.T.);
#156 = LINE('',#157,#158);
#157 = CARTESIAN_POINT('',(6.99999965359,-2.,30.));
#158 = VECTOR('',#159,1.);
#159 = DIRECTION('',(-1.2071879826E-31,-5.436691348604E-16,-1.));
#160 = ORIENTED_EDGE('',*,*,#31,.T.);
#161 = ORIENTED_EDGE('',*,*,#162,.F.);
#162 = EDGE_CURVE('',#148,#32,#163,.T.);
#163 = LINE('',#164,#165);
#164 = CARTESIAN_POINT('',(6.99999965359,2.,30.));
#165 = VECTOR('',#166,1.);
#166 = DIRECTION('',(-1.2071879826E-31,-5.436691348604E-16,-1.));
#167 = PLANE('',#168);
#168 = AXIS2_PLACEMENT_3D('',#169,#170,#171);
#169 = CARTESIAN_POINT('',(6.99999965359,-2.,30.));
#170 = DIRECTION('',(1.,-2.22044604925E-16,-3.284293275761E-47));
#171 = DIRECTION('',(2.22044604925E-16,1.,-5.436691348604E-16));
#172 = ADVANCED_FACE('',(#173),#198,.F.);
#173 = FACE_BOUND('',#174,.T.);
#174 = EDGE_LOOP('',(#175,#176,#184,#192));
#175 = ORIENTED_EDGE('',*,*,#39,.T.);
#176 = ORIENTED_EDGE('',*,*,#177,.T.);
#177 = EDGE_CURVE('',#32,#178,#180,.T.);
#178 = VERTEX_POINT('',#179);
#179 = CARTESIAN_POINT('',(9.,2.,27.));
#180 = LINE('',#181,#182);
#181 = CARTESIAN_POINT('',(7.,2.,27.));
#182 = VECTOR('',#183,1.);
#183 = DIRECTION('',(1.,-2.22044604925E-16,2.22044604925E-16));
#184 = ORIENTED_EDGE('',*,*,#185,.F.);
#185 = EDGE_CURVE('',#186,#178,#188,.T.);
#186 = VERTEX_POINT('',#187);
#187 = CARTESIAN_POINT('',(9.,2.,7.));
#188 = LINE('',#189,#190);
#189 = CARTESIAN_POINT('',(9.,2.,7.));
#190 = VECTOR('',#191,1.);
#191 = DIRECTION('',(-2.22044604925E-16,2.465190328816E-32,1.));
#192 = ORIENTED_EDGE('',*,*,#193,.F.);
#193 = EDGE_CURVE('',#40,#186,#194,.T.);
#194 = LINE('',#195,#196);
#195 = CARTESIAN_POINT('',(7.,2.,7.));
#196 = VECTOR('',#197,1.);
#197 = DIRECTION('',(1.,-2.22044604925E-16,2.22044604925E-16));
#198 = PLANE('',#199);
#199 = AXIS2_PLACEMENT_3D('',#200,#201,#202);
#200 = CARTESIAN_POINT('',(7.,2.,7.));
#201 = DIRECTION('',(-2.22044604925E-16,-1.,-2.465190328816E-32));
#202 = DIRECTION('',(-1.,2.22044604925E-16,-2.22044604925E-16));
#203 = ADVANCED_FACE('',(#204),#236,.F.);
#204 = FACE_BOUND('',#205,.T.);
#205 = EDGE_LOOP('',(#206,#207,#215,#221,#222,#230));
#206 = ORIENTED_EDGE('',*,*,#185,.T.);
#207 = ORIENTED_EDGE('',*,*,#208,.T.);
#208 = EDGE_CURVE('',#178,#209,#211,.T.);
#209 = VERTEX_POINT('',#210);
#210 = CARTESIAN_POINT('',(9.,-6.088295537791E-10,27.));
#211 = LINE('',#212,#213);
#212 = CARTESIAN_POINT('',(9.,2.,27.));
#213 = VECTOR('',#214,1.);
#214 = DIRECTION('',(-2.22044604925E-16,-1.,-2.465190328816E-32));
#215 = ORIENTED_EDGE('',*,*,#216,.T.);
#216 = EDGE_CURVE('',#209,#86,#217,.T.);
#217 = LINE('',#218,#219);
#218 = CARTESIAN_POINT('',(9.,2.,27.));
#219 = VECTOR('',#220,1.);
#220 = DIRECTION('',(-2.22044604925E-16,-1.,-2.465190328816E-32));
#221 = ORIENTED_EDGE('',*,*,#83,.F.);
#222 = ORIENTED_EDGE('',*,*,#223,.F.);
#223 = EDGE_CURVE('',#224,#84,#226,.T.);
#224 = VERTEX_POINT('',#225);
#225 = CARTESIAN_POINT('',(9.,-4.555315873023E-16,7.));
#226 = LINE('',#227,#228);
#227 = CARTESIAN_POINT('',(9.,2.,7.));
#228 = VECTOR('',#229,1.);
#229 = DIRECTION('',(-2.22044604925E-16,-1.,-2.465190328816E-32));
#230 = ORIENTED_EDGE('',*,*,#231,.F.);
#231 = EDGE_CURVE('',#186,#224,#232,.T.);
#232 = LINE('',#233,#234);
#233 = CARTESIAN_POINT('',(9.,2.,7.));
#234 = VECTOR('',#235,1.);
#235 = DIRECTION('',(-2.22044604925E-16,-1.,-2.465190328816E-32));
#236 = PLANE('',#237);
#237 = AXIS2_PLACEMENT_3D('',#238,#239,#240);
#238 = CARTESIAN_POINT('',(9.,2.,7.));
#239 = DIRECTION('',(-1.,2.22044604925E-16,-2.22044604925E-16));
#240 = DIRECTION('',(2.22044604925E-16,1.,2.465190328816E-32));
#241 = ADVANCED_FACE('',(#242),#253,.F.);
#242 = FACE_BOUND('',#243,.T.);
#243 = EDGE_LOOP('',(#244,#251,#252));
#244 = ORIENTED_EDGE('',*,*,#245,.T.);
#245 = EDGE_CURVE('',#22,#224,#246,.T.);
#246 = CIRCLE('',#247,2.);
#247 = AXIS2_PLACEMENT_3D('',#248,#249,#250);
#248 = CARTESIAN_POINT('',(7.,-1.554312234475E-15,7.));
#249 = DIRECTION('',(-2.22044604925E-16,1.224646799147E-16,1.));
#250 = DIRECTION('',(-1.,2.22044604925E-16,-2.22044604925E-16));
#251 = ORIENTED_EDGE('',*,*,#223,.T.);
#252 = ORIENTED_EDGE('',*,*,#100,.T.);
#253 = PLANE('',#254);
#254 = AXIS2_PLACEMENT_3D('',#255,#256,#257);
#255 = CARTESIAN_POINT('',(8.,-1.7763568394E-15,7.));
#256 = DIRECTION('',(-2.22044604925E-16,2.465190328816E-32,1.));
#257 = DIRECTION('',(1.,-2.22044604925E-16,2.22044604925E-16));
#258 = ADVANCED_FACE('',(#259),#270,.T.);
#259 = FACE_BOUND('',#260,.F.);
#260 = EDGE_LOOP('',(#261,#268,#269));
#261 = ORIENTED_EDGE('',*,*,#262,.T.);
#262 = EDGE_CURVE('',#24,#209,#263,.T.);
#263 = CIRCLE('',#264,2.);
#264 = AXIS2_PLACEMENT_3D('',#265,#266,#267);
#265 = CARTESIAN_POINT('',(7.,5.107025913276E-15,27.));
#266 = DIRECTION('',(1.2071879826E-31,5.436691348604E-16,1.));
#267 = DIRECTION('',(-1.,2.22044604925E-16,3.284293275761E-47));
#268 = ORIENTED_EDGE('',*,*,#216,.T.);
#269 = ORIENTED_EDGE('',*,*,#93,.T.);
#270 = PLANE('',#271);
#271 = AXIS2_PLACEMENT_3D('',#272,#273,#274);
#272 = CARTESIAN_POINT('',(8.,-1.7763568394E-15,27.));
#273 = DIRECTION('',(-2.22044604925E-16,2.465190328816E-32,1.));
#274 = DIRECTION('',(1.,-2.22044604925E-16,2.22044604925E-16));
#275 = ADVANCED_FACE('',(#276),#286,.F.);
#276 = FACE_BOUND('',#277,.T.);
#277 = EDGE_LOOP('',(#278,#285));
#278 = ORIENTED_EDGE('',*,*,#279,.T.);
#279 = EDGE_CURVE('',#117,#115,#280,.T.);
#280 = CIRCLE('',#281,2.);
#281 = AXIS2_PLACEMENT_3D('',#282,#283,#284);
#282 = CARTESIAN_POINT('',(7.,-1.921706274219E-15,4.));
#283 = DIRECTION('',(2.22044604925E-16,-1.224646799147E-16,-1.));
#284 = DIRECTION('',(-1.,2.22044604925E-16,-2.22044604925E-16));
#285 = ORIENTED_EDGE('',*,*,#114,.T.);
#286 = PLANE('',#287);
#287 = AXIS2_PLACEMENT_3D('',#288,#289,#290);
#288 = CARTESIAN_POINT('',(7.6928201198,-6.948401566076E-15,4.));
#289 = DIRECTION('',(-2.22044604925E-16,2.465190328816E-32,1.));
#290 = DIRECTION('',(1.,-2.22044604925E-16,2.22044604925E-16));
#291 = ADVANCED_FACE('',(#292),#305,.T.);
#292 = FACE_BOUND('',#293,.T.);
#293 = EDGE_LOOP('',(#294,#295,#296,#303,#304));
#294 = ORIENTED_EDGE('',*,*,#279,.F.);
#295 = ORIENTED_EDGE('',*,*,#131,.T.);
#296 = ORIENTED_EDGE('',*,*,#297,.F.);
#297 = EDGE_CURVE('',#224,#40,#298,.T.);
#298 = CIRCLE('',#299,2.);
#299 = AXIS2_PLACEMENT_3D('',#300,#301,#302);
#300 = CARTESIAN_POINT('',(7.,-1.554312234475E-15,7.));
#301 = DIRECTION('',(-2.22044604925E-16,1.224646799147E-16,1.));
#302 = DIRECTION('',(-1.,2.22044604925E-16,-2.22044604925E-16));
#303 = ORIENTED_EDGE('',*,*,#245,.F.);
#304 = ORIENTED_EDGE('',*,*,#124,.F.);
#305 = CYLINDRICAL_SURFACE('',#306,2.);
#306 = AXIS2_PLACEMENT_3D('',#307,#308,#309);
#307 = CARTESIAN_POINT('',(7.,-1.921706274219E-15,4.));
#308 = DIRECTION('',(2.22044604925E-16,-1.224646799147E-16,-1.));
#309 = DIRECTION('',(-1.,2.22044604925E-16,-2.22044604925E-16));
#310 = ADVANCED_FACE('',(#311),#321,.F.);
#311 = FACE_BOUND('',#312,.F.);
#312 = EDGE_LOOP('',(#313,#320));
#313 = ORIENTED_EDGE('',*,*,#314,.T.);
#314 = EDGE_CURVE('',#148,#146,#315,.T.);
#315 = CIRCLE('',#316,2.);
#316 = AXIS2_PLACEMENT_3D('',#317,#318,#319);
#317 = CARTESIAN_POINT('',(7.,6.738033317857E-15,30.));
#318 = DIRECTION('',(-1.2071879826E-31,-5.436691348604E-16,-1.));
#319 = DIRECTION('',(-1.,2.22044604925E-16,1.698561914348E-47));
#320 = ORIENTED_EDGE('',*,*,#145,.T.);
#321 = PLANE('',#322);
#322 = AXIS2_PLACEMENT_3D('',#323,#324,#325);
#323 = CARTESIAN_POINT('',(7.6928201198,1.711338026E-15,30.));
#324 = DIRECTION('',(-1.479114197289E-31,-6.661338147751E-16,-1.));
#325 = DIRECTION('',(-1.,2.22044604925E-16,3.284293275761E-47));
#326 = ADVANCED_FACE('',(#327),#340,.T.);
#327 = FACE_BOUND('',#328,.F.);
#328 = EDGE_LOOP('',(#329,#330,#331,#338,#339));
#329 = ORIENTED_EDGE('',*,*,#314,.F.);
#330 = ORIENTED_EDGE('',*,*,#162,.T.);
#331 = ORIENTED_EDGE('',*,*,#332,.F.);
#332 = EDGE_CURVE('',#209,#32,#333,.T.);
#333 = CIRCLE('',#334,2.);
#334 = AXIS2_PLACEMENT_3D('',#335,#336,#337);
#335 = CARTESIAN_POINT('',(7.,5.107025913276E-15,27.));
#336 = DIRECTION('',(1.2071879826E-31,5.436691348604E-16,1.));
#337 = DIRECTION('',(-1.,2.22044604925E-16,3.284293275761E-47));
#338 = ORIENTED_EDGE('',*,*,#262,.F.);
#339 = ORIENTED_EDGE('',*,*,#155,.F.);
#340 = CYLINDRICAL_SURFACE('',#341,2.);
#341 = AXIS2_PLACEMENT_3D('',#342,#343,#344);
#342 = CARTESIAN_POINT('',(7.,6.738033317857E-15,30.));
#343 = DIRECTION('',(1.2071879826E-31,5.436691348604E-16,1.));
#344 = DIRECTION('',(-1.,2.22044604925E-16,3.284293275761E-47));
#345 = ADVANCED_FACE('',(#346),#351,.F.);
#346 = FACE_BOUND('',#347,.T.);
#347 = EDGE_LOOP('',(#348,#349,#350));
#348 = ORIENTED_EDGE('',*,*,#193,.T.);
#349 = ORIENTED_EDGE('',*,*,#231,.T.);
#350 = ORIENTED_EDGE('',*,*,#297,.T.);
#351 = PLANE('',#352);
#352 = AXIS2_PLACEMENT_3D('',#353,#354,#355);
#353 = CARTESIAN_POINT('',(8.,-1.7763568394E-15,7.));
#354 = DIRECTION('',(-2.22044604925E-16,2.465190328816E-32,1.));
#355 = DIRECTION('',(1.,-2.22044604925E-16,2.22044604925E-16));
#356 = ADVANCED_FACE('',(#357),#362,.T.);
#357 = FACE_BOUND('',#358,.F.);
#358 = EDGE_LOOP('',(#359,#360,#361));
#359 = ORIENTED_EDGE('',*,*,#177,.T.);
#360 = ORIENTED_EDGE('',*,*,#208,.T.);
#361 = ORIENTED_EDGE('',*,*,#332,.T.);
#362 = PLANE('',#363);
#363 = AXIS2_PLACEMENT_3D('',#364,#365,#366);
#364 = CARTESIAN_POINT('',(8.,-1.7763568394E-15,27.));
#365 = DIRECTION('',(-2.22044604925E-16,2.465190328816E-32,1.));
#366 = DIRECTION('',(1.,-2.22044604925E-16,2.22044604925E-16));
#367 = ADVANCED_FACE('',(#368),#386,.T.);
#368 = FACE_BOUND('',#369,.F.);
#369 = EDGE_LOOP('',(#370,#371,#378,#385));
#370 = ORIENTED_EDGE('',*,*,#55,.T.);
#371 = ORIENTED_EDGE('',*,*,#372,.T.);
#372 = EDGE_CURVE('',#56,#373,#375,.T.);
#373 = VERTEX_POINT('',#374);
#374 = CARTESIAN_POINT('',(-7.,1.5,22.5));
#375 = B_SPLINE_CURVE_WITH_KNOTS('',1,(#376,#377),.UNSPECIFIED.,.F.,.F.,
  (2,2),(-14.,0.),.PIECEWISE_BEZIER_KNOTS.);
#376 = CARTESIAN_POINT('',(7.,1.5,22.5));
#377 = CARTESIAN_POINT('',(-7.,1.5,22.5));
#378 = ORIENTED_EDGE('',*,*,#379,.F.);
#379 = EDGE_CURVE('',#373,#373,#380,.T.);
#380 = CIRCLE('',#381,1.5);
#381 = AXIS2_PLACEMENT_3D('',#382,#383,#384);
#382 = CARTESIAN_POINT('',(-7.,3.900877352024E-17,22.5));
#383 = DIRECTION('',(1.,0.,0.));
#384 = DIRECTION('',(0.,1.,0.));
#385 = ORIENTED_EDGE('',*,*,#372,.F.);
#386 = CYLINDRICAL_SURFACE('',#387,1.5);
#387 = AXIS2_PLACEMENT_3D('',#388,#389,#390);
#388 = CARTESIAN_POINT('',(-7.,3.900877352024E-17,22.5));
#389 = DIRECTION('',(-1.,-0.,-0.));
#390 = DIRECTION('',(0.,1.,0.));
#391 = ADVANCED_FACE('',(#392),#437,.T.);
#392 = FACE_BOUND('',#393,.F.);
#393 = EDGE_LOOP('',(#394,#405,#413,#422,#431));
#394 = ORIENTED_EDGE('',*,*,#395,.F.);
#395 = EDGE_CURVE('',#396,#398,#400,.T.);
#396 = VERTEX_POINT('',#397);
#397 = CARTESIAN_POINT('',(-6.99999965359,2.,4.));
#398 = VERTEX_POINT('',#399);
#399 = CARTESIAN_POINT('',(-6.99999965359,-2.,4.));
#400 = CIRCLE('',#401,2.);
#401 = AXIS2_PLACEMENT_3D('',#402,#403,#404);
#402 = CARTESIAN_POINT('',(-7.,-3.673940397442E-16,4.));
#403 = DIRECTION('',(-0.,1.224646799147E-16,1.));
#404 = DIRECTION('',(1.,0.,0.));
#405 = ORIENTED_EDGE('',*,*,#406,.T.);
#406 = EDGE_CURVE('',#396,#407,#409,.T.);
#407 = VERTEX_POINT('',#408);
#408 = CARTESIAN_POINT('',(-6.999999818462,2.,7.));
#409 = LINE('',#410,#411);
#410 = CARTESIAN_POINT('',(-6.99999965359,2.,4.));
#411 = VECTOR('',#412,1.);
#412 = DIRECTION('',(0.,1.224646799147E-16,1.));
#413 = ORIENTED_EDGE('',*,*,#414,.F.);
#414 = EDGE_CURVE('',#415,#407,#417,.T.);
#415 = VERTEX_POINT('',#416);
#416 = CARTESIAN_POINT('',(-9.,-2.166079135764E-14,7.));
#417 = CIRCLE('',#418,2.);
#418 = AXIS2_PLACEMENT_3D('',#419,#420,#421);
#419 = CARTESIAN_POINT('',(-7.,-9.663546088957E-30,7.));
#420 = DIRECTION('',(0.,-1.224646799147E-16,-1.));
#421 = DIRECTION('',(1.,0.,0.));
#422 = ORIENTED_EDGE('',*,*,#423,.F.);
#423 = EDGE_CURVE('',#424,#415,#426,.T.);
#424 = VERTEX_POINT('',#425);
#425 = CARTESIAN_POINT('',(-6.999999818462,-2.,7.));
#426 = CIRCLE('',#427,2.);
#427 = AXIS2_PLACEMENT_3D('',#428,#429,#430);
#428 = CARTESIAN_POINT('',(-7.,-9.663546088957E-30,7.));
#429 = DIRECTION('',(0.,-1.224646799147E-16,-1.));
#430 = DIRECTION('',(1.,0.,0.));
#431 = ORIENTED_EDGE('',*,*,#432,.F.);
#432 = EDGE_CURVE('',#398,#424,#433,.T.);
#433 = LINE('',#434,#435);
#434 = CARTESIAN_POINT('',(-6.99999965359,-2.,4.));
#435 = VECTOR('',#436,1.);
#436 = DIRECTION('',(0.,1.224646799147E-16,1.));
#437 = CYLINDRICAL_SURFACE('',#438,2.);
#438 = AXIS2_PLACEMENT_3D('',#439,#440,#441);
#439 = CARTESIAN_POINT('',(-7.,-3.673940397442E-16,4.));
#440 = DIRECTION('',(0.,-1.224646799147E-16,-1.));
#441 = DIRECTION('',(1.,0.,0.));
#442 = ADVANCED_FACE('',(#443),#452,.F.);
#443 = FACE_BOUND('',#444,.F.);
#444 = EDGE_LOOP('',(#445,#446));
#445 = ORIENTED_EDGE('',*,*,#395,.T.);
#446 = ORIENTED_EDGE('',*,*,#447,.T.);
#447 = EDGE_CURVE('',#398,#396,#448,.T.);
#448 = LINE('',#449,#450);
#449 = CARTESIAN_POINT('',(-6.99999965359,-2.,4.));
#450 = VECTOR('',#451,1.);
#451 = DIRECTION('',(0.,1.,-1.224646799147E-16));
#452 = PLANE('',#453);
#453 = AXIS2_PLACEMENT_3D('',#454,#455,#456);
#454 = CARTESIAN_POINT('',(-7.6928201198,-5.240252361816E-15,4.));
#455 = DIRECTION('',(0.,0.,1.));
#456 = DIRECTION('',(1.,0.,0.));
#457 = ADVANCED_FACE('',(#458),#469,.F.);
#458 = FACE_BOUND('',#459,.F.);
#459 = EDGE_LOOP('',(#460,#461,#462,#468));
#460 = ORIENTED_EDGE('',*,*,#447,.F.);
#461 = ORIENTED_EDGE('',*,*,#432,.T.);
#462 = ORIENTED_EDGE('',*,*,#463,.T.);
#463 = EDGE_CURVE('',#424,#407,#464,.T.);
#464 = LINE('',#465,#466);
#465 = CARTESIAN_POINT('',(-6.99999965359,-1.,7.));
#466 = VECTOR('',#467,1.);
#467 = DIRECTION('',(0.,1.,0.));
#468 = ORIENTED_EDGE('',*,*,#406,.F.);
#469 = PLANE('',#470);
#470 = AXIS2_PLACEMENT_3D('',#471,#472,#473);
#471 = CARTESIAN_POINT('',(-6.99999965359,-2.,4.));
#472 = DIRECTION('',(-1.,0.,0.));
#473 = DIRECTION('',(0.,1.,-1.224646799147E-16));
#474 = ADVANCED_FACE('',(#475),#492,.F.);
#475 = FACE_BOUND('',#476,.F.);
#476 = EDGE_LOOP('',(#477,#478,#486));
#477 = ORIENTED_EDGE('',*,*,#423,.T.);
#478 = ORIENTED_EDGE('',*,*,#479,.T.);
#479 = EDGE_CURVE('',#415,#480,#482,.T.);
#480 = VERTEX_POINT('',#481);
#481 = CARTESIAN_POINT('',(-9.,-2.,7.));
#482 = LINE('',#483,#484);
#483 = CARTESIAN_POINT('',(-9.,2.,7.));
#484 = VECTOR('',#485,1.);
#485 = DIRECTION('',(0.,-1.,0.));
#486 = ORIENTED_EDGE('',*,*,#487,.T.);
#487 = EDGE_CURVE('',#480,#424,#488,.T.);
#488 = LINE('',#489,#490);
#489 = CARTESIAN_POINT('',(-9.,-2.,7.));
#490 = VECTOR('',#491,1.);
#491 = DIRECTION('',(1.,0.,0.));
#492 = PLANE('',#493);
#493 = AXIS2_PLACEMENT_3D('',#494,#495,#496);
#494 = CARTESIAN_POINT('',(-8.,0.,7.));
#495 = DIRECTION('',(0.,0.,1.));
#496 = DIRECTION('',(1.,0.,0.));
#497 = ADVANCED_FACE('',(#498),#515,.F.);
#498 = FACE_BOUND('',#499,.F.);
#499 = EDGE_LOOP('',(#500,#508,#514));
#500 = ORIENTED_EDGE('',*,*,#501,.T.);
#501 = EDGE_CURVE('',#407,#502,#504,.T.);
#502 = VERTEX_POINT('',#503);
#503 = CARTESIAN_POINT('',(-9.,2.,7.));
#504 = LINE('',#505,#506);
#505 = CARTESIAN_POINT('',(-7.,2.,7.));
#506 = VECTOR('',#507,1.);
#507 = DIRECTION('',(-1.,0.,0.));
#508 = ORIENTED_EDGE('',*,*,#509,.T.);
#509 = EDGE_CURVE('',#502,#415,#510,.T.);
#510 = LINE('',#511,#512);
#511 = CARTESIAN_POINT('',(-9.,2.,7.));
#512 = VECTOR('',#513,1.);
#513 = DIRECTION('',(0.,-1.,0.));
#514 = ORIENTED_EDGE('',*,*,#414,.T.);
#515 = PLANE('',#516);
#516 = AXIS2_PLACEMENT_3D('',#517,#518,#519);
#517 = CARTESIAN_POINT('',(-8.,0.,7.));
#518 = DIRECTION('',(0.,0.,1.));
#519 = DIRECTION('',(1.,0.,0.));
#520 = ADVANCED_FACE('',(#521,#546,#549),#560,.F.);
#521 = FACE_BOUND('',#522,.F.);
#522 = EDGE_LOOP('',(#523,#531,#539,#545));
#523 = ORIENTED_EDGE('',*,*,#524,.T.);
#524 = EDGE_CURVE('',#424,#525,#527,.T.);
#525 = VERTEX_POINT('',#526);
#526 = CARTESIAN_POINT('',(-6.999999818462,-2.,27.));
#527 = LINE('',#528,#529);
#528 = CARTESIAN_POINT('',(-7.,-2.,7.));
#529 = VECTOR('',#530,1.);
#530 = DIRECTION('',(0.,0.,1.));
#531 = ORIENTED_EDGE('',*,*,#532,.T.);
#532 = EDGE_CURVE('',#525,#533,#535,.T.);
#533 = VERTEX_POINT('',#534);
#534 = CARTESIAN_POINT('',(-6.999999818462,2.,27.));
#535 = LINE('',#536,#537);
#536 = CARTESIAN_POINT('',(-7.,-2.,27.));
#537 = VECTOR('',#538,1.);
#538 = DIRECTION('',(0.,1.,0.));
#539 = ORIENTED_EDGE('',*,*,#540,.F.);
#540 = EDGE_CURVE('',#407,#533,#541,.T.);
#541 = LINE('',#542,#543);
#542 = CARTESIAN_POINT('',(-7.,2.,7.));
#543 = VECTOR('',#544,1.);
#544 = DIRECTION('',(0.,0.,1.));
#545 = ORIENTED_EDGE('',*,*,#463,.F.);
#546 = FACE_BOUND('',#547,.F.);
#547 = EDGE_LOOP('',(#548));
#548 = ORIENTED_EDGE('',*,*,#379,.T.);
#549 = FACE_BOUND('',#550,.F.);
#550 = EDGE_LOOP('',(#551));
#551 = ORIENTED_EDGE('',*,*,#552,.T.);
#552 = EDGE_CURVE('',#553,#553,#555,.T.);
#553 = VERTEX_POINT('',#554);
#554 = CARTESIAN_POINT('',(-7.,1.5,11.5));
#555 = CIRCLE('',#556,1.5);
#556 = AXIS2_PLACEMENT_3D('',#557,#558,#559);
#557 = CARTESIAN_POINT('',(-7.,-6.420681040415E-15,11.5));
#558 = DIRECTION('',(1.,0.,0.));
#559 = DIRECTION('',(0.,1.,0.));
#560 = PLANE('',#561);
#561 = AXIS2_PLACEMENT_3D('',#562,#563,#564);
#562 = CARTESIAN_POINT('',(-7.,-2.,7.));
#563 = DIRECTION('',(-1.,0.,0.));
#564 = DIRECTION('',(0.,1.,0.));
#565 = ADVANCED_FACE('',(#566),#584,.F.);
#566 = FACE_BOUND('',#567,.F.);
#567 = EDGE_LOOP('',(#568,#576,#582,#583));
#568 = ORIENTED_EDGE('',*,*,#569,.T.);
#569 = EDGE_CURVE('',#480,#570,#572,.T.);
#570 = VERTEX_POINT('',#571);
#571 = CARTESIAN_POINT('',(-9.,-2.,27.));
#572 = LINE('',#573,#574);
#573 = CARTESIAN_POINT('',(-9.,-2.,7.));
#574 = VECTOR('',#575,1.);
#575 = DIRECTION('',(0.,0.,1.));
#576 = ORIENTED_EDGE('',*,*,#577,.T.);
#577 = EDGE_CURVE('',#570,#525,#578,.T.);
#578 = LINE('',#579,#580);
#579 = CARTESIAN_POINT('',(-9.,-2.,27.));
#580 = VECTOR('',#581,1.);
#581 = DIRECTION('',(1.,0.,0.));
#582 = ORIENTED_EDGE('',*,*,#524,.F.);
#583 = ORIENTED_EDGE('',*,*,#487,.F.);
#584 = PLANE('',#585);
#585 = AXIS2_PLACEMENT_3D('',#586,#587,#588);
#586 = CARTESIAN_POINT('',(-9.,-2.,7.));
#587 = DIRECTION('',(0.,1.,0.));
#588 = DIRECTION('',(1.,0.,0.));
#589 = ADVANCED_FACE('',(#590),#617,.F.);
#590 = FACE_BOUND('',#591,.F.);
#591 = EDGE_LOOP('',(#592,#600,#608,#614,#615,#616));
#592 = ORIENTED_EDGE('',*,*,#593,.T.);
#593 = EDGE_CURVE('',#502,#594,#596,.T.);
#594 = VERTEX_POINT('',#595);
#595 = CARTESIAN_POINT('',(-9.,2.,27.));
#596 = LINE('',#597,#598);
#597 = CARTESIAN_POINT('',(-9.,2.,7.));
#598 = VECTOR('',#599,1.);
#599 = DIRECTION('',(0.,0.,1.));
#600 = ORIENTED_EDGE('',*,*,#601,.T.);
#601 = EDGE_CURVE('',#594,#602,#604,.T.);
#602 = VERTEX_POINT('',#603);
#603 = CARTESIAN_POINT('',(-9.,8.204208004774E-15,27.));
#604 = LINE('',#605,#606);
#605 = CARTESIAN_POINT('',(-9.,2.,27.));
#606 = VECTOR('',#607,1.);
#607 = DIRECTION('',(0.,-1.,0.));
#608 = ORIENTED_EDGE('',*,*,#609,.T.);
#609 = EDGE_CURVE('',#602,#570,#610,.T.);
#610 = LINE('',#611,#612);
#611 = CARTESIAN_POINT('',(-9.,2.,27.));
#612 = VECTOR('',#613,1.);
#613 = DIRECTION('',(0.,-1.,0.));
#614 = ORIENTED_EDGE('',*,*,#569,.F.);
#615 = ORIENTED_EDGE('',*,*,#479,.F.);
#616 = ORIENTED_EDGE('',*,*,#509,.F.);
#617 = PLANE('',#618);
#618 = AXIS2_PLACEMENT_3D('',#619,#620,#621);
#619 = CARTESIAN_POINT('',(-9.,2.,7.));
#620 = DIRECTION('',(1.,0.,0.));
#621 = DIRECTION('',(0.,-1.,0.));
#622 = ADVANCED_FACE('',(#623),#634,.F.);
#623 = FACE_BOUND('',#624,.F.);
#624 = EDGE_LOOP('',(#625,#626,#632,#633));
#625 = ORIENTED_EDGE('',*,*,#540,.T.);
#626 = ORIENTED_EDGE('',*,*,#627,.T.);
#627 = EDGE_CURVE('',#533,#594,#628,.T.);
#628 = LINE('',#629,#630);
#629 = CARTESIAN_POINT('',(-7.,2.,27.));
#630 = VECTOR('',#631,1.);
#631 = DIRECTION('',(-1.,0.,0.));
#632 = ORIENTED_EDGE('',*,*,#593,.F.);
#633 = ORIENTED_EDGE('',*,*,#501,.F.);
#634 = PLANE('',#635);
#635 = AXIS2_PLACEMENT_3D('',#636,#637,#638);
#636 = CARTESIAN_POINT('',(-7.,2.,7.));
#637 = DIRECTION('',(0.,-1.,0.));
#638 = DIRECTION('',(-1.,0.,0.));
#639 = ADVANCED_FACE('',(#640),#665,.F.);
#640 = FACE_BOUND('',#641,.T.);
#641 = EDGE_LOOP('',(#642,#652,#658,#659));
#642 = ORIENTED_EDGE('',*,*,#643,.F.);
#643 = EDGE_CURVE('',#644,#646,#648,.T.);
#644 = VERTEX_POINT('',#645);
#645 = CARTESIAN_POINT('',(-6.99999965359,-2.,30.));
#646 = VERTEX_POINT('',#647);
#647 = CARTESIAN_POINT('',(-6.99999965359,2.,30.));
#648 = LINE('',#649,#650);
#649 = CARTESIAN_POINT('',(-6.99999965359,-2.,30.));
#650 = VECTOR('',#651,1.);
#651 = DIRECTION('',(4.676308839553E-32,1.,-5.436691348604E-16));
#652 = ORIENTED_EDGE('',*,*,#653,.T.);
#653 = EDGE_CURVE('',#644,#525,#654,.T.);
#654 = LINE('',#655,#656);
#655 = CARTESIAN_POINT('',(-6.99999965359,-2.,30.));
#656 = VECTOR('',#657,1.);
#657 = DIRECTION('',(2.22044604925E-16,-5.436691348604E-16,-1.));
#658 = ORIENTED_EDGE('',*,*,#532,.T.);
#659 = ORIENTED_EDGE('',*,*,#660,.F.);
#660 = EDGE_CURVE('',#646,#533,#661,.T.);
#661 = LINE('',#662,#663);
#662 = CARTESIAN_POINT('',(-6.99999965359,2.,30.));
#663 = VECTOR('',#664,1.);
#664 = DIRECTION('',(2.22044604925E-16,-5.436691348604E-16,-1.));
#665 = PLANE('',#666);
#666 = AXIS2_PLACEMENT_3D('',#667,#668,#669);
#667 = CARTESIAN_POINT('',(-6.99999965359,-2.,30.));
#668 = DIRECTION('',(-1.,-7.395570986447E-32,-2.22044604925E-16));
#669 = DIRECTION('',(-4.676308839553E-32,-1.,5.436691348604E-16));
#670 = ADVANCED_FACE('',(#671),#682,.T.);
#671 = FACE_BOUND('',#672,.T.);
#672 = EDGE_LOOP('',(#673,#680,#681));
#673 = ORIENTED_EDGE('',*,*,#674,.T.);
#674 = EDGE_CURVE('',#525,#602,#675,.T.);
#675 = CIRCLE('',#676,2.);
#676 = AXIS2_PLACEMENT_3D('',#677,#678,#679);
#677 = CARTESIAN_POINT('',(-7.,6.661338147751E-15,27.));
#678 = DIRECTION('',(2.22044604925E-16,-5.436691348604E-16,-1.));
#679 = DIRECTION('',(1.,7.395570986447E-32,2.22044604925E-16));
#680 = ORIENTED_EDGE('',*,*,#609,.T.);
#681 = ORIENTED_EDGE('',*,*,#577,.T.);
#682 = PLANE('',#683);
#683 = AXIS2_PLACEMENT_3D('',#684,#685,#686);
#684 = CARTESIAN_POINT('',(-8.,0.,27.));
#685 = DIRECTION('',(0.,0.,1.));
#686 = DIRECTION('',(1.,0.,0.));
#687 = ADVANCED_FACE('',(#688),#699,.T.);
#688 = FACE_BOUND('',#689,.T.);
#689 = EDGE_LOOP('',(#690,#691,#692));
#690 = ORIENTED_EDGE('',*,*,#627,.T.);
#691 = ORIENTED_EDGE('',*,*,#601,.T.);
#692 = ORIENTED_EDGE('',*,*,#693,.T.);
#693 = EDGE_CURVE('',#602,#533,#694,.T.);
#694 = CIRCLE('',#695,2.);
#695 = AXIS2_PLACEMENT_3D('',#696,#697,#698);
#696 = CARTESIAN_POINT('',(-7.,6.661338147751E-15,27.));
#697 = DIRECTION('',(2.22044604925E-16,-5.436691348604E-16,-1.));
#698 = DIRECTION('',(1.,7.395570986447E-32,2.22044604925E-16));
#699 = PLANE('',#700);
#700 = AXIS2_PLACEMENT_3D('',#701,#702,#703);
#701 = CARTESIAN_POINT('',(-8.,0.,27.));
#702 = DIRECTION('',(0.,0.,1.));
#703 = DIRECTION('',(1.,0.,0.));
#704 = ADVANCED_FACE('',(#705),#715,.F.);
#705 = FACE_BOUND('',#706,.T.);
#706 = EDGE_LOOP('',(#707,#714));
#707 = ORIENTED_EDGE('',*,*,#708,.T.);
#708 = EDGE_CURVE('',#646,#644,#709,.T.);
#709 = CIRCLE('',#710,2.);
#710 = AXIS2_PLACEMENT_3D('',#711,#712,#713);
#711 = CARTESIAN_POINT('',(-7.,8.292345552332E-15,30.));
#712 = DIRECTION('',(-2.22044604925E-16,5.436691348604E-16,1.));
#713 = DIRECTION('',(1.,7.395570986447E-32,2.22044604925E-16));
#714 = ORIENTED_EDGE('',*,*,#643,.T.);
#715 = PLANE('',#716);
#716 = AXIS2_PLACEMENT_3D('',#717,#718,#719);
#717 = CARTESIAN_POINT('',(-7.6928201198,3.419487230261E-15,30.));
#718 = DIRECTION('',(2.22044604925E-16,-6.661338147751E-16,-1.));
#719 = DIRECTION('',(-1.,-7.395570986447E-32,-2.22044604925E-16));
#720 = ADVANCED_FACE('',(#721),#728,.T.);
#721 = FACE_BOUND('',#722,.T.);
#722 = EDGE_LOOP('',(#723,#724,#725,#726,#727));
#723 = ORIENTED_EDGE('',*,*,#708,.F.);
#724 = ORIENTED_EDGE('',*,*,#660,.T.);
#725 = ORIENTED_EDGE('',*,*,#693,.F.);
#726 = ORIENTED_EDGE('',*,*,#674,.F.);
#727 = ORIENTED_EDGE('',*,*,#653,.F.);
#728 = CYLINDRICAL_SURFACE('',#729,2.);
#729 = AXIS2_PLACEMENT_3D('',#730,#731,#732);
#730 = CARTESIAN_POINT('',(-7.,8.292345552332E-15,30.));
#731 = DIRECTION('',(-2.22044604925E-16,5.436691348604E-16,1.));
#732 = DIRECTION('',(1.,7.395570986447E-32,2.22044604925E-16));
#733 = ADVANCED_FACE('',(#734),#744,.T.);
#734 = FACE_BOUND('',#735,.F.);
#735 = EDGE_LOOP('',(#736,#737,#742,#743));
#736 = ORIENTED_EDGE('',*,*,#66,.T.);
#737 = ORIENTED_EDGE('',*,*,#738,.T.);
#738 = EDGE_CURVE('',#67,#553,#739,.T.);
#739 = B_SPLINE_CURVE_WITH_KNOTS('',1,(#740,#741),.UNSPECIFIED.,.F.,.F.,
  (2,2),(-14.,0.),.PIECEWISE_BEZIER_KNOTS.);
#740 = CARTESIAN_POINT('',(7.,1.5,11.5));
#741 = CARTESIAN_POINT('',(-7.,1.5,11.5));
#742 = ORIENTED_EDGE('',*,*,#552,.F.);
#743 = ORIENTED_EDGE('',*,*,#738,.F.);
#744 = CYLINDRICAL_SURFACE('',#745,1.5);
#745 = AXIS2_PLACEMENT_3D('',#746,#747,#748);
#746 = CARTESIAN_POINT('',(-7.,-6.420681040415E-15,11.5));
#747 = DIRECTION('',(-1.,-0.,-0.));
#748 = DIRECTION('',(0.,1.,0.));
#749 = ( GEOMETRIC_REPRESENTATION_CONTEXT(3) 
GLOBAL_UNCERTAINTY_ASSIGNED_CONTEXT((#753)) GLOBAL_UNIT_ASSIGNED_CONTEXT
((#750,#751,#752)) REPRESENTATION_CONTEXT('Context #1',
  '3D Context with UNIT and UNCERTAINTY') );
#750 = ( LENGTH_UNIT() NAMED_UNIT(*) SI_UNIT(.MILLI.,.METRE.) );
#751 = ( NAMED_UNIT(*) PLANE_ANGLE_UNIT() SI_UNIT($,.RADIAN.) );
#752 = ( NAMED_UNIT(*) SI_UNIT($,.STERADIAN.) SOLID_ANGLE_UNIT() );
#753 = UNCERTAINTY_MEASURE_WITH_UNIT(LENGTH_MEASURE(1.E-06),#750,
  'distance_accuracy_value','confusion accuracy');
#754 = PRODUCT_RELATED_PRODUCT_CATEGORY('part',$,(#7));
#755 = MECHANICAL_DESIGN_GEOMETRIC_PRESENTATION_REPRESENTATION('',(#756)
  ,#749);
#756 = STYLED_ITEM('color',(#757),#15);
#757 = PRESENTATION_STYLE_ASSIGNMENT((#758,#764));
#758 = SURFACE_STYLE_USAGE(.BOTH.,#759);
#759 = SURFACE_SIDE_STYLE('',(#760));
#760 = SURFACE_STYLE_FILL_AREA(#761);
#761 = FILL_AREA_STYLE('',(#762));
#762 = FILL_AREA_STYLE_COLOUR('',#763);
#763 = COLOUR_RGB('',0.447058818107,0.474509808674,0.501960817233);
#764 = CURVE_STYLE('',#765,POSITIVE_LENGTH_MEASURE(0.1),#766);
#765 = DRAUGHTING_PRE_DEFINED_CURVE_FONT('continuous');
#766 = COLOUR_RGB('',9.803921802644E-02,9.803921802644E-02,
  9.803921802644E-02);
ENDSEC;
END-ISO-10303-21;
