ISO-10303-21;
HEADER;
FILE_DESCRIPTION(('FreeCAD Model'),'2;1');
FILE_NAME('Open CASCADE Shape Model','2026-01-28T20:20:50',(''),(''),
  'Open CASCADE STEP processor 7.8','FreeCAD','Unknown');
FILE_SCHEMA(('AUTOMOTIVE_DESIGN { 1 0 10303 214 1 1 1 1 }'));
ENDSEC;
DATA;
#1 = APPLICATION_PROTOCOL_DEFINITION('international standard',
  'automotive_design',2000,#2);
#2 = APPLICATION_CONTEXT(
  'core data for automotive mechanical design processes');
#3 = SHAPE_DEFINITION_REPRESENTATION(#4,#10);
#4 = PRODUCT_DEFINITION_SHAPE('','',#5);
#5 = PRODUCT_DEFINITION('design','',#6,#9);
#6 = PRODUCT_DEFINITION_FORMATION('','',#7);
#7 = PRODUCT('design6-mirror-attachment','design6-mirror-attachment','',
  (#8));
#8 = PRODUCT_CONTEXT('',#2,'mechanical');
#9 = PRODUCT_DEFINITION_CONTEXT('part definition',#2,'design');
#10 = ADVANCED_BREP_SHAPE_REPRESENTATION('',(#11,#15),#919);
#11 = AXIS2_PLACEMENT_3D('',#12,#13,#14);
#12 = CARTESIAN_POINT('',(0.,0.,0.));
#13 = DIRECTION('',(0.,0.,1.));
#14 = DIRECTION('',(1.,0.,-0.));
#15 = MANIFOLD_SOLID_BREP('',#16);
#16 = CLOSED_SHELL('',(#17,#139,#170,#195,#219,#243,#323,#347,#371,#395,
    #419,#443,#468,#492,#516,#533,#577,#617,#657,#697,#721,#745,#785,
    #802,#837,#854,#866,#890,#907));
#17 = ADVANCED_FACE('',(#18),#134,.F.);
#18 = FACE_BOUND('',#19,.F.);
#19 = EDGE_LOOP('',(#20,#30,#38,#46,#54,#62,#71,#79,#87,#95,#103,#111,
    #119,#127));
#20 = ORIENTED_EDGE('',*,*,#21,.T.);
#21 = EDGE_CURVE('',#22,#24,#26,.T.);
#22 = VERTEX_POINT('',#23);
#23 = CARTESIAN_POINT('',(-1.950000000013,1.999374902312,51.8));
#24 = VERTEX_POINT('',#25);
#25 = CARTESIAN_POINT('',(-2.000000000013,1.999374902312,51.8));
#26 = LINE('',#27,#28);
#27 = CARTESIAN_POINT('',(-1.400000000013,1.999374902312,51.8));
#28 = VECTOR('',#29,1.);
#29 = DIRECTION('',(-1.,1.843355213137E-27,-2.593480985524E-13));
#30 = ORIENTED_EDGE('',*,*,#31,.F.);
#31 = EDGE_CURVE('',#32,#24,#34,.T.);
#32 = VERTEX_POINT('',#33);
#33 = CARTESIAN_POINT('',(-2.000000000011,1.999374902312,43.8));
#34 = LINE('',#35,#36);
#35 = CARTESIAN_POINT('',(-2.000000000011,1.999374902312,43.8));
#36 = VECTOR('',#37,1.);
#37 = DIRECTION('',(-2.592525944782E-13,-1.324005984624E-14,1.));
#38 = ORIENTED_EDGE('',*,*,#39,.F.);
#39 = EDGE_CURVE('',#40,#32,#42,.T.);
#40 = VERTEX_POINT('',#41);
#41 = CARTESIAN_POINT('',(1.999999999989,1.999374902312,43.800000000001)
  );
#42 = LINE('',#43,#44);
#43 = CARTESIAN_POINT('',(1.999999999989,1.999374902312,43.800000000001)
  );
#44 = VECTOR('',#45,1.);
#45 = DIRECTION('',(-1.,1.716259933092E-27,-2.592525944782E-13));
#46 = ORIENTED_EDGE('',*,*,#47,.T.);
#47 = EDGE_CURVE('',#40,#48,#50,.T.);
#48 = VERTEX_POINT('',#49);
#49 = CARTESIAN_POINT('',(1.999999999987,1.999374902312,51.800000000001)
  );
#50 = LINE('',#51,#52);
#51 = CARTESIAN_POINT('',(1.999999999989,1.999374902312,43.800000000001)
  );
#52 = VECTOR('',#53,1.);
#53 = DIRECTION('',(-2.592525944782E-13,-1.324005984624E-14,1.));
#54 = ORIENTED_EDGE('',*,*,#55,.T.);
#55 = EDGE_CURVE('',#48,#56,#58,.T.);
#56 = VERTEX_POINT('',#57);
#57 = CARTESIAN_POINT('',(1.949999999987,1.999374902312,51.800000000001)
  );
#58 = LINE('',#59,#60);
#59 = CARTESIAN_POINT('',(1.999999999987,1.999374902312,51.800000000001)
  );
#60 = VECTOR('',#61,1.);
#61 = DIRECTION('',(-1.,1.843355213137E-27,-2.593480985524E-13));
#62 = ORIENTED_EDGE('',*,*,#63,.T.);
#63 = EDGE_CURVE('',#56,#64,#66,.T.);
#64 = VERTEX_POINT('',#65);
#65 = CARTESIAN_POINT('',(1.399999999986,1.999374902312,52.35));
#66 = CIRCLE('',#67,0.55);
#67 = AXIS2_PLACEMENT_3D('',#68,#69,#70);
#68 = CARTESIAN_POINT('',(1.949999999986,1.999374902312,52.350000000001)
  );
#69 = DIRECTION('',(-1.843355213137E-27,1.,1.421529769006E-14));
#70 = DIRECTION('',(0.,1.421529769006E-14,-1.));
#71 = ORIENTED_EDGE('',*,*,#72,.F.);
#72 = EDGE_CURVE('',#73,#64,#75,.T.);
#73 = VERTEX_POINT('',#74);
#74 = CARTESIAN_POINT('',(1.399999999986,1.999374902312,53.8));
#75 = LINE('',#76,#77);
#76 = CARTESIAN_POINT('',(1.399999999986,1.999374902312,53.8));
#77 = VECTOR('',#78,1.);
#78 = DIRECTION('',(2.593480985524E-13,1.421529769006E-14,-1.));
#79 = ORIENTED_EDGE('',*,*,#80,.T.);
#80 = EDGE_CURVE('',#73,#81,#83,.T.);
#81 = VERTEX_POINT('',#82);
#82 = CARTESIAN_POINT('',(0.899999999986,1.999374902312,53.8));
#83 = LINE('',#84,#85);
#84 = CARTESIAN_POINT('',(1.999999999986,1.999374902312,53.800000000001)
  );
#85 = VECTOR('',#86,1.);
#86 = DIRECTION('',(-1.,1.716259933092E-27,-2.592525944782E-13));
#87 = ORIENTED_EDGE('',*,*,#88,.T.);
#88 = EDGE_CURVE('',#81,#89,#91,.T.);
#89 = VERTEX_POINT('',#90);
#90 = CARTESIAN_POINT('',(0.899999999987,1.999374902312,51.8));
#91 = LINE('',#92,#93);
#92 = CARTESIAN_POINT('',(0.899999999986,1.999374902312,53.8));
#93 = VECTOR('',#94,1.);
#94 = DIRECTION('',(2.593480985524E-13,1.421529769006E-14,-1.));
#95 = ORIENTED_EDGE('',*,*,#96,.T.);
#96 = EDGE_CURVE('',#89,#97,#99,.T.);
#97 = VERTEX_POINT('',#98);
#98 = CARTESIAN_POINT('',(-0.900000000013,1.999374902312,51.8));
#99 = LINE('',#100,#101);
#100 = CARTESIAN_POINT('',(0.899999999987,1.999374902312,51.8));
#101 = VECTOR('',#102,1.);
#102 = DIRECTION('',(-1.,1.843355213137E-27,-2.593480985524E-13));
#103 = ORIENTED_EDGE('',*,*,#104,.F.);
#104 = EDGE_CURVE('',#105,#97,#107,.T.);
#105 = VERTEX_POINT('',#106);
#106 = CARTESIAN_POINT('',(-0.900000000014,1.999374902312,53.8));
#107 = LINE('',#108,#109);
#108 = CARTESIAN_POINT('',(-0.900000000014,1.999374902312,53.8));
#109 = VECTOR('',#110,1.);
#110 = DIRECTION('',(2.593480985524E-13,1.421529769006E-14,-1.));
#111 = ORIENTED_EDGE('',*,*,#112,.T.);
#112 = EDGE_CURVE('',#105,#113,#115,.T.);
#113 = VERTEX_POINT('',#114);
#114 = CARTESIAN_POINT('',(-1.400000000014,1.999374902312,53.8));
#115 = LINE('',#116,#117);
#116 = CARTESIAN_POINT('',(1.999999999986,1.999374902312,53.800000000001
    ));
#117 = VECTOR('',#118,1.);
#118 = DIRECTION('',(-1.,1.716259933092E-27,-2.592525944782E-13));
#119 = ORIENTED_EDGE('',*,*,#120,.T.);
#120 = EDGE_CURVE('',#113,#121,#123,.T.);
#121 = VERTEX_POINT('',#122);
#122 = CARTESIAN_POINT('',(-1.400000000014,1.999374902312,52.35));
#123 = LINE('',#124,#125);
#124 = CARTESIAN_POINT('',(-1.400000000014,1.999374902312,53.8));
#125 = VECTOR('',#126,1.);
#126 = DIRECTION('',(2.593480985524E-13,1.421529769006E-14,-1.));
#127 = ORIENTED_EDGE('',*,*,#128,.F.);
#128 = EDGE_CURVE('',#22,#121,#129,.T.);
#129 = CIRCLE('',#130,0.55);
#130 = AXIS2_PLACEMENT_3D('',#131,#132,#133);
#131 = CARTESIAN_POINT('',(-1.950000000014,1.999374902312,52.35));
#132 = DIRECTION('',(1.843355213137E-27,-1.,-1.421529769006E-14));
#133 = DIRECTION('',(0.,-1.421529769006E-14,1.));
#134 = PLANE('',#135);
#135 = AXIS2_PLACEMENT_3D('',#136,#137,#138);
#136 = CARTESIAN_POINT('',(1.999999999989,1.999374902312,43.800000000001
    ));
#137 = DIRECTION('',(1.716259933092E-27,-1.,-1.324005984624E-14));
#138 = DIRECTION('',(-1.,1.716259933092E-27,-2.592525944782E-13));
#139 = ADVANCED_FACE('',(#140),#165,.T.);
#140 = FACE_BOUND('',#141,.T.);
#141 = EDGE_LOOP('',(#142,#143,#151,#159));
#142 = ORIENTED_EDGE('',*,*,#21,.T.);
#143 = ORIENTED_EDGE('',*,*,#144,.T.);
#144 = EDGE_CURVE('',#24,#145,#147,.T.);
#145 = VERTEX_POINT('',#146);
#146 = CARTESIAN_POINT('',(-2.000000000013,-1.999374902313,51.8));
#147 = LINE('',#148,#149);
#148 = CARTESIAN_POINT('',(-2.000000000013,1.999374902312,51.8));
#149 = VECTOR('',#150,1.);
#150 = DIRECTION('',(-1.332684158441E-15,-1.,-1.421529769006E-14));
#151 = ORIENTED_EDGE('',*,*,#152,.T.);
#152 = EDGE_CURVE('',#145,#153,#155,.T.);
#153 = VERTEX_POINT('',#154);
#154 = CARTESIAN_POINT('',(-1.950000000013,-1.999374902313,51.8));
#155 = LINE('',#156,#157);
#156 = CARTESIAN_POINT('',(-2.000000000013,-1.999374902313,51.8));
#157 = VECTOR('',#158,1.);
#158 = DIRECTION('',(1.,-1.843355213137E-27,2.593480985524E-13));
#159 = ORIENTED_EDGE('',*,*,#160,.T.);
#160 = EDGE_CURVE('',#153,#22,#161,.T.);
#161 = LINE('',#162,#163);
#162 = CARTESIAN_POINT('',(-1.950000000013,-1.999374902313,51.8));
#163 = VECTOR('',#164,1.);
#164 = DIRECTION('',(-1.843355213137E-27,1.,1.421529769006E-14));
#165 = PLANE('',#166);
#166 = AXIS2_PLACEMENT_3D('',#167,#168,#169);
#167 = CARTESIAN_POINT('',(-1.342910366932E-11,-7.044850554502E-13,51.8)
  );
#168 = DIRECTION('',(-2.593788626803E-13,-1.421529769006E-14,1.));
#169 = DIRECTION('',(1.,0.,2.593788626803E-13));
#170 = ADVANCED_FACE('',(#171),#190,.F.);
#171 = FACE_BOUND('',#172,.T.);
#172 = EDGE_LOOP('',(#173,#182,#188,#189));
#173 = ORIENTED_EDGE('',*,*,#174,.T.);
#174 = EDGE_CURVE('',#153,#175,#177,.T.);
#175 = VERTEX_POINT('',#176);
#176 = CARTESIAN_POINT('',(-1.400000000014,-1.999374902313,52.35));
#177 = CIRCLE('',#178,0.55);
#178 = AXIS2_PLACEMENT_3D('',#179,#180,#181);
#179 = CARTESIAN_POINT('',(-1.950000000014,-1.999374902313,52.35));
#180 = DIRECTION('',(1.843355213137E-27,-1.,-1.421529769006E-14));
#181 = DIRECTION('',(0.,-1.421529769006E-14,1.));
#182 = ORIENTED_EDGE('',*,*,#183,.T.);
#183 = EDGE_CURVE('',#175,#121,#184,.T.);
#184 = LINE('',#185,#186);
#185 = CARTESIAN_POINT('',(-1.400000000014,-1.999374902313,52.35));
#186 = VECTOR('',#187,1.);
#187 = DIRECTION('',(-1.843355213137E-27,1.,1.421529769006E-14));
#188 = ORIENTED_EDGE('',*,*,#128,.F.);
#189 = ORIENTED_EDGE('',*,*,#160,.F.);
#190 = CYLINDRICAL_SURFACE('',#191,0.55);
#191 = AXIS2_PLACEMENT_3D('',#192,#193,#194);
#192 = CARTESIAN_POINT('',(-1.950000000014,-1.999374902313,52.35));
#193 = DIRECTION('',(-1.843355213137E-27,1.,1.421529769006E-14));
#194 = DIRECTION('',(2.593788626803E-13,1.421529769006E-14,-1.));
#195 = ADVANCED_FACE('',(#196),#214,.F.);
#196 = FACE_BOUND('',#197,.F.);
#197 = EDGE_LOOP('',(#198,#206,#207,#208));
#198 = ORIENTED_EDGE('',*,*,#199,.F.);
#199 = EDGE_CURVE('',#32,#200,#202,.T.);
#200 = VERTEX_POINT('',#201);
#201 = CARTESIAN_POINT('',(-2.000000000011,-1.999374902313,43.8));
#202 = LINE('',#203,#204);
#203 = CARTESIAN_POINT('',(-2.000000000011,1.999374902312,43.8));
#204 = VECTOR('',#205,1.);
#205 = DIRECTION('',(1.716259933092E-27,-1.,-1.324005984624E-14));
#206 = ORIENTED_EDGE('',*,*,#31,.T.);
#207 = ORIENTED_EDGE('',*,*,#144,.T.);
#208 = ORIENTED_EDGE('',*,*,#209,.F.);
#209 = EDGE_CURVE('',#200,#145,#210,.T.);
#210 = LINE('',#211,#212);
#211 = CARTESIAN_POINT('',(-2.000000000011,-1.999374902313,43.8));
#212 = VECTOR('',#213,1.);
#213 = DIRECTION('',(-2.592525944782E-13,-1.324005984624E-14,1.));
#214 = PLANE('',#215);
#215 = AXIS2_PLACEMENT_3D('',#216,#217,#218);
#216 = CARTESIAN_POINT('',(-2.000000000011,1.999374902312,43.8));
#217 = DIRECTION('',(1.,-1.716259933092E-27,2.592525944782E-13));
#218 = DIRECTION('',(1.716259933092E-27,-1.,-1.324005984624E-14));
#219 = ADVANCED_FACE('',(#220),#238,.F.);
#220 = FACE_BOUND('',#221,.F.);
#221 = EDGE_LOOP('',(#222,#230,#231,#232));
#222 = ORIENTED_EDGE('',*,*,#223,.T.);
#223 = EDGE_CURVE('',#224,#175,#226,.T.);
#224 = VERTEX_POINT('',#225);
#225 = CARTESIAN_POINT('',(-1.400000000014,-1.999374902313,53.8));
#226 = LINE('',#227,#228);
#227 = CARTESIAN_POINT('',(-1.400000000014,-1.999374902313,53.8));
#228 = VECTOR('',#229,1.);
#229 = DIRECTION('',(2.593480985524E-13,1.421529769006E-14,-1.));
#230 = ORIENTED_EDGE('',*,*,#183,.T.);
#231 = ORIENTED_EDGE('',*,*,#120,.F.);
#232 = ORIENTED_EDGE('',*,*,#233,.F.);
#233 = EDGE_CURVE('',#224,#113,#234,.T.);
#234 = LINE('',#235,#236);
#235 = CARTESIAN_POINT('',(-1.400000000014,-1.999374902313,53.8));
#236 = VECTOR('',#237,1.);
#237 = DIRECTION('',(-1.843355213137E-27,1.,1.421529769006E-14));
#238 = PLANE('',#239);
#239 = AXIS2_PLACEMENT_3D('',#240,#241,#242);
#240 = CARTESIAN_POINT('',(-1.400000000014,-1.999374902313,53.8));
#241 = DIRECTION('',(1.,-1.843355213137E-27,2.593480985524E-13));
#242 = DIRECTION('',(-1.843355213137E-27,1.,1.421529769006E-14));
#243 = ADVANCED_FACE('',(#244),#318,.T.);
#244 = FACE_BOUND('',#245,.T.);
#245 = EDGE_LOOP('',(#246,#256,#264,#272,#280,#288,#296,#304,#310,#311,
    #312));
#246 = ORIENTED_EDGE('',*,*,#247,.F.);
#247 = EDGE_CURVE('',#248,#250,#252,.T.);
#248 = VERTEX_POINT('',#249);
#249 = CARTESIAN_POINT('',(1.999999999989,-6.000000000027,
    43.800000000001));
#250 = VERTEX_POINT('',#251);
#251 = CARTESIAN_POINT('',(1.999999999989,-1.999374902313,
    43.800000000001));
#252 = LINE('',#253,#254);
#253 = CARTESIAN_POINT('',(1.999999999989,-6.000000000027,
    43.800000000001));
#254 = VECTOR('',#255,1.);
#255 = DIRECTION('',(-1.754688796041E-27,1.,1.352783061286E-14));
#256 = ORIENTED_EDGE('',*,*,#257,.T.);
#257 = EDGE_CURVE('',#248,#258,#260,.T.);
#258 = VERTEX_POINT('',#259);
#259 = CARTESIAN_POINT('',(5.899999999938,-6.000000000027,
    43.800000000002));
#260 = LINE('',#261,#262);
#261 = CARTESIAN_POINT('',(1.999999999989,-6.000000000027,
    43.800000000001));
#262 = VECTOR('',#263,1.);
#263 = DIRECTION('',(1.,-1.754688796041E-27,2.5941909627E-13));
#264 = ORIENTED_EDGE('',*,*,#265,.T.);
#265 = EDGE_CURVE('',#258,#266,#268,.T.);
#266 = VERTEX_POINT('',#267);
#267 = CARTESIAN_POINT('',(5.899999999938,1.999999999999,43.800000000002
    ));
#268 = LINE('',#269,#270);
#269 = CARTESIAN_POINT('',(5.899999999938,-6.000000000027,
    43.800000000002));
#270 = VECTOR('',#271,1.);
#271 = DIRECTION('',(-1.754688796041E-27,1.,1.352783061286E-14));
#272 = ORIENTED_EDGE('',*,*,#273,.T.);
#273 = EDGE_CURVE('',#266,#274,#276,.T.);
#274 = VERTEX_POINT('',#275);
#275 = CARTESIAN_POINT('',(-1.900000000001,1.999999999999,43.8));
#276 = LINE('',#277,#278);
#277 = CARTESIAN_POINT('',(5.899999999938,1.999999999999,43.800000000002
    ));
#278 = VECTOR('',#279,1.);
#279 = DIRECTION('',(-1.,1.754688796041E-27,-2.5941909627E-13));
#280 = ORIENTED_EDGE('',*,*,#281,.T.);
#281 = EDGE_CURVE('',#274,#282,#284,.T.);
#282 = VERTEX_POINT('',#283);
#283 = CARTESIAN_POINT('',(-1.900000000001,6.000000000026,43.8));
#284 = LINE('',#285,#286);
#285 = CARTESIAN_POINT('',(-1.900000000001,1.999999999999,43.8));
#286 = VECTOR('',#287,1.);
#287 = DIRECTION('',(-1.754688796041E-27,1.,1.352783061286E-14));
#288 = ORIENTED_EDGE('',*,*,#289,.T.);
#289 = EDGE_CURVE('',#282,#290,#292,.T.);
#290 = VERTEX_POINT('',#291);
#291 = CARTESIAN_POINT('',(-5.899999999961,6.000000000026,
    43.799999999999));
#292 = LINE('',#293,#294);
#293 = CARTESIAN_POINT('',(-1.900000000001,6.000000000026,43.8));
#294 = VECTOR('',#295,1.);
#295 = DIRECTION('',(-1.,1.754688796041E-27,-2.5941909627E-13));
#296 = ORIENTED_EDGE('',*,*,#297,.T.);
#297 = EDGE_CURVE('',#290,#298,#300,.T.);
#298 = VERTEX_POINT('',#299);
#299 = CARTESIAN_POINT('',(-5.899999999961,-1.999374902313,
    43.799999999999));
#300 = LINE('',#301,#302);
#301 = CARTESIAN_POINT('',(-5.899999999961,6.000000000026,
    43.799999999999));
#302 = VECTOR('',#303,1.);
#303 = DIRECTION('',(1.754688796041E-27,-1.,-1.352783061286E-14));
#304 = ORIENTED_EDGE('',*,*,#305,.F.);
#305 = EDGE_CURVE('',#200,#298,#306,.T.);
#306 = LINE('',#307,#308);
#307 = CARTESIAN_POINT('',(1.999999999989,-1.999374902313,
    43.800000000001));
#308 = VECTOR('',#309,1.);
#309 = DIRECTION('',(-1.,1.754688796041E-27,-2.5941909627E-13));
#310 = ORIENTED_EDGE('',*,*,#199,.F.);
#311 = ORIENTED_EDGE('',*,*,#39,.F.);
#312 = ORIENTED_EDGE('',*,*,#313,.F.);
#313 = EDGE_CURVE('',#250,#40,#314,.T.);
#314 = LINE('',#315,#316);
#315 = CARTESIAN_POINT('',(1.999999999989,-1.999374902313,
    43.800000000001));
#316 = VECTOR('',#317,1.);
#317 = DIRECTION('',(-1.716259933092E-27,1.,1.324005984624E-14));
#318 = PLANE('',#319);
#319 = AXIS2_PLACEMENT_3D('',#320,#321,#322);
#320 = CARTESIAN_POINT('',(8.507106538603E-03,8.507106549372E-03,43.8));
#321 = DIRECTION('',(-2.592525944782E-13,-1.324005984624E-14,1.));
#322 = DIRECTION('',(1.,0.,2.592525944782E-13));
#323 = ADVANCED_FACE('',(#324),#342,.T.);
#324 = FACE_BOUND('',#325,.T.);
#325 = EDGE_LOOP('',(#326,#327,#328,#336));
#326 = ORIENTED_EDGE('',*,*,#112,.T.);
#327 = ORIENTED_EDGE('',*,*,#233,.F.);
#328 = ORIENTED_EDGE('',*,*,#329,.T.);
#329 = EDGE_CURVE('',#224,#330,#332,.T.);
#330 = VERTEX_POINT('',#331);
#331 = CARTESIAN_POINT('',(-0.900000000014,-1.999374902313,53.8));
#332 = LINE('',#333,#334);
#333 = CARTESIAN_POINT('',(-2.000000000014,-1.999374902313,53.8));
#334 = VECTOR('',#335,1.);
#335 = DIRECTION('',(1.,-1.716259933092E-27,2.592525944782E-13));
#336 = ORIENTED_EDGE('',*,*,#337,.F.);
#337 = EDGE_CURVE('',#105,#330,#338,.T.);
#338 = LINE('',#339,#340);
#339 = CARTESIAN_POINT('',(-0.900000000014,1.999374902312,53.8));
#340 = VECTOR('',#341,1.);
#341 = DIRECTION('',(1.843355213137E-27,-1.,-1.421529769006E-14));
#342 = PLANE('',#343);
#343 = AXIS2_PLACEMENT_3D('',#344,#345,#346);
#344 = CARTESIAN_POINT('',(-1.394788523602E-11,-7.124162369839E-13,53.8)
  );
#345 = DIRECTION('',(-2.593480985524E-13,-1.421529769006E-14,1.));
#346 = DIRECTION('',(1.,0.,2.593480985524E-13));
#347 = ADVANCED_FACE('',(#348),#366,.F.);
#348 = FACE_BOUND('',#349,.F.);
#349 = EDGE_LOOP('',(#350,#351,#359,#365));
#350 = ORIENTED_EDGE('',*,*,#313,.F.);
#351 = ORIENTED_EDGE('',*,*,#352,.T.);
#352 = EDGE_CURVE('',#250,#353,#355,.T.);
#353 = VERTEX_POINT('',#354);
#354 = CARTESIAN_POINT('',(1.999999999987,-1.999374902313,
    51.800000000001));
#355 = LINE('',#356,#357);
#356 = CARTESIAN_POINT('',(1.999999999989,-1.999374902313,
    43.800000000001));
#357 = VECTOR('',#358,1.);
#358 = DIRECTION('',(-2.592525944782E-13,-1.324005984624E-14,1.));
#359 = ORIENTED_EDGE('',*,*,#360,.T.);
#360 = EDGE_CURVE('',#353,#48,#361,.T.);
#361 = LINE('',#362,#363);
#362 = CARTESIAN_POINT('',(1.999999999987,-1.999374902313,
    51.800000000001));
#363 = VECTOR('',#364,1.);
#364 = DIRECTION('',(-1.843355213137E-27,1.,1.421529769006E-14));
#365 = ORIENTED_EDGE('',*,*,#47,.F.);
#366 = PLANE('',#367);
#367 = AXIS2_PLACEMENT_3D('',#368,#369,#370);
#368 = CARTESIAN_POINT('',(1.999999999989,-1.999374902313,
    43.800000000001));
#369 = DIRECTION('',(-1.,1.716259933092E-27,-2.592525944782E-13));
#370 = DIRECTION('',(-1.716259933092E-27,1.,1.324005984624E-14));
#371 = ADVANCED_FACE('',(#372),#390,.F.);
#372 = FACE_BOUND('',#373,.F.);
#373 = EDGE_LOOP('',(#374,#375,#383,#389));
#374 = ORIENTED_EDGE('',*,*,#104,.T.);
#375 = ORIENTED_EDGE('',*,*,#376,.T.);
#376 = EDGE_CURVE('',#97,#377,#379,.T.);
#377 = VERTEX_POINT('',#378);
#378 = CARTESIAN_POINT('',(-0.900000000013,-1.999374902313,51.8));
#379 = LINE('',#380,#381);
#380 = CARTESIAN_POINT('',(-0.900000000013,1.999374902312,51.8));
#381 = VECTOR('',#382,1.);
#382 = DIRECTION('',(1.843355213137E-27,-1.,-1.421529769006E-14));
#383 = ORIENTED_EDGE('',*,*,#384,.F.);
#384 = EDGE_CURVE('',#330,#377,#385,.T.);
#385 = LINE('',#386,#387);
#386 = CARTESIAN_POINT('',(-0.900000000014,-1.999374902313,53.8));
#387 = VECTOR('',#388,1.);
#388 = DIRECTION('',(2.593480985524E-13,1.421529769006E-14,-1.));
#389 = ORIENTED_EDGE('',*,*,#337,.F.);
#390 = PLANE('',#391);
#391 = AXIS2_PLACEMENT_3D('',#392,#393,#394);
#392 = CARTESIAN_POINT('',(-0.900000000014,1.999374902312,53.8));
#393 = DIRECTION('',(-1.,1.843355213137E-27,-2.593480985524E-13));
#394 = DIRECTION('',(1.843355213137E-27,-1.,-1.421529769006E-14));
#395 = ADVANCED_FACE('',(#396),#414,.T.);
#396 = FACE_BOUND('',#397,.T.);
#397 = EDGE_LOOP('',(#398,#406,#407,#408));
#398 = ORIENTED_EDGE('',*,*,#399,.T.);
#399 = EDGE_CURVE('',#400,#353,#402,.T.);
#400 = VERTEX_POINT('',#401);
#401 = CARTESIAN_POINT('',(1.949999999987,-1.999374902313,
    51.800000000001));
#402 = LINE('',#403,#404);
#403 = CARTESIAN_POINT('',(1.399999999987,-1.999374902313,51.8));
#404 = VECTOR('',#405,1.);
#405 = DIRECTION('',(1.,-1.843355213137E-27,2.593480985524E-13));
#406 = ORIENTED_EDGE('',*,*,#360,.T.);
#407 = ORIENTED_EDGE('',*,*,#55,.T.);
#408 = ORIENTED_EDGE('',*,*,#409,.T.);
#409 = EDGE_CURVE('',#56,#400,#410,.T.);
#410 = LINE('',#411,#412);
#411 = CARTESIAN_POINT('',(1.949999999987,1.999374902312,51.800000000001
    ));
#412 = VECTOR('',#413,1.);
#413 = DIRECTION('',(1.843355213137E-27,-1.,-1.421529769006E-14));
#414 = PLANE('',#415);
#415 = AXIS2_PLACEMENT_3D('',#416,#417,#418);
#416 = CARTESIAN_POINT('',(-1.342910366932E-11,-7.044850554502E-13,51.8)
  );
#417 = DIRECTION('',(-2.593788626803E-13,-1.421529769006E-14,1.));
#418 = DIRECTION('',(1.,0.,2.593788626803E-13));
#419 = ADVANCED_FACE('',(#420),#438,.T.);
#420 = FACE_BOUND('',#421,.T.);
#421 = EDGE_LOOP('',(#422,#423,#431,#437));
#422 = ORIENTED_EDGE('',*,*,#376,.T.);
#423 = ORIENTED_EDGE('',*,*,#424,.T.);
#424 = EDGE_CURVE('',#377,#425,#427,.T.);
#425 = VERTEX_POINT('',#426);
#426 = CARTESIAN_POINT('',(0.899999999987,-1.999374902313,51.8));
#427 = LINE('',#428,#429);
#428 = CARTESIAN_POINT('',(-0.900000000013,-1.999374902313,51.8));
#429 = VECTOR('',#430,1.);
#430 = DIRECTION('',(1.,-1.843355213137E-27,2.593480985524E-13));
#431 = ORIENTED_EDGE('',*,*,#432,.T.);
#432 = EDGE_CURVE('',#425,#89,#433,.T.);
#433 = LINE('',#434,#435);
#434 = CARTESIAN_POINT('',(0.899999999987,-1.999374902313,51.8));
#435 = VECTOR('',#436,1.);
#436 = DIRECTION('',(-1.843355213137E-27,1.,1.421529769006E-14));
#437 = ORIENTED_EDGE('',*,*,#96,.T.);
#438 = PLANE('',#439);
#439 = AXIS2_PLACEMENT_3D('',#440,#441,#442);
#440 = CARTESIAN_POINT('',(-1.342910366932E-11,-7.044850554502E-13,51.8)
  );
#441 = DIRECTION('',(-2.593788626803E-13,-1.421529769006E-14,1.));
#442 = DIRECTION('',(1.,0.,2.593788626803E-13));
#443 = ADVANCED_FACE('',(#444),#463,.F.);
#444 = FACE_BOUND('',#445,.T.);
#445 = EDGE_LOOP('',(#446,#447,#455,#462));
#446 = ORIENTED_EDGE('',*,*,#63,.T.);
#447 = ORIENTED_EDGE('',*,*,#448,.T.);
#448 = EDGE_CURVE('',#64,#449,#451,.T.);
#449 = VERTEX_POINT('',#450);
#450 = CARTESIAN_POINT('',(1.399999999986,-1.999374902313,52.35));
#451 = LINE('',#452,#453);
#452 = CARTESIAN_POINT('',(1.399999999986,1.999374902312,52.35));
#453 = VECTOR('',#454,1.);
#454 = DIRECTION('',(1.843355213137E-27,-1.,-1.421529769006E-14));
#455 = ORIENTED_EDGE('',*,*,#456,.F.);
#456 = EDGE_CURVE('',#400,#449,#457,.T.);
#457 = CIRCLE('',#458,0.55);
#458 = AXIS2_PLACEMENT_3D('',#459,#460,#461);
#459 = CARTESIAN_POINT('',(1.949999999986,-1.999374902313,
    52.350000000001));
#460 = DIRECTION('',(-1.843355213137E-27,1.,1.421529769006E-14));
#461 = DIRECTION('',(0.,1.421529769006E-14,-1.));
#462 = ORIENTED_EDGE('',*,*,#409,.F.);
#463 = CYLINDRICAL_SURFACE('',#464,0.55);
#464 = AXIS2_PLACEMENT_3D('',#465,#466,#467);
#465 = CARTESIAN_POINT('',(1.949999999986,1.999374902312,52.350000000001
    ));
#466 = DIRECTION('',(1.843355213137E-27,-1.,-1.421529769006E-14));
#467 = DIRECTION('',(2.593788626803E-13,1.421529769006E-14,-1.));
#468 = ADVANCED_FACE('',(#469),#487,.F.);
#469 = FACE_BOUND('',#470,.F.);
#470 = EDGE_LOOP('',(#471,#479,#480,#481));
#471 = ORIENTED_EDGE('',*,*,#472,.T.);
#472 = EDGE_CURVE('',#473,#425,#475,.T.);
#473 = VERTEX_POINT('',#474);
#474 = CARTESIAN_POINT('',(0.899999999986,-1.999374902313,53.8));
#475 = LINE('',#476,#477);
#476 = CARTESIAN_POINT('',(0.899999999986,-1.999374902313,53.8));
#477 = VECTOR('',#478,1.);
#478 = DIRECTION('',(2.593480985524E-13,1.421529769006E-14,-1.));
#479 = ORIENTED_EDGE('',*,*,#432,.T.);
#480 = ORIENTED_EDGE('',*,*,#88,.F.);
#481 = ORIENTED_EDGE('',*,*,#482,.F.);
#482 = EDGE_CURVE('',#473,#81,#483,.T.);
#483 = LINE('',#484,#485);
#484 = CARTESIAN_POINT('',(0.899999999986,-1.999374902313,53.8));
#485 = VECTOR('',#486,1.);
#486 = DIRECTION('',(-1.843355213137E-27,1.,1.421529769006E-14));
#487 = PLANE('',#488);
#488 = AXIS2_PLACEMENT_3D('',#489,#490,#491);
#489 = CARTESIAN_POINT('',(0.899999999986,-1.999374902313,53.8));
#490 = DIRECTION('',(1.,-1.843355213137E-27,2.593480985524E-13));
#491 = DIRECTION('',(-1.843355213137E-27,1.,1.421529769006E-14));
#492 = ADVANCED_FACE('',(#493),#511,.F.);
#493 = FACE_BOUND('',#494,.F.);
#494 = EDGE_LOOP('',(#495,#496,#497,#505));
#495 = ORIENTED_EDGE('',*,*,#72,.T.);
#496 = ORIENTED_EDGE('',*,*,#448,.T.);
#497 = ORIENTED_EDGE('',*,*,#498,.F.);
#498 = EDGE_CURVE('',#499,#449,#501,.T.);
#499 = VERTEX_POINT('',#500);
#500 = CARTESIAN_POINT('',(1.399999999986,-1.999374902313,53.8));
#501 = LINE('',#502,#503);
#502 = CARTESIAN_POINT('',(1.399999999986,-1.999374902313,53.8));
#503 = VECTOR('',#504,1.);
#504 = DIRECTION('',(2.593480985524E-13,1.421529769006E-14,-1.));
#505 = ORIENTED_EDGE('',*,*,#506,.F.);
#506 = EDGE_CURVE('',#73,#499,#507,.T.);
#507 = LINE('',#508,#509);
#508 = CARTESIAN_POINT('',(1.399999999986,1.999374902312,53.8));
#509 = VECTOR('',#510,1.);
#510 = DIRECTION('',(1.843355213137E-27,-1.,-1.421529769006E-14));
#511 = PLANE('',#512);
#512 = AXIS2_PLACEMENT_3D('',#513,#514,#515);
#513 = CARTESIAN_POINT('',(1.399999999986,1.999374902312,53.8));
#514 = DIRECTION('',(-1.,1.843355213137E-27,-2.593480985524E-13));
#515 = DIRECTION('',(1.843355213137E-27,-1.,-1.421529769006E-14));
#516 = ADVANCED_FACE('',(#517),#528,.T.);
#517 = FACE_BOUND('',#518,.T.);
#518 = EDGE_LOOP('',(#519,#520,#521,#527));
#519 = ORIENTED_EDGE('',*,*,#80,.T.);
#520 = ORIENTED_EDGE('',*,*,#482,.F.);
#521 = ORIENTED_EDGE('',*,*,#522,.T.);
#522 = EDGE_CURVE('',#473,#499,#523,.T.);
#523 = LINE('',#524,#525);
#524 = CARTESIAN_POINT('',(-2.000000000014,-1.999374902313,53.8));
#525 = VECTOR('',#526,1.);
#526 = DIRECTION('',(1.,-1.716259933092E-27,2.592525944782E-13));
#527 = ORIENTED_EDGE('',*,*,#506,.F.);
#528 = PLANE('',#529);
#529 = AXIS2_PLACEMENT_3D('',#530,#531,#532);
#530 = CARTESIAN_POINT('',(-1.394788523602E-11,-7.124162369839E-13,53.8)
  );
#531 = DIRECTION('',(-2.593480985524E-13,-1.421529769006E-14,1.));
#532 = DIRECTION('',(1.,0.,2.593480985524E-13));
#533 = ADVANCED_FACE('',(#534),#572,.T.);
#534 = FACE_BOUND('',#535,.T.);
#535 = EDGE_LOOP('',(#536,#537,#538,#539,#547,#555,#561,#562,#563,#564,
    #565,#566,#567,#568,#569,#570,#571));
#536 = ORIENTED_EDGE('',*,*,#152,.F.);
#537 = ORIENTED_EDGE('',*,*,#209,.F.);
#538 = ORIENTED_EDGE('',*,*,#305,.T.);
#539 = ORIENTED_EDGE('',*,*,#540,.F.);
#540 = EDGE_CURVE('',#541,#298,#543,.T.);
#541 = VERTEX_POINT('',#542);
#542 = CARTESIAN_POINT('',(-5.89999999996,-1.999374902313,
    41.799999999999));
#543 = LINE('',#544,#545);
#544 = CARTESIAN_POINT('',(-5.89999999996,-1.999374902313,
    41.799999999999));
#545 = VECTOR('',#546,1.);
#546 = DIRECTION('',(-2.5941909627E-13,-1.352783061286E-14,1.));
#547 = ORIENTED_EDGE('',*,*,#548,.F.);
#548 = EDGE_CURVE('',#549,#541,#551,.T.);
#549 = VERTEX_POINT('',#550);
#550 = CARTESIAN_POINT('',(1.999999999989,-1.999374902313,
    41.800000000001));
#551 = LINE('',#552,#553);
#552 = CARTESIAN_POINT('',(1.999999999989,-1.999374902313,
    41.800000000001));
#553 = VECTOR('',#554,1.);
#554 = DIRECTION('',(-1.,1.754688796041E-27,-2.5941909627E-13));
#555 = ORIENTED_EDGE('',*,*,#556,.T.);
#556 = EDGE_CURVE('',#549,#250,#557,.T.);
#557 = LINE('',#558,#559);
#558 = CARTESIAN_POINT('',(1.999999999989,-1.999374902313,
    41.800000000001));
#559 = VECTOR('',#560,1.);
#560 = DIRECTION('',(-2.5941909627E-13,-1.352783061286E-14,1.));
#561 = ORIENTED_EDGE('',*,*,#352,.T.);
#562 = ORIENTED_EDGE('',*,*,#399,.F.);
#563 = ORIENTED_EDGE('',*,*,#456,.T.);
#564 = ORIENTED_EDGE('',*,*,#498,.F.);
#565 = ORIENTED_EDGE('',*,*,#522,.F.);
#566 = ORIENTED_EDGE('',*,*,#472,.T.);
#567 = ORIENTED_EDGE('',*,*,#424,.F.);
#568 = ORIENTED_EDGE('',*,*,#384,.F.);
#569 = ORIENTED_EDGE('',*,*,#329,.F.);
#570 = ORIENTED_EDGE('',*,*,#223,.T.);
#571 = ORIENTED_EDGE('',*,*,#174,.F.);
#572 = PLANE('',#573);
#573 = AXIS2_PLACEMENT_3D('',#574,#575,#576);
#574 = CARTESIAN_POINT('',(-0.97010050251,-1.999374902313,
    46.820100502523));
#575 = DIRECTION('',(-0.,-1.,-1.325073877202E-14));
#576 = DIRECTION('',(0.,1.325073877202E-14,-1.));
#577 = ADVANCED_FACE('',(#578),#612,.T.);
#578 = FACE_BOUND('',#579,.T.);
#579 = EDGE_LOOP('',(#580,#588,#589,#590,#598,#606));
#580 = ORIENTED_EDGE('',*,*,#581,.T.);
#581 = EDGE_CURVE('',#582,#248,#584,.T.);
#582 = VERTEX_POINT('',#583);
#583 = CARTESIAN_POINT('',(1.99999999999,-6.000000000001,38.000000000074
    ));
#584 = LINE('',#585,#586);
#585 = CARTESIAN_POINT('',(1.999999999989,-6.000000000027,
    41.800000000001));
#586 = VECTOR('',#587,1.);
#587 = DIRECTION('',(-2.5941909627E-13,-1.352783061286E-14,1.));
#588 = ORIENTED_EDGE('',*,*,#247,.T.);
#589 = ORIENTED_EDGE('',*,*,#556,.F.);
#590 = ORIENTED_EDGE('',*,*,#591,.F.);
#591 = EDGE_CURVE('',#592,#549,#594,.T.);
#592 = VERTEX_POINT('',#593);
#593 = CARTESIAN_POINT('',(1.999999999989,-4.000000000001,
    41.800000000001));
#594 = LINE('',#595,#596);
#595 = CARTESIAN_POINT('',(1.999999999989,-6.000000000027,
    41.800000000001));
#596 = VECTOR('',#597,1.);
#597 = DIRECTION('',(-1.754688796041E-27,1.,1.352783061286E-14));
#598 = ORIENTED_EDGE('',*,*,#599,.T.);
#599 = EDGE_CURVE('',#592,#600,#602,.T.);
#600 = VERTEX_POINT('',#601);
#601 = CARTESIAN_POINT('',(1.99999999999,-4.000000000001,38.000000000074
    ));
#602 = LINE('',#603,#604);
#603 = CARTESIAN_POINT('',(1.999999999989,-4.000000000001,
    41.800000000001));
#604 = VECTOR('',#605,1.);
#605 = DIRECTION('',(2.592525944782E-13,1.324005984624E-14,-1.));
#606 = ORIENTED_EDGE('',*,*,#607,.F.);
#607 = EDGE_CURVE('',#582,#600,#608,.T.);
#608 = LINE('',#609,#610);
#609 = CARTESIAN_POINT('',(1.99999999999,-5.21357142857,38.000000000074)
  );
#610 = VECTOR('',#611,1.);
#611 = DIRECTION('',(-4.382910120368E-27,1.,2.352597498874E-14));
#612 = PLANE('',#613);
#613 = AXIS2_PLACEMENT_3D('',#614,#615,#616);
#614 = CARTESIAN_POINT('',(1.999999999989,-4.38753900631,41.287851555189
    ));
#615 = DIRECTION('',(-1.,-4.346733210714E-16,-2.604214185146E-13));
#616 = DIRECTION('',(2.604214185146E-13,0.,-1.));
#617 = ADVANCED_FACE('',(#618),#652,.T.);
#618 = FACE_BOUND('',#619,.T.);
#619 = EDGE_LOOP('',(#620,#628,#636,#644,#650,#651));
#620 = ORIENTED_EDGE('',*,*,#621,.T.);
#621 = EDGE_CURVE('',#290,#622,#624,.T.);
#622 = VERTEX_POINT('',#623);
#623 = CARTESIAN_POINT('',(-5.90000000001,5.999999999999,38.000000000072
    ));
#624 = LINE('',#625,#626);
#625 = CARTESIAN_POINT('',(-5.900000000011,5.999999999999,
    41.799999999999));
#626 = VECTOR('',#627,1.);
#627 = DIRECTION('',(2.592525944782E-13,1.324005984624E-14,-1.));
#628 = ORIENTED_EDGE('',*,*,#629,.F.);
#629 = EDGE_CURVE('',#630,#622,#632,.T.);
#630 = VERTEX_POINT('',#631);
#631 = CARTESIAN_POINT('',(-5.90000000001,3.999999999999,38.000000000072
    ));
#632 = LINE('',#633,#634);
#633 = CARTESIAN_POINT('',(-5.90000000001,-0.21357142857,38.000000000072
    ));
#634 = VECTOR('',#635,1.);
#635 = DIRECTION('',(-4.382910120368E-27,1.,2.352597498874E-14));
#636 = ORIENTED_EDGE('',*,*,#637,.F.);
#637 = EDGE_CURVE('',#638,#630,#640,.T.);
#638 = VERTEX_POINT('',#639);
#639 = CARTESIAN_POINT('',(-5.900000000011,3.999999999999,
    41.799999999999));
#640 = LINE('',#641,#642);
#641 = CARTESIAN_POINT('',(-5.900000000011,3.999999999999,
    41.799999999999));
#642 = VECTOR('',#643,1.);
#643 = DIRECTION('',(2.592525944782E-13,1.324005984624E-14,-1.));
#644 = ORIENTED_EDGE('',*,*,#645,.F.);
#645 = EDGE_CURVE('',#541,#638,#646,.T.);
#646 = LINE('',#647,#648);
#647 = CARTESIAN_POINT('',(-5.89999999996,-1.999374902313,
    41.799999999999));
#648 = VECTOR('',#649,1.);
#649 = DIRECTION('',(-1.754688796041E-27,1.,1.352783061286E-14));
#650 = ORIENTED_EDGE('',*,*,#540,.T.);
#651 = ORIENTED_EDGE('',*,*,#297,.F.);
#652 = PLANE('',#653);
#653 = AXIS2_PLACEMENT_3D('',#654,#655,#656);
#654 = CARTESIAN_POINT('',(-5.899999999978,2.826350858187,
    41.726038309376));
#655 = DIRECTION('',(-1.,-1.669231525594E-12,7.602834957022E-12));
#656 = DIRECTION('',(-7.602834957022E-12,0.,-1.));
#657 = ADVANCED_FACE('',(#658),#692,.T.);
#658 = FACE_BOUND('',#659,.T.);
#659 = EDGE_LOOP('',(#660,#668,#676,#684,#690,#691));
#660 = ORIENTED_EDGE('',*,*,#661,.F.);
#661 = EDGE_CURVE('',#662,#282,#664,.T.);
#662 = VERTEX_POINT('',#663);
#663 = CARTESIAN_POINT('',(-1.9,6.000000000026,41.8));
#664 = LINE('',#665,#666);
#665 = CARTESIAN_POINT('',(-1.9,6.000000000026,41.8));
#666 = VECTOR('',#667,1.);
#667 = DIRECTION('',(-2.5941909627E-13,-1.352783061286E-14,1.));
#668 = ORIENTED_EDGE('',*,*,#669,.T.);
#669 = EDGE_CURVE('',#662,#670,#672,.T.);
#670 = VERTEX_POINT('',#671);
#671 = CARTESIAN_POINT('',(-2.00000000001,5.999999999999,41.8));
#672 = LINE('',#673,#674);
#673 = CARTESIAN_POINT('',(-1.9,6.000000000026,41.8));
#674 = VECTOR('',#675,1.);
#675 = DIRECTION('',(-1.,1.754688796041E-27,-2.5941909627E-13));
#676 = ORIENTED_EDGE('',*,*,#677,.T.);
#677 = EDGE_CURVE('',#670,#678,#680,.T.);
#678 = VERTEX_POINT('',#679);
#679 = CARTESIAN_POINT('',(-2.000000000009,5.999999999999,
    38.000000000073));
#680 = LINE('',#681,#682);
#681 = CARTESIAN_POINT('',(-2.00000000001,5.999999999999,41.8));
#682 = VECTOR('',#683,1.);
#683 = DIRECTION('',(2.592525944782E-13,1.324005984624E-14,-1.));
#684 = ORIENTED_EDGE('',*,*,#685,.F.);
#685 = EDGE_CURVE('',#622,#678,#686,.T.);
#686 = LINE('',#687,#688);
#687 = CARTESIAN_POINT('',(-2.390000000022,5.999999999999,
    38.000000000073));
#688 = VECTOR('',#689,1.);
#689 = DIRECTION('',(1.,-2.212516803452E-27,2.967340617921E-13));
#690 = ORIENTED_EDGE('',*,*,#621,.F.);
#691 = ORIENTED_EDGE('',*,*,#289,.F.);
#692 = PLANE('',#693);
#693 = AXIS2_PLACEMENT_3D('',#694,#695,#696);
#694 = CARTESIAN_POINT('',(-3.919387755099,6.000000000011,
    40.919387755132));
#695 = DIRECTION('',(-6.068775857516E-14,1.,-4.265895501017E-12));
#696 = DIRECTION('',(0.,4.265895501017E-12,1.));
#697 = ADVANCED_FACE('',(#698),#716,.F.);
#698 = FACE_BOUND('',#699,.F.);
#699 = EDGE_LOOP('',(#700,#708,#709,#710));
#700 = ORIENTED_EDGE('',*,*,#701,.T.);
#701 = EDGE_CURVE('',#702,#274,#704,.T.);
#702 = VERTEX_POINT('',#703);
#703 = CARTESIAN_POINT('',(-1.9,1.999999999999,41.8));
#704 = LINE('',#705,#706);
#705 = CARTESIAN_POINT('',(-1.9,1.999999999999,41.8));
#706 = VECTOR('',#707,1.);
#707 = DIRECTION('',(-2.5941909627E-13,-1.352783061286E-14,1.));
#708 = ORIENTED_EDGE('',*,*,#281,.T.);
#709 = ORIENTED_EDGE('',*,*,#661,.F.);
#710 = ORIENTED_EDGE('',*,*,#711,.F.);
#711 = EDGE_CURVE('',#702,#662,#712,.T.);
#712 = LINE('',#713,#714);
#713 = CARTESIAN_POINT('',(-1.9,1.999999999999,41.8));
#714 = VECTOR('',#715,1.);
#715 = DIRECTION('',(-1.754688796041E-27,1.,1.352783061286E-14));
#716 = PLANE('',#717);
#717 = AXIS2_PLACEMENT_3D('',#718,#719,#720);
#718 = CARTESIAN_POINT('',(-1.9,1.999999999999,41.8));
#719 = DIRECTION('',(-1.,1.754688796041E-27,-2.5941909627E-13));
#720 = DIRECTION('',(-1.754688796041E-27,1.,1.352783061286E-14));
#721 = ADVANCED_FACE('',(#722),#740,.T.);
#722 = FACE_BOUND('',#723,.T.);
#723 = EDGE_LOOP('',(#724,#732,#738,#739));
#724 = ORIENTED_EDGE('',*,*,#725,.F.);
#725 = EDGE_CURVE('',#726,#266,#728,.T.);
#726 = VERTEX_POINT('',#727);
#727 = CARTESIAN_POINT('',(5.899999999939,1.999999999999,41.800000000002
    ));
#728 = LINE('',#729,#730);
#729 = CARTESIAN_POINT('',(5.899999999939,1.999999999999,41.800000000002
    ));
#730 = VECTOR('',#731,1.);
#731 = DIRECTION('',(-2.5941909627E-13,-1.352783061286E-14,1.));
#732 = ORIENTED_EDGE('',*,*,#733,.T.);
#733 = EDGE_CURVE('',#726,#702,#734,.T.);
#734 = LINE('',#735,#736);
#735 = CARTESIAN_POINT('',(1.899999999989,1.999999999999,41.800000000001
    ));
#736 = VECTOR('',#737,1.);
#737 = DIRECTION('',(-1.,1.754688796041E-27,-2.5941909627E-13));
#738 = ORIENTED_EDGE('',*,*,#701,.T.);
#739 = ORIENTED_EDGE('',*,*,#273,.F.);
#740 = PLANE('',#741);
#741 = AXIS2_PLACEMENT_3D('',#742,#743,#744);
#742 = CARTESIAN_POINT('',(1.999999999969,1.999999999999,42.800000000001
    ));
#743 = DIRECTION('',(0.,1.,1.345635621071E-14));
#744 = DIRECTION('',(0.,-1.345635621071E-14,1.));
#745 = ADVANCED_FACE('',(#746),#780,.T.);
#746 = FACE_BOUND('',#747,.T.);
#747 = EDGE_LOOP('',(#748,#756,#764,#772,#778,#779));
#748 = ORIENTED_EDGE('',*,*,#749,.T.);
#749 = EDGE_CURVE('',#258,#750,#752,.T.);
#750 = VERTEX_POINT('',#751);
#751 = CARTESIAN_POINT('',(5.89999999999,-6.000000000001,38.000000000075
    ));
#752 = LINE('',#753,#754);
#753 = CARTESIAN_POINT('',(5.899999999989,-6.000000000001,
    41.800000000002));
#754 = VECTOR('',#755,1.);
#755 = DIRECTION('',(2.592525944782E-13,1.324005984624E-14,-1.));
#756 = ORIENTED_EDGE('',*,*,#757,.F.);
#757 = EDGE_CURVE('',#758,#750,#760,.T.);
#758 = VERTEX_POINT('',#759);
#759 = CARTESIAN_POINT('',(5.89999999999,-4.000000000001,38.000000000075
    ));
#760 = LINE('',#761,#762);
#761 = CARTESIAN_POINT('',(5.89999999999,-4.21357142857,38.000000000075)
  );
#762 = VECTOR('',#763,1.);
#763 = DIRECTION('',(4.382910120368E-27,-1.,-2.352597498874E-14));
#764 = ORIENTED_EDGE('',*,*,#765,.F.);
#765 = EDGE_CURVE('',#766,#758,#768,.T.);
#766 = VERTEX_POINT('',#767);
#767 = CARTESIAN_POINT('',(5.899999999989,-4.000000000001,
    41.800000000002));
#768 = LINE('',#769,#770);
#769 = CARTESIAN_POINT('',(5.899999999989,-4.000000000001,
    41.800000000002));
#770 = VECTOR('',#771,1.);
#771 = DIRECTION('',(2.592525944782E-13,1.324005984624E-14,-1.));
#772 = ORIENTED_EDGE('',*,*,#773,.T.);
#773 = EDGE_CURVE('',#766,#726,#774,.T.);
#774 = LINE('',#775,#776);
#775 = CARTESIAN_POINT('',(5.899999999939,-6.000000000027,
    41.800000000002));
#776 = VECTOR('',#777,1.);
#777 = DIRECTION('',(-1.754688796041E-27,1.,1.352783061286E-14));
#778 = ORIENTED_EDGE('',*,*,#725,.T.);
#779 = ORIENTED_EDGE('',*,*,#265,.F.);
#780 = PLANE('',#781);
#781 = AXIS2_PLACEMENT_3D('',#782,#783,#784);
#782 = CARTESIAN_POINT('',(5.899999999956,-2.826086956516,
    41.726086956551));
#783 = DIRECTION('',(1.,1.669501396179E-12,8.1234175757E-12));
#784 = DIRECTION('',(-8.1234175757E-12,0.,1.));
#785 = ADVANCED_FACE('',(#786),#797,.T.);
#786 = FACE_BOUND('',#787,.T.);
#787 = EDGE_LOOP('',(#788,#789,#795,#796));
#788 = ORIENTED_EDGE('',*,*,#581,.F.);
#789 = ORIENTED_EDGE('',*,*,#790,.F.);
#790 = EDGE_CURVE('',#750,#582,#791,.T.);
#791 = LINE('',#792,#793);
#792 = CARTESIAN_POINT('',(3.509999999978,-6.000000000001,
    38.000000000074));
#793 = VECTOR('',#794,1.);
#794 = DIRECTION('',(-1.,2.212516803452E-27,-2.967340617921E-13));
#795 = ORIENTED_EDGE('',*,*,#749,.F.);
#796 = ORIENTED_EDGE('',*,*,#257,.F.);
#797 = PLANE('',#798);
#798 = AXIS2_PLACEMENT_3D('',#799,#800,#801);
#799 = CARTESIAN_POINT('',(3.949999999979,-6.000000000011,40.90000000003
    ));
#800 = DIRECTION('',(-0.,-1.,-4.279819897148E-12));
#801 = DIRECTION('',(0.,4.279819897148E-12,-1.));
#802 = ADVANCED_FACE('',(#803),#832,.F.);
#803 = FACE_BOUND('',#804,.F.);
#804 = EDGE_LOOP('',(#805,#806,#812,#813,#814,#815,#816,#824,#830,#831)
  );
#805 = ORIENTED_EDGE('',*,*,#591,.F.);
#806 = ORIENTED_EDGE('',*,*,#807,.T.);
#807 = EDGE_CURVE('',#592,#766,#808,.T.);
#808 = LINE('',#809,#810);
#809 = CARTESIAN_POINT('',(1.999999999989,-4.000000000001,
    41.800000000001));
#810 = VECTOR('',#811,1.);
#811 = DIRECTION('',(1.,-1.716259933092E-27,2.592525944782E-13));
#812 = ORIENTED_EDGE('',*,*,#773,.T.);
#813 = ORIENTED_EDGE('',*,*,#733,.T.);
#814 = ORIENTED_EDGE('',*,*,#711,.T.);
#815 = ORIENTED_EDGE('',*,*,#669,.T.);
#816 = ORIENTED_EDGE('',*,*,#817,.T.);
#817 = EDGE_CURVE('',#670,#818,#820,.T.);
#818 = VERTEX_POINT('',#819);
#819 = CARTESIAN_POINT('',(-2.00000000001,3.999999999999,41.8));
#820 = LINE('',#821,#822);
#821 = CARTESIAN_POINT('',(-2.00000000001,5.999999999999,41.8));
#822 = VECTOR('',#823,1.);
#823 = DIRECTION('',(1.716259933092E-27,-1.,-1.324005984624E-14));
#824 = ORIENTED_EDGE('',*,*,#825,.T.);
#825 = EDGE_CURVE('',#818,#638,#826,.T.);
#826 = LINE('',#827,#828);
#827 = CARTESIAN_POINT('',(-2.00000000001,3.999999999999,41.8));
#828 = VECTOR('',#829,1.);
#829 = DIRECTION('',(-1.,1.716259933092E-27,-2.592525944782E-13));
#830 = ORIENTED_EDGE('',*,*,#645,.F.);
#831 = ORIENTED_EDGE('',*,*,#548,.F.);
#832 = PLANE('',#833);
#833 = AXIS2_PLACEMENT_3D('',#834,#835,#836);
#834 = CARTESIAN_POINT('',(8.507106539122E-03,8.507106549399E-03,41.8));
#835 = DIRECTION('',(-2.592525944782E-13,-1.324005984624E-14,1.));
#836 = DIRECTION('',(1.,0.,2.592525944782E-13));
#837 = ADVANCED_FACE('',(#838),#849,.F.);
#838 = FACE_BOUND('',#839,.F.);
#839 = EDGE_LOOP('',(#840,#841,#842,#848));
#840 = ORIENTED_EDGE('',*,*,#807,.F.);
#841 = ORIENTED_EDGE('',*,*,#599,.T.);
#842 = ORIENTED_EDGE('',*,*,#843,.T.);
#843 = EDGE_CURVE('',#600,#758,#844,.T.);
#844 = LINE('',#845,#846);
#845 = CARTESIAN_POINT('',(1.559999999978,-4.000000000001,
    38.000000000074));
#846 = VECTOR('',#847,1.);
#847 = DIRECTION('',(1.,-2.212516803452E-27,2.967340617921E-13));
#848 = ORIENTED_EDGE('',*,*,#765,.F.);
#849 = PLANE('',#850);
#850 = AXIS2_PLACEMENT_3D('',#851,#852,#853);
#851 = CARTESIAN_POINT('',(1.999999999989,-4.000000000001,
    41.800000000001));
#852 = DIRECTION('',(1.716259933092E-27,-1.,-1.324005984624E-14));
#853 = DIRECTION('',(1.,-1.716259933092E-27,2.592525944782E-13));
#854 = ADVANCED_FACE('',(#855),#861,.T.);
#855 = FACE_BOUND('',#856,.T.);
#856 = EDGE_LOOP('',(#857,#858,#859,#860));
#857 = ORIENTED_EDGE('',*,*,#790,.T.);
#858 = ORIENTED_EDGE('',*,*,#607,.T.);
#859 = ORIENTED_EDGE('',*,*,#843,.T.);
#860 = ORIENTED_EDGE('',*,*,#757,.T.);
#861 = PLANE('',#862);
#862 = AXIS2_PLACEMENT_3D('',#863,#864,#865);
#863 = CARTESIAN_POINT('',(1.119999999965,-4.427142857139,
    38.000000000074));
#864 = DIRECTION('',(2.967340617921E-13,2.352597498874E-14,-1.));
#865 = DIRECTION('',(-0.707106781187,-0.707106781187,-2.264580437508E-13
    ));
#866 = ADVANCED_FACE('',(#867),#885,.T.);
#867 = FACE_BOUND('',#868,.T.);
#868 = EDGE_LOOP('',(#869,#877,#883,#884));
#869 = ORIENTED_EDGE('',*,*,#870,.T.);
#870 = EDGE_CURVE('',#678,#871,#873,.T.);
#871 = VERTEX_POINT('',#872);
#872 = CARTESIAN_POINT('',(-2.000000000009,3.999999999999,
    38.000000000073));
#873 = LINE('',#874,#875);
#874 = CARTESIAN_POINT('',(-2.000000000009,0.78642857143,38.000000000073
    ));
#875 = VECTOR('',#876,1.);
#876 = DIRECTION('',(4.382910120368E-27,-1.,-2.352597498874E-14));
#877 = ORIENTED_EDGE('',*,*,#878,.T.);
#878 = EDGE_CURVE('',#871,#630,#879,.T.);
#879 = LINE('',#880,#881);
#880 = CARTESIAN_POINT('',(-0.440000000022,3.999999999999,
    38.000000000073));
#881 = VECTOR('',#882,1.);
#882 = DIRECTION('',(-1.,2.212516803452E-27,-2.967340617921E-13));
#883 = ORIENTED_EDGE('',*,*,#629,.T.);
#884 = ORIENTED_EDGE('',*,*,#685,.T.);
#885 = PLANE('',#886);
#886 = AXIS2_PLACEMENT_3D('',#887,#888,#889);
#887 = CARTESIAN_POINT('',(1.119999999965,-4.427142857139,
    38.000000000074));
#888 = DIRECTION('',(2.967340617921E-13,2.352597498874E-14,-1.));
#889 = DIRECTION('',(-0.707106781187,-0.707106781187,-2.264580437508E-13
    ));
#890 = ADVANCED_FACE('',(#891),#902,.F.);
#891 = FACE_BOUND('',#892,.F.);
#892 = EDGE_LOOP('',(#893,#894,#900,#901));
#893 = ORIENTED_EDGE('',*,*,#825,.F.);
#894 = ORIENTED_EDGE('',*,*,#895,.T.);
#895 = EDGE_CURVE('',#818,#871,#896,.T.);
#896 = LINE('',#897,#898);
#897 = CARTESIAN_POINT('',(-2.00000000001,3.999999999999,41.8));
#898 = VECTOR('',#899,1.);
#899 = DIRECTION('',(2.592525944782E-13,1.324005984624E-14,-1.));
#900 = ORIENTED_EDGE('',*,*,#878,.T.);
#901 = ORIENTED_EDGE('',*,*,#637,.F.);
#902 = PLANE('',#903);
#903 = AXIS2_PLACEMENT_3D('',#904,#905,#906);
#904 = CARTESIAN_POINT('',(-2.00000000001,3.999999999999,41.8));
#905 = DIRECTION('',(-1.716259933092E-27,1.,1.324005984624E-14));
#906 = DIRECTION('',(-1.,1.716259933092E-27,-2.592525944782E-13));
#907 = ADVANCED_FACE('',(#908),#914,.F.);
#908 = FACE_BOUND('',#909,.F.);
#909 = EDGE_LOOP('',(#910,#911,#912,#913));
#910 = ORIENTED_EDGE('',*,*,#817,.F.);
#911 = ORIENTED_EDGE('',*,*,#677,.T.);
#912 = ORIENTED_EDGE('',*,*,#870,.T.);
#913 = ORIENTED_EDGE('',*,*,#895,.F.);
#914 = PLANE('',#915);
#915 = AXIS2_PLACEMENT_3D('',#916,#917,#918);
#916 = CARTESIAN_POINT('',(-2.00000000001,5.999999999999,41.8));
#917 = DIRECTION('',(-1.,1.716259933092E-27,-2.592525944782E-13));
#918 = DIRECTION('',(1.716259933092E-27,-1.,-1.324005984624E-14));
#919 = ( GEOMETRIC_REPRESENTATION_CONTEXT(3) 
GLOBAL_UNCERTAINTY_ASSIGNED_CONTEXT((#923)) GLOBAL_UNIT_ASSIGNED_CONTEXT
((#920,#921,#922)) REPRESENTATION_CONTEXT('Context #1',
  '3D Context with UNIT and UNCERTAINTY') );
#920 = ( LENGTH_UNIT() NAMED_UNIT(*) SI_UNIT(.MILLI.,.METRE.) );
#921 = ( NAMED_UNIT(*) PLANE_ANGLE_UNIT() SI_UNIT($,.RADIAN.) );
#922 = ( NAMED_UNIT(*) SI_UNIT($,.STERADIAN.) SOLID_ANGLE_UNIT() );
#923 = UNCERTAINTY_MEASURE_WITH_UNIT(LENGTH_MEASURE(1.E-07),#920,
  'distance_accuracy_value','confusion accuracy');
#924 = PRODUCT_RELATED_PRODUCT_CATEGORY('part',$,(#7));
#925 = MECHANICAL_DESIGN_GEOMETRIC_PRESENTATION_REPRESENTATION('',(#926)
  ,#919);
#926 = STYLED_ITEM('color',(#927),#15);
#927 = PRESENTATION_STYLE_ASSIGNMENT((#928,#934));
#928 = SURFACE_STYLE_USAGE(.BOTH.,#929);
#929 = SURFACE_SIDE_STYLE('',(#930));
#930 = SURFACE_STYLE_FILL_AREA(#931);
#931 = FILL_AREA_STYLE('',(#932));
#932 = FILL_AREA_STYLE_COLOUR('',#933);
#933 = COLOUR_RGB('',0.447058818107,0.474509808674,0.501960817233);
#934 = CURVE_STYLE('',#935,POSITIVE_LENGTH_MEASURE(0.1),#936);
#935 = DRAUGHTING_PRE_DEFINED_CURVE_FONT('continuous');
#936 = COLOUR_RGB('',9.803921802644E-02,9.803921802644E-02,
  9.803921802644E-02);
ENDSEC;
END-ISO-10303-21;
